<svg  viewBox="0 0 320 334" fill="none" xmlns="http://www.w3.org/2000/svg">
<g clip-path="url(#clip0_594_3324)">
<path fill-rule="evenodd" clip-rule="evenodd" d="M0 41.6525L40 0H20L0 20.8262V41.6525Z" fill="#0F1C8C"/>
<path fill-rule="evenodd" clip-rule="evenodd" d="M40 41.6525V20.8262L20 41.6525H40Z" fill="#0F1C8C"/>
</g>
<g clip-path="url(#clip1_594_3324)">
<path fill-rule="evenodd" clip-rule="evenodd" d="M0 83.305L40 41.6525H20L0 62.4787V83.305Z" fill="#0F1C8C"/>
<path fill-rule="evenodd" clip-rule="evenodd" d="M40 83.305V62.4787L20 83.305H40Z" fill="#0F1C8C"/>
</g>
<g clip-path="url(#clip2_594_3324)">
<path fill-rule="evenodd" clip-rule="evenodd" d="M0 124.957L40 83.305H20L0 104.131V124.957Z" fill="#0F1C8C"/>
<path fill-rule="evenodd" clip-rule="evenodd" d="M40 124.957V104.131L20 124.957H40Z" fill="#0F1C8C"/>
</g>
<g clip-path="url(#clip3_594_3324)">
<path fill-rule="evenodd" clip-rule="evenodd" d="M0 166.61L40 124.957H20L0 145.784V166.61Z" fill="#0F1C8C"/>
<path fill-rule="evenodd" clip-rule="evenodd" d="M40 166.61V145.784L20 166.61H40Z" fill="#0F1C8C"/>
</g>
<g clip-path="url(#clip4_594_3324)">
<path fill-rule="evenodd" clip-rule="evenodd" d="M40 41.6525L80 0H60L40 20.8262V41.6525Z" fill="#0F1C8C"/>
<path fill-rule="evenodd" clip-rule="evenodd" d="M80 41.6525V20.8262L60 41.6525H80Z" fill="#0F1C8C"/>
</g>
<g clip-path="url(#clip5_594_3324)">
<path fill-rule="evenodd" clip-rule="evenodd" d="M40 83.305L80 41.6525H60L40 62.4787V83.305Z" fill="#0F1C8C"/>
<path fill-rule="evenodd" clip-rule="evenodd" d="M80 83.305V62.4787L60 83.305H80Z" fill="#0F1C8C"/>
</g>
<g clip-path="url(#clip6_594_3324)">
<path fill-rule="evenodd" clip-rule="evenodd" d="M40 124.957L80 83.305H60L40 104.131V124.957Z" fill="#0F1C8C"/>
<path fill-rule="evenodd" clip-rule="evenodd" d="M80 124.957V104.131L60 124.957H80Z" fill="#0F1C8C"/>
</g>
<g clip-path="url(#clip7_594_3324)">
<path fill-rule="evenodd" clip-rule="evenodd" d="M40 166.61L80 124.957H60L40 145.784V166.61Z" fill="#0F1C8C"/>
<path fill-rule="evenodd" clip-rule="evenodd" d="M80 166.61V145.784L60 166.61H80Z" fill="#0F1C8C"/>
</g>
<g clip-path="url(#clip8_594_3324)">
<path fill-rule="evenodd" clip-rule="evenodd" d="M80 41.6525L120 0H100L80 20.8262V41.6525Z" fill="#0F1C8C"/>
<path fill-rule="evenodd" clip-rule="evenodd" d="M120 41.6525V20.8262L100 41.6525H120Z" fill="#0F1C8C"/>
</g>
<g clip-path="url(#clip9_594_3324)">
<path fill-rule="evenodd" clip-rule="evenodd" d="M80 83.305L120 41.6525H100L80 62.4787V83.305Z" fill="#0F1C8C"/>
<path fill-rule="evenodd" clip-rule="evenodd" d="M120 83.305V62.4787L100 83.305H120Z" fill="#0F1C8C"/>
</g>
<g clip-path="url(#clip10_594_3324)">
<path fill-rule="evenodd" clip-rule="evenodd" d="M80 124.957L120 83.305H100L80 104.131V124.957Z" fill="#0F1C8C"/>
<path fill-rule="evenodd" clip-rule="evenodd" d="M120 124.957V104.131L100 124.957H120Z" fill="#0F1C8C"/>
</g>
<g clip-path="url(#clip11_594_3324)">
<path fill-rule="evenodd" clip-rule="evenodd" d="M80 166.61L120 124.957H100L80 145.784V166.61Z" fill="#0F1C8C"/>
<path fill-rule="evenodd" clip-rule="evenodd" d="M120 166.61V145.784L100 166.61H120Z" fill="#0F1C8C"/>
</g>
<g clip-path="url(#clip12_594_3324)">
<path fill-rule="evenodd" clip-rule="evenodd" d="M120 41.6525L160 0H140L120 20.8262V41.6525Z" fill="#0F1C8C"/>
<path fill-rule="evenodd" clip-rule="evenodd" d="M160 41.6525V20.8262L140 41.6525H160Z" fill="#0F1C8C"/>
</g>
<g clip-path="url(#clip13_594_3324)">
<path fill-rule="evenodd" clip-rule="evenodd" d="M120 83.305L160 41.6525H140L120 62.4787V83.305Z" fill="#0F1C8C"/>
<path fill-rule="evenodd" clip-rule="evenodd" d="M160 83.305V62.4787L140 83.305H160Z" fill="#0F1C8C"/>
</g>
<g clip-path="url(#clip14_594_3324)">
<path fill-rule="evenodd" clip-rule="evenodd" d="M120 124.957L160 83.305H140L120 104.131V124.957Z" fill="#0F1C8C"/>
<path fill-rule="evenodd" clip-rule="evenodd" d="M160 124.957V104.131L140 124.957H160Z" fill="#0F1C8C"/>
</g>
<g clip-path="url(#clip15_594_3324)">
<path fill-rule="evenodd" clip-rule="evenodd" d="M120 166.61L160 124.957H140L120 145.784V166.61Z" fill="#0F1C8C"/>
<path fill-rule="evenodd" clip-rule="evenodd" d="M160 166.61V145.784L140 166.61H160Z" fill="#0F1C8C"/>
</g>
<g clip-path="url(#clip16_594_3324)">
<path fill-rule="evenodd" clip-rule="evenodd" d="M160 41.6525L200 0H180L160 20.8262V41.6525Z" fill="#0F1C8C"/>
<path fill-rule="evenodd" clip-rule="evenodd" d="M200 41.6525V20.8262L180 41.6525H200Z" fill="#0F1C8C"/>
</g>
<g clip-path="url(#clip17_594_3324)">
<path fill-rule="evenodd" clip-rule="evenodd" d="M160 83.305L200 41.6525H180L160 62.4787V83.305Z" fill="#0F1C8C"/>
<path fill-rule="evenodd" clip-rule="evenodd" d="M200 83.305V62.4787L180 83.305H200Z" fill="#0F1C8C"/>
</g>
<g clip-path="url(#clip18_594_3324)">
<path fill-rule="evenodd" clip-rule="evenodd" d="M160 124.957L200 83.305H180L160 104.131V124.957Z" fill="#0F1C8C"/>
<path fill-rule="evenodd" clip-rule="evenodd" d="M200 124.957V104.131L180 124.957H200Z" fill="#0F1C8C"/>
</g>
<g clip-path="url(#clip19_594_3324)">
<path fill-rule="evenodd" clip-rule="evenodd" d="M160 166.61L200 124.957H180L160 145.784V166.61Z" fill="#0F1C8C"/>
<path fill-rule="evenodd" clip-rule="evenodd" d="M200 166.61V145.784L180 166.61H200Z" fill="#0F1C8C"/>
</g>
<g clip-path="url(#clip20_594_3324)">
<path fill-rule="evenodd" clip-rule="evenodd" d="M200 41.6525L240 0H220L200 20.8262V41.6525Z" fill="#0F1C8C"/>
<path fill-rule="evenodd" clip-rule="evenodd" d="M240 41.6525V20.8262L220 41.6525H240Z" fill="#0F1C8C"/>
</g>
<g clip-path="url(#clip21_594_3324)">
<path fill-rule="evenodd" clip-rule="evenodd" d="M200 83.305L240 41.6525H220L200 62.4787V83.305Z" fill="#0F1C8C"/>
<path fill-rule="evenodd" clip-rule="evenodd" d="M240 83.305V62.4787L220 83.305H240Z" fill="#0F1C8C"/>
</g>
<g clip-path="url(#clip22_594_3324)">
<path fill-rule="evenodd" clip-rule="evenodd" d="M200 124.957L240 83.305H220L200 104.131V124.957Z" fill="#0F1C8C"/>
<path fill-rule="evenodd" clip-rule="evenodd" d="M240 124.957V104.131L220 124.957H240Z" fill="#0F1C8C"/>
</g>
<g clip-path="url(#clip23_594_3324)">
<path fill-rule="evenodd" clip-rule="evenodd" d="M200 166.61L240 124.957H220L200 145.784V166.61Z" fill="#0F1C8C"/>
<path fill-rule="evenodd" clip-rule="evenodd" d="M240 166.61V145.784L220 166.61H240Z" fill="#0F1C8C"/>
</g>
<g clip-path="url(#clip24_594_3324)">
<path fill-rule="evenodd" clip-rule="evenodd" d="M240 41.6525L280 0H260L240 20.8262V41.6525Z" fill="#0F1C8C"/>
<path fill-rule="evenodd" clip-rule="evenodd" d="M280 41.6525V20.8262L260 41.6525H280Z" fill="#0F1C8C"/>
</g>
<g clip-path="url(#clip25_594_3324)">
<path fill-rule="evenodd" clip-rule="evenodd" d="M240 83.305L280 41.6525H260L240 62.4787V83.305Z" fill="#0F1C8C"/>
<path fill-rule="evenodd" clip-rule="evenodd" d="M280 83.305V62.4787L260 83.305H280Z" fill="#0F1C8C"/>
</g>
<g clip-path="url(#clip26_594_3324)">
<path fill-rule="evenodd" clip-rule="evenodd" d="M240 124.957L280 83.305H260L240 104.131V124.957Z" fill="#0F1C8C"/>
<path fill-rule="evenodd" clip-rule="evenodd" d="M280 124.957V104.131L260 124.957H280Z" fill="#0F1C8C"/>
</g>
<g clip-path="url(#clip27_594_3324)">
<path fill-rule="evenodd" clip-rule="evenodd" d="M240 166.61L280 124.957H260L240 145.784V166.61Z" fill="#0F1C8C"/>
<path fill-rule="evenodd" clip-rule="evenodd" d="M280 166.61V145.784L260 166.61H280Z" fill="#0F1C8C"/>
</g>
<g clip-path="url(#clip28_594_3324)">
<path fill-rule="evenodd" clip-rule="evenodd" d="M280 41.6525L320 0H300L280 20.8262V41.6525Z" fill="#0F1C8C"/>
<path fill-rule="evenodd" clip-rule="evenodd" d="M320 41.6525V20.8262L300 41.6525H320Z" fill="#0F1C8C"/>
</g>
<g clip-path="url(#clip29_594_3324)">
<path fill-rule="evenodd" clip-rule="evenodd" d="M280 83.305L320 41.6525H300L280 62.4787V83.305Z" fill="#0F1C8C"/>
<path fill-rule="evenodd" clip-rule="evenodd" d="M320 83.305V62.4787L300 83.305H320Z" fill="#0F1C8C"/>
</g>
<g clip-path="url(#clip30_594_3324)">
<path fill-rule="evenodd" clip-rule="evenodd" d="M280 124.957L320 83.305H300L280 104.131V124.957Z" fill="#0F1C8C"/>
<path fill-rule="evenodd" clip-rule="evenodd" d="M320 124.957V104.131L300 124.957H320Z" fill="#0F1C8C"/>
</g>
<g clip-path="url(#clip31_594_3324)">
<path fill-rule="evenodd" clip-rule="evenodd" d="M280 166.61L320 124.957H300L280 145.784V166.61Z" fill="#0F1C8C"/>
<path fill-rule="evenodd" clip-rule="evenodd" d="M320 166.61V145.784L300 166.61H320Z" fill="#0F1C8C"/>
</g>
<g clip-path="url(#clip32_594_3324)">
<path fill-rule="evenodd" clip-rule="evenodd" d="M0 208.262L40 166.61H20L0 187.436V208.262Z" fill="#0F1C8C"/>
<path fill-rule="evenodd" clip-rule="evenodd" d="M40 208.262V187.436L20 208.262H40Z" fill="#0F1C8C"/>
</g>
<g clip-path="url(#clip33_594_3324)">
<path fill-rule="evenodd" clip-rule="evenodd" d="M0 249.915L40 208.262H20L0 229.089V249.915Z" fill="#0F1C8C"/>
<path fill-rule="evenodd" clip-rule="evenodd" d="M40 249.915V229.089L20 249.915H40Z" fill="#0F1C8C"/>
</g>
<g clip-path="url(#clip34_594_3324)">
<path fill-rule="evenodd" clip-rule="evenodd" d="M0 291.567L40 249.915H20L0 270.741V291.567Z" fill="#0F1C8C"/>
<path fill-rule="evenodd" clip-rule="evenodd" d="M40 291.567V270.741L20 291.567H40Z" fill="#0F1C8C"/>
</g>
<g clip-path="url(#clip35_594_3324)">
<path fill-rule="evenodd" clip-rule="evenodd" d="M0 333.22L40 291.567H20L0 312.394V333.22Z" fill="#0F1C8C"/>
<path fill-rule="evenodd" clip-rule="evenodd" d="M40 333.22V312.394L20 333.22H40Z" fill="#0F1C8C"/>
</g>
<g clip-path="url(#clip36_594_3324)">
<path fill-rule="evenodd" clip-rule="evenodd" d="M40 208.262L80 166.61H60L40 187.436V208.262Z" fill="#0F1C8C"/>
<path fill-rule="evenodd" clip-rule="evenodd" d="M80 208.262V187.436L60 208.262H80Z" fill="#0F1C8C"/>
</g>
<g clip-path="url(#clip37_594_3324)">
<path fill-rule="evenodd" clip-rule="evenodd" d="M40 249.915L80 208.262H60L40 229.089V249.915Z" fill="#0F1C8C"/>
<path fill-rule="evenodd" clip-rule="evenodd" d="M80 249.915V229.089L60 249.915H80Z" fill="#0F1C8C"/>
</g>
<g clip-path="url(#clip38_594_3324)">
<path fill-rule="evenodd" clip-rule="evenodd" d="M40 291.567L80 249.915H60L40 270.741V291.567Z" fill="#0F1C8C"/>
<path fill-rule="evenodd" clip-rule="evenodd" d="M80 291.567V270.741L60 291.567H80Z" fill="#0F1C8C"/>
</g>
<g clip-path="url(#clip39_594_3324)">
<path fill-rule="evenodd" clip-rule="evenodd" d="M40 333.22L80 291.567H60L40 312.394V333.22Z" fill="#0F1C8C"/>
<path fill-rule="evenodd" clip-rule="evenodd" d="M80 333.22V312.394L60 333.22H80Z" fill="#0F1C8C"/>
</g>
<g clip-path="url(#clip40_594_3324)">
<path fill-rule="evenodd" clip-rule="evenodd" d="M80 208.262L120 166.61H100L80 187.436V208.262Z" fill="#0F1C8C"/>
<path fill-rule="evenodd" clip-rule="evenodd" d="M120 208.262V187.436L100 208.262H120Z" fill="#0F1C8C"/>
</g>
<g clip-path="url(#clip41_594_3324)">
<path fill-rule="evenodd" clip-rule="evenodd" d="M80 249.915L120 208.262H100L80 229.089V249.915Z" fill="#0F1C8C"/>
<path fill-rule="evenodd" clip-rule="evenodd" d="M120 249.915V229.089L100 249.915H120Z" fill="#0F1C8C"/>
</g>
<g clip-path="url(#clip42_594_3324)">
<path fill-rule="evenodd" clip-rule="evenodd" d="M80 291.567L120 249.915H100L80 270.741V291.567Z" fill="#0F1C8C"/>
<path fill-rule="evenodd" clip-rule="evenodd" d="M120 291.567V270.741L100 291.567H120Z" fill="#0F1C8C"/>
</g>
<g clip-path="url(#clip43_594_3324)">
<path fill-rule="evenodd" clip-rule="evenodd" d="M80 333.22L120 291.567H100L80 312.394V333.22Z" fill="#0F1C8C"/>
<path fill-rule="evenodd" clip-rule="evenodd" d="M120 333.22V312.394L100 333.22H120Z" fill="#0F1C8C"/>
</g>
<g clip-path="url(#clip44_594_3324)">
<path fill-rule="evenodd" clip-rule="evenodd" d="M120 208.262L160 166.61H140L120 187.436V208.262Z" fill="#0F1C8C"/>
<path fill-rule="evenodd" clip-rule="evenodd" d="M160 208.262V187.436L140 208.262H160Z" fill="#0F1C8C"/>
</g>
<g clip-path="url(#clip45_594_3324)">
<path fill-rule="evenodd" clip-rule="evenodd" d="M120 249.915L160 208.262H140L120 229.089V249.915Z" fill="#0F1C8C"/>
<path fill-rule="evenodd" clip-rule="evenodd" d="M160 249.915V229.089L140 249.915H160Z" fill="#0F1C8C"/>
</g>
<g clip-path="url(#clip46_594_3324)">
<path fill-rule="evenodd" clip-rule="evenodd" d="M120 291.567L160 249.915H140L120 270.741V291.567Z" fill="#0F1C8C"/>
<path fill-rule="evenodd" clip-rule="evenodd" d="M160 291.567V270.741L140 291.567H160Z" fill="#0F1C8C"/>
</g>
<g clip-path="url(#clip47_594_3324)">
<path fill-rule="evenodd" clip-rule="evenodd" d="M120 333.22L160 291.567H140L120 312.394V333.22Z" fill="#0F1C8C"/>
<path fill-rule="evenodd" clip-rule="evenodd" d="M160 333.22V312.394L140 333.22H160Z" fill="#0F1C8C"/>
</g>
<g clip-path="url(#clip48_594_3324)">
<path fill-rule="evenodd" clip-rule="evenodd" d="M160 208.262L200 166.61H180L160 187.436V208.262Z" fill="#0F1C8C"/>
<path fill-rule="evenodd" clip-rule="evenodd" d="M200 208.262V187.436L180 208.262H200Z" fill="#0F1C8C"/>
</g>
<g clip-path="url(#clip49_594_3324)">
<path fill-rule="evenodd" clip-rule="evenodd" d="M160 249.915L200 208.262H180L160 229.089V249.915Z" fill="#0F1C8C"/>
<path fill-rule="evenodd" clip-rule="evenodd" d="M200 249.915V229.089L180 249.915H200Z" fill="#0F1C8C"/>
</g>
<g clip-path="url(#clip50_594_3324)">
<path fill-rule="evenodd" clip-rule="evenodd" d="M160 291.567L200 249.915H180L160 270.741V291.567Z" fill="#0F1C8C"/>
<path fill-rule="evenodd" clip-rule="evenodd" d="M200 291.567V270.741L180 291.567H200Z" fill="#0F1C8C"/>
</g>
<g clip-path="url(#clip51_594_3324)">
<path fill-rule="evenodd" clip-rule="evenodd" d="M160 333.22L200 291.567H180L160 312.394V333.22Z" fill="#0F1C8C"/>
<path fill-rule="evenodd" clip-rule="evenodd" d="M200 333.22V312.394L180 333.22H200Z" fill="#0F1C8C"/>
</g>
<g clip-path="url(#clip52_594_3324)">
<path fill-rule="evenodd" clip-rule="evenodd" d="M200 208.262L240 166.61H220L200 187.436V208.262Z" fill="#0F1C8C"/>
<path fill-rule="evenodd" clip-rule="evenodd" d="M240 208.262V187.436L220 208.262H240Z" fill="#0F1C8C"/>
</g>
<g clip-path="url(#clip53_594_3324)">
<path fill-rule="evenodd" clip-rule="evenodd" d="M200 249.915L240 208.262H220L200 229.089V249.915Z" fill="#0F1C8C"/>
<path fill-rule="evenodd" clip-rule="evenodd" d="M240 249.915V229.089L220 249.915H240Z" fill="#0F1C8C"/>
</g>
<g clip-path="url(#clip54_594_3324)">
<path fill-rule="evenodd" clip-rule="evenodd" d="M200 291.567L240 249.915H220L200 270.741V291.567Z" fill="#0F1C8C"/>
<path fill-rule="evenodd" clip-rule="evenodd" d="M240 291.567V270.741L220 291.567H240Z" fill="#0F1C8C"/>
</g>
<g clip-path="url(#clip55_594_3324)">
<path fill-rule="evenodd" clip-rule="evenodd" d="M200 333.22L240 291.567H220L200 312.394V333.22Z" fill="#0F1C8C"/>
<path fill-rule="evenodd" clip-rule="evenodd" d="M240 333.22V312.394L220 333.22H240Z" fill="#0F1C8C"/>
</g>
<g clip-path="url(#clip56_594_3324)">
<path fill-rule="evenodd" clip-rule="evenodd" d="M240 208.262L280 166.61H260L240 187.436V208.262Z" fill="#0F1C8C"/>
<path fill-rule="evenodd" clip-rule="evenodd" d="M280 208.262V187.436L260 208.262H280Z" fill="#0F1C8C"/>
</g>
<g clip-path="url(#clip57_594_3324)">
<path fill-rule="evenodd" clip-rule="evenodd" d="M240 249.915L280 208.262H260L240 229.089V249.915Z" fill="#0F1C8C"/>
<path fill-rule="evenodd" clip-rule="evenodd" d="M280 249.915V229.089L260 249.915H280Z" fill="#0F1C8C"/>
</g>
<g clip-path="url(#clip58_594_3324)">
<path fill-rule="evenodd" clip-rule="evenodd" d="M240 291.567L280 249.915H260L240 270.741V291.567Z" fill="#0F1C8C"/>
<path fill-rule="evenodd" clip-rule="evenodd" d="M280 291.567V270.741L260 291.567H280Z" fill="#0F1C8C"/>
</g>
<g clip-path="url(#clip59_594_3324)">
<path fill-rule="evenodd" clip-rule="evenodd" d="M240 333.22L280 291.567H260L240 312.394V333.22Z" fill="#0F1C8C"/>
<path fill-rule="evenodd" clip-rule="evenodd" d="M280 333.22V312.394L260 333.22H280Z" fill="#0F1C8C"/>
</g>
<g clip-path="url(#clip60_594_3324)">
<path fill-rule="evenodd" clip-rule="evenodd" d="M280 208.262L320 166.61H300L280 187.436V208.262Z" fill="#0F1C8C"/>
<path fill-rule="evenodd" clip-rule="evenodd" d="M320 208.262V187.436L300 208.262H320Z" fill="#0F1C8C"/>
</g>
<g clip-path="url(#clip61_594_3324)">
<path fill-rule="evenodd" clip-rule="evenodd" d="M280 249.915L320 208.262H300L280 229.089V249.915Z" fill="#0F1C8C"/>
<path fill-rule="evenodd" clip-rule="evenodd" d="M320 249.915V229.089L300 249.915H320Z" fill="#0F1C8C"/>
</g>
<g clip-path="url(#clip62_594_3324)">
<path fill-rule="evenodd" clip-rule="evenodd" d="M280 291.567L320 249.915H300L280 270.741V291.567Z" fill="#0F1C8C"/>
<path fill-rule="evenodd" clip-rule="evenodd" d="M320 291.567V270.741L300 291.567H320Z" fill="#0F1C8C"/>
</g>
<g clip-path="url(#clip63_594_3324)">
<path fill-rule="evenodd" clip-rule="evenodd" d="M280 333.22L320 291.567H300L280 312.394V333.22Z" fill="#0F1C8C"/>
<path fill-rule="evenodd" clip-rule="evenodd" d="M320 333.22V312.394L300 333.22H320Z" fill="#0F1C8C"/>
</g>
<defs>
<clipPath id="clip0_594_3324">
<rect width="40" height="41.6525" fill="white"/>
</clipPath>
<clipPath id="clip1_594_3324">
<rect width="40" height="41.6525" fill="white" transform="translate(0 41.6525)"/>
</clipPath>
<clipPath id="clip2_594_3324">
<rect width="40" height="41.6525" fill="white" transform="translate(0 83.305)"/>
</clipPath>
<clipPath id="clip3_594_3324">
<rect width="40" height="41.6525" fill="white" transform="translate(0 124.957)"/>
</clipPath>
<clipPath id="clip4_594_3324">
<rect width="40" height="41.6525" fill="white" transform="translate(40)"/>
</clipPath>
<clipPath id="clip5_594_3324">
<rect width="40" height="41.6525" fill="white" transform="translate(40 41.6525)"/>
</clipPath>
<clipPath id="clip6_594_3324">
<rect width="40" height="41.6525" fill="white" transform="translate(40 83.305)"/>
</clipPath>
<clipPath id="clip7_594_3324">
<rect width="40" height="41.6525" fill="white" transform="translate(40 124.957)"/>
</clipPath>
<clipPath id="clip8_594_3324">
<rect width="40" height="41.6525" fill="white" transform="translate(80)"/>
</clipPath>
<clipPath id="clip9_594_3324">
<rect width="40" height="41.6525" fill="white" transform="translate(80 41.6525)"/>
</clipPath>
<clipPath id="clip10_594_3324">
<rect width="40" height="41.6525" fill="white" transform="translate(80 83.305)"/>
</clipPath>
<clipPath id="clip11_594_3324">
<rect width="40" height="41.6525" fill="white" transform="translate(80 124.957)"/>
</clipPath>
<clipPath id="clip12_594_3324">
<rect width="40" height="41.6525" fill="white" transform="translate(120)"/>
</clipPath>
<clipPath id="clip13_594_3324">
<rect width="40" height="41.6525" fill="white" transform="translate(120 41.6525)"/>
</clipPath>
<clipPath id="clip14_594_3324">
<rect width="40" height="41.6525" fill="white" transform="translate(120 83.305)"/>
</clipPath>
<clipPath id="clip15_594_3324">
<rect width="40" height="41.6525" fill="white" transform="translate(120 124.957)"/>
</clipPath>
<clipPath id="clip16_594_3324">
<rect width="40" height="41.6525" fill="white" transform="translate(160)"/>
</clipPath>
<clipPath id="clip17_594_3324">
<rect width="40" height="41.6525" fill="white" transform="translate(160 41.6525)"/>
</clipPath>
<clipPath id="clip18_594_3324">
<rect width="40" height="41.6525" fill="white" transform="translate(160 83.305)"/>
</clipPath>
<clipPath id="clip19_594_3324">
<rect width="40" height="41.6525" fill="white" transform="translate(160 124.957)"/>
</clipPath>
<clipPath id="clip20_594_3324">
<rect width="40" height="41.6525" fill="white" transform="translate(200)"/>
</clipPath>
<clipPath id="clip21_594_3324">
<rect width="40" height="41.6525" fill="white" transform="translate(200 41.6525)"/>
</clipPath>
<clipPath id="clip22_594_3324">
<rect width="40" height="41.6525" fill="white" transform="translate(200 83.305)"/>
</clipPath>
<clipPath id="clip23_594_3324">
<rect width="40" height="41.6525" fill="white" transform="translate(200 124.957)"/>
</clipPath>
<clipPath id="clip24_594_3324">
<rect width="40" height="41.6525" fill="white" transform="translate(240)"/>
</clipPath>
<clipPath id="clip25_594_3324">
<rect width="40" height="41.6525" fill="white" transform="translate(240 41.6525)"/>
</clipPath>
<clipPath id="clip26_594_3324">
<rect width="40" height="41.6525" fill="white" transform="translate(240 83.305)"/>
</clipPath>
<clipPath id="clip27_594_3324">
<rect width="40" height="41.6525" fill="white" transform="translate(240 124.957)"/>
</clipPath>
<clipPath id="clip28_594_3324">
<rect width="40" height="41.6525" fill="white" transform="translate(280)"/>
</clipPath>
<clipPath id="clip29_594_3324">
<rect width="40" height="41.6525" fill="white" transform="translate(280 41.6525)"/>
</clipPath>
<clipPath id="clip30_594_3324">
<rect width="40" height="41.6525" fill="white" transform="translate(280 83.305)"/>
</clipPath>
<clipPath id="clip31_594_3324">
<rect width="40" height="41.6525" fill="white" transform="translate(280 124.957)"/>
</clipPath>
<clipPath id="clip32_594_3324">
<rect width="40" height="41.6525" fill="white" transform="translate(0 166.61)"/>
</clipPath>
<clipPath id="clip33_594_3324">
<rect width="40" height="41.6525" fill="white" transform="translate(0 208.262)"/>
</clipPath>
<clipPath id="clip34_594_3324">
<rect width="40" height="41.6525" fill="white" transform="translate(0 249.915)"/>
</clipPath>
<clipPath id="clip35_594_3324">
<rect width="40" height="41.6525" fill="white" transform="translate(0 291.567)"/>
</clipPath>
<clipPath id="clip36_594_3324">
<rect width="40" height="41.6525" fill="white" transform="translate(40 166.61)"/>
</clipPath>
<clipPath id="clip37_594_3324">
<rect width="40" height="41.6525" fill="white" transform="translate(40 208.262)"/>
</clipPath>
<clipPath id="clip38_594_3324">
<rect width="40" height="41.6525" fill="white" transform="translate(40 249.915)"/>
</clipPath>
<clipPath id="clip39_594_3324">
<rect width="40" height="41.6525" fill="white" transform="translate(40 291.567)"/>
</clipPath>
<clipPath id="clip40_594_3324">
<rect width="40" height="41.6525" fill="white" transform="translate(80 166.61)"/>
</clipPath>
<clipPath id="clip41_594_3324">
<rect width="40" height="41.6525" fill="white" transform="translate(80 208.262)"/>
</clipPath>
<clipPath id="clip42_594_3324">
<rect width="40" height="41.6525" fill="white" transform="translate(80 249.915)"/>
</clipPath>
<clipPath id="clip43_594_3324">
<rect width="40" height="41.6525" fill="white" transform="translate(80 291.567)"/>
</clipPath>
<clipPath id="clip44_594_3324">
<rect width="40" height="41.6525" fill="white" transform="translate(120 166.61)"/>
</clipPath>
<clipPath id="clip45_594_3324">
<rect width="40" height="41.6525" fill="white" transform="translate(120 208.262)"/>
</clipPath>
<clipPath id="clip46_594_3324">
<rect width="40" height="41.6525" fill="white" transform="translate(120 249.915)"/>
</clipPath>
<clipPath id="clip47_594_3324">
<rect width="40" height="41.6525" fill="white" transform="translate(120 291.567)"/>
</clipPath>
<clipPath id="clip48_594_3324">
<rect width="40" height="41.6525" fill="white" transform="translate(160 166.61)"/>
</clipPath>
<clipPath id="clip49_594_3324">
<rect width="40" height="41.6525" fill="white" transform="translate(160 208.262)"/>
</clipPath>
<clipPath id="clip50_594_3324">
<rect width="40" height="41.6525" fill="white" transform="translate(160 249.915)"/>
</clipPath>
<clipPath id="clip51_594_3324">
<rect width="40" height="41.6525" fill="white" transform="translate(160 291.567)"/>
</clipPath>
<clipPath id="clip52_594_3324">
<rect width="40" height="41.6525" fill="white" transform="translate(200 166.61)"/>
</clipPath>
<clipPath id="clip53_594_3324">
<rect width="40" height="41.6525" fill="white" transform="translate(200 208.262)"/>
</clipPath>
<clipPath id="clip54_594_3324">
<rect width="40" height="41.6525" fill="white" transform="translate(200 249.915)"/>
</clipPath>
<clipPath id="clip55_594_3324">
<rect width="40" height="41.6525" fill="white" transform="translate(200 291.567)"/>
</clipPath>
<clipPath id="clip56_594_3324">
<rect width="40" height="41.6525" fill="white" transform="translate(240 166.61)"/>
</clipPath>
<clipPath id="clip57_594_3324">
<rect width="40" height="41.6525" fill="white" transform="translate(240 208.262)"/>
</clipPath>
<clipPath id="clip58_594_3324">
<rect width="40" height="41.6525" fill="white" transform="translate(240 249.915)"/>
</clipPath>
<clipPath id="clip59_594_3324">
<rect width="40" height="41.6525" fill="white" transform="translate(240 291.567)"/>
</clipPath>
<clipPath id="clip60_594_3324">
<rect width="40" height="41.6525" fill="white" transform="translate(280 166.61)"/>
</clipPath>
<clipPath id="clip61_594_3324">
<rect width="40" height="41.6525" fill="white" transform="translate(280 208.262)"/>
</clipPath>
<clipPath id="clip62_594_3324">
<rect width="40" height="41.6525" fill="white" transform="translate(280 249.915)"/>
</clipPath>
<clipPath id="clip63_594_3324">
<rect width="40" height="41.6525" fill="white" transform="translate(280 291.567)"/>
</clipPath>
</defs>
</svg>
