<svg id="etZQyrJb24k1" xmlns="http://www.w3.org/2000/svg" xmlns:xlink="http://www.w3.org/1999/xlink" viewBox="0 0 2023.47 1484.92" shape-rendering="geometricPrecision" text-rendering="geometricPrecision"><g><g><g opacity="0.8"><path d="M930.42,498.85c.011857,19.785614-1.758631,39.532076-5.29,59-8.210921,45.035706-25.820184,87.835618-51.68,125.61C814.5,769.66,715.36,826.25,603,826.25c-133.65,0-248.59-80.06-299.46-194.86-6.770296-15.237908-12.347061-30.97856-16.68-47.08-13.606537-50.670415-14.929825-103.855619-3.86-155.14.05-.26.11-.5.16-.76C300.518928,350.036788,346.000456,280.743631,411,233.64q10.1-7.33,20.77-13.89c51.485831-31.686508,110.774925-48.417507,171.23-48.32q12.5,0,24.74.93c58.253908,4.307107,114.274067,24.217096,162.18,57.64v0c35.878,24.973281,66.411009,56.855985,89.81,93.78q7.51,11.88,14,24.42c24.148686,46.543328,36.714053,98.224961,36.63,150.66Z" fill="#27325b"/><path d="M491.78,352.29C478.72,373,497.24,408.91,458,399.11s-63.16-14.16-65.33,7.61s29.4,21.78,29.4,44.65-14.07,30.43-35.89,19.56-28-26.65-53.36-16.85-40,3.27-45.72-16.33c-.873763-3.065051-2.249031-5.964265-4.07-8.58.05-.26.11-.5.16-.76C300.541282,350.041308,346.011703,280.748811,411,233.64q10.1-7.33,20.77-13.89c10.21.38,22.41,4.25,32.81,17.12c22.87,28.32,38.1,14.16,32.67,46.82s3.26,37,21.77,35.93s40.29-1.09,42.46,13.07-56.63-1.1-69.7,19.6Z" fill="#34447d"/><path d="M494.07,503.48c0,0-19.76,23-36.79,9.79s-11.88-21.45-36.82-13.19-35.9-5.44-48.69,4.95-2.41,11.7-11.25,33.72-27.11,25.57-13,47.56s40.39,10.68,54.23,22.31s9.32,23,26.6,27.75s33.77-12.09,34.11,8.78-6.32,41.23,15.15,60.63s17.46,23.78,39.54,33.23s48.46.94,45.11-12.34-31.8-15.94-32.37-30.92s14.58-13.72,8.51-33s10.87-29.65,5.15-42.11-38.34-16.71-34.55-29.26s33.32-1.9,34.93-28.43-16.31-36-13.67-61.87-33.17-13.5-36.19,2.4Z" fill="#34447d"/><path d="M930.42,498.85c.011857,19.785614-1.758631,39.532076-5.29,59-8.210921,45.035706-25.820184,87.835618-51.68,125.61-8.526743,2.928199-17.824499,2.676045-26.18-.71-40.83-16.33-10.61-60.42,5.72-82.47s-25.31-12.28-55.53-32.69s3.27-75.13-27.76-66.15-68.6,20.42-86.56-9.8s16.33-35.11.82-60.42s9-40,40-42.47s26.96-24.49,65.34-27.75s37.56,45.73,80,42.46s40.57,6.54,40.57,6.54c3.061662-.072809,6.098309.567386,8.87,1.87c7.772041,28.339224,11.700531,57.59436,11.68,86.98Z" fill="#a9c2ff"/><path d="M893.79,348.19c-35.31,17.18-49.49-29.55-79.67-15.5-30.43,14.16-25.1-13.07-49-30.49s-71.86,14.16-69.69-13.07s38.1-19.6,45.73-41.37s42.46-16.33,42.46-16.33c2.037623-.767387,4.170805-1.251895,6.34-1.44s0,0,0,0c35.878,24.973281,66.411009,56.855985,89.81,93.78q7.49,11.88,14.02,24.42Z" fill="#34447d"/><path d="M596.31,254.29c0,0,18.51-26.7-10.89-34.58s-28.85,2.43-51.72,0-31.85,15.29-14.7,34.58s31,56.41,46.55,36.65s12.52-34.74,30.76-36.65Z" fill="#34447d"/></g><path d="M997,851.66l-50.15,596.28c0,0-5.25,36.14,21.63,36.21c44.21.1,220,0,220,0s-33.27-7.53-32.87-24.46c.48-20,58.61-613.67,58.61-613.67Z" fill="#34447d"/><path d="M1205.06,1473.57c-8.69,0-178.91.31-222-.24-18.76-.24-22.05-16.68-22.2-27.33-.058737-2.970733.131932-5.941156.57-8.88l1.3-15.49l3.32-39.5l2.94-34.9l3.77-44.85l3.18-37.85l35.63-423.69l217.26-5.64c0,0-24.49,248.47-41.81,429.33-1.93,20.15-3.77,39.48-5.47,57.51-.56,5.76-1.08,11.39-1.6,16.87-1.61,17.12-3.07,32.83-4.35,46.7q-1,11-1.86,20.34c-2.21,24.39-3.5,40-3.52,42.93-.0143,1.616395.126343,3.23044.42,4.82c3.61,19,31.16,19.87,34.42,19.87Z" fill="#4858e8"/><polygon points="469.39,527.19 591.54,1017.85 608.26,1085.05 665.15,1313.59 1722.12,1313.59 1512.43,527.19 469.39,527.19" fill="#4858e8"/><polygon points="469.38,527.19 452.46,532.84 642.65,1330.65 665.16,1313.59 469.38,527.19" fill="#34447d"/><polygon points="642.65,1330.65 1693.11,1330.65 1722.12,1313.59 665.16,1313.59 642.65,1330.65" fill="#34447d"/><rect width="227.44" height="10.81" rx="0" ry="0" transform="matrix(-1 0 0-1 1238.98 1484.37)" fill="#4858e8"/><polygon points="1181.16,1330.65 1179.99,1338.91 966.09,1382.13 969.03,1347.23 970.43,1330.65 1181.16,1330.65" fill="#34447d"/><path d="M1205.06,1473.57c-8.69,0-178.91.31-222-.24-18.76-.24-22.05-16.68-22.2-27.33l212.88-40c-2.21,24.39-3.5,40-3.52,42.93-.0143,1.616395.126343,3.23044.42,4.82c3.61,18.95,31.16,19.82,34.42,19.82Z" opacity="0.4" fill="#4d86e3"/><polygon points="469.38,527.19 1512.43,527.19 1681.66,1159.2 626.72,1159.2 469.38,527.19" fill="#34447d"/><polygon points="1632.47,1131.82 655.86,1131.82 620.96,992.79 607.46,939 601.96,917.06 566.09,774.19 564.23,766.75 545.27,691.23 536.79,657.44 529.55,628.62 512.59,561.05 1475.12,561.05 1493.75,628.62 1501.69,657.44 1511,691.23 1572.37,913.85 1572.37,913.86 1577.57,932.72 1579.99,941.47 1622.36,1095.16 1632.47,1131.82" fill="#27325b"/><polygon points="1493.75,628.62 529.55,628.62 512.59,561.05 1475.12,561.05 1493.75,628.62" fill="#4858e8"/><path d="M552.41,591.59c-1.16-4.67,1.68-8.45,6.34-8.45c4.973228.240792,9.228943,3.649397,10.55,8.45c1.17,4.66-1.67,8.44-6.34,8.44-4.968127-.245581-9.219844-3.646955-10.55-8.44Z" fill="#e6f2ff"/><path d="M580.48,591.59c-1.17-4.67,1.67-8.45,6.34-8.45c4.972064.243866,9.226197,3.651205,10.55,8.45c1.17,4.66-1.67,8.44-6.34,8.44-4.968127-.245581-9.219844-3.646955-10.55-8.44Z" fill="#e6f2ff"/><path d="M610.7,591.59c-1.16-4.67,1.68-8.45,6.34-8.45c4.9735.245797,9.229562,3.651453,10.56,8.45c1.16,4.66-1.68,8.44-6.34,8.44-4.971884-.241383-9.228681-3.643596-10.56-8.44Z" fill="#e6f2ff"/><polygon points="1023,1159.2 665.51,1315.43 626.72,1159.2 1023,1159.2" fill="#34447d"/><path d="M712.15,363.48c-17.23,6.45-28.35,21.35-28.35,37.77v364.49c0,74.58,35.41,144.41,94.74,186.93l214.12,137.21c14.647214,9.129503,33.212786,9.129503,47.86,0l214.12-137.21c59.33-42.52,94.74-112.35,94.74-186.93v-363.51c0-16.91-11.82-32.13-29.76-38.28-260.1-89.05-364.37-91.43-607.47-.47Z" fill="#f1835a"/><path d="M1319.62,364c-126.61-43.35-216.29-66.09-303-67.59v800.37c8.465787.038894,16.767094-2.337368,23.93-6.85l214.12-137.21c59.33-42.52,94.74-112.35,94.74-186.93v-363.57c0-16.9-11.82-32.12-29.76-38.27Z" fill="#f1835a"/><g id="etZQyrJb24k28" transform="translate(0 0.000001)"><path d="M1144.07,623.13h-27.71c.822935-4.581052,1.241215-9.225627,1.25-13.88v-9.47c-.049608-43.729814-35.49018-79.165912-79.22-79.21h-48.7c-43.724291.049608-79.155912,35.485703-79.2,79.21v9.47c.005485,4.654078.420418,9.298651,1.24,13.88h-30.81c-7.730141-.002653-15.144583,3.066274-20.611556,8.531372s-8.538444,12.878487-8.538444,20.608628v127.13c0,71.962703,58.337297,130.3,130.3,130.3h76.93c67.601271-.005523,122.4-54.808729,122.4-122.41v-126.83c0-9.900532-3.932971-19.395563-10.933704-26.396296s-16.495764-10.933704-26.396296-10.933704ZM942.16,609.25v-9.47c.022047-26.242576,21.28743-47.512432,47.53-47.54h48.7c26.244193.027559,47.512441,21.295807,47.54,47.54v9.47c.005648,4.703978-.692065,9.382364-2.07,13.88h-139.63c-1.377935-4.497636-2.075648-9.176022-2.07-13.88Z" opacity="0.61" fill="#fff"/><circle r="42.98" transform="matrix(.943628-.331009 0.331009 0.943628 1016.587434 709.114932)" fill="#f1835a"/><path d="M1016.59,729.18v0c5.134935.016467,9.293533,4.175065,9.31,9.31v71.63c-.016434,5.136572-4.173448,9.298052-9.31,9.32v0c-5.136552-.021948-9.293566-4.183428-9.31-9.32v-71.63c.016467-5.134935,4.175065-9.293533,9.31-9.31Z" fill="#f1835a"/></g><g id="etZQyrJb24k32"><path d="M864.49,433.81c0-21.1,16.43-38.37,38.9-38.37c13.35,0,21.41,3.6,29.15,10.17L922.25,418c-5.72-4.76-10.81-7.52-19.39-7.52-11.87,0-21.31,10.49-21.31,23.32c0,13.56,9.33,23.53,22.47,23.53c5.462967.163156,10.839231-1.393407,15.37-4.45v-10.6h-16.39v-14.1h32.23v32.22c-8.797188,7.625097-20.058209,11.806239-31.7,11.77-23.14.01-39.04-16.17-39.04-38.36Z" opacity="0.61" fill="#fff"/></g><g id="etZQyrJb24k34" transform="translate(.000001 0.000001)"><path d="M950.87,396.71h28.94c23.32,0,39.43,16,39.43,37.1c0,20.88-16.11,37.1-39.43,37.1h-28.94Zm28.94,59.46c13.35,0,22.36-9,22.36-22.36c0-13.15-9-22.37-22.36-22.37h-12.61v44.73Z" opacity="0.61" fill="#fff"/></g><g id="etZQyrJb24k36" transform="translate(0 0.000003)"><path d="M1033.76,396.71h30.31c17.71,0,28.41,10.49,28.41,25.86c0,17.17-13.35,26.08-30,26.08h-12.4v22.26h-16.32ZM1063,434.13c8.17,0,12.94-4.88,12.94-11.45c0-7.32-5.09-11.24-13.25-11.24h-12.62v22.69Z" opacity="0.61" fill="#fff"/></g><g id="etZQyrJb24k38" transform="translate(0 0.000001)"><path d="M1104.56,396.71h33.92c9.44,0,16.75,2.65,21.63,7.53c4.13,4.13,6.35,10,6.35,17.17c0,12-6.46,19.5-15.89,23l18.12,26.5h-19.08l-16.11-23.75h-12.61v23.75h-16.33Zm32.86,36c7.95,0,12.51-4.24,12.51-10.71c0-7-4.88-10.6-12.82-10.6h-16.22v21.31Z" opacity="0.61" fill="#fff"/></g><path d="M1505.27,144.71c-4.71,1.77-7.75,5.85-7.75,10.34v99.76c-.100194,20.242381,9.550866,39.295128,25.93,51.19l58.6,37.56c4.008967,2.499564,9.091033,2.499564,13.1,0l58.6-37.56c16.370518-11.888684,26.020522-30.928182,25.93-51.16v-99.52c0-4.63-3.23-8.8-8.14-10.48-71.19-24.37-99.73-25-166.27-.13Z" fill="#4858e8"/><path d="M1671.54,144.84c-34.66-11.86-59.2-18.09-82.94-18.5v219.06c2.316747.012296,4.588949-.636409,6.55-1.87l58.6-37.56c16.370518-11.888684,26.020522-30.928182,25.93-51.16v-99.49c0-4.63-3.23-8.8-8.14-10.48Z" opacity="0.4" fill="#4d86e3"/><g id="etZQyrJb24k42" transform="translate(0 0.000001)"><polygon points="1598.82,20.67 1621.83,23.69 1605.43,40.12 1609.67,62.93 1588.98,52.41 1568.59,63.49 1572.2,40.57 1555.37,24.6 1578.28,20.95 1588.27,0 1598.82,20.67" fill="#f1835a"/><polygon points="1598.82,417.15 1621.83,420.17 1605.43,436.6 1609.67,459.41 1588.98,448.89 1568.59,459.97 1572.2,437.05 1555.37,421.08 1578.28,417.43 1588.27,396.48 1598.82,417.15" fill="#f1835a"/><polygon points="1429.39,118.03 1452.4,121.05 1436,137.48 1440.23,160.29 1419.55,149.78 1399.16,160.85 1402.77,137.93 1385.93,121.96 1408.85,118.31 1418.84,97.36 1429.39,118.03" fill="#f1835a"/><polygon points="1770.61,118.03 1793.62,121.05 1777.22,137.48 1781.45,160.29 1760.77,149.78 1740.38,160.85 1743.99,137.93 1727.15,121.96 1750.07,118.31 1760.05,97.36 1770.61,118.03" fill="#f1835a"/><polygon points="1429.39,320.96 1452.4,323.99 1436,340.41 1440.23,363.23 1419.55,352.71 1399.16,363.78 1402.77,340.86 1385.93,324.89 1408.85,321.24 1418.84,300.29 1429.39,320.96" fill="#f1835a"/><polygon points="1770.61,320.96 1793.62,323.99 1777.22,340.41 1781.45,363.23 1760.77,352.71 1740.38,363.78 1743.99,340.86 1727.15,324.89 1750.07,321.24 1760.05,300.29 1770.61,320.96" fill="#f1835a"/><polygon points="1502.84,46.87 1525.85,49.89 1509.45,66.31 1513.69,89.13 1493,78.61 1472.61,89.69 1476.22,66.77 1459.38,50.79 1482.3,47.15 1492.29,26.2 1502.84,46.87" fill="#f1835a"/><polygon points="1699.81,46.87 1722.82,49.89 1706.42,66.31 1710.66,89.13 1689.97,78.61 1669.58,89.69 1673.19,66.77 1656.35,50.79 1679.27,47.15 1689.26,26.2 1699.81,46.87" fill="#f1835a"/><polygon points="1502.84,391.67 1525.85,394.69 1509.45,411.12 1513.69,433.93 1493,423.41 1472.61,434.49 1476.22,411.57 1459.38,395.6 1482.3,391.95 1492.29,371 1502.84,391.67" fill="#f1835a"/><polygon points="1699.81,391.67 1722.82,394.69 1706.42,411.12 1710.66,433.93 1689.97,423.41 1669.58,434.49 1673.19,411.57 1656.35,395.6 1679.27,391.95 1689.26,371 1699.81,391.67" fill="#f1835a"/><polygon points="1402.28,224.77 1425.29,227.8 1408.89,244.22 1413.12,267.04 1392.44,256.52 1372.05,267.6 1375.66,244.67 1358.82,228.7 1381.74,225.05 1391.72,204.1 1402.28,224.77" fill="#f1835a"/><polygon points="1803.84,224.77 1826.85,227.8 1810.45,244.22 1814.69,267.04 1794,256.52 1773.61,267.6 1777.22,244.67 1760.38,228.7 1783.3,225.05 1793.29,204.1 1803.84,224.77" fill="#f1835a"/></g><path d="M166.2,779c.846968.847606.846622,2.221277-.000771,3.068458s-2.221064.84718-3.068458,0-.847739-2.220852-.000771-3.068458c.849836-.842722,2.220164-.842722,3.07,0Z" fill="#d1e4fc"/><path d="M159.12,786.16c.846968.847606.846622,2.221277-.000771,3.068458s-2.221064.84718-3.068458,0-.847739-2.220852-.000771-3.068458c.407001-.407308.959197-.636157,1.535-.636157s1.127999.228849,1.535.636157Z" fill="#d1e4fc"/><path d="M148.87,793.42c.847606-.846968,2.221277-.846622,3.068458.000771s.84718,2.221064,0,3.068458-2.220852.847739-3.068458.000771c-.842722-.849836-.842722-2.220164,0-3.07Z" fill="#d1e4fc"/><path d="M144.77,800.64c.846968.847606.846622,2.221277-.000771,3.068458s-2.221064.84718-3.068458,0-.847739-2.220852-.000771-3.068458c.852054-.83732,2.217946-.83732,3.07,0Z" fill="#d1e4fc"/><path d="M137.69,807.79c.842896.849059.839567,2.220151-.007442,3.065106s-2.218106.844956-3.065116,0-.850338-2.216047-.007442-3.065106c.851-.849355,2.229-.849355,3.08,0Z" fill="#d1e4fc"/><path d="M127.44,815.05c.847606-.846968,2.221277-.846622,3.068458.000771s.84718,2.221064,0,3.068458-2.220852.847739-3.068458.000771c-.842722-.849836-.842722-2.220164,0-3.07Z" fill="#d1e4fc"/><path d="M123.63,822c.842896.849059.839567,2.220151-.007442,3.065106s-2.218106.844956-3.065116,0-.850338-2.216047-.007442-3.065106c.407399-.410377.961741-.641177,1.54-.641177s1.132601.2308,1.54.641177Z" fill="#d1e4fc"/><path d="M116.55,829.13c.842896.849059.839567,2.220151-.007442,3.065106s-2.218106.844956-3.065116,0-.850338-2.216047-.007442-3.065106c.851-.849355,2.229-.849355,3.08,0Z" fill="#d1e4fc"/><path d="M106.3,836.39c.849059-.842896,2.220151-.839567,3.065106.007442s.844956,2.218106,0,3.065116-2.216047.850338-3.065106.007442c-.410377-.407399-.641177-.961741-.641177-1.54s.2308-1.132601.641177-1.54Z" fill="#d1e4fc"/><path d="M102.2,843.62c.842896.849059.839567,2.220151-.007442,3.065106s-2.218106.844956-3.065116,0-.850338-2.216047-.007442-3.065106c.407399-.410377.961741-.641177,1.54-.641177s1.132601.2308,1.54.641177Z" fill="#d1e4fc"/><path d="M95.12,850.77c.842896.849059.839567,2.220151-.007442,3.065106s-2.218106.844956-3.065116,0-.850338-2.216047-.007442-3.065106c.407399-.410377.961741-.641177,1.54-.641177s1.132601.2308,1.54.641177Z" fill="#d1e4fc"/><path d="M84.87,858c.849059-.842896,2.220151-.839567,3.065106.007442s.844956,2.218106,0,3.065116-2.216047.850338-3.065106.007442c-.410377-.407399-.641177-.961741-.641177-1.54s.2308-1.132601.641177-1.54Z" fill="#d1e4fc"/><circle r="47.42" transform="matrix(.162637-.986686 0.986686 0.162637 217.307238 731.015768)" fill="#4858e8"/><path d="M202.08,711.94c.000001-6.156825,3.709318-11.707221,9.39787-14.062401s12.235729-1.051187,16.587831,3.303776s5.651791,10.902996,3.292873,16.589999-7.91175,9.392671-14.068574,9.388626c-8.401868-.00552-15.210002-6.81813-15.21-15.22Z" fill="#34447d"/><path d="M217.29,727.16c-14.707343,0-26.63,11.922657-26.63,26.63h53.27c-.005521-14.70896-11.931039-26.630001-26.64-26.63Z" fill="#34447d"/><g id="etZQyrJb24k70"><path d="M45.62,877.3L43.86,873c-1.881109-4.666362-6.408747-7.721727-11.44-7.72h-32.42v108.33h134.09v-87.81h-75.88c-5.537945.001104-10.520923-3.363099-12.59-8.5Z" fill="#4858e8"/><path d="M87.1,914.71h-4.48c.132361-.739339.199286-1.488907.2-2.24v-1.53c0-3.400075-1.350675-6.660893-3.754891-9.065109s-5.665034-3.754891-9.065109-3.754891h-7.86c-7.076385.00552-12.810002,5.743613-12.81,12.82v1.53c.000714.751093.067639,1.500661.2,2.24h-5c-1.251822,0-2.452372.497284-3.337544,1.382456s-1.382456,2.085722-1.382456,3.337544v20.57c.011041,11.638257,9.451739,21.065526,21.09,21.06h12.44c5.2521.002655,10.28985-2.082558,14.003646-5.796354s5.799009-8.751546,5.796354-14.003646v-20.51c.010737-1.605175-.622169-3.147719-1.757225-4.282775s-2.6776-1.767962-4.282775-1.757225ZM68,935.4v9.6c.066767.577256-.203644,1.141606-.695374,1.451256s-1.117521.30965-1.609252,0-.762141-.874-.695374-1.451256v-9.6c-3.490984-.765858-5.844403-4.038602-5.459231-7.591791s3.385226-6.245606,6.959231-6.245606s6.574058,2.692417,6.959231,6.245606-1.968247,6.825933-5.459231,7.591791Zm9.71-22.93c-.001596.758659-.112744,1.513112-.33,2.24h-22.59c-.225358-.725315-.339982-1.480482-.34-2.24v-1.53c.005509-4.244786,3.445214-7.684491,7.69-7.69h7.86c4.244786.005509,7.684491,3.445214,7.69,7.69Z" fill="#34447d"/></g><g transform="translate(0 0.000001)"><path d="M541.17,1188.25l-5.42-13.4c-5.7972-14.377995-19.747282-23.792816-35.25-23.79h-99.85v333.86h413.06v-270.5h-233.71c-17.070756.017114-32.439185-10.340645-38.83-26.17Z" fill="#f1835a"/><g opacity="0.61"><path d="M666.65,1303.05h-13c.384725-2.148832.582133-4.327013.59-6.51v-4.45c-.027575-20.550795-16.689189-37.198987-37.24-37.21h-22.87c-20.539754.022055-37.183465,16.670241-37.2,37.21v4.45c.001264,2.182406.19198,4.360582.57,6.51h-14.5c-3.632547-.000001-7.116168,1.443707-9.683829,4.013243s-4.008824,6.054211-4.006171,9.686757v59.72c-.002653,16.232062,6.444334,31.800063,17.922135,43.277865s27.045803,17.924788,43.277865,17.922135h36.13c15.251681.002652,29.8796-6.054195,40.665105-16.837824s16.844895-25.410495,16.844895-40.662176v-59.57c.005541-9.675378-7.824645-17.527937-17.5-17.55Zm-55.51,60.11v27.74c-.111666,2.334999-2.037333,4.170775-4.375,4.170775s-4.263334-1.835776-4.375-4.170775v-27.74c-10.059884-2.231785-16.827349-11.677987-15.704775-21.921129s9.775303-17.999403,20.079775-17.999403s18.957201,7.75626,20.079775,17.999403-5.644891,19.689344-15.704775,21.921129Zm28.2-66.62c-.008532,2.207593-.345557,4.401625-1,6.51h-65.56c-.659304-2.107251-.996442-4.30202-1-6.51v-4.45c.011027-12.327948,10.002052-22.318973,22.33-22.33h22.89c12.331853.005513,22.328966,9.998151,22.34,22.33Z" fill="#fff"/></g></g><path d="M1857,595.45c-.67831.677628-.881514,1.697194-.514822,2.583095s1.23103,1.463591,2.189822,1.463591s1.823131-.57769,2.189822-1.463591.163488-1.905467-.514822-2.583095c-.925349-.924419-2.424651-.924419-3.35,0Z" fill="#d1e4fc"/><path d="M1864.67,603.23c-.67831.677628-.881514,1.697194-.514822,2.583095s1.23103,1.463591,2.189822,1.463591s1.823131-.57769,2.189822-1.463591.163488-1.905467-.514822-2.583095c-.925349-.924419-2.424651-.924419-3.35,0Z" fill="#d1e4fc"/><path d="M1875.83,611.13c-.677628-.67831-1.697194-.881514-2.583095-.514822s-1.463591,1.23103-1.463591,2.189822.57769,1.823131,1.463591,2.189822s1.905467.163488,2.583095-.514822c.924419-.925349.924419-2.424651,0-3.35Z" fill="#d1e4fc"/><path d="M1880.29,619c-.67831.677628-.881514,1.697194-.514822,2.583095s1.23103,1.463591,2.189822,1.463591s1.823131-.57769,2.189822-1.463591.163488-1.905467-.514822-2.583095c-.925349-.924419-2.424651-.924419-3.35,0Z" fill="#d1e4fc"/><path d="M1888,626.78c-.67831.677628-.881514,1.697194-.514822,2.583095s1.23103,1.463591,2.189822,1.463591s1.823131-.57769,2.189822-1.463591.163488-1.905467-.514822-2.583095c-.925349-.924419-2.424651-.924419-3.35,0Z" fill="#d1e4fc"/><path d="M1899.16,634.68c-.677628-.67831-1.697194-.881514-2.583095-.514822s-1.463591,1.23103-1.463591,2.189822.57769,1.823131,1.463591,2.189822s1.905467.163488,2.583095-.514822c.924419-.925349.924419-2.424651,0-3.35Z" fill="#d1e4fc"/><path d="M1903.31,642.23c-.67831.677628-.881514,1.697194-.514822,2.583095s1.23103,1.463591,2.189822,1.463591s1.823131-.57769,2.189822-1.463591.163488-1.905467-.514822-2.583095c-.925349-.924419-2.424651-.924419-3.35,0Z" fill="#d1e4fc"/><path d="M1911,650c-.67831.677628-.881514,1.697194-.514822,2.583095s1.23103,1.463591,2.189822,1.463591s1.823131-.57769,2.189822-1.463591.163488-1.905467-.514822-2.583095c-.443082-.446408-1.046031-.697479-1.675-.697479s-1.231918.251071-1.675.697479Z" fill="#d1e4fc"/><path d="M1922.18,657.92c-.67651-.681236-1.69718-.887031-2.584814-.52117s-1.466852,1.231093-1.466852,2.19117.579219,1.825308,1.466852,2.19117s1.908304.160066,2.584814-.52117c.917779-.92419.917779-2.41581,0-3.34Z" fill="#d1e4fc"/><path d="M1926.64,665.78c-.67831.677628-.881514,1.697194-.514822,2.583095s1.23103,1.463591,2.189822,1.463591s1.823131-.57769,2.189822-1.463591.163488-1.905467-.514822-2.583095c-.925349-.924419-2.424651-.924419-3.35,0Z" fill="#d1e4fc"/><path d="M1934.35,673.57c-.67831.677628-.881514,1.697194-.514822,2.583095s1.23103,1.463591,2.189822,1.463591s1.823131-.57769,2.189822-1.463591.163488-1.905467-.514822-2.583095c-.443082-.446408-1.046031-.697479-1.675-.697479s-1.231918.251071-1.675.697479Z" fill="#d1e4fc"/><path d="M1945.51,681.47c-.67651-.681236-1.69718-.887031-2.584814-.52117s-1.466852,1.231093-1.466852,2.19117.579219,1.825308,1.466852,2.19117s1.908304.160066,2.584814-.52117c.917779-.92419.917779-2.41581,0-3.34Z" fill="#d1e4fc"/><path d="M1763.17,619.47c-.934072-.218349-1.907654.147892-2.466224.927743s-.591963,1.819504-.084591,2.633592s1.455444,1.242054,2.401603,1.084099s1.703799-.87068,1.919212-1.805434c.293281-1.272651-.498276-2.542721-1.77-2.84Z" fill="#d1e4fc"/><path d="M1760.71,630.15c-.934927-.219475-1.909884.146941-2.468836.927857s-.591396,1.82195-.082157,2.636156s1.459487,1.240623,2.406266,1.079793s1.702916-.877113,1.914727-1.813806c.140641-.610003.03316-1.250893-.298791-1.78164s-.861173-.907861-1.471209-1.04836Z" fill="#d1e4fc"/><path d="M1760,643.8c.292696-1.275764-.504234-2.547252-1.779996-2.839956s-2.547255.504219-2.839966,1.779979.504204,2.547259,1.779962,2.839977c1.274787.286874,2.542468-.507659,2.84-1.78Z" fill="#d1e4fc"/><path d="M1755.73,651.78c-.935158-.215472-1.907955.154269-2.463912.936484s-.585325,1.822495-.074386,2.634831s1.461327,1.236372,2.407151,1.074004s1.700381-.879089,1.911147-1.815319c.286449-1.272418-.509039-2.537155-1.78-2.83Z" fill="#d1e4fc"/><path d="M1753.27,662.45c-1.275764-.292696-2.547252.504234-2.839956,1.779996s.504219,2.547255,1.779979,2.839966s2.547259-.504204,2.839977-1.779962c.143358-.612848.035978-1.25757-.298274-1.790871s-.86768-.910992-1.481726-1.049129Z" fill="#d1e4fc"/><path d="M1752.56,676.11c.218349-.934072-.147892-1.907654-.927743-2.466224s-1.819504-.591963-2.633592-.084591-1.242054,1.455444-1.084099,2.401603.87068,1.703799,1.805434,1.919212c1.272651.293281,2.542721-.498276,2.84-1.77Z" fill="#d1e4fc"/><path d="M1748.39,683.65c-1.275764-.292696-2.547252.504234-2.839956,1.779996s.504219,2.547255,1.779979,2.839966s2.547259-.504204,2.839977-1.779962c.143358-.612848.035978-1.25757-.298274-1.790871s-.86768-.910992-1.481726-1.049129Z" fill="#d1e4fc"/><path d="M1745.94,694.32c-.934072-.218349-1.907654.147892-2.466224.927743s-.591963,1.819504-.084591,2.633592s1.455444,1.242054,2.401603,1.084099s1.703799-.87068,1.919212-1.805434c.293281-1.272651-.498276-2.542721-1.77-2.84Z" fill="#d1e4fc"/><path d="M1745.22,708c.218349-.934072-.147892-1.907654-.927743-2.466224s-1.819504-.591963-2.633592-.084591-1.242054,1.455444-1.084099,2.401603.87068,1.703799,1.805434,1.919212c.611444.143635,1.254921.037609,1.78796-.294601s.911662-.863199,1.05204-1.475399Z" fill="#d1e4fc"/><path d="M1741,716c-.934927-.219475-1.909884.146941-2.468836.927857s-.591396,1.82195-.082157,2.636156s1.459487,1.240623,2.406266,1.079793s1.702916-.877113,1.914727-1.813806c.140641-.610003.03316-1.250893-.298791-1.78164s-.861173-.907861-1.471209-1.04836Z" fill="#d1e4fc"/><path d="M1738.5,726.63c-.934072-.218349-1.907654.147892-2.466224.927743s-.591963,1.819504-.084591,2.633592s1.455444,1.242054,2.401603,1.084099s1.703799-.87068,1.919212-1.805434c.293281-1.272651-.498276-2.542721-1.77-2.84Z" fill="#d1e4fc"/><path d="M1737.78,740.28c.215472-.935158-.154269-1.907955-.936484-2.463912s-1.822495-.585325-2.634831-.074386-1.236372,1.461327-1.074004,2.407151.879089,1.700381,1.815319,1.911147c.611606.143161,1.255069.035514,1.786776-.298917s.907399-.867806,1.043224-1.481083Z" fill="#d1e4fc"/><path d="M1853,543.14c.004045-20.884205-12.573718-39.714078-31.867435-47.707986s-41.503124-3.5773-56.270487,11.190064-19.183972,36.976771-11.190064,56.270487s26.823781,31.87148,47.707986,31.867435c28.508939,0,51.62-23.111061,51.62-51.62Z" fill="#4858e8"/><path d="M1817.91,522.43c0-9.151358-7.418642-16.57-16.57-16.57s-16.57,7.418642-16.57,16.57s7.418642,16.57,16.57,16.57c4.394637,0,8.609282-1.745763,11.716759-4.853241s4.853241-7.322122,4.853241-11.716759Z" fill="#34447d"/><path d="M1801.34,539c16.016258,0,29,12.983742,29,29h-58c0-16.016258,12.983742-29,29-29Z" fill="#34447d"/><g id="etZQyrJb24k104" transform="translate(2.104859 4.947692)"><path d="M1927.15,702.45l-1.91-4.73c-2.050683-5.08115-6.98064-8.408673-12.46-8.41h-35.29v118h146v-95.61h-82.61c-6.035293.006844-11.469318-3.654098-13.73-9.25Z" fill="#4858e8"/><path d="M1972.32,743.18h-4.88c.144493-.805342.218108-1.621801.22-2.44v-1.67c-.033037-7.708545-6.291384-13.940071-14-13.94h-8.58c-7.685194.032867-13.907133,6.254806-13.94,13.94v1.67c.001892.818199.075507,1.634658.22,2.44h-5.36c-2.834838.005515-5.130005,2.305157-5.13,5.14v22.38c0,6.084066,2.416886,11.918945,6.71897,16.221029s10.136963,6.718971,16.22103,6.718971h13.55c11.901736,0,21.55-9.648264,21.55-21.55v-22.33c.000002-1.746858-.694619-3.422024-1.930772-4.656302s-2.912372-1.926353-4.659228-1.923698Zm-20.81,22.53v10.4c0,.905747-.734253,1.64-1.64,1.64s-1.64-.734253-1.64-1.64v-10.4c-3.769827-.836581-6.305716-4.376588-5.88492-8.215129s3.663383-6.745088,7.52492-6.745088s7.104123,2.906547,7.52492,6.745088-2.115093,7.378548-5.88492,8.215129Zm10.57-25c.000619.827353-.12413,1.650024-.37,2.44h-24.58c-.24587-.789976-.370619-1.612647-.37-2.44v-1.67c.010995-4.618061,3.751939-8.359005,8.37-8.37h8.58c4.618061.010995,8.359005,3.751939,8.37,8.37Z" fill="#34447d"/></g><g id="etZQyrJb24k107" transform="translate(.000001 0.000001)"><path d="M1680.25,813.56c0,26.37,44.65,74.49,44.65,74.49s44.63-48.12,44.63-74.49-20-47.72-44.63-47.72-44.65,21.37-44.65,47.72Zm18.74-4.83c-.004045-10.480526,6.306159-19.931321,15.987741-23.944847s20.827576-1.799246,28.239857,5.610174s9.630865,18.554558,5.621076,28.23769-13.458147,15.996982-23.938674,15.996983c-14.299604-.011029-25.888971-11.600396-25.9-25.9Z" fill="#f1835a"/></g><path d="M648.9,794.8c-1.11-4.56.89-8.13,5.11-8.14s7.88,3.51,9,8.11-.87,8.13-5.11,8.13-7.9-3.51-9-8.1Zm10.52,0c-.69-2.85-2.62-5-4.7-5s-3,2.09-2.24,5s2.59,5,4.7,5s2.94-2.13,2.24-5.02Z" fill="#ff912b"/><path d="M587.92,676.78l-2.6.68-1.41-2.82l4.23-1.36h2.38l3.83,15.81h-3.45Z" fill="#26529f"/><path d="M600.3,681.23c-1.11-4.56.89-8.13,5.11-8.13s7.88,3.51,9,8.11-.87,8.12-5.11,8.13-7.89-3.51-9-8.11Zm10.52,0c-.69-2.85-2.62-5-4.7-5s-3,2.1-2.24,5s2.59,5,4.7,5s2.94-2.12,2.24-5.02Z" fill="#26529f"/><path d="M674.64,899.73c-1.1-4.55.9-8.12,5.11-8.13s7.89,3.51,9,8.11-.87,8.12-5.11,8.13-7.88-3.51-9-8.11Zm10.53,0c-.69-2.85-2.62-5-4.71-5s-2.94,2.09-2.23,5s2.59,5,4.7,5s2.94-2.12,2.24-5.02Z" fill="#26529f"/><path d="M605.81,750.68l-2.6.67-1.41-2.82l4.23-1.35h2.38L612.24,763h-3.45Z" fill="#26529f"/><path d="M618.19,755.12c-1.1-4.55.89-8.12,5.11-8.13s7.88,3.51,9,8.11-.87,8.12-5.11,8.13-7.89-3.51-9-8.11Zm10.52,0c-.69-2.85-2.62-5-4.7-5s-2.94,2.09-2.24,5s2.6,5,4.71,5s2.93-2.12,2.23-5.02Z" fill="#26529f"/><path d="M616.12,713.5l-2.61.68-1.41-2.82l4.24-1.36h2.38l3.83,15.81h-3.45Z" fill="#ff912b"/><path d="M628.49,718c-1.1-4.55.9-8.13,5.11-8.13s7.89,3.51,9,8.11-.87,8.12-5.11,8.13-7.88-3.56-9-8.11Zm10.53,0c-.69-2.85-2.62-5-4.71-5s-2.94,2.09-2.23,5s2.59,5,4.7,5s2.94-2.17,2.22-5.07Z" fill="#ff912b"/><path d="M615.43,790.39l-2.61.67-1.41-2.82l4.24-1.36h2.35l3.83,15.82h-3.45Z" fill="#26529f"/><path d="M627.8,794.83c-1.1-4.55.89-8.13,5.11-8.13s7.89,3.51,9,8.11-.87,8.12-5.11,8.13-7.88-3.51-9-8.11Zm10.53,0c-.69-2.85-2.62-5-4.71-5s-2.94,2.09-2.23,5s2.59,5,4.7,5s2.91-2.12,2.24-5.02Z" fill="#26529f"/><path d="M660.13,681.21c-1.1-4.55.89-8.12,5.11-8.13s7.89,3.51,9,8.11-.87,8.12-5.11,8.13-7.88-3.51-9-8.11Zm10.53,0c-.69-2.85-2.62-5-4.71-5s-2.94,2.09-2.23,5s2.59,5,4.7,5s2.94-2.12,2.24-5.02Z" fill="#ff912b"/><path d="M626.67,676.8l-2.61.68-1.41-2.83l4.23-1.35h2.39l3.82,15.81h-3.44Z" fill="#26529f"/><path d="M639,681.25c-1.1-4.56.89-8.13,5.11-8.14s7.88,3.51,9,8.11-.87,8.13-5.11,8.14-7.85-3.51-9-8.11Zm10.52,0c-.69-2.85-2.61-5-4.7-5s-2.94,2.09-2.24,5s2.6,5,4.71,5s2.97-2.13,2.27-5.02Z" fill="#26529f"/><path d="M667.27,871.5c-1.11-4.55.89-8.13,5.11-8.13s7.88,3.51,9,8.11-.87,8.12-5.11,8.13-7.89-3.51-9-8.11Zm10.52,0c-.69-2.85-2.62-5-4.7-5s-3,2.1-2.24,5s2.59,5,4.7,5s2.94-2.12,2.24-5.02Z" fill="#ff912b"/><path d="M624.18,827.38l-2.6.68-1.41-2.83l4.23-1.35h2.38l3.83,15.81h-3.45Z" fill="#26529f"/><path d="M636.56,831.83c-1.1-4.56.89-8.13,5.11-8.14s7.88,3.51,9,8.11-.87,8.13-5.11,8.14-7.89-3.51-9-8.11Zm10.52,0c-.69-2.85-2.62-5-4.7-5s-2.94,2.09-2.24,5s2.6,5,4.71,5s2.93-2.13,2.23-5.02Z" fill="#26529f"/><path d="M657.65,831.79c-1.1-4.55.89-8.12,5.11-8.13s7.88,3.51,9,8.11-.87,8.12-5.11,8.13-7.89-3.51-9-8.11Zm10.52,0c-.69-2.85-2.61-5-4.7-5s-2.94,2.09-2.24,5s2.6,5,4.71,5s2.94-2.12,2.23-5.02Z" fill="#26529f"/><path d="M680.36,827.29l-2.6.67-1.41-2.82l4.23-1.35h2.42l3.83,15.82h-3.45Z" fill="#26529f"/><path d="M633.8,867.09l-2.61.68-1.41-2.83l4.24-1.35h2.38l3.83,15.82h-3.45Z" fill="#26529f"/><path d="M646.17,871.54c-1.1-4.56.89-8.13,5.11-8.14s7.89,3.51,9,8.11-.87,8.13-5.11,8.13-7.88-3.51-9-8.1Zm10.53,0c-.69-2.85-2.62-5-4.71-5s-2.94,2.09-2.23,5s2.59,5,4.7,5s2.94-2.13,2.24-5.02Z" fill="#26529f"/><path d="M685.92,959.55c-1.11-4.56.89-8.13,5.11-8.14s7.88,3.51,9,8.11-.86,8.13-5.11,8.13-7.92-3.5-9-8.1Zm10.52,0c-.69-2.85-2.62-5-4.7-5s-3,2.09-2.24,5s2.6,5,4.71,5s2.93-2.13,2.23-5.02Z" fill="#26529f"/><path d="M708.63,955l-2.61.68-1.41-2.83l4.24-1.35h2.38l3.83,15.81h-3.45Z" fill="#26529f"/><path d="M652.45,955.14l-2.6.67-1.41-2.81l4.23-1.35h2.38l3.83,15.82h-3.45Z" fill="#26529f"/><path d="M664.82,959.58c-1.1-4.55.9-8.12,5.11-8.13s7.89,3.51,9,8.11-.87,8.12-5.11,8.13-7.88-3.51-9-8.11Zm10.53,0c-.69-2.84-2.62-5-4.71-5s-2.94,2.09-2.23,5s2.59,5,4.7,5s2.94-2.12,2.24-5.02Z" fill="#26529f"/><path d="M721,959.49c-1.1-4.56.9-8.13,5.11-8.14s7.89,3.51,9,8.11-.87,8.13-5.11,8.14-7.88-3.51-9-8.11Zm10.53,0c-.69-2.85-2.62-5-4.71-5s-2.94,2.1-2.23,5s2.59,5,4.7,5s2.94-2.13,2.24-5.02Z" fill="#ff912b"/><path d="M742.1,959.45c-1.11-4.55.89-8.12,5.11-8.13s7.88,3.51,9,8.11-.86,8.12-5.11,8.13-7.89-3.51-9-8.11Zm10.52,0c-.69-2.85-2.62-5-4.7-5s-2.95,2.09-2.24,5s2.59,5,4.7,5s2.94-2.12,2.24-5.02Z" fill="#ff912b"/><path d="M659.86,987.87c-1.11-4.56.89-8.13,5.11-8.13s7.88,3.51,9,8.1-.87,8.13-5.11,8.14-7.86-3.51-9-8.11Zm10.52,0c-.69-2.85-2.62-5-4.71-5s-2.94,2.1-2.23,5s2.59,5,4.7,5s2.94-2.13,2.24-5.02Z" fill="#26529f"/><path d="M682.57,983.36L680,984l-1.41-2.82l4.23-1.36h2.39L689,995.67h-3.45Z" fill="#26529f"/><path d="M694.94,987.81c-1.1-4.55.89-8.13,5.11-8.13s7.89,3.51,9,8.11-.87,8.12-5.11,8.13-7.88-3.51-9-8.11Zm10.53,0c-.69-2.85-2.62-5-4.71-5s-2.94,2.1-2.23,5s2.59,5,4.7,5s2.94-2.12,2.24-5.02Z" fill="#26529f"/><path d="M716,987.77c-1.1-4.55.9-8.12,5.11-8.13s7.89,3.51,9,8.11-.87,8.13-5.11,8.13-7.85-3.51-9-8.11Zm10.53,0c-.69-2.85-2.62-5-4.71-5s-2.94,2.09-2.23,5s2.59,5,4.7,5s2.97-2.12,2.27-5.01Z" fill="#26529f"/><path d="M1324,959.55c-1.1-4.56.89-8.13,5.11-8.14s7.89,3.51,9,8.11-.87,8.13-5.11,8.13-7.85-3.5-9-8.1Zm10.53,0c-.69-2.85-2.62-5-4.71-5s-2.94,2.09-2.23,5s2.59,5,4.7,5s2.97-2.13,2.27-5.02Z" fill="#26529f"/><path d="M1346.74,955l-2.6.68-1.41-2.83l4.23-1.35h2.38l3.83,15.81h-3.44Z" fill="#26529f"/><path d="M1290.56,955.14l-2.6.67-1.41-2.82l4.23-1.35h2.38l3.83,15.82h-3.44Z" fill="#26529f"/><path d="M1302.94,959.58c-1.1-4.55.89-8.12,5.11-8.13s7.88,3.51,9,8.11-.87,8.12-5.11,8.13-7.89-3.51-9-8.11Zm10.52,0c-.69-2.84-2.61-5-4.7-5s-2.94,2.09-2.24,5s2.6,5,4.71,5s2.93-2.12,2.23-5.02Z" fill="#26529f"/><path d="M1359.12,959.49c-1.1-4.56.89-8.13,5.11-8.14s7.88,3.51,9,8.11-.87,8.13-5.11,8.14-7.89-3.51-9-8.11Zm10.52,0c-.69-2.85-2.61-5-4.7-5s-2.94,2.1-2.24,5s2.6,5,4.71,5s2.93-2.13,2.23-5.02Z" fill="#ff912b"/><path d="M1380.21,959.45c-1.1-4.55.89-8.12,5.11-8.13s7.89,3.51,9,8.11-.87,8.12-5.11,8.13-7.88-3.51-9-8.11Zm10.53,0c-.69-2.85-2.62-5-4.71-5s-2.94,2.09-2.23,5s2.59,5,4.7,5s2.94-2.12,2.24-5.02Z" fill="#ff912b"/><path d="M1239.68,987.87c-1.1-4.56.89-8.13,5.11-8.13s7.88,3.51,9,8.1-.86,8.13-5.1,8.14-7.9-3.51-9.01-8.11Zm10.52,0c-.69-2.85-2.62-5-4.7-5s-2.94,2.1-2.24,5s2.6,5,4.71,5s2.93-2.13,2.23-5.02Z" fill="#26529f"/><path d="M1262.39,983.36l-2.61.68-1.41-2.82l4.24-1.36h2.39l3.83,15.81h-3.45Z" fill="#26529f"/><path d="M1274.77,987.81c-1.11-4.55.89-8.13,5.11-8.13s7.88,3.51,9,8.11-.87,8.12-5.11,8.13-7.89-3.51-9-8.11Zm10.52,0c-.69-2.85-2.62-5-4.71-5s-2.94,2.1-2.23,5s2.59,5,4.7,5s2.95-2.12,2.24-5.02Z" fill="#26529f"/><path d="M1295.86,987.77c-1.11-4.55.89-8.12,5.11-8.13s7.88,3.51,9,8.11-.86,8.13-5.11,8.13-7.86-3.51-9-8.11Zm10.52,0c-.69-2.85-2.62-5-4.7-5s-3,2.09-2.24,5s2.6,5,4.71,5s2.93-2.12,2.23-5.01Z" fill="#26529f"/><path d="M712.71,1062c-1.11-4.55.89-8.12,5.11-8.13s7.88,3.51,9,8.11-.87,8.13-5.11,8.13-7.89-3.52-9-8.11Zm10.52,0c-.69-2.85-2.62-5-4.7-5s-2.95,2.09-2.24,5s2.59,5,4.7,5s2.94-2.13,2.24-5Z" fill="#ff912b"/><path d="M735.42,1057.49l-2.61.68-1.41-2.83l4.24-1.35h2.36l3.83,15.82h-3.43Z" fill="#ff912b"/><path d="M669.62,1017.88l-2.6.67-1.41-2.82l4.23-1.36h2.38l3.83,15.82h-3.44Z" fill="#26529f"/><path d="M682,1022.32c-1.1-4.55.89-8.12,5.11-8.13s7.88,3.51,9,8.11-.87,8.12-5.11,8.13-7.89-3.51-9-8.11Zm10.52,0c-.69-2.85-2.62-5-4.7-5s-2.94,2.09-2.24,5s2.6,5,4.71,5s2.93-2.12,2.23-5.02Z" fill="#26529f"/><path d="M703.09,1022.29c-1.1-4.56.89-8.13,5.11-8.14s7.88,3.51,9,8.11-.87,8.13-5.11,8.14-7.89-3.52-9-8.11Zm10.52,0c-.68-2.85-2.61-5-4.7-5s-2.94,2.09-2.24,5s2.6,5,4.71,5s2.94-2.13,2.23-5.02Z" fill="#26529f"/><path d="M725.8,1017.78l-2.6.68-1.41-2.83l4.23-1.35h2.38l3.83,15.81h-3.45Z" fill="#26529f"/><path d="M1287.07,1017.88l-2.6.67-1.41-2.82l4.23-1.36h2.38l3.83,15.82h-3.45Z" fill="#26529f"/><path d="M1299.45,1022.32c-1.11-4.55.89-8.12,5.11-8.13s7.88,3.51,9,8.11-.87,8.12-5.11,8.13-7.89-3.51-9-8.11Zm10.52,0c-.69-2.85-2.62-5-4.7-5s-3,2.09-2.24,5s2.59,5,4.7,5s2.94-2.12,2.27-5.02Z" fill="#26529f"/><path d="M1320.54,1022.29c-1.1-4.56.89-8.13,5.11-8.14s7.88,3.51,9,8.11-.87,8.13-5.11,8.14-7.89-3.52-9-8.11Zm10.52,0c-.69-2.85-2.62-5-4.7-5s-2.94,2.09-2.24,5s2.6,5,4.71,5s2.93-2.13,2.23-5.02Z" fill="#26529f"/><path d="M1343.25,1017.78l-2.6.68-1.42-2.83l4.24-1.35h2.38l3.83,15.81h-3.45Z" fill="#26529f"/><path d="M679.24,1057.59l-2.61.67-1.41-2.82l4.24-1.36h2.38l3.83,15.82h-3.45Z" fill="#26529f"/><path d="M691.61,1062c-1.1-4.55.89-8.13,5.11-8.13s7.89,3.51,9,8.11-.87,8.12-5.11,8.13-7.88-3.48-9-8.11Zm10.53,0c-.69-2.85-2.62-5-4.71-5s-2.94,2.09-2.23,5s2.59,5,4.7,5s2.94-2.09,2.24-5Z" fill="#26529f"/><path d="M747.79,1061.94c-1.1-4.56.89-8.13,5.11-8.14s7.89,3.51,9,8.11-.87,8.13-5.11,8.13-7.88-3.51-9-8.1Zm10.53,0c-.69-2.85-2.62-5-4.71-5s-2.94,2.09-2.23,5s2.59,5,4.7,5s2.92-2.13,2.24-5.02Z" fill="#26529f"/><path d="M768.89,1061.9c-1.11-4.55.89-8.13,5.11-8.13s7.88,3.51,9,8.11-.87,8.12-5.11,8.13-7.89-3.51-9-8.11Zm10.52,0c-.69-2.85-2.62-5-4.71-5s-2.94,2.09-2.23,5s2.59,5,4.7,5s2.94-2.12,2.24-5.02Z" fill="#26529f"/><path d="M720.84,1090c-1.1-4.55.89-8.13,5.11-8.13s7.88,3.51,9,8.11-.87,8.12-5.11,8.13-7.84-3.48-9-8.11Zm10.52,0c-.69-2.85-2.61-5-4.7-5s-2.94,2.09-2.24,5s2.6,5,4.71,5s2.93-2.09,2.23-5Z" fill="#ff912b"/><path d="M743.55,1085.53l-2.6.67-1.41-2.82l4.23-1.36h2.38l3.83,15.82h-3.45Z" fill="#ff912b"/><path d="M699.75,1090.07c-1.11-4.56.89-8.13,5.11-8.14s7.88,3.51,9,8.11-.87,8.13-5.11,8.14-7.89-3.52-9-8.11Zm10.52,0c-.69-2.85-2.62-5-4.7-5s-3,2.09-2.24,5s2.59,5,4.7,5s2.97-2.13,2.24-5.02Z" fill="#26529f"/><path d="M755.93,1090c-1.11-4.55.89-8.12,5.11-8.13s7.88,3.51,9,8.11-.87,8.12-5.11,8.13-7.93-3.54-9-8.11Zm10.52,0c-.69-2.85-2.62-5-4.7-5s-3,2.09-2.24,5s2.59,5,4.7,5s2.94-2.15,2.24-5Z" fill="#26529f"/><path d="M777,1089.94c-1.1-4.56.89-8.13,5.11-8.14s7.88,3.51,9,8.11-.87,8.13-5.11,8.14-7.87-3.52-9-8.11Zm10.52,0c-.69-2.85-2.62-5-4.7-5s-2.94,2.09-2.24,5s2.6,5,4.71,5s2.95-2.13,2.25-5.02Z" fill="#26529f"/><path d="M849.59,1090c-1.1-4.55.9-8.13,5.11-8.13s7.89,3.51,9,8.11-.87,8.12-5.11,8.13-7.88-3.48-9-8.11Zm10.53,0c-.69-2.85-2.62-5-4.71-5s-2.94,2.09-2.23,5s2.59,5,4.7,5s2.94-2.09,2.24-5Z" fill="#ff912b"/><path d="M872.31,1085.53l-2.61.67-1.41-2.82l4.23-1.36h2.39l3.82,15.82h-3.44Z" fill="#ff912b"/><path d="M828.5,1090.07c-1.1-4.56.89-8.13,5.11-8.14s7.88,3.51,9,8.11-.87,8.13-5.11,8.14-7.89-3.52-9-8.11Zm10.52,0c-.68-2.85-2.61-5-4.7-5s-2.94,2.09-2.24,5s2.6,5,4.71,5s2.94-2.13,2.21-5.02Z" fill="#26529f"/><path d="M884.68,1090c-1.1-4.55.89-8.12,5.11-8.13s7.88,3.51,9,8.11-.87,8.12-5.11,8.13-7.89-3.54-9-8.11Zm10.53,0c-.69-2.85-2.62-5-4.71-5s-2.94,2.09-2.24,5s2.6,5,4.71,5s2.94-2.15,2.24-5Z" fill="#26529f"/><path d="M905.77,1089.94c-1.1-4.56.9-8.13,5.11-8.14s7.89,3.51,9,8.11-.87,8.13-5.11,8.14-7.88-3.52-9-8.11Zm10.53,0c-.69-2.85-2.62-5-4.71-5s-2.94,2.09-2.23,5s2.59,5,4.7,5s2.94-2.13,2.24-5.02Z" fill="#26529f"/><path d="M1142.73,1090c-1.11-4.55.89-8.13,5.11-8.13s7.88,3.51,9,8.11-.86,8.12-5.11,8.13-7.89-3.48-9-8.11Zm10.52,0c-.69-2.85-2.62-5-4.7-5s-3,2.09-2.24,5s2.59,5,4.7,5s2.99-2.09,2.24-5Z" fill="#ff912b"/><path d="M1165.44,1085.53l-2.61.67-1.41-2.82l4.24-1.36h2.34l3.83,15.82h-3.45Z" fill="#ff912b"/><path d="M1121.63,1090.07c-1.1-4.56.89-8.13,5.11-8.14s7.89,3.51,9,8.11-.87,8.13-5.11,8.14-7.88-3.52-9-8.11Zm10.53,0c-.69-2.85-2.62-5-4.71-5s-2.94,2.09-2.23,5s2.59,5,4.7,5s2.94-2.13,2.24-5.02Z" fill="#26529f"/><path d="M1177.81,1090c-1.1-4.55.9-8.12,5.11-8.13s7.89,3.51,9,8.11-.87,8.12-5.11,8.13-7.88-3.54-9-8.11Zm10.53,0c-.69-2.85-2.62-5-4.71-5s-2.94,2.09-2.23,5s2.59,5,4.7,5s2.9-2.15,2.24-5Z" fill="#26529f"/><path d="M1198.91,1089.94c-1.11-4.56.89-8.13,5.11-8.14s7.88,3.51,9,8.11-.87,8.13-5.11,8.14-7.91-3.52-9-8.11Zm10.52,0c-.69-2.85-2.62-5-4.7-5s-3,2.09-2.24,5s2.59,5,4.7,5s2.94-2.13,2.24-5.02Z" fill="#26529f"/><path d="M1271.48,1090c-1.1-4.55.89-8.13,5.11-8.13s7.89,3.51,9,8.11-.87,8.12-5.11,8.13-7.88-3.48-9-8.11Zm10.53,0c-.69-2.85-2.62-5-4.71-5s-2.94,2.09-2.23,5s2.59,5,4.7,5s2.94-2.09,2.23-5Z" fill="#ff912b"/><path d="M1294.19,1085.53l-2.6.67-1.41-2.82l4.23-1.36h2.38l3.83,15.82h-3.44Z" fill="#ff912b"/><path d="M1250.39,1090.07c-1.1-4.56.89-8.13,5.11-8.14s7.88,3.51,9,8.11-.87,8.13-5.11,8.14-7.89-3.52-9-8.11Zm10.52,0c-.69-2.85-2.61-5-4.7-5s-2.94,2.09-2.24,5s2.6,5,4.71,5s2.93-2.13,2.23-5.02Z" fill="#26529f"/><path d="M1306.57,1090c-1.1-4.55.89-8.12,5.11-8.13s7.88,3.51,9,8.11-.87,8.12-5.11,8.13-7.89-3.54-9-8.11Zm10.52,0c-.69-2.85-2.61-5-4.7-5s-2.94,2.09-2.24,5s2.6,5,4.71,5s2.93-2.15,2.23-5Z" fill="#26529f"/><path d="M1327.66,1089.94c-1.1-4.56.89-8.13,5.11-8.14s7.88,3.51,9,8.11-.87,8.13-5.11,8.14-7.89-3.52-9-8.11Zm10.53,0c-.69-2.85-2.62-5-4.71-5s-2.94,2.09-2.24,5s2.6,5,4.71,5s2.94-2.13,2.24-5.02Z" fill="#26529f"/><path d="M790,1061.86c-1.1-4.55.89-8.12,5.11-8.13s7.88,3.51,9,8.11-.87,8.13-5.11,8.13-7.91-3.51-9-8.11Zm10.52,0c-.69-2.85-2.62-5-4.7-5s-2.94,2.09-2.24,5s2.6,5,4.71,5s2.91-2.12,2.21-5.01Z" fill="#26529f"/><path d="M811.07,1061.83c-1.1-4.56.89-8.13,5.11-8.13s7.88,3.51,9,8.11-.87,8.12-5.11,8.13-7.89-3.51-9-8.11Zm10.52,0c-.69-2.85-2.61-5-4.7-5s-2.94,2.09-2.24,5s2.6,5,4.71,5s2.94-2.12,2.23-5.02Z" fill="#26529f"/><path d="M1196.65,1061.86c-1.1-4.55.89-8.12,5.11-8.13s7.89,3.51,9,8.11-.87,8.13-5.11,8.13-7.88-3.51-9-8.11Zm10.53,0c-.69-2.85-2.62-5-4.71-5s-2.94,2.09-2.23,5s2.59,5,4.7,5s2.94-2.12,2.24-5.01Z" fill="#26529f"/><path d="M1217.75,1061.83c-1.11-4.56.89-8.13,5.11-8.13s7.88,3.51,9,8.11-.87,8.12-5.11,8.13-7.89-3.51-9-8.11Zm10.52,0c-.69-2.85-2.62-5-4.7-5s-3,2.09-2.24,5s2.59,5,4.7,5s2.97-2.12,2.24-5.02Z" fill="#26529f"/></g></g><script><![CDATA[!function(t,n){"object"==typeof exports&&"undefined"!=typeof module?module.exports=n():"function"==typeof define&&define.amd?define(n):((t="undefined"!=typeof globalThis?globalThis:t||self).__SVGATOR_PLAYER__=t.__SVGATOR_PLAYER__||{},t.__SVGATOR_PLAYER__["5c7f360c"]=n())}(this,(function(){"use strict";function t(t,n){var r=Object.keys(t);if(Object.getOwnPropertySymbols){var e=Object.getOwnPropertySymbols(t);n&&(e=e.filter((function(n){return Object.getOwnPropertyDescriptor(t,n).enumerable}))),r.push.apply(r,e)}return r}function n(n){for(var r=1;r<arguments.length;r++){var e=null!=arguments[r]?arguments[r]:{};r%2?t(Object(e),!0).forEach((function(t){u(n,t,e[t])})):Object.getOwnPropertyDescriptors?Object.defineProperties(n,Object.getOwnPropertyDescriptors(e)):t(Object(e)).forEach((function(t){Object.defineProperty(n,t,Object.getOwnPropertyDescriptor(e,t))}))}return n}function r(t){return(r="function"==typeof Symbol&&"symbol"==typeof Symbol.iterator?function(t){return typeof t}:function(t){return t&&"function"==typeof Symbol&&t.constructor===Symbol&&t!==Symbol.prototype?"symbol":typeof t})(t)}function e(t,n){if(!(t instanceof n))throw new TypeError("Cannot call a class as a function")}function i(t,n){for(var r=0;r<n.length;r++){var e=n[r];e.enumerable=e.enumerable||!1,e.configurable=!0,"value"in e&&(e.writable=!0),Object.defineProperty(t,e.key,e)}}function o(t,n,r){return n&&i(t.prototype,n),r&&i(t,r),t}function u(t,n,r){return n in t?Object.defineProperty(t,n,{value:r,enumerable:!0,configurable:!0,writable:!0}):t[n]=r,t}function a(t){return(a=Object.setPrototypeOf?Object.getPrototypeOf:function(t){return t.__proto__||Object.getPrototypeOf(t)})(t)}function l(t,n){return(l=Object.setPrototypeOf||function(t,n){return t.__proto__=n,t})(t,n)}function f(){if("undefined"==typeof Reflect||!Reflect.construct)return!1;if(Reflect.construct.sham)return!1;if("function"==typeof Proxy)return!0;try{return Boolean.prototype.valueOf.call(Reflect.construct(Boolean,[],(function(){}))),!0}catch(t){return!1}}function s(t,n,r){return(s=f()?Reflect.construct:function(t,n,r){var e=[null];e.push.apply(e,n);var i=new(Function.bind.apply(t,e));return r&&l(i,r.prototype),i}).apply(null,arguments)}function c(t,n){if(n&&("object"==typeof n||"function"==typeof n))return n;if(void 0!==n)throw new TypeError("Derived constructors may only return object or undefined");return function(t){if(void 0===t)throw new ReferenceError("this hasn't been initialised - super() hasn't been called");return t}(t)}function h(t,n,r){return(h="undefined"!=typeof Reflect&&Reflect.get?Reflect.get:function(t,n,r){var e=function(t,n){for(;!Object.prototype.hasOwnProperty.call(t,n)&&null!==(t=a(t)););return t}(t,n);if(e){var i=Object.getOwnPropertyDescriptor(e,n);return i.get?i.get.call(r):i.value}})(t,n,r||t)}function v(t){return function(t){if(Array.isArray(t))return y(t)}(t)||function(t){if("undefined"!=typeof Symbol&&null!=t[Symbol.iterator]||null!=t["@@iterator"])return Array.from(t)}(t)||function(t,n){if(!t)return;if("string"==typeof t)return y(t,n);var r=Object.prototype.toString.call(t).slice(8,-1);"Object"===r&&t.constructor&&(r=t.constructor.name);if("Map"===r||"Set"===r)return Array.from(t);if("Arguments"===r||/^(?:Ui|I)nt(?:8|16|32)(?:Clamped)?Array$/.test(r))return y(t,n)}(t)||function(){throw new TypeError("Invalid attempt to spread non-iterable instance.\nIn order to be iterable, non-array objects must have a [Symbol.iterator]() method.")}()}function y(t,n){(null==n||n>t.length)&&(n=t.length);for(var r=0,e=new Array(n);r<n;r++)e[r]=t[r];return e}Number.isInteger||(Number.isInteger=function(t){return"number"==typeof t&&isFinite(t)&&Math.floor(t)===t}),Number.EPSILON||(Number.EPSILON=2220446049250313e-31);var g=p(Math.pow(10,-6));function p(t){var n=arguments.length>1&&void 0!==arguments[1]?arguments[1]:6;if(Number.isInteger(t))return t;var r=Math.pow(10,n);return Math.round((+t+Number.EPSILON)*r)/r}function d(t,n){var r=arguments.length>2&&void 0!==arguments[2]?arguments[2]:g;return Math.abs(t-n)<r}var m=Math.PI/180;function b(t){return t}function w(t,n,r){var e=1-r;return 3*r*e*(t*e+n*r)+r*r*r}function x(){var t=arguments.length>0&&void 0!==arguments[0]?arguments[0]:0,n=arguments.length>1&&void 0!==arguments[1]?arguments[1]:0,r=arguments.length>2&&void 0!==arguments[2]?arguments[2]:1,e=arguments.length>3&&void 0!==arguments[3]?arguments[3]:1;return t<0||t>1||r<0||r>1?null:d(t,n)&&d(r,e)?b:function(i){if(i<=0)return t>0?i*n/t:0===n&&r>0?i*e/r:0;if(i>=1)return r<1?1+(i-1)*(e-1)/(r-1):1===r&&t<1?1+(i-1)*(n-1)/(t-1):1;for(var o,u=0,a=1;u<a;){var l=w(t,r,o=(u+a)/2);if(d(i,l))break;l<i?u=o:a=o}return w(n,e,o)}}function A(){return 1}function k(t){return 1===t?1:0}function _(){var t=arguments.length>0&&void 0!==arguments[0]?arguments[0]:1,n=arguments.length>1&&void 0!==arguments[1]?arguments[1]:0;if(1===t){if(0===n)return k;if(1===n)return A}var r=1/t;return function(t){return t>=1?1:(t+=n*r)-t%r}}var S=Math.sin,O=Math.cos,j=Math.acos,M=Math.asin,P=Math.tan,E=Math.atan2,I=Math.PI/180,R=180/Math.PI,F=Math.sqrt,N=function(){function t(){var n=arguments.length>0&&void 0!==arguments[0]?arguments[0]:1,r=arguments.length>1&&void 0!==arguments[1]?arguments[1]:0,i=arguments.length>2&&void 0!==arguments[2]?arguments[2]:0,o=arguments.length>3&&void 0!==arguments[3]?arguments[3]:1,u=arguments.length>4&&void 0!==arguments[4]?arguments[4]:0,a=arguments.length>5&&void 0!==arguments[5]?arguments[5]:0;e(this,t),this.m=[n,r,i,o,u,a],this.i=null,this.w=null,this.s=null}return o(t,[{key:"determinant",get:function(){var t=this.m;return t[0]*t[3]-t[1]*t[2]}},{key:"isIdentity",get:function(){if(null===this.i){var t=this.m;this.i=1===t[0]&&0===t[1]&&0===t[2]&&1===t[3]&&0===t[4]&&0===t[5]}return this.i}},{key:"point",value:function(t,n){var r=this.m;return{x:r[0]*t+r[2]*n+r[4],y:r[1]*t+r[3]*n+r[5]}}},{key:"translateSelf",value:function(){var t=arguments.length>0&&void 0!==arguments[0]?arguments[0]:0,n=arguments.length>1&&void 0!==arguments[1]?arguments[1]:0;if(!t&&!n)return this;var r=this.m;return r[4]+=r[0]*t+r[2]*n,r[5]+=r[1]*t+r[3]*n,this.w=this.s=this.i=null,this}},{key:"rotateSelf",value:function(){var t=arguments.length>0&&void 0!==arguments[0]?arguments[0]:0;if(t%=360){var n=S(t*=I),r=O(t),e=this.m,i=e[0],o=e[1];e[0]=i*r+e[2]*n,e[1]=o*r+e[3]*n,e[2]=e[2]*r-i*n,e[3]=e[3]*r-o*n,this.w=this.s=this.i=null}return this}},{key:"scaleSelf",value:function(){var t=arguments.length>0&&void 0!==arguments[0]?arguments[0]:1,n=arguments.length>1&&void 0!==arguments[1]?arguments[1]:1;if(1!==t||1!==n){var r=this.m;r[0]*=t,r[1]*=t,r[2]*=n,r[3]*=n,this.w=this.s=this.i=null}return this}},{key:"skewSelf",value:function(t,n){if(n%=360,(t%=360)||n){var r=this.m,e=r[0],i=r[1],o=r[2],u=r[3];t&&(t=P(t*I),r[2]+=e*t,r[3]+=i*t),n&&(n=P(n*I),r[0]+=o*n,r[1]+=u*n),this.w=this.s=this.i=null}return this}},{key:"resetSelf",value:function(){var t=arguments.length>0&&void 0!==arguments[0]?arguments[0]:1,n=arguments.length>1&&void 0!==arguments[1]?arguments[1]:0,r=arguments.length>2&&void 0!==arguments[2]?arguments[2]:0,e=arguments.length>3&&void 0!==arguments[3]?arguments[3]:1,i=arguments.length>4&&void 0!==arguments[4]?arguments[4]:0,o=arguments.length>5&&void 0!==arguments[5]?arguments[5]:0,u=this.m;return u[0]=t,u[1]=n,u[2]=r,u[3]=e,u[4]=i,u[5]=o,this.w=this.s=this.i=null,this}},{key:"recomposeSelf",value:function(){var t=arguments.length>0&&void 0!==arguments[0]?arguments[0]:null,n=arguments.length>1&&void 0!==arguments[1]?arguments[1]:null,r=arguments.length>2&&void 0!==arguments[2]?arguments[2]:null,e=arguments.length>3&&void 0!==arguments[3]?arguments[3]:null,i=arguments.length>4&&void 0!==arguments[4]?arguments[4]:null;return this.isIdentity||this.resetSelf(),t&&(t.x||t.y)&&this.translateSelf(t.x,t.y),n&&this.rotateSelf(n),r&&(r.x&&this.skewSelf(r.x,0),r.y&&this.skewSelf(0,r.y)),!e||1===e.x&&1===e.y||this.scaleSelf(e.x,e.y),i&&(i.x||i.y)&&this.translateSelf(i.x,i.y),this}},{key:"decompose",value:function(){var t=arguments.length>0&&void 0!==arguments[0]?arguments[0]:0,n=arguments.length>1&&void 0!==arguments[1]?arguments[1]:0,r=this.m,e=r[0]*r[0]+r[1]*r[1],i=[[r[0],r[1]],[r[2],r[3]]],o=F(e);if(0===o)return{origin:{x:p(r[4]),y:p(r[5])},translate:{x:p(t),y:p(n)},scale:{x:0,y:0},skew:{x:0,y:0},rotate:0};i[0][0]/=o,i[0][1]/=o;var u=r[0]*r[3]-r[1]*r[2]<0;u&&(o=-o);var a=i[0][0]*i[1][0]+i[0][1]*i[1][1];i[1][0]-=i[0][0]*a,i[1][1]-=i[0][1]*a;var l=F(i[1][0]*i[1][0]+i[1][1]*i[1][1]);if(0===l)return{origin:{x:p(r[4]),y:p(r[5])},translate:{x:p(t),y:p(n)},scale:{x:p(o),y:0},skew:{x:0,y:0},rotate:0};i[1][0]/=l,i[1][1]/=l,a/=l;var f=0;return i[1][1]<0?(f=j(i[1][1])*R,i[0][1]<0&&(f=360-f)):f=M(i[0][1])*R,u&&(f=-f),a=E(a,F(i[0][0]*i[0][0]+i[0][1]*i[0][1]))*R,u&&(a=-a),{origin:{x:p(r[4]),y:p(r[5])},translate:{x:p(t),y:p(n)},scale:{x:p(o),y:p(l)},skew:{x:p(a),y:0},rotate:p(f)}}},{key:"clone",value:function(){var t=this.m;return new this.constructor(t[0],t[1],t[2],t[3],t[4],t[5])}},{key:"toString",value:function(){var t=arguments.length>0&&void 0!==arguments[0]?arguments[0]:" ";if(null===this.s){var n=this.m.map((function(t){return p(t)}));1===n[0]&&0===n[1]&&0===n[2]&&1===n[3]?this.s="translate("+n[4]+t+n[5]+")":this.s="matrix("+n.join(t)+")"}return this.s}}],[{key:"create",value:function(t){return t?Array.isArray(t)?s(this,v(t)):t instanceof this?t.clone():(new this).recomposeSelf(t.origin,t.rotate,t.skew,t.scale,t.translate):new this}}]),t}();function T(t,n,r){return t>=.5?r:n}function q(t,n,r){return 0===t||n===r?n:t*(r-n)+n}function B(t,n,r){var e=q(t,n,r);return e<=0?0:e}function L(t,n,r){var e=q(t,n,r);return e<=0?0:e>=1?1:e}function C(t,n,r){return 0===t?n:1===t?r:{x:q(t,n.x,r.x),y:q(t,n.y,r.y)}}function D(t,n,r){var e=function(t,n,r){return Math.round(q(t,n,r))}(t,n,r);return e<=0?0:e>=255?255:e}function z(t,n,r){return 0===t?n:1===t?r:{r:D(t,n.r,r.r),g:D(t,n.g,r.g),b:D(t,n.b,r.b),a:q(t,null==n.a?1:n.a,null==r.a?1:r.a)}}function V(t,n){for(var r=[],e=0;e<t;e++)r.push(n);return r}function G(t,n){if(--n<=0)return t;var r=(t=Object.assign([],t)).length;do{for(var e=0;e<r;e++)t.push(t[e])}while(--n>0);return t}var Y,$=function(){function t(n){e(this,t),this.list=n,this.length=n.length}return o(t,[{key:"setAttribute",value:function(t,n){for(var r=this.list,e=0;e<this.length;e++)r[e].setAttribute(t,n)}},{key:"removeAttribute",value:function(t){for(var n=this.list,r=0;r<this.length;r++)n[r].removeAttribute(t)}},{key:"style",value:function(t,n){for(var r=this.list,e=0;e<this.length;e++)r[e].style[t]=n}}]),t}(),U=/-./g,Q=function(t,n){return n.toUpperCase()};function H(t){return"function"==typeof t?t:T}function J(t){return t?"function"==typeof t?t:Array.isArray(t)?function(t){var n=arguments.length>1&&void 0!==arguments[1]?arguments[1]:b;if(!Array.isArray(t))return n;switch(t.length){case 1:return _(t[0])||n;case 2:return _(t[0],t[1])||n;case 4:return x(t[0],t[1],t[2],t[3])||n}return n}(t,null):function(t,n){var r=arguments.length>2&&void 0!==arguments[2]?arguments[2]:b;switch(t){case"linear":return b;case"steps":return _(n.steps||1,n.jump||0)||r;case"bezier":case"cubic-bezier":return x(n.x1||0,n.y1||0,n.x2||0,n.y2||0)||r}return r}(t.type,t.value,null):null}function Z(t,n,r){var e=arguments.length>3&&void 0!==arguments[3]&&arguments[3],i=n.length-1;if(t<=n[0].t)return e?[0,0,n[0].v]:n[0].v;if(t>=n[i].t)return e?[i,1,n[i].v]:n[i].v;var o,u=n[0],a=null;for(o=1;o<=i;o++){if(!(t>n[o].t)){a=n[o];break}u=n[o]}return null==a?e?[i,1,n[i].v]:n[i].v:u.t===a.t?e?[o,1,a.v]:a.v:(t=(t-u.t)/(a.t-u.t),u.e&&(t=u.e(t)),e?[o,t,r(t,u.v,a.v)]:r(t,u.v,a.v))}function K(t,n){var r=arguments.length>2&&void 0!==arguments[2]?arguments[2]:null;return t&&t.length?"function"!=typeof n?null:("function"!=typeof r&&(r=null),function(e){var i=Z(e,t,n);return null!=i&&r&&(i=r(i)),i}):null}function W(t,n){return t.t-n.t}function X(t,n,e,i,o){var u,a="@"===e[0],l="#"===e[0],f=Y[e],s=T;switch(a?(u=e.substr(1),e=u.replace(U,Q)):l&&(e=e.substr(1)),r(f)){case"function":if(s=f(i,o,Z,J,e,a,n,t),l)return s;break;case"string":s=K(i,H(f));break;case"object":if((s=K(i,H(f.i),f.f))&&"function"==typeof f.u)return f.u(n,s,e,a,t)}return s?function(t,n,r){if(arguments.length>3&&void 0!==arguments[3]&&arguments[3])return t instanceof $?function(e){return t.style(n,r(e))}:function(e){return t.style[n]=r(e)};if(Array.isArray(n)){var e=n.length;return function(i){var o=r(i);if(null==o)for(var u=0;u<e;u++)t[u].removeAttribute(n);else for(var a=0;a<e;a++)t[a].setAttribute(n,o)}}return function(e){var i=r(e);null==i?t.removeAttribute(n):t.setAttribute(n,i)}}(n,e,s,a):null}function tt(t,n,e,i){if(!i||"object"!==r(i))return null;var o=null,u=null;return Array.isArray(i)?u=function(t){if(!t||!t.length)return null;for(var n=0;n<t.length;n++)t[n].e&&(t[n].e=J(t[n].e));return t.sort(W)}(i):(u=i.keys,o=i.data||null),u?X(t,n,e,u,o):null}function nt(t,n,r){if(!r)return null;var e=[];for(var i in r)if(r.hasOwnProperty(i)){var o=tt(t,n,i,r[i]);o&&e.push(o)}return e.length?e:null}function rt(t,n){if(!n.duration||n.duration<0)return null;var r=function(t,n){if(!n)return null;var r=[];if(Array.isArray(n))for(var e=n.length,i=0;i<e;i++){var o=n[i];if(2===o.length){var u=null;if("string"==typeof o[0])u=t.getElementById(o[0]);else if(Array.isArray(o[0])){u=[];for(var a=0;a<o[0].length;a++)if("string"==typeof o[0][a]){var l=t.getElementById(o[0][a]);l&&u.push(l)}u=u.length?1===u.length?u[0]:new $(u):null}if(u){var f=nt(t,u,o[1]);f&&(r=r.concat(f))}}}else for(var s in n)if(n.hasOwnProperty(s)){var c=t.getElementById(s);if(c){var h=nt(t,c,n[s]);h&&(r=r.concat(h))}}return r.length?r:null}(t,n.elements);return r?function(t,n){var r=arguments.length>2&&void 0!==arguments[2]?arguments[2]:1/0,e=arguments.length>3&&void 0!==arguments[3]?arguments[3]:1,i=arguments.length>4&&void 0!==arguments[4]&&arguments[4],o=arguments.length>5&&void 0!==arguments[5]?arguments[5]:1,u=t.length,a=e>0?n:0;i&&r%2==0&&(a=n-a);var l=null;return function(f,s){var c=f%n,h=1+(f-c)/n;s*=e,i&&h%2==0&&(s=-s);var v=!1;if(h>r)c=a,v=!0,-1===o&&(c=e>0?0:n);else if(s<0&&(c=n-c),c===l)return!1;l=c;for(var y=0;y<u;y++)t[y](c);return v}}(r,n.duration,n.iterations||1/0,n.direction||1,!!n.alternate,n.fill||1):null}function et(t){return+("0x"+(t.replace(/[^0-9a-fA-F]+/g,"")||27))}function it(t,n,r){return!t||!r||n>t.length?t:t.substring(0,n)+it(t.substring(n+1),r,r)}function ot(t){var n=arguments.length>1&&void 0!==arguments[1]?arguments[1]:27;return!t||t%n?t%n:ot(t/n,n)}function ut(t,n,r){if(t&&t.length){var e=et(r),i=et(n),o=ot(e)+5,u=it(t,ot(e,5),o);return u=u.replace(/\x7c$/g,"==").replace(/\x2f$/g,"="),u=function(t,n,r){var e=+("0x"+t.substring(0,4));t=t.substring(4);for(var i=n%e+r%27,o=[],u=0;u<t.length;u+=2)if("|"!==t[u]){var a=+("0x"+t[u]+t[u+1])-i;o.push(a)}else{var l=+("0x"+t.substring(u+1,u+1+4))-i;u+=3,o.push(l)}return String.fromCharCode.apply(String,o)}(u=(u=atob(u)).replace(/[\x41-\x5A]/g,""),i,e),u=JSON.parse(u)}}var at=function(){function t(n,r){var i=arguments.length>2&&void 0!==arguments[2]?arguments[2]:{};e(this,t),this._id=0,this._running=!1,this._rollingBack=!1,this._animations=n,this.duration=r.duration,this.alternate=r.alternate,this.fill=r.fill,this.iterations=r.iterations,this.direction=i.direction||1,this.speed=i.speed||1,this.fps=i.fps||100,this.offset=i.offset||0,this.rollbackStartOffset=0}return o(t,[{key:"maxFiniteDuration",get:function(){return this.iterations>0?this.iterations*this.duration:this.duration}},{key:"_apply",value:function(t){for(var n=arguments.length>1&&void 0!==arguments[1]?arguments[1]:{},r=this._animations,e=r.length,i=0,o=0;o<e;o++)n[o]?i++:(n[o]=r[o](t,this.direction),n[o]&&i++);return i}},{key:"_rollback",value:function(){var t=this,n=1/0,r=null;this.rollbackStartOffset=this.offset,this._rollingBack=!0,this._running=!0;this._id=window.requestAnimationFrame((function e(i){if(t._rollingBack){null==r&&(r=i);var o=i-r,u=t.rollbackStartOffset-o,a=Math.round(u*t.speed);if(a>t.duration&&n!==1/0){var l=!!t.alternate&&a/t.duration%2>1,f=a%t.duration;a=(f+=l?t.duration:0)||t.duration}var s=t.fps?1e3/t.fps:0,c=Math.max(0,a);c<n-s&&(t.offset=c,n=c,t._apply(c));var h=t.iterations>0&&-1===t.fill&&a>=t.maxFiniteDuration;(a<=0||t.offset<a||h)&&t.stop(),t._id=window.requestAnimationFrame(e)}}))}},{key:"_start",value:function(){var t=this,n=arguments.length>0&&void 0!==arguments[0]?arguments[0]:0,r=-1/0,e=null,i={};this._running=!0;var o=function o(u){null==e&&(e=u);var a=Math.round((u-e+n)*t.speed),l=t.fps?1e3/t.fps:0;if(a>r+l&&!t._rollingBack&&(t.offset=a,r=a,t._apply(a,i)===t._animations.length))return void t.pause(!0);t._id=window.requestAnimationFrame(o)};this._id=window.requestAnimationFrame(o)}},{key:"_pause",value:function(){this._id&&window.cancelAnimationFrame(this._id),this._running=!1}},{key:"play",value:function(){if(!this._running)return this._rollingBack?this._rollback():this._start(this.offset)}},{key:"stop",value:function(){this._pause(),this.offset=0,this.rollbackStartOffset=0,this._rollingBack=!1,this._apply(0)}},{key:"reachedToEnd",value:function(){return this.iterations>0&&this.offset>=this.iterations*this.duration}},{key:"restart",value:function(){var t=arguments.length>0&&void 0!==arguments[0]&&arguments[0];this.stop(t),this.play(t)}},{key:"pause",value:function(){this._pause()}},{key:"reverse",value:function(){this.direction=-this.direction}}],[{key:"build",value:function(t,r){return delete t.animationSettings,t.options=ut(t.options,t.root,"5c7f360c"),t.animations.map((function(r){var e=ut(r.s,t.root,"5c7f360c");for(var i in delete r.s,t.animationSettings||(t.animationSettings=n({},e)),e)e.hasOwnProperty(i)&&(r[i]=e[i])})),(t=function(t,n){if(Y=n,!t||!t.root||!Array.isArray(t.animations))return null;for(var r=document.getElementsByTagName("svg"),e=!1,i=0;i<r.length;i++)if(r[i].id===t.root&&!r[i].svgatorAnimation){(e=r[i]).svgatorAnimation=!0;break}if(!e)return null;var o=t.animations.map((function(t){return rt(e,t)})).filter((function(t){return!!t}));return o.length?{element:e,animations:o,animationSettings:t.animationSettings,options:t.options||void 0}:null}(t,r))?{el:t.element,options:t.options||{},player:new this(t.animations,t.animationSettings,t.options)}:null}},{key:"push",value:function(t){return this.build(t)}},{key:"init",value:function(){var t=this,n=window.__SVGATOR_PLAYER__&&window.__SVGATOR_PLAYER__["5c7f360c"];Array.isArray(n)&&n.splice(0).forEach((function(n){return t.build(n)}))}}]),t}();function lt(t){return p(t)+""}function ft(t){var n=arguments.length>1&&void 0!==arguments[1]?arguments[1]:" ";return t&&t.length?t.map(lt).join(n):""}function st(t){if(!t)return"transparent";if(null==t.a||t.a>=1){var n=function(t){return 1===(t=parseInt(t).toString(16)).length?"0"+t:t},r=function(t){return t.charAt(0)===t.charAt(1)},e=n(t.r),i=n(t.g),o=n(t.b);return r(e)&&r(i)&&r(o)&&(e=e.charAt(0),i=i.charAt(0),o=o.charAt(0)),"#"+e+i+o}return"rgba("+t.r+","+t.g+","+t.b+","+t.a+")"}function ct(t){return t?"url(#"+t+")":"none"}!function(){for(var t=0,n=["ms","moz","webkit","o"],r=0;r<n.length&&!window.requestAnimationFrame;++r)window.requestAnimationFrame=window[n[r]+"RequestAnimationFrame"],window.cancelAnimationFrame=window[n[r]+"CancelAnimationFrame"]||window[n[r]+"CancelRequestAnimationFrame"];window.requestAnimationFrame||(window.requestAnimationFrame=function(n){var r=Date.now(),e=Math.max(0,16-(r-t)),i=window.setTimeout((function(){n(r+e)}),e);return t=r+e,i},window.cancelAnimationFrame=window.clearTimeout)}();var ht={f:null,i:function(t,n,r){return 0===t?n:1===t?r:{x:B(t,n.x,r.x),y:B(t,n.y,r.y)}},u:function(t,n){return function(r){var e=n(r);t.setAttribute("rx",lt(e.x)),t.setAttribute("ry",lt(e.y))}}},vt={f:null,i:function(t,n,r){return 0===t?n:1===t?r:{width:B(t,n.width,r.width),height:B(t,n.height,r.height)}},u:function(t,n){return function(r){var e=n(r);t.setAttribute("width",lt(e.width)),t.setAttribute("height",lt(e.height))}}};Object.freeze({M:2,L:2,Z:0,H:1,V:1,C:6,Q:4,T:2,S:4,A:7});var yt={},gt=null;function pt(t){var n=function(){if(gt)return gt;if("object"!==("undefined"==typeof document?"undefined":r(document))||!document.createElementNS)return{};var t=document.createElementNS("http://www.w3.org/2000/svg","svg");return t&&t.style?(t.style.position="absolute",t.style.opacity="0.01",t.style.zIndex="-9999",t.style.left="-9999px",t.style.width="1px",t.style.height="1px",gt={svg:t}):{}}().svg;if(!n)return function(t){return null};var e=document.createElementNS(n.namespaceURI,"path");e.setAttributeNS(null,"d",t),e.setAttributeNS(null,"fill","none"),e.setAttributeNS(null,"stroke","none"),n.appendChild(e);var i=e.getTotalLength();return function(t){var n=e.getPointAtLength(i*t);return{x:n.x,y:n.y}}}function dt(t){return yt[t]?yt[t]:yt[t]=pt(t)}function mt(t,n,r,e){if(!t||!e)return!1;var i=["M",t.x,t.y];if(n&&r&&(i.push("C"),i.push(n.x),i.push(n.y),i.push(r.x),i.push(r.y)),n?!r:r){var o=n||r;i.push("Q"),i.push(o.x),i.push(o.y)}return n||r||i.push("L"),i.push(e.x),i.push(e.y),i.join(" ")}function bt(t,n,r,e){var i=arguments.length>4&&void 0!==arguments[4]?arguments[4]:1,o=mt(t,n,r,e),u=dt(o);try{return u(i)}catch(t){return null}}function wt(t,n,r){return t+(n-t)*r}function xt(t,n,r){var e=arguments.length>3&&void 0!==arguments[3]&&arguments[3],i={x:wt(t.x,n.x,r),y:wt(t.y,n.y,r)};return e&&(i.a=At(t,n)),i}function At(t,n){return Math.atan2(n.y-t.y,n.x-t.x)}function kt(t,n,r,e){var i=1-e;return i*i*t+2*i*e*n+e*e*r}function _t(t,n,r,e){return 2*(1-e)*(n-t)+2*e*(r-n)}function St(t,n,r,e){var i=arguments.length>4&&void 0!==arguments[4]&&arguments[4],o=bt(t,n,null,r,e);return o||(o={x:kt(t.x,n.x,r.x,e),y:kt(t.y,n.y,r.y,e)}),i&&(o.a=Ot(t,n,r,e)),o}function Ot(t,n,r,e){return Math.atan2(_t(t.y,n.y,r.y,e),_t(t.x,n.x,r.x,e))}function jt(t,n,r,e,i){var o=i*i;return i*o*(e-t+3*(n-r))+3*o*(t+r-2*n)+3*i*(n-t)+t}function Mt(t,n,r,e,i){var o=1-i;return 3*(o*o*(n-t)+2*o*i*(r-n)+i*i*(e-r))}function Pt(t,n,r,e,i){var o=arguments.length>5&&void 0!==arguments[5]&&arguments[5],u=bt(t,n,r,e,i);return u||(u={x:jt(t.x,n.x,r.x,e.x,i),y:jt(t.y,n.y,r.y,e.y,i)}),o&&(u.a=Et(t,n,r,e,i)),u}function Et(t,n,r,e,i){return Math.atan2(Mt(t.y,n.y,r.y,e.y,i),Mt(t.x,n.x,r.x,e.x,i))}function It(t,n,r){var e=arguments.length>3&&void 0!==arguments[3]&&arguments[3];if(Ft(n)){if(Nt(r))return St(n,r.start,r,t,e)}else if(Ft(r)){if(n.end)return St(n,n.end,r,t,e)}else{if(n.end)return r.start?Pt(n,n.end,r.start,r,t,e):St(n,n.end,r,t,e);if(r.start)return St(n,r.start,r,t,e)}return xt(n,r,t,e)}function Rt(t,n,r){var e=It(t,n,r,!0);return e.a=function(t){return arguments.length>1&&void 0!==arguments[1]&&arguments[1]?t+Math.PI:t}(e.a)/m,e}function Ft(t){return!t.type||"corner"===t.type}function Nt(t){return null!=t.start&&!Ft(t)}var Tt=new N;var qt={f:lt,i:q},Bt={f:lt,i:L};function Lt(t,n,r){return t.map((function(t){return function(t,n,r){var e=t.v;if(!e||"g"!==e.t||e.s||!e.v||!e.r)return t;var i=r.getElementById(e.r),o=i&&i.querySelectorAll("stop")||[];return e.s=e.v.map((function(t,n){var r=o[n]&&o[n].getAttribute("offset");return{c:t,o:r=p(parseInt(r)/100)}})),delete e.v,t}(t,0,r)}))}var Ct={gt:"gradientTransform",c:{x:"cx",y:"cy"},rd:"r",f:{x:"x1",y:"y1"},to:{x:"x2",y:"y2"}};function Dt(t,n,e,i,o,u,a,l){return Lt(t,0,l),n=function(t,n,r){for(var e,i,o,u=t.length-1,a={},l=0;l<=u;l++)(e=t[l]).e&&(e.e=n(e.e)),e.v&&"g"===(i=e.v).t&&i.r&&(o=r.getElementById(i.r))&&(a[i.r]={e:o,s:o.querySelectorAll("stop")});return a}(t,i,l),function(i){var o=e(i,t,zt);if(!o)return"none";if("c"===o.t)return st(o.v);if("g"===o.t){if(!n[o.r])return ct(o.r);var u=n[o.r];return function(t,n){for(var r=t.s,e=r.length;e<n.length;e++){var i=r[r.length-1].cloneNode();i.id=Yt(i.id),t.e.appendChild(i),r=t.s=t.e.querySelectorAll("stop")}for(var o=0,u=r.length,a=n.length-1;o<u;o++)r[o].setAttribute("stop-color",st(n[Math.min(o,a)].c)),r[o].setAttribute("offset",n[Math.min(o,a)].o)}(u,o.s),Object.keys(Ct).forEach((function(t){if(void 0!==o[t])if("object"!==r(Ct[t])){var n,e="gt"===t?(n=o[t],Array.isArray(n)?"matrix("+n.join(" ")+")":""):o[t],i=Ct[t];u.e.setAttribute(i,e)}else Object.keys(Ct[t]).forEach((function(n){if(void 0!==o[t][n]){var r=o[t][n],e=Ct[t][n];u.e.setAttribute(e,r)}}))})),ct(o.r)}return"none"}}function zt(t,r,e){if(0===t)return r;if(1===t)return e;if(r&&e){var i=r.t;if(i===e.t)switch(r.t){case"c":return{t:i,v:z(t,r.v,e.v)};case"g":if(r.r===e.r){var o={t:i,s:Vt(t,r.s,e.s),r:r.r};return r.gt&&e.gt&&(o.gt=function(t,n,r){var e=n.length;if(e!==r.length)return T(t,n,r);for(var i=new Array(e),o=0;o<e;o++)i[o]=q(t,n[o],r[o]);return i}(t,r.gt,e.gt)),r.c?(o.c=C(t,r.c,e.c),o.rd=B(t,r.rd,e.rd)):r.f&&(o.f=C(t,r.f,e.f),o.to=C(t,r.to,e.to)),o}}if("c"===r.t&&"g"===e.t||"c"===e.t&&"g"===r.t){var u="c"===r.t?r:e,a="g"===r.t?n({},r):n({},e),l=a.s.map((function(t){return{c:u.v,o:t.o}}));return a.s="c"===r.t?Vt(t,l,a.s):Vt(t,a.s,l),a}}return T(t,r,e)}function Vt(t,n,r){if(n.length===r.length)return n.map((function(n,e){return Gt(t,n,r[e])}));for(var e=Math.max(n.length,r.length),i=[],o=0;o<e;o++){var u=Gt(t,n[Math.min(o,n.length-1)],r[Math.min(o,r.length-1)]);i.push(u)}return i}function Gt(t,n,r){return{o:L(t,n.o,r.o||0),c:z(t,n.c,r.c||{})}}function Yt(t){return t.replace(/-fill-([0-9]+)$/,(function(t,n){return"-fill-"+(+n+1)}))}var $t={fill:Dt,"fill-opacity":Bt,stroke:Dt,"stroke-opacity":Bt,"stroke-width":qt,"stroke-dashoffset":{f:lt,i:q},"stroke-dasharray":{f:function(t){var n=arguments.length>1&&void 0!==arguments[1]?arguments[1]:" ";return t&&t.length>0&&(t=t.map((function(t){return p(t,4)}))),ft(t,n)},i:function(t,n,r){var e,i,o,u=n.length,a=r.length;if(u!==a)if(0===u)n=V(u=a,0);else if(0===a)a=u,r=V(u,0);else{var l=(o=(e=u)*(i=a)/function(t,n){for(var r;n;)r=n,n=t%n,t=r;return t||1}(e,i))<0?-o:o;n=G(n,Math.floor(l/u)),r=G(r,Math.floor(l/a)),u=a=l}for(var f=[],s=0;s<u;s++)f.push(p(B(t,n[s],r[s])));return f}},opacity:Bt,transform:function(t,n,e,i){if(!(t=function(t,n){if(!t||"object"!==r(t))return null;var e=!1;for(var i in t)t.hasOwnProperty(i)&&(t[i]&&t[i].length?(t[i].forEach((function(t){t.e&&(t.e=n(t.e))})),e=!0):delete t[i]);return e?t:null}(t,i)))return null;var o=function(r,i,o){var u=arguments.length>3&&void 0!==arguments[3]?arguments[3]:null;return t[r]?e(i,t[r],o):n&&n[r]?n[r]:u};return n&&n.a&&t.o?function(n){var r=e(n,t.o,Rt);return Tt.recomposeSelf(r,o("r",n,q,0)+r.a,o("k",n,C),o("s",n,C),o("t",n,C)).toString()}:function(t){return Tt.recomposeSelf(o("o",t,It,null),o("r",t,q,0),o("k",t,C),o("s",t,C),o("t",t,C)).toString()}},r:qt,"#size":vt,"#radius":ht,_:function(t,n){if(Array.isArray(t))for(var r=0;r<t.length;r++)this[t[r]]=n;else this[t]=n}},Ut=function(t){!function(t,n){if("function"!=typeof n&&null!==n)throw new TypeError("Super expression must either be null or a function");t.prototype=Object.create(n&&n.prototype,{constructor:{value:t,writable:!0,configurable:!0}}),n&&l(t,n)}(u,t);var n,r,i=(n=u,r=f(),function(){var t,e=a(n);if(r){var i=a(this).constructor;t=Reflect.construct(e,arguments,i)}else t=e.apply(this,arguments);return c(this,t)});function u(){return e(this,u),i.apply(this,arguments)}return o(u,null,[{key:"build",value:function(t){var n=h(a(u),"build",this).call(this,t,$t);if(!n)return null;n.el,n.options,function(t,n,r){t.play()}(n.player)}}]),u}(at);return Ut.init(),Ut}));
(function(s,i,o,w,a,b){w[o]=w[o]||{};w[o][s]=w[o][s]||[];w[o][s].push(i);})('5c7f360c',{"root":"etZQyrJb24k1","animations":[{"elements":{"etZQyrJb24k28":{"transform":{"data":{"o":{"x":1016.585022,"y":715.13501,"type":"corner"},"t":{"x":-1016.585022,"y":-715.135009}},"keys":{"r":[{"t":0,"v":0},{"t":200,"v":10},{"t":400,"v":0},{"t":600,"v":-10},{"t":800,"v":0},{"t":1000,"v":0},{"t":1500,"v":0},{"t":1700,"v":10},{"t":1900,"v":0},{"t":2100,"v":-10},{"t":2300,"v":0},{"t":2500,"v":0},{"t":3000,"v":0},{"t":3200,"v":10},{"t":3400,"v":0},{"t":3600,"v":-10},{"t":3800,"v":0},{"t":4000,"v":0},{"t":4500,"v":0},{"t":4700,"v":10},{"t":4900,"v":0},{"t":5100,"v":-10},{"t":5300,"v":0},{"t":5500,"v":0},{"t":6000,"v":0},{"t":6200,"v":10},{"t":6400,"v":0},{"t":6600,"v":-10},{"t":6800,"v":0},{"t":7000,"v":0},{"t":7500,"v":0},{"t":7700,"v":10},{"t":7900,"v":0},{"t":8100,"v":-10},{"t":8300,"v":0},{"t":8500,"v":0}]}}},"etZQyrJb24k32":{"transform":{"data":{"t":{"x":-899.859985,"y":-433.80513}},"keys":{"o":[{"t":0,"v":{"x":899.859985,"y":433.80513,"type":"corner"}},{"t":500,"v":{"x":899.859985,"y":423.711511,"type":"corner"}},{"t":900,"v":{"x":899.859985,"y":433.80513,"type":"corner"}},{"t":2500,"v":{"x":899.859985,"y":433.80513,"type":"corner"}},{"t":3000,"v":{"x":899.859985,"y":423.711511,"type":"corner"}},{"t":3400,"v":{"x":899.859985,"y":433.80513,"type":"corner"}},{"t":5000,"v":{"x":899.859985,"y":433.80513,"type":"corner"}},{"t":5500,"v":{"x":899.859985,"y":423.711511,"type":"corner"}},{"t":5900,"v":{"x":899.859985,"y":433.80513,"type":"corner"}},{"t":7500,"v":{"x":899.859985,"y":433.80513,"type":"corner"}},{"t":8000,"v":{"x":899.859985,"y":423.711511,"type":"corner"}},{"t":8400,"v":{"x":899.859985,"y":433.80513,"type":"corner"}}]}}},"etZQyrJb24k34":{"transform":{"data":{"t":{"x":-985.054992,"y":-433.809997}},"keys":{"o":[{"t":500,"v":{"x":985.054993,"y":433.809998,"type":"corner"}},{"t":1000,"v":{"x":985.054993,"y":423.81,"type":"corner"}},{"t":1400,"v":{"x":985.054993,"y":433.81,"type":"corner"}},{"t":3000,"v":{"x":985.054993,"y":433.809998,"type":"corner"}},{"t":3500,"v":{"x":985.054993,"y":423.81,"type":"corner"}},{"t":3900,"v":{"x":985.054993,"y":433.81,"type":"corner"}},{"t":5500,"v":{"x":985.054993,"y":433.809998,"type":"corner"}},{"t":6000,"v":{"x":985.054993,"y":423.81,"type":"corner"}},{"t":6400,"v":{"x":985.054993,"y":433.81,"type":"corner"}},{"t":8000,"v":{"x":985.054993,"y":433.809998,"type":"corner"}},{"t":8500,"v":{"x":985.054993,"y":423.81,"type":"corner"}},{"t":8900,"v":{"x":985.054993,"y":433.81,"type":"corner"}}]}}},"etZQyrJb24k36":{"transform":{"data":{"t":{"x":-1063.119995,"y":-433.809997}},"keys":{"o":[{"t":1000,"v":{"x":1063.119995,"y":433.81,"type":"corner"}},{"t":1500,"v":{"x":1063.119995,"y":423.81,"type":"corner"}},{"t":1900,"v":{"x":1063.119995,"y":433.81,"type":"corner"}},{"t":3500,"v":{"x":1063.119995,"y":433.81,"type":"corner"}},{"t":4000,"v":{"x":1063.119995,"y":423.81,"type":"corner"}},{"t":4400,"v":{"x":1063.119995,"y":433.81,"type":"corner"}},{"t":6000,"v":{"x":1063.119995,"y":433.81,"type":"corner"}},{"t":6500,"v":{"x":1063.119995,"y":423.81,"type":"corner"}},{"t":6900,"v":{"x":1063.119995,"y":433.81,"type":"corner"}},{"t":8500,"v":{"x":1063.119995,"y":433.81,"type":"corner"}},{"t":9000,"v":{"x":1063.119995,"y":423.81,"type":"corner"}},{"t":9400,"v":{"x":1063.119995,"y":433.81,"type":"corner"}}]}}},"etZQyrJb24k38":{"transform":{"data":{"t":{"x":-1136.625,"y":-433.809997}},"keys":{"o":[{"t":1500,"v":{"x":1136.625,"y":433.809998,"type":"corner"}},{"t":2000,"v":{"x":1136.625,"y":423.81,"type":"corner"}},{"t":2400,"v":{"x":1136.625,"y":433.81,"type":"corner"}},{"t":4000,"v":{"x":1136.625,"y":433.809998,"type":"corner"}},{"t":4500,"v":{"x":1136.625,"y":423.81,"type":"corner"}},{"t":4900,"v":{"x":1136.625,"y":433.81,"type":"corner"}},{"t":6500,"v":{"x":1136.625,"y":433.809998,"type":"corner"}},{"t":7000,"v":{"x":1136.625,"y":423.81,"type":"corner"}},{"t":7400,"v":{"x":1136.625,"y":433.81,"type":"corner"}},{"t":9000,"v":{"x":1136.625,"y":433.809998,"type":"corner"}},{"t":9500,"v":{"x":1136.625,"y":423.81,"type":"corner"}},{"t":9900,"v":{"x":1136.625,"y":433.81,"type":"corner"}}]}}},"etZQyrJb24k42":{"transform":{"data":{"o":{"x":1592.834961,"y":229.985001,"type":"corner"},"t":{"x":-1592.834961,"y":-229.985}},"keys":{"r":[{"t":0,"v":0},{"t":10000,"v":720}]}}},"etZQyrJb24k70":{"transform":{"data":{"t":{"x":-67.044998,"y":-919.445007}},"keys":{"o":[{"t":0,"v":{"x":67.044998,"y":919.445007,"type":"corner"}},{"t":2000,"v":{"x":350.074998,"y":1022.31,"type":"corner"}},{"t":4000,"v":{"x":179.885063,"y":1276.485022,"type":"corner"}},{"t":6000,"v":{"x":66.935059,"y":920.39,"type":"corner"}},{"t":8000,"v":{"x":350.074998,"y":1022.31,"type":"corner"}},{"t":10000,"v":{"x":179.885063,"y":1276.485022,"type":"corner"}}]}}},"etZQyrJb24k104":{"transform":{"data":{"t":{"x":-1950.48999,"y":-748.309998}},"keys":{"o":[{"t":0,"v":{"x":1952.594849,"y":753.25769,"type":"corner"}},{"t":2000,"v":{"x":1776.766711,"y":1097.84,"type":"corner"}},{"t":4000,"v":{"x":1947.153314,"y":1069.81,"type":"corner"}},{"t":6000,"v":{"x":1950.48999,"y":748.309998,"type":"corner"}},{"t":8000,"v":{"x":1952.594849,"y":753.25769,"type":"corner"}},{"t":10000,"v":{"x":1776.766711,"y":1097.84,"type":"corner"}}]}}},"etZQyrJb24k107":{"transform":{"data":{"t":{"x":-1724.890014,"y":-826.945007}},"keys":{"o":[{"t":0,"v":{"x":1724.890015,"y":826.945008,"type":"corner"}},{"t":700,"v":{"x":1724.890015,"y":809.41498,"type":"corner"}},{"t":1000,"v":{"x":1724.890015,"y":826.945008,"type":"corner"}},{"t":2000,"v":{"x":1724.890015,"y":826.945008,"type":"corner"}},{"t":2700,"v":{"x":1724.890015,"y":809.41498,"type":"corner"}},{"t":3000,"v":{"x":1724.890015,"y":826.945008,"type":"corner"}},{"t":4000,"v":{"x":1724.890015,"y":826.945008,"type":"corner"}},{"t":4700,"v":{"x":1724.890015,"y":809.41498,"type":"corner"}},{"t":5000,"v":{"x":1724.890015,"y":826.945008,"type":"corner"}},{"t":6000,"v":{"x":1724.890015,"y":826.945008,"type":"corner"}},{"t":6700,"v":{"x":1724.890015,"y":809.41498,"type":"corner"}},{"t":7000,"v":{"x":1724.890015,"y":826.945008,"type":"corner"}},{"t":8000,"v":{"x":1724.890015,"y":826.945008,"type":"corner"}},{"t":8700,"v":{"x":1724.890015,"y":809.41498,"type":"corner"}},{"t":9000,"v":{"x":1724.890015,"y":826.945008,"type":"corner"}}]}}}},"s":"MIDA1NGQ0N2JiZGNlY2YJPYmFjZGMyYzhjNzdMiOTM4YTg5ODk4OTg5CODU3YmJkYzJjYmJlYSmNjZGMyYzhjNzdiOTENLOGE4NTdiYzJjZGJIlY2JiYWNkYzJjOGM3VY2M3YjkzODlPODU3YJmJmYzJjNWM1N2I5MzFhhODU3YkRiYWM1Y2RPiZWNiYzdiYWNkYmU3RYjkzYmZiYWM1Y2NiZKTg1N2JCY2NjOWJlYmNViZDdiOTM4YWQ2"}],"options":"MNDAxMDg4MmY4MEs4MTQZlN2ZSODEyZjQ3MmYA3OTdjNmU3MTJmOGE/N"},'__SVGATOR_PLAYER__',window)]]></script></svg>