<svg id="efAUFnjHVqI1" xmlns="http://www.w3.org/2000/svg" xmlns:xlink="http://www.w3.org/1999/xlink" viewBox="0 0 1624.01 1195.57" shape-rendering="geometricPrecision" text-rendering="geometricPrecision"><g><g><path d="M311.22,1026.48c-94.19,0-182.29-43-241.72-118C39.919377,871.035428,19.010764,827.496881,8.28,781c-11.36-49.49-11-100.56,1-151.77C22.243893,573.591582,50.154338,522.549215,90,481.61c39.408954-40.580012,89.397669-69.308801,144.3-82.93c25.156758-6.231529,50.972984-9.407774,76.89-9.46c46.664465-.101824,92.719393,10.597322,134.56,31.26c2.264753,1.14023,4.76441,1.736039,7.3,1.74c7.823083-.106308,14.563463-5.538237,16.33-13.16c13.141038-52.335002,34.723965-102.17839,63.9-147.57c28.548038-44.499336,64.09574-84.095836,105.27-117.26C679.75411,110.97635,726.205387,84.812233,776,66.81c113.173969-40.713153,237.604016-36.805048,348,10.93c57.491609,24.962531,109.537822,60.943043,153.2,105.91c44.146187,45.233992,79.182299,98.535054,103.2,157c25.118716,60.912428,37.974138,126.181814,37.83,192.07c0,6.29-.11,14.63-.21,22.69v2.69c.41,7.48,2.15,10.46,2.9,11.41.38.49,1.17,1.5,4.19,2.07c53.085911,5.979169,102.209222,30.984881,138.28,70.39c59.196232,64.694133,76.721939,157.298481,45.26,239.15-10.92315,28.297671-27.37702,54.134326-48.4,76-20.558638,21.524513-45.175201,38.765963-72.43,50.73-28.10944,12.367287-58.490254,18.732953-89.2,18.69Z" fill="#4858e8"/><path d="M25.94,633.12c25.2-107.55,107.59-192,212.49-217.79c72.11-17.75,141.3-8.23,199.78,20.54c19.4,9.54,42.45-1.26,47.82-22.62C537.73,207.79,719.67,56,936.2,56c256.75,0,464.89,213.41,464.89,476.66c0,7-.13,16.54-.25,25.7.91,19.69,9.29,28,21.8,30.14c100.6,10.74,179.65,95.77,184,200.64c5,120.42-90.55,220.19-208.1,220.19h-1087.32C125.08,1009.34,-20.66,832,25.94,633.12Z" fill="#2c3967"/><path d="M236.4,1138.17c.043764,8.818365,7.181635,15.956236,16,16h867.3c8.820627-.038339,15.961661-7.179373,16-16l7.3-498.41c0-8.81-10.38-26-29.41-24.72L266,593.1c-11.061474-.287524-21.757406,3.971185-29.593964,11.783177s-12.128828,18.494501-11.876036,29.556823Z" fill="#34447d"/><path d="M252.24,1122.8c.010965,8.37848,6.791558,15.172483,15.17,15.2h831.41c8.384631-.016536,15.174504-6.815355,15.18-15.2l6.81-452.46c-.8-27.23-24.67-37-39.14-36.44L269.3,612.11c-7.775426-.204833-15.294592,2.788334-20.80211,8.280733s-8.521347,13.003307-8.33789,20.779267Z" fill="#27325b"/><path d="M1105,907.85v0c-.59145-.007903-1.15553-.250463-1.568121-.674307s-.639889-.994245-.631879-1.585693l.53-36.69c.016451-1.218246,1.011656-2.195599,2.23-2.19v0c.591389.002579,1.157073.242078,1.570527.664929s.640183.993773.629473,1.585071l-.54,36.7c-.021733,1.212066-1.007751,2.184759-2.22,2.19Z" fill="#fff"/><path d="M1106.33,817.93v0c-.590558-.007884-1.153632-.250767-1.564637-.674909s-.636057-.994577-.625363-1.585091l2.06-140.54c0-8.34-2.57-15-7.53-19.76-9.26-8.87-24-8.42-24.58-8.39l-259.65-7c-1.223845-.038114-2.188047-1.055883-2.16-2.28-.012744-.598802.22721-1.175301.661059-1.588219s1.0215-.624095,1.618941-.581781l259.5,7c1.61-.1,17.26-.37,27.68,9.62c5.87,5.61,8.86,13.35,8.91,23l-2.07,140.58c-.016467,1.227695-1.022245,2.211122-2.25,2.2Z" fill="#f18359"/><rect width="1022.51" height="43.79" rx="3.23" ry="3.23" transform="matrix(-1 0 0-1 1188.55 1195.56)" fill="#34447d"/><path d="M612.94,1115.9h-320.11c-11.802325,0-21.37-9.567675-21.37-21.37v-417.85c-.001562-5.808267,2.362264-11.366715,6.54688-15.394738s9.829134-6.178239,15.63312-5.955262l320.12,12.25c11.473168.440567,20.54771,9.868377,20.55,21.35v405.6c0,5.667676-2.251476,11.10322-6.259128,15.110872s-9.443196,6.259128-15.110872,6.259128Z" fill="#34447d"/><rect width="218.13" height="28.18" rx="3.05" ry="3.05" transform="translate(334.18 819.24)" fill="#2c3967"/><rect id="efAUFnjHVqI13" width="218.13" height="28.18" rx="3.05" ry="3.05" transform="translate(332.896238 819.24)" fill="#2c3967"/><rect id="efAUFnjHVqI14" width="218.13" height="28.18" rx="3.05" ry="3.05" transform="translate(335.89 819.190001)" fill="#2c3967"/><rect id="efAUFnjHVqI15" width="218.13" height="28.18" rx="3.05" ry="3.05" transform="translate(336.32 819.190001)" fill="#2c3967"/><rect width="313.61" height="28.18" rx="3.05" ry="3.05" transform="translate(703.73 819.21)" fill="#2c3967"/><rect width="313.61" height="28.18" rx="3.05" ry="3.05" transform="translate(704.7 864.24)" fill="#2c3967"/><rect width="185.83" height="28.18" rx="3.05" ry="3.05" transform="translate(704.7 910.19)" fill="#2c3967"/><g opacity="0.51"><path d="M870.21,714.18h-4.78c-2.369302,0-4.29-1.920698-4.29-4.29v-16.33c-.016535-5.836976-4.753-10.560023-10.59-10.56h-29.55c-2.80599,0-5.497055,1.114675-7.48119,3.09881s-3.09881,4.6752-3.09881,7.48119v16.33c0,2.369302-1.920698,4.29-4.29,4.29h-4.83c-2.370925.000006-4.294486-1.919082-4.3-4.29v-16.35c.027574-13.235304,10.764668-23.950029,24-23.95h29.6c13.235332-.000029,23.972426,10.714696,24,23.95v16.33c.000314,1.155319-.465368,2.26193-1.291659,3.069398s-1.943336,1.247533-3.098341,1.220602Z" fill="#2c3967"/><path d="M876.13,718h-80.75c-4.970563,0-9,4.029437-9,9v62c0,4.970563,4.029437,9,9,9h80.75c4.970563,0,9-4.029437,9-9v-62c0-4.970563-4.029437-9-9-9Zm-28.82,59.89c.23924.989799.011015,2.034642-.619147,2.834538s-1.592552,1.26636-2.610853,1.265462h-16.65c-1.018301.000898-1.980692-.465566-2.610853-1.265462s-.858387-1.844739-.619147-2.834538l3.89-16.17c-5.805229-3.451069-8.588343-10.356113-6.798846-16.868276s7.710287-11.025435,14.463846-11.025435s12.674348,4.513272,14.463846,11.025435-.993617,13.417207-6.798846,16.868276Z" fill="#2c3967"/></g><path d="M635.15,221.15c-.192339.263992-.446407.47686-.74.62-.461336.218452-.99067.244208-1.471035.071577s-.872216-.529438-1.088965-.991577c-1.09-2.31-2.22-4.59-3.37-6.85-.39675-.93291-.004098-2.013767.89893-2.474496s2.008598-.14427,2.53107.724496q1.76,3.45,3.41,7c.284215.618678.219532,1.341604-.17,1.9Z" fill="#91b3fa"/><path d="M611.62,481.18c-.66.93-1.33,1.84-2,2.76-.624082.858803-1.826197,1.049082-2.685.425s-1.049082-1.826197-.425-2.685v0c3-4,5.82-8.13,8.53-12.3.604069-.853133,1.763236-1.097169,2.66-.56.427454.278097.726715.714821.831771,1.213838s.007276,1.019328-.271771,1.446162c-2.12,3.25-4.36,6.52-6.64,9.7Zm-17.44,21.75c0,.06-.09.11-.13.16-3.37,3.77-6.89,7.48-10.46,11-.483493.495891-1.196584.692957-1.866103.515705s-1.191687-.701346-1.366471-1.371514.024905-1.382527.522574-1.864191c3.51-3.5,7-7.15,10.3-10.86.662742-.828427,1.871573-.962742,2.7-.3s.962742,1.871573.3,2.7Zm36.42-52.56c-.593399.797228-1.697094,1.009864-2.544209.490161s-1.15763-1.599952-.715791-2.490161c2.3-4.4,4.51-8.93,6.55-13.46.436305-.966498,1.573502-1.396305,2.54-.96s1.396305,1.573502.96,2.54c-2.07,4.6-4.3,9.19-6.64,13.66-.04571.076168-.095793.149625-.15.22Zm-65,79.93c-.094379.139495-.208964.26419-.34.37-3.9,3.2-7.94,6.33-12,9.29-.858803.624082-2.060918.433803-2.685-.425s-.433803-2.060918.425-2.685c4-2.92,8-6,11.84-9.15.744439-.609903,1.825401-.574452,2.52828.082916s.810501,1.733544.25172,2.517084ZM646.2,414c-.561387.762602-1.593123,1.00527-2.435582.572858s-1.246759-1.412161-.954418-2.312858c1.61-4.71,3.09-9.52,4.41-14.31.349254-.931279,1.349048-1.444636,2.309389-1.185784s1.566702,1.205135,1.400611,2.185784c-1.34,4.85-2.85,9.74-4.47,14.52-.057246.189639-.145068.36866-.26.53Zm-113,139c-.152769.219166-.350495.403255-.58.54-4.35,2.57-8.83,5-13.3,7.33-.944407.486011-2.103989.114407-2.59-.83s-.114407-2.103989.83-2.59c4.41-2.26,8.82-4.69,13.1-7.23.916985-.539876,2.097934-.235693,2.64.68.3925.655051.357105,1.480932-.09,2.1ZM656,375.69c-.52808.717544-1.478692.980379-2.300375.636032s-1.300888-1.206383-1.159625-2.086032c.86-4.89,1.58-9.88,2.15-14.82.121503-1.054864,1.075136-1.811503,2.13-1.69s1.811503,1.075136,1.69,2.13c-.58,5-1.31,10.07-2.18,15-.043586.298664-.156612.582943-.33.83ZM497.7,570.39c-.216371.29721-.510474.529032-.85.67-4.69,1.86-9.49,3.61-14.28,5.19-1.00792.331371-2.093629-.21708-2.425-1.225s.21708-2.093629,1.225-2.425c4.71-1.56,9.44-3.28,14.06-5.12.794248-.319693,1.704193-.074868,2.230796.600204s.542594,1.617241.039204,2.309796ZM659.79,336.31c-.494567.679133-1.371647.960318-2.168892.695331s-1.331489-1.015265-1.321108-1.855331c.09-5,0-10-.16-15-.041421-1.06591.78909-1.963579,1.855-2.005s1.963579.78909,2.005,1.855c.2,5,.26,10.16.17,15.2-.012853.399668-.145216.786308-.38,1.11ZM460,582.12c-.271576.3805-.673894.647525-1.13.75-4.91,1.12-9.92,2.11-14.91,3-1.016425.111122-1.94313-.58975-2.112945-1.59803s.476195-1.974031,1.472945-2.20197c4.92-.82,9.86-1.8,14.69-2.9.780239-.176839,1.588691.146026,2.032466.811689s.430862,1.536106-.032466,2.188311ZM657.49,296.79c-.30525.431981-.775971.718035-1.3.79-1.054501.142219-2.025177-.595853-2.17-1.65-.66-4.94-1.48-9.91-2.42-14.78-.201584-1.041057.478943-2.048416,1.52-2.25s2.048416.478943,2.25,1.52c1,4.94,1.79,10,2.47,15c.059839.484436-.065137.973626-.35,1.37ZM420.82,588c-.33419.465819-.858173.758956-1.43.8-5,.36-10.13.58-15.18.65-1.060387,0-1.92-.859613-1.92-1.92s.859613-1.92,1.92-1.92c5-.07,10-.29,15-.65.5085-.038464,1.011266.128013,1.396322.462354s.620422.808779.653678,1.317646c.011438.459532-.144989.907482-.44,1.26ZM649.24,258.11c-.249249.339264-.599197.591227-1,.72-.489335.145604-1.01651.090323-1.464996-.153623s-.781346-.656468-.925004-1.146377c-1.41-4.78-3-9.57-4.65-14.23-.264867-.652537-.151236-1.397712.296081-1.941648s1.156523-.799329,1.847926-.665458s1.254029.635518,1.465993,1.307106c1.71,4.73,3.3,9.59,4.73,14.44.163177.57313.052452,1.189498-.3,1.67Zm-268,329.67c-.394978.547901-1.046495.850932-1.72.8-5.05-.42-10.13-1-15.11-1.69-1.052102-.149117-1.784117-1.122898-1.635-2.175s1.122898-1.784117,2.175-1.635c4.9.7,9.91,1.26,14.88,1.66c1.059473.090137,1.846467,1.020221,1.76,2.08-.025607.343055-.139268.673706-.33.96Zm-39.06-6.26c-.454952.62975-1.243146.925323-2,.75-4.92-1.18-9.85-2.53-14.66-4-1.016204-.309279-1.589279-1.383796-1.28-2.4s1.383796-1.589279,2.4-1.28c4.74,1.44,9.6,2.76,14.44,3.93.496433.118537.92524.429855,1.191686.865175s.348601.958813.228314,1.454825c-.053234.244541-.15527.475825-.3.68Z" fill="#91b3fa"/><path d="M304.47,569.27c-.521336.726055-1.472999.999141-2.3.66q-3.59-1.48-7.11-3.06c-.96926-.433544-1.403544-1.57074-.97-2.54s1.57074-1.403544,2.54-.97q3.48,1.56,7,3c.966537.425041,1.412107,1.547878,1,2.52-.037516.135941-.091235.26688-.16.39Z" fill="#91b3fa"/><path d="M164.08,428.45c-.207186.29548-.495445.524697-.83.66-.473247.194121-1.00439.191377-1.475606-.007622s-.843545-.577803-1.034394-1.052378c-1-2.38-1.91-4.79-2.81-7.21-.372792-.994113.130887-2.102208,1.125-2.475s2.102208.130887,2.475,1.125c.89,2.39,1.82,4.76,2.77,7.11.25478.61277.171383,1.314071-.22,1.85Z" fill="#91b3fa"/><path d="M487.39,88.24c-.495486.697407-1.392612.982856-2.2.7-4.93-1.73-10-3.32-15-4.74-.692687-.161258-1.240555-.690406-1.425788-1.377071s.022189-1.419558.539803-1.907304s1.261527-.651295,1.935985-.425625c5.1,1.44,10.23,3.06,15.23,4.82.481841.167768.877093.52042,1.098487.980096s.250725.988568.081513,1.469904c-.062042.172161-.149694.333981-.26.48ZM447.15,77.73c-.428577.599942-1.164188.899636-1.89.77-5.16-.9-10.4-1.66-15.58-2.24-1.010039-.170548-1.710899-1.100452-1.596613-2.118393s1.003901-1.769279,2.026613-1.711607c5.26.6,10.58,1.36,15.81,2.28.50314.08776.950579.372369,1.243342.790869s.406717.936397.316658,1.439131c-.046715.285514-.159741.556093-.33.79Zm-41.41-3.85c-.363745.509475-.954057.808367-1.58.8-5.22-.06-10.52,0-15.74.3-1.060387.052467-1.962533-.764613-2.015-1.825s.764613-1.962533,1.825-2.015c5.3-.26,10.67-.37,16-.31.519905.004963,1.015569.220566,1.37367.597514s.548017.88301.52633,1.402486c-.021537.381238-.157444.747141-.39,1.05ZM153.53,396.72c-.266785.360846-.647175.621484-1.08.74-1.026723.26677-2.07629-.345105-2.35-1.37-1.33-5.12-2.53-10.36-3.56-15.57-.207107-1.041057.468943-2.052893,1.51-2.26s2.052893.468943,2.26,1.51c1,5.14,2.2,10.31,3.51,15.34.146807.55312.040579,1.142869-.29,1.61Zm210.72-320c-.304153.421833-.765671.703071-1.28.78-5.15.76-10.36,1.71-15.48,2.79-1.038295.220914-2.059086-.441705-2.28-1.48s.441705-2.059086,1.48-2.28c5.2-1.1,10.49-2.06,15.71-2.84.754801-.100682,1.498243.251866,1.897939.900021s.380918,1.470738-.047939,2.099979Zm-218,279c-.321301.455179-.825336.747373-1.38.8-1.05484.093119-1.989474-.676842-2.1-1.73-.5-5.29-.86-10.66-1-15.95-.03866-1.060387.789613-1.95134,1.85-1.99s1.95134.789613,1.99,1.85c.19,5.22.53,10.5,1,15.72.059698.478164-.065501.961073-.35,1.35ZM323.76,86.16c-.244041.342352-.59633.592477-1,.71-5,1.59-10,3.36-14.82,5.25-.98859.386599-2.103401-.10141-2.49-1.09s.10141-2.103401,1.09-2.49c4.94-1.92,10-3.72,15.05-5.33c1.007745-.32099,2.085309.233441,2.41,1.24.192067.576145.103247,1.208987-.24,1.71Zm-178.15,228c-.382732.54616-1.024976.850181-1.69.8-1.040943-.069632-1.835796-.957737-1.79-2c.35-5.29.86-10.64,1.54-15.91.13531-1.052102,1.097898-1.79531,2.15-1.66s1.79531,1.097898,1.66,2.15c-.66,5.19-1.17,10.46-1.51,15.67-.029254.347058-.153838.679283-.36.96ZM285.32,102c-.178882.24579-.41144.447568-.68.59-4.65,2.37-9.28,4.92-13.78,7.59-.914031.552285-2.102715.259031-2.655-.655s-.259031-2.102715.655-2.655c4.56-2.71,9.27-5.3,14-7.71.791607-.408532,1.760245-.21892,2.339387.457937s.61666,1.663165.090613,2.382063ZM151.69,273c-.528852.756175-1.520831,1.029192-2.362131.650118s-1.293953-1.303016-1.077869-2.200118c1.2-5.16,2.58-10.35,4.1-15.45.35697-.948347,1.38656-1.459143,2.357636-1.169662s1.552926,1.280652,1.332364,2.269662c-1.5,5-2.86,10.14-4,15.22-.071839.24707-.190678.477958-.35.68ZM250,123.87c-.116297.164711-.258071.30986-.42.43-4.2,3.09-8.37,6.36-12.37,9.72-.828427.682072-2.052928.563427-2.735-.265s-.563427-2.052928.265-2.735c4.07-3.4,8.29-6.72,12.56-9.86.761108-.568552,1.823581-.495001,2.499089.173s.760923,1.729587.200911,2.497ZM164.4,233.41c-.564181.80275-1.642839,1.050969-2.501148.575558s-1.220076-1.521469-.838852-2.425558c2-4.92,4.22-9.82,6.54-14.58.300103-.618069.907146-1.029086,1.592461-1.078224s1.344788.271068,1.73.84.437642,1.300155.137539,1.918224c-2.28,4.69-4.45,9.52-6.44,14.36-.069967.14039-.157319.271419-.26.39Zm54.23-82.26c-.057827.081054-.121319.157912-.19.23-3.66,3.73-7.24,7.63-10.66,11.58-.695879.803574-1.911426.890879-2.715.195s-.890879-1.911426-.195-2.715c3.47-4,7.11-8,10.82-11.75.696969-.74033,1.850263-.808925,2.630074-.15643s.915714,1.799806.309926,2.61643ZM183.3,196.36c-.588183.883656-1.781344,1.123183-2.665.535s-1.123183-1.781344-.535-2.665c2.77-4.51,5.73-9,8.79-13.34v0c.642323-.786726,1.784467-.941029,2.612525-.35295s1.058659,1.717294.527475,2.58295c-3,4.28-5.93,8.7-8.67,13.14Z" fill="#91b3fa"/><path d="M518.26,101.39c-.555849.765762-1.584888,1.015611-2.43.59-2.26-1.14-4.55-2.26-6.86-3.33-.6702-.261548-1.139297-.874154-1.217044-1.589368s.248763-1.414305.84711-1.81375s1.369201-.432933,1.999934-.086882q3.51,1.65,7,3.39c.454999.229253.800222.629951.959648,1.113856s.119982,1.011335-.109648,1.466144c-.05707.091074-.120565.177961-.19.26Z" fill="#91b3fa"/><g id="efAUFnjHVqI28" transform="translate(0 0.000001)"><path d="M511.4,166.18c-1.012456-.842727-2.445104-.95878-3.58-.29l-32.27,19.29c-15.866097-8.06283-32.939691-13.4872-50.55-16.06l-15.23-34.34c-.531014-1.209499-1.774146-1.945723-3.09-1.83l-44.93,3.85c-1.311203.113054-2.406913,1.044206-2.73,2.32l-9.17,36.44c-16.933904,5.523642-32.850593,13.779242-47.12,24.44l-35.08-13.53c-1.23027-.470166-2.623337-.108851-3.47.9l-29.05,34.49c-.852765,1.004462-.969464,2.441071-.29,3.57l19.29,32.27c-8.066206,15.872595-13.4939,32.952773-16.07,50.57L203.72,323.5c-1.203441.536601-1.934212,1.777306-1.82,3.09l3.84,44.93c.117337,1.312791,1.051951,2.407853,2.33,2.73l36.43,9.17c5.526706,16.924522,13.778498,32.833626,24.43,47.1L255.41,465.6c-.477266,1.231014-.119668,2.629265.89,3.48l34.49,29.05c1.012282.845355,2.448597.957693,3.58.28l32.27-19.29c15.866496,8.072464,32.944435,13.500519,50.56,16.07l15.24,34.34c.529806,1.20578,1.767666,1.941262,3.08,1.83l44.93-3.85c1.31378-.111928,2.412998-1.042653,2.74-2.32l9.17-36.44c16.924452-5.526871,32.833531-13.77865,47.1-24.43l35.08,13.52c1.227798.478882,2.624259.120712,3.47-.89l29-34.49c.846833-1.006909.963215-2.439614.29-3.57l-19.29-32.27c8.09053-15.883547,13.532179-32.982013,16.11-50.62l34.35-15.23c1.203441-.536601,1.934212-1.777306,1.82-3.09l-3.85-44.93c-.110104-1.312432-1.042518-2.409626-2.32-2.73l-36.43-9.17c-5.530835-16.92279-13.782292-32.831249-24.43-47.1l13.52-35.08c.467799-1.231564.111627-2.624238-.89-3.48Z" fill="#34447d"/><path d="M435.93,357.25c-13.436915,18.705238-39.225899,23.502194-58.490038,10.87961s-25.16237-38.182187-13.377332-57.969797s37.068256-26.776272,57.342947-15.850453s28.34093,35.886154,18.294423,56.61064c-1.07544,2.212793-2.336627,4.330383-3.77,6.33Zm-65-46.82c-1.240073,1.727421-2.330685,3.557375-3.26,5.47-7.739236,15.936881-3.147899,35.121181,10.967812,45.827565s33.827475,9.955327,47.087575-1.794128s16.378326-31.227505,7.448837-46.529275-27.421669-22.168868-44.174224-16.404162v0c-7.27353,2.483187-13.588298,7.179052-18.06,13.43Z" opacity="0.7" fill="#fff"/><path d="M491.41,397.89q-2.57,3.58-5.44,7c-37.526057,44.557278-102.992376,52.797702-150.39,18.93q-3.58-2.58-7-5.45c-37.874482-31.931445-50.198108-84.99124-30.274263-130.346878s67.336568-72.174424,116.474263-65.883122l-.73,5.72c-7.479377-.948612-15.03816-1.102805-22.55-.46-42.705129,3.642373-79.007163,32.659829-91.968182,73.51331s-.026635,85.491494,32.768182,113.08669q3.24,2.73,6.64,5.16c42.211257,30.192172,100.079848,25.360589,136.699946-11.413395s41.20897-94.662327,10.840054-136.746605l4.68-3.38c28.008328,38.884767,28.108899,91.298036.25,130.29Z" opacity="0.7" fill="#fff"/></g><path d="M812.9,81.65c-.402312.561282-1.075056.863272-1.761824.790872s-1.28175-.508037-1.558176-1.140872c-1-2.32-2.11-4.63-3.25-6.85-.37192-.618428-.367758-1.39268.01079-2.007074s1.068233-.966273,1.787851-.912168s1.348934.505154,1.631359,1.169242c1.17,2.29,2.29,4.66,3.34,7c.301962.636476.224876,1.388071-.2,1.95Z" fill="#91b3fa"/><path d="M792.86,220.05l-.09.12c-3.369621,4.005474-6.965488,7.815024-10.77,11.41-.78355.668727-1.954167.60423-2.659507-.146531s-.696754-1.923121.019507-2.663469c3.718986-3.485779,7.231611-7.185388,10.52-11.08.685884-.698861,1.787802-.769597,2.557413-.16417s.96031,1.693022.442587,2.52417Zm14.33-20.68c-.638127.687695-1.678346.816906-2.465328.306231s-1.09275-1.513301-.724672-2.376231c2.492363-4.442561,4.722836-9.027051,6.68-13.73.405929-.980305,1.529695-1.445929,2.51-1.04s1.445929,1.529695,1.04,2.51c-2.01633,4.844699-4.310132,9.569195-6.87,14.15Zm-44.9,47.32c-.146577.202226-.329735.375209-.54.51-4.432649,2.793857-9.023701,5.328117-13.75,7.59-.958214.458396-2.106604.053214-2.565-.905s-.053214-2.106604.905-2.565c4.601075-2.195076,9.068817-4.659346,13.38-7.38.779132-.476089,1.785286-.341043,2.411302.323646s.700581,1.677124.178698,2.426354Zm59.07-85.32c-.534587.727486-1.502055.987188-2.329092.62521s-1.292645-1.248911-1.120908-2.13521c1.02068-4.993214,1.748588-10.041826,2.18-15.12.088366-1.057625,1.017375-1.843366,2.075-1.755s1.843366,1.017375,1.755,2.075c-.435941,5.229976-1.18394,10.429238-2.24,15.57-.052502.266718-.161625.519065-.32.74Zm-96.29,101.4c-.26338.364357-.64513.625926-1.08.74-5.078767,1.292424-10.227132,2.294052-15.42,3-1.029624.09898-1.954221-.631353-2.096371-1.655909s.548692-1.979021,1.566371-2.164091c5.054474-.70516,10.063116-1.706888,15-3c.780239-.176839,1.588691.146026,2.032466.811689s.430862,1.536106-.032466,2.188311Zm98.21-141.91c-.314807.445924-.807034.733968-1.35.79-.508202.055996-1.01775-.093015-1.415706-.414008s-.651449-.787452-.704294-1.295992l-.17-1.51c-.541887-4.559869-1.316228-9.089098-2.32-13.57-.23196-1.035534.419466-2.06304,1.455-2.295s2.06304.419466,2.295,1.455c1.043846,4.621086,1.841636,9.294328,2.39,14l.17,1.55c.046243.458435-.078392.917804-.35,1.29Zm-138.56,146c-.378338.535103-1.005729.83746-1.66.8-5.2401-.272793-10.459324-.857159-15.63-1.75-1.04658-.179493-1.749493-1.17342-1.57-2.22s1.17342-1.749493,2.22-1.57c5.02271.860855,10.09129,1.428483,15.18,1.7.688397.044799,1.299846.455465,1.601723,1.075761s.247776,1.354864-.141723,1.924239Z" fill="#91b3fa"/><path d="M645,258.45c-.512335.706245-1.434774.980927-2.25.67-2.42-.92-4.84-1.92-7.21-3-.96926-.436305-1.401305-1.57574-.965-2.545s1.57574-1.401305,2.545-.965c2.29,1,4.65,2,7,2.9.985487.389713,1.468871,1.50418,1.08,2.49-.05037.156725-.117421.30759-.2.45Z" fill="#91b3fa"/><path d="M569.38,184.73c-.211118.295807-.502642.524862-.84.66-.985813.39839-2.108159-.075588-2.51-1.06-1-2.4-1.89-4.86-2.73-7.31-.342417-1.005158.194842-2.097583,1.2-2.44s2.097583.194842,2.44,1.2c.81,2.38,1.71,4.77,2.66,7.11.249038.610211.165881,1.305703-.22,1.84Z" fill="#91b3fa"/><path d="M720.76,5.77c-.454094.63128-1.241266.930405-2,.76-4.88725-1.10415-9.836051-1.915593-14.82-2.43-.999172-.174603-1.692692-1.092841-1.587331-2.101666s.973644-1.763952,1.987331-1.728334c5.137365.537358,10.239257,1.372091,15.28,2.5.497635.112098.930207.417617,1.202246.849128s.361182.953538.247754,1.450872c-.059785.250284-.164847.487522-.31.7ZM681,3.05c-.329577.454396-.840654.74279-1.4.79-1.51.13-3,.28-4.54.46-3.46.41-6.94,1-10.35,1.64-1.013226.141408-1.960762-.532375-2.159866-1.53586s.419406-1.987991,1.409866-2.24414c3.46-.7,7.04-1.26,10.6-1.68c1.56-.19,3.11-.34,4.67-.47.506958-.044259,1.010618.115617,1.399237.44416s.630062.798584.670763,1.30584c.057057.452018-.049345.909543-.3,1.29ZM561,153.44c-.30237.428563-.770021.711329-1.29.78-.505439.074241-1.019626-.056009-1.428766-.361926s-.679496-.762273-.751234-1.268074c-.15-1.07-.29-2.14-.41-3.21-.48-4-.78-8.15-.89-12.21.041822-1.014775.862956-1.823503,1.87825-1.849875s1.877304.73864,1.97175,1.749875c.1,3.94.39,7.93.86,11.86.12,1,.26,2.08.4,3.12.052961.497761-.090568.996525-.4,1.39ZM642.13,12.26c-.214979.292093-.505338.520231-.84.66-4.644132,1.882288-9.175087,4.032571-13.57,6.44-.908054.374199-1.952311.006795-2.426013-.853549s-.225761-1.939226.576013-2.506451c4.538122-2.471815,9.212232-4.68534,14-6.63.794827-.317959,1.704122-.074346,2.233528.598392s.552396,1.613821.056472,2.311608ZM561.31,113.54c-.517739.731151-1.472317,1.007055-2.300288.664858s-1.309231-1.211524-1.159712-2.094858c.826992-5.097379,1.948875-10.142514,3.36-15.11.143638-.699532.663651-1.261547,1.349943-1.458979s1.425457.002341,1.918857.51861.659503,1.263719.4312,1.940369c-1.372265,4.822779-2.464092,9.720978-3.27,14.67-.035362.31307-.148838.612233-.33.87Zm46.55-80.88c-.099901.135033-.213875.259064-.34.37-3.860371,3.184945-7.533178,6.590639-11,10.2-.35357.368214-.839219.580467-1.349617.589849s-1.003519-.184878-1.370383-.539849c-.368523-.354439-.576783-.843692-.576783-1.355s.20826-1.000561.576783-1.355c3.578188-3.718567,7.36781-7.227724,11.35-10.51.742443-.629766,1.83872-.604166,2.550958.059568s.814967,1.755488.239042,2.540432ZM573.61,75.59c-.555849.765762-1.584888,1.015611-2.43.59-.456935-.227227-.803939-.627858-.963623-1.112547s-.118768-1.013122.113623-1.467453c2.317659-4.609171,4.89514-9.083037,7.72-13.4.376915-.575198,1.032063-.90562,1.718657-.866801s1.300322.440983,1.61,1.055.268258,1.346603-.108657,1.921801c-2.750372,4.185846-5.257842,8.52634-7.51,13-.038807.098911-.089156.192895-.15.28Z" fill="#91b3fa"/><path d="M751.31,16.73c-.555849.765762-1.584888,1.015611-2.43.59-2.24-1.13-4.55-2.21-6.86-3.22-.678226-.243132-1.164557-.843796-1.261253-1.557766s.212345-1.422356.801468-1.83713s1.360227-.466869,1.999785-.135104c2.37,1,4.75,2.15,7.06,3.32.454999.229253.800222.629951.959648,1.113856s.119982,1.011335-.109648,1.466144c-.047412.090174-.100867.177039-.16.26Z" fill="#91b3fa"/><g id="efAUFnjHVqI38"><path d="M747,49.46c-.517586-.432493-1.252649-.488727-1.83-.14l-16.58,9.91c-8.158684-4.151671-16.941147-6.941791-26-8.26l-7.83-17.64c-.273774-.616922-.907205-.993774-1.58-.94l-23.08,2c-.674413.058449-1.239062.534996-1.41,1.19L664,54.28c-8.691448,2.841724-16.86182,7.08059-24.19,12.55l-18-6.95c-.633851-.241616-1.351172-.057277-1.79.46L605.11,78.06c-.435686.515368-.495948,1.250563-.15,1.83l9.91,16.58c-4.14422,8.160924-6.930743,16.942693-8.25,26L589,130.27c-.620617.275004-.9982.913682-.94,1.59l2,23.08c.05061.675547.53143,1.241218,1.19,1.4l18.72,4.71c2.836001,8.694999,7.071641,16.869041,12.54,24.2l-6.94,18c-.240005.630827-.055589,1.344439.46,1.78L633.7,220c.517301.440379,1.258202.500778,1.84.15l16.58-9.91c8.157445,4.152714,16.940639,6.939689,26,8.25l7.83,17.65c.274573.615111.908934.9885,1.58.93l23.08-2c.677212-.059819,1.242675-.541064,1.41-1.2l4.71-18.71c8.691448-2.841724,16.86182-7.08059,24.19-12.55l18,6.94c.631773.243944,1.348699.063711,1.79-.45l14.92-17.72c.428762-.522062.488544-1.255386.15-1.84L765.86,173c4.142897-8.161466,6.92935-16.943013,8.25-26l17.64-7.82c.618508-.277371.99511-.91439.94-1.59l-2-23.08c-.05665-.673051-.534867-1.23566-1.19-1.4l-18.72-4.72c-2.83759-8.693182-7.076792-16.864201-12.55-24.19l7-18c.243185-.630647.058284-1.346137-.46-1.78Z" fill="#34447d"/><path d="M709.4,148.43c-7.339324,10.192561-21.406223,12.792679-31.904103,5.897137s-13.698761-20.838017-7.259685-31.621906s20.231483-14.579647,31.281547-8.608881s15.433716,19.587736,9.942241,30.88365c-.592064,1.203911-1.280998,2.35771-2.06,3.45ZM676,124.4c-5.069252,7.073288-4.226548,16.785821,1.985201,22.880318s15.938576,6.751984,22.91399,1.548878s9.117523-14.71388,5.046278-22.405022-13.140736-11.267145-21.365469-8.424174v0c-3.4551,1.190798-6.453826,3.42761-8.58,6.4Z" opacity="0.7" fill="#fff"/><path d="M737.9,169.3q-1.35,1.89-2.86,3.69c-17.136423,20.345496-45.800504,26.646705-69.889774,15.363832s-37.598734-37.337224-32.93925-63.526637s26.326393-45.985368,52.829024-48.267195l.76-.07c3.551959-.252066,7.119279-.188484,10.66.19v0h.15.28.15l.47.06-.73,5.72c-3.741547-.471797-7.522331-.548888-11.28-.23v0c-23.975044,2.057392-43.555302,20.008108-47.682959,43.714606s8.233291,47.218658,30.102086,57.258151s47.756562,4.086496,63.043367-14.497078s16.135793-45.133412,2.067506-64.655679l4.68-3.38c14.731463,20.463973,14.783752,48.040309.13,68.56Z" opacity="0.7" fill="#fff"/></g><path d="M832.73,250.33c4.743583-4.442516,11.156949-6.650635,17.63-6.07c69.23,6.23,198.4-27.12,282.82-113.5c5.86-6,16.54-2.61,23.26,2.41c93.89,70.18,249.52,84.71,303.54,87.68c11.179992.619332,20.252207,9.271851,21.4,20.41c49.13,474.53-259.83,646.48-323.91,676.83-7.018009,3.316825-15.24021,2.84225-21.83-1.26C816.28,717.91,829.94,459.2,825.52,267.52c-.15326-6.4951,2.469227-12.747604,7.21-17.19Z" fill="#f1835a"/><path d="M1148.83,883.63c-1.450453.002263-2.870695-.414433-4.09-1.2-122.44-78.26-202.24-171.84-244-286-37.27-102-39.09-205.89-40.7-297.54l-.22-12.22c-.045246-2.02196.734609-3.975208,2.16-5.41c1.426743-1.463701,3.38599-2.286369,5.43-2.28v0c75.83,0,189.64-33.48,273.11-108.27c2.563159-2.303739,6.36101-2.579423,9.23-.67c91.72,60.86,222.55,78.58,292.37,83.72c3.716224.249381,6.691793,3.178192,7,6.89c16.23,185.15-22.28,341.72-114.46,465.35-68.85,92.34-150.49,140.45-182.39,156.85v0c-1.069879.525472-2.24811.792629-3.44.78Zm2-3.6l.71,1.39-.71-1.39c31.71-16.3,112.86-64.12,181.32-155.93c91.71-123,130-278.86,113.86-463.23-.185909-2.179556-1.928332-3.900782-4.11-4.06-70.13-5.17-201.55-23-293.86-84.23-1.691752-1.119469-3.92524-.959347-5.44.39C1058.55,248.32,943.87,282,867.52,282v0c-1.235059-.018438-2.42386.469368-3.29,1.35-.828219.844871-1.282227,1.987097-1.26,3.17l.22,12.22c1.6,91.41,3.42,195,40.51,296.53c41.48,113.55,120.87,206.62,242.71,284.5c1.337319.861223,3.031019.948763,4.45.23Z" opacity="0.61" fill="#fff"/><g id="efAUFnjHVqI44" transform="translate(.000001 0.000007)"><path d="M1260.47,429.45h-14.47c-7.179702,0-13-5.820298-13-13v-49.34c0-17.673112-14.326888-32-32-32h-89.49c-17.673112,0-32,14.326888-32,32v49.36c0,7.179702-5.820298,13-13,13h-14.44c-7.179702,0-13-5.820298-13-13v-49.36c0-19.204326,7.628889-37.622093,21.208398-51.201602s31.997276-21.208398,51.201602-21.208398h89.49c19.203407,0,37.620146,7.629208,51.198067,21.209004s21.204585,31.99759,21.201933,51.200996v49.36c-.010763,7.133031-5.767172,12.925139-12.9,12.98Z" opacity="0.61" fill="#fff"/></g><path id="efAUFnjHVqI46" d="M1278.37,441.11h-244.13c-7.183795-.002653-14.074268,2.849239-19.154916,7.928012s-7.935084,11.968193-7.935084,19.151988v187.36c0,7.184714,2.854117,14.075162,7.934477,19.155522s11.970808,7.934478,19.155523,7.934478h244.13c14.961394,0,27.09-12.128606,27.09-27.09v-187.36c0-7.183795-2.854435-14.073215-7.935084-19.151988s-11.971121-7.930665-19.154916-7.928012Zm-87.14,181.08c.732953,2.990991.046963,6.15287-1.859577,8.571206s-4.82097,3.823383-7.900423,3.808794h-50.34c-3.079453.014589-5.993884-1.390458-7.900423-3.808794s-2.59253-5.580215-1.859577-8.571206l11.75-48.9c-17.490389-10.432427-25.859086-31.261756-20.448421-50.895246s23.268028-33.235352,43.633421-33.235352s38.222756,13.601862,43.633421,33.235352-2.958032,40.462819-20.448421,50.895246Z" opacity="0.61" fill="#fff"/></g></g><script><![CDATA[!function(t,n){"object"==typeof exports&&"undefined"!=typeof module?module.exports=n():"function"==typeof define&&define.amd?define(n):((t="undefined"!=typeof globalThis?globalThis:t||self).__SVGATOR_PLAYER__=t.__SVGATOR_PLAYER__||{},t.__SVGATOR_PLAYER__["5c7f360c"]=n())}(this,(function(){"use strict";function t(t,n){var r=Object.keys(t);if(Object.getOwnPropertySymbols){var e=Object.getOwnPropertySymbols(t);n&&(e=e.filter((function(n){return Object.getOwnPropertyDescriptor(t,n).enumerable}))),r.push.apply(r,e)}return r}function n(n){for(var r=1;r<arguments.length;r++){var e=null!=arguments[r]?arguments[r]:{};r%2?t(Object(e),!0).forEach((function(t){u(n,t,e[t])})):Object.getOwnPropertyDescriptors?Object.defineProperties(n,Object.getOwnPropertyDescriptors(e)):t(Object(e)).forEach((function(t){Object.defineProperty(n,t,Object.getOwnPropertyDescriptor(e,t))}))}return n}function r(t){return(r="function"==typeof Symbol&&"symbol"==typeof Symbol.iterator?function(t){return typeof t}:function(t){return t&&"function"==typeof Symbol&&t.constructor===Symbol&&t!==Symbol.prototype?"symbol":typeof t})(t)}function e(t,n){if(!(t instanceof n))throw new TypeError("Cannot call a class as a function")}function i(t,n){for(var r=0;r<n.length;r++){var e=n[r];e.enumerable=e.enumerable||!1,e.configurable=!0,"value"in e&&(e.writable=!0),Object.defineProperty(t,e.key,e)}}function o(t,n,r){return n&&i(t.prototype,n),r&&i(t,r),t}function u(t,n,r){return n in t?Object.defineProperty(t,n,{value:r,enumerable:!0,configurable:!0,writable:!0}):t[n]=r,t}function a(t){return(a=Object.setPrototypeOf?Object.getPrototypeOf:function(t){return t.__proto__||Object.getPrototypeOf(t)})(t)}function l(t,n){return(l=Object.setPrototypeOf||function(t,n){return t.__proto__=n,t})(t,n)}function f(){if("undefined"==typeof Reflect||!Reflect.construct)return!1;if(Reflect.construct.sham)return!1;if("function"==typeof Proxy)return!0;try{return Boolean.prototype.valueOf.call(Reflect.construct(Boolean,[],(function(){}))),!0}catch(t){return!1}}function s(t,n,r){return(s=f()?Reflect.construct:function(t,n,r){var e=[null];e.push.apply(e,n);var i=new(Function.bind.apply(t,e));return r&&l(i,r.prototype),i}).apply(null,arguments)}function c(t,n){if(n&&("object"==typeof n||"function"==typeof n))return n;if(void 0!==n)throw new TypeError("Derived constructors may only return object or undefined");return function(t){if(void 0===t)throw new ReferenceError("this hasn't been initialised - super() hasn't been called");return t}(t)}function h(t,n,r){return(h="undefined"!=typeof Reflect&&Reflect.get?Reflect.get:function(t,n,r){var e=function(t,n){for(;!Object.prototype.hasOwnProperty.call(t,n)&&null!==(t=a(t)););return t}(t,n);if(e){var i=Object.getOwnPropertyDescriptor(e,n);return i.get?i.get.call(r):i.value}})(t,n,r||t)}function v(t){return function(t){if(Array.isArray(t))return y(t)}(t)||function(t){if("undefined"!=typeof Symbol&&null!=t[Symbol.iterator]||null!=t["@@iterator"])return Array.from(t)}(t)||function(t,n){if(!t)return;if("string"==typeof t)return y(t,n);var r=Object.prototype.toString.call(t).slice(8,-1);"Object"===r&&t.constructor&&(r=t.constructor.name);if("Map"===r||"Set"===r)return Array.from(t);if("Arguments"===r||/^(?:Ui|I)nt(?:8|16|32)(?:Clamped)?Array$/.test(r))return y(t,n)}(t)||function(){throw new TypeError("Invalid attempt to spread non-iterable instance.\nIn order to be iterable, non-array objects must have a [Symbol.iterator]() method.")}()}function y(t,n){(null==n||n>t.length)&&(n=t.length);for(var r=0,e=new Array(n);r<n;r++)e[r]=t[r];return e}Number.isInteger||(Number.isInteger=function(t){return"number"==typeof t&&isFinite(t)&&Math.floor(t)===t}),Number.EPSILON||(Number.EPSILON=2220446049250313e-31);var g=p(Math.pow(10,-6));function p(t){var n=arguments.length>1&&void 0!==arguments[1]?arguments[1]:6;if(Number.isInteger(t))return t;var r=Math.pow(10,n);return Math.round((+t+Number.EPSILON)*r)/r}function d(t,n){var r=arguments.length>2&&void 0!==arguments[2]?arguments[2]:g;return Math.abs(t-n)<r}var m=Math.PI/180;function b(t){return t}function w(t,n,r){var e=1-r;return 3*r*e*(t*e+n*r)+r*r*r}function x(){var t=arguments.length>0&&void 0!==arguments[0]?arguments[0]:0,n=arguments.length>1&&void 0!==arguments[1]?arguments[1]:0,r=arguments.length>2&&void 0!==arguments[2]?arguments[2]:1,e=arguments.length>3&&void 0!==arguments[3]?arguments[3]:1;return t<0||t>1||r<0||r>1?null:d(t,n)&&d(r,e)?b:function(i){if(i<=0)return t>0?i*n/t:0===n&&r>0?i*e/r:0;if(i>=1)return r<1?1+(i-1)*(e-1)/(r-1):1===r&&t<1?1+(i-1)*(n-1)/(t-1):1;for(var o,u=0,a=1;u<a;){var l=w(t,r,o=(u+a)/2);if(d(i,l))break;l<i?u=o:a=o}return w(n,e,o)}}function A(){return 1}function k(t){return 1===t?1:0}function _(){var t=arguments.length>0&&void 0!==arguments[0]?arguments[0]:1,n=arguments.length>1&&void 0!==arguments[1]?arguments[1]:0;if(1===t){if(0===n)return k;if(1===n)return A}var r=1/t;return function(t){return t>=1?1:(t+=n*r)-t%r}}var S=Math.sin,O=Math.cos,j=Math.acos,M=Math.asin,P=Math.tan,E=Math.atan2,I=Math.PI/180,R=180/Math.PI,F=Math.sqrt,N=function(){function t(){var n=arguments.length>0&&void 0!==arguments[0]?arguments[0]:1,r=arguments.length>1&&void 0!==arguments[1]?arguments[1]:0,i=arguments.length>2&&void 0!==arguments[2]?arguments[2]:0,o=arguments.length>3&&void 0!==arguments[3]?arguments[3]:1,u=arguments.length>4&&void 0!==arguments[4]?arguments[4]:0,a=arguments.length>5&&void 0!==arguments[5]?arguments[5]:0;e(this,t),this.m=[n,r,i,o,u,a],this.i=null,this.w=null,this.s=null}return o(t,[{key:"determinant",get:function(){var t=this.m;return t[0]*t[3]-t[1]*t[2]}},{key:"isIdentity",get:function(){if(null===this.i){var t=this.m;this.i=1===t[0]&&0===t[1]&&0===t[2]&&1===t[3]&&0===t[4]&&0===t[5]}return this.i}},{key:"point",value:function(t,n){var r=this.m;return{x:r[0]*t+r[2]*n+r[4],y:r[1]*t+r[3]*n+r[5]}}},{key:"translateSelf",value:function(){var t=arguments.length>0&&void 0!==arguments[0]?arguments[0]:0,n=arguments.length>1&&void 0!==arguments[1]?arguments[1]:0;if(!t&&!n)return this;var r=this.m;return r[4]+=r[0]*t+r[2]*n,r[5]+=r[1]*t+r[3]*n,this.w=this.s=this.i=null,this}},{key:"rotateSelf",value:function(){var t=arguments.length>0&&void 0!==arguments[0]?arguments[0]:0;if(t%=360){var n=S(t*=I),r=O(t),e=this.m,i=e[0],o=e[1];e[0]=i*r+e[2]*n,e[1]=o*r+e[3]*n,e[2]=e[2]*r-i*n,e[3]=e[3]*r-o*n,this.w=this.s=this.i=null}return this}},{key:"scaleSelf",value:function(){var t=arguments.length>0&&void 0!==arguments[0]?arguments[0]:1,n=arguments.length>1&&void 0!==arguments[1]?arguments[1]:1;if(1!==t||1!==n){var r=this.m;r[0]*=t,r[1]*=t,r[2]*=n,r[3]*=n,this.w=this.s=this.i=null}return this}},{key:"skewSelf",value:function(t,n){if(n%=360,(t%=360)||n){var r=this.m,e=r[0],i=r[1],o=r[2],u=r[3];t&&(t=P(t*I),r[2]+=e*t,r[3]+=i*t),n&&(n=P(n*I),r[0]+=o*n,r[1]+=u*n),this.w=this.s=this.i=null}return this}},{key:"resetSelf",value:function(){var t=arguments.length>0&&void 0!==arguments[0]?arguments[0]:1,n=arguments.length>1&&void 0!==arguments[1]?arguments[1]:0,r=arguments.length>2&&void 0!==arguments[2]?arguments[2]:0,e=arguments.length>3&&void 0!==arguments[3]?arguments[3]:1,i=arguments.length>4&&void 0!==arguments[4]?arguments[4]:0,o=arguments.length>5&&void 0!==arguments[5]?arguments[5]:0,u=this.m;return u[0]=t,u[1]=n,u[2]=r,u[3]=e,u[4]=i,u[5]=o,this.w=this.s=this.i=null,this}},{key:"recomposeSelf",value:function(){var t=arguments.length>0&&void 0!==arguments[0]?arguments[0]:null,n=arguments.length>1&&void 0!==arguments[1]?arguments[1]:null,r=arguments.length>2&&void 0!==arguments[2]?arguments[2]:null,e=arguments.length>3&&void 0!==arguments[3]?arguments[3]:null,i=arguments.length>4&&void 0!==arguments[4]?arguments[4]:null;return this.isIdentity||this.resetSelf(),t&&(t.x||t.y)&&this.translateSelf(t.x,t.y),n&&this.rotateSelf(n),r&&(r.x&&this.skewSelf(r.x,0),r.y&&this.skewSelf(0,r.y)),!e||1===e.x&&1===e.y||this.scaleSelf(e.x,e.y),i&&(i.x||i.y)&&this.translateSelf(i.x,i.y),this}},{key:"decompose",value:function(){var t=arguments.length>0&&void 0!==arguments[0]?arguments[0]:0,n=arguments.length>1&&void 0!==arguments[1]?arguments[1]:0,r=this.m,e=r[0]*r[0]+r[1]*r[1],i=[[r[0],r[1]],[r[2],r[3]]],o=F(e);if(0===o)return{origin:{x:p(r[4]),y:p(r[5])},translate:{x:p(t),y:p(n)},scale:{x:0,y:0},skew:{x:0,y:0},rotate:0};i[0][0]/=o,i[0][1]/=o;var u=r[0]*r[3]-r[1]*r[2]<0;u&&(o=-o);var a=i[0][0]*i[1][0]+i[0][1]*i[1][1];i[1][0]-=i[0][0]*a,i[1][1]-=i[0][1]*a;var l=F(i[1][0]*i[1][0]+i[1][1]*i[1][1]);if(0===l)return{origin:{x:p(r[4]),y:p(r[5])},translate:{x:p(t),y:p(n)},scale:{x:p(o),y:0},skew:{x:0,y:0},rotate:0};i[1][0]/=l,i[1][1]/=l,a/=l;var f=0;return i[1][1]<0?(f=j(i[1][1])*R,i[0][1]<0&&(f=360-f)):f=M(i[0][1])*R,u&&(f=-f),a=E(a,F(i[0][0]*i[0][0]+i[0][1]*i[0][1]))*R,u&&(a=-a),{origin:{x:p(r[4]),y:p(r[5])},translate:{x:p(t),y:p(n)},scale:{x:p(o),y:p(l)},skew:{x:p(a),y:0},rotate:p(f)}}},{key:"clone",value:function(){var t=this.m;return new this.constructor(t[0],t[1],t[2],t[3],t[4],t[5])}},{key:"toString",value:function(){var t=arguments.length>0&&void 0!==arguments[0]?arguments[0]:" ";if(null===this.s){var n=this.m.map((function(t){return p(t)}));1===n[0]&&0===n[1]&&0===n[2]&&1===n[3]?this.s="translate("+n[4]+t+n[5]+")":this.s="matrix("+n.join(t)+")"}return this.s}}],[{key:"create",value:function(t){return t?Array.isArray(t)?s(this,v(t)):t instanceof this?t.clone():(new this).recomposeSelf(t.origin,t.rotate,t.skew,t.scale,t.translate):new this}}]),t}();function T(t,n,r){return t>=.5?r:n}function q(t,n,r){return 0===t||n===r?n:t*(r-n)+n}function B(t,n,r){var e=q(t,n,r);return e<=0?0:e}function L(t,n,r){var e=q(t,n,r);return e<=0?0:e>=1?1:e}function C(t,n,r){return 0===t?n:1===t?r:{x:q(t,n.x,r.x),y:q(t,n.y,r.y)}}function D(t,n,r){var e=function(t,n,r){return Math.round(q(t,n,r))}(t,n,r);return e<=0?0:e>=255?255:e}function z(t,n,r){return 0===t?n:1===t?r:{r:D(t,n.r,r.r),g:D(t,n.g,r.g),b:D(t,n.b,r.b),a:q(t,null==n.a?1:n.a,null==r.a?1:r.a)}}function V(t,n){for(var r=[],e=0;e<t;e++)r.push(n);return r}function G(t,n){if(--n<=0)return t;var r=(t=Object.assign([],t)).length;do{for(var e=0;e<r;e++)t.push(t[e])}while(--n>0);return t}var Y,$=function(){function t(n){e(this,t),this.list=n,this.length=n.length}return o(t,[{key:"setAttribute",value:function(t,n){for(var r=this.list,e=0;e<this.length;e++)r[e].setAttribute(t,n)}},{key:"removeAttribute",value:function(t){for(var n=this.list,r=0;r<this.length;r++)n[r].removeAttribute(t)}},{key:"style",value:function(t,n){for(var r=this.list,e=0;e<this.length;e++)r[e].style[t]=n}}]),t}(),U=/-./g,Q=function(t,n){return n.toUpperCase()};function H(t){return"function"==typeof t?t:T}function J(t){return t?"function"==typeof t?t:Array.isArray(t)?function(t){var n=arguments.length>1&&void 0!==arguments[1]?arguments[1]:b;if(!Array.isArray(t))return n;switch(t.length){case 1:return _(t[0])||n;case 2:return _(t[0],t[1])||n;case 4:return x(t[0],t[1],t[2],t[3])||n}return n}(t,null):function(t,n){var r=arguments.length>2&&void 0!==arguments[2]?arguments[2]:b;switch(t){case"linear":return b;case"steps":return _(n.steps||1,n.jump||0)||r;case"bezier":case"cubic-bezier":return x(n.x1||0,n.y1||0,n.x2||0,n.y2||0)||r}return r}(t.type,t.value,null):null}function Z(t,n,r){var e=arguments.length>3&&void 0!==arguments[3]&&arguments[3],i=n.length-1;if(t<=n[0].t)return e?[0,0,n[0].v]:n[0].v;if(t>=n[i].t)return e?[i,1,n[i].v]:n[i].v;var o,u=n[0],a=null;for(o=1;o<=i;o++){if(!(t>n[o].t)){a=n[o];break}u=n[o]}return null==a?e?[i,1,n[i].v]:n[i].v:u.t===a.t?e?[o,1,a.v]:a.v:(t=(t-u.t)/(a.t-u.t),u.e&&(t=u.e(t)),e?[o,t,r(t,u.v,a.v)]:r(t,u.v,a.v))}function K(t,n){var r=arguments.length>2&&void 0!==arguments[2]?arguments[2]:null;return t&&t.length?"function"!=typeof n?null:("function"!=typeof r&&(r=null),function(e){var i=Z(e,t,n);return null!=i&&r&&(i=r(i)),i}):null}function W(t,n){return t.t-n.t}function X(t,n,e,i,o){var u,a="@"===e[0],l="#"===e[0],f=Y[e],s=T;switch(a?(u=e.substr(1),e=u.replace(U,Q)):l&&(e=e.substr(1)),r(f)){case"function":if(s=f(i,o,Z,J,e,a,n,t),l)return s;break;case"string":s=K(i,H(f));break;case"object":if((s=K(i,H(f.i),f.f))&&"function"==typeof f.u)return f.u(n,s,e,a,t)}return s?function(t,n,r){if(arguments.length>3&&void 0!==arguments[3]&&arguments[3])return t instanceof $?function(e){return t.style(n,r(e))}:function(e){return t.style[n]=r(e)};if(Array.isArray(n)){var e=n.length;return function(i){var o=r(i);if(null==o)for(var u=0;u<e;u++)t[u].removeAttribute(n);else for(var a=0;a<e;a++)t[a].setAttribute(n,o)}}return function(e){var i=r(e);null==i?t.removeAttribute(n):t.setAttribute(n,i)}}(n,e,s,a):null}function tt(t,n,e,i){if(!i||"object"!==r(i))return null;var o=null,u=null;return Array.isArray(i)?u=function(t){if(!t||!t.length)return null;for(var n=0;n<t.length;n++)t[n].e&&(t[n].e=J(t[n].e));return t.sort(W)}(i):(u=i.keys,o=i.data||null),u?X(t,n,e,u,o):null}function nt(t,n,r){if(!r)return null;var e=[];for(var i in r)if(r.hasOwnProperty(i)){var o=tt(t,n,i,r[i]);o&&e.push(o)}return e.length?e:null}function rt(t,n){if(!n.duration||n.duration<0)return null;var r=function(t,n){if(!n)return null;var r=[];if(Array.isArray(n))for(var e=n.length,i=0;i<e;i++){var o=n[i];if(2===o.length){var u=null;if("string"==typeof o[0])u=t.getElementById(o[0]);else if(Array.isArray(o[0])){u=[];for(var a=0;a<o[0].length;a++)if("string"==typeof o[0][a]){var l=t.getElementById(o[0][a]);l&&u.push(l)}u=u.length?1===u.length?u[0]:new $(u):null}if(u){var f=nt(t,u,o[1]);f&&(r=r.concat(f))}}}else for(var s in n)if(n.hasOwnProperty(s)){var c=t.getElementById(s);if(c){var h=nt(t,c,n[s]);h&&(r=r.concat(h))}}return r.length?r:null}(t,n.elements);return r?function(t,n){var r=arguments.length>2&&void 0!==arguments[2]?arguments[2]:1/0,e=arguments.length>3&&void 0!==arguments[3]?arguments[3]:1,i=arguments.length>4&&void 0!==arguments[4]&&arguments[4],o=arguments.length>5&&void 0!==arguments[5]?arguments[5]:1,u=t.length,a=e>0?n:0;i&&r%2==0&&(a=n-a);var l=null;return function(f,s){var c=f%n,h=1+(f-c)/n;s*=e,i&&h%2==0&&(s=-s);var v=!1;if(h>r)c=a,v=!0,-1===o&&(c=e>0?0:n);else if(s<0&&(c=n-c),c===l)return!1;l=c;for(var y=0;y<u;y++)t[y](c);return v}}(r,n.duration,n.iterations||1/0,n.direction||1,!!n.alternate,n.fill||1):null}function et(t){return+("0x"+(t.replace(/[^0-9a-fA-F]+/g,"")||27))}function it(t,n,r){return!t||!r||n>t.length?t:t.substring(0,n)+it(t.substring(n+1),r,r)}function ot(t){var n=arguments.length>1&&void 0!==arguments[1]?arguments[1]:27;return!t||t%n?t%n:ot(t/n,n)}function ut(t,n,r){if(t&&t.length){var e=et(r),i=et(n),o=ot(e)+5,u=it(t,ot(e,5),o);return u=u.replace(/\x7c$/g,"==").replace(/\x2f$/g,"="),u=function(t,n,r){var e=+("0x"+t.substring(0,4));t=t.substring(4);for(var i=n%e+r%27,o=[],u=0;u<t.length;u+=2)if("|"!==t[u]){var a=+("0x"+t[u]+t[u+1])-i;o.push(a)}else{var l=+("0x"+t.substring(u+1,u+1+4))-i;u+=3,o.push(l)}return String.fromCharCode.apply(String,o)}(u=(u=atob(u)).replace(/[\x41-\x5A]/g,""),i,e),u=JSON.parse(u)}}var at=function(){function t(n,r){var i=arguments.length>2&&void 0!==arguments[2]?arguments[2]:{};e(this,t),this._id=0,this._running=!1,this._rollingBack=!1,this._animations=n,this.duration=r.duration,this.alternate=r.alternate,this.fill=r.fill,this.iterations=r.iterations,this.direction=i.direction||1,this.speed=i.speed||1,this.fps=i.fps||100,this.offset=i.offset||0,this.rollbackStartOffset=0}return o(t,[{key:"maxFiniteDuration",get:function(){return this.iterations>0?this.iterations*this.duration:this.duration}},{key:"_apply",value:function(t){for(var n=arguments.length>1&&void 0!==arguments[1]?arguments[1]:{},r=this._animations,e=r.length,i=0,o=0;o<e;o++)n[o]?i++:(n[o]=r[o](t,this.direction),n[o]&&i++);return i}},{key:"_rollback",value:function(){var t=this,n=1/0,r=null;this.rollbackStartOffset=this.offset,this._rollingBack=!0,this._running=!0;this._id=window.requestAnimationFrame((function e(i){if(t._rollingBack){null==r&&(r=i);var o=i-r,u=t.rollbackStartOffset-o,a=Math.round(u*t.speed);if(a>t.duration&&n!==1/0){var l=!!t.alternate&&a/t.duration%2>1,f=a%t.duration;a=(f+=l?t.duration:0)||t.duration}var s=t.fps?1e3/t.fps:0,c=Math.max(0,a);c<n-s&&(t.offset=c,n=c,t._apply(c));var h=t.iterations>0&&-1===t.fill&&a>=t.maxFiniteDuration;(a<=0||t.offset<a||h)&&t.stop(),t._id=window.requestAnimationFrame(e)}}))}},{key:"_start",value:function(){var t=this,n=arguments.length>0&&void 0!==arguments[0]?arguments[0]:0,r=-1/0,e=null,i={};this._running=!0;var o=function o(u){null==e&&(e=u);var a=Math.round((u-e+n)*t.speed),l=t.fps?1e3/t.fps:0;if(a>r+l&&!t._rollingBack&&(t.offset=a,r=a,t._apply(a,i)===t._animations.length))return void t.pause(!0);t._id=window.requestAnimationFrame(o)};this._id=window.requestAnimationFrame(o)}},{key:"_pause",value:function(){this._id&&window.cancelAnimationFrame(this._id),this._running=!1}},{key:"play",value:function(){if(!this._running)return this._rollingBack?this._rollback():this._start(this.offset)}},{key:"stop",value:function(){this._pause(),this.offset=0,this.rollbackStartOffset=0,this._rollingBack=!1,this._apply(0)}},{key:"reachedToEnd",value:function(){return this.iterations>0&&this.offset>=this.iterations*this.duration}},{key:"restart",value:function(){var t=arguments.length>0&&void 0!==arguments[0]&&arguments[0];this.stop(t),this.play(t)}},{key:"pause",value:function(){this._pause()}},{key:"reverse",value:function(){this.direction=-this.direction}}],[{key:"build",value:function(t,r){return delete t.animationSettings,t.options=ut(t.options,t.root,"5c7f360c"),t.animations.map((function(r){var e=ut(r.s,t.root,"5c7f360c");for(var i in delete r.s,t.animationSettings||(t.animationSettings=n({},e)),e)e.hasOwnProperty(i)&&(r[i]=e[i])})),(t=function(t,n){if(Y=n,!t||!t.root||!Array.isArray(t.animations))return null;for(var r=document.getElementsByTagName("svg"),e=!1,i=0;i<r.length;i++)if(r[i].id===t.root&&!r[i].svgatorAnimation){(e=r[i]).svgatorAnimation=!0;break}if(!e)return null;var o=t.animations.map((function(t){return rt(e,t)})).filter((function(t){return!!t}));return o.length?{element:e,animations:o,animationSettings:t.animationSettings,options:t.options||void 0}:null}(t,r))?{el:t.element,options:t.options||{},player:new this(t.animations,t.animationSettings,t.options)}:null}},{key:"push",value:function(t){return this.build(t)}},{key:"init",value:function(){var t=this,n=window.__SVGATOR_PLAYER__&&window.__SVGATOR_PLAYER__["5c7f360c"];Array.isArray(n)&&n.splice(0).forEach((function(n){return t.build(n)}))}}]),t}();function lt(t){return p(t)+""}function ft(t){var n=arguments.length>1&&void 0!==arguments[1]?arguments[1]:" ";return t&&t.length?t.map(lt).join(n):""}function st(t){if(!t)return"transparent";if(null==t.a||t.a>=1){var n=function(t){return 1===(t=parseInt(t).toString(16)).length?"0"+t:t},r=function(t){return t.charAt(0)===t.charAt(1)},e=n(t.r),i=n(t.g),o=n(t.b);return r(e)&&r(i)&&r(o)&&(e=e.charAt(0),i=i.charAt(0),o=o.charAt(0)),"#"+e+i+o}return"rgba("+t.r+","+t.g+","+t.b+","+t.a+")"}function ct(t){return t?"url(#"+t+")":"none"}!function(){for(var t=0,n=["ms","moz","webkit","o"],r=0;r<n.length&&!window.requestAnimationFrame;++r)window.requestAnimationFrame=window[n[r]+"RequestAnimationFrame"],window.cancelAnimationFrame=window[n[r]+"CancelAnimationFrame"]||window[n[r]+"CancelRequestAnimationFrame"];window.requestAnimationFrame||(window.requestAnimationFrame=function(n){var r=Date.now(),e=Math.max(0,16-(r-t)),i=window.setTimeout((function(){n(r+e)}),e);return t=r+e,i},window.cancelAnimationFrame=window.clearTimeout)}();var ht={f:null,i:function(t,n,r){return 0===t?n:1===t?r:{x:B(t,n.x,r.x),y:B(t,n.y,r.y)}},u:function(t,n){return function(r){var e=n(r);t.setAttribute("rx",lt(e.x)),t.setAttribute("ry",lt(e.y))}}},vt={f:null,i:function(t,n,r){return 0===t?n:1===t?r:{width:B(t,n.width,r.width),height:B(t,n.height,r.height)}},u:function(t,n){return function(r){var e=n(r);t.setAttribute("width",lt(e.width)),t.setAttribute("height",lt(e.height))}}};Object.freeze({M:2,L:2,Z:0,H:1,V:1,C:6,Q:4,T:2,S:4,A:7});var yt={},gt=null;function pt(t){var n=function(){if(gt)return gt;if("object"!==("undefined"==typeof document?"undefined":r(document))||!document.createElementNS)return{};var t=document.createElementNS("http://www.w3.org/2000/svg","svg");return t&&t.style?(t.style.position="absolute",t.style.opacity="0.01",t.style.zIndex="-9999",t.style.left="-9999px",t.style.width="1px",t.style.height="1px",gt={svg:t}):{}}().svg;if(!n)return function(t){return null};var e=document.createElementNS(n.namespaceURI,"path");e.setAttributeNS(null,"d",t),e.setAttributeNS(null,"fill","none"),e.setAttributeNS(null,"stroke","none"),n.appendChild(e);var i=e.getTotalLength();return function(t){var n=e.getPointAtLength(i*t);return{x:n.x,y:n.y}}}function dt(t){return yt[t]?yt[t]:yt[t]=pt(t)}function mt(t,n,r,e){if(!t||!e)return!1;var i=["M",t.x,t.y];if(n&&r&&(i.push("C"),i.push(n.x),i.push(n.y),i.push(r.x),i.push(r.y)),n?!r:r){var o=n||r;i.push("Q"),i.push(o.x),i.push(o.y)}return n||r||i.push("L"),i.push(e.x),i.push(e.y),i.join(" ")}function bt(t,n,r,e){var i=arguments.length>4&&void 0!==arguments[4]?arguments[4]:1,o=mt(t,n,r,e),u=dt(o);try{return u(i)}catch(t){return null}}function wt(t,n,r){return t+(n-t)*r}function xt(t,n,r){var e=arguments.length>3&&void 0!==arguments[3]&&arguments[3],i={x:wt(t.x,n.x,r),y:wt(t.y,n.y,r)};return e&&(i.a=At(t,n)),i}function At(t,n){return Math.atan2(n.y-t.y,n.x-t.x)}function kt(t,n,r,e){var i=1-e;return i*i*t+2*i*e*n+e*e*r}function _t(t,n,r,e){return 2*(1-e)*(n-t)+2*e*(r-n)}function St(t,n,r,e){var i=arguments.length>4&&void 0!==arguments[4]&&arguments[4],o=bt(t,n,null,r,e);return o||(o={x:kt(t.x,n.x,r.x,e),y:kt(t.y,n.y,r.y,e)}),i&&(o.a=Ot(t,n,r,e)),o}function Ot(t,n,r,e){return Math.atan2(_t(t.y,n.y,r.y,e),_t(t.x,n.x,r.x,e))}function jt(t,n,r,e,i){var o=i*i;return i*o*(e-t+3*(n-r))+3*o*(t+r-2*n)+3*i*(n-t)+t}function Mt(t,n,r,e,i){var o=1-i;return 3*(o*o*(n-t)+2*o*i*(r-n)+i*i*(e-r))}function Pt(t,n,r,e,i){var o=arguments.length>5&&void 0!==arguments[5]&&arguments[5],u=bt(t,n,r,e,i);return u||(u={x:jt(t.x,n.x,r.x,e.x,i),y:jt(t.y,n.y,r.y,e.y,i)}),o&&(u.a=Et(t,n,r,e,i)),u}function Et(t,n,r,e,i){return Math.atan2(Mt(t.y,n.y,r.y,e.y,i),Mt(t.x,n.x,r.x,e.x,i))}function It(t,n,r){var e=arguments.length>3&&void 0!==arguments[3]&&arguments[3];if(Ft(n)){if(Nt(r))return St(n,r.start,r,t,e)}else if(Ft(r)){if(n.end)return St(n,n.end,r,t,e)}else{if(n.end)return r.start?Pt(n,n.end,r.start,r,t,e):St(n,n.end,r,t,e);if(r.start)return St(n,r.start,r,t,e)}return xt(n,r,t,e)}function Rt(t,n,r){var e=It(t,n,r,!0);return e.a=function(t){return arguments.length>1&&void 0!==arguments[1]&&arguments[1]?t+Math.PI:t}(e.a)/m,e}function Ft(t){return!t.type||"corner"===t.type}function Nt(t){return null!=t.start&&!Ft(t)}var Tt=new N;var qt={f:lt,i:q},Bt={f:lt,i:L};function Lt(t,n,r){return t.map((function(t){return function(t,n,r){var e=t.v;if(!e||"g"!==e.t||e.s||!e.v||!e.r)return t;var i=r.getElementById(e.r),o=i&&i.querySelectorAll("stop")||[];return e.s=e.v.map((function(t,n){var r=o[n]&&o[n].getAttribute("offset");return{c:t,o:r=p(parseInt(r)/100)}})),delete e.v,t}(t,0,r)}))}var Ct={gt:"gradientTransform",c:{x:"cx",y:"cy"},rd:"r",f:{x:"x1",y:"y1"},to:{x:"x2",y:"y2"}};function Dt(t,n,e,i,o,u,a,l){return Lt(t,0,l),n=function(t,n,r){for(var e,i,o,u=t.length-1,a={},l=0;l<=u;l++)(e=t[l]).e&&(e.e=n(e.e)),e.v&&"g"===(i=e.v).t&&i.r&&(o=r.getElementById(i.r))&&(a[i.r]={e:o,s:o.querySelectorAll("stop")});return a}(t,i,l),function(i){var o=e(i,t,zt);if(!o)return"none";if("c"===o.t)return st(o.v);if("g"===o.t){if(!n[o.r])return ct(o.r);var u=n[o.r];return function(t,n){for(var r=t.s,e=r.length;e<n.length;e++){var i=r[r.length-1].cloneNode();i.id=Yt(i.id),t.e.appendChild(i),r=t.s=t.e.querySelectorAll("stop")}for(var o=0,u=r.length,a=n.length-1;o<u;o++)r[o].setAttribute("stop-color",st(n[Math.min(o,a)].c)),r[o].setAttribute("offset",n[Math.min(o,a)].o)}(u,o.s),Object.keys(Ct).forEach((function(t){if(void 0!==o[t])if("object"!==r(Ct[t])){var n,e="gt"===t?(n=o[t],Array.isArray(n)?"matrix("+n.join(" ")+")":""):o[t],i=Ct[t];u.e.setAttribute(i,e)}else Object.keys(Ct[t]).forEach((function(n){if(void 0!==o[t][n]){var r=o[t][n],e=Ct[t][n];u.e.setAttribute(e,r)}}))})),ct(o.r)}return"none"}}function zt(t,r,e){if(0===t)return r;if(1===t)return e;if(r&&e){var i=r.t;if(i===e.t)switch(r.t){case"c":return{t:i,v:z(t,r.v,e.v)};case"g":if(r.r===e.r){var o={t:i,s:Vt(t,r.s,e.s),r:r.r};return r.gt&&e.gt&&(o.gt=function(t,n,r){var e=n.length;if(e!==r.length)return T(t,n,r);for(var i=new Array(e),o=0;o<e;o++)i[o]=q(t,n[o],r[o]);return i}(t,r.gt,e.gt)),r.c?(o.c=C(t,r.c,e.c),o.rd=B(t,r.rd,e.rd)):r.f&&(o.f=C(t,r.f,e.f),o.to=C(t,r.to,e.to)),o}}if("c"===r.t&&"g"===e.t||"c"===e.t&&"g"===r.t){var u="c"===r.t?r:e,a="g"===r.t?n({},r):n({},e),l=a.s.map((function(t){return{c:u.v,o:t.o}}));return a.s="c"===r.t?Vt(t,l,a.s):Vt(t,a.s,l),a}}return T(t,r,e)}function Vt(t,n,r){if(n.length===r.length)return n.map((function(n,e){return Gt(t,n,r[e])}));for(var e=Math.max(n.length,r.length),i=[],o=0;o<e;o++){var u=Gt(t,n[Math.min(o,n.length-1)],r[Math.min(o,r.length-1)]);i.push(u)}return i}function Gt(t,n,r){return{o:L(t,n.o,r.o||0),c:z(t,n.c,r.c||{})}}function Yt(t){return t.replace(/-fill-([0-9]+)$/,(function(t,n){return"-fill-"+(+n+1)}))}var $t={fill:Dt,"fill-opacity":Bt,stroke:Dt,"stroke-opacity":Bt,"stroke-width":qt,"stroke-dashoffset":{f:lt,i:q},"stroke-dasharray":{f:function(t){var n=arguments.length>1&&void 0!==arguments[1]?arguments[1]:" ";return t&&t.length>0&&(t=t.map((function(t){return p(t,4)}))),ft(t,n)},i:function(t,n,r){var e,i,o,u=n.length,a=r.length;if(u!==a)if(0===u)n=V(u=a,0);else if(0===a)a=u,r=V(u,0);else{var l=(o=(e=u)*(i=a)/function(t,n){for(var r;n;)r=n,n=t%n,t=r;return t||1}(e,i))<0?-o:o;n=G(n,Math.floor(l/u)),r=G(r,Math.floor(l/a)),u=a=l}for(var f=[],s=0;s<u;s++)f.push(p(B(t,n[s],r[s])));return f}},opacity:Bt,transform:function(t,n,e,i){if(!(t=function(t,n){if(!t||"object"!==r(t))return null;var e=!1;for(var i in t)t.hasOwnProperty(i)&&(t[i]&&t[i].length?(t[i].forEach((function(t){t.e&&(t.e=n(t.e))})),e=!0):delete t[i]);return e?t:null}(t,i)))return null;var o=function(r,i,o){var u=arguments.length>3&&void 0!==arguments[3]?arguments[3]:null;return t[r]?e(i,t[r],o):n&&n[r]?n[r]:u};return n&&n.a&&t.o?function(n){var r=e(n,t.o,Rt);return Tt.recomposeSelf(r,o("r",n,q,0)+r.a,o("k",n,C),o("s",n,C),o("t",n,C)).toString()}:function(t){return Tt.recomposeSelf(o("o",t,It,null),o("r",t,q,0),o("k",t,C),o("s",t,C),o("t",t,C)).toString()}},r:qt,"#size":vt,"#radius":ht,_:function(t,n){if(Array.isArray(t))for(var r=0;r<t.length;r++)this[t[r]]=n;else this[t]=n}},Ut=function(t){!function(t,n){if("function"!=typeof n&&null!==n)throw new TypeError("Super expression must either be null or a function");t.prototype=Object.create(n&&n.prototype,{constructor:{value:t,writable:!0,configurable:!0}}),n&&l(t,n)}(u,t);var n,r,i=(n=u,r=f(),function(){var t,e=a(n);if(r){var i=a(this).constructor;t=Reflect.construct(e,arguments,i)}else t=e.apply(this,arguments);return c(this,t)});function u(){return e(this,u),i.apply(this,arguments)}return o(u,null,[{key:"build",value:function(t){var n=h(a(u),"build",this).call(this,t,$t);if(!n)return null;n.el,n.options,function(t,n,r){t.play()}(n.player)}}]),u}(at);return Ut.init(),Ut}));
(function(s,i,o,w,a,b){w[o]=w[o]||{};w[o][s]=w[o][s]||[];w[o][s].push(i);})('5c7f360c',{"root":"efAUFnjHVqI1","animations":[{"elements":{"efAUFnjHVqI13":{"transform":{"data":{"t":{"x":-109.064988,"y":-14.089987}},"keys":{"o":[{"t":0,"v":{"x":441.961226,"y":833.329987,"type":"corner"}},{"t":1000,"v":{"x":441.67,"y":878.329987,"type":"corner"}}]}}},"efAUFnjHVqI14":{"transform":{"data":{"t":{"x":-109.065017,"y":-14.089999}},"keys":{"o":[{"t":1500,"v":{"x":444.955017,"y":833.28,"type":"corner"}},{"t":2500,"v":{"x":444.955017,"y":924.279999,"type":"corner"}}]}}},"efAUFnjHVqI15":{"transform":{"data":{"t":{"x":-109.06501,"y":-14.089999}},"keys":{"o":[{"t":3000,"v":{"x":445.38501,"y":833.28,"type":"corner"}},{"t":4000,"v":{"x":445.38501,"y":969.279999,"type":"corner"}}]}}},"efAUFnjHVqI28":{"transform":{"data":{"o":{"x":401.095001,"y":332.154557,"type":"corner"},"t":{"x":-401.095001,"y":-332.154556}},"keys":{"r":[{"t":0,"v":0},{"t":10000,"v":720}]}}},"efAUFnjHVqI38":{"transform":{"data":{"o":{"x":690.374695,"y":134.730457,"type":"corner"},"t":{"x":-690.374695,"y":-134.730457}},"keys":{"r":[{"t":0,"v":0},{"t":10000,"v":-720}]}}},"efAUFnjHVqI44":{"transform":{"data":{"o":{"x":1253.353593,"y":423.747818,"type":"corner"},"t":{"x":-1253.353592,"y":-423.747811}},"keys":{"r":[{"t":0,"v":0},{"t":500,"v":20},{"t":700,"v":0},{"t":1500,"v":0},{"t":2000,"v":20},{"t":2200,"v":0},{"t":3000,"v":0},{"t":3500,"v":20},{"t":3700,"v":0},{"t":4500,"v":0},{"t":5000,"v":20},{"t":5200,"v":0},{"t":6000,"v":0},{"t":6500,"v":20},{"t":6700,"v":0},{"t":7500,"v":0},{"t":8000,"v":20},{"t":8200,"v":0},{"t":9000,"v":0},{"t":9500,"v":20},{"t":9700,"v":0}]}}},"efAUFnjHVqI46":{"transform":{"data":{"t":{"x":-1156.304962,"y":-561.874985}},"keys":{"o":[{"t":0,"v":{"x":1156.304962,"y":561.874985,"type":"corner"}},{"t":500,"v":{"x":1155.620476,"y":589.449985,"type":"corner"}},{"t":700,"v":{"x":1156.304962,"y":561.874985,"type":"corner"}},{"t":1500,"v":{"x":1156.304962,"y":561.874985,"type":"corner"}},{"t":2000,"v":{"x":1155.620476,"y":589.449985,"type":"corner"}},{"t":2200,"v":{"x":1156.304962,"y":561.874985,"type":"corner"}},{"t":3000,"v":{"x":1156.304962,"y":561.874985,"type":"corner"}},{"t":3500,"v":{"x":1155.620476,"y":589.449985,"type":"corner"}},{"t":3700,"v":{"x":1156.304962,"y":561.874985,"type":"corner"}},{"t":4500,"v":{"x":1156.304962,"y":561.874985,"type":"corner"}},{"t":5000,"v":{"x":1155.620476,"y":589.449985,"type":"corner"}},{"t":5200,"v":{"x":1156.304962,"y":561.874985,"type":"corner"}},{"t":6000,"v":{"x":1156.304962,"y":561.874985,"type":"corner"}},{"t":6500,"v":{"x":1155.620476,"y":589.449985,"type":"corner"}},{"t":6700,"v":{"x":1156.304962,"y":561.874985,"type":"corner"}},{"t":7500,"v":{"x":1156.304962,"y":561.874985,"type":"corner"}},{"t":8000,"v":{"x":1155.620476,"y":589.449985,"type":"corner"}},{"t":8200,"v":{"x":1156.304962,"y":561.874985,"type":"corner"}},{"t":9000,"v":{"x":1156.304962,"y":561.874985,"type":"corner"}},{"t":9500,"v":{"x":1155.620476,"y":589.449985,"type":"corner"}},{"t":9700,"v":{"x":1156.304962,"y":561.874985,"type":"corner"}}]}}}},"s":"MTDA1NGFjNTM5NWE2QWKEzOTJhNTlhYTA5ZjUIzNmI2MjYxNjE2MTYxHNWQ1Mzk1OWFhMzk2OVTRhNTlhYTBWOWY1MzWZiNjI1ZDUzOWFhNTkM2YTM5MkxhNTlhYTA5DZmE0NTM2Yks2MTVkNETNQOTc5YTlkOWQ1MzEZiNjI1ZDUzOTI5ZEZChNTk2YTNDOWY5MmE1OOTZZNTM2Yjk3OTI5ZEGE0OTY1ZDUzYTRhMTWk2OTY5NTUzNmJGNjJNhZQ|"}],"options":"MMDAxMDg4VDJmODA4MTPZlN2ZUODEyZjQ3MmYQ3OTdjNmVLNzEyZjhhL"},'__SVGATOR_PLAYER__',window)]]></script></svg>