<svg xmlns="http://www.w3.org/2000/svg" xmlns:xlink="http://www.w3.org/1999/xlink" viewBox="0 0 814 647.04"><defs><style>.cls-1{isolation:isolate;}.cls-2{fill:#4858e8;}.cls-3{fill:#f1835a;}.cls-14,.cls-4{fill:#fff;}.cls-5,.cls-6,.cls-9{opacity:0.8;}.cls-6{fill:url(#linear-gradient);}.cls-7{fill:#ff5e00;}.cls-8{fill:#fc6;}.cls-9{fill:url(#linear-gradient-2);}.cls-10{opacity:0.9;fill:url(#linear-gradient-3);}.cls-11{mix-blend-mode:screen;}.cls-12{fill:#dce1ff;}.cls-13{fill:#d9ffff;}.cls-14,.cls-15{opacity:0.61;}.cls-15{fill:#cecece;}.cls-16{fill:#34447d;}</style><linearGradient id="linear-gradient" x1="354.88" y1="-12.81" x2="546.53" y2="196.13" gradientUnits="userSpaceOnUse"><stop offset="0" stop-color="#fff3db"/><stop offset="1" stop-color="#fff"/></linearGradient><linearGradient id="linear-gradient-2" x1="536.87" y1="188.45" x2="636.03" y2="89.29" gradientUnits="userSpaceOnUse"><stop offset="0" stop-color="#fff"/><stop offset="1" stop-color="#fefeff"/></linearGradient><linearGradient id="linear-gradient-3" x1="69.27" y1="519.83" x2="248.27" y2="519.83" gradientUnits="userSpaceOnUse"><stop offset="0" stop-color="#eef5ff"/><stop offset="1" stop-color="#fefeff"/></linearGradient></defs><g class="cls-1"><g id="Layer_2" data-name="Layer 2"><g id="Layer_1-2" data-name="Layer 1"><path class="cls-2" d="M552.29,598.53l-9-3.5a29.6,29.6,0,0,0,2.08-11.3L555,584a39.16,39.16,0,0,0-3.13-15.23l-8.78,3.93a26.8,26.8,0,0,0-6.61-9.53l6.9-6.76a39.4,39.4,0,0,0-12.62-8.16l-3.41,9.05a29.57,29.57,0,0,0-11.43-2.18l.13-9.71a38,38,0,0,0-10.17,1.37,38.91,38.91,0,0,0-4.69,1.67l3.91,8.92a28.8,28.8,0,0,0-9.48,6.58l-6.82-7a39.54,39.54,0,0,0-8.44,12.77l9.12,3.54a28.47,28.47,0,0,0-2.09,8.94c-.06.82,0,1.63,0,2.44l-9.91-.13a38.55,38.55,0,0,0,3.26,15.07l9-4a29.78,29.78,0,0,0,6.55,9.39l-7.09,6.9a38.13,38.13,0,0,0,11.89,8c.28.12.58.21.87.33l3.56-9.19a28.76,28.76,0,0,0,11.31,2l-.11,9.84a39.58,39.58,0,0,0,14.87-3.14l-4.07-8.91a28.83,28.83,0,0,0,9.68-6.52l6.75,7c.29-.3.6-.58.89-.89A38,38,0,0,0,552.29,598.53Zm-53.22-26.21a21,21,0,1,1,.3,24A21.16,21.16,0,0,1,499.07,572.32Z"/><rect class="cls-3" x="562.02" y="365.27" width="2.14" height="306.18" transform="translate(41.82 1078.75) rotate(-89.7)"/><path class="cls-2" d="M334.94,534.32c-121.64-.6-220.12-100.05-219.52-221.69S215.46,92.52,337.1,93.12s220.11,100,219.52,221.68S456.58,534.91,334.94,534.32Zm2-417.43c-108.53-.53-197.26,87.33-197.79,195.86S226.52,510,335.05,510.55s197.26-87.34,197.8-195.87S445.51,117.42,337,116.89Z"/><path class="cls-3" d="M557.21,538.63,542.8,524.07c115.26-114.13,116.18-300.78,2-416l14.56-14.41C681.48,216.91,680.5,416.54,557.21,538.63Z"/><rect class="cls-3" x="695.96" y="232.79" width="2.05" height="110.87" transform="translate(405.33 983.79) rotate(-89.72)"/><rect class="cls-3" x="693.71" y="269.06" width="2.05" height="214.32" transform="translate(314.97 1069.03) rotate(-89.71)"/><path class="cls-3" d="M740.31,289.47a12.11,12.11,0,1,1,12.05,12.16A12.12,12.12,0,0,1,740.31,289.47Z"/><path class="cls-3" d="M789.79,375.13a12.11,12.11,0,1,1,12.05,12.16A12.11,12.11,0,0,1,789.79,375.13Z"/><path class="cls-3" d="M704.07,519.06a12.11,12.11,0,1,1,12,12.17A12.11,12.11,0,0,1,704.07,519.06Z"/><path class="cls-3" d="M334.71,580.73C187.48,580,68.28,459.64,69,312.41l20.48.1c-.66,135.94,109.39,247.07,245.33,247.74S581.88,450.86,582.55,314.92,473.16,67.85,337.22,67.18l.1-20.48C484.56,47.42,603.76,167.79,603,315S481.94,581.45,334.71,580.73Z"/><path class="cls-4" d="M196.89,275h-18v56h10.45V312.79h7.53c12.83,0,20.67-7.51,20.67-18.85S209.72,275,196.89,275Zm0,27.93h-7.53V284.87h7.53c6.38,0,10.07,3.28,10.07,9.07S203.27,302.94,196.89,302.94Z"/><path class="cls-4" d="M230.78,297.85v-6.49H221V331h9.76V314.67c0-7.36,1.46-14.87,13-13.46V290.42A15.41,15.41,0,0,0,230.78,297.85Z"/><path class="cls-4" d="M247.6,331h9.76V291.36H247.6Zm4.84-45.45a5.28,5.28,0,1,0-5.15-5.32A5.24,5.24,0,0,0,252.44,285.57Z"/><path class="cls-4" d="M304.54,290.42a13.67,13.67,0,0,0-11.75,6.26A11.41,11.41,0,0,0,282,290.42a11.73,11.73,0,0,0-10.3,5.16v-4.22H262V331h9.76V308.25c0-4.53,2.39-8.21,6.92-8.21s6.53,3.28,6.53,8.21V331h9.76V308.25c0-4.53,2.38-8.21,6.91-8.21s6.54,3.28,6.54,8.21V331h9.75v-24.8C318.14,297.85,313.53,290.42,304.54,290.42Z"/><path class="cls-4" d="M341.89,289.4c-10.75,0-19.9,8.37-19.9,20.81,0,12.05,8.53,20.81,21.44,20.81A20.21,20.21,0,0,0,360,323l-7.84-4.69a11.29,11.29,0,0,1-8.68,3.91c-5.38,0-9.68-2.82-11.06-8.14h28.89C363,298.4,353.65,289.4,341.89,289.4Zm-9.52,17c1.15-5.09,4.91-8.14,9.68-8.14,5.22,0,8.68,3,9.68,8.14Z"/><path class="cls-4" d="M400,279.23V275h-30v56H374V304.19H393.3V300H374V279.23Z"/><path class="cls-4" d="M418,289.4c-11.22,0-20.21,9.31-20.21,20.81S406.81,331,418,331s20.21-9.39,20.21-20.81S429.33,289.4,418,289.4Zm0,37.39a16.63,16.63,0,1,1,16.14-16.58A16.31,16.31,0,0,1,418,326.79Z"/><path class="cls-4" d="M447.39,299.88v-8.52h-4.15V331h4.15V310.84c0-10,5.22-15.57,13.83-15.57v-4.85C454.84,290.42,450.08,294.56,447.39,299.88Z"/><path class="cls-4" d="M475.2,318.82V295.19h9.14V291H475.2v-8.3h-4.08V291h-6.83v4.22h6.83v23.63c0,12,7,12.67,13.3,12v-4.14C476.89,327.42,475.2,324.68,475.2,318.82Z"/><path class="cls-4" d="M493.29,328.5a2.46,2.46,0,0,1-2.48,2.53,2.37,2.37,0,0,1-1.76-.75,2.48,2.48,0,0,1-.73-1.78,2.65,2.65,0,0,1,.73-1.83,2.37,2.37,0,0,1,1.76-.71,2.46,2.46,0,0,1,1.79.71A2.61,2.61,0,0,1,493.29,328.5Z"/><path class="cls-4" d="M373,343c-1.26-.29-2.47-.49-2.47-1.78a1.58,1.58,0,0,1,1.72-1.56,1.68,1.68,0,0,1,1.75,1.19l1.39-.35a3,3,0,0,0-3-2.18,3,3,0,0,0-3.27,2.9c0,1.31.45,2.38,2.45,2.87,1.57.39,2.77.45,2.77,1.82,0,1-.95,1.51-2,1.51a2,2,0,0,1-2.2-1.37l-1.4.45a3.5,3.5,0,0,0,3.57,2.28c2.55,0,3.5-1.57,3.5-3C375.79,344.14,374.93,343.44,373,343Z"/><path class="cls-4" d="M379.93,341.1a3.84,3.84,0,0,0,.21,7.67,3.53,3.53,0,0,0,2.95-1.38L382,346.7a2.36,2.36,0,0,1-1.88.82,2.33,2.33,0,0,1-2.48-2h5.71C383.71,342.77,381.88,341.1,379.93,341.1Zm-2.27,3.27a2.24,2.24,0,0,1,2.27-2,2.09,2.09,0,0,1,2.14,2Z"/><path class="cls-4" d="M387.6,347.52a2.59,2.59,0,0,1,0-5.18,2.39,2.39,0,0,1,2.09,1.18l1.1-.62a3.68,3.68,0,0,0-3.19-1.8,3.84,3.84,0,0,0,0,7.67,3.66,3.66,0,0,0,3.19-1.82l-1.1-.6A2.38,2.38,0,0,1,387.6,347.52Z"/><path class="cls-4" d="M396.4,341.27v4.2a1.94,1.94,0,0,1-1.91,2c-1.35,0-1.77-1-1.77-2v-4.2h-1.29v4.59a2.82,2.82,0,0,0,2.76,2.91,2.52,2.52,0,0,0,2.21-1.19v1h1.29v-7.32Z"/><path class="cls-4" d="M400.26,342.54v-1.27H399v7.31h1.29v-3.27c0-1.34.26-3,2.39-2.73V341.1A2.63,2.63,0,0,0,400.26,342.54Z"/><path class="cls-4" d="M403.5,348.57h1.3v-7.31h-1.3Zm.65-8.61a.74.74,0,0,0,.74-.75.74.74,0,1,0-1.48,0A.74.74,0,0,0,404.15,340Z"/><path class="cls-4" d="M409.6,341.1a2.57,2.57,0,0,0-2.23,1.2v-1h-1.29v7.31h1.29v-4.19a2,2,0,0,1,1.92-2.05c1.34,0,1.77,1,1.77,2.05v4.19h1.28V344A2.81,2.81,0,0,0,409.6,341.1Z"/><path class="cls-4" d="M419.22,341.27v1.07a2.84,2.84,0,0,0-2.44-1.24,3.64,3.64,0,0,0,0,7.28,2.82,2.82,0,0,0,2.44-1.25v.56c0,1.46-.67,2.57-2.38,2.57a2.48,2.48,0,0,1-2.15-.9l-1.11.67a3.88,3.88,0,0,0,3.26,1.47,3.35,3.35,0,0,0,3.68-3.68v-6.55Zm-2.31,5.87a2.4,2.4,0,0,1,0-4.8,2.4,2.4,0,0,1,0,4.8Z"/><path class="cls-4" d="M427,338.48h-1.91v10.1H427Z"/><path class="cls-4" d="M432.05,341.1a2.37,2.37,0,0,0-2.1,1.07v-.9h-1.78v7.31H430v-4.06a1.51,1.51,0,0,1,1.54-1.65c1,0,1.4.71,1.4,1.65v4.06h1.8v-4.44C434.69,342.6,433.87,341.1,432.05,341.1Z"/><path class="cls-4" d="M439.71,341.1a2.36,2.36,0,0,0-2.1,1.07v-.9h-1.79v7.31h1.79v-4.06a1.5,1.5,0,0,1,1.53-1.65c1,0,1.4.71,1.4,1.65v4.06h1.8v-4.44C442.34,342.6,441.52,341.1,439.71,341.1Z"/><path class="cls-4" d="M446.83,341.1a3.84,3.84,0,1,0,3.79,3.84A3.76,3.76,0,0,0,446.83,341.1Zm0,5.91a2.08,2.08,0,1,1,1.95-2.07A1.94,1.94,0,0,1,446.83,347Z"/><path class="cls-4" d="M455.76,341.27l-1.71,5.2-1.7-5.2h-1.94l2.66,7.32h2l2.67-7.32Z"/><path class="cls-4" d="M460.77,341.1a4.29,4.29,0,0,0-3,1.18l1.23,1a2.85,2.85,0,0,1,1.5-.53c1.11,0,1.47.46,1.49,1.51h-.78c-1,0-3.87,0-3.87,2.41a2.32,2.32,0,0,0,2.55,2.15,2.44,2.44,0,0,0,2.1-1v.77h1.8v-4.41C463.8,342.43,463.05,341.1,460.77,341.1Zm1.23,5.51a1.72,1.72,0,0,1-1.56.84c-.89,0-1.25-.45-1.25-1,0-1.1,1.41-1.08,2.7-1.08H462Z"/><path class="cls-4" d="M468.43,342.93v-1.67H466.9v-1.53h-1.8v1.53h-1v1.67h1v3a2.45,2.45,0,0,0,2.58,2.77,2.2,2.2,0,0,0,.75-.1V346.9l-.42,0c-1,0-1.11-.49-1.11-1.33v-2.67Z"/><path class="cls-4" d="M469.35,348.57h1.8v-7.31h-1.8Zm.9-8.38a1,1,0,1,0-.95-1A1,1,0,0,0,470.25,340.19Z"/><path class="cls-4" d="M475.64,341.1a3.84,3.84,0,1,0,3.8,3.84A3.75,3.75,0,0,0,475.64,341.1Zm0,5.91a2.08,2.08,0,1,1,2-2.07A1.94,1.94,0,0,1,475.64,347Z"/><path class="cls-4" d="M484,341.1a2.37,2.37,0,0,0-2.1,1.07v-.9h-1.78v7.31h1.78v-4.06a1.5,1.5,0,0,1,1.53-1.65c1,0,1.41.71,1.41,1.65v4.06h1.79v-4.44C486.66,342.6,485.84,341.1,484,341.1Z"/><path class="cls-4" d="M490.76,344.21c-.57-.13-1.53-.17-1.53-.82s.54-.75,1.06-.75a1.05,1.05,0,0,1,1.12.75L493,343a2.65,2.65,0,0,0-2.75-1.89c-1.69,0-2.82.91-2.82,2.29s.71,1.93,2.1,2.22c.85.19,1.88.16,1.88.85,0,.49-.42.77-1.18.77-1,0-1.33-.49-1.38-.79l-1.73.54c.32,1.23,1.71,1.79,3.09,1.79,2,0,3-1,3-2.44C493.29,345.09,492.51,344.6,490.76,344.21Z"/><path class="cls-2" d="M122.08,130.05A53.28,53.28,0,0,0,113.84,118L124.07,110A65.67,65.67,0,0,0,94.69,90.73L91.3,103.19a53.77,53.77,0,0,0-11.71-2.55c-1-.09-1.89-.09-2.84-.13L78,87.62a65.73,65.73,0,0,0-33.55,7l6.37,11.27a53.24,53.24,0,0,0-12.16,8.23l-8.23-10a65.69,65.69,0,0,0-19,28.75l12.46,3.46a53.28,53.28,0,0,0-2.7,12.14c-.08.78-.07,1.56-.11,2.34L8.2,149.58a65.75,65.75,0,0,0,7,34l11.26-6.37a53.68,53.68,0,0,0,8.31,12.27l-10,8.23a65.68,65.68,0,0,0,29.18,19.07l3.45-12.44a54,54,0,0,0,11.67,2.54c.92.09,1.83.08,2.74.13l-1.28,12.89a65.77,65.77,0,0,0,33.83-7.1L98,201.52a53.5,53.5,0,0,0,12.18-8.32l8.2,10a65.66,65.66,0,0,0,18.9-28.94l-12.42-3.48A54.1,54.1,0,0,0,127.43,159c.09-.9.09-1.79.13-2.69l12.87,1.43a65.61,65.61,0,0,0-7.09-34ZM70.52,192a38.46,38.46,0,1,1,42.08-34.48A38.45,38.45,0,0,1,70.52,192Z"/><path class="cls-2" d="M191.19,94.94l-7.36.66a22.74,22.74,0,0,0-2.39-8.44l6.69-3a29.74,29.74,0,0,0-7.3-9.36l-4.68,5.66a20.24,20.24,0,0,0-7.75-4.29l2.44-7a29.69,29.69,0,0,0-11.41-1.31l.73,7.35a22.4,22.4,0,0,0-8.56,2.37l-3.2-6.69a28.88,28.88,0,0,0-6.5,4.38A28.32,28.32,0,0,0,139.26,78l5.7,4.78a22.16,22.16,0,0,0-4.27,7.71l-7-2.5a30.2,30.2,0,0,0-1.46,11.6l7.44-.66a22,22,0,0,0,1.59,6.82c.24.58.57,1.11.85,1.67l-6.82,3.26a29.59,29.59,0,0,0,7.33,9.22l4.8-5.77a22.87,22.87,0,0,0,7.66,4.21l-2.51,7.12a29.11,29.11,0,0,0,10.85,1.47l.7-.07-.66-7.5a21.85,21.85,0,0,0,8.42-2.44l3.26,6.78a30.32,30.32,0,0,0,9.11-7.19l-5.8-4.72a22,22,0,0,0,4.42-7.74l7,2.54c.1-.3.21-.6.3-.91A28.86,28.86,0,0,0,191.19,94.94ZM145.88,95a16,16,0,1,1,8.34,16.35A16.16,16.16,0,0,1,145.88,95Z"/><g class="cls-5"><path class="cls-6" d="M525.16,175.53H369.1a6,6,0,0,1-6-6V6a6,6,0,0,1,6-6H525.16a6,6,0,0,1,6,6V169.57a6,6,0,0,1-6,6Z"/></g><rect class="cls-3" x="384.01" y="95.12" width="127.58" height="2.93"/><rect class="cls-3" x="384.01" y="101.83" width="127.58" height="2.93"/><rect class="cls-3" x="384.01" y="108.54" width="127.58" height="2.93"/><rect class="cls-3" x="384.01" y="145.24" width="89.35" height="2.93"/><rect class="cls-3" x="384.01" y="151.95" width="127.58" height="2.93"/><rect class="cls-3" x="384.01" y="158.66" width="127.58" height="2.93"/><rect class="cls-3" x="384.01" y="120.18" width="75.2" height="2.93"/><rect class="cls-3" x="384.01" y="126.89" width="127.58" height="2.93"/><rect class="cls-3" x="384.01" y="133.6" width="127.58" height="2.93"/><path class="cls-3" d="M386.4,86.6H507.86a3.76,3.76,0,0,0,3.74-3.74V17.67a3.76,3.76,0,0,0-3.74-3.74H386.4a3.76,3.76,0,0,0-3.74,3.74V82.86a3.76,3.76,0,0,0,3.74,3.74Z"/><path class="cls-4" d="M393.22,78.8h44.47a2.13,2.13,0,0,0,2.13-2.14V23.87a2.12,2.12,0,0,0-2.13-2.13H393.22a2.13,2.13,0,0,0-2.14,2.13V76.66a2.15,2.15,0,0,0,2.14,2.14Z"/><path class="cls-7" d="M414.82,53.22h-.1c-3.15,0-8.19-5.15-8.19-10.65s3.67-9.27,8.38-9.27c4.53,0,8.19,3.77,8.19,9.27S418.07,53.22,414.82,53.22Z"/><path class="cls-7" d="M398,64.88a9.35,9.35,0,0,1,1.55-3.76,7.68,7.68,0,0,1,2.92-2.29,33.27,33.27,0,0,1,5.66-2.11,24.93,24.93,0,0,1,13.42,0,33.27,33.27,0,0,1,5.66,2.11,7.65,7.65,0,0,1,2.91,2.29,9.08,9.08,0,0,1,1.55,3.76c.09.39.27,2.27.54,5.24H397.44C397.71,67.15,397.9,65.27,398,64.88Z"/><path class="cls-4" d="M485.23,39H462.51a.65.65,0,1,1,0-1.3h22.72a.65.65,0,1,1,0,1.3Z"/><path class="cls-4" d="M491.32,34.58H462.51a.66.66,0,1,1,0-1.31h28.81a.66.66,0,1,1,0,1.31Z"/><path class="cls-4" d="M497.42,30.16H462.51a.65.65,0,1,1,0-1.3h34.91a.65.65,0,0,1,0,1.3Z"/><rect class="cls-4" x="445.33" y="27.38" width="13.1" height="13.1" rx="0.75"/><path class="cls-8" d="M451.08,37.42a.75.75,0,0,1-.53-.22l-2.86-2.86a.75.75,0,0,1,1.06-1.05L451,35.56,455,30.71a.74.74,0,1,1,1.16.93l-4.45,5.51a.75.75,0,0,1-.54.27Z"/><path class="cls-4" d="M485.23,54.66H462.51a.65.65,0,1,1,0-1.3h22.72a.65.65,0,1,1,0,1.3Z"/><path class="cls-4" d="M497.42,50.25H462.51a.65.65,0,1,1,0-1.3h34.91a.65.65,0,0,1,0,1.3Z"/><path class="cls-4" d="M497.42,45.84H462.51a.66.66,0,0,1-.66-.65.67.67,0,0,1,.66-.66h34.91a.66.66,0,0,1,.65.66A.65.65,0,0,1,497.42,45.84Z"/><rect class="cls-4" x="445.33" y="43.05" width="13.1" height="13.1" rx="0.75"/><path class="cls-8" d="M451.08,53.1a.75.75,0,0,1-.53-.22L447.69,50a.74.74,0,0,1,0-1,.75.75,0,0,1,1.06,0L451,51.24,455,46.38a.75.75,0,0,1,1.16.94l-4.45,5.5a.75.75,0,0,1-.54.27Z"/><path class="cls-4" d="M485.23,70.34H462.51a.66.66,0,0,1-.66-.65.67.67,0,0,1,.66-.66h22.72a.67.67,0,0,1,.66.66A.66.66,0,0,1,485.23,70.34Z"/><path class="cls-4" d="M491.32,65.93H462.51a.67.67,0,0,1-.66-.66.66.66,0,0,1,.66-.65h28.81a.65.65,0,0,1,.66.65A.66.66,0,0,1,491.32,65.93Z"/><path class="cls-4" d="M497.42,61.51H462.51a.65.65,0,1,1,0-1.3h34.91a.65.65,0,0,1,0,1.3Z"/><rect class="cls-4" x="445.33" y="58.72" width="13.1" height="13.1" rx="0.75"/><path class="cls-8" d="M451.08,68.77a.75.75,0,0,1-.53-.22l-2.86-2.86a.75.75,0,0,1,1.06-1.06L451,66.91,455,62.05a.75.75,0,0,1,1.16.94l-4.45,5.5a.72.72,0,0,1-.54.28Z"/><path class="cls-9" d="M622.51,198.8H550.39a7.66,7.66,0,0,1-7.66-7.65V86.59a7.66,7.66,0,0,1,7.66-7.65h72.12a7.66,7.66,0,0,1,7.66,7.65V191.15a7.66,7.66,0,0,1-7.66,7.65Z"/><path class="cls-3" d="M571.78,179.49H568l2.69-2.69a1,1,0,0,0-1.39-1.39l-2.68,2.69v-3.8a1,1,0,0,0-2,0v3.8L562,175.41a1,1,0,0,0-1.38,0,1,1,0,0,0,0,1.39l2.69,2.69h-3.8a1,1,0,1,0,0,1.95h3.8l-2.69,2.69a1,1,0,0,0,0,1.38,1,1,0,0,0,1.38,0l2.69-2.68v3.8a1,1,0,0,0,2,0v-3.8l2.68,2.68a1,1,0,0,0,.7.29.94.94,0,0,0,.69-.29,1,1,0,0,0,0-1.38L568,181.44h3.8a1,1,0,1,0,0-1.95Z"/><path class="cls-3" d="M592.61,179.49h-3.8l2.69-2.69a1,1,0,0,0,0-1.39,1,1,0,0,0-1.38,0l-2.69,2.69v-3.8a1,1,0,1,0-2,0v3.8l-2.69-2.69a1,1,0,0,0-1.38,0,1,1,0,0,0,0,1.39l2.69,2.69h-3.8a1,1,0,1,0,0,1.95h3.8l-2.69,2.69a1,1,0,0,0,0,1.38,1,1,0,0,0,1.38,0l2.69-2.68v3.8a1,1,0,1,0,2,0v-3.8l2.69,2.68a1,1,0,0,0,1.38,0,1,1,0,0,0,0-1.38l-2.69-2.69h3.8a1,1,0,1,0,0-1.95Z"/><path class="cls-3" d="M613.44,179.49h-3.8l2.69-2.69a1,1,0,0,0,0-1.39,1,1,0,0,0-1.38,0l-2.69,2.69v-3.8a1,1,0,1,0-2,0v3.8l-2.68-2.69a1,1,0,1,0-1.39,1.39l2.69,2.69h-3.8a1,1,0,1,0,0,1.95h3.8l-2.69,2.69a1,1,0,0,0,0,1.38.94.94,0,0,0,.69.29,1,1,0,0,0,.7-.29l2.68-2.68v3.8a1,1,0,0,0,2,0v-3.8l2.69,2.68a1,1,0,0,0,1.38,0,1,1,0,0,0,0-1.38l-2.69-2.69h3.8a1,1,0,1,0,0-1.95Z"/><path class="cls-10" d="M240.55,647H77a7.73,7.73,0,0,1-7.72-7.73v-239A7.72,7.72,0,0,1,77,392.62H240.55a7.72,7.72,0,0,1,7.72,7.72v239a7.73,7.73,0,0,1-7.72,7.73Z"/><g class="cls-11"><rect class="cls-4" x="107.7" y="494.13" width="20.77" height="20.77" transform="translate(622.6 386.44) rotate(90)"/><rect class="cls-4" x="107.7" y="520.58" width="20.77" height="20.77" transform="translate(649.04 412.88) rotate(90)"/><rect class="cls-4" x="107.7" y="547.02" width="20.77" height="20.77" transform="translate(675.49 439.32) rotate(90)"/><rect class="cls-4" x="107.7" y="573.46" width="20.77" height="20.77" transform="translate(701.93 465.77) rotate(90)"/><rect class="cls-4" x="187.03" y="494.13" width="20.77" height="20.77" transform="translate(701.93 307.11) rotate(90)"/><rect class="cls-4" x="187.03" y="520.58" width="20.77" height="20.77" transform="translate(728.37 333.55) rotate(90)"/><rect class="cls-4" x="187.03" y="547.02" width="20.77" height="20.77" transform="translate(754.82 359.99) rotate(90)"/><rect class="cls-4" x="187.03" y="573.46" width="20.77" height="20.77" transform="translate(781.26 386.44) rotate(90)"/><rect class="cls-4" x="160.58" y="494.13" width="20.77" height="20.77" transform="translate(675.49 333.55) rotate(90)"/><rect class="cls-4" x="160.58" y="520.58" width="20.77" height="20.77" transform="translate(701.93 359.99) rotate(90)"/><rect class="cls-4" x="160.58" y="547.02" width="20.77" height="20.77" transform="translate(728.37 386.44) rotate(90)"/><rect class="cls-4" x="160.58" y="573.46" width="20.77" height="20.77" transform="translate(754.82 412.88) rotate(90)"/><rect class="cls-4" x="134.14" y="494.13" width="20.77" height="20.77" transform="translate(649.04 359.99) rotate(90)"/><rect class="cls-4" x="134.14" y="520.58" width="20.77" height="20.77" transform="translate(675.49 386.44) rotate(90)"/><rect class="cls-4" x="134.14" y="547.02" width="20.77" height="20.77" transform="translate(701.93 412.88) rotate(90)"/><rect class="cls-4" x="134.14" y="573.46" width="20.77" height="20.77" transform="translate(728.37 439.32) rotate(90)"/></g><rect class="cls-12" x="99.55" y="414.08" width="118.44" height="4.62"/><rect class="cls-12" x="108.77" y="421.59" width="100.01" height="4.62"/><path class="cls-4" d="M134.5,477.37a1.45,1.45,0,1,1-1.44-1.32A1.39,1.39,0,0,1,134.5,477.37Z"/><path class="cls-4" d="M142,477.37a1.46,1.46,0,1,1-1.45-1.32A1.39,1.39,0,0,1,142,477.37Z"/><path class="cls-4" d="M149.58,477.37a1.46,1.46,0,1,1-1.45-1.32A1.39,1.39,0,0,1,149.58,477.37Z"/><path class="cls-4" d="M157.11,477.37a1.45,1.45,0,1,1-1.44-1.32A1.38,1.38,0,0,1,157.11,477.37Z"/><path class="cls-4" d="M164.65,477.37a1.45,1.45,0,1,1-1.45-1.32A1.39,1.39,0,0,1,164.65,477.37Z"/><path class="cls-4" d="M172.19,477.37a1.46,1.46,0,1,1-1.45-1.32A1.39,1.39,0,0,1,172.19,477.37Z"/><path class="cls-4" d="M179.72,477.37a1.45,1.45,0,1,1-1.44-1.32A1.38,1.38,0,0,1,179.72,477.37Z"/><path class="cls-4" d="M187.26,477.37a1.45,1.45,0,1,1-1.45-1.32A1.39,1.39,0,0,1,187.26,477.37Z"/><path class="cls-4" d="M206.47,457.48H109a1.32,1.32,0,0,1-.94-.39,1.31,1.31,0,0,1-.38-.93v-13.3a1.33,1.33,0,0,1,.38-.94,1.36,1.36,0,0,1,.94-.38h97.45a1.31,1.31,0,0,1,.94.38,1.34,1.34,0,0,1,.39.94v13.3a1.33,1.33,0,0,1-1.33,1.32Z"/><path class="cls-2" d="M206.47,482.26H109a1.32,1.32,0,0,1-.94-.39,1.31,1.31,0,0,1-.38-.93v-13.3a1.33,1.33,0,0,1,.38-.94,1.36,1.36,0,0,1,.94-.38h97.45a1.36,1.36,0,0,1,.94.38,1.34,1.34,0,0,1,.39.94v13.3a1.33,1.33,0,0,1-1.33,1.32Z"/><path class="cls-2" d="M119.58,450c1.1,0,2.86-1.78,2.86-3.69a2.89,2.89,0,1,0-5.75,0C116.69,448.25,118.46,450,119.58,450Z"/><path class="cls-2" d="M125.41,454.08a3.22,3.22,0,0,0-.54-1.31,2.61,2.61,0,0,0-1-.79,11.45,11.45,0,0,0-2-.74,8.91,8.91,0,0,0-4.66,0,11.14,11.14,0,0,0-2,.74,2.72,2.72,0,0,0-1,.79,3.21,3.21,0,0,0-.53,1.31c0,.13-.1.78-.19,1.82H125.6C125.5,454.86,125.44,454.21,125.41,454.08Z"/><path class="cls-4" d="M119.57,467.93a3,3,0,0,0-2.95,3v2.6a.58.58,0,0,0,1.16,0v-2.6a1.79,1.79,0,0,1,.31-1,1.78,1.78,0,0,1,3,0,1.79,1.79,0,0,1,.3,1v2.6a.59.59,0,0,0,1.17,0v-2.6A3,3,0,0,0,119.57,467.93Z"/><path class="cls-4" d="M123.48,472.88a.8.8,0,0,0-.57-.24h-6.68a.8.8,0,0,0-.57.24.79.79,0,0,0-.23.56v5.74a.79.79,0,0,0,.8.8h6.68a.79.79,0,0,0,.8-.8v-5.74A.79.79,0,0,0,123.48,472.88Zm-3.09,4.27.19.88a.32.32,0,0,1-.06.25.3.3,0,0,1-.23.11h-1.45a.3.3,0,0,1-.22-.11.28.28,0,0,1-.06-.25l.37-1.75a1.07,1.07,0,0,1-.45-.87,1.09,1.09,0,1,1,2.17,0,1.06,1.06,0,0,1-.44.87Z"/><path class="cls-2" d="M142,449.51a1.42,1.42,0,1,1-1.42-1.42A1.42,1.42,0,0,1,142,449.51Z"/><path class="cls-2" d="M149.34,449.51a1.42,1.42,0,1,1-1.42-1.42A1.43,1.43,0,0,1,149.34,449.51Z"/><path class="cls-2" d="M156.72,449.51a1.42,1.42,0,1,1-1.42-1.42A1.42,1.42,0,0,1,156.72,449.51Z"/><path class="cls-2" d="M164.11,449.51a1.42,1.42,0,1,1-1.42-1.42A1.43,1.43,0,0,1,164.11,449.51Z"/><path class="cls-2" d="M171.49,449.51a1.42,1.42,0,1,1-1.41-1.42A1.42,1.42,0,0,1,171.49,449.51Z"/><path class="cls-2" d="M178.88,449.51a1.42,1.42,0,1,1-1.42-1.42A1.43,1.43,0,0,1,178.88,449.51Z"/><path class="cls-2" d="M186.27,449.51a1.42,1.42,0,1,1-1.42-1.42A1.43,1.43,0,0,1,186.27,449.51Z"/><path class="cls-2" d="M193.65,449.51a1.42,1.42,0,1,1-1.42-1.42A1.42,1.42,0,0,1,193.65,449.51Z"/><circle class="cls-4" cx="140.53" cy="475.41" r="1.42"/><circle class="cls-4" cx="147.92" cy="475.41" r="1.42"/><path class="cls-4" d="M156.72,475.41A1.42,1.42,0,1,1,155.3,474,1.42,1.42,0,0,1,156.72,475.41Z"/><circle class="cls-4" cx="162.69" cy="475.41" r="1.42"/><path class="cls-4" d="M171.49,475.41a1.42,1.42,0,1,1-1.41-1.42A1.42,1.42,0,0,1,171.49,475.41Z"/><circle class="cls-4" cx="177.46" cy="475.41" r="1.42"/><circle class="cls-4" cx="184.85" cy="475.41" r="1.42"/><path class="cls-4" d="M193.65,475.41a1.42,1.42,0,1,1-1.42-1.42A1.42,1.42,0,0,1,193.65,475.41Z"/><rect class="cls-12" x="99.55" y="609.32" width="118.44" height="4.62"/><rect class="cls-12" x="108.77" y="616.83" width="100.01" height="4.62"/><path class="cls-13" d="M0,467.31H0v0Z"/><path class="cls-13" d="M0,467.31H0v0Z"/><path class="cls-13" d="M99.91,467.76v0Z"/><path class="cls-13" d="M99.91,467.76v0Z"/><path class="cls-3" d="M50.14,443.84c-11.06,11.84-28.71,21.55-47.59,25.69,0,1.26,0,8.25-.18,40.46-.19,43,40.69,64,47,67.18,6.15-2.83,47.56-23.8,47.75-66.76.14-32.21.18-39.2.18-40.46C78.5,465.65,61.09,455.78,50.14,443.84Z"/><path class="cls-14" d="M50,448.5C38.64,459,22.84,467.18,5.48,471.66L5.3,510c-.07,17.53,6.89,33.4,20.71,47.15a99.12,99.12,0,0,0,23.47,17.16l.66-.34V448.59Z"/><path class="cls-15" d="M50.14,448.59V574a99.12,99.12,0,0,0,23-16.61c13.94-13.63,21.05-29.43,21.12-47l.18-38.33C77.12,467.43,61.44,459.1,50.14,448.59Z"/><path class="cls-2" d="M577,111.92l-.82-2a5.71,5.71,0,0,0-5.3-3.57h-15v50.2H618V115.85H582.85A6.28,6.28,0,0,1,577,111.92Z"/><path class="cls-2" d="M74,510.11a23.94,23.94,0,1,0-23.94,23.94A23.94,23.94,0,0,0,74,510.11Z"/><path class="cls-16" d="M57.74,500.51a7.69,7.69,0,1,0-7.68,7.68A7.68,7.68,0,0,0,57.74,500.51Z"/><path class="cls-16" d="M50.06,508.19a13.45,13.45,0,0,1,13.45,13.45H36.61A13.45,13.45,0,0,1,50.06,508.19Z"/></g></g></g></svg>