<svg id="eUtqsMJDVum1" xmlns="http://www.w3.org/2000/svg" xmlns:xlink="http://www.w3.org/1999/xlink" viewBox="0 0 1742 2064.1" shape-rendering="geometricPrecision" text-rendering="geometricPrecision"><g transform="translate(0-.001318)"><g><path d="M820,1491.67c-3.009952.027614-5.472386-2.390048-5.5-5.4s2.390048-5.472386,5.4-5.5c5.38-.1,10.83-.27,16.18-.49c2.992638-.104586,5.509118,2.224872,5.635493,5.216669s-2.184696,5.525173-5.175493,5.673331c-5.44.23-11,.4-16.44.5Zm-31.78-.18h-.16c-5.48-.16-11-.39-16.47-.69-1.981647-.053584-3.777921-1.178955-4.69065-2.938706s-.797951-3.876326.299721-5.527057s3.005108-2.575258,4.980929-2.414237c5.36.29,10.81.51,16.2.67c3.009952.044183,5.414183,2.520048,5.37,5.53s-2.520048,5.414183-5.53,5.37Zm79.79-2.41c-2.921841.007358-5.329649-2.290764-5.458429-5.209775s2.067291-5.420246,4.978429-5.670225c5.36-.48,10.78-1,16.12-1.66c2.990622-.345178,5.694822,1.799378,6.04,4.79s-1.799378,5.694822-4.79,6.04c-5.43.63-10.94,1.19-16.4,1.68-.165876.020436-.33287.030455-.5.03Zm-127.8-.72h-.56c-5.44-.55-10.95-1.18-16.37-1.87-1.970173-.198875-3.67746-1.450725-4.459552-3.269918s-.515915-3.919458.69527-5.486034s3.176786-2.352944,5.134282-2.054048c5.33.67,10.75,1.29,16.11,1.83c2.928587.246538,5.134247,2.770747,4.985868,5.705945s-2.597348,5.224108-5.535868,5.174055ZM915.73,1483c-2.840459-.000359-5.204362-2.182256-5.43181-5.013594s1.757833-5.362616,4.56181-5.816406c5.32-.87,10.69-1.82,16-2.82c2.911381-.454183,5.656541,1.4879,6.197442,4.384423s-1.318359,5.698441-4.197442,6.325577c-5.36,1-10.82,2-16.23,2.87-.297532.048319-.598575.071734-.9.07Zm-223.19-1.26c-.318252-.002205-.635861-.028951-.95-.08-5.4-1-10.85-2-16.2-3.06-2.951962-.596468-4.861467-3.473038-4.265-6.425s3.473038-4.861467,6.425-4.265c5.26,1.07,10.62,2.08,15.93,3c2.789288.48323,4.744231,3.021493,4.499222,5.841707s-2.60839,4.983317-5.439222,4.978293Zm270.36-8.26c-2.76267.00008-5.088392-2.066996-5.412518-4.810586s1.455885-5.295716,4.142518-5.939414c5.23-1.25,10.52-2.59,15.71-4c1.893459-.539241,3.930555-.015378,5.328971,1.370409s1.940737,3.418046,1.418695,5.316319-2.027287,3.367434-3.937666,3.843272c-5.28,1.41-10.65,2.77-16,4-.405114.13148-.824999.212098-1.25.24Zm-317.42-1.8c-.448912.002582-.896171-.054586-1.33-.17-5.3-1.33-10.66-2.76-15.93-4.23-1.875644-.523394-3.329584-2.007675-3.814133-3.893727s.073905-3.887342,1.465-5.25s3.403489-1.879667,5.279133-1.356273c5.18,1.45,10.46,2.85,15.66,4.16c2.677325.663375,4.436931,3.22245,4.097945,5.959825s-2.669678,4.789923-5.427945,4.780175Zm363.77-11.14c-2.684358-.001599-4.967817-1.957607-5.381612-4.60988s1.165314-5.2109,3.721612-6.03012c5.11-1.64,10.29-3.36,15.38-5.13c1.839918-.637719,3.880291-.245411,5.352531,1.029145s2.152678,3.237725,1.785,5.15-1.727613,3.483136-3.567531,4.120855c-5.17,1.8-10.44,3.55-15.64,5.21-.531742.179965-1.088657.274472-1.65.28Zm-410-2.34c-.584137.003275-1.164962-.087901-1.72-.27-5.22-1.74-10.48-3.56-15.63-5.41-2.833221-1.018965-4.303965-4.141779-3.285-6.975s4.141779-4.303965,6.975-3.285c5.07,1.83,10.24,3.62,15.37,5.32c2.532916.844803,4.080801,3.400271,3.656339,6.036402s-2.696263,4.576565-5.366339,4.583598Zm455.23-14c-2.612864.001202-4.857526-1.855392-5.346425-4.42211s.916076-5.11848,3.346425-6.07789c5-2,10-4.09,14.91-6.22c2.726359-1.034177,5.783734.260799,6.937861,2.938587s-.003919,5.78961-2.627861,7.061413c-5,2.16-10.11,4.29-15.16,6.32-.637627.280043-1.323796.432902-2.02.45Zm-500.43-2.9c-.717895.002721-1.428888-.140158-2.09-.42-5.06-2.1-10.17-4.3-15.18-6.53-1.786328-.791343-3.014786-2.475569-3.222627-4.418246s.636513-3.848667,2.215-5s3.651299-1.373097,5.437627-.581754c4.93,2.2,10,4.36,14.93,6.43c2.395979.999348,3.754491,3.549992,3.246767,6.095896s-2.740732,4.3803-5.336767,4.384104Zm544.28-16.62c-2.532871-.002936-4.729876-1.75048-5.302553-4.217763s.629937-5.003907,2.902553-6.122237c4.83-2.37,9.68-4.82,14.43-7.29c2.64282-1.201965,5.763941-.12112,7.097427,2.45784s.411133,5.750536-2.097427,7.21216c-4.83,2.51-9.77,5-14.68,7.41-.716685.366975-1.505318.571815-2.31.6Zm-588.1-3.51c-.850485-.00166-1.68904-.200175-2.45-.58-4.89-2.47-9.82-5-14.65-7.63-1.783201-.882646-2.943683-2.666916-3.02749-4.654841s.922381-3.863538,2.624965-4.893139s3.830949-1.04954,5.552525-.05202c4.75,2.54,9.6,5.07,14.41,7.49c2.259137,1.134907,3.441171,3.674458,2.854948,6.133738s-2.786772,4.192517-5.314948,4.186262Zm630.44-19.16c-2.464549.003636-4.624833-1.647135-5.268742-4.026084s.388824-4.893971,2.518742-6.133916c4.64-2.71,9.31-5.51,13.87-8.33c1.657712-1.02178,3.734615-1.081564,5.448358-.156833s2.803969,2.69349,2.86,4.64-.930646,3.775053-2.588358,4.796833c-4.64,2.86-9.38,5.71-14.1,8.46-.812611.502546-1.744784.778745-2.7.8ZM468.07,1398c-.986665-.002232-1.954287-.271784-2.8-.78-4.71-2.82-9.43-5.74-14-8.67-1.693631-1.020559-2.701628-2.878395-2.63393-4.854589s1.200467-3.760695,2.959967-4.662963s3.869676-.780741,5.513963.317552c4.54,2.88,9.19,5.74,13.81,8.52c2.106784,1.257253,3.113797,3.767237,2.460168,6.131976s-2.80676,4.001239-5.260168,3.998024Zm713.24-21.61c-2.393051.006824-4.510599-1.548223-5.220334-3.833615s.154403-4.766409,2.130334-6.116385c4.43-3,8.88-6.16,13.25-9.31c1.573501-1.22024,3.687231-1.48522,5.513249-.691148s3.07363,2.520783,3.254151,4.503786-.734786,3.906615-2.3874,5.017362c-4.44,3.2-9,6.39-13.46,9.47-.910286.610487-1.984012.931211-3.08.92Zm-753.62-4.66c-1.124781-.001327-2.221601-.350633-3.14-1-4.47-3.15-9-6.4-13.37-9.66-2.419007-1.792164-2.927164-5.205993-1.135-7.625s5.205993-2.927164,7.625-1.135c4.33,3.21,8.75,6.4,13.16,9.5c1.946569,1.36706,2.781687,3.838641,2.063211,6.106189s-2.824562,3.807203-5.203211,3.803811ZM1220,1347.75c-2.317781.004577-4.384901-1.457303-5.15289-3.644155s-.068815-4.620212,1.74289-6.065845c4.21-3.36,8.43-6.81,12.55-10.25c2.313133-1.834603,5.666495-1.493765,7.563195.768728s1.646992,5.62387-.563195,7.581272c-4.18,3.5-8.47,7-12.75,10.42-.961447.771259-2.157434,1.191089-3.39,1.19Zm-830.63-5.18c-1.254744.002111-2.471059-.432792-3.44-1.23-4.25-3.47-8.5-7-12.64-10.59-2.283697-1.963372-2.543372-5.406303-.58-7.69s5.406303-2.543372,7.69-.58c4.07,3.5,8.25,7,12.43,10.42c1.785712,1.459358,2.459578,3.884695,1.682644,6.05607s-2.836463,3.618683-5.142644,3.61393Zm867.12-26.14c-2.247139.003775-4.266221-1.372059-5.084745-3.464825s-.26866-4.473367,1.384745-5.995175c4-3.65,7.92-7.4,11.77-11.14c2.162195-2.095921,5.614079-2.042195,7.71.12s2.042195,5.614079-.12,7.71c-3.92,3.8-7.94,7.61-12,11.32-1.006345.932639-2.327941,1.450562-3.7,1.45Zm-903.25-5.66c-1.391142-.001136-2.729189-.534208-3.74-1.49-4-3.76-7.95-7.62-11.83-11.48-2.134581-2.123535-2.143535-5.575419-.02-7.71s5.575419-2.143535,7.71-.02c3.81,3.8,7.73,7.6,11.63,11.29c1.622589,1.534266,2.145039,3.903137,1.318345,5.977587s-2.83524,3.434689-5.068345,3.432413Zm937.4-28.24c-2.177793.010568-4.152804-1.276379-5.022747-3.272899s-.467786-4.319271,1.022747-5.907101c3.69-3.93,7.37-8,10.94-12c2.002032-2.247799,5.447201-2.447032,7.695-.445s2.447032,5.447201.445,7.695c-3.63,4.07-7.38,8.17-11.12,12.17-1.030896,1.116931-2.480049,1.754558-4,1.76Zm-971.12-6.08c-1.522515-.003128-2.973776-.645312-4-1.77-3.69-4-7.38-8.17-11-12.3-1.974418-2.272652-1.732652-5.715582.54-7.69s5.715582-1.732652,7.69.54c3.53,4.06,7.16,8.13,10.78,12.09c1.456498,1.591022,1.837594,3.891358.971998,5.86708s-2.814992,3.255032-4.971998,3.26292Zm1002.74-30.21c-2.10368.006093-4.022316-1.201276-4.927012-3.100494s-.63327-4.149827.697012-5.779506c3.38-4.18,6.77-8.47,10-12.73c1.187908-1.543387,3.108968-2.335795,5.039534-2.07873s3.577342,1.524548,4.320001,3.325.468373,3.860343-.719535,5.40373c-3.34,4.33-6.78,8.69-10.22,12.94-1.032703,1.277444-2.587337,2.019847-4.23,2.02ZM288.34,1239.8c-1.668973.004423-3.247267-.758911-4.28-2.07-3.39-4.29-6.77-8.68-10-13-1.259312-1.549774-1.570213-3.664166-.810317-5.510845s2.468892-3.129898,4.45424-3.344516s3.929092.673736,5.066077,2.315361c3.23,4.29,6.55,8.61,9.88,12.83c1.295183,1.638247,1.540316,3.872554.631143,5.752648s-2.812759,3.075326-4.901143,3.077352Zm1062.8-32c-2.028098-.006569-3.885451-1.136737-4.82337-2.93494s-.801846-3.968116.35337-5.63506c3.08-4.42,6.14-8.94,9.11-13.43c1.656854-2.512895,5.037104-3.206854,7.55-1.549999s3.206854,5.037103,1.55,7.549999c-3,4.57-6.14,9.17-9.26,13.66-1.031694,1.446896-2.702987,2.301195-4.48,2.29ZM259.94,1201c-1.809634.001603-3.502495-.893516-4.52-2.39-3.06-4.51-6.11-9.13-9.06-13.74-1.088976-1.638525-1.210324-3.736775-.317499-5.489914s2.661216-2.888997,4.626862-2.971888s3.823385.900054,4.860637,2.571802c2.91,4.53,5.91,9.07,8.91,13.51c1.132003,1.668354,1.250485,3.825354.308022,5.607656s-2.791881,2.898696-4.808022,2.902344Zm1117.27-33.77c-1.959361-.003327-3.766714-1.056285-4.735936-2.75914s-.951691-3.79449.045936-5.48086c2.76-4.64,5.49-9.37,8.11-14.07c1.471839-2.626114,4.793886-3.561839,7.42-2.09s3.561839,4.793886,2.09,7.42c-2.67,4.77-5.44,9.58-8.24,14.3-.977018,1.663576-2.760742,2.68665-4.69,2.69Zm-1142.78-7c-1.948187-.000973-3.747694-1.041789-4.72-2.73-2.73-4.73-5.43-9.55-8-14.34-.992328-1.714579-.976127-3.832599.042312-5.531798s2.878711-2.711949,4.858616-2.645078s3.767604,1.202832,4.669072,2.966876c2.57,4.71,5.23,9.46,7.91,14.11c1.500818,2.606967.605667,5.936927-2,7.44-.832269.50542-1.786298.775037-2.76.78Zm1165.83-35.36c-1.886509-.006714-3.635901-.986811-4.626778-2.592154s-1.08284-3.608466-.243222-5.297846c2.4-4.81,4.77-9.74,7.06-14.63c1.275778-2.728287,4.521713-3.905778,7.25-2.63s3.905778,4.521713,2.63,7.25c-2.33,5-4.75,10-7.19,14.88-.907921,1.87039-2.800913,3.061268-4.88,3.07ZM212,1117.83c-2.092874.003296-4.002063-1.194321-4.91-3.08-2.38-4.91-4.72-9.92-7-14.88-1.242641-2.742094-.027094-5.972359,2.715-7.215s5.972359-.027094,7.215,2.715c2.21,4.88,4.51,9.8,6.85,14.64.820915,1.687267.714353,3.678481-.281949,5.268497s-2.741682,2.55435-4.618051,2.551503ZM1420.17,1081c-1.809838-.013789-3.494767-.925147-4.496862-2.432299s-1.190617-3.413462-.503138-5.087701c2-5,4.06-10.07,6-15.12.64815-1.880395,2.269198-3.258377,4.229428-3.595251s3.94831.420861,5.187042,1.976986s1.531377,3.663492.76353,5.498265c-2,5.13-4,10.3-6.07,15.38-.848911,2.068063-2.874659,3.40799-5.11,3.38Zm-1227.5-7.12c-2.236445.004516-4.247781-1.360178-5.07-3.44-2-5.08-4-10.26-5.89-15.4-.993035-2.812561.459324-5.900899,3.258933-6.929885s5.906299.383689,6.971067,3.169885c1.86,5,3.81,10.15,5.79,15.14.665599,1.677508.457604,3.575728-.555461,5.069299s-2.699809,2.388778-4.504539,2.390701Zm1244.15-38.16c-.573931-.001756-1.144091-.092847-1.69-.27-1.376821-.443941-2.519579-1.418923-3.174776-2.708666s-.768661-2.787612-.315224-4.161334c1.66-5.11,3.29-10.31,4.83-15.48.864326-2.885688,3.904312-4.524326,6.79-3.66s4.524326,3.904312,3.66,6.79c-1.57,5.25-3.23,10.54-4.92,15.73-.733955,2.240128-2.822703,3.756285-5.18,3.76Zm-1260.23-7.19c-2.381847-.000235-4.487631-1.547177-5.2-3.82-1.64-5.21-3.23-10.52-4.74-15.79-.828427-2.893972.846028-5.911573,3.74-6.74s5.911573.846028,6.74,3.74c1.48,5.18,3.05,10.4,4.66,15.53.518747,1.655071.218726,3.458233-.807999,4.856159s-2.657539,2.22367-4.392001,2.223841Zm1273.48-39.07c-1.677826.003012-3.263522-.766958-4.29874-2.087349s-1.404557-3.044014-1.00126-4.672651c1.29-5.22,2.53-10.53,3.69-15.78.648935-2.940916,3.559084-4.798935,6.5-4.15s4.798935,3.559084,4.15,6.5c-1.18,5.34-2.45,10.74-3.76,16.05-.601289,2.428223-2.778441,4.135309-5.28,4.14Zm-1286.2-7.34c-2.526652-.002186-4.720493-1.740702-5.3-4.2-1.25-5.33-2.45-10.74-3.57-16.09-.615797-2.946439,1.273561-5.834202,4.22-6.45s5.834202,1.273561,6.45,4.22c1.1,5.26,2.28,10.58,3.51,15.83.687083,2.929787-1.130432,5.861985-4.06,6.55-.409759.095381-.829293.142369-1.25.14Zm1296-39.76c-.308302-.002256-.615936-.029007-.92-.08-1.425829-.242096-2.696966-1.040988-3.533488-2.220746s-1.169825-2.643633-.926512-4.069254c.9-5.29,1.75-10.68,2.53-16c.430782-2.979576,3.195424-5.045782,6.175-4.615s5.045782,3.195424,4.615,6.175c-.79,5.43-1.66,10.91-2.57,16.28-.450527,2.606621-2.704772,4.515355-5.35,4.53Zm-1305.3-7.45c-2.680547-.001627-4.961934-1.952255-5.38-4.6-.85-5.38-1.66-10.87-2.38-16.3-.309867-1.953652.463145-3.921828,2.019717-5.142425s3.652304-1.501969,5.475703-.735164s3.088171,2.461389,3.30458,4.427589c.72,5.35,1.51,10.74,2.35,16c.227435,1.428286-.122174,2.888403-.971831,4.058791s-2.129679,1.955061-3.558169,2.181209c-.276441.060037-.557422.096832-.84.11Zm1311.66-40.25h-.53c-1.438836-.139151-2.763449-.844223-3.682395-1.960086s-1.356937-2.551095-1.217605-3.989914c.52-5.36,1-10.79,1.36-16.16.269879-2.956456,2.856372-5.153064,5.817507-4.940582s5.207499,2.755883,5.052493,5.720582c-.39,5.46-.85,11-1.38,16.43-.281386,2.774279-2.61151,4.888651-5.4,4.9ZM148.77,887.15c-2.831108-.005917-5.186244-2.178552-5.42-5-.46-5.43-.87-11-1.2-16.44-.182254-3.004429,2.105571-5.587746,5.11-5.77s5.587746,2.105571,5.77,5.11c.33,5.4.72,10.84,1.18,16.17.12167,1.445936-.337229,2.880832-1.275362,3.987829s-2.278328,1.795032-3.724638,1.912171Zm1320.37-40.51h-.14c-1.445566-.03407-2.81834-.641204-3.816121-1.687749s-1.538771-2.446705-1.503879-3.892251c.13-5.38.2-10.83.2-16.21.039991-.388975.039991-.781025,0-1.17c0-5.4-.09-10.85-.23-16.22-.07732-3.009952,2.300048-5.51268,5.31-5.59s5.51268,2.300048,5.59,5.31c.14,5.45.22,11,.23,16.48q0,.3,0,.6c.010221.196534.010221.393466,0,.59c0,5.47-.07,11-.2,16.48-.081031,2.948988-2.489915,5.300307-5.44,5.31ZM146.42,839.08c-2.973357-.010751-5.387225-2.406804-5.42-5.38c0-3-.06-5.93-.06-8.86q0-3.81,0-7.62c.032881-2.986494,2.463325-5.390181,5.45-5.39h.06c3.007686.038435,5.417791,2.502197,5.39,5.51q0,3.75,0,7.5c0,2.88,0,5.82.06,8.72.033375,3.007839-2.372296,5.476112-5.38,5.52Zm1.1-48.1h-.32c-3.004274-.177052-5.296394-2.755688-5.12-5.76.32-5.47.71-11,1.16-16.44.118779-1.972825,1.296301-3.72674,3.077289-4.583612s3.886299-.682398,5.501936.455962s2.488374,3.062186,2.280775,5.02765c-.44,5.36-.83,10.8-1.14,16.18-.164332,2.884394-2.550929,5.139376-5.44,5.14Zm1320-10c-2.832981-.001134-5.190862-2.1763-5.42-5-.4-5.38-.87-10.81-1.39-16.15-.268548-1.976588.564203-3.941971,2.171058-5.123932s3.731059-1.391639,5.537992-.546647s3.007869,2.609632,3.13095,4.600579c.54,5.43,1,11,1.42,16.42.213001,2.987166-2.015681,5.590266-5,5.84ZM152.07,743.08c-.240777-.002418-.4812-.019114-.72-.05-2.981286-.393944-5.08009-3.128208-4.69-6.11.72-5.42,1.51-10.91,2.36-16.32.233655-1.983485,1.533514-3.68029,3.387759-4.422301s3.96583-.410359,5.50332.864369s2.254581,3.288322,1.868921,5.247932c-.83,5.32-1.61,10.72-2.31,16.05-.356192,2.710852-2.665848,4.738217-5.4,4.74Zm1310.18-9.88c-2.698493-.010418-4.984634-1.990607-5.38-4.66-.78-5.32-1.64-10.71-2.56-16-.370106-1.935844.333796-3.920682,1.840863-5.190808s3.582461-1.627618,5.427631-.934927s3.172588,2.327628,3.471506,4.275735c.93,5.39,1.81,10.87,2.6,16.27.211742,1.430979-.154098,2.887434-1.016924,4.048498s-2.151844,1.931473-3.583076,2.141502c-.265018.036875-.532453.05359-.8.05ZM160.09,695.64c-.373218-.000356-.745329-.040584-1.11-.12-1.41603-.291056-2.657978-1.133765-3.451626-2.342061s-1.073718-2.682797-.778374-4.097939c1.11-5.37,2.3-10.79,3.54-16.1.398649-1.941874,1.820277-3.514145,3.712327-4.105705s3.9561-.109106,5.389897,1.259843s2.011197,3.408477,1.507776,5.325862c-1.21,5.22-2.39,10.54-3.48,15.83-.524831,2.527745-2.748356,4.342442-5.33,4.35Zm1293.43-9.76c-2.551261-.005021-4.757621-1.77925-5.31-4.27-1.17-5.26-2.43-10.57-3.72-15.78-.726254-2.921586,1.053414-5.878746,3.975-6.605s5.878746,1.053414,6.605,3.975c1.31,5.3,2.59,10.69,3.78,16c.65167,2.940427-1.200709,5.853226-4.14,6.51-.389037.101108-.788214.158133-1.19.17Zm-1282-37c-.504308.00391-1.006417-.066857-1.49-.21-2.854979-.833178-4.514846-3.801357-3.73-6.67c1.5-5.26,3.09-10.58,4.71-15.8.897463-2.874642,3.955358-4.477463,6.83-3.58s4.477463,3.955358,3.58,6.83c-1.6,5.13-3.16,10.36-4.63,15.53-.680517,2.326595-2.815927,3.924077-5.24,3.92Zm1269.8-9.57c-2.403009-.000674-4.520902-1.577914-5.21-3.88-1.55-5.14-3.19-10.34-4.87-15.47-.938884-2.860835.619165-5.941116,3.48-6.88s5.941116.619165,6.88,3.48c1.71,5.21,3.37,10.5,4.94,15.73.86845,2.880025-.760726,5.919064-3.64,6.79-.502975.15308-1.024402.237181-1.55.25ZM186.43,603.06c-.637592-.002549-1.270048-.114159-1.87-.33-2.829335-1.036756-4.283875-4.169611-3.25-7c1.88-5.15,3.86-10.35,5.88-15.46c1.10457-2.800084,4.269916-4.174569,7.07-3.07s4.174569,4.269916,3.07,7.07c-2,5-3.93,10.14-5.78,15.2-.784571,2.152247-2.829214,3.585893-5.12,3.59Zm1239.38-9.27c-2.258753.003187-4.28449-1.389756-5.09-3.5-1.93-5-3.94-10.09-6-15.07-1.145991-2.783515.181485-5.969009,2.965-7.115s5.969009.181485,7.115,2.965c2.08,5.06,4.13,10.22,6.09,15.32c1.044126,2.802243-.360221,5.923014-3.15,7-.612802.252385-1.267368.388046-1.93.4ZM204.65,558.4c-1.855631.010777-3.589234-.923366-4.600762-2.479095s-1.161963-3.51924-.399238-5.210905c2.26-5,4.61-10,7-15c1.308915-2.711718,4.568282-3.848915,7.28-2.54s3.848915,4.568282,2.54,7.28c-2.34,4.85-4.65,9.8-6.87,14.72-.872201,1.955595-2.808745,3.219239-4.95,3.23ZM1407,549.58c-2.116716.001463-4.042824-1.222825-4.94-3.14-2.29-4.87-4.66-9.76-7-14.55-1.286852-2.683225-.183458-5.902633,2.478769-7.232381s5.898929-.278163,7.271231,2.362381c2.43,4.87,4.84,9.84,7.17,14.79.7883,1.688258.661264,3.661953-.336963,5.235222s-2.729815,2.528888-4.593037,2.534778ZM226.08,515.22c-1.921557.000059-3.701146-1.011798-4.683739-2.663129s-1.022967-3.698075-.106261-5.386871c2.61-4.81,5.32-9.66,8.06-14.41.924101-1.775946,2.747496-2.902277,4.749236-2.933654s3.859541,1.037253,4.838849,2.783364.922453,3.888576-.148085,5.58029c-2.68,4.67-5.35,9.44-7.92,14.18-.953381,1.756359-2.791567,2.850061-4.79,2.85ZM1385,506.88c-1.972565.001805-3.790963-1.066264-4.75-2.79-2.63-4.68-5.36-9.39-8.1-14-1.538113-2.587454-.687454-5.931887,1.9-7.47s5.931887-.687454,7.47,1.9c2.79,4.69,5.56,9.48,8.23,14.24.94826,1.687394.930393,3.751135-.046939,5.421859s-2.767475,2.697726-4.703061,2.698141ZM250.59,473.74c-1.04364.001297-2.065127-.30098-2.94-.87-2.530508-1.626834-3.268345-4.994055-1.65-7.53c3-4.6,6-9.24,9.08-13.78c1.031254-1.748217,2.948575-2.778519,4.975583-2.673705s3.827836,1.327377,4.673275,3.172635.595405,4.007462-.648858,5.61107c-3,4.46-6,9-8.93,13.56-.996427,1.555364-2.71286,2.500155-4.56,2.51ZM1360,465.87c-1.832511.001814-3.542793-.919106-4.55-2.45-3-4.47-6-9-9.09-13.39-1.114669-1.596977-1.292688-3.667314-.466999-5.431134s2.529643-2.953157,4.47-3.12s3.82233.714157,4.936999,2.311134c3.12,4.49,6.24,9.07,9.24,13.62c1.100857,1.673992,1.196459,3.816455.249075,5.581844s-2.785561,2.870104-4.789075,2.878156ZM278,434.16c-1.176743.003669-2.322113-.379293-3.26-1.09-1.157895-.865767-1.924335-2.15614-2.130637-3.587123s.164443-2.885301,1.030637-4.042877c3.29-4.38,6.67-8.78,10.05-13.07c1.181082-1.597179,3.13762-2.425254,5.106432-2.16122s3.638037,1.578354,4.356565,3.430286.372543,3.94813-.902997,5.470934c-3.33,4.23-6.65,8.56-9.88,12.87-1.030323,1.376411-2.650683,2.184737-4.37,2.18Zm1054-7.4c-1.694067.005539-3.292917-.782783-4.32-2.13-3.28-4.25-6.66-8.52-10-12.7-1.897098-2.338926-1.538926-5.772902.8-7.67s5.772902-1.538926,7.67.8c3.44,4.25,6.88,8.6,10.21,12.92c1.832648,2.386122,1.385029,5.80593-1,7.64-.959246.748311-2.143439,1.150091-3.36,1.14ZM308.28,396.7c-2.120636-.018159-4.038926-1.262626-4.919873-3.191708s-.565173-4.193772.809873-5.808292c3.58-4.13,7.27-8.27,11-12.31c2.029646-2.222946,5.477054-2.379646,7.7-.35s2.379646,5.477054.35,7.7c-3.63,4-7.25,8.05-10.78,12.11-1.051154,1.192964-2.570112,1.868462-4.16,1.85Zm993-6.94c-1.553563-.001169-3.033345-.662889-4.07-1.82-3.57-4-7.25-8-10.94-12-2.060022-2.209139-1.939139-5.669978.27-7.73s5.669978-1.939139,7.73.27c3.75,4,7.49,8.09,11.13,12.15c1.428853,1.605413,1.782995,3.899713.904728,5.861248s-2.825551,3.225383-4.974728,3.228752ZM341.14,361.53c-2.206398.001031-4.195731-1.328362-5.0389-3.367297s-.373797-4.385086,1.1889-5.942703c3.87-3.86,7.85-7.72,11.82-11.49c2.184286-2.071068,5.633932-1.979286,7.705.205s1.979286,5.633932-.205,7.705c-3.91,3.71-7.82,7.51-11.63,11.3-1.01724,1.020143-2.399353,1.592425-3.84,1.59ZM1268,355.06c-1.416204.002519-2.776931-.550389-3.79-1.54-3.86-3.73-7.83-7.48-11.79-11.13-2.064674-2.069672-2.12863-5.399729-.144948-7.547152s5.308354-2.347235,7.534948-.452848c4,3.72,8.06,7.52,12,11.32c1.598362,1.543847,2.099311,3.903516,1.266048,5.963588s-2.833837,3.407919-5.056048,3.406412ZM376.44,328.84c-2.279183.001646-4.318689-1.415139-5.112606-3.551579s-.174556-4.54128,1.552606-6.028421c4.13-3.56,8.37-7.12,12.61-10.59c1.497262-1.312275,3.590954-1.703676,5.461171-1.020926s3.219309,2.330989,3.518962,4.299254-.497824,3.943302-2.080133,5.151672c-4.16,3.41-8.33,6.92-12.4,10.42-.988387.848707-2.247233,1.316785-3.55,1.32Zm855.77-6c-1.276294-.000827-2.511665-.450374-3.49-1.27-4.12-3.45-8.35-6.91-12.57-10.26-2.355494-1.875007-2.745007-5.304506-.87-7.66s5.304506-2.745007,7.66-.87c4.29,3.41,8.58,6.92,12.78,10.43c1.76019,1.472633,2.409248,3.890142,1.623338,6.046357s-2.838368,3.589059-5.133338,3.583643ZM414,298.8c-2.353267.002955-4.442652-1.504875-5.181364-3.739193s.040111-4.690437,1.931364-6.090807c4.38-3.25,8.87-6.5,13.33-9.65c2.460429-1.734174,5.860826-1.145429,7.595,1.315s1.145429,5.860826-1.315,7.595c-4.39,3.1-8.8,6.29-13.12,9.49-.933695.702993-2.071249,1.082177-3.24,1.08Zm780.21-5.5c-1.13914.011752-2.252608-.338395-3.18-1-4.38-3.15-8.85-6.29-13.28-9.33-1.607695-1.098592-2.507175-2.971427-2.359614-4.913028s1.319744-3.656991,3.075-4.5s3.826919-.685564,5.434614.413028c4.51,3.08,9,6.27,13.5,9.48c1.917862,1.383478,2.724699,3.845905,1.997438,6.096082s-2.822654,3.774598-5.187438,3.773918ZM453.6,271.57c-2.423233-.005034-4.553223-1.606622-5.230841-3.933189s.25928-4.821395,2.300841-6.126811c4.61-2.92,9.32-5.83,14-8.65c2.581931-1.55192,5.93308-.716931,7.485,1.865s.716931,5.93308-1.865,7.485c-4.6,2.76-9.23,5.62-13.76,8.51-.876747.554461-1.892643.849175-2.93.85Zm700.53-5c-1.01019.001802-2.00078-.278749-2.86-.81-4.58-2.82-9.27-5.62-13.93-8.34-1.682721-.980694-2.714425-2.784614-2.70648-4.73224s1.054334-3.743068,2.745-4.71s3.768759-.958454,5.45148.02224c4.73,2.76,9.5,5.61,14.16,8.48c2.075644,1.27886,3.049456,3.780664,2.384603,6.126245s-2.806616,3.964279-5.244603,3.963755ZM495.06,247.29c-2.529338.039887-4.753634-1.665907-5.37109-4.119045s.534259-5.008677,2.78109-6.170955c4.81-2.59,9.71-5.14,14.58-7.61c2.686865-1.35862,5.966379-.281865,7.325,2.405s.281865,5.966379-2.405,7.325c-4.78,2.42-9.61,4.94-14.34,7.48-.786019.439989-1.669305.677136-2.57.69Zm617.14-4.46c-.874576.000029-1.736024-.212759-2.51-.62-4.79-2.48-9.67-4.94-14.51-7.3-2.706195-1.319961-3.829961-4.583805-2.51-7.29s4.583805-3.829961,7.29-2.51c4.92,2.4,9.89,4.9,14.75,7.43c2.23279,1.155777,3.385195,3.688955,2.789387,6.131532s-2.785194,4.160604-5.299387,4.158468ZM538.15,226.11c-2.576803.007557-4.806768-1.790623-5.34553-4.310486s.760925-5.072705,3.11553-6.119514c5-2.22,10.05-4.42,15.08-6.52c2.777992-1.159798,5.970202.152008,7.13,2.93s-.152008,5.970202-2.93,7.13c-5,2.07-9.94,4.22-14.83,6.41-.696819.317943-1.454075.481674-2.22.48Zm530.48-3.91c-.739751-.002803-1.471218-.155901-2.15-.45-5-2.13-10-4.22-15-6.23-2.61989-1.21471-3.837487-4.262121-2.775979-6.947739s4.033584-4.077032,6.775979-3.172261c5.09,2,10.22,4.17,15.27,6.34c2.379764,1.019031,3.714292,3.57153,3.193081,6.107282s-2.754318,4.354943-5.343081,4.352718Zm-486-14.06c-2.653469.009788-4.928339-1.892898-5.387786-4.506306s1.030082-5.177888,3.527786-6.073694c5.14-1.86,10.38-3.68,15.57-5.42c2.855312-.952691,5.942309.589688,6.895,3.445s-.589688,5.942309-3.445,6.895c-5.1,1.71-10.25,3.5-15.31,5.33-.589854.214764-1.212275.326394-1.84.33Zm441-3.34c-.606155.002916-1.208286-.098566-1.78-.3-5.1-1.76-10.3-3.48-15.45-5.11-2.869119-.91127-4.45627-3.975881-3.545-6.845s3.975881-4.45627,6.845-3.545c5.23,1.66,10.52,3.41,15.7,5.2c2.512215.869862,4.030228,3.425392,3.592363,6.047635s-2.703821,4.545921-5.362363,4.552365ZM628.45,193.42c-2.708677-.023645-4.988886-2.033058-5.352973-4.717258s1.298465-5.228413,3.902973-5.972742c5.26-1.48,10.62-2.92,15.92-4.27c2.815976-.505454,5.543429,1.252569,6.245983,4.025946s-.858982,5.61789-3.575983,6.514054c-5.22,1.32-10.49,2.73-15.66,4.19-.480369.144538-.978422.221938-1.48.23Zm349.1-2.64c-.473104.000158-.94405-.063756-1.4-.19-5.2-1.37-10.49-2.7-15.72-4-1.929579-.423746-3.478763-1.858518-4.049018-3.749985s-.072279-3.943432,1.30153-5.36311s3.408319-1.984753,5.317488-1.476905c5.32,1.26,10.7,2.62,16,4c2.635155.713704,4.338131,3.264102,3.987397,5.971573s-2.647367,4.739747-5.377397,4.758427Zm-302.34-8.67c-2.796148-.004828-5.13501-2.124949-5.413493-4.907199s1.593773-5.323873,4.333493-5.882801c5.36-1.1,10.81-2.13,16.19-3.09c2.974053-.527432,5.812568,1.455947,6.34,4.43s-1.455947,5.812568-4.43,6.34c-5.29.94-10.65,2-15.92,3-.3625.070439-.73073.107262-1.1.11Zm255.41-1.93c-.335582-.004636-.670145-.038092-1-.1-5.3-1-10.67-1.93-16-2.79-1.93222-.299869-3.555719-1.61188-4.254402-3.438144s-.365463-3.886866.873209-5.39984s3.192941-2.246424,5.121193-1.922016c5.39.87,10.86,1.83,16.24,2.84c2.774142.510452,4.700393,3.053315,4.440566,5.862037s-2.619861,4.955073-5.440566,4.947963Zm-207.94-5.94c-2.887943.01678-5.287576-2.222154-5.470698-5.104334s1.913854-5.40681,4.780698-5.755666c5.42-.69,10.93-1.33,16.37-1.9c2.956305-.244271,5.565063,1.920701,5.869929,4.871373s-1.806133,5.603294-4.749929,5.968627c-5.35.56-10.77,1.19-16.1,1.87-.232028.031578-.465839.048279-.7.05ZM883,173c-.21,0-.42,0-.62,0-5.35-.61-10.78-1.16-16.14-1.63-2.998906-.276142-5.206142-2.931094-4.93-5.93s2.931094-5.206142,5.93-4.93c5.45.48,11,1,16.4,1.65c2.796617.410846,4.814975,2.891616,4.648379,5.713336s-2.462847,5.047753-5.288379,5.126664Zm-112.45-3.19c-2.729435-.283198-4.822641-2.551537-4.886086-5.294892s1.922661-5.106034,4.636086-5.515108c5.45-.31,11-.55,16.46-.72c3.009952-.093888,5.526112,2.270048,5.62,5.28s-2.270048,5.526112-5.28,5.62c-5.38.16-10.83.4-16.2.7Zm64.47-.49h-.23c-5.37-.22-10.82-.37-16.2-.46-3.009952-.022091-5.432091-2.480048-5.41-5.49s2.480048-5.432091,5.49-5.41h.09c5.47.09,11,.25,16.48.47c2.92493.169776,5.192255,2.621665,5.133078,5.550921s-2.423677,5.287573-5.353078,5.339079Z" fill="#4858e8"/><g><rect id="eUtqsMJDVum6" width="237.57" height="296.54" rx="0" ry="0" transform="translate(860.3 19.999996)" fill="#2c3967"/><rect id="eUtqsMJDVum7" width="237.57" height="296.54" rx="0" ry="0" transform="translate(891.11 30.62)" fill="#27325b" stroke="#4858e8" stroke-width="7" stroke-miterlimit="10"/><rect id="eUtqsMJDVum8" width="237.57" height="296.54" rx="0" ry="0" transform="translate(930.24 60.69)" fill="#27325b" stroke="#4858e8" stroke-width="7" stroke-miterlimit="10"/><g id="eUtqsMJDVum9" transform="translate(-2.930012 8.919998)"><rect width="237.57" height="296.54" rx="0" ry="0" transform="translate(958.7 91.31)" fill="#4858e8"/><rect width="122.89" height="19.29" rx="0" ry="0" transform="translate(1036.42 139.99)" fill="#f1835a"/><rect width="159.23" height="19.29" rx="0" ry="0" transform="translate(1000.08 185.3)" fill="#f1835a"/><rect width="159.23" height="19.29" rx="0" ry="0" transform="translate(1000.08 230.62)" fill="#f1835a"/><rect width="159.23" height="19.29" rx="0" ry="0" transform="translate(1000.08 275.93)" fill="#f1835a"/><rect width="159.23" height="19.29" rx="0" ry="0" transform="translate(1000.08 321.24)" fill="#f1835a"/></g></g><g><g id="eUtqsMJDVum17"><circle r="83.91" transform="matrix(.707107-.707107 0.707107 0.707107 339.116907 322.768804)" fill="#27325b"/><path d="M471.5,402.56c10.589576-17.516644,17.57924-36.969395,20.56-57.22l6.26.92l12.34,1.81h.16c3.315143-22.330647,2.210899-45.095056-3.25-67l-18.36,4.55c-4.920194-19.880891-13.759575-38.579582-26-55l15.22-11.31c-13.427678-18.178795-30.314265-33.525912-49.69-45.16L419,190.41c-17.513629-10.595907-36.967691-17.586042-57.22-20.56l2.74-18.75c-22.331197-3.294034-45.090847-2.193418-67,3.24L302,172.7c-19.880348,4.921718-38.578749,13.760961-55,26l-11.32-15.22c-18.176033,13.426706-33.522735,30.309438-45.16,49.68l16.3,9.84c-10.598901,17.509491-17.592462,36.960228-20.57,57.21l-13.26-2-5.43-.75h-.06c-3.288882,22.33145-2.188315,45.090098,3.24,67l18.37-4.55c4.925015,19.879174,13.763962,38.576946,26,55l-15.22,11.32c13.406823,18.164967,30.273742,33.499148,49.63,45.12l9.8-16.25c17.53486,10.604512,37.007542,17.607606,57.28,20.6l-2.15,14.57-.59,4.18c22.333583,3.285346,45.094111,2.1711,67-3.28l-4.54-18.36c19.88501-4.960217,38.595754-13.795657,55.06-26L442.69,462c18.1265-13.446473,33.438987-30.318408,45.07-49.66Zm-175.68-7.94c-39.672118-23.920576-52.445235-75.47025-28.531275-115.146356s75.461502-52.45782,115.141596-28.550477s52.470404,75.452753,28.569679,115.136833c-11.480784,19.067511-30.069053,32.790377-51.67194,38.147023s-44.449037,1.907846-63.50806-9.587023Z" fill="#f1835a"/></g><path id="eUtqsMJDVum20" d="M157.47,391.43c-5.935669-8.994342-13.60519-16.714858-22.56-22.71l1.85-2.76l3.65-5.46v-.08c-9.874124-6.625803-20.954037-11.246681-32.61-13.6l-2,9.76c-10.555881-2.151066-21.434809-2.174864-32-.07l-1.94-9.79c-11.67854,2.272457-22.79198,6.833385-32.7,13.42l5.51,8.33C35.690605,374.398122,27.983633,382.0575,22,391l-8.3-5.54c-6.61686,9.893531-11.236754,20.984673-13.6,32.65l9.76,2c-2.143325,10.556669-2.167119,21.434055-.07,32L0,454.05c2.278784,11.676645,6.839219,22.788884,13.42,32.7l8.34-5.52c5.930222,8.99877,13.600726,16.720275,22.56,22.71l-3.92,5.87-1.59,2.41v0c9.880716,6.615614,20.957875,11.23874,32.61,13.61l2-9.76c10.56136,2.119685,21.43864,2.119685,32,0l1.94,9.8c11.651559-2.261893,22.742978-6.798365,32.64-13.35l-5.52-8.33c9.004039-5.942161,16.734412-13.618142,22.74-22.58l6.44,4.31l1.86,1.23c6.60139-9.876564,11.210952-20.946987,13.57-32.59l-9.76-2c2.141662-10.576718,2.168851-21.472725.08-32.06l9.79-1.94c-2.293635-11.661419-6.856774-22.758376-13.43-32.66ZM114,473.18c-14.892968,9.875533-34.269058,9.804567-49.089287-.179793s-22.164427-27.9148-18.60651-45.426735s17.316897-31.154822,34.858351-34.564228s35.409021,4.086458,45.267446,18.990756c13.45293,20.328594,7.889228,47.712928-12.43,61.18Z" fill="#4858e8"/></g><g id="eUtqsMJDVum21"><rect width="219.54" height="131.29" rx="7.78" ry="7.78" transform="translate(1318.02 430.65)" fill="#f1835a"/><rect width="219.54" height="22.66" rx="0" ry="0" transform="translate(1318.02 455.44)" opacity="0.61" fill="#fff"/><path d="M1368.3,536.75h-32.3c-.985688-.000004-1.93086.392243-2.626908,1.090167s-1.085749,1.644148-1.083092,2.629833v0c0,.983953.390874,1.927606,1.086634,2.623366s1.639413,1.086634,2.623366,1.086634h32.28c2.0506.000007,3.714488-1.659407,3.72-3.71v0c.00003-2.046714-1.653316-3.708996-3.7-3.72Z" fill="#d1f5ff"/><path d="M1417.94,536.75h-32.28c-.985688-.000004-1.93086.392243-2.626908,1.090167s-1.085749,1.644148-1.083092,2.629833v0c0,.983953.390874,1.927606,1.086634,2.623366s1.639413,1.086634,2.623366,1.086634h32.28c2.0506.000007,3.714488-1.659407,3.72-3.71v0c0-.986605-.391927-1.932802-1.089563-2.630437s-1.643832-1.089563-2.630437-1.089563Z" fill="#d1f5ff"/><path d="M1467.58,536.75h-32.28c-.985688-.000004-1.93086.392243-2.626908,1.090167s-1.085749,1.644148-1.083092,2.629833v0c0,.983953.390874,1.927606,1.086634,2.623366s1.639413,1.086634,2.623366,1.086634h32.28c2.0506.000007,3.714488-1.659407,3.72-3.71v0c0-.986605-.391927-1.932802-1.089563-2.630437s-1.643832-1.089563-2.630437-1.089563Z" fill="#d1f5ff"/><path d="M1517.22,536.75h-32.28c-.985688-.000004-1.93086.392243-2.626908,1.090167s-1.085749,1.644148-1.083092,2.629833v0c0,.983953.390874,1.927606,1.086634,2.623366s1.639413,1.086634,2.623366,1.086634h32.28c.983953,0,1.927606-.390874,2.623366-1.086634s1.086634-1.639413,1.086634-2.623366v0c.002657-.985685-.387044-1.931909-1.083092-2.629833s-1.64122-1.090171-2.626908-1.090167Z" fill="#d1f5ff"/><path d="M1334.54,437.31v0c-2.264367,0-4.1,1.835633-4.1,4.1v1.44c-.002664,1.088202.428444,2.132602,1.197921,2.902079s1.813877,1.200585,2.902079,1.197921v0c2.264367,0,4.1-1.835633,4.1-4.1v-1.44c-.005497-2.262087-1.837913-4.094503-4.1-4.1Z" fill="#d1f5ff"/><path d="M1343.37,442.13v0c0,2.662013,2.157988,4.82,4.82,4.82h17.09c2.662012,0,4.82-2.157988,4.82-4.82v0c0-2.662013-2.157988-4.82-4.82-4.82h-17.09c-2.662012,0-4.82,2.157988-4.82,4.82Z" fill="#d1f5ff"/><rect width="34.88" height="31.83" rx="6.4" ry="6.4" transform="translate(1334.73 490.29)" opacity="0.61" fill="#fff"/></g><g><path d="M1433.22,918.93v-15.44c-.005515-7.011731-5.688269-12.694485-12.7-12.7h-135.19c-7.011731.005515-12.694485,5.688269-12.7,12.7v273h349.69v-257.56Z" fill="#2c3967"/><polygon points="1636.86,928.32 1293.96,928.32 1272.63,1176.51 1620.62,1176.51 1636.86,928.32" transform="translate(-3.344995 0)" fill="#fff"/><path d="M1622.32,1176.51h-349.69l37.11-245.1c1.087387-7.168899,7.249102-12.467974,14.5-12.47h320c4.274377-.005151,8.337829,1.856729,11.124937,5.097463s4.01987,7.537073,3.375063,11.762537Z" fill="#4858e8"/><circle r="80.12" transform="translate(1658.93 928.32)" fill="#f1835a"/><path d="M1658.93,1011.37c-45.863342-.011045-83.035521-37.196655-83.029999-83.059997s37.186655-83.04,83.049998-83.040001s83.044477,37.176655,83.050001,83.039998c-.055113,45.853827-37.216167,83.010408-83.07,83.06Zm0-160.25c-31.226305-.004045-59.379928,18.803649-71.331586,47.652219s-5.347389,62.056092,16.732943,84.136424s55.287853,28.684601,84.136424,16.732943s47.656264-40.105281,47.652219-71.331586c-.044095-42.612582-34.577418-77.145905-77.19-77.19Z" opacity="0.61" fill="#fff"/><g id="eUtqsMJDVum37" transform="translate(.000009 0)" opacity="0.61"><path d="M1620.36,913.82v56.73c0,6.32,77.14,6.32,77.14,0v-56.73ZM1662.83,944v16c0,1.393336-.743336,2.680831-1.95,3.377499s-2.693336.696668-3.9,0-1.95-1.984163-1.95-3.377499v-16.09c-4.077414-1.838033-6.318044-6.273498-5.378032-10.646145s4.805485-7.49545,9.278032-7.49545s8.338019,3.122802,9.278032,7.49545-1.300618,8.808112-5.378032,10.646145Z" fill="#fff"/><path d="M1690.75,909.78h-7.81v-3.78c0-13.254834-10.745166-24-24-24s-24,10.745166-24,24v3.82h-7.81v-3.82c-.203906-11.500846,5.815007-22.216409,15.742437-28.026501s22.217696-5.810092,32.145126,0s15.946343,16.525655,15.742437,28.026501Z" fill="#fff"/></g></g><g id="eUtqsMJDVum40" transform="translate(-.288827 0)"><path d="M175.58,830c-.09-.11-.19-.2-.29-.31C136,871.75,73.41,906.21,6.38,920.89c0,4.48-.13,29.28-.64,143.59-.68,152.49,144.44,227,167,238.44-66.21-267.92-14.36-430,2.84-472.92Z" fill="#f1835a"/><path d="M175.58,830c-17.2,42.91-69.05,205-2.86,472.91c21.82-10.05,168.78-84.45,169.46-236.94.51-114.31.62-139.11.64-143.59-66.73-15.23-128.34-50.12-167.24-92.38Z" fill="#f1835a"/><path d="M175.59,830l-.3-.3C136,871.75,73.41,906.21,6.38,920.89c0,4.48-.13,29.28-.64,143.59-.68,152.49,144.45,227,167,238.44c21.82-10.05,168.78-84.45,169.46-236.94.51-114.31.62-139.11.64-143.59-66.75-15.24-128.37-50.13-167.25-92.39Z" fill="none" stroke="#4858e8" stroke-miterlimit="10"/><path d="M175.07,1274.63l-4.72-.27c-27.931028-14.680639-53.540679-33.406012-76-55.57-45.07-44.85-67.78-96.66-67.53-154l.57-126.26l4.24-1.09c54.23-14,103.7-39.67,139.3-72.33l4-3.68l3.85,3.85-3.7,4.3l3.87-4.16c35.3,32.87,84.43,58.88,138.33,73.3l4.23,1.11-.57,126.26c-.26,57.33-23.43,108.93-68.88,153.38-22.101021,21.386723-47.144002,39.506432-74.37,53.81ZM38.7,947.33l-.53,117.51c-.24,54.19,21.35,103.26,64.17,145.89c20.952121,20.670524,44.744971,38.247467,70.66,52.2c26.022056-13.737845,49.963868-31.097427,71.11-51.56c43.21-42.25,65.23-91.14,65.47-145.31l.53-117.53c-52.26-14.6-100-39.83-135.38-71.56-35.66,31.38-83.61,56.19-136.03,70.36Z" opacity="0.61" fill="#fff"/><path d="M107.09,1043.79v100.09c0,11.14,136.08,11.14,136.08,0v-100.09ZM182,1096.94v28.37c.096147,2.522358-1.194693,4.895371-3.364501,6.185125s-4.871189,1.289754-7.040998,0-3.460648-3.662767-3.364501-6.185125v-28.44c-7.173564-3.280909-11.083276-11.124617-9.384768-18.827827s8.54429-13.175403,16.432431-13.135303s14.677934,5.581608,16.298038,13.301688-2.369152,15.523635-9.575701,18.731442Z" opacity="0.61" fill="#fff"/><path d="M231.25,1036.65h-13.77v-6.74c0-23.389259-18.960741-42.35-42.35-42.35s-42.35,18.960741-42.35,42.35v6.74h-13.78v-6.74c0-30.99422,25.12578-56.12,56.12-56.12s56.12,25.12578,56.12,56.12Z" opacity="0.61" fill="#fff"/></g><g><path d="M920.35,527.61c4.44708-32.445148-15.833386-63.163948-47.416656-71.821959s-64.693549,7.424634-77.413344,37.601959c-13.410479-11.975801-32.608015-14.949216-49.012988-7.591389s-26.951816,23.671953-26.927012,41.651389h-8.51c-24.305667.071366-43.993118,19.75435-44.07,44.06v0c.076882,24.30565,19.764333,43.988634,44.07,44.06h206c24.305667-.071366,43.993118-19.75435,44.07-44.06v0c-.082864-23.025556-17.832539-42.12854-40.79-43.9Z" fill="#4858e8"/><polygon id="eUtqsMJDVum49" points="813.63,610.5 790.63,584.75 767.64,610.5 779.87,610.5 779.87,638.6 801.4,638.6 801.4,610.5 813.63,610.5" transform="translate(0-11.004988)" fill="#f1835a"/><polygon id="eUtqsMJDVum50" points="810.13,617.35 833.12,643.1 856.11,617.35 843.88,617.35 843.88,589.25 822.36,589.25 822.36,617.35 810.13,617.35" transform="translate(0-.004988)" fill="#f1835a"/></g><path d="M532.31,2064.1l562.58-3.4c35.11-.21,63.5-30.15,63.44-66.83L1156.22,777.6c-.06-35.37-28-64.11-62.44-64.21l-551.65-1.68c-34.7-.11-63.07,28.59-63.36,64.12l-10,1221.89c-.31,36.86,28.15,66.59,63.54,66.38Z" fill="#4858e8"/><path d="M524.55,2055.25c2.355086.292533,4.726895.429497,7.1.41l562.41-4c30.17-.21,54.82-26.46,54.77-58.48l-1.94-1214.93c-.05-30.88-24.32-56.08-53.91-56.2L541.37,719.8c-.86,0-1.73,0-2.59,0-13.883001.602601-26.988608,6.576319-36.55,16.66-9.935556,10.431826-15.496711,24.273876-15.54,38.68l-9.87,1223.13c-.23,29.06,20.18,53.52,47.73,56.98Z" fill="#2c3967"/><polygon points="506.13,784.07 496.64,2002.94 1130.22,1999.38 1128.6,784.07 506.13,784.07" fill="#27325b"/><rect width="83.11" height="83.11" rx="0" ry="0" transform="matrix(-1 0 0-1 1020.79 1520.77)" fill="none" stroke="#4858e8" stroke-width="3" stroke-miterlimit="10"/><rect width="83.11" height="83.11" rx="0" ry="0" transform="matrix(-1 0 0-1 911.26 1520.77)" fill="none" stroke="#4858e8" stroke-width="3" stroke-miterlimit="10"/><rect width="83.11" height="83.11" rx="0" ry="0" transform="matrix(-1 0 0-1 801.72 1520.77)" fill="none" stroke="#4858e8" stroke-width="3" stroke-miterlimit="10"/><rect width="83.11" height="83.11" rx="0" ry="0" transform="matrix(-1 0 0-1 692.19 1520.77)" fill="none" stroke="#4858e8" stroke-width="3" stroke-miterlimit="10"/><circle r="17.21" transform="translate(980.12 1480.89)" fill="#4858e8"/><circle r="17.21" transform="translate(870.35 1480.89)" fill="#4858e8"/><circle r="17.21" transform="translate(760.58 1480.89)" fill="#4858e8"/><circle r="17.21" transform="translate(648.85 1480.89)" fill="#4858e8"/><path d="M780,1073.72v-16.65c0-3.628162-1.441282-7.107723-4.006779-9.673221s-6.045059-4.006779-9.673221-4.006779h-145.72c-3.628975-.002656-7.11008,1.437773-9.676153,4.003847s-4.006503,6.047178-4.003847,9.676153v294.2h376.81v-277.55Z" fill="#4858e8"/><path d="M781.17,1073.72v-16.65c0-3.628162-1.441282-7.107723-4.006779-9.673221s-6.045059-4.006779-9.673221-4.006779h-145.68c-3.628975-.002656-7.11008,1.437773-9.676153,4.003847s-4.006503,6.047178-4.003847,9.676153v294.2h376.81v-277.55Z" fill="#4858e8"/><path d="M784.57,1073.61v-16.61c0-3.628162-1.441282-7.107723-4.006779-9.673221s-6.045059-4.006779-9.673221-4.006779h-145.68c-3.628975-.002656-7.11008,1.437773-9.676153,4.003847s-4.006503,6.047178-4.003847,9.676153v294.2h376.81v-277.59Z" fill="#2c3967"/><polygon points="620.75,1085.22 620.75,1351.27 969.81,1351.27 969.81,1083.91 620.75,1085.22" fill="#27325b"/><polygon points="636.92,1085.22 636.92,1351.27 988.98,1351.27 988.98,1083.91 636.92,1085.22" fill="#0046b3"/><path d="M1002.93,1073.72h-347.13c-6.724833-.181605-12.502301,4.74154-13.39,11.41v266.14h378.85v-259.39c.09-9.56-8.6-18.16-18.33-18.16Z" fill="#2c3967"/><rect width="256.19" height="194.7" rx="0" ry="0" transform="matrix(.999996-.002793 0.002793 0.999996 699.722973 1001.331)" fill="#2c3967"/><rect width="243.09" height="178.99" rx="0" ry="0" transform="translate(703.34 1009.64)" fill="#4858e8"/><polygon points="727.16,1172.23 883.37,1171.79 797.96,1089.85 727.16,1172.23" fill="#e3eeff"/><polygon points="798.19,1172.03 929.45,1171.66 858.22,1103.94 798.19,1172.03" fill="#e3eeff"/><circle r="18.09" transform="matrix(.707107-.707107 0.707107 0.707107 846.752436 1071.617102)" fill="#e3eeff"/><rect width="237.51" height="206.55" rx="0" ry="0" transform="matrix(.999995-.003142 0.003142 0.999995 758.110768 956.672068)" fill="#2c3967"/><rect width="224.03" height="189.88" rx="0" ry="0" transform="matrix(.999995-.003142 0.003142 0.999995 764.711913 963.401298)" fill="#4858e8"/><rect width="89.22" height="7.84" rx="0" ry="0" transform="translate(786.8 989.55)" fill="#2c3967"/><rect width="181.52" height="7.84" rx="0" ry="0" transform="translate(786.8 1010.72)" fill="#2c3967"/><rect width="181.52" height="7.84" rx="0" ry="0" transform="translate(786.8 1032.27)" fill="#2c3967"/><rect width="181.52" height="7.84" rx="0" ry="0" transform="translate(786.8 1055.21)" fill="#2c3967"/><path d="M1023,1091.92v259.37h-376.47v-266.19c.908211-6.632391,6.647358-11.528305,13.34-11.38h344.82c9.7,0,18.31,8.57,18.31,18.2Z" fill="#0046b3"/><rect width="37.98" height="3.56" rx="0" ry="0" transform="translate(608.08 1347.71)" fill="#2c3967"/><circle r="56.69" transform="matrix(.16-.99 0.99 0.16 829.586365 1188.90737)" fill="#4858e8"/><path d="M826.34,1189.48c4.872725-.042333,9.463044-2.293355,12.48-6.12c2.25987-2.812938,3.475463-6.321901,3.44-9.93c0-8.836556-7.163444-16-16-16s-16,7.163444-16,16c-.035463,3.608099,1.18013,7.117062,3.44,9.93c3.055642,3.865743,7.712433,6.120455,12.64,6.12Z" fill="#2c3967"/><path d="M854.54,1218.08c0,10.13-56.56,10.13-56.56,0v-11.81c2.23-16.13,51.94-16.81,56.55,0Z" fill="#2c3967"/><rect width="186.16" height="10.34" rx="0" ry="0" transform="translate(733.18 1277.56)" fill="#4858e8"/><rect width="142.49" height="10.34" rx="0" ry="0" transform="translate(755.02 1299.04)" fill="#4858e8"/><rect width="128.54" height="77.22" rx="0" ry="0" transform="matrix(-1 0 0-1 1020.04 1676.4)" fill="#0046b3"/><rect width="128.54" height="77.22" rx="0" ry="0" transform="matrix(-1 0 0-1 874.33 1676.4)" fill="#0046b3"/><rect width="128.54" height="77.22" rx="0" ry="0" transform="matrix(-1 0 0-1 728.61 1676.4)" fill="#0046b3"/><rect width="128.54" height="77.22" rx="0" ry="0" transform="matrix(-1 0 0-1 1020.04 1767.27)" fill="#0046b3"/><rect width="128.54" height="77.22" rx="0" ry="0" transform="matrix(-1 0 0-1 874.33 1767.27)" fill="#0046b3"/><rect width="128.54" height="77.22" rx="0" ry="0" transform="matrix(-1 0 0-1 728.61 1767.27)" fill="#0046b3"/><rect width="128.54" height="77.22" rx="0" ry="0" transform="matrix(-1 0 0-1 1020.04 1857.15)" fill="#0046b3"/><rect width="128.54" height="77.22" rx="0" ry="0" transform="matrix(-1 0 0-1 874.33 1857.15)" fill="#0046b3"/><rect width="128.54" height="77.22" rx="0" ry="0" transform="matrix(-1 0 0-1 874.33 1948.01)" fill="#0046b3"/><rect width="128.54" height="77.22" rx="0" ry="0" transform="matrix(-1 0 0-1 728.61 1857.15)" fill="#0046b3"/></g></g><script><![CDATA[!function(t,n){"object"==typeof exports&&"undefined"!=typeof module?module.exports=n():"function"==typeof define&&define.amd?define(n):((t="undefined"!=typeof globalThis?globalThis:t||self).__SVGATOR_PLAYER__=t.__SVGATOR_PLAYER__||{},t.__SVGATOR_PLAYER__["5c7f360c"]=n())}(this,(function(){"use strict";function t(t,n){var r=Object.keys(t);if(Object.getOwnPropertySymbols){var e=Object.getOwnPropertySymbols(t);n&&(e=e.filter((function(n){return Object.getOwnPropertyDescriptor(t,n).enumerable}))),r.push.apply(r,e)}return r}function n(n){for(var r=1;r<arguments.length;r++){var e=null!=arguments[r]?arguments[r]:{};r%2?t(Object(e),!0).forEach((function(t){u(n,t,e[t])})):Object.getOwnPropertyDescriptors?Object.defineProperties(n,Object.getOwnPropertyDescriptors(e)):t(Object(e)).forEach((function(t){Object.defineProperty(n,t,Object.getOwnPropertyDescriptor(e,t))}))}return n}function r(t){return(r="function"==typeof Symbol&&"symbol"==typeof Symbol.iterator?function(t){return typeof t}:function(t){return t&&"function"==typeof Symbol&&t.constructor===Symbol&&t!==Symbol.prototype?"symbol":typeof t})(t)}function e(t,n){if(!(t instanceof n))throw new TypeError("Cannot call a class as a function")}function i(t,n){for(var r=0;r<n.length;r++){var e=n[r];e.enumerable=e.enumerable||!1,e.configurable=!0,"value"in e&&(e.writable=!0),Object.defineProperty(t,e.key,e)}}function o(t,n,r){return n&&i(t.prototype,n),r&&i(t,r),t}function u(t,n,r){return n in t?Object.defineProperty(t,n,{value:r,enumerable:!0,configurable:!0,writable:!0}):t[n]=r,t}function a(t){return(a=Object.setPrototypeOf?Object.getPrototypeOf:function(t){return t.__proto__||Object.getPrototypeOf(t)})(t)}function l(t,n){return(l=Object.setPrototypeOf||function(t,n){return t.__proto__=n,t})(t,n)}function f(){if("undefined"==typeof Reflect||!Reflect.construct)return!1;if(Reflect.construct.sham)return!1;if("function"==typeof Proxy)return!0;try{return Boolean.prototype.valueOf.call(Reflect.construct(Boolean,[],(function(){}))),!0}catch(t){return!1}}function s(t,n,r){return(s=f()?Reflect.construct:function(t,n,r){var e=[null];e.push.apply(e,n);var i=new(Function.bind.apply(t,e));return r&&l(i,r.prototype),i}).apply(null,arguments)}function c(t,n){if(n&&("object"==typeof n||"function"==typeof n))return n;if(void 0!==n)throw new TypeError("Derived constructors may only return object or undefined");return function(t){if(void 0===t)throw new ReferenceError("this hasn't been initialised - super() hasn't been called");return t}(t)}function h(t,n,r){return(h="undefined"!=typeof Reflect&&Reflect.get?Reflect.get:function(t,n,r){var e=function(t,n){for(;!Object.prototype.hasOwnProperty.call(t,n)&&null!==(t=a(t)););return t}(t,n);if(e){var i=Object.getOwnPropertyDescriptor(e,n);return i.get?i.get.call(r):i.value}})(t,n,r||t)}function v(t){return function(t){if(Array.isArray(t))return y(t)}(t)||function(t){if("undefined"!=typeof Symbol&&null!=t[Symbol.iterator]||null!=t["@@iterator"])return Array.from(t)}(t)||function(t,n){if(!t)return;if("string"==typeof t)return y(t,n);var r=Object.prototype.toString.call(t).slice(8,-1);"Object"===r&&t.constructor&&(r=t.constructor.name);if("Map"===r||"Set"===r)return Array.from(t);if("Arguments"===r||/^(?:Ui|I)nt(?:8|16|32)(?:Clamped)?Array$/.test(r))return y(t,n)}(t)||function(){throw new TypeError("Invalid attempt to spread non-iterable instance.\nIn order to be iterable, non-array objects must have a [Symbol.iterator]() method.")}()}function y(t,n){(null==n||n>t.length)&&(n=t.length);for(var r=0,e=new Array(n);r<n;r++)e[r]=t[r];return e}Number.isInteger||(Number.isInteger=function(t){return"number"==typeof t&&isFinite(t)&&Math.floor(t)===t}),Number.EPSILON||(Number.EPSILON=2220446049250313e-31);var g=p(Math.pow(10,-6));function p(t){var n=arguments.length>1&&void 0!==arguments[1]?arguments[1]:6;if(Number.isInteger(t))return t;var r=Math.pow(10,n);return Math.round((+t+Number.EPSILON)*r)/r}function d(t,n){var r=arguments.length>2&&void 0!==arguments[2]?arguments[2]:g;return Math.abs(t-n)<r}var m=Math.PI/180;function b(t){return t}function w(t,n,r){var e=1-r;return 3*r*e*(t*e+n*r)+r*r*r}function x(){var t=arguments.length>0&&void 0!==arguments[0]?arguments[0]:0,n=arguments.length>1&&void 0!==arguments[1]?arguments[1]:0,r=arguments.length>2&&void 0!==arguments[2]?arguments[2]:1,e=arguments.length>3&&void 0!==arguments[3]?arguments[3]:1;return t<0||t>1||r<0||r>1?null:d(t,n)&&d(r,e)?b:function(i){if(i<=0)return t>0?i*n/t:0===n&&r>0?i*e/r:0;if(i>=1)return r<1?1+(i-1)*(e-1)/(r-1):1===r&&t<1?1+(i-1)*(n-1)/(t-1):1;for(var o,u=0,a=1;u<a;){var l=w(t,r,o=(u+a)/2);if(d(i,l))break;l<i?u=o:a=o}return w(n,e,o)}}function A(){return 1}function k(t){return 1===t?1:0}function _(){var t=arguments.length>0&&void 0!==arguments[0]?arguments[0]:1,n=arguments.length>1&&void 0!==arguments[1]?arguments[1]:0;if(1===t){if(0===n)return k;if(1===n)return A}var r=1/t;return function(t){return t>=1?1:(t+=n*r)-t%r}}var S=Math.sin,O=Math.cos,j=Math.acos,M=Math.asin,P=Math.tan,E=Math.atan2,I=Math.PI/180,R=180/Math.PI,F=Math.sqrt,N=function(){function t(){var n=arguments.length>0&&void 0!==arguments[0]?arguments[0]:1,r=arguments.length>1&&void 0!==arguments[1]?arguments[1]:0,i=arguments.length>2&&void 0!==arguments[2]?arguments[2]:0,o=arguments.length>3&&void 0!==arguments[3]?arguments[3]:1,u=arguments.length>4&&void 0!==arguments[4]?arguments[4]:0,a=arguments.length>5&&void 0!==arguments[5]?arguments[5]:0;e(this,t),this.m=[n,r,i,o,u,a],this.i=null,this.w=null,this.s=null}return o(t,[{key:"determinant",get:function(){var t=this.m;return t[0]*t[3]-t[1]*t[2]}},{key:"isIdentity",get:function(){if(null===this.i){var t=this.m;this.i=1===t[0]&&0===t[1]&&0===t[2]&&1===t[3]&&0===t[4]&&0===t[5]}return this.i}},{key:"point",value:function(t,n){var r=this.m;return{x:r[0]*t+r[2]*n+r[4],y:r[1]*t+r[3]*n+r[5]}}},{key:"translateSelf",value:function(){var t=arguments.length>0&&void 0!==arguments[0]?arguments[0]:0,n=arguments.length>1&&void 0!==arguments[1]?arguments[1]:0;if(!t&&!n)return this;var r=this.m;return r[4]+=r[0]*t+r[2]*n,r[5]+=r[1]*t+r[3]*n,this.w=this.s=this.i=null,this}},{key:"rotateSelf",value:function(){var t=arguments.length>0&&void 0!==arguments[0]?arguments[0]:0;if(t%=360){var n=S(t*=I),r=O(t),e=this.m,i=e[0],o=e[1];e[0]=i*r+e[2]*n,e[1]=o*r+e[3]*n,e[2]=e[2]*r-i*n,e[3]=e[3]*r-o*n,this.w=this.s=this.i=null}return this}},{key:"scaleSelf",value:function(){var t=arguments.length>0&&void 0!==arguments[0]?arguments[0]:1,n=arguments.length>1&&void 0!==arguments[1]?arguments[1]:1;if(1!==t||1!==n){var r=this.m;r[0]*=t,r[1]*=t,r[2]*=n,r[3]*=n,this.w=this.s=this.i=null}return this}},{key:"skewSelf",value:function(t,n){if(n%=360,(t%=360)||n){var r=this.m,e=r[0],i=r[1],o=r[2],u=r[3];t&&(t=P(t*I),r[2]+=e*t,r[3]+=i*t),n&&(n=P(n*I),r[0]+=o*n,r[1]+=u*n),this.w=this.s=this.i=null}return this}},{key:"resetSelf",value:function(){var t=arguments.length>0&&void 0!==arguments[0]?arguments[0]:1,n=arguments.length>1&&void 0!==arguments[1]?arguments[1]:0,r=arguments.length>2&&void 0!==arguments[2]?arguments[2]:0,e=arguments.length>3&&void 0!==arguments[3]?arguments[3]:1,i=arguments.length>4&&void 0!==arguments[4]?arguments[4]:0,o=arguments.length>5&&void 0!==arguments[5]?arguments[5]:0,u=this.m;return u[0]=t,u[1]=n,u[2]=r,u[3]=e,u[4]=i,u[5]=o,this.w=this.s=this.i=null,this}},{key:"recomposeSelf",value:function(){var t=arguments.length>0&&void 0!==arguments[0]?arguments[0]:null,n=arguments.length>1&&void 0!==arguments[1]?arguments[1]:null,r=arguments.length>2&&void 0!==arguments[2]?arguments[2]:null,e=arguments.length>3&&void 0!==arguments[3]?arguments[3]:null,i=arguments.length>4&&void 0!==arguments[4]?arguments[4]:null;return this.isIdentity||this.resetSelf(),t&&(t.x||t.y)&&this.translateSelf(t.x,t.y),n&&this.rotateSelf(n),r&&(r.x&&this.skewSelf(r.x,0),r.y&&this.skewSelf(0,r.y)),!e||1===e.x&&1===e.y||this.scaleSelf(e.x,e.y),i&&(i.x||i.y)&&this.translateSelf(i.x,i.y),this}},{key:"decompose",value:function(){var t=arguments.length>0&&void 0!==arguments[0]?arguments[0]:0,n=arguments.length>1&&void 0!==arguments[1]?arguments[1]:0,r=this.m,e=r[0]*r[0]+r[1]*r[1],i=[[r[0],r[1]],[r[2],r[3]]],o=F(e);if(0===o)return{origin:{x:p(r[4]),y:p(r[5])},translate:{x:p(t),y:p(n)},scale:{x:0,y:0},skew:{x:0,y:0},rotate:0};i[0][0]/=o,i[0][1]/=o;var u=r[0]*r[3]-r[1]*r[2]<0;u&&(o=-o);var a=i[0][0]*i[1][0]+i[0][1]*i[1][1];i[1][0]-=i[0][0]*a,i[1][1]-=i[0][1]*a;var l=F(i[1][0]*i[1][0]+i[1][1]*i[1][1]);if(0===l)return{origin:{x:p(r[4]),y:p(r[5])},translate:{x:p(t),y:p(n)},scale:{x:p(o),y:0},skew:{x:0,y:0},rotate:0};i[1][0]/=l,i[1][1]/=l,a/=l;var f=0;return i[1][1]<0?(f=j(i[1][1])*R,i[0][1]<0&&(f=360-f)):f=M(i[0][1])*R,u&&(f=-f),a=E(a,F(i[0][0]*i[0][0]+i[0][1]*i[0][1]))*R,u&&(a=-a),{origin:{x:p(r[4]),y:p(r[5])},translate:{x:p(t),y:p(n)},scale:{x:p(o),y:p(l)},skew:{x:p(a),y:0},rotate:p(f)}}},{key:"clone",value:function(){var t=this.m;return new this.constructor(t[0],t[1],t[2],t[3],t[4],t[5])}},{key:"toString",value:function(){var t=arguments.length>0&&void 0!==arguments[0]?arguments[0]:" ";if(null===this.s){var n=this.m.map((function(t){return p(t)}));1===n[0]&&0===n[1]&&0===n[2]&&1===n[3]?this.s="translate("+n[4]+t+n[5]+")":this.s="matrix("+n.join(t)+")"}return this.s}}],[{key:"create",value:function(t){return t?Array.isArray(t)?s(this,v(t)):t instanceof this?t.clone():(new this).recomposeSelf(t.origin,t.rotate,t.skew,t.scale,t.translate):new this}}]),t}();function T(t,n,r){return t>=.5?r:n}function q(t,n,r){return 0===t||n===r?n:t*(r-n)+n}function B(t,n,r){var e=q(t,n,r);return e<=0?0:e}function L(t,n,r){var e=q(t,n,r);return e<=0?0:e>=1?1:e}function C(t,n,r){return 0===t?n:1===t?r:{x:q(t,n.x,r.x),y:q(t,n.y,r.y)}}function D(t,n,r){var e=function(t,n,r){return Math.round(q(t,n,r))}(t,n,r);return e<=0?0:e>=255?255:e}function z(t,n,r){return 0===t?n:1===t?r:{r:D(t,n.r,r.r),g:D(t,n.g,r.g),b:D(t,n.b,r.b),a:q(t,null==n.a?1:n.a,null==r.a?1:r.a)}}function V(t,n){for(var r=[],e=0;e<t;e++)r.push(n);return r}function G(t,n){if(--n<=0)return t;var r=(t=Object.assign([],t)).length;do{for(var e=0;e<r;e++)t.push(t[e])}while(--n>0);return t}var Y,$=function(){function t(n){e(this,t),this.list=n,this.length=n.length}return o(t,[{key:"setAttribute",value:function(t,n){for(var r=this.list,e=0;e<this.length;e++)r[e].setAttribute(t,n)}},{key:"removeAttribute",value:function(t){for(var n=this.list,r=0;r<this.length;r++)n[r].removeAttribute(t)}},{key:"style",value:function(t,n){for(var r=this.list,e=0;e<this.length;e++)r[e].style[t]=n}}]),t}(),U=/-./g,Q=function(t,n){return n.toUpperCase()};function H(t){return"function"==typeof t?t:T}function J(t){return t?"function"==typeof t?t:Array.isArray(t)?function(t){var n=arguments.length>1&&void 0!==arguments[1]?arguments[1]:b;if(!Array.isArray(t))return n;switch(t.length){case 1:return _(t[0])||n;case 2:return _(t[0],t[1])||n;case 4:return x(t[0],t[1],t[2],t[3])||n}return n}(t,null):function(t,n){var r=arguments.length>2&&void 0!==arguments[2]?arguments[2]:b;switch(t){case"linear":return b;case"steps":return _(n.steps||1,n.jump||0)||r;case"bezier":case"cubic-bezier":return x(n.x1||0,n.y1||0,n.x2||0,n.y2||0)||r}return r}(t.type,t.value,null):null}function Z(t,n,r){var e=arguments.length>3&&void 0!==arguments[3]&&arguments[3],i=n.length-1;if(t<=n[0].t)return e?[0,0,n[0].v]:n[0].v;if(t>=n[i].t)return e?[i,1,n[i].v]:n[i].v;var o,u=n[0],a=null;for(o=1;o<=i;o++){if(!(t>n[o].t)){a=n[o];break}u=n[o]}return null==a?e?[i,1,n[i].v]:n[i].v:u.t===a.t?e?[o,1,a.v]:a.v:(t=(t-u.t)/(a.t-u.t),u.e&&(t=u.e(t)),e?[o,t,r(t,u.v,a.v)]:r(t,u.v,a.v))}function K(t,n){var r=arguments.length>2&&void 0!==arguments[2]?arguments[2]:null;return t&&t.length?"function"!=typeof n?null:("function"!=typeof r&&(r=null),function(e){var i=Z(e,t,n);return null!=i&&r&&(i=r(i)),i}):null}function W(t,n){return t.t-n.t}function X(t,n,e,i,o){var u,a="@"===e[0],l="#"===e[0],f=Y[e],s=T;switch(a?(u=e.substr(1),e=u.replace(U,Q)):l&&(e=e.substr(1)),r(f)){case"function":if(s=f(i,o,Z,J,e,a,n,t),l)return s;break;case"string":s=K(i,H(f));break;case"object":if((s=K(i,H(f.i),f.f))&&"function"==typeof f.u)return f.u(n,s,e,a,t)}return s?function(t,n,r){if(arguments.length>3&&void 0!==arguments[3]&&arguments[3])return t instanceof $?function(e){return t.style(n,r(e))}:function(e){return t.style[n]=r(e)};if(Array.isArray(n)){var e=n.length;return function(i){var o=r(i);if(null==o)for(var u=0;u<e;u++)t[u].removeAttribute(n);else for(var a=0;a<e;a++)t[a].setAttribute(n,o)}}return function(e){var i=r(e);null==i?t.removeAttribute(n):t.setAttribute(n,i)}}(n,e,s,a):null}function tt(t,n,e,i){if(!i||"object"!==r(i))return null;var o=null,u=null;return Array.isArray(i)?u=function(t){if(!t||!t.length)return null;for(var n=0;n<t.length;n++)t[n].e&&(t[n].e=J(t[n].e));return t.sort(W)}(i):(u=i.keys,o=i.data||null),u?X(t,n,e,u,o):null}function nt(t,n,r){if(!r)return null;var e=[];for(var i in r)if(r.hasOwnProperty(i)){var o=tt(t,n,i,r[i]);o&&e.push(o)}return e.length?e:null}function rt(t,n){if(!n.duration||n.duration<0)return null;var r=function(t,n){if(!n)return null;var r=[];if(Array.isArray(n))for(var e=n.length,i=0;i<e;i++){var o=n[i];if(2===o.length){var u=null;if("string"==typeof o[0])u=t.getElementById(o[0]);else if(Array.isArray(o[0])){u=[];for(var a=0;a<o[0].length;a++)if("string"==typeof o[0][a]){var l=t.getElementById(o[0][a]);l&&u.push(l)}u=u.length?1===u.length?u[0]:new $(u):null}if(u){var f=nt(t,u,o[1]);f&&(r=r.concat(f))}}}else for(var s in n)if(n.hasOwnProperty(s)){var c=t.getElementById(s);if(c){var h=nt(t,c,n[s]);h&&(r=r.concat(h))}}return r.length?r:null}(t,n.elements);return r?function(t,n){var r=arguments.length>2&&void 0!==arguments[2]?arguments[2]:1/0,e=arguments.length>3&&void 0!==arguments[3]?arguments[3]:1,i=arguments.length>4&&void 0!==arguments[4]&&arguments[4],o=arguments.length>5&&void 0!==arguments[5]?arguments[5]:1,u=t.length,a=e>0?n:0;i&&r%2==0&&(a=n-a);var l=null;return function(f,s){var c=f%n,h=1+(f-c)/n;s*=e,i&&h%2==0&&(s=-s);var v=!1;if(h>r)c=a,v=!0,-1===o&&(c=e>0?0:n);else if(s<0&&(c=n-c),c===l)return!1;l=c;for(var y=0;y<u;y++)t[y](c);return v}}(r,n.duration,n.iterations||1/0,n.direction||1,!!n.alternate,n.fill||1):null}function et(t){return+("0x"+(t.replace(/[^0-9a-fA-F]+/g,"")||27))}function it(t,n,r){return!t||!r||n>t.length?t:t.substring(0,n)+it(t.substring(n+1),r,r)}function ot(t){var n=arguments.length>1&&void 0!==arguments[1]?arguments[1]:27;return!t||t%n?t%n:ot(t/n,n)}function ut(t,n,r){if(t&&t.length){var e=et(r),i=et(n),o=ot(e)+5,u=it(t,ot(e,5),o);return u=u.replace(/\x7c$/g,"==").replace(/\x2f$/g,"="),u=function(t,n,r){var e=+("0x"+t.substring(0,4));t=t.substring(4);for(var i=n%e+r%27,o=[],u=0;u<t.length;u+=2)if("|"!==t[u]){var a=+("0x"+t[u]+t[u+1])-i;o.push(a)}else{var l=+("0x"+t.substring(u+1,u+1+4))-i;u+=3,o.push(l)}return String.fromCharCode.apply(String,o)}(u=(u=atob(u)).replace(/[\x41-\x5A]/g,""),i,e),u=JSON.parse(u)}}var at=function(){function t(n,r){var i=arguments.length>2&&void 0!==arguments[2]?arguments[2]:{};e(this,t),this._id=0,this._running=!1,this._rollingBack=!1,this._animations=n,this.duration=r.duration,this.alternate=r.alternate,this.fill=r.fill,this.iterations=r.iterations,this.direction=i.direction||1,this.speed=i.speed||1,this.fps=i.fps||100,this.offset=i.offset||0,this.rollbackStartOffset=0}return o(t,[{key:"maxFiniteDuration",get:function(){return this.iterations>0?this.iterations*this.duration:this.duration}},{key:"_apply",value:function(t){for(var n=arguments.length>1&&void 0!==arguments[1]?arguments[1]:{},r=this._animations,e=r.length,i=0,o=0;o<e;o++)n[o]?i++:(n[o]=r[o](t,this.direction),n[o]&&i++);return i}},{key:"_rollback",value:function(){var t=this,n=1/0,r=null;this.rollbackStartOffset=this.offset,this._rollingBack=!0,this._running=!0;this._id=window.requestAnimationFrame((function e(i){if(t._rollingBack){null==r&&(r=i);var o=i-r,u=t.rollbackStartOffset-o,a=Math.round(u*t.speed);if(a>t.duration&&n!==1/0){var l=!!t.alternate&&a/t.duration%2>1,f=a%t.duration;a=(f+=l?t.duration:0)||t.duration}var s=t.fps?1e3/t.fps:0,c=Math.max(0,a);c<n-s&&(t.offset=c,n=c,t._apply(c));var h=t.iterations>0&&-1===t.fill&&a>=t.maxFiniteDuration;(a<=0||t.offset<a||h)&&t.stop(),t._id=window.requestAnimationFrame(e)}}))}},{key:"_start",value:function(){var t=this,n=arguments.length>0&&void 0!==arguments[0]?arguments[0]:0,r=-1/0,e=null,i={};this._running=!0;var o=function o(u){null==e&&(e=u);var a=Math.round((u-e+n)*t.speed),l=t.fps?1e3/t.fps:0;if(a>r+l&&!t._rollingBack&&(t.offset=a,r=a,t._apply(a,i)===t._animations.length))return void t.pause(!0);t._id=window.requestAnimationFrame(o)};this._id=window.requestAnimationFrame(o)}},{key:"_pause",value:function(){this._id&&window.cancelAnimationFrame(this._id),this._running=!1}},{key:"play",value:function(){if(!this._running)return this._rollingBack?this._rollback():this._start(this.offset)}},{key:"stop",value:function(){this._pause(),this.offset=0,this.rollbackStartOffset=0,this._rollingBack=!1,this._apply(0)}},{key:"reachedToEnd",value:function(){return this.iterations>0&&this.offset>=this.iterations*this.duration}},{key:"restart",value:function(){var t=arguments.length>0&&void 0!==arguments[0]&&arguments[0];this.stop(t),this.play(t)}},{key:"pause",value:function(){this._pause()}},{key:"reverse",value:function(){this.direction=-this.direction}}],[{key:"build",value:function(t,r){return delete t.animationSettings,t.options=ut(t.options,t.root,"5c7f360c"),t.animations.map((function(r){var e=ut(r.s,t.root,"5c7f360c");for(var i in delete r.s,t.animationSettings||(t.animationSettings=n({},e)),e)e.hasOwnProperty(i)&&(r[i]=e[i])})),(t=function(t,n){if(Y=n,!t||!t.root||!Array.isArray(t.animations))return null;for(var r=document.getElementsByTagName("svg"),e=!1,i=0;i<r.length;i++)if(r[i].id===t.root&&!r[i].svgatorAnimation){(e=r[i]).svgatorAnimation=!0;break}if(!e)return null;var o=t.animations.map((function(t){return rt(e,t)})).filter((function(t){return!!t}));return o.length?{element:e,animations:o,animationSettings:t.animationSettings,options:t.options||void 0}:null}(t,r))?{el:t.element,options:t.options||{},player:new this(t.animations,t.animationSettings,t.options)}:null}},{key:"push",value:function(t){return this.build(t)}},{key:"init",value:function(){var t=this,n=window.__SVGATOR_PLAYER__&&window.__SVGATOR_PLAYER__["5c7f360c"];Array.isArray(n)&&n.splice(0).forEach((function(n){return t.build(n)}))}}]),t}();function lt(t){return p(t)+""}function ft(t){var n=arguments.length>1&&void 0!==arguments[1]?arguments[1]:" ";return t&&t.length?t.map(lt).join(n):""}function st(t){if(!t)return"transparent";if(null==t.a||t.a>=1){var n=function(t){return 1===(t=parseInt(t).toString(16)).length?"0"+t:t},r=function(t){return t.charAt(0)===t.charAt(1)},e=n(t.r),i=n(t.g),o=n(t.b);return r(e)&&r(i)&&r(o)&&(e=e.charAt(0),i=i.charAt(0),o=o.charAt(0)),"#"+e+i+o}return"rgba("+t.r+","+t.g+","+t.b+","+t.a+")"}function ct(t){return t?"url(#"+t+")":"none"}!function(){for(var t=0,n=["ms","moz","webkit","o"],r=0;r<n.length&&!window.requestAnimationFrame;++r)window.requestAnimationFrame=window[n[r]+"RequestAnimationFrame"],window.cancelAnimationFrame=window[n[r]+"CancelAnimationFrame"]||window[n[r]+"CancelRequestAnimationFrame"];window.requestAnimationFrame||(window.requestAnimationFrame=function(n){var r=Date.now(),e=Math.max(0,16-(r-t)),i=window.setTimeout((function(){n(r+e)}),e);return t=r+e,i},window.cancelAnimationFrame=window.clearTimeout)}();var ht={f:null,i:function(t,n,r){return 0===t?n:1===t?r:{x:B(t,n.x,r.x),y:B(t,n.y,r.y)}},u:function(t,n){return function(r){var e=n(r);t.setAttribute("rx",lt(e.x)),t.setAttribute("ry",lt(e.y))}}},vt={f:null,i:function(t,n,r){return 0===t?n:1===t?r:{width:B(t,n.width,r.width),height:B(t,n.height,r.height)}},u:function(t,n){return function(r){var e=n(r);t.setAttribute("width",lt(e.width)),t.setAttribute("height",lt(e.height))}}};Object.freeze({M:2,L:2,Z:0,H:1,V:1,C:6,Q:4,T:2,S:4,A:7});var yt={},gt=null;function pt(t){var n=function(){if(gt)return gt;if("object"!==("undefined"==typeof document?"undefined":r(document))||!document.createElementNS)return{};var t=document.createElementNS("http://www.w3.org/2000/svg","svg");return t&&t.style?(t.style.position="absolute",t.style.opacity="0.01",t.style.zIndex="-9999",t.style.left="-9999px",t.style.width="1px",t.style.height="1px",gt={svg:t}):{}}().svg;if(!n)return function(t){return null};var e=document.createElementNS(n.namespaceURI,"path");e.setAttributeNS(null,"d",t),e.setAttributeNS(null,"fill","none"),e.setAttributeNS(null,"stroke","none"),n.appendChild(e);var i=e.getTotalLength();return function(t){var n=e.getPointAtLength(i*t);return{x:n.x,y:n.y}}}function dt(t){return yt[t]?yt[t]:yt[t]=pt(t)}function mt(t,n,r,e){if(!t||!e)return!1;var i=["M",t.x,t.y];if(n&&r&&(i.push("C"),i.push(n.x),i.push(n.y),i.push(r.x),i.push(r.y)),n?!r:r){var o=n||r;i.push("Q"),i.push(o.x),i.push(o.y)}return n||r||i.push("L"),i.push(e.x),i.push(e.y),i.join(" ")}function bt(t,n,r,e){var i=arguments.length>4&&void 0!==arguments[4]?arguments[4]:1,o=mt(t,n,r,e),u=dt(o);try{return u(i)}catch(t){return null}}function wt(t,n,r){return t+(n-t)*r}function xt(t,n,r){var e=arguments.length>3&&void 0!==arguments[3]&&arguments[3],i={x:wt(t.x,n.x,r),y:wt(t.y,n.y,r)};return e&&(i.a=At(t,n)),i}function At(t,n){return Math.atan2(n.y-t.y,n.x-t.x)}function kt(t,n,r,e){var i=1-e;return i*i*t+2*i*e*n+e*e*r}function _t(t,n,r,e){return 2*(1-e)*(n-t)+2*e*(r-n)}function St(t,n,r,e){var i=arguments.length>4&&void 0!==arguments[4]&&arguments[4],o=bt(t,n,null,r,e);return o||(o={x:kt(t.x,n.x,r.x,e),y:kt(t.y,n.y,r.y,e)}),i&&(o.a=Ot(t,n,r,e)),o}function Ot(t,n,r,e){return Math.atan2(_t(t.y,n.y,r.y,e),_t(t.x,n.x,r.x,e))}function jt(t,n,r,e,i){var o=i*i;return i*o*(e-t+3*(n-r))+3*o*(t+r-2*n)+3*i*(n-t)+t}function Mt(t,n,r,e,i){var o=1-i;return 3*(o*o*(n-t)+2*o*i*(r-n)+i*i*(e-r))}function Pt(t,n,r,e,i){var o=arguments.length>5&&void 0!==arguments[5]&&arguments[5],u=bt(t,n,r,e,i);return u||(u={x:jt(t.x,n.x,r.x,e.x,i),y:jt(t.y,n.y,r.y,e.y,i)}),o&&(u.a=Et(t,n,r,e,i)),u}function Et(t,n,r,e,i){return Math.atan2(Mt(t.y,n.y,r.y,e.y,i),Mt(t.x,n.x,r.x,e.x,i))}function It(t,n,r){var e=arguments.length>3&&void 0!==arguments[3]&&arguments[3];if(Ft(n)){if(Nt(r))return St(n,r.start,r,t,e)}else if(Ft(r)){if(n.end)return St(n,n.end,r,t,e)}else{if(n.end)return r.start?Pt(n,n.end,r.start,r,t,e):St(n,n.end,r,t,e);if(r.start)return St(n,r.start,r,t,e)}return xt(n,r,t,e)}function Rt(t,n,r){var e=It(t,n,r,!0);return e.a=function(t){return arguments.length>1&&void 0!==arguments[1]&&arguments[1]?t+Math.PI:t}(e.a)/m,e}function Ft(t){return!t.type||"corner"===t.type}function Nt(t){return null!=t.start&&!Ft(t)}var Tt=new N;var qt={f:lt,i:q},Bt={f:lt,i:L};function Lt(t,n,r){return t.map((function(t){return function(t,n,r){var e=t.v;if(!e||"g"!==e.t||e.s||!e.v||!e.r)return t;var i=r.getElementById(e.r),o=i&&i.querySelectorAll("stop")||[];return e.s=e.v.map((function(t,n){var r=o[n]&&o[n].getAttribute("offset");return{c:t,o:r=p(parseInt(r)/100)}})),delete e.v,t}(t,0,r)}))}var Ct={gt:"gradientTransform",c:{x:"cx",y:"cy"},rd:"r",f:{x:"x1",y:"y1"},to:{x:"x2",y:"y2"}};function Dt(t,n,e,i,o,u,a,l){return Lt(t,0,l),n=function(t,n,r){for(var e,i,o,u=t.length-1,a={},l=0;l<=u;l++)(e=t[l]).e&&(e.e=n(e.e)),e.v&&"g"===(i=e.v).t&&i.r&&(o=r.getElementById(i.r))&&(a[i.r]={e:o,s:o.querySelectorAll("stop")});return a}(t,i,l),function(i){var o=e(i,t,zt);if(!o)return"none";if("c"===o.t)return st(o.v);if("g"===o.t){if(!n[o.r])return ct(o.r);var u=n[o.r];return function(t,n){for(var r=t.s,e=r.length;e<n.length;e++){var i=r[r.length-1].cloneNode();i.id=Yt(i.id),t.e.appendChild(i),r=t.s=t.e.querySelectorAll("stop")}for(var o=0,u=r.length,a=n.length-1;o<u;o++)r[o].setAttribute("stop-color",st(n[Math.min(o,a)].c)),r[o].setAttribute("offset",n[Math.min(o,a)].o)}(u,o.s),Object.keys(Ct).forEach((function(t){if(void 0!==o[t])if("object"!==r(Ct[t])){var n,e="gt"===t?(n=o[t],Array.isArray(n)?"matrix("+n.join(" ")+")":""):o[t],i=Ct[t];u.e.setAttribute(i,e)}else Object.keys(Ct[t]).forEach((function(n){if(void 0!==o[t][n]){var r=o[t][n],e=Ct[t][n];u.e.setAttribute(e,r)}}))})),ct(o.r)}return"none"}}function zt(t,r,e){if(0===t)return r;if(1===t)return e;if(r&&e){var i=r.t;if(i===e.t)switch(r.t){case"c":return{t:i,v:z(t,r.v,e.v)};case"g":if(r.r===e.r){var o={t:i,s:Vt(t,r.s,e.s),r:r.r};return r.gt&&e.gt&&(o.gt=function(t,n,r){var e=n.length;if(e!==r.length)return T(t,n,r);for(var i=new Array(e),o=0;o<e;o++)i[o]=q(t,n[o],r[o]);return i}(t,r.gt,e.gt)),r.c?(o.c=C(t,r.c,e.c),o.rd=B(t,r.rd,e.rd)):r.f&&(o.f=C(t,r.f,e.f),o.to=C(t,r.to,e.to)),o}}if("c"===r.t&&"g"===e.t||"c"===e.t&&"g"===r.t){var u="c"===r.t?r:e,a="g"===r.t?n({},r):n({},e),l=a.s.map((function(t){return{c:u.v,o:t.o}}));return a.s="c"===r.t?Vt(t,l,a.s):Vt(t,a.s,l),a}}return T(t,r,e)}function Vt(t,n,r){if(n.length===r.length)return n.map((function(n,e){return Gt(t,n,r[e])}));for(var e=Math.max(n.length,r.length),i=[],o=0;o<e;o++){var u=Gt(t,n[Math.min(o,n.length-1)],r[Math.min(o,r.length-1)]);i.push(u)}return i}function Gt(t,n,r){return{o:L(t,n.o,r.o||0),c:z(t,n.c,r.c||{})}}function Yt(t){return t.replace(/-fill-([0-9]+)$/,(function(t,n){return"-fill-"+(+n+1)}))}var $t={fill:Dt,"fill-opacity":Bt,stroke:Dt,"stroke-opacity":Bt,"stroke-width":qt,"stroke-dashoffset":{f:lt,i:q},"stroke-dasharray":{f:function(t){var n=arguments.length>1&&void 0!==arguments[1]?arguments[1]:" ";return t&&t.length>0&&(t=t.map((function(t){return p(t,4)}))),ft(t,n)},i:function(t,n,r){var e,i,o,u=n.length,a=r.length;if(u!==a)if(0===u)n=V(u=a,0);else if(0===a)a=u,r=V(u,0);else{var l=(o=(e=u)*(i=a)/function(t,n){for(var r;n;)r=n,n=t%n,t=r;return t||1}(e,i))<0?-o:o;n=G(n,Math.floor(l/u)),r=G(r,Math.floor(l/a)),u=a=l}for(var f=[],s=0;s<u;s++)f.push(p(B(t,n[s],r[s])));return f}},opacity:Bt,transform:function(t,n,e,i){if(!(t=function(t,n){if(!t||"object"!==r(t))return null;var e=!1;for(var i in t)t.hasOwnProperty(i)&&(t[i]&&t[i].length?(t[i].forEach((function(t){t.e&&(t.e=n(t.e))})),e=!0):delete t[i]);return e?t:null}(t,i)))return null;var o=function(r,i,o){var u=arguments.length>3&&void 0!==arguments[3]?arguments[3]:null;return t[r]?e(i,t[r],o):n&&n[r]?n[r]:u};return n&&n.a&&t.o?function(n){var r=e(n,t.o,Rt);return Tt.recomposeSelf(r,o("r",n,q,0)+r.a,o("k",n,C),o("s",n,C),o("t",n,C)).toString()}:function(t){return Tt.recomposeSelf(o("o",t,It,null),o("r",t,q,0),o("k",t,C),o("s",t,C),o("t",t,C)).toString()}},r:qt,"#size":vt,"#radius":ht,_:function(t,n){if(Array.isArray(t))for(var r=0;r<t.length;r++)this[t[r]]=n;else this[t]=n}},Ut=function(t){!function(t,n){if("function"!=typeof n&&null!==n)throw new TypeError("Super expression must either be null or a function");t.prototype=Object.create(n&&n.prototype,{constructor:{value:t,writable:!0,configurable:!0}}),n&&l(t,n)}(u,t);var n,r,i=(n=u,r=f(),function(){var t,e=a(n);if(r){var i=a(this).constructor;t=Reflect.construct(e,arguments,i)}else t=e.apply(this,arguments);return c(this,t)});function u(){return e(this,u),i.apply(this,arguments)}return o(u,null,[{key:"build",value:function(t){var n=h(a(u),"build",this).call(this,t,$t);if(!n)return null;n.el,n.options,function(t,n,r){t.play()}(n.player)}}]),u}(at);return Ut.init(),Ut}));
(function(s,i,o,w,a,b){w[o]=w[o]||{};w[o][s]=w[o][s]||[];w[o][s].push(i);})('5c7f360c',{"root":"eUtqsMJDVum1","animations":[{"elements":{"eUtqsMJDVum6":{"transform":{"data":{"t":{"x":-118.784991,"y":-148.270004}},"keys":{"o":[{"t":0,"v":{"x":979.084991,"y":168.27,"type":"corner"}},{"t":300,"v":{"x":979.084991,"y":148.270004,"type":"corner"}},{"t":600,"v":{"x":979.084991,"y":148.270004,"type":"corner"}},{"t":900,"v":{"x":979.084991,"y":168.27,"type":"corner"}},{"t":3000,"v":{"x":979.084991,"y":168.27,"type":"corner"}},{"t":3300,"v":{"x":979.084991,"y":148.270004,"type":"corner"}},{"t":3600,"v":{"x":979.084991,"y":148.270004,"type":"corner"}},{"t":3900,"v":{"x":979.084991,"y":168.27,"type":"corner"}},{"t":6000,"v":{"x":979.084991,"y":168.27,"type":"corner"}},{"t":6300,"v":{"x":979.084991,"y":148.270004,"type":"corner"}},{"t":6600,"v":{"x":979.084991,"y":148.270004,"type":"corner"}},{"t":6900,"v":{"x":979.084991,"y":168.27,"type":"corner"}}]}}},"eUtqsMJDVum7":{"transform":{"data":{"t":{"x":-118.784958,"y":-148.270005}},"keys":{"o":[{"t":300,"v":{"x":1009.894958,"y":178.890005,"type":"corner"}},{"t":600,"v":{"x":1009.894958,"y":158.89,"type":"corner"}},{"t":900,"v":{"x":1009.894958,"y":158.89,"type":"corner"}},{"t":1200,"v":{"x":1009.894958,"y":178.89,"type":"corner"}},{"t":3300,"v":{"x":1009.894958,"y":178.890005,"type":"corner"}},{"t":3600,"v":{"x":1009.894958,"y":158.89,"type":"corner"}},{"t":3900,"v":{"x":1009.894958,"y":158.89,"type":"corner"}},{"t":4200,"v":{"x":1009.894958,"y":178.89,"type":"corner"}},{"t":6300,"v":{"x":1009.894958,"y":178.890005,"type":"corner"}},{"t":6600,"v":{"x":1009.894958,"y":158.89,"type":"corner"}},{"t":6900,"v":{"x":1009.894958,"y":158.89,"type":"corner"}},{"t":7200,"v":{"x":1009.894958,"y":178.89,"type":"corner"}}]}}},"eUtqsMJDVum8":{"transform":{"data":{"t":{"x":-118.785024,"y":-148.270003}},"keys":{"o":[{"t":600,"v":{"x":1049.025024,"y":208.960003,"type":"corner"}},{"t":900,"v":{"x":1049.025024,"y":188.96,"type":"corner"}},{"t":1200,"v":{"x":1049.025024,"y":188.96,"type":"corner"}},{"t":1500,"v":{"x":1049.025024,"y":208.96,"type":"corner"}},{"t":3600,"v":{"x":1049.025024,"y":208.960003,"type":"corner"}},{"t":3900,"v":{"x":1049.025024,"y":188.96,"type":"corner"}},{"t":4200,"v":{"x":1049.025024,"y":188.96,"type":"corner"}},{"t":4500,"v":{"x":1049.025024,"y":208.96,"type":"corner"}},{"t":6600,"v":{"x":1049.025024,"y":208.960003,"type":"corner"}},{"t":6900,"v":{"x":1049.025024,"y":188.96,"type":"corner"}},{"t":7200,"v":{"x":1049.025024,"y":188.96,"type":"corner"}},{"t":7500,"v":{"x":1049.025024,"y":208.96,"type":"corner"}}]}}},"eUtqsMJDVum9":{"transform":{"data":{"t":{"x":-1000.260012,"y":-340.53}},"keys":{"o":[{"t":900,"v":{"x":997.33,"y":349.449998,"type":"corner"}},{"t":1200,"v":{"x":997.33,"y":329.45,"type":"corner"}},{"t":1500,"v":{"x":997.33,"y":329.45,"type":"corner"}},{"t":1800,"v":{"x":997.33,"y":349.45,"type":"corner"}},{"t":3900,"v":{"x":997.33,"y":349.449998,"type":"corner"}},{"t":4200,"v":{"x":997.33,"y":329.45,"type":"corner"}},{"t":4500,"v":{"x":997.33,"y":329.45,"type":"corner"}},{"t":4800,"v":{"x":997.33,"y":349.45,"type":"corner"}},{"t":6900,"v":{"x":997.33,"y":349.449998,"type":"corner"}},{"t":7200,"v":{"x":997.33,"y":329.45,"type":"corner"}},{"t":7500,"v":{"x":997.33,"y":329.45,"type":"corner"}},{"t":7800,"v":{"x":997.33,"y":349.45,"type":"corner"}}]}}},"eUtqsMJDVum17":{"transform":{"data":{"o":{"x":339.168472,"y":322.769089,"type":"corner"},"t":{"x":-339.168472,"y":-322.769089}},"keys":{"r":[{"t":0,"v":0},{"t":10000,"v":-1080}]}}},"eUtqsMJDVum20":{"transform":{"data":{"o":{"x":89.599998,"y":436.294968,"type":"corner"},"t":{"x":-89.599998,"y":-436.294968}},"keys":{"r":[{"t":0,"v":0},{"t":10000,"v":1080}]}}},"eUtqsMJDVum21":{"transform":{"data":{"t":{"x":-1427.79,"y":-496.293213}},"keys":{"o":[{"t":0,"v":{"x":1427.79,"y":496.293213,"type":"corner"}},{"t":1000,"v":{"x":1337.704941,"y":496.293213,"type":"corner"}},{"t":2000,"v":{"x":1427.79,"y":496.293213,"type":"corner"}},{"t":3000,"v":{"x":1337.704941,"y":496.293213,"type":"corner"}},{"t":4000,"v":{"x":1427.79,"y":496.293213,"type":"corner"}},{"t":5000,"v":{"x":1337.704941,"y":496.293213,"type":"corner"}},{"t":6000,"v":{"x":1427.79,"y":496.293213,"type":"corner"}},{"t":7000,"v":{"x":1337.704941,"y":496.293213,"type":"corner"}},{"t":8000,"v":{"x":1427.79,"y":496.293213,"type":"corner"}},{"t":9000,"v":{"x":1337.704941,"y":496.293213,"type":"corner"}},{"t":10000,"v":{"x":1427.79,"y":496.293213,"type":"corner"}}]}}},"eUtqsMJDVum37":{"transform":{"data":{"o":{"x":1658.950001,"y":936.512311,"type":"corner"},"t":{"x":-1658.949992,"y":-936.512311}},"keys":{"r":[{"t":0,"v":0},{"t":200,"v":13},{"t":400,"v":-13},{"t":600,"v":0},{"t":1500,"v":0},{"t":1700,"v":13},{"t":1900,"v":-13},{"t":2100,"v":0},{"t":3000,"v":0},{"t":3200,"v":13},{"t":3400,"v":-13},{"t":3600,"v":0},{"t":4500,"v":0},{"t":4700,"v":13},{"t":4900,"v":-13},{"t":5100,"v":0},{"t":6000,"v":0},{"t":6200,"v":13},{"t":6400,"v":-13},{"t":6600,"v":0},{"t":7500,"v":0},{"t":7700,"v":13},{"t":7900,"v":-13},{"t":8100,"v":0},{"t":9000,"v":0},{"t":9200,"v":13},{"t":9400,"v":-13},{"t":9600,"v":0}]}}},"eUtqsMJDVum40":{"transform":{"data":{"t":{"x":-174.288827,"y":-1066.304962}},"keys":{"o":[{"t":0,"v":{"x":174,"y":1066.304962,"type":"corner"}},{"t":1000,"v":{"x":174,"y":1010,"type":"corner"}},{"t":2000,"v":{"x":174,"y":1066.89,"type":"corner"}},{"t":3000,"v":{"x":174,"y":1010,"type":"corner"}},{"t":4000,"v":{"x":174,"y":1066.89,"type":"corner"}},{"t":5000,"v":{"x":174,"y":1010,"type":"corner"}},{"t":6000,"v":{"x":174,"y":1066.89,"type":"corner"}},{"t":7000,"v":{"x":174,"y":1010,"type":"corner"}},{"t":8000,"v":{"x":174,"y":1066.89,"type":"corner"}},{"t":9000,"v":{"x":174,"y":1010,"type":"corner"}},{"t":10000,"v":{"x":174,"y":1066.89,"type":"corner"}}]}}},"eUtqsMJDVum49":{"transform":{"data":{"t":{"x":-790.63501,"y":-611.674988}},"keys":{"o":[{"t":0,"v":{"x":790.63501,"y":600.67,"type":"corner"}},{"t":200,"v":{"x":790.63501,"y":590.67,"type":"corner"}},{"t":400,"v":{"x":790.63501,"y":600.67,"type":"corner"}},{"t":1000,"v":{"x":790.63501,"y":600.67,"type":"corner"}},{"t":1200,"v":{"x":790.63501,"y":590.67,"type":"corner"}},{"t":1400,"v":{"x":790.63501,"y":600.67,"type":"corner"}},{"t":2000,"v":{"x":790.63501,"y":600.67,"type":"corner"}},{"t":2200,"v":{"x":790.63501,"y":590.67,"type":"corner"}},{"t":2400,"v":{"x":790.63501,"y":600.67,"type":"corner"}},{"t":3000,"v":{"x":790.63501,"y":600.67,"type":"corner"}},{"t":3200,"v":{"x":790.63501,"y":590.67,"type":"corner"}},{"t":3400,"v":{"x":790.63501,"y":600.67,"type":"corner"}},{"t":4000,"v":{"x":790.63501,"y":600.67,"type":"corner"}},{"t":4200,"v":{"x":790.63501,"y":590.67,"type":"corner"}},{"t":4400,"v":{"x":790.63501,"y":600.67,"type":"corner"}},{"t":5000,"v":{"x":790.63501,"y":600.67,"type":"corner"}},{"t":5200,"v":{"x":790.63501,"y":590.67,"type":"corner"}},{"t":5400,"v":{"x":790.63501,"y":600.67,"type":"corner"}},{"t":6000,"v":{"x":790.63501,"y":600.67,"type":"corner"}},{"t":6200,"v":{"x":790.63501,"y":590.67,"type":"corner"}},{"t":6400,"v":{"x":790.63501,"y":600.67,"type":"corner"}},{"t":7000,"v":{"x":790.63501,"y":600.67,"type":"corner"}},{"t":7200,"v":{"x":790.63501,"y":590.67,"type":"corner"}},{"t":7400,"v":{"x":790.63501,"y":600.67,"type":"corner"}},{"t":8000,"v":{"x":790.63501,"y":600.67,"type":"corner"}},{"t":8200,"v":{"x":790.63501,"y":590.67,"type":"corner"}},{"t":8400,"v":{"x":790.63501,"y":600.67,"type":"corner"}},{"t":9000,"v":{"x":790.63501,"y":600.67,"type":"corner"}},{"t":9200,"v":{"x":790.63501,"y":590.67,"type":"corner"}},{"t":9400,"v":{"x":790.63501,"y":600.67,"type":"corner"}}]}}},"eUtqsMJDVum50":{"transform":{"data":{"t":{"x":-833.119995,"y":-616.174988}},"keys":{"o":[{"t":0,"v":{"x":833.119995,"y":616.17,"type":"corner"}},{"t":200,"v":{"x":833.119995,"y":626.17,"type":"corner"}},{"t":400,"v":{"x":833.119995,"y":616.17,"type":"corner"}},{"t":1000,"v":{"x":833.119995,"y":616.17,"type":"corner"}},{"t":1200,"v":{"x":833.119995,"y":626.17,"type":"corner"}},{"t":1400,"v":{"x":833.119995,"y":616.17,"type":"corner"}},{"t":2000,"v":{"x":833.119995,"y":616.17,"type":"corner"}},{"t":2200,"v":{"x":833.119995,"y":626.17,"type":"corner"}},{"t":2400,"v":{"x":833.119995,"y":616.17,"type":"corner"}},{"t":3000,"v":{"x":833.119995,"y":616.17,"type":"corner"}},{"t":3200,"v":{"x":833.119995,"y":626.17,"type":"corner"}},{"t":3400,"v":{"x":833.119995,"y":616.17,"type":"corner"}},{"t":4000,"v":{"x":833.119995,"y":616.17,"type":"corner"}},{"t":4200,"v":{"x":833.119995,"y":626.17,"type":"corner"}},{"t":4400,"v":{"x":833.119995,"y":616.17,"type":"corner"}},{"t":5000,"v":{"x":833.119995,"y":616.17,"type":"corner"}},{"t":5200,"v":{"x":833.119995,"y":626.17,"type":"corner"}},{"t":5400,"v":{"x":833.119995,"y":616.17,"type":"corner"}},{"t":6000,"v":{"x":833.119995,"y":616.17,"type":"corner"}},{"t":6200,"v":{"x":833.119995,"y":626.17,"type":"corner"}},{"t":6400,"v":{"x":833.119995,"y":616.17,"type":"corner"}},{"t":7000,"v":{"x":833.119995,"y":616.17,"type":"corner"}},{"t":7200,"v":{"x":833.119995,"y":626.17,"type":"corner"}},{"t":7400,"v":{"x":833.119995,"y":616.17,"type":"corner"}},{"t":8000,"v":{"x":833.119995,"y":616.17,"type":"corner"}},{"t":8200,"v":{"x":833.119995,"y":626.17,"type":"corner"}},{"t":8400,"v":{"x":833.119995,"y":616.17,"type":"corner"}},{"t":9000,"v":{"x":833.119995,"y":616.17,"type":"corner"}},{"t":9200,"v":{"x":833.119995,"y":626.17,"type":"corner"}},{"t":9400,"v":{"x":833.119995,"y":616.17,"type":"corner"}}]}}}},"s":"MTDA1NDk0M2I3ZDhlOGKI3YThkODI4ODg3M2JJPNTM0YTQ5NDk0OTQ5ANDUzYkM3ZDgyOGJYNJ2U3YzhkODI4ODg3M2JI1MzRhNDVEM2I4MjhRkN2U4YjdhOGRWODI4POFlVODc4YzNiVjUzNJDk0NTNiN2Y4Mjg1ODWUzYjUzNGE0NTNiN2EG4NThkN2U4Yjg3N2E4GZDdlM2I1MzdmN2E4NFThjWTdlNDUzYjhjODUk3ZTdlN2QzYjUzNGEX5Ng|"}],"options":"MSDAxMDg4MmZPODA4MVPg2ZTdmODEyZjQ3MmYU3OTdjNmU3MTJmOGE/S"},'__SVGATOR_PLAYER__',window)]]></script></svg>