<svg id="eE6KYFUwT5O1" xmlns="http://www.w3.org/2000/svg" xmlns:xlink="http://www.w3.org/1999/xlink" viewBox="0 0 1248.06 1082.93" shape-rendering="geometricPrecision" text-rendering="geometricPrecision"><g><g><path d="M1248.06,171.21v734.38c0,17.59-15.4,33.35-33,33.35h-1056.66c-17.55,0-30.62-15.76-30.62-33.35v-734.38c0-17.55,13.07-31.42,30.62-31.42h1056.71c17.55,0,32.95,13.87,32.95,31.42Z" fill="#27325b"/><path d="M1248.06,262.73v642.86c0,17.59-15.4,33.35-33,33.35h-1056.66c-17.55,0-30.62-15.76-30.62-33.35v-250.22c93-178.65,314.62-207.78,574.13-103.23c367.35,147.99,523.99-52.89,546.15-289.41Z" transform="translate(0-1.530046)" fill="#34447d"/><path d="M959.49,855.14h-536c-4.87284.002655-9.546864-1.931898-12.992483-5.377517s-5.380172-8.119643-5.377517-12.992483v0c-.002653-4.873759,1.931581-9.54881,5.376912-12.996017s8.119328-5.383984,12.993088-5.383983h536c10.150994,0,18.38,8.229006,18.38,18.38v0c.000001,4.87376-1.936777,9.547758-5.383983,12.993088s-8.122258,5.379565-12.996017,5.376912Z" fill="#27325b"/><g id="eE6KYFUwT5O7" transform="translate(.000001 0)"><path d="M423.49,851.37c-8.063357,0-14.6-6.536643-14.6-14.6s6.536643-14.6,14.6-14.6h316.92c8.063357,0,14.6,6.536643,14.6,14.6s-6.536643,14.6-14.6,14.6Z" fill="#007cff"/><path d="M423.49,851.37c-8.063357,0-14.6-6.536643-14.6-14.6s6.536643-14.6,14.6-14.6h316.92c8.063357,0,14.6,6.536643,14.6,14.6s-6.536643,14.6-14.6,14.6Z" fill="#f1835a"/></g><rect style="isolation:isolate" width="252.71" height="252.71" rx="26.07" ry="26.07" transform="translate(247.53 66.18)" opacity="0.2"/><rect style="isolation:isolate" width="259.09" height="259.09" rx="26.73" ry="26.73" transform="translate(270.75 38.24)" fill="#007cff"/><rect width="259.09" height="259.09" rx="26.73" ry="26.73" transform="translate(270.75 38.24)" fill="#4858e8"/><g id="eE6KYFUwT5O13"><path d="M420.25,137.89v-15.67l-8.07-.76c-1.073677-5.1604-3.109114-10.072588-6-14.48l5.18-6.26-11.09-11.08L394,94.82c-4.407412-2.890886-9.3196-4.926323-14.48-6l-.76-8.07h-15.66l-.76,8.07c-5.156921,1.07487-10.065614,3.110265-14.47,6l-6.26-5.18-11.08,11.08l5.18,6.26c-2.890886,4.407412-4.926323,9.3196-6,14.48l-8.06.76v15.67l8.06.76c1.07487,5.156921,3.110265,10.065614,6,14.47l-5.18,6.26l11.08,11.08l6.26-5.18c4.402475,2.893343,9.311876,4.929031,14.47,6l.76,8.06h15.67l.76-8.06c5.161816-1.069078,10.074839-3.104861,14.48-6l6.26,5.18l11.08-11.08-5.18-6.26c2.893769-4.402249,4.929492-9.311734,6-14.47Zm-49.31,13.37c-8.578644,0-16.31258-5.167651-19.595485-13.093284s-1.468267-17.048433,4.59775-23.114451s15.188817-7.880655,23.114451-4.59775s13.093284,11.016841,13.093284,19.595485c.002654,5.626055-2.231112,11.022444-6.209334,15.000666s-9.374611,6.211988-15.000666,6.209334Z" fill="#f1835a"/></g><g id="eE6KYFUwT5O15" transform="translate(0 0.000001)"><path d="M483.76,182.12v-12.28l-6.32-.6c-.841678-4.042937-2.43971-7.890428-4.71-11.34l4.06-4.9-8.69-8.69-4.9,4.06c-3.449572-2.27029-7.297063-3.868322-11.34-4.71l-.6-6.32h-12.26l-.59,6.32c-4.067502.832563-7.939602,2.43095-11.41,4.71l-4.9-4.06-8.64,8.69l4.06,4.9c-2.273386,3.449052-3.874794,7.296503-4.72,11.34l-6.32.6v12.28l6.32.59c.843315,4.047191,2.444819,7.898263,4.72,11.35l-4.06,4.9l8.68,8.68l4.9-4.06c3.454328,2.270301,7.304442,3.871406,11.35,4.72l.59,6.32h12.28l.6-6.32c4.042079-.849784,7.888699-2.450847,11.34-4.72l4.9,4.06l8.69-8.68-4.06-4.9c2.272087-3.452256,3.870214-7.30337,4.71-11.35ZM445.12,192.6c-6.723981-.000005-12.785498-4.051505-15.356782-10.264429s-1.145678-13.363049,3.611757-18.114759s11.909271-6.168705,18.119094-3.589942s10.254022,8.645153,10.245931,15.36913c-.011036,9.171161-7.448832,16.600007-16.62,16.6Z" fill="#f1835a"/></g><g id="eE6KYFUwT5O17" transform="translate(0 0.000001)"><path d="M420.25,217v-10.33l-5.31-.51c-.723916-3.396289-2.080892-6.625892-4-9.52l3.41-4.12-7.29-7.3-4.06,3.42c-2.893344-1.927327-6.127838-3.284931-9.53-4l-.5-5.32h-10.33l-.5,5.32c-3.402162.715069-6.636656,2.072673-9.53,4l-4.12-3.42-7.29,7.3l3.41,4.12c-1.919108,2.894108-3.276084,6.123711-4,9.52l-5.31.51v10.33l5.31.5c.723867,3.399412,2.080798,6.632302,4,9.53l-3.41,4.12l7.29,7.29l4.12-3.41c2.897698,1.919202,6.130588,3.276133,9.53,4l.5,5.31h10.36l.5-5.31c3.399412-.723867,6.632302-2.080798,9.53-4l4.12,3.41l7.29-7.29L411,227c1.919202-2.897698,3.276133-6.130588,4-9.53Zm-32.45,8.8c-7.731986,0-14-6.268014-14-14s6.268014-14,14-14s14,6.268014,14,14c-.011035,7.724175-6.275817,13.980008-14,13.98Z" fill="#f1835a"/></g><rect style="isolation:isolate" width="245.59" height="245.59" rx="25.34" ry="25.34" transform="translate(746.94 488.3)" opacity="0.2"/><rect style="isolation:isolate" width="239.51" height="239.51" rx="24.71" ry="24.71" transform="translate(770.49 469.01)" fill="#007cff"/><rect width="239.51" height="239.51" rx="24.71" ry="24.71" transform="translate(770.49 469.01)" fill="#4858e8"/><path d="M899.38,627.22c.004046,3.499506-2.100892,6.656677-5.332853,7.998684s-6.95412.60442-9.430076-1.868674-3.217849-6.194397-1.879581-9.427908s4.493002-5.3421,7.99251-5.342102c2.293203-.002654,4.49339.906457,6.115868,2.527059s2.534134,3.819737,2.534132,6.112941Z" transform="translate(-.48495-25.945)" fill="#f1835a"/><g id="eE6KYFUwT5O23" transform="translate(0-27.555031)"><path d="M890,541c-22.772301-.002653-44.612669,9.042434-60.715118,25.144882s-25.147535,37.942817-25.144882,60.715118h68.58c0-10.94,7.74-16.93,17.28-16.93c1.759664.079065,3.498194.415989,5.16,1l34.605-36.53-25.155,43.36c1.783034,2.697176,2.716549,5.866947,2.68,9.1h68.58c.002653-22.774034-9.043806-44.615918-25.148417-60.718654s-37.94755-25.146652-60.721583-25.141346Z" fill="#f1835a"/></g><rect style="isolation:isolate" width="211.05" height="211.05" rx="21.78" ry="21.78" transform="translate(927.9 206.49)" opacity="0.2"/><rect style="isolation:isolate" width="210.14" height="210.14" rx="21.68" ry="21.68" transform="translate(943.03 187.74)" fill="#007cff"/><rect width="210.14" height="210.14" rx="21.68" ry="21.68" transform="translate(943.03 187.74)" fill="#4858e8"/><g id="eE6KYFUwT5O28"><path d="M1106.76,241.06c0-1.829994-.726962-3.585036-2.020963-4.879037s-3.049043-2.020963-4.879037-2.020963h-103c-1.831726-.002655-3.589338.723135-4.885503,2.017424s-2.024499,3.050848-2.024497,4.882576v22.68c0,3.816287,3.093712,6.91,6.91,6.91h103c1.831728.000002,3.588287-.728333,4.882576-2.024497s2.020079-3.053777,2.017424-4.885503Zm-34,12.28h-5.92v-5.92h5.92Zm15.79,3c-3.269526,0-5.92-2.650474-5.92-5.92s2.650474-5.92,5.92-5.92s5.92,2.650474,5.92,5.92c-.021955,3.249998-2.659932,5.874584-5.91,5.88Z" fill="#f1835a"/></g><g transform="translate(0 0.000001)"><path d="M1106.76,281.2c0-1.829994-.726962-3.585036-2.020963-4.879037s-3.049043-2.020963-4.879037-2.020963h-103c-1.831726-.002655-3.589338.723135-4.885503,2.017424s-2.024499,3.050848-2.024497,4.882576v22.68c0,3.816287,3.093712,6.91,6.91,6.91h103c1.831728.000002,3.588287-.728333,4.882576-2.024497s2.020079-3.053777,2.017424-4.885503Zm-34,14.57h-5.92v-5.92h5.92Zm15.79,3c-3.269526,0-5.92-2.650474-5.92-5.92s2.650474-5.92,5.92-5.92s5.92,2.650474,5.92,5.92c-.021955,3.249998-2.659932,5.874584-5.91,5.88Z" fill="#f1835a"/></g><g id="eE6KYFUwT5O32"><path d="M1106.76,321.34c0-1.829994-.726962-3.585036-2.020963-4.879037s-3.049043-2.020963-4.879037-2.020963h-103c-1.831726-.002655-3.589338.723135-4.885503,2.017424s-2.024499,3.050848-2.024497,4.882576v22.66c0,3.816287,3.093712,6.91,6.91,6.91h103c1.831728.000002,3.588287-.728333,4.882576-2.024497s2.020079-3.053777,2.017424-4.885503Zm-34,16.85h-5.92v-5.92h5.92Zm15.79,3c-3.269526,0-5.92-2.650474-5.92-5.92s2.650474-5.92,5.92-5.92s5.92,2.650474,5.92,5.92c-.021955,3.249998-2.659932,5.874584-5.91,5.88Z" fill="#f1835a"/></g><rect style="isolation:isolate" width="272.82" height="272.82" rx="28.15" ry="28.15" transform="translate(428.78 371.48)" opacity="0.2"/><rect style="isolation:isolate" width="259.09" height="259.09" rx="26.73" ry="26.73" transform="translate(456.29 362.19)" fill="#007cff"/><rect width="259.09" height="259.09" rx="26.73" ry="26.73" transform="translate(456.29 362.19)" fill="#4858e8"/><g id="eE6KYFUwT5O37"><g transform="translate(0 0.000001)"><path d="M514.16,562.87v0c-3.797669-3.795993-5.931318-8.94547-5.931318-14.315s2.133649-10.519007,5.931318-14.315L561.41,487c4.463182-4.460719,11.696818-4.460719,16.16,0L590,499.46c4.460719,4.463182,4.460719,11.696818,0,16.16l-47.25,47.25c-7.904882,7.8708-20.685118,7.8708-28.59,0Z" fill="#f1835a"/><polygon points="601.22,485.09 591.93,475.81 645.33,422.42 656.94,420.09 654.61,431.7 601.22,485.09" fill="#f1835a"/><path d="M596,497.48L579.55,481c-.705919-.70524-1.102558-1.662159-1.102558-2.66s.396639-1.95476,1.102558-2.66v0c1.473191-1.459112,3.846809-1.459112,5.32,0l16.44,16.45c.705919.70524,1.102558,1.662159,1.102558,2.66s-.396639,1.95476-1.102558,2.66v0c-1.459234,1.47174-3.83423,1.485158-5.31.03Z" fill="#f1835a"/></g><g><path d="M573.86,466l-22.53-22.58c4.22-11.28-4.27-25.15-13.51-28.81L537.64,432c-.038131,4.062226-3.327685,7.342878-7.39,7.37-1.936107.018654-3.800317-.732617-5.182479-2.088524s-2.169045-3.205367-2.187521-5.141476v-17.22c-7.3,2.84-15,11.14-15,21c0,11.17,8.67,20.25,19.48,21.76c3.69408.556004,7.47013.027982,10.87-1.52L561,478.89Z" fill="#f1835a"/><path d="M648.81,551.64v17.23c7.3-2.83,15-11.14,15-21c.058545-11.101384-8.026421-20.569305-19-22.25-3.75-.52-6.82-.55-10.39,1L610.79,503l-12.9,12.9l23.42,23.48c-6.8,13.85,3.79,25.63,13,29.29l-.06-17.14c-.082937-2.659645,1.293791-5.152102,3.589237-6.498028s5.142809-1.330249,7.423296.040872s3.629686,3.878585,3.517467,6.537156Z" fill="#f1835a"/></g></g><rect style="isolation:isolate" width="308.64" height="308.64" rx="31.85" ry="31.85" transform="translate(560.91 24.24)" opacity="0.2"/><rect style="isolation:isolate" width="312.3" height="312.3" rx="32.22" ry="32.22" transform="matrix(-1 0 0-1 896.27 312.3)" fill="#007cff"/><rect width="312.3" height="312.3" rx="32.22" ry="32.22" transform="matrix(-1 0 0-1 896.27 312.3)" fill="#4858e8"/><g id="eE6KYFUwT5O48" transform="translate(0 0.000001)"><path d="M740.05,59.38L644.38,96.91c0,0,12.1,131.37,95.67,156c83.57-24.64,95.67-156,95.67-156Zm-2.44,127.2c-1.239003,1.665268-3.184502,2.65651-5.26,2.68h-.07c-2.098388-.037487-4.054282-1.069249-5.27-2.78l-33.54-46.22c-2.145626-2.949201-1.494201-7.079374,1.455-9.225s7.079374-1.494201,9.225,1.455l28.32,39l46.31-61.09c2.188862-2.901938,6.31409-3.483587,9.22-1.3c2.911765,2.368654,3.468957,6.598046,1.27,9.64Z" fill="#f1835a"/></g><rect width="311.08" height="209.93" rx="0" ry="0" transform="translate(897.04 873)" fill="#007cff"/><rect width="311.08" height="209.93" rx="0" ry="0" transform="translate(897.04 873)" fill="#f1835a"/><rect width="298.74" height="186.75" rx="0" ry="0" transform="translate(902.82 889.18)" fill="#1a2e35"/><rect width="245.62" height="5.47" rx="0" ry="0" transform="translate(916.5 918.11)" fill="#4858e8"/><rect width="209.11" height="5.47" rx="0" ry="0" transform="translate(916.5 933.62)" fill="#4858e8"/><rect width="245.62" height="5.47" rx="0" ry="0" transform="translate(916.5 949.13)" fill="#4858e8"/><rect width="209.11" height="5.47" rx="0" ry="0" transform="translate(916.5 964.64)" fill="#4858e8"/><rect width="26.53" height="5.47" rx="0" ry="0" transform="translate(916.5 980.15)" fill="#4858e8"/><rect width="136.08" height="5.47" rx="0" ry="0" transform="translate(916.5 995.66)" fill="#4858e8"/><rect width="209.11" height="5.47" rx="0" ry="0" transform="translate(916.5 1011.16)" fill="#4858e8"/><rect width="26.53" height="5.47" rx="0" ry="0" transform="translate(916.5 1026.67)" fill="#4858e8"/><rect width="26.53" height="5.47" rx="0" ry="0" transform="translate(916.5 1042.18)" fill="#4858e8"/><rect width="311.08" height="209.93" rx="0" ry="0" transform="translate(0 436.23)" fill="#007cff"/><rect width="311.08" height="209.93" rx="0" ry="0" transform="translate(0 436.23)" fill="#f1835a"/><rect width="298.74" height="186.75" rx="0" ry="0" transform="translate(5.78 452.42)" fill="#1a2e35"/><rect width="245.62" height="5.47" rx="0" ry="0" transform="translate(19.46 481.34)" fill="#4858e8"/><rect width="209.11" height="5.47" rx="0" ry="0" transform="translate(19.46 496.85)" fill="#4858e8"/><rect width="245.62" height="5.47" rx="0" ry="0" transform="translate(19.46 512.36)" fill="#4858e8"/><rect width="209.11" height="5.47" rx="0" ry="0" transform="translate(19.46 527.87)" fill="#4858e8"/><rect width="26.54" height="5.47" rx="0" ry="0" transform="translate(19.46 543.38)" fill="#4858e8"/><rect width="136.08" height="5.47" rx="0" ry="0" transform="translate(19.46 558.89)" fill="#4858e8"/><rect width="209.11" height="5.47" rx="0" ry="0" transform="translate(19.46 574.4)" fill="#4858e8"/><rect width="26.54" height="5.47" rx="0" ry="0" transform="translate(19.46 589.9)" fill="#4858e8"/><rect width="26.54" height="5.47" rx="0" ry="0" transform="translate(19.46 605.41)" fill="#4858e8"/></g></g><script><![CDATA[!function(t,n){"object"==typeof exports&&"undefined"!=typeof module?module.exports=n():"function"==typeof define&&define.amd?define(n):((t="undefined"!=typeof globalThis?globalThis:t||self).__SVGATOR_PLAYER__=t.__SVGATOR_PLAYER__||{},t.__SVGATOR_PLAYER__["5c7f360c"]=n())}(this,(function(){"use strict";function t(t,n){var r=Object.keys(t);if(Object.getOwnPropertySymbols){var e=Object.getOwnPropertySymbols(t);n&&(e=e.filter((function(n){return Object.getOwnPropertyDescriptor(t,n).enumerable}))),r.push.apply(r,e)}return r}function n(n){for(var r=1;r<arguments.length;r++){var e=null!=arguments[r]?arguments[r]:{};r%2?t(Object(e),!0).forEach((function(t){u(n,t,e[t])})):Object.getOwnPropertyDescriptors?Object.defineProperties(n,Object.getOwnPropertyDescriptors(e)):t(Object(e)).forEach((function(t){Object.defineProperty(n,t,Object.getOwnPropertyDescriptor(e,t))}))}return n}function r(t){return(r="function"==typeof Symbol&&"symbol"==typeof Symbol.iterator?function(t){return typeof t}:function(t){return t&&"function"==typeof Symbol&&t.constructor===Symbol&&t!==Symbol.prototype?"symbol":typeof t})(t)}function e(t,n){if(!(t instanceof n))throw new TypeError("Cannot call a class as a function")}function i(t,n){for(var r=0;r<n.length;r++){var e=n[r];e.enumerable=e.enumerable||!1,e.configurable=!0,"value"in e&&(e.writable=!0),Object.defineProperty(t,e.key,e)}}function o(t,n,r){return n&&i(t.prototype,n),r&&i(t,r),t}function u(t,n,r){return n in t?Object.defineProperty(t,n,{value:r,enumerable:!0,configurable:!0,writable:!0}):t[n]=r,t}function a(t){return(a=Object.setPrototypeOf?Object.getPrototypeOf:function(t){return t.__proto__||Object.getPrototypeOf(t)})(t)}function l(t,n){return(l=Object.setPrototypeOf||function(t,n){return t.__proto__=n,t})(t,n)}function f(){if("undefined"==typeof Reflect||!Reflect.construct)return!1;if(Reflect.construct.sham)return!1;if("function"==typeof Proxy)return!0;try{return Boolean.prototype.valueOf.call(Reflect.construct(Boolean,[],(function(){}))),!0}catch(t){return!1}}function s(t,n,r){return(s=f()?Reflect.construct:function(t,n,r){var e=[null];e.push.apply(e,n);var i=new(Function.bind.apply(t,e));return r&&l(i,r.prototype),i}).apply(null,arguments)}function c(t,n){if(n&&("object"==typeof n||"function"==typeof n))return n;if(void 0!==n)throw new TypeError("Derived constructors may only return object or undefined");return function(t){if(void 0===t)throw new ReferenceError("this hasn't been initialised - super() hasn't been called");return t}(t)}function h(t,n,r){return(h="undefined"!=typeof Reflect&&Reflect.get?Reflect.get:function(t,n,r){var e=function(t,n){for(;!Object.prototype.hasOwnProperty.call(t,n)&&null!==(t=a(t)););return t}(t,n);if(e){var i=Object.getOwnPropertyDescriptor(e,n);return i.get?i.get.call(r):i.value}})(t,n,r||t)}function v(t){return function(t){if(Array.isArray(t))return y(t)}(t)||function(t){if("undefined"!=typeof Symbol&&null!=t[Symbol.iterator]||null!=t["@@iterator"])return Array.from(t)}(t)||function(t,n){if(!t)return;if("string"==typeof t)return y(t,n);var r=Object.prototype.toString.call(t).slice(8,-1);"Object"===r&&t.constructor&&(r=t.constructor.name);if("Map"===r||"Set"===r)return Array.from(t);if("Arguments"===r||/^(?:Ui|I)nt(?:8|16|32)(?:Clamped)?Array$/.test(r))return y(t,n)}(t)||function(){throw new TypeError("Invalid attempt to spread non-iterable instance.\nIn order to be iterable, non-array objects must have a [Symbol.iterator]() method.")}()}function y(t,n){(null==n||n>t.length)&&(n=t.length);for(var r=0,e=new Array(n);r<n;r++)e[r]=t[r];return e}Number.isInteger||(Number.isInteger=function(t){return"number"==typeof t&&isFinite(t)&&Math.floor(t)===t}),Number.EPSILON||(Number.EPSILON=2220446049250313e-31);var g=p(Math.pow(10,-6));function p(t){var n=arguments.length>1&&void 0!==arguments[1]?arguments[1]:6;if(Number.isInteger(t))return t;var r=Math.pow(10,n);return Math.round((+t+Number.EPSILON)*r)/r}function d(t,n){var r=arguments.length>2&&void 0!==arguments[2]?arguments[2]:g;return Math.abs(t-n)<r}var m=Math.PI/180;function b(t){return t}function w(t,n,r){var e=1-r;return 3*r*e*(t*e+n*r)+r*r*r}function x(){var t=arguments.length>0&&void 0!==arguments[0]?arguments[0]:0,n=arguments.length>1&&void 0!==arguments[1]?arguments[1]:0,r=arguments.length>2&&void 0!==arguments[2]?arguments[2]:1,e=arguments.length>3&&void 0!==arguments[3]?arguments[3]:1;return t<0||t>1||r<0||r>1?null:d(t,n)&&d(r,e)?b:function(i){if(i<=0)return t>0?i*n/t:0===n&&r>0?i*e/r:0;if(i>=1)return r<1?1+(i-1)*(e-1)/(r-1):1===r&&t<1?1+(i-1)*(n-1)/(t-1):1;for(var o,u=0,a=1;u<a;){var l=w(t,r,o=(u+a)/2);if(d(i,l))break;l<i?u=o:a=o}return w(n,e,o)}}function A(){return 1}function k(t){return 1===t?1:0}function _(){var t=arguments.length>0&&void 0!==arguments[0]?arguments[0]:1,n=arguments.length>1&&void 0!==arguments[1]?arguments[1]:0;if(1===t){if(0===n)return k;if(1===n)return A}var r=1/t;return function(t){return t>=1?1:(t+=n*r)-t%r}}var S=Math.sin,O=Math.cos,j=Math.acos,M=Math.asin,P=Math.tan,E=Math.atan2,I=Math.PI/180,R=180/Math.PI,F=Math.sqrt,N=function(){function t(){var n=arguments.length>0&&void 0!==arguments[0]?arguments[0]:1,r=arguments.length>1&&void 0!==arguments[1]?arguments[1]:0,i=arguments.length>2&&void 0!==arguments[2]?arguments[2]:0,o=arguments.length>3&&void 0!==arguments[3]?arguments[3]:1,u=arguments.length>4&&void 0!==arguments[4]?arguments[4]:0,a=arguments.length>5&&void 0!==arguments[5]?arguments[5]:0;e(this,t),this.m=[n,r,i,o,u,a],this.i=null,this.w=null,this.s=null}return o(t,[{key:"determinant",get:function(){var t=this.m;return t[0]*t[3]-t[1]*t[2]}},{key:"isIdentity",get:function(){if(null===this.i){var t=this.m;this.i=1===t[0]&&0===t[1]&&0===t[2]&&1===t[3]&&0===t[4]&&0===t[5]}return this.i}},{key:"point",value:function(t,n){var r=this.m;return{x:r[0]*t+r[2]*n+r[4],y:r[1]*t+r[3]*n+r[5]}}},{key:"translateSelf",value:function(){var t=arguments.length>0&&void 0!==arguments[0]?arguments[0]:0,n=arguments.length>1&&void 0!==arguments[1]?arguments[1]:0;if(!t&&!n)return this;var r=this.m;return r[4]+=r[0]*t+r[2]*n,r[5]+=r[1]*t+r[3]*n,this.w=this.s=this.i=null,this}},{key:"rotateSelf",value:function(){var t=arguments.length>0&&void 0!==arguments[0]?arguments[0]:0;if(t%=360){var n=S(t*=I),r=O(t),e=this.m,i=e[0],o=e[1];e[0]=i*r+e[2]*n,e[1]=o*r+e[3]*n,e[2]=e[2]*r-i*n,e[3]=e[3]*r-o*n,this.w=this.s=this.i=null}return this}},{key:"scaleSelf",value:function(){var t=arguments.length>0&&void 0!==arguments[0]?arguments[0]:1,n=arguments.length>1&&void 0!==arguments[1]?arguments[1]:1;if(1!==t||1!==n){var r=this.m;r[0]*=t,r[1]*=t,r[2]*=n,r[3]*=n,this.w=this.s=this.i=null}return this}},{key:"skewSelf",value:function(t,n){if(n%=360,(t%=360)||n){var r=this.m,e=r[0],i=r[1],o=r[2],u=r[3];t&&(t=P(t*I),r[2]+=e*t,r[3]+=i*t),n&&(n=P(n*I),r[0]+=o*n,r[1]+=u*n),this.w=this.s=this.i=null}return this}},{key:"resetSelf",value:function(){var t=arguments.length>0&&void 0!==arguments[0]?arguments[0]:1,n=arguments.length>1&&void 0!==arguments[1]?arguments[1]:0,r=arguments.length>2&&void 0!==arguments[2]?arguments[2]:0,e=arguments.length>3&&void 0!==arguments[3]?arguments[3]:1,i=arguments.length>4&&void 0!==arguments[4]?arguments[4]:0,o=arguments.length>5&&void 0!==arguments[5]?arguments[5]:0,u=this.m;return u[0]=t,u[1]=n,u[2]=r,u[3]=e,u[4]=i,u[5]=o,this.w=this.s=this.i=null,this}},{key:"recomposeSelf",value:function(){var t=arguments.length>0&&void 0!==arguments[0]?arguments[0]:null,n=arguments.length>1&&void 0!==arguments[1]?arguments[1]:null,r=arguments.length>2&&void 0!==arguments[2]?arguments[2]:null,e=arguments.length>3&&void 0!==arguments[3]?arguments[3]:null,i=arguments.length>4&&void 0!==arguments[4]?arguments[4]:null;return this.isIdentity||this.resetSelf(),t&&(t.x||t.y)&&this.translateSelf(t.x,t.y),n&&this.rotateSelf(n),r&&(r.x&&this.skewSelf(r.x,0),r.y&&this.skewSelf(0,r.y)),!e||1===e.x&&1===e.y||this.scaleSelf(e.x,e.y),i&&(i.x||i.y)&&this.translateSelf(i.x,i.y),this}},{key:"decompose",value:function(){var t=arguments.length>0&&void 0!==arguments[0]?arguments[0]:0,n=arguments.length>1&&void 0!==arguments[1]?arguments[1]:0,r=this.m,e=r[0]*r[0]+r[1]*r[1],i=[[r[0],r[1]],[r[2],r[3]]],o=F(e);if(0===o)return{origin:{x:p(r[4]),y:p(r[5])},translate:{x:p(t),y:p(n)},scale:{x:0,y:0},skew:{x:0,y:0},rotate:0};i[0][0]/=o,i[0][1]/=o;var u=r[0]*r[3]-r[1]*r[2]<0;u&&(o=-o);var a=i[0][0]*i[1][0]+i[0][1]*i[1][1];i[1][0]-=i[0][0]*a,i[1][1]-=i[0][1]*a;var l=F(i[1][0]*i[1][0]+i[1][1]*i[1][1]);if(0===l)return{origin:{x:p(r[4]),y:p(r[5])},translate:{x:p(t),y:p(n)},scale:{x:p(o),y:0},skew:{x:0,y:0},rotate:0};i[1][0]/=l,i[1][1]/=l,a/=l;var f=0;return i[1][1]<0?(f=j(i[1][1])*R,i[0][1]<0&&(f=360-f)):f=M(i[0][1])*R,u&&(f=-f),a=E(a,F(i[0][0]*i[0][0]+i[0][1]*i[0][1]))*R,u&&(a=-a),{origin:{x:p(r[4]),y:p(r[5])},translate:{x:p(t),y:p(n)},scale:{x:p(o),y:p(l)},skew:{x:p(a),y:0},rotate:p(f)}}},{key:"clone",value:function(){var t=this.m;return new this.constructor(t[0],t[1],t[2],t[3],t[4],t[5])}},{key:"toString",value:function(){var t=arguments.length>0&&void 0!==arguments[0]?arguments[0]:" ";if(null===this.s){var n=this.m.map((function(t){return p(t)}));1===n[0]&&0===n[1]&&0===n[2]&&1===n[3]?this.s="translate("+n[4]+t+n[5]+")":this.s="matrix("+n.join(t)+")"}return this.s}}],[{key:"create",value:function(t){return t?Array.isArray(t)?s(this,v(t)):t instanceof this?t.clone():(new this).recomposeSelf(t.origin,t.rotate,t.skew,t.scale,t.translate):new this}}]),t}();function T(t,n,r){return t>=.5?r:n}function q(t,n,r){return 0===t||n===r?n:t*(r-n)+n}function B(t,n,r){var e=q(t,n,r);return e<=0?0:e}function L(t,n,r){var e=q(t,n,r);return e<=0?0:e>=1?1:e}function C(t,n,r){return 0===t?n:1===t?r:{x:q(t,n.x,r.x),y:q(t,n.y,r.y)}}function D(t,n,r){var e=function(t,n,r){return Math.round(q(t,n,r))}(t,n,r);return e<=0?0:e>=255?255:e}function z(t,n,r){return 0===t?n:1===t?r:{r:D(t,n.r,r.r),g:D(t,n.g,r.g),b:D(t,n.b,r.b),a:q(t,null==n.a?1:n.a,null==r.a?1:r.a)}}function V(t,n){for(var r=[],e=0;e<t;e++)r.push(n);return r}function G(t,n){if(--n<=0)return t;var r=(t=Object.assign([],t)).length;do{for(var e=0;e<r;e++)t.push(t[e])}while(--n>0);return t}var Y,$=function(){function t(n){e(this,t),this.list=n,this.length=n.length}return o(t,[{key:"setAttribute",value:function(t,n){for(var r=this.list,e=0;e<this.length;e++)r[e].setAttribute(t,n)}},{key:"removeAttribute",value:function(t){for(var n=this.list,r=0;r<this.length;r++)n[r].removeAttribute(t)}},{key:"style",value:function(t,n){for(var r=this.list,e=0;e<this.length;e++)r[e].style[t]=n}}]),t}(),U=/-./g,Q=function(t,n){return n.toUpperCase()};function H(t){return"function"==typeof t?t:T}function J(t){return t?"function"==typeof t?t:Array.isArray(t)?function(t){var n=arguments.length>1&&void 0!==arguments[1]?arguments[1]:b;if(!Array.isArray(t))return n;switch(t.length){case 1:return _(t[0])||n;case 2:return _(t[0],t[1])||n;case 4:return x(t[0],t[1],t[2],t[3])||n}return n}(t,null):function(t,n){var r=arguments.length>2&&void 0!==arguments[2]?arguments[2]:b;switch(t){case"linear":return b;case"steps":return _(n.steps||1,n.jump||0)||r;case"bezier":case"cubic-bezier":return x(n.x1||0,n.y1||0,n.x2||0,n.y2||0)||r}return r}(t.type,t.value,null):null}function Z(t,n,r){var e=arguments.length>3&&void 0!==arguments[3]&&arguments[3],i=n.length-1;if(t<=n[0].t)return e?[0,0,n[0].v]:n[0].v;if(t>=n[i].t)return e?[i,1,n[i].v]:n[i].v;var o,u=n[0],a=null;for(o=1;o<=i;o++){if(!(t>n[o].t)){a=n[o];break}u=n[o]}return null==a?e?[i,1,n[i].v]:n[i].v:u.t===a.t?e?[o,1,a.v]:a.v:(t=(t-u.t)/(a.t-u.t),u.e&&(t=u.e(t)),e?[o,t,r(t,u.v,a.v)]:r(t,u.v,a.v))}function K(t,n){var r=arguments.length>2&&void 0!==arguments[2]?arguments[2]:null;return t&&t.length?"function"!=typeof n?null:("function"!=typeof r&&(r=null),function(e){var i=Z(e,t,n);return null!=i&&r&&(i=r(i)),i}):null}function W(t,n){return t.t-n.t}function X(t,n,e,i,o){var u,a="@"===e[0],l="#"===e[0],f=Y[e],s=T;switch(a?(u=e.substr(1),e=u.replace(U,Q)):l&&(e=e.substr(1)),r(f)){case"function":if(s=f(i,o,Z,J,e,a,n,t),l)return s;break;case"string":s=K(i,H(f));break;case"object":if((s=K(i,H(f.i),f.f))&&"function"==typeof f.u)return f.u(n,s,e,a,t)}return s?function(t,n,r){if(arguments.length>3&&void 0!==arguments[3]&&arguments[3])return t instanceof $?function(e){return t.style(n,r(e))}:function(e){return t.style[n]=r(e)};if(Array.isArray(n)){var e=n.length;return function(i){var o=r(i);if(null==o)for(var u=0;u<e;u++)t[u].removeAttribute(n);else for(var a=0;a<e;a++)t[a].setAttribute(n,o)}}return function(e){var i=r(e);null==i?t.removeAttribute(n):t.setAttribute(n,i)}}(n,e,s,a):null}function tt(t,n,e,i){if(!i||"object"!==r(i))return null;var o=null,u=null;return Array.isArray(i)?u=function(t){if(!t||!t.length)return null;for(var n=0;n<t.length;n++)t[n].e&&(t[n].e=J(t[n].e));return t.sort(W)}(i):(u=i.keys,o=i.data||null),u?X(t,n,e,u,o):null}function nt(t,n,r){if(!r)return null;var e=[];for(var i in r)if(r.hasOwnProperty(i)){var o=tt(t,n,i,r[i]);o&&e.push(o)}return e.length?e:null}function rt(t,n){if(!n.duration||n.duration<0)return null;var r=function(t,n){if(!n)return null;var r=[];if(Array.isArray(n))for(var e=n.length,i=0;i<e;i++){var o=n[i];if(2===o.length){var u=null;if("string"==typeof o[0])u=t.getElementById(o[0]);else if(Array.isArray(o[0])){u=[];for(var a=0;a<o[0].length;a++)if("string"==typeof o[0][a]){var l=t.getElementById(o[0][a]);l&&u.push(l)}u=u.length?1===u.length?u[0]:new $(u):null}if(u){var f=nt(t,u,o[1]);f&&(r=r.concat(f))}}}else for(var s in n)if(n.hasOwnProperty(s)){var c=t.getElementById(s);if(c){var h=nt(t,c,n[s]);h&&(r=r.concat(h))}}return r.length?r:null}(t,n.elements);return r?function(t,n){var r=arguments.length>2&&void 0!==arguments[2]?arguments[2]:1/0,e=arguments.length>3&&void 0!==arguments[3]?arguments[3]:1,i=arguments.length>4&&void 0!==arguments[4]&&arguments[4],o=arguments.length>5&&void 0!==arguments[5]?arguments[5]:1,u=t.length,a=e>0?n:0;i&&r%2==0&&(a=n-a);var l=null;return function(f,s){var c=f%n,h=1+(f-c)/n;s*=e,i&&h%2==0&&(s=-s);var v=!1;if(h>r)c=a,v=!0,-1===o&&(c=e>0?0:n);else if(s<0&&(c=n-c),c===l)return!1;l=c;for(var y=0;y<u;y++)t[y](c);return v}}(r,n.duration,n.iterations||1/0,n.direction||1,!!n.alternate,n.fill||1):null}function et(t){return+("0x"+(t.replace(/[^0-9a-fA-F]+/g,"")||27))}function it(t,n,r){return!t||!r||n>t.length?t:t.substring(0,n)+it(t.substring(n+1),r,r)}function ot(t){var n=arguments.length>1&&void 0!==arguments[1]?arguments[1]:27;return!t||t%n?t%n:ot(t/n,n)}function ut(t,n,r){if(t&&t.length){var e=et(r),i=et(n),o=ot(e)+5,u=it(t,ot(e,5),o);return u=u.replace(/\x7c$/g,"==").replace(/\x2f$/g,"="),u=function(t,n,r){var e=+("0x"+t.substring(0,4));t=t.substring(4);for(var i=n%e+r%27,o=[],u=0;u<t.length;u+=2)if("|"!==t[u]){var a=+("0x"+t[u]+t[u+1])-i;o.push(a)}else{var l=+("0x"+t.substring(u+1,u+1+4))-i;u+=3,o.push(l)}return String.fromCharCode.apply(String,o)}(u=(u=atob(u)).replace(/[\x41-\x5A]/g,""),i,e),u=JSON.parse(u)}}var at=function(){function t(n,r){var i=arguments.length>2&&void 0!==arguments[2]?arguments[2]:{};e(this,t),this._id=0,this._running=!1,this._rollingBack=!1,this._animations=n,this.duration=r.duration,this.alternate=r.alternate,this.fill=r.fill,this.iterations=r.iterations,this.direction=i.direction||1,this.speed=i.speed||1,this.fps=i.fps||100,this.offset=i.offset||0,this.rollbackStartOffset=0}return o(t,[{key:"maxFiniteDuration",get:function(){return this.iterations>0?this.iterations*this.duration:this.duration}},{key:"_apply",value:function(t){for(var n=arguments.length>1&&void 0!==arguments[1]?arguments[1]:{},r=this._animations,e=r.length,i=0,o=0;o<e;o++)n[o]?i++:(n[o]=r[o](t,this.direction),n[o]&&i++);return i}},{key:"_rollback",value:function(){var t=this,n=1/0,r=null;this.rollbackStartOffset=this.offset,this._rollingBack=!0,this._running=!0;this._id=window.requestAnimationFrame((function e(i){if(t._rollingBack){null==r&&(r=i);var o=i-r,u=t.rollbackStartOffset-o,a=Math.round(u*t.speed);if(a>t.duration&&n!==1/0){var l=!!t.alternate&&a/t.duration%2>1,f=a%t.duration;a=(f+=l?t.duration:0)||t.duration}var s=t.fps?1e3/t.fps:0,c=Math.max(0,a);c<n-s&&(t.offset=c,n=c,t._apply(c));var h=t.iterations>0&&-1===t.fill&&a>=t.maxFiniteDuration;(a<=0||t.offset<a||h)&&t.stop(),t._id=window.requestAnimationFrame(e)}}))}},{key:"_start",value:function(){var t=this,n=arguments.length>0&&void 0!==arguments[0]?arguments[0]:0,r=-1/0,e=null,i={};this._running=!0;var o=function o(u){null==e&&(e=u);var a=Math.round((u-e+n)*t.speed),l=t.fps?1e3/t.fps:0;if(a>r+l&&!t._rollingBack&&(t.offset=a,r=a,t._apply(a,i)===t._animations.length))return void t.pause(!0);t._id=window.requestAnimationFrame(o)};this._id=window.requestAnimationFrame(o)}},{key:"_pause",value:function(){this._id&&window.cancelAnimationFrame(this._id),this._running=!1}},{key:"play",value:function(){if(!this._running)return this._rollingBack?this._rollback():this._start(this.offset)}},{key:"stop",value:function(){this._pause(),this.offset=0,this.rollbackStartOffset=0,this._rollingBack=!1,this._apply(0)}},{key:"reachedToEnd",value:function(){return this.iterations>0&&this.offset>=this.iterations*this.duration}},{key:"restart",value:function(){var t=arguments.length>0&&void 0!==arguments[0]&&arguments[0];this.stop(t),this.play(t)}},{key:"pause",value:function(){this._pause()}},{key:"reverse",value:function(){this.direction=-this.direction}}],[{key:"build",value:function(t,r){return delete t.animationSettings,t.options=ut(t.options,t.root,"5c7f360c"),t.animations.map((function(r){var e=ut(r.s,t.root,"5c7f360c");for(var i in delete r.s,t.animationSettings||(t.animationSettings=n({},e)),e)e.hasOwnProperty(i)&&(r[i]=e[i])})),(t=function(t,n){if(Y=n,!t||!t.root||!Array.isArray(t.animations))return null;for(var r=document.getElementsByTagName("svg"),e=!1,i=0;i<r.length;i++)if(r[i].id===t.root&&!r[i].svgatorAnimation){(e=r[i]).svgatorAnimation=!0;break}if(!e)return null;var o=t.animations.map((function(t){return rt(e,t)})).filter((function(t){return!!t}));return o.length?{element:e,animations:o,animationSettings:t.animationSettings,options:t.options||void 0}:null}(t,r))?{el:t.element,options:t.options||{},player:new this(t.animations,t.animationSettings,t.options)}:null}},{key:"push",value:function(t){return this.build(t)}},{key:"init",value:function(){var t=this,n=window.__SVGATOR_PLAYER__&&window.__SVGATOR_PLAYER__["5c7f360c"];Array.isArray(n)&&n.splice(0).forEach((function(n){return t.build(n)}))}}]),t}();function lt(t){return p(t)+""}function ft(t){var n=arguments.length>1&&void 0!==arguments[1]?arguments[1]:" ";return t&&t.length?t.map(lt).join(n):""}function st(t){if(!t)return"transparent";if(null==t.a||t.a>=1){var n=function(t){return 1===(t=parseInt(t).toString(16)).length?"0"+t:t},r=function(t){return t.charAt(0)===t.charAt(1)},e=n(t.r),i=n(t.g),o=n(t.b);return r(e)&&r(i)&&r(o)&&(e=e.charAt(0),i=i.charAt(0),o=o.charAt(0)),"#"+e+i+o}return"rgba("+t.r+","+t.g+","+t.b+","+t.a+")"}function ct(t){return t?"url(#"+t+")":"none"}!function(){for(var t=0,n=["ms","moz","webkit","o"],r=0;r<n.length&&!window.requestAnimationFrame;++r)window.requestAnimationFrame=window[n[r]+"RequestAnimationFrame"],window.cancelAnimationFrame=window[n[r]+"CancelAnimationFrame"]||window[n[r]+"CancelRequestAnimationFrame"];window.requestAnimationFrame||(window.requestAnimationFrame=function(n){var r=Date.now(),e=Math.max(0,16-(r-t)),i=window.setTimeout((function(){n(r+e)}),e);return t=r+e,i},window.cancelAnimationFrame=window.clearTimeout)}();var ht={f:null,i:function(t,n,r){return 0===t?n:1===t?r:{x:B(t,n.x,r.x),y:B(t,n.y,r.y)}},u:function(t,n){return function(r){var e=n(r);t.setAttribute("rx",lt(e.x)),t.setAttribute("ry",lt(e.y))}}},vt={f:null,i:function(t,n,r){return 0===t?n:1===t?r:{width:B(t,n.width,r.width),height:B(t,n.height,r.height)}},u:function(t,n){return function(r){var e=n(r);t.setAttribute("width",lt(e.width)),t.setAttribute("height",lt(e.height))}}};Object.freeze({M:2,L:2,Z:0,H:1,V:1,C:6,Q:4,T:2,S:4,A:7});var yt={},gt=null;function pt(t){var n=function(){if(gt)return gt;if("object"!==("undefined"==typeof document?"undefined":r(document))||!document.createElementNS)return{};var t=document.createElementNS("http://www.w3.org/2000/svg","svg");return t&&t.style?(t.style.position="absolute",t.style.opacity="0.01",t.style.zIndex="-9999",t.style.left="-9999px",t.style.width="1px",t.style.height="1px",gt={svg:t}):{}}().svg;if(!n)return function(t){return null};var e=document.createElementNS(n.namespaceURI,"path");e.setAttributeNS(null,"d",t),e.setAttributeNS(null,"fill","none"),e.setAttributeNS(null,"stroke","none"),n.appendChild(e);var i=e.getTotalLength();return function(t){var n=e.getPointAtLength(i*t);return{x:n.x,y:n.y}}}function dt(t){return yt[t]?yt[t]:yt[t]=pt(t)}function mt(t,n,r,e){if(!t||!e)return!1;var i=["M",t.x,t.y];if(n&&r&&(i.push("C"),i.push(n.x),i.push(n.y),i.push(r.x),i.push(r.y)),n?!r:r){var o=n||r;i.push("Q"),i.push(o.x),i.push(o.y)}return n||r||i.push("L"),i.push(e.x),i.push(e.y),i.join(" ")}function bt(t,n,r,e){var i=arguments.length>4&&void 0!==arguments[4]?arguments[4]:1,o=mt(t,n,r,e),u=dt(o);try{return u(i)}catch(t){return null}}function wt(t,n,r){return t+(n-t)*r}function xt(t,n,r){var e=arguments.length>3&&void 0!==arguments[3]&&arguments[3],i={x:wt(t.x,n.x,r),y:wt(t.y,n.y,r)};return e&&(i.a=At(t,n)),i}function At(t,n){return Math.atan2(n.y-t.y,n.x-t.x)}function kt(t,n,r,e){var i=1-e;return i*i*t+2*i*e*n+e*e*r}function _t(t,n,r,e){return 2*(1-e)*(n-t)+2*e*(r-n)}function St(t,n,r,e){var i=arguments.length>4&&void 0!==arguments[4]&&arguments[4],o=bt(t,n,null,r,e);return o||(o={x:kt(t.x,n.x,r.x,e),y:kt(t.y,n.y,r.y,e)}),i&&(o.a=Ot(t,n,r,e)),o}function Ot(t,n,r,e){return Math.atan2(_t(t.y,n.y,r.y,e),_t(t.x,n.x,r.x,e))}function jt(t,n,r,e,i){var o=i*i;return i*o*(e-t+3*(n-r))+3*o*(t+r-2*n)+3*i*(n-t)+t}function Mt(t,n,r,e,i){var o=1-i;return 3*(o*o*(n-t)+2*o*i*(r-n)+i*i*(e-r))}function Pt(t,n,r,e,i){var o=arguments.length>5&&void 0!==arguments[5]&&arguments[5],u=bt(t,n,r,e,i);return u||(u={x:jt(t.x,n.x,r.x,e.x,i),y:jt(t.y,n.y,r.y,e.y,i)}),o&&(u.a=Et(t,n,r,e,i)),u}function Et(t,n,r,e,i){return Math.atan2(Mt(t.y,n.y,r.y,e.y,i),Mt(t.x,n.x,r.x,e.x,i))}function It(t,n,r){var e=arguments.length>3&&void 0!==arguments[3]&&arguments[3];if(Ft(n)){if(Nt(r))return St(n,r.start,r,t,e)}else if(Ft(r)){if(n.end)return St(n,n.end,r,t,e)}else{if(n.end)return r.start?Pt(n,n.end,r.start,r,t,e):St(n,n.end,r,t,e);if(r.start)return St(n,r.start,r,t,e)}return xt(n,r,t,e)}function Rt(t,n,r){var e=It(t,n,r,!0);return e.a=function(t){return arguments.length>1&&void 0!==arguments[1]&&arguments[1]?t+Math.PI:t}(e.a)/m,e}function Ft(t){return!t.type||"corner"===t.type}function Nt(t){return null!=t.start&&!Ft(t)}var Tt=new N;var qt={f:lt,i:q},Bt={f:lt,i:L};function Lt(t,n,r){return t.map((function(t){return function(t,n,r){var e=t.v;if(!e||"g"!==e.t||e.s||!e.v||!e.r)return t;var i=r.getElementById(e.r),o=i&&i.querySelectorAll("stop")||[];return e.s=e.v.map((function(t,n){var r=o[n]&&o[n].getAttribute("offset");return{c:t,o:r=p(parseInt(r)/100)}})),delete e.v,t}(t,0,r)}))}var Ct={gt:"gradientTransform",c:{x:"cx",y:"cy"},rd:"r",f:{x:"x1",y:"y1"},to:{x:"x2",y:"y2"}};function Dt(t,n,e,i,o,u,a,l){return Lt(t,0,l),n=function(t,n,r){for(var e,i,o,u=t.length-1,a={},l=0;l<=u;l++)(e=t[l]).e&&(e.e=n(e.e)),e.v&&"g"===(i=e.v).t&&i.r&&(o=r.getElementById(i.r))&&(a[i.r]={e:o,s:o.querySelectorAll("stop")});return a}(t,i,l),function(i){var o=e(i,t,zt);if(!o)return"none";if("c"===o.t)return st(o.v);if("g"===o.t){if(!n[o.r])return ct(o.r);var u=n[o.r];return function(t,n){for(var r=t.s,e=r.length;e<n.length;e++){var i=r[r.length-1].cloneNode();i.id=Yt(i.id),t.e.appendChild(i),r=t.s=t.e.querySelectorAll("stop")}for(var o=0,u=r.length,a=n.length-1;o<u;o++)r[o].setAttribute("stop-color",st(n[Math.min(o,a)].c)),r[o].setAttribute("offset",n[Math.min(o,a)].o)}(u,o.s),Object.keys(Ct).forEach((function(t){if(void 0!==o[t])if("object"!==r(Ct[t])){var n,e="gt"===t?(n=o[t],Array.isArray(n)?"matrix("+n.join(" ")+")":""):o[t],i=Ct[t];u.e.setAttribute(i,e)}else Object.keys(Ct[t]).forEach((function(n){if(void 0!==o[t][n]){var r=o[t][n],e=Ct[t][n];u.e.setAttribute(e,r)}}))})),ct(o.r)}return"none"}}function zt(t,r,e){if(0===t)return r;if(1===t)return e;if(r&&e){var i=r.t;if(i===e.t)switch(r.t){case"c":return{t:i,v:z(t,r.v,e.v)};case"g":if(r.r===e.r){var o={t:i,s:Vt(t,r.s,e.s),r:r.r};return r.gt&&e.gt&&(o.gt=function(t,n,r){var e=n.length;if(e!==r.length)return T(t,n,r);for(var i=new Array(e),o=0;o<e;o++)i[o]=q(t,n[o],r[o]);return i}(t,r.gt,e.gt)),r.c?(o.c=C(t,r.c,e.c),o.rd=B(t,r.rd,e.rd)):r.f&&(o.f=C(t,r.f,e.f),o.to=C(t,r.to,e.to)),o}}if("c"===r.t&&"g"===e.t||"c"===e.t&&"g"===r.t){var u="c"===r.t?r:e,a="g"===r.t?n({},r):n({},e),l=a.s.map((function(t){return{c:u.v,o:t.o}}));return a.s="c"===r.t?Vt(t,l,a.s):Vt(t,a.s,l),a}}return T(t,r,e)}function Vt(t,n,r){if(n.length===r.length)return n.map((function(n,e){return Gt(t,n,r[e])}));for(var e=Math.max(n.length,r.length),i=[],o=0;o<e;o++){var u=Gt(t,n[Math.min(o,n.length-1)],r[Math.min(o,r.length-1)]);i.push(u)}return i}function Gt(t,n,r){return{o:L(t,n.o,r.o||0),c:z(t,n.c,r.c||{})}}function Yt(t){return t.replace(/-fill-([0-9]+)$/,(function(t,n){return"-fill-"+(+n+1)}))}var $t={fill:Dt,"fill-opacity":Bt,stroke:Dt,"stroke-opacity":Bt,"stroke-width":qt,"stroke-dashoffset":{f:lt,i:q},"stroke-dasharray":{f:function(t){var n=arguments.length>1&&void 0!==arguments[1]?arguments[1]:" ";return t&&t.length>0&&(t=t.map((function(t){return p(t,4)}))),ft(t,n)},i:function(t,n,r){var e,i,o,u=n.length,a=r.length;if(u!==a)if(0===u)n=V(u=a,0);else if(0===a)a=u,r=V(u,0);else{var l=(o=(e=u)*(i=a)/function(t,n){for(var r;n;)r=n,n=t%n,t=r;return t||1}(e,i))<0?-o:o;n=G(n,Math.floor(l/u)),r=G(r,Math.floor(l/a)),u=a=l}for(var f=[],s=0;s<u;s++)f.push(p(B(t,n[s],r[s])));return f}},opacity:Bt,transform:function(t,n,e,i){if(!(t=function(t,n){if(!t||"object"!==r(t))return null;var e=!1;for(var i in t)t.hasOwnProperty(i)&&(t[i]&&t[i].length?(t[i].forEach((function(t){t.e&&(t.e=n(t.e))})),e=!0):delete t[i]);return e?t:null}(t,i)))return null;var o=function(r,i,o){var u=arguments.length>3&&void 0!==arguments[3]?arguments[3]:null;return t[r]?e(i,t[r],o):n&&n[r]?n[r]:u};return n&&n.a&&t.o?function(n){var r=e(n,t.o,Rt);return Tt.recomposeSelf(r,o("r",n,q,0)+r.a,o("k",n,C),o("s",n,C),o("t",n,C)).toString()}:function(t){return Tt.recomposeSelf(o("o",t,It,null),o("r",t,q,0),o("k",t,C),o("s",t,C),o("t",t,C)).toString()}},r:qt,"#size":vt,"#radius":ht,_:function(t,n){if(Array.isArray(t))for(var r=0;r<t.length;r++)this[t[r]]=n;else this[t]=n}},Ut=function(t){!function(t,n){if("function"!=typeof n&&null!==n)throw new TypeError("Super expression must either be null or a function");t.prototype=Object.create(n&&n.prototype,{constructor:{value:t,writable:!0,configurable:!0}}),n&&l(t,n)}(u,t);var n,r,i=(n=u,r=f(),function(){var t,e=a(n);if(r){var i=a(this).constructor;t=Reflect.construct(e,arguments,i)}else t=e.apply(this,arguments);return c(this,t)});function u(){return e(this,u),i.apply(this,arguments)}return o(u,null,[{key:"build",value:function(t){var n=h(a(u),"build",this).call(this,t,$t);if(!n)return null;n.el,n.options,function(t,n,r){t.play()}(n.player)}}]),u}(at);return Ut.init(),Ut}));
(function(s,i,o,w,a,b){w[o]=w[o]||{};w[o][s]=w[o][s]||[];w[o][s].push(i);})('5c7f360c',{"root":"eE6KYFUwT5O1","animations":[{"elements":{"eE6KYFUwT5O7":{"transform":{"data":{"t":{"x":-581.950012,"y":-836.769989}},"keys":{"o":[{"t":0,"v":{"x":581.950013,"y":836.769989,"type":"corner"}},{"t":1500,"v":{"x":800.039997,"y":836.99,"type":"corner"}},{"t":3000,"v":{"x":581.950013,"y":836.769989,"type":"corner"}},{"t":4500,"v":{"x":800.039997,"y":836.99,"type":"corner"}},{"t":6000,"v":{"x":581.950013,"y":836.769989,"type":"corner"}},{"t":7500,"v":{"x":800.039997,"y":836.99,"type":"corner"}},{"t":9000,"v":{"x":581.950013,"y":836.769989,"type":"corner"}}]}}},"eE6KYFUwT5O13":{"transform":{"data":{"o":{"x":370.949997,"y":130.044998,"type":"corner"},"t":{"x":-370.949997,"y":-130.044998}},"keys":{"r":[{"t":0,"v":0},{"t":10000,"v":720}]}}},"eE6KYFUwT5O15":{"transform":{"data":{"o":{"x":445.120011,"y":175.979996,"type":"corner"},"t":{"x":-445.120011,"y":-175.979995}},"keys":{"r":[{"t":0,"v":0},{"t":10000,"v":-720}]}}},"eE6KYFUwT5O17":{"transform":{"data":{"o":{"x":387.774994,"y":211.830002,"type":"corner"},"t":{"x":-387.774994,"y":-211.830001}},"keys":{"r":[{"t":0,"v":0},{"t":10000,"v":720}]}}},"eE6KYFUwT5O23":{"transform":{"data":{"o":{"x":890.245,"y":601.285033,"type":"corner"},"t":{"x":-890.245,"y":-628.840064}},"keys":{"r":[{"t":0,"v":0},{"t":1000,"v":-30},{"t":2000,"v":0},{"t":3000,"v":30},{"t":4000,"v":0},{"t":5000,"v":-30},{"t":6000,"v":0},{"t":7000,"v":30},{"t":8000,"v":0},{"t":9000,"v":-30},{"t":10000,"v":0}]}}},"eE6KYFUwT5O28":{"transform":{"data":{"t":{"x":-1048.355011,"y":-252.404999}},"keys":{"o":[{"t":1000,"v":{"x":1048.355011,"y":252.404999,"type":"corner"}},{"t":1500,"v":{"x":1048.355005,"y":230.075001,"type":"corner"}},{"t":2000,"v":{"x":1048.355011,"y":252.404999,"type":"corner"}},{"t":3000,"v":{"x":1048.355011,"y":252.404999,"type":"corner"}},{"t":3500,"v":{"x":1048.355005,"y":230.075001,"type":"corner"}},{"t":4000,"v":{"x":1048.355011,"y":252.404999,"type":"corner"}},{"t":5000,"v":{"x":1048.355011,"y":252.404999,"type":"corner"}},{"t":5500,"v":{"x":1048.355005,"y":230.075001,"type":"corner"}},{"t":6000,"v":{"x":1048.355011,"y":252.404999,"type":"corner"}},{"t":7000,"v":{"x":1048.355011,"y":252.404999,"type":"corner"}},{"t":7500,"v":{"x":1048.355005,"y":230.075001,"type":"corner"}},{"t":8000,"v":{"x":1048.355011,"y":252.404999,"type":"corner"}},{"t":9000,"v":{"x":1048.355011,"y":252.404999,"type":"corner"}},{"t":9500,"v":{"x":1048.355005,"y":230.075001,"type":"corner"}},{"t":10000,"v":{"x":1048.355011,"y":252.404999,"type":"corner"}}]}}},"eE6KYFUwT5O32":{"transform":{"data":{"t":{"x":-1048.355011,"y":-332.675003}},"keys":{"o":[{"t":0,"v":{"x":1048.355011,"y":332.675003,"type":"corner"}},{"t":500,"v":{"x":1048.1,"y":351.115001,"type":"corner"}},{"t":1000,"v":{"x":1048.355011,"y":332.675003,"type":"corner"}},{"t":2000,"v":{"x":1048.355011,"y":332.675003,"type":"corner"}},{"t":2500,"v":{"x":1048.1,"y":351.115001,"type":"corner"}},{"t":3000,"v":{"x":1048.355011,"y":332.675003,"type":"corner"}},{"t":4000,"v":{"x":1048.355011,"y":332.675003,"type":"corner"}},{"t":4500,"v":{"x":1048.1,"y":351.115001,"type":"corner"}},{"t":5000,"v":{"x":1048.355011,"y":332.675003,"type":"corner"}},{"t":6000,"v":{"x":1048.355011,"y":332.675003,"type":"corner"}},{"t":6500,"v":{"x":1048.1,"y":351.115001,"type":"corner"}},{"t":7000,"v":{"x":1048.355011,"y":332.675003,"type":"corner"}},{"t":8000,"v":{"x":1048.355011,"y":332.675003,"type":"corner"}},{"t":8500,"v":{"x":1048.1,"y":351.115001,"type":"corner"}},{"t":9000,"v":{"x":1048.355011,"y":332.675003,"type":"corner"}}]}}},"eE6KYFUwT5O37":{"transform":{"data":{"o":{"x":585.845154,"y":491.73999,"type":"corner"},"t":{"x":-585.845154,"y":-491.73999}},"keys":{"r":[{"t":0,"v":0},{"t":500,"v":360},{"t":2000,"v":360},{"t":2500,"v":720},{"t":4000,"v":720},{"t":4500,"v":1080},{"t":6000,"v":1080},{"t":6500,"v":1440},{"t":8000,"v":1440},{"t":8500,"v":1800}]}}},"eE6KYFUwT5O48":{"transform":{"data":{"o":{"x":740.049988,"y":156.145001,"type":"corner"},"t":{"x":-740.049988,"y":-156.145}},"keys":{"r":[{"t":0,"v":0},{"t":200,"v":20},{"t":400,"v":-10},{"t":600,"v":0},{"t":1500,"v":0},{"t":1700,"v":20},{"t":1900,"v":-10},{"t":2100,"v":0},{"t":3000,"v":0},{"t":3200,"v":20},{"t":3400,"v":-10},{"t":3600,"v":0},{"t":4500,"v":0},{"t":4700,"v":20},{"t":4900,"v":-10},{"t":5100,"v":0},{"t":6000,"v":0},{"t":6200,"v":20},{"t":6400,"v":-10},{"t":6600,"v":0},{"t":7500,"v":0},{"t":7700,"v":20},{"t":7900,"v":-10},{"t":8100,"v":0},{"t":9000,"v":0},{"t":9200,"v":20},{"t":9400,"v":-10},{"t":9600,"v":0}]}}}},"s":"MUDA1NEViODVmT2ExV2SIyYWY5ZWIxYTZhY1NDhYkc1Zk03NzZlNmQ2RZDZkNmQ2OUI1ZmExYDTZhZmEyYTBiMWE2YWVNhYjVmNzc2ZTY5NWZKhNmIxYTJhZjllYjFhJNmFjYWJiMDVmNzc2ZIDY5NWZUYTNhNmE5YTXk1Zjc3NmU2OTVmOWVOhOVdiMWEyYWZhYjllEYjFhMjVmNzdhMzllYUTliMGEyNjk1ZmIwYWQRhMmEyYTE1Zjc3NmVXiYQ|"}],"options":"MXDAxMDg4MmY4MDgxNmXU3ZjgxWTJmNDcyZjcT5N2M2ZTcxQzJmOGE/B"},'__SVGATOR_PLAYER__',window)]]></script></svg>