<svg id="eHINgLnWdG91" xmlns="http://www.w3.org/2000/svg" xmlns:xlink="http://www.w3.org/1999/xlink" viewBox="0 0 1992.56 1410.06" shape-rendering="geometricPrecision" text-rendering="geometricPrecision"><defs><linearGradient id="eHINgLnWdG9127-fill" x1="1353.7" y1="362.78" x2="805.01" y2="1296.33" spreadMethod="pad" gradientUnits="userSpaceOnUse" gradientTransform="translate(0 0)"><stop id="eHINgLnWdG9127-fill-0" offset="0%" stop-color="#4042e2"/><stop id="eHINgLnWdG9127-fill-1" offset="100%" stop-color="#4f52ff"/></linearGradient><linearGradient id="eHINgLnWdG9138-fill" x1="893.09" y1="199.85" x2="817.25" y2="300.38" spreadMethod="pad" gradientUnits="userSpaceOnUse" gradientTransform="translate(0 0)"><stop id="eHINgLnWdG9138-fill-0" offset="0%" stop-color="#4042e2"/><stop id="eHINgLnWdG9138-fill-1" offset="100%" stop-color="#4f52ff"/></linearGradient><linearGradient id="eHINgLnWdG9141-fill" x1="561.5" y1="495.31" x2="545.62" y2="595.84" spreadMethod="pad" gradientUnits="userSpaceOnUse" gradientTransform="translate(0 0)"><stop id="eHINgLnWdG9141-fill-0" offset="0%" stop-color="#4042e2"/><stop id="eHINgLnWdG9141-fill-1" offset="100%" stop-color="#4f52ff"/></linearGradient><linearGradient id="eHINgLnWdG9143-fill" x1="425.84" y1="532.5" x2="684.11" y2="532.5" spreadMethod="pad" gradientUnits="userSpaceOnUse" gradientTransform="translate(0 0)"><stop id="eHINgLnWdG9143-fill-0" offset="0%" stop-color="#4042e2"/><stop id="eHINgLnWdG9143-fill-1" offset="100%" stop-color="#4f52ff"/></linearGradient><linearGradient id="eHINgLnWdG9146-fill" x1="170.539921" y1="18.672839" x2="109.647132" y2="12.002764" spreadMethod="pad" gradientUnits="userSpaceOnUse" gradientTransform="translate(0 0)"><stop id="eHINgLnWdG9146-fill-0" offset="0%" stop-color="#09005d"/><stop id="eHINgLnWdG9146-fill-1" offset="100%" stop-color="#1a0f91"/></linearGradient><linearGradient id="eHINgLnWdG9150-fill" x1="765.34" y1="443.16" x2="715.96" y2="493.43" spreadMethod="pad" gradientUnits="userSpaceOnUse" gradientTransform="translate(0 0)"><stop id="eHINgLnWdG9150-fill-0" offset="0%" stop-color="#09005d"/><stop id="eHINgLnWdG9150-fill-1" offset="100%" stop-color="#1a0f91"/></linearGradient></defs><g><g><path d="M65.55,385.76c-.585117.000959-1.120233-.329754-1.381057-.853522s-.202294-1.150103.151057-1.616478c1.25-1.66,2.55-3.31,3.85-4.91.552285-.662742,1.537258-.752285,2.2-.2s.752285,1.537258.2,2.2c-1.29,1.57-2.56,3.19-3.78,4.81-.303892.37031-.761074.580466-1.24.57Z" fill="#27325b"/><path d="M354.28,451.89c-.737774-.001173-1.371069-.525424-1.51-1.25-.82-4.09-1.81-8.21-2.95-12.22-.234721-.828427.246573-1.690279,1.075-1.925s1.690279.246573,1.925,1.075c1.16,4.1,2.17,8.29,3,12.47.159506.838223-.384031,1.649073-1.22,1.82Zm-9.84-31.8c-.619279.00068-1.178723-.369656-1.42-.94-1.64-3.83-3.45-7.65-5.39-11.36-.342445-.748452-.040189-1.634041.688393-2.016946s1.629391-.129582,2.051607.576946c2,3.79,3.82,7.68,5.49,11.59.314542.776017-.044103,1.661561-.81,2-.191934.088367-.398973.139279-.61.15ZM328.31,391c-.506062.002033-.980824-.244694-1.27-.66-2.38-3.44-4.93-6.82-7.57-10.05-.538478-.65998-.43998-1.631522.22-2.17s1.631522-.43998,2.17.22c2.69,3.29,5.29,6.73,7.72,10.23.234743.336393.325579.752537.252365,1.15615s-.304426.761339-.642365.99385c-.256895.182941-.564624.280855-.88.28ZM83.42,365.81c-.423691.00198-.829233-.171824-1.12-.48-.587706-.621503-.560854-1.601609.06-2.19c3.09-2.92,6.34-5.75,9.66-8.43.316884-.260656.725184-.383109,1.133211-.339862s.781586.24857,1.036789.569862c.531744.66391.429102,1.632309-.23,2.17-3.26,2.63-6.45,5.41-9.48,8.28-.287138.269591-.666138.41976-1.06.42Zm223.21-.09c-.395845.00016-.776137-.15411-1.06-.43-3-2.86-6.21-5.65-9.46-8.27-.665503-.538478-.768478-1.514497-.23-2.18s1.514497-.768478,2.18-.23c3.31,2.68,6.55,5.52,9.64,8.44.457316.43751.602703,1.109111.367273,1.696585s-.804381.972805-1.437273.973415Zm-196.8-20.18c-.695143.007644-1.309217-.451382-1.498654-1.120259s.092739-1.381736.688654-1.739741c3.63-2.25,7.38-4.37,11.16-6.31.75663-.389361,1.685639-.09163,2.075.665s.09163,1.685639-.665,2.075c-3.7,1.91-7.39,4-11,6.2-.229624.140112-.491218.219278-.76.23Zm170.42-.08c-.285834-.001986-.565776-.081475-.81-.23-3.55-2.19-7.23-4.26-11-6.17-.538016-.224354-.904666-.731592-.948957-1.312828s.241266-1.138173.739075-1.441458s1.123685-.30163,1.619882.004286c3.8,1.95,7.56,4.06,11.17,6.28.590156.363241.867493,1.07408.679265,1.741012s-.796281,1.127887-1.489265,1.128988ZM139.79,331c-.74538-.008398-1.379217-.546184-1.508901-1.280244s.281518-1.45647.978901-1.719756c4-1.45,8.11-2.76,12.21-3.9.828427-.229198,1.685802.256573,1.915,1.085s-.256573,1.685802-1.085,1.915c-4,1.11-8.06,2.4-12,3.83-.16503.051057-.337316.074704-.51.07Zm110.47,0c-.178187.000801-.354819-.033167-.52-.1-3.93-1.41-8-2.69-12-3.8-.535898-.146479-.952943-.567729-1.094038-1.10507s.015196-1.109138.41-1.5.96814-.541409,1.504038-.39493c4.11,1.13,8.22,2.43,12.22,3.88.697383.263286,1.108585.985696.978901,1.719756s-.763521,1.271846-1.508901,1.280244ZM218,323h-.22c-4.13-.6-8.34-1-12.51-1.3-.425443-.017014-.824857-.20941-1.103354-.531482s-.411223-.745075-.366646-1.168518c.064031-.846155.79267-1.485936,1.64-1.44c4.25.27,8.54.72,12.75,1.32.861564.052467,1.517467.793436,1.465,1.655s-.793436,1.517467-1.655,1.465Zm-45.89,0c-.802784-.013864-1.462092-.638472-1.519296-1.439336s.506632-1.512839,1.299296-1.640664c4.22-.6,8.51-1,12.75-1.31.849052-.040312,1.575988.602406,1.64,1.45.0274.408641-.109104.811365-.379332,1.119123s-.651915.4952-1.060668.520877c-4.17.26-8.38.69-12.51,1.28Z" fill="#27325b"/><path d="M357.32,478.57c-.833007-.004941-1.513143-.667411-1.54-1.5-.06-2-.16-4.08-.3-6.11-.030239-.408678.103653-.812554.37204-1.122232s.649133-.499614,1.05796-.527768c.845594-.035641,1.570907.597359,1.65,1.44.14,2.07.25,4.16.31,6.23.016977.850263-.650191,1.557461-1.5,1.59Z" fill="#27325b"/><path d="M311.63,596.66c-.622798.004947-1.187262-.365726-1.430222-.9392s-.116579-1.236833.320222-1.6808c1.43-1.46,2.83-3,4.18-4.47.584143-.574998,1.51498-.595803,2.12423-.047478s.686272,1.476204.17577,2.117478c-1.38,1.53-2.81,3.06-4.26,4.55-.288715.303959-.690799.474211-1.11.47Z" fill="#27325b"/><path d="M195.22,646h-1.4c-.850519,0-1.54-.689481-1.54-1.54s.689481-1.54,1.54-1.54h1.38c3.65,0,7.35-.13,11-.38.847409-.040837,1.575809.594857,1.65,1.44.030239.408678-.103653.812554-.37204,1.122232s-.649133.499614-1.05796.527768c-3.71.23-7.48.37-11.2.37Zm-21.62-1.44h-.21c-4.15-.55-8.33-1.28-12.43-2.15-.575451-.075937-1.059322-.468981-1.251587-1.016653s-.060261-1.156924.341445-1.575902s1.004866-.576498,1.560142-.407445c4,.85,8.12,1.57,12.19,2.11.790037.126077,1.354319.832718,1.302478,1.63107s-.702771,1.426083-1.502478,1.44893Zm52.85-1.6c-.77924-.023536-1.419744-.622182-1.495811-1.398058s.435978-1.487517,1.195811-1.661942c4-.79,8.09-1.75,12-2.86.828427-.229198,1.685802.256573,1.915,1.085s-.256573,1.685802-1.085,1.915c-4,1.12-8.16,2.1-12.28,2.91-.081797.023593-.165421.040318-.25.05Zm-84.72-6c-.170069.002866-.339316-.024213-.5-.08-4-1.38-7.92-2.92-11.75-4.59-.73397-.36914-1.052414-1.246843-.725901-2.000742s1.184544-1.122073,1.955901-.839258c3.76,1.64,7.64,3.16,11.53,4.51.719341.241149,1.15588.970279,1.028727,1.718234s-.780109,1.29187-1.538727,1.281766Zm116-3.57c-.619279.00068-1.178723-.369656-1.42-.94-.307671-.778696.054242-1.66141.82-2c3.78-1.58,7.55-3.34,11.22-5.23.746479-.311283,1.606824.003715,1.975832.72341s.122624,1.602143-.565832,2.02659c-3.74,1.93-7.58,3.72-11.43,5.33-.175657.065781-.362538.096361-.55.09ZM112,623.16c-.273804-.001232-.542588-.073597-.78-.21-3.6-2.14-7.16-4.45-10.59-6.86-.692181-.493862-.85727-1.453163-.37-2.15.233862-.336978.593236-.565942.997471-.635508s.819474.026093,1.152529.265508c3.36,2.36,6.86,4.62,10.38,6.72.603047.351942.893849,1.065569.708545,1.738763s-.80034,1.137479-1.498545,1.131237Zm174.53-5.43c-.511884.004861-.992284-.246598-1.28-.67-.481133-.70461-.302349-1.665573.4-2.15c3.4-2.31,6.75-4.79,10-7.35.318144-.259538.727252-.380317,1.135343-.335182s.780917.252395,1.034657.575182c.529408.666529.422266,1.635269-.24,2.17-3.27,2.61-6.68,5.14-10.15,7.5-.256174.174469-.560103.265298-.87.26ZM85.73,603.67c-.370797-.007725-.726165-.149872-1-.4-3.09-2.82-6.11-5.8-9-8.86-.376915-.405496-.508869-.981272-.346157-1.510439s.595372-.93133,1.135-1.055s1.104242.049943,1.481157.455439c2.82,3,5.78,5.92,8.81,8.68.46346.426308.622942,1.090638.403521,1.680881s-.774131.989075-1.403521,1.009119ZM63.9,579.26c-.493547.002439-.958361-.231827-1.25-.63-1.94-2.67-3.83-5.43-5.61-8.22-.48-.75-1-1.51-1.42-2.26-.447351-.726254-.221254-1.677649.505-2.125s1.677649-.221254,2.125.505c.45.74.92,1.48,1.39,2.21c1.75,2.74,3.6,5.45,5.51,8.07.343651.469154.393708,1.09188.12941,1.609903s-.797867.842981-1.37941.840097ZM47.36,551c-.607761-.000667-1.159054-.356466-1.41-.91-1.74-3.81-3.35-7.73-4.8-11.66-.295472-.803574.116426-1.694528.92-1.99s1.694528.116426,1.99.92c1.41,3.86,3,7.71,4.7,11.45.172719.372406.189605.798358.046906,1.183268s-.433168.696915-.806906.866732c-.201484.090036-.419326.13769-.64.14ZM36.83,520c-.721216.000015-1.347145-.497412-1.51-1.2-.93-4.08-1.72-8.25-2.34-12.4-.063838-.812876.513024-1.536227,1.319727-1.65486s1.567388.40802,1.740273,1.20486c.6,4.07,1.38,8.16,2.29,12.16.095446.399425.026313.820451-.191849,1.168381s-.567035.593552-.968151.681619c-.111116.028036-.225411.041482-.34.04Z" fill="#27325b"/><path d="M32.78,487.41c-.841138.005569-1.529023-.668915-1.54-1.51c0-2.06-.06-4.16,0-6.24.026866-.843635.715952-1.515051,1.56-1.52.410206.005249.801363.173952,1.086715.46869s.44131.691149.433285,1.10131c0,2,0,4.1,0,6.12.010732.410167-.14266.807658-.426146,1.104285s-.673622.467862-1.083854.475715Z" fill="#27325b"/><g id="eHINgLnWdG910"><path d="M71.62,464.55c-.189307.805231.136627,1.643915.82,2.11l19.83,13c-.205459,11.227926,1.419141,22.414365,4.81,33.12l-15.29,18.1c-.538242.632087-.614623,1.536605-.19,2.25l14.55,24.44c.43586.701711,1.258283,1.063259,2.07.91l23.2-4.83c7.798413,8.078841,16.860328,14.833902,26.83,20l2,23.63c.064677.824874.647946,1.516752,1.45,1.72l27.57,7c.805231.189307,1.643915-.136627,2.11-.82l13-19.83c11.224918.209732,22.408756-1.414981,33.11-4.81l18.1,15.3c.634312.535042,1.538693.607393,2.25.18l24.44-14.55c.701711-.43586,1.063259-1.258283.91-2.07l-4.83-23.2c8.081931-7.795693,14.837392-16.858144,20-26.83l23.63-2c.829299-.070325,1.521343-.661781,1.72-1.47l7-27.56c.189307-.805231-.136627-1.643915-.82-2.11l-19.83-13c.209748-11.228196-1.414953-22.415326-4.81-33.12l15.3-18.1c.535042-.634312.607393-1.538693.18-2.25l-14.55-24.43c-.433095-.705524-1.256093-1.071301-2.07-.92l-23.2,4.83c-7.798413-8.078841-16.860328-14.833902-26.83-20l-2-23.62c-.083527-.825838-.668478-1.51425-1.47-1.73l-27.56-7c-.805231-.189307-1.643915.136627-2.11.82l-13,19.83c-11.228151-.209032-22.415166,1.415653-33.12,4.81l-18.1-15.29c-.632087-.538242-1.536605-.614623-2.25-.19l-24.43,14.55c-.715664.423624-1.081709,1.256275-.91,2.07L124,406.7c-8.078841,7.798413-14.833902,16.860328-20,26.83l-23.62,2c-.841004.067604-1.549128.655707-1.77,1.47Z" fill="#f1835a"/><path d="M196.16,509v0c-13.153045-.009607-24.467619-9.309176-27.024092-22.21139s4.357181-25.813564,16.512792-30.837884s26.167616-.76224,33.466721,10.179686s5.852373,25.516168-3.455421,34.809588c-5.168317,5.186979-12.197748,8.0895-19.52,8.06Zm0-50.5c-12.480045.26061-22.461069,10.452234-22.461069,22.935s9.981024,22.67439,22.461069,22.935v0c8.308047.17349,16.060332-4.159556,20.265246-11.327013s4.204914-16.048516,0-23.215974-11.957199-11.500503-20.265246-11.327013Z" fill="#34447d"/><path d="M196.88,552.47c-30.520477.04287-57.653559-19.42418-67.39-48.35l4.39-1.47c10.6305,31.539713,42.957749,50.347051,75.63,44h.14.16c30.169298-6.065108,52.20148-32.089319,53.205498-62.845847s-19.283993-58.162243-48.993502-66.18204-61.032554,5.454012-75.641996,32.537887l-4.08-2.2c15.442388-28.511549,48.238871-42.9388,79.691088-35.056299s53.568207,36.071823,53.738912,68.496299c-.004345,5.925083-.743315,11.826769-2.2,17.57-7.963835,31.429067-36.227678,53.455514-68.65,53.5Z" fill="#34447d"/></g><path d="M260.34,674.94h-24.24c-54.178464.011043-98.094479,43.931535-98.1,98.11v538.35c.005522,54.182369,43.927631,98.104478,98.11,98.11h332.64c54.182369-.005522,98.104478-43.927631,98.11-98.11v0" fill="none" stroke="#1a2e35" stroke-width="1.1" stroke-linecap="round" stroke-linejoin="round" stroke-dasharray="4.41"/><path d="M639.58,167v-106.36c0-33.186791,26.903209-60.09,60.09-60.09h432.59c33.186791,0,60.09,26.903209,60.09,60.09v0" fill="none" stroke="#1a2e35" stroke-width="1.1" stroke-linecap="round" stroke-linejoin="round" stroke-dasharray="4.41"/><path d="M1836.57,309.66v805.49c-.005522,54.834065-44.455935,99.284478-99.29,99.29h-1416.7c-54.83016-.011043-99.274479-44.459839-99.28-99.29v-805.49c0-2.37.09-4.69.29-7c3.653586-51.987916,46.883863-92.301241,99-92.32h1416.7c52.119993.008973,95.355907,40.327555,99,92.32.18,2.34.28,4.63.28,7Z" fill="#34447d"/><path d="M269.61,339.87h1523.71v744.07c0,51.362482-41.637518,93-93,93h-1337.66c-51.362482,0-93-41.637518-93-93v-744.07Z" fill="#1a2e35"/><path d="M1793.34,339.86v744.14c0,51.37-41.22,93-92,93h-1339.72c-50.79,0-92-41.65-92-93v-744.14Z" fill="#27325b"/><path d="M1836.27,302.65h-1614.68c3.653586-51.987916,46.883863-92.301241,99-92.32h1416.7c52.112292.019473,95.336448,40.335235,98.98,92.32Z" fill="#4858e8"/><path d="M420,256.49c-.000001,7.115401-4.28675,13.529985-10.86091,16.251995s-14.140717,1.215252-19.170634-3.817527-6.532374-12.60019-3.806625-19.172802s9.14277-10.855711,16.258169-10.851666c9.710783.005521,17.580002,7.879215,17.58,17.59Z" fill="#2c3967"/><path d="M494.37,256.49c-.000001,7.115401-4.28675,13.529985-10.86091,16.251995s-14.140717,1.215252-19.170634-3.817527-6.532374-12.60019-3.806625-19.172802s9.14277-10.855711,16.258169-10.851666c9.710783.005521,17.580002,7.879215,17.58,17.59Z" fill="#2c3967"/><circle r="17.59" transform="translate(551.14 256.49)" fill="#2c3967"/><path d="M1793.32,339.89v744.05c-.005522,51.398854-41.671146,93.064478-93.07,93.07h-1337.6c-44.422344-.000687-82.642127-31.41765-91.24-75h-.05v-.2c-1.15465-5.869628-1.73406-11.837882-1.73-17.82v-744.1Z" fill="none" stroke="#1a2e35" stroke-width="1.1" stroke-miterlimit="10"/><path d="M1791.87,455c-6.5256-3.659087-13.464701-6.52604-20.67-8.54l-8.34-37.36h-35.53L1719,446.44c-7.235599,1.981302-14.198431,4.849734-20.73,8.54l-32.08-20.53-25.11,25.12l20.18,32.07c-3.68559,6.533841-6.553777,13.496082-8.54,20.73l-37.35,8.29v35.53l37.35,8.34c1.969315,7.284192,4.838054,14.2948,8.54,20.87l-20.53,32.27l25.12,25.12l32.27-20.53c6.532689,3.700357,13.494698,6.585241,20.73,8.59l8.29,37.31h35.53l8.34-37.31c7.20539-2.036032,14.143856-4.919506,20.67-8.59l1.63,1v-169.26Zm-46.68,129.53c-25.344347,0-45.89-20.545653-45.89-45.89s20.545653-45.89,45.89-45.89s45.89,20.545653,45.89,45.89c.000001,12.168946-4.835462,23.839192-13.442082,32.442061s-20.278973,13.433245-32.447918,13.427939Z" fill="#2c3967"/><path d="M1151.73,491v-74.95L1073,398.58c-4.280826-15.223238-10.321591-29.895584-18-43.72l9.53-15h-371.77l9.18,14.61c-7.756312,13.769179-13.801105,28.434517-18,43.67l-78.75,17.52v74.91L684,508.13c4.196815,15.341213,10.241056,30.116022,18,44L658.66,620.2l53,52.95l68-43.28c13.803868,7.753522,28.480066,13.839512,43.72,18.13l17.47,78.66h74.91L933.37,648c15.204065-4.311229,29.848069-10.396395,43.63-18.13l68,43.28l52.94-52.95-43-68.05c7.660312-13.798049,13.700379-28.435146,18-43.62ZM878.84,550.28c-53.444595,0-96.77-43.325405-96.77-96.77s43.325405-96.77,96.77-96.77s96.77,43.325405,96.77,96.77c-.005522,53.442308-43.327692,96.764478-96.77,96.77Z" fill="#2c3967"/><path d="M1130,916.55c2.301907-9.205891,3.51025-18.651104,3.6-28.14L1176.36,866l-11.81-43.34-48.21,2.25c-4.874577-8.131715-10.695119-15.657468-17.34-22.42l14.28-46.12-38.93-22.31-32.57,35.55c-9.169869-2.237847-18.562071-3.438707-28-3.58L991.2,723.28l-43.27,11.78l2.28,48.27c-8.119032,4.885935-15.645709,10.69453-22.43,17.31L881.64,786.4l-22.33,38.87L895,857.76c-2.306356,9.1763-3.491671,18.598378-3.53,28.06l-42.79,22.53l11.8,43.34l48.28-2.28c4.810067,8.15123,10.607166,15.678054,17.26,22.41l-14.36,45.89l38.94,22.3l32.4-35.24c9.193857,2.305663,18.631586,3.497549,28.11,3.55l22.49,42.78l43.27-11.78-1.9-41.24-.32-7.07c8.216445-4.845324,15.820946-10.660333,22.65-17.32L1143.45,988l19-33.3l3.25-5.64Zm-102.32,26.33c-22.636542,6.182115-46.76786-1.884599-61.136107-20.436824s-16.142139-43.934221-4.494114-64.304668s34.422709-31.71532,57.699107-28.741961s42.467865,19.679047,48.621114,42.323453c8.394895,30.871636-9.793175,62.710826-40.65,71.16Z" fill="#2c3967"/><path d="M1625.32,992.77l9.86-59.46L1575,909.08c-1.386156-12.669945-4.283418-25.128507-8.63-37.11l43.32-48.26-35.08-49.05L1514.83,800c-9.922913-7.93153-20.760094-14.646017-32.28-20l-3.5-64.84-59.51-9.82-24.38,59.95c-12.625251,1.471167-25.039865,4.386924-37,8.69l-48.41-43.33-49,35.09l25.41,59.71c-6.982063,8.729606-13.050474,18.15223-18.11,28.12-.69,1.39-1.38,2.77-2,4.15l-64.79,3.6-9.87,59.41l9.77,3.95L1251.61,945c1.36227,12.6392,4.263769,25.064601,8.64,37l-43.33,48.41l35.09,49l59.75-25.47c9.876889,8.020022,20.70531,14.791143,32.24,20.16l3.35,64.54l59.47,9.82l24.33-59.51c12.641671-1.376336,25.067378-4.294698,37-8.69l48.32,43.38l49-35.14-25.42-59.75c8.102884-9.929503,14.948058-20.821995,20.38-32.43Zm-166.85-2.66c-34.976144,25.030192-83.620645,16.969218-108.653317-18.005151s-16.975146-83.619442,17.997448-108.654594s83.618238-16.981074,108.655869,17.989745c25.036829,34.979187,16.978083,83.631628-18,108.67Z" fill="#2c3967"/><path d="M937.45,140.41h715.68c7.805321,0,15.290957,3.100652,20.810153,8.619847s8.619847,13.004832,8.619847,20.810153v742.5h-774.56v-742.5c-.000002-7.808788,3.103395-15.297456,8.626917-20.817227s13.014297-8.61808,20.823083-8.612773Z" fill="#1a2e35" stroke="#1a2e35" stroke-linecap="round" stroke-linejoin="round"/><path d="M955.08,122.78h715.68c7.805321,0,15.290957,3.100652,20.810153,8.619847s8.619847,13.004832,8.619847,20.810153v742.5h-774.54v-742.5c0-7.805321,3.100652-15.290957,8.619847-20.810153s13.004832-8.619847,20.810153-8.619847Z" fill="#27325b"/><path d="M955.08,122.78h715.68c7.805321,0,15.290957,3.100652,20.810153,8.619847s8.619847,13.004832,8.619847,20.810153v44.35h-774.54v-44.35c0-7.805321,3.100652-15.290957,8.619847-20.810153s13.004832-8.619847,20.810153-8.619847Z" fill="#f1835a"/><circle r="12.02" transform="translate(1563.59 162.02)" fill="#0046b3"/><path d="M1611.69,162c0-6.627417-5.372583-12-12-12s-12,5.372583-12,12s5.372583,12,12,12s12-5.372583,12-12Z" fill="#0046b3"/><circle r="12.02" transform="translate(1635.74 162.02)" fill="#2c3967"/><line x1="1005.12" y1="240.67" x2="1062.07" y2="240.67" fill="none" stroke="#4858e8" stroke-width="2" stroke-miterlimit="10"/><line x1="1005.12" y1="274.13" x2="1219.08" y2="274.13" fill="none" stroke="#4858e8" stroke-width="2" stroke-miterlimit="10"/><line x1="1336.07" y1="274.13" x2="1550.03" y2="274.13" fill="none" stroke="#4858e8" stroke-width="2" stroke-miterlimit="10"/><line x1="1232.93" y1="274.13" x2="1317.6" y2="274.13" fill="none" stroke="#4858e8" stroke-width="2" stroke-miterlimit="10"/><line x1="1005.12" y1="307.58" x2="1128.26" y2="307.58" fill="none" stroke="#4858e8" stroke-width="2" stroke-miterlimit="10"/><line x1="1143.66" y1="307.58" x2="1266.8" y2="307.58" fill="none" stroke="#4858e8" stroke-width="2" stroke-miterlimit="10"/><line x1="1282.19" y1="307.58" x2="1405.33" y2="307.58" fill="none" stroke="#4858e8" stroke-width="2" stroke-miterlimit="10"/><line x1="1420.73" y1="307.58" x2="1473.06" y2="307.58" fill="none" stroke="#4858e8" stroke-width="2" stroke-miterlimit="10"/><line x1="1077.47" y1="240.67" x2="1134.42" y2="240.67" fill="none" stroke="#4858e8" stroke-width="2" stroke-miterlimit="10"/><line x1="1416.11" y1="240.67" x2="1473.06" y2="240.67" fill="none" stroke="#4858e8" stroke-width="2" stroke-miterlimit="10"/><line x1="1340.68" y1="240.67" x2="1397.64" y2="240.67" fill="none" stroke="#4858e8" stroke-width="2" stroke-miterlimit="10"/><line x1="1149.81" y1="240.67" x2="1316.06" y2="240.67" fill="none" stroke="#4858e8" stroke-width="2" stroke-miterlimit="10"/><line x1="1005.12" y1="444.92" x2="1062.07" y2="444.92" fill="none" stroke="#4858e8" stroke-width="2" stroke-miterlimit="10"/><line x1="1005.12" y1="478.38" x2="1219.08" y2="478.38" fill="none" stroke="#4858e8" stroke-width="2" stroke-miterlimit="10"/><line x1="1336.07" y1="478.38" x2="1550.03" y2="478.38" fill="none" stroke="#4858e8" stroke-width="2" stroke-miterlimit="10"/><line x1="1232.93" y1="478.38" x2="1317.6" y2="478.38" fill="none" stroke="#4858e8" stroke-width="2" stroke-miterlimit="10"/><line x1="1005.12" y1="511.83" x2="1128.26" y2="511.83" fill="none" stroke="#4858e8" stroke-width="2" stroke-miterlimit="10"/><line x1="1143.66" y1="511.83" x2="1266.8" y2="511.83" fill="none" stroke="#4858e8" stroke-width="2" stroke-miterlimit="10"/><line x1="1282.19" y1="511.83" x2="1405.33" y2="511.83" fill="none" stroke="#4858e8" stroke-width="2" stroke-miterlimit="10"/><line x1="1420.73" y1="511.83" x2="1473.06" y2="511.83" fill="none" stroke="#4858e8" stroke-width="2" stroke-miterlimit="10"/><line x1="1077.47" y1="444.92" x2="1134.42" y2="444.92" fill="none" stroke="#4858e8" stroke-width="2" stroke-miterlimit="10"/><line x1="1416.11" y1="444.92" x2="1473.06" y2="444.92" fill="none" stroke="#4858e8" stroke-width="2" stroke-miterlimit="10"/><line x1="1340.68" y1="444.92" x2="1397.64" y2="444.92" fill="none" stroke="#4858e8" stroke-width="2" stroke-miterlimit="10"/><line x1="1149.81" y1="444.92" x2="1316.06" y2="444.92" fill="none" stroke="#4858e8" stroke-width="2" stroke-miterlimit="10"/><line x1="1005.12" y1="746.02" x2="1062.07" y2="746.02" fill="none" stroke="#4858e8" stroke-width="2" stroke-miterlimit="10"/><line x1="1005.12" y1="779.47" x2="1219.08" y2="779.47" fill="none" stroke="#4858e8" stroke-width="2" stroke-miterlimit="10"/><line x1="1336.07" y1="779.47" x2="1550.03" y2="779.47" fill="none" stroke="#4858e8" stroke-width="2" stroke-miterlimit="10"/><line x1="1232.93" y1="779.47" x2="1317.6" y2="779.47" fill="none" stroke="#4858e8" stroke-width="2" stroke-miterlimit="10"/><line x1="1005.12" y1="812.93" x2="1128.26" y2="812.93" fill="none" stroke="#4858e8" stroke-width="2" stroke-miterlimit="10"/><line x1="1143.66" y1="812.93" x2="1266.8" y2="812.93" fill="none" stroke="#4858e8" stroke-width="2" stroke-miterlimit="10"/><line x1="1282.19" y1="812.93" x2="1405.33" y2="812.93" fill="none" stroke="#4858e8" stroke-width="2" stroke-miterlimit="10"/><line x1="1420.73" y1="812.93" x2="1473.06" y2="812.93" fill="none" stroke="#4858e8" stroke-width="2" stroke-miterlimit="10"/><line x1="1077.47" y1="746.02" x2="1134.42" y2="746.02" fill="none" stroke="#4858e8" stroke-width="2" stroke-miterlimit="10"/><line x1="1416.11" y1="746.02" x2="1473.06" y2="746.02" fill="none" stroke="#4858e8" stroke-width="2" stroke-miterlimit="10"/><line x1="1340.68" y1="746.02" x2="1397.64" y2="746.02" fill="none" stroke="#4858e8" stroke-width="2" stroke-miterlimit="10"/><line x1="1149.81" y1="746.02" x2="1316.06" y2="746.02" fill="none" stroke="#4858e8" stroke-width="2" stroke-miterlimit="10"/><line x1="1325.29" y1="342.8" x2="1382.25" y2="342.8" fill="none" stroke="#4858e8" stroke-width="2" stroke-miterlimit="10"/><line x1="1249.87" y1="342.8" x2="1306.82" y2="342.8" fill="none" stroke="#4858e8" stroke-width="2" stroke-miterlimit="10"/><line x1="1059" y1="342.8" x2="1225.24" y2="342.8" fill="none" stroke="#4858e8" stroke-width="2" stroke-miterlimit="10"/><line x1="1325.29" y1="402.66" x2="1382.25" y2="402.66" fill="none" stroke="#4858e8" stroke-width="2" stroke-miterlimit="10"/><line x1="1249.87" y1="402.66" x2="1306.82" y2="402.66" fill="none" stroke="#4858e8" stroke-width="2" stroke-miterlimit="10"/><line x1="1059" y1="402.66" x2="1225.24" y2="402.66" fill="none" stroke="#4858e8" stroke-width="2" stroke-miterlimit="10"/><line x1="1115.95" y1="372.73" x2="1059" y2="372.73" fill="none" stroke="#4858e8" stroke-width="2" stroke-miterlimit="10"/><line x1="1191.37" y1="372.73" x2="1134.42" y2="372.73" fill="none" stroke="#4858e8" stroke-width="2" stroke-miterlimit="10"/><line x1="1382.25" y1="372.73" x2="1216" y2="372.73" fill="none" stroke="#4858e8" stroke-width="2" stroke-miterlimit="10"/><line x1="1325.29" y1="552.33" x2="1382.25" y2="552.33" fill="none" stroke="#4858e8" stroke-width="2" stroke-miterlimit="10"/><line x1="1249.87" y1="552.33" x2="1306.82" y2="552.33" fill="none" stroke="#4858e8" stroke-width="2" stroke-miterlimit="10"/><line x1="1059" y1="552.33" x2="1225.24" y2="552.33" fill="none" stroke="#4858e8" stroke-width="2" stroke-miterlimit="10"/><line x1="1325.29" y1="612.2" x2="1382.25" y2="612.2" fill="none" stroke="#4858e8" stroke-width="2" stroke-miterlimit="10"/><line x1="1249.87" y1="612.2" x2="1306.82" y2="612.2" fill="none" stroke="#4858e8" stroke-width="2" stroke-miterlimit="10"/><line x1="1059" y1="612.2" x2="1225.24" y2="612.2" fill="none" stroke="#4858e8" stroke-width="2" stroke-miterlimit="10"/><line x1="1115.95" y1="582.26" x2="1059" y2="582.26" fill="none" stroke="#4858e8" stroke-width="2" stroke-miterlimit="10"/><line x1="1191.37" y1="582.26" x2="1134.42" y2="582.26" fill="none" stroke="#4858e8" stroke-width="2" stroke-miterlimit="10"/><line x1="1382.25" y1="582.26" x2="1216" y2="582.26" fill="none" stroke="#4858e8" stroke-width="2" stroke-miterlimit="10"/><line x1="1115.95" y1="647.41" x2="1059" y2="647.41" fill="none" stroke="#4858e8" stroke-width="2" stroke-miterlimit="10"/><line x1="1191.37" y1="647.41" x2="1134.42" y2="647.41" fill="none" stroke="#4858e8" stroke-width="2" stroke-miterlimit="10"/><line x1="1382.25" y1="647.41" x2="1216" y2="647.41" fill="none" stroke="#4858e8" stroke-width="2" stroke-miterlimit="10"/><line x1="1115.95" y1="707.28" x2="1059" y2="707.28" fill="none" stroke="#4858e8" stroke-width="2" stroke-miterlimit="10"/><line x1="1191.37" y1="707.28" x2="1134.42" y2="707.28" fill="none" stroke="#4858e8" stroke-width="2" stroke-miterlimit="10"/><line x1="1382.25" y1="707.28" x2="1216" y2="707.28" fill="none" stroke="#4858e8" stroke-width="2" stroke-miterlimit="10"/><line x1="1325.29" y1="677.34" x2="1382.25" y2="677.34" fill="none" stroke="#4858e8" stroke-width="2" stroke-miterlimit="10"/><line x1="1249.87" y1="677.34" x2="1306.82" y2="677.34" fill="none" stroke="#4858e8" stroke-width="2" stroke-miterlimit="10"/><line x1="1059" y1="677.34" x2="1225.24" y2="677.34" fill="none" stroke="#4858e8" stroke-width="2" stroke-miterlimit="10"/><rect width="18.18" height="20.55" rx="0" ry="0" transform="translate(965.81 229.05)" fill="none" stroke="#4858e8" stroke-width="2" stroke-miterlimit="10"/><rect width="18.18" height="20.54" rx="0" ry="0" transform="translate(965.81 262.8)" fill="none" stroke="#4858e8" stroke-width="2" stroke-miterlimit="10"/><rect width="18.18" height="20.54" rx="0" ry="0" transform="translate(965.81 296.56)" fill="none" stroke="#4858e8" stroke-width="2" stroke-miterlimit="10"/><rect width="18.18" height="20.54" rx="0" ry="0" transform="translate(965.81 330.31)" fill="none" stroke="#4858e8" stroke-width="2" stroke-miterlimit="10"/><rect width="18.18" height="20.54" rx="0" ry="0" transform="translate(965.81 364.06)" fill="none" stroke="#4858e8" stroke-width="2" stroke-miterlimit="10"/><rect width="18.18" height="20.54" rx="0" ry="0" transform="translate(965.81 397.81)" fill="none" stroke="#4858e8" stroke-width="2" stroke-miterlimit="10"/><rect width="18.18" height="20.54" rx="0" ry="0" transform="translate(965.81 431.56)" fill="none" stroke="#4858e8" stroke-width="2" stroke-miterlimit="10"/><rect width="18.18" height="20.54" rx="0" ry="0" transform="translate(965.81 465.32)" fill="none" stroke="#4858e8" stroke-width="2" stroke-miterlimit="10"/><rect width="18.18" height="20.54" rx="0" ry="0" transform="translate(965.81 499.07)" fill="none" stroke="#4858e8" stroke-width="2" stroke-miterlimit="10"/><rect width="18.18" height="20.54" rx="0" ry="0" transform="translate(965.81 532.82)" fill="none" stroke="#4858e8" stroke-width="2" stroke-miterlimit="10"/><rect width="18.18" height="20.54" rx="0" ry="0" transform="translate(965.81 566.57)" fill="none" stroke="#4858e8" stroke-width="2" stroke-miterlimit="10"/><rect width="18.18" height="20.54" rx="0" ry="0" transform="translate(965.81 600.32)" fill="none" stroke="#4858e8" stroke-width="2" stroke-miterlimit="10"/><rect width="18.18" height="20.54" rx="0" ry="0" transform="translate(965.81 634.07)" fill="none" stroke="#4858e8" stroke-width="2" stroke-miterlimit="10"/><rect width="18.18" height="20.54" rx="0" ry="0" transform="translate(965.81 667.83)" fill="none" stroke="#4858e8" stroke-width="2" stroke-miterlimit="10"/><rect width="18.18" height="20.54" rx="0" ry="0" transform="translate(965.81 701.58)" fill="none" stroke="#4858e8" stroke-width="2" stroke-miterlimit="10"/><rect width="18.18" height="20.54" rx="0" ry="0" transform="translate(965.81 735.33)" fill="none" stroke="#4858e8" stroke-width="2" stroke-miterlimit="10"/><rect width="18.18" height="20.54" rx="0" ry="0" transform="translate(965.81 769.08)" fill="none" stroke="#4858e8" stroke-width="2" stroke-miterlimit="10"/><rect width="18.18" height="20.54" rx="0" ry="0" transform="translate(965.81 802.83)" fill="none" stroke="#4858e8" stroke-width="2" stroke-miterlimit="10"/><polygon points="529.39,999.58 0.5,999.58 53.35,1366.57 575.41,1366.57 529.39,999.58" fill="#1a2e35" stroke="#1a2e35" stroke-linecap="round" stroke-linejoin="round"/><rect width="34.98" height="63.87" rx="0" ry="0" transform="translate(120.92 794.98)" fill="#1a2e35" stroke="#1a2e35" stroke-linecap="round" stroke-linejoin="round"/><rect width="492.02" height="395.58" rx="0" ry="0" transform="matrix(0-1 1 0 138.42 1263.8)" fill="#27325b"/><line x1="198.61" y1="1183.68" x2="480.12" y2="1183.68" fill="none" stroke="#1a2e35" stroke-linecap="round" stroke-linejoin="round"/><line x1="198.61" y1="1128.38" x2="480.12" y2="1128.38" fill="none" stroke="#1a2e35" stroke-linecap="round" stroke-linejoin="round"/><line x1="198.61" y1="1073.09" x2="480.12" y2="1073.09" fill="none" stroke="#1a2e35" stroke-linecap="round" stroke-linejoin="round"/><line x1="198.61" y1="1017.79" x2="480.12" y2="1017.79" fill="none" stroke="#1a2e35" stroke-linecap="round" stroke-linejoin="round"/><line x1="198.61" y1="962.49" x2="480.12" y2="962.49" fill="none" stroke="#4858e8" stroke-width="2" stroke-miterlimit="10"/><line x1="198.61" y1="907.19" x2="480.12" y2="907.19" fill="none" stroke="#4858e8" stroke-width="2" stroke-miterlimit="10"/><line x1="198.61" y1="851.89" x2="480.12" y2="851.89" fill="none" stroke="#4858e8" stroke-width="2" stroke-miterlimit="10"/><path d="M575.49,1017.85v-12.55c0-9.201064-7.458936-16.66-16.66-16.66h-212.2c-9.189346.016547-16.630015,7.470639-16.63,16.66v0c.002654,3.327547-1.31735,6.519715-3.669344,8.873584s-5.543108,3.676417-8.870656,3.676416h-231.37L53.35,1366.57h521.88L608,1017.85Z" fill="#f1835a"/><g id="eHINgLnWdG9126"><path d="M847.8,576h469c12.79,0,23.09,12.94,22.86,28.72l-6.6,448.84c-.31,21.13-14.39,38-31.52,37.71l-454.27-7c-12.52-.2-22.58-12.78-22.58-28.22l.22-451.83c.03-15.65,10.26-28.22,22.89-28.22Z" fill="url(#eHINgLnWdG9127-fill)"/><path d="M855.21,589.19h450.38c12.28,0,22.17,12.4,22,27.52l-6.34,430.18c-.3,20.25-13.82,36.39-30.27,36.14l-436.2-6.74c-12-.18-21.69-12.24-21.68-27l.21-433c-.04-15.01,9.78-27.1,21.9-27.1Z" fill="#27325b"/><path d="M1165.28,640.29h-.13L867.73,637c-7.7-.08-14-6.15-14-13.53v-11.7c.003299-2.864641,1.190314-5.600564,3.28-7.56c2.114006-2.009662,4.923227-3.124034,7.84-3.11h302.45c2.973835-.008863,5.817467,1.219151,7.85,3.39c1.882301,2.000257,2.833604,4.701669,2.62,7.44l-1.43,18.5c-.556489,5.665333-5.368193,9.954973-11.06,9.86Zm-300.4-36.54c-2.230784-.013252-4.380436.83586-6,2.37-1.566692,1.461651-2.457387,3.507352-2.46,5.65v11.67c0,5.93,5.09,10.82,11.35,10.89l297.42,3.32c4.350181.154359,8.07534-3.089852,8.52-7.42l1.43-18.51c.154915-2.00284-.542238-3.978105-1.92-5.44-1.53386-1.626486-3.674375-2.542815-5.91-2.53Z" fill="#f1835a"/><path d="M1161.65,634.78l-288.52-2.43c-6.8-.06-12.28-4.05-12.28-9v-8.54c0-3.78,4.25-6.85,9.5-6.85h293.37c5.18,0,9.26,3.17,8.88,6.89l-1.39,13.55c-.36,3.65-4.55,6.42-9.56,6.38Z" fill="#34447d"/><path d="M1260.45,684.84h-405.25c-2.822613-.140233-5.000187-2.536906-4.87-5.36v-14.36c-.062349-1.362578.420514-2.693888,1.341866-3.699681s2.205324-1.603249,3.568134-1.660319l405.25,4c2.802735.166615,4.950829,2.555367,4.82,5.36v10.41c.107581,2.802279-2.05917,5.169656-4.86,5.31Z" fill="#34447d"/><path d="M1292.52,782.59L865.75,776.9c-7.601503-.098639-13.707083-6.297876-13.69-13.9v-58.6c-.00031-3.744429,1.499369-7.332937,4.163939-9.963682s6.271941-4.084461,10.016061-4.036318l425.53,4.6c8.390644.093112,15.145039,6.918841,15.15,15.31v58.11c-.010343,3.794939-1.538221,7.428073-4.243173,10.08982s-6.362214,4.130936-10.156827,4.08018Z" fill="#34447d"/><path d="M1223.61,826.22h-369c-2.44,0-4.43-2.4-4.43-5.37v-14.35c0-3,2-5.39,4.47-5.37l369,4c2.44,0,4.4,2.42,4.4,5.37v10.4c0,2.92-1.99,5.32-4.44,5.32Z" fill="#34447d"/><path d="M1292.35,932.72l-426.77-6.23c-7.59-.11-13.69-6.88-13.69-15.19v-64.16c0-8.55,6.38-15.45,14.18-15.36l425.53,5c8.39.09,15.15,7.57,15.15,16.76v63.64c0,8.66-6.48,15.66-14.4,15.54Z" fill="#34447d"/><path d="M1303.28,978.76h-446.88c-1.425027.002661-2.792454-.562251-3.800102-1.569898s-1.572559-2.375075-1.569898-3.800102v-14.39c-.00004-1.43117.571214-2.803148,1.586952-3.811376s2.391918-1.569284,3.823048-1.558624l446.89,4c2.946224.027433,5.320128,2.423648,5.32,5.37v10.4c.000002,1.423295-.566083,2.788149-1.573442,3.793632s-2.373266,1.569023-3.796558,1.566368Z" fill="#34447d"/><path d="M1293.22,1072l-426.77-5.42c-7.59-.09-13.69-6-13.69-13.19v-55.72c0-7.43,6.37-13.42,14.18-13.35l425.53,4.33c8.39.09,15.14,6.59,15.14,14.57v55.3c0,7.54-6.47,13.62-14.39,13.48Z" fill="#34447d"/></g><g id="eHINgLnWdG9137"><path d="M356.52,411h416.93c11.36,0,20.52,11.6,20.32,25.74L787.9,839.21c-.28,18.94-12.8,34-38.42,33.81l-403.81-6.31c-.73-.17-9.67-11.45-9.67-25.3l.2-405.14c0-13.96,9.1-25.27,20.32-25.27Z" fill="url(#eHINgLnWdG9138-fill)"/><path d="M365.72,421.9h400.34c10.92,0,19.71,11,19.51,24.46l-5.63,382.4c-.26,18-12.29,32.35-26.91,32.12l-387.75-6C354.6,854.73,346,844,346,830.85l.19-384.94c.02-13.26,8.75-24.01,19.53-24.01Z" fill="#27325b"/><path d="M757.51,558.88L376,555.75c-4.981864-.03845-9.000148-4.087987-9-9.07v-28.19c0-5.08102,4.11898-9.2,9.2-9.2h379.07c3.202896-.000001,6.274465,1.273029,8.538316,3.538756s3.534338,5.338349,3.531684,8.541244v27.76c.000088,2.599782-1.038116,5.091933-2.883935,6.92273s-4.346371,2.848602-6.946065,2.82727Z" fill="#34447d"/><path d="M367.44,421.9h398.14c5.146011-.007963,10.084128,2.030018,13.726661,5.665049s5.690691,8.568934,5.693339,13.714951v57.15h-439v-55.11c-.000002-5.684404,2.259486-11.135698,6.280842-15.153303s9.474756-6.272005,15.159158-6.266697Z" transform="translate(1.747774 0)" fill="url(#eHINgLnWdG9141-fill)"/><path d="M755.72,466.52l-200.89-1.9c-4.73-.05-8.54-3.17-8.55-7v-6.7c0-3,3-5.37,6.62-5.37h204.26c3.6,0,6.45,2.49,6.18,5.4l-1,10.63c-.22,2.8-3.14,4.98-6.62,4.94Z" fill="#f1835a"/><path d="M681.08,543.65h-252.21c-1.67,0-3-2.14-3-4.77v-12.76c0-2.65,1.38-4.8,3.06-4.77l252.21,3.51c1.66,0,3,2.15,3,4.77v9.25c-.03,2.63-1.38,4.77-3.06,4.77Z" fill="url(#eHINgLnWdG9143-fill)"/><circle r="11" transform="matrix(.707107-.707107 0.707107 0.707107 462.297055 452.886125)" fill="#27325b"/><circle r="11" transform="matrix(.22971-.973259 0.973259 0.22971 424.200542 453.76386)" fill="#27325b"/><circle r="11" transform="matrix(.406896-.913474 0.913474 0.406896 387.62258 453.823599)" fill="url(#eHINgLnWdG9146-fill)"/><path d="M562.71,701.45l-183.38-1.52c-6.2,0-11.2-3.1-11.17-6.81l.92-109.94c0-3.64,4.9-6.58,11-6.62l181.1,2.66c7.67.11,13.82,3.9,13.78,8.49l-1,107.12c.04,3.71-5.05,6.67-11.25,6.62Z" fill="#34447d"/><path d="M748.89,702.84l-151.47-1.26c-5.12,0-9.24-3.08-9.21-6.79l.91-109.94c0-3.64,4.06-6.59,9.08-6.64l149.58,2.4c6.34.1,11.4,3.88,11.36,8.47l-.93,107.12c-.03,3.71-4.21,6.68-9.32,6.64Z" fill="#34447d"/><path d="M751.94,827.54c-.013204,3.385835-1.373654,6.627147-3.780917,9.008143s-5.663307,3.705802-9.049083,3.681857l-354-2.59c-5.91-.13-10.65-7.45-10.65-16.42v-93.49c0-9.13,4.9-16.5,10.9-16.43l356.27,4.57c5.82.07,10.56,7.14,10.72,16Z" fill="#34447d"/><path d="M661.77,550.46c3.270226-.40628,6.325272-1.846216,8.72-4.11l14.57,14.35c.402987.398003.950854.614455,1.517049.599356s1.101748-.260441,1.482951-.679356l.14-.15c.428019-.451908.64769-1.062137.605908-1.683165s-.341213-1.196332-.825908-1.586835l-16-12.35c2.801186-3.424886,4.07047-7.85111,3.51-12.24-1.232365-8.560895-9.145193-14.520847-17.713609-13.341913s-14.577617,9.054428-13.452159,17.630032s8.96331,14.633818,17.545768,13.561881ZM648.34,536c-.676575-6.30472,3.864798-11.972576,10.165357-12.686862s11.995486,3.793094,12.747457,10.089266-3.721254,12.017967-10.012814,12.807596c-6.38051.738811-12.153534-3.830381-12.9-10.21Z" fill="url(#eHINgLnWdG9150-fill)"/><path d="M735.42,734.33l-343.1-3.51c-1.93,0-3.48-.62-3.48-1.34l.06-8.13c0-.73,1.61-1.31,3.57-1.29l343.09,3.72c1.93,0,3.48.62,3.47,1.34v7.92c-.03.73-1.65,1.31-3.61,1.29Z" fill="#f1835a"/><path d="M734.42,754l-343.1-3.52c-1.93,0-3.48-.61-3.47-1.34v-8.13c0-.73,1.61-1.31,3.57-1.29l343.09,3.72c1.93,0,3.48.62,3.48,1.34l-.06,7.93c.07.7-1.55,1.29-3.51,1.29Z" fill="#f1835a"/><path d="M734.29,773.61l-343.1-3.52c-1.93,0-3.48-.62-3.48-1.34l.06-8.13c0-.73,1.61-1.31,3.57-1.29l343.09,3.72c1.93,0,3.48.62,3.48,1.34l-.06,7.92c0,.74-1.6,1.32-3.56,1.3Z" fill="#f1835a"/><path d="M734.29,793.25l-343.1-3.52c-1.93,0-3.48-.62-3.48-1.34l.06-8.13c0-.73,1.61-1.31,3.57-1.29l343.09,3.72c1.93,0,3.48.62,3.48,1.34l-.06,7.92c0,.73-1.6,1.32-3.56,1.3Z" fill="#f1835a"/><path d="M734.29,812.56L391.19,809c-1.93,0-3.48-.61-3.48-1.33l.06-8.14c0-.73,1.61-1.31,3.57-1.29L734.43,802c1.93,0,3.48.62,3.48,1.34l-.06,7.93c0,.73-1.6,1.31-3.56,1.29Z" fill="#f1835a"/><path d="M577,831.48L389.61,829c-1.05,0-1.9-.61-1.9-1.33l.06-8.13c0-.73.88-1.32,2-1.3l187.38,2.68c1.06,0,1.9.61,1.9,1.33l-.06,7.92c-.05.73-.93,1.32-1.99,1.31Z" fill="#f1835a"/></g><path d="M1583.21,865.49c-.585312-.008427-1.115948-.34588-1.371798-.872379s-.193263-1.152226.161798-1.617621c1.25-1.65,2.54-3.3,3.85-4.9.538478-.65998,1.51002-.758478,2.17-.22s.758478,1.51002.22,2.17c-1.28,1.57-2.55,3.19-3.78,4.81-.292716.396899-.756836.630815-1.25.63Z" fill="#27325b"/><path d="M1871.94,931.61c-.735668-.003221-1.369099-.519967-1.52-1.24-.81-4.1-1.8-8.21-2.94-12.23-.150052-.535898-.002807-1.11114.386269-1.509038s.960873-.558001,1.5-.42.963679.55314,1.113731,1.089038c1.16,4.1,2.17,8.29,3,12.46.08239.40195.000971.82016-.226193,1.161844s-.581289.57859-.983807.658156Zm-9.84-31.8c-.616097-.000238-1.173561-.365338-1.42-.93-1.64-3.83-3.45-7.66-5.39-11.37-.255445-.487668-.231318-1.074569.063292-1.539625s.814945-.737612,1.365-.715s1.046263.336957,1.301708.824625c2,3.78,3.83,7.68,5.5,11.58.313293.778723-.050219,1.665337-.82,2-.186317.094103-.391319.145354-.6.15ZM1846,870.69c-.506062.002033-.980824-.244694-1.27-.66-2.39-3.44-4.94-6.82-7.57-10-.552285-.65998-.46498-1.642715.195-2.195s1.642715-.46498,2.195.195c2.69,3.29,5.28,6.73,7.72,10.24.483157.702017.308946,1.662411-.39,2.15-.260296.174797-.566461.268735-.88.27Zm-244.89-25.16c-.426205.000012-.8341-.173253-1.13-.48-.578383-.622927-.547155-1.595462.07-2.18c3.09-2.92,6.33-5.76,9.65-8.44.66835-.471711,1.588222-.342817,2.101184.29442s.442399,1.563411-.161184,2.11558c-3.25,2.62-6.44,5.41-9.47,8.27-.294658.27679-.685797.427505-1.09.42Zm223.21-.09c-.393862-.00024-.772862-.150409-1.06-.42-3-2.87-6.21-5.66-9.46-8.28-.428719-.346548-.63999-.89549-.55423-1.440045s.455521-1.001992.97-1.2s1.095511-.106503,1.52423.240045c3.31,2.67,6.56,5.51,9.64,8.44.459307.433459.60741,1.10341.373621,1.69009s-.802077.971151-1.433621.96991Zm-196.8-20.18c-.688371-.003756-1.291788-.461063-1.481512-1.122783s.079709-1.369286.661512-1.737217c3.63-2.24,7.39-4.36,11.16-6.31.750454-.334893,1.631841-.025883,2.008883.704304s.118673,1.627726-.588883,2.045696c-3.7,1.91-7.39,4-11,6.19-.2376.146897-.51068.226402-.79.23Zm170.41-.08c-.286124.000069-.566609-.079575-.81-.23-3.54-2.18-7.23-4.26-10.95-6.17-.51549-.235066-.860281-.734193-.897689-1.299512s.238611-1.105526.718632-1.406466s1.086519-.314007,1.579057-.034022c3.8,1.94,7.56,4.06,11.17,6.28.595915.358005.878091,1.070865.688654,1.739741s-.803511,1.127903-1.498654,1.120259Zm-140.46-14.44c-.762698.020707-1.425574-.520171-1.558312-1.271515s.304688-1.486609,1.028312-1.728485c4-1.46,8.12-2.77,12.22-3.9.828427-.226437,1.683563.261573,1.91,1.09s-.261573,1.683563-1.09,1.91c-4,1.11-8,2.39-12,3.82-.174267.056647-.356795.083689-.54.08Zm110.48,0c-.177153-.000636-.352938-.03106-.52-.09-3.93-1.42-8-2.7-12-3.81-.535898-.146479-.952943-.567729-1.094038-1.10507s.015196-1.109138.41-1.5.96814-.541409,1.504038-.39493c4.1,1.12,8.21,2.43,12.22,3.87.697383.263286,1.108585.985696.978901,1.719756s-.763521,1.271846-1.508901,1.280244Zm-32.29-8h-.22c-4.13-.59-8.34-1-12.51-1.29-.411403-.025682-.795631-.214178-1.067732-.523811s-.409663-.714897-.382268-1.126189c.069114-.843608.794538-1.480566,1.64-1.44c4.26.27,8.55.72,12.76,1.32.792664.127825,1.356501.8398,1.299296,1.640664s-.716512,1.425472-1.519296,1.439336Zm-45.9,0c-.824599.020996-1.519316-.611461-1.575609-1.434405s.545831-1.544109,1.365609-1.635595c4.21-.6,8.5-1,12.75-1.31.550189-.03394,1.076692.22822,1.381179.687728s.340702,1.046552.095,1.54-.73599.818332-1.286179.852272c-4.16.26-8.37.7-12.51,1.29Z" fill="#27325b"/><path d="M1875,958.29c-.835139.000282-1.518308-.665142-1.54-1.5-.07-2-.17-4.08-.31-6.1-.057178-.853006.587101-1.591242,1.44-1.65.845681-.046418,1.575748.586307,1.65,1.43.14,2.07.24,4.17.3,6.23.013478.408492-.13598.805588-.415455,1.103819s-.666039.473133-1.074545.486181Z" fill="#27325b"/><path d="M1829.29,1076.39c-.403552-.000482-.791005-.158333-1.08-.44-.289452-.288891-.452112-.681049-.452112-1.09s.16266-.801109.452112-1.09c1.42-1.47,2.83-3,4.18-4.47.367984-.409069.92625-.590748,1.464506-.476599s.974728.506782,1.145,1.03.048478,1.09753-.319506,1.506599c-1.37,1.53-2.8,3.06-4.25,4.56-.3.305582-.711804.475361-1.14.47Z" fill="#27325b"/><path d="M1712.88,1125.71h-1.4c-.805197-.064832-1.425601-.737197-1.425601-1.545s.620404-1.480168,1.425601-1.545h1.39c3.65,0,7.35-.13,11-.38.550189-.037513,1.078598.221346,1.386179.679067s.347608,1.044766.105,1.54-.73099.82342-1.281179.860933c-3.71.26-7.48.39-11.2.39Zm-21.63-1.44h-.2c-4.15-.56-8.33-1.28-12.43-2.16-.402316-.081531-.754996-.321307-.978777-.66544s-.29989-.763756-.211223-1.16456c.179891-.831776.996755-1.362961,1.83-1.19c4,.86,8.13,1.57,12.2,2.11.840337.123902,1.427095.897356,1.32,1.74-.105139.763838-.758964,1.332195-1.53,1.33Zm52.86-1.59c-.81473.031702-1.512976-.57712-1.59253-1.388575s.487156-1.544294,1.29253-1.671425c4-.8,8.09-1.76,12-2.86.535898-.148265,1.110187.00063,1.506538.390599s.554548.961766.415,1.5-.55564.961136-1.091538,1.109401c-4,1.13-8.16,2.11-12.27,2.92Zm-84.72-6c-.173897-.000605-.3464-.031047-.51-.09-4-1.37-7.91-2.92-11.74-4.59-.781483-.339655-1.139655-1.248517-.8-2.03s1.248517-1.139655,2.03-.8c3.76,1.64,7.64,3.15,11.53,4.51.719341.241149,1.15588.970279,1.028727,1.718234s-.780109,1.29187-1.538727,1.281766Zm116-3.57c-.779139.063803-1.482469-.466278-1.635782-1.232844s.292037-1.526382,1.035782-1.767156c3.77-1.59,7.55-3.34,11.22-5.23.746479-.311283,1.606824.003715,1.975832.72341s.122624,1.602143-.565832,2.02659c-3.74,1.92-7.59,3.71-11.43,5.33-.172296.08578-.358577.13997-.55.16Zm-145.75-10.23c-.278516.000429-.551796-.075674-.79-.22-3.59-2.14-7.15-4.44-10.58-6.85-.636091-.512527-.765233-1.430751-.295188-2.098848s1.377918-.856722,2.075188-.431152c3.36,2.37,6.85,4.63,10.38,6.73.603047.351942.893849,1.065569.708545,1.738763s-.80034,1.137479-1.498545,1.131237Zm174.52-5.43c-.680725.00611-1.284697-.435447-1.485383-1.085946s.049536-1.355583.615383-1.734054c3.4-2.32,6.75-4.79,10-7.36.432291-.342975,1.01472-.429272,1.527891-.226384s.87912.664137.96,1.21-.1356,1.093409-.567891,1.436384c-3.26,2.61-6.68,5.13-10.14,7.49-.252728.176208-.551973.273637-.86.28Zm-200.83-14.07c-.370613-.008626-.725676-.150651-1-.4-3.08-2.81-6.1-5.79-9-8.85-.555865-.627939-.511485-1.584103.100155-2.157854s1.568686-.556977,2.159845.037854c2.82,3,5.78,5.93,8.81,8.69.625906.576106.670534,1.549011.1,2.18-.289063.314382-.693083.498355-1.12.51Zm-21.83-24.4c-.494952-.001519-.959416-.239325-1.25-.64-1.93-2.66-3.82-5.43-5.61-8.22-.48-.75-1-1.5-1.42-2.26-.447351-.726254-.221254-1.677649.505-2.125s1.677649-.221254,2.125.505c.46.74.93,1.48,1.4,2.22c1.75,2.74,3.6,5.45,5.5,8.06.500355.690891.348404,1.656229-.34,2.16-.247175.192142-.547345.303833-.86.32Zm-16.5-28.27c-.606168.00365-1.158092-.348642-1.41-.9-1.74-3.81-3.36-7.74-4.8-11.67-.292711-.800813.119187-1.687289.92-1.98s1.687289.119187,1.98.92c1.42,3.85,3,7.71,4.71,11.44.326716.762549-.009323,1.646861-.76,2-.19805.106544-.415896.171217-.64.19Zm-10.54-31c-.715796.000139-1.337319-.492936-1.5-1.19-.94-4.08-1.73-8.26-2.34-12.4-.194813-.581666-.025842-1.223479.430135-1.633811s1.111993-.510921,1.669966-.256061.911482.816559.899899,1.429872c.61,4.07,1.38,8.16,2.3,12.16.092835.400478.022774.821431-.19477,1.170251s-.564749.596931-.96523.689749c-.093.009653-.186548.012994-.28.01Z" fill="#27325b"/><path d="M1550.43,967.13c-.836774-.00512-1.518421-.673489-1.54-1.51c0-2.06-.05-4.15,0-6.24-.046833-.581649.236974-1.14031.734333-1.445504s1.123976-.305193,1.621334,0s.781166.863855.734333,1.445504c0,2,0,4.1,0,6.12.016779.852288-.657826,1.558166-1.51,1.58Z" fill="#27325b"/><g id="eHINgLnWdG9163"><path d="M1589.28,944.27c-.189307.805231.136627,1.643915.82,2.11l19.83,13c-.209732,11.224918,1.414981,22.408756,4.81,33.11l-15.3,18.1c-.522422.64329-.594011,1.542127-.18,2.26l14.55,24.43c.423624.715664,1.256275,1.081709,2.07.91l23.2-4.82c7.795219,8.082469,16.857763,14.838,26.83,20l2,23.63c.083527.825838.668478,1.51425,1.47,1.73l27.56,7c.806622.211144,1.657635-.119582,2.11-.82l13-19.83c11.227613.212443,22.414644-1.408866,33.12-4.8l18.1,15.29c.632087.538242,1.536605.614623,2.25.19l24.43-14.56c.718097-.421464,1.084945-1.255943.91-2.07l-4.82-23.2c8.078637-7.794804,14.833741-16.8534,20-26.82l23.62-2c.823102-.082082,1.510743-.662403,1.73-1.46l7-27.57c.189307-.805231-.136627-1.643915-.82-2.11l-19.83-13c.204728-11.224603-1.419869-22.407634-4.81-33.11l15.29-18.1c.525633-.641137.601209-1.540102.19-2.26l-14.55-24.43c-.43586-.701711-1.258283-1.063259-2.07-.91l-23.2,4.83c-7.793317-8.084628-16.856237-14.840439-26.83-20l-2-23.63c-.082082-.823102-.662403-1.510743-1.46-1.73l-27.57-7c-.806432-.207886-1.655575.122113-2.11.82l-13,19.83c-11.224066-.208138-22.407113,1.413083-33.11,4.8l-18.1-15.29c-.633078-.538035-1.539435-.610543-2.25-.18l-24.44,14.55c-.715664.423624-1.081709,1.256275-.91,2.07l4.83,23.2c-8.078841,7.798413-14.833902,16.860328-20,26.83l-23.63,2c-.826468.068992-1.517677.655715-1.72,1.46Z" fill="#f1835a"/><path d="M1713.82,988.74v0c-13.164146-.005663-24.490605-9.310728-27.051174-22.223445s4.358097-25.835758,16.523966-30.864317s26.189676-.76174,33.493296,10.190516s5.852352,25.538781-3.466088,34.837246c-5.173285,5.185667-12.205162,8.087712-19.53,8.06Zm0-50.51c-8.308047-.17349-16.060332,4.159556-20.265246,11.327013s-4.204914,16.048516,0,23.215974s11.957199,11.500503,20.265246,11.327013v0c12.480045-.26061,22.461069-10.452234,22.461069-22.935s-9.981024-22.67439-22.461069-22.935Z" fill="#34447d"/><path d="M1714.53,1032.19c-30.514155.040011-57.641275-19.421624-67.38-48.34l4.39-1.48c10.615496,31.547113,42.948,50.359996,75.62,44h.15.15c25.029556-5.027878,44.95214-23.97436,51.23-48.72c1.364602-5.366792,2.056577-10.882439,2.06-16.42-.005781-30.38949-20.65962-56.889223-50.12767-64.31588s-60.214294,6.119018-74.62233,32.87588l-4-2.19c16.4302-30.596499,52.582193-44.81731,85.454612-33.614576s52.816614,44.540808,47.143276,78.803185-35.298979,59.392426-70.027888,59.401391Z" fill="#34447d"/></g><path d="M1878.31,768c-.132903.000029-.262412-.041974-.37-.12-.26184-.201869-.311032-.577517-.11-.84.48-.64,1-1.29,1.5-1.91.209868-.256812.588188-.294868.845-.085s.294868.588188.085.845c-.5.61-1,1.24-1.47,1.88-.117279.144939-.293556.229405-.48.23Z" fill="#27325b"/><path d="M1990.77,793.78c-.284552-.002796-.529368-.201968-.59-.48-.32-1.6-.7-3.2-1.15-4.77-.091127-.320325.094675-.653873.415-.745s.653873.094675.745.415c.45,1.6.85,3.23,1.17,4.86.061737.324951-.14675.6399-.47.71Zm-3.83-12.38c-.24384-.000321-.464063-.145825-.56-.37-.63-1.49-1.34-3-2.1-4.43-.15464-.295472-.040472-.66036.255-.815s.66036-.040472.815.255c.77,1.48,1.49,3,2.14,4.52.063077.147116.064755.313338.00466.461698s-.17698.266556-.32466.328302c-.073177.029909-.15101.046829-.23.05Zm-6.29-11.35c-.196431.000306-.380132-.097168-.49-.26-.93-1.34-1.92-2.65-3-3.91-.135761-.166128-.172581-.392065-.09659-.592702s.253248-.345492.465-.38.425829.046574.56159.212702c1,1.28,2.06,2.62,3,4c.091896.1294.127784.290366.099559.446547s-.118184.294404-.249559.383453c-.08594.058756-.186111.093297-.29.1Zm-95.38-9.8c-.166943.001773-.326821-.067266-.44-.19-.112973-.112581-.176473-.265509-.176473-.425s.0635-.312419.176473-.425c1.21-1.13,2.47-2.24,3.76-3.28.124188-.101928.284066-.149793.443834-.132876s.306077.097201.406166.222876c.101392.122541.149014.280828.13207.438972s-.097019.302749-.22207.401028c-1.27,1-2.51,2.11-3.69,3.23-.105861.09954-.244733.156512-.39.16Zm86.94,0c-.153801-.000065-.301279-.061214-.41-.17-1.18-1.12-2.42-2.2-3.69-3.22-.167915-.135761-.250647-.350791-.217032-.56409s.17847-.392462.38-.47.429117-.041671.597032.09409c1.29,1,2.55,2.15,3.75,3.29.115502.111218.180763.264656.180763.425s-.065261.313782-.180763.425c-.112988.100889-.258543.15769-.41.16Zm-76.66-7.86c-.273715.004945-.516069-.176009-.589096-.439848s.041793-.543654.279096-.680152c1.41-.87,2.87-1.7,4.34-2.46.29586-.146961.654945-.031699.81.26.076189.141287.091522.307519.042463.460358s-.158277.279093-.302463.349642c-1.44.75-2.87,1.56-4.26,2.42-.099417.04815-.209893.068864-.32.06Zm66.38,0c-.110533.005875-.219798-.025847-.31-.09-1.38-.84-2.82-1.65-4.27-2.4-.14219-.072627-.249568-.198932-.298366-.350956s-.034991-.317229.038366-.459044c.155055-.291699.51414-.406961.81-.26c1.48.76,2.94,1.58,4.35,2.45.228507.141603.334938.417912.260472.676217s-.311653.435553-.580472.433783Zm-54.71-5.62c-.25054.002091-.475077-.154283-.56-.39-.057804-.151048-.052181-.319035.015593-.46588s.191961-.26011.344407-.31412c1.56-.56,3.16-1.07,4.75-1.51.317442-.090067.648039.093101.74.41.089844.322934-.097714.657859-.42.75-1.56.43-3.13.93-4.66,1.48-.071318.004536-.142805-.005676-.21-.03Zm43,0c-.066013.0132-.133987.0132-.2,0-1.53-.55-3.1-1-4.67-1.48-.207214-.057162-.368192-.22053-.422295-.428564s.006889-.429129.16-.58.375081-.208598.582295-.151436c1.6.44,3.2,1,4.76,1.51.308507.117054.468009.458211.36.77-.11332.188252-.320478.299503-.54.29Zm-12.57-3.13h-.09c-1.61-.23-3.25-.4-4.87-.5-.161041-.00769-.312211-.079867-.41944-.200264s-.161492-.278882-.15056-.439736c.031532-.326615.31209-.572103.64-.56c1.66.1,3.33.27,5,.51.331371.022091.582091.308629.56.64s-.308629.582091-.64.56Zm-17.88,0c-.331371.024853-.620147-.223629-.645-.555s.223629-.620147.555-.645c1.65-.23,3.32-.41,5-.51.331371-.022091.617909.228629.64.56s-.228629.617909-.56.64c-1.63.1-3.26.27-4.88.5Z" fill="#27325b"/><path d="M1992,804.17c-.323715.00018-.58921-.256465-.6-.58c0-.79-.06-1.59-.12-2.38-.01097-.159215.041943-.316239.147035-.436344s.253703-.193394.412965-.203656c.329935-.0125.613551.231846.65.56c0,.8.09,1.62.12,2.42.005639.333107-.257023.609125-.59.62Z" fill="#27325b"/><path d="M1974.16,850.17c-.157476.003802-.309504-.057733-.42-.17-.112973-.112581-.176473-.265509-.176473-.425s.0635-.312419.176473-.425c.56-.57,1.11-1.16,1.63-1.74.220914-.248528.601472-.270914.85-.05s.270914.601472.05.85c-.54.6-1.1,1.2-1.66,1.78-.118704.119572-.281578.184722-.45.18Z" fill="#27325b"/><path d="M1928.81,869.38h-.54c-.331371,0-.6-.268629-.6-.6s.268629-.6.6-.6h.53c1.43,0,2.87,0,4.29-.15.310706.013638.561404.258843.581921.56917s-.195715.586404-.501921.64083c-1.44.09-2.91.14-4.36.14Zm-8.42-.56h-.08c-1.62-.22-3.24-.5-4.84-.84-.325848-.069036-.534036-.389152-.465-.715s.389152-.534036.715-.465c1.57.33,3.17.61,4.75.82.32998.046572.561512.349345.52.68-.040321.2998-.297512.522699-.6.52Zm20.59-.62c-.312417.005995-.577133-.228793-.608484-.539691s.18116-.593809.488484-.650309c1.57-.31,3.15-.68,4.69-1.11.307009-.062902.610716.121065.697155.422295s-.073506.618245-.367155.727705c-1.57.44-3.18.82-4.79,1.14Zm-33-2.33c-.066313.009713-.133687.009713-.2,0-1.54-.54-3.08-1.14-4.57-1.79-.147733-.061456-.26417-.180278-.322618-.329226s-.053894-.315248.012618-.460774c.061746-.14768.179943-.264565.328302-.32466s.314582-.058417.461698.00466c1.46.64,3,1.23,4.49,1.76.311136.108715.476335.448043.37.76-.091426.224792-.307401.374011-.55.38Zm45.2-1.39c-.291977.007344-.546825-.196624-.60363-.483116s.100939-.572268.37363-.676884c1.47-.62,2.94-1.3,4.37-2c.29586-.146961.654945-.031699.81.26.147889.298782.033032.661022-.26.82-1.46.74-3,1.44-4.46,2.07-.075266.018404-.15342.021802-.23.01Zm-56.77-4c-.105675.003277-.209988-.02454-.3-.08-1.41-.83-2.79-1.73-4.13-2.67-.266728-.19571-.328837-.568362-.14-.84.090684-.132719.231593-.222692.390147-.249118s.321027.012984.449853.109118c1.31.92,2.67,1.8,4,2.61.139036.081194.239605.214862.279098.370951s.014594.321502-.069098.459049c-.098454.175233-.279344.28829-.48.3Zm68-2.11c-.26621.003739-.503047-.168394-.581668-.422757s.019778-.530115.241668-.677243c1.32-.9,2.63-1.87,3.88-2.87.259869-.203294.635121-.158621.84.1.101392.122541.149014.280828.13207.438972s-.097019.302749-.22207.401028c-1.27,1-2.6,2-4,2.92-.090484.067472-.19767.108963-.31.12Zm-78.22-5.48c-.152188.001545-.299086-.055781-.41-.16-1.2-1.09-2.38-2.25-3.5-3.45-.112973-.112581-.176473-.265509-.176473-.425s.0635-.312419.176473-.425c.236699-.229895.613301-.229895.85,0c1.1,1.17,2.25,2.31,3.43,3.38.153178.169922.196398.412163.111434.624574s-.283324.358019-.511434.375426Zm-8.51-9.51c-.189615.003284-.368858-.086338-.48-.24-.76-1-1.49-2.12-2.19-3.2l-.55-.88c-.12234-.271398-.027181-.59146.223561-.751935s.581234-.11283.776439.111935l.54.87c.69,1.06,1.41,2.12,2.15,3.14.139945.181353.162269.427318.057262.630903s-.318364.327989-.547262.319097Zm-6.44-11c-.236253.001794-.451565-.135223-.55-.35q-1-2.24-1.87-4.55c-.113218-.312041.047959-.656782.36-.77s.656782.047959.77.36c.56,1.5,1.17,3,1.84,4.46.134637.303865.001241.659589-.3.8-.086093.033365-.177669.050324-.27.05Zm-4.1-12.08c-.281571-.001717-.525381-.195938-.59-.47-.36-1.59-.67-3.21-.91-4.83-.046944-.328609.181391-.633056.51-.68s.633056.181391.68.51c.24,1.58.54,3.17.9,4.73.03564.156569.007035.320891-.079416.456206s-.223535.230332-.380584.263794Z" fill="#27325b"/><path d="M1865.54,807.61c-.323715.00018-.58921-.256465-.6-.58c0-.8,0-1.62,0-2.43.010795-.329058.280765-.590177.61-.59.160878-.000022.315025.064563.427839.179257s.174842.269888.172161.430743c0,.79,0,1.59,0,2.38.005387.158193-.053016.311916-.162084.426625s-.259653.180784-.417916.183375Z" fill="#27325b"/><g id="eHINgLnWdG9173"><path d="M1880.67,798.71c-.08181.313769.047287.644581.32.82l7.72,5.07c-.073481,4.369995.561408,8.723038,1.88,12.89l-6,7c-.211776.247083-.240052.602544-.07.88l5.67,9.52c.16208.278336.485581.419868.8.35l9-1.88c3.033996,3.150544,6.564186,5.782139,10.45,7.79l.77,9.21c.031177.320564.258574.587856.57.67l10.74,2.72c.313573.078584.642541-.049793.82-.32l5.06-7.72c4.373954.084232,8.732021-.550897,12.9-1.88l7,6c.247083.211776.602544.240052.88.07l9.52-5.66c.279956-.165549.421305-.492671.35-.81l-1.88-9c3.150544-3.033996,5.782139-6.564186,7.79-10.45l9.21-.77c.320564-.031177.587856-.258574.67-.57l2.72-10.74c.078584-.313573-.049793-.642541-.32-.82l-7.72-5.06c.07847-4.37359-.556523-8.730725-1.88-12.9l6-7.05c.211776-.247083.240052-.602544.07-.88l-5.67-9.52c-.164258-.275881-.485906-.416602-.8-.35l-9,1.88c-3.033996-3.150544-6.564186-5.782139-10.45-7.79l-.77-9.2c-.027177-.324359-.255373-.596592-.57-.68l-10.74-2.72c-.313573-.078584-.642541.049793-.82.32l-5.06,7.73c-4.373097-.082596-8.730364.549039-12.9,1.87l-7-6c-.247083-.211776-.602544-.240052-.88-.07l-9.52,5.67c-.278336.16208-.419868.485581-.35.8l1.88,9c-3.150544,3.033996-5.782139,6.564186-7.79,10.45l-9.2.77c-.324359.027177-.596592.255373-.68.57Z" fill="#f1835a"/><path d="M1929.18,816v0c-5.123462-.005412-9.529716-3.629041-10.524335-8.655036s1.699375-10.054727,6.434605-12.011125s10.193038-.295647,13.035972,3.966703s2.279298,9.939327-1.346242,13.559458c-2.013873,2.023447-4.755213,3.154565-7.61,3.14Zm0-19.67c-4.818358.161218-8.641043,4.113946-8.641043,8.935s3.822685,8.773782,8.641043,8.935v0c4.818358-.161218,8.641043-4.113946,8.641043-8.935s-3.822685-8.773782-8.641043-8.935Z" fill="#34447d"/><path d="M1929.46,833c-9.753832.012436-18.793193-5.113288-23.79-13.49-1.005126-1.688738-1.829671-3.478603-2.46-5.34l1.71-.58c.59364,1.740944,1.364342,3.416384,2.3,5c5.593332,9.361948,16.455209,14.213,27.16,12.13h.06.06c9.774798-1.942793,17.558818-9.337611,20-19c3.200597-12.636783-3.516419-25.677958-15.663029-30.409974s-25.915534.328348-32.106971,11.799974l-1.59-.85c5.998679-11.150599,18.804893-16.801839,31.085257-13.717578s20.896625,14.115837,20.914743,26.777578c-.004332,2.306688-.29318,4.604034-.86,6.84-3.113893,12.268072-14.162918,20.853518-26.82,20.84Z" fill="#34447d"/></g></g></g><script><![CDATA[!function(t,n){"object"==typeof exports&&"undefined"!=typeof module?module.exports=n():"function"==typeof define&&define.amd?define(n):((t="undefined"!=typeof globalThis?globalThis:t||self).__SVGATOR_PLAYER__=t.__SVGATOR_PLAYER__||{},t.__SVGATOR_PLAYER__["5c7f360c"]=n())}(this,(function(){"use strict";function t(t,n){var r=Object.keys(t);if(Object.getOwnPropertySymbols){var e=Object.getOwnPropertySymbols(t);n&&(e=e.filter((function(n){return Object.getOwnPropertyDescriptor(t,n).enumerable}))),r.push.apply(r,e)}return r}function n(n){for(var r=1;r<arguments.length;r++){var e=null!=arguments[r]?arguments[r]:{};r%2?t(Object(e),!0).forEach((function(t){u(n,t,e[t])})):Object.getOwnPropertyDescriptors?Object.defineProperties(n,Object.getOwnPropertyDescriptors(e)):t(Object(e)).forEach((function(t){Object.defineProperty(n,t,Object.getOwnPropertyDescriptor(e,t))}))}return n}function r(t){return(r="function"==typeof Symbol&&"symbol"==typeof Symbol.iterator?function(t){return typeof t}:function(t){return t&&"function"==typeof Symbol&&t.constructor===Symbol&&t!==Symbol.prototype?"symbol":typeof t})(t)}function e(t,n){if(!(t instanceof n))throw new TypeError("Cannot call a class as a function")}function i(t,n){for(var r=0;r<n.length;r++){var e=n[r];e.enumerable=e.enumerable||!1,e.configurable=!0,"value"in e&&(e.writable=!0),Object.defineProperty(t,e.key,e)}}function o(t,n,r){return n&&i(t.prototype,n),r&&i(t,r),t}function u(t,n,r){return n in t?Object.defineProperty(t,n,{value:r,enumerable:!0,configurable:!0,writable:!0}):t[n]=r,t}function a(t){return(a=Object.setPrototypeOf?Object.getPrototypeOf:function(t){return t.__proto__||Object.getPrototypeOf(t)})(t)}function l(t,n){return(l=Object.setPrototypeOf||function(t,n){return t.__proto__=n,t})(t,n)}function f(){if("undefined"==typeof Reflect||!Reflect.construct)return!1;if(Reflect.construct.sham)return!1;if("function"==typeof Proxy)return!0;try{return Boolean.prototype.valueOf.call(Reflect.construct(Boolean,[],(function(){}))),!0}catch(t){return!1}}function s(t,n,r){return(s=f()?Reflect.construct:function(t,n,r){var e=[null];e.push.apply(e,n);var i=new(Function.bind.apply(t,e));return r&&l(i,r.prototype),i}).apply(null,arguments)}function c(t,n){if(n&&("object"==typeof n||"function"==typeof n))return n;if(void 0!==n)throw new TypeError("Derived constructors may only return object or undefined");return function(t){if(void 0===t)throw new ReferenceError("this hasn't been initialised - super() hasn't been called");return t}(t)}function h(t,n,r){return(h="undefined"!=typeof Reflect&&Reflect.get?Reflect.get:function(t,n,r){var e=function(t,n){for(;!Object.prototype.hasOwnProperty.call(t,n)&&null!==(t=a(t)););return t}(t,n);if(e){var i=Object.getOwnPropertyDescriptor(e,n);return i.get?i.get.call(r):i.value}})(t,n,r||t)}function v(t){return function(t){if(Array.isArray(t))return y(t)}(t)||function(t){if("undefined"!=typeof Symbol&&null!=t[Symbol.iterator]||null!=t["@@iterator"])return Array.from(t)}(t)||function(t,n){if(!t)return;if("string"==typeof t)return y(t,n);var r=Object.prototype.toString.call(t).slice(8,-1);"Object"===r&&t.constructor&&(r=t.constructor.name);if("Map"===r||"Set"===r)return Array.from(t);if("Arguments"===r||/^(?:Ui|I)nt(?:8|16|32)(?:Clamped)?Array$/.test(r))return y(t,n)}(t)||function(){throw new TypeError("Invalid attempt to spread non-iterable instance.\nIn order to be iterable, non-array objects must have a [Symbol.iterator]() method.")}()}function y(t,n){(null==n||n>t.length)&&(n=t.length);for(var r=0,e=new Array(n);r<n;r++)e[r]=t[r];return e}Number.isInteger||(Number.isInteger=function(t){return"number"==typeof t&&isFinite(t)&&Math.floor(t)===t}),Number.EPSILON||(Number.EPSILON=2220446049250313e-31);var g=p(Math.pow(10,-6));function p(t){var n=arguments.length>1&&void 0!==arguments[1]?arguments[1]:6;if(Number.isInteger(t))return t;var r=Math.pow(10,n);return Math.round((+t+Number.EPSILON)*r)/r}function d(t,n){var r=arguments.length>2&&void 0!==arguments[2]?arguments[2]:g;return Math.abs(t-n)<r}var m=Math.PI/180;function b(t){return t}function w(t,n,r){var e=1-r;return 3*r*e*(t*e+n*r)+r*r*r}function x(){var t=arguments.length>0&&void 0!==arguments[0]?arguments[0]:0,n=arguments.length>1&&void 0!==arguments[1]?arguments[1]:0,r=arguments.length>2&&void 0!==arguments[2]?arguments[2]:1,e=arguments.length>3&&void 0!==arguments[3]?arguments[3]:1;return t<0||t>1||r<0||r>1?null:d(t,n)&&d(r,e)?b:function(i){if(i<=0)return t>0?i*n/t:0===n&&r>0?i*e/r:0;if(i>=1)return r<1?1+(i-1)*(e-1)/(r-1):1===r&&t<1?1+(i-1)*(n-1)/(t-1):1;for(var o,u=0,a=1;u<a;){var l=w(t,r,o=(u+a)/2);if(d(i,l))break;l<i?u=o:a=o}return w(n,e,o)}}function A(){return 1}function k(t){return 1===t?1:0}function _(){var t=arguments.length>0&&void 0!==arguments[0]?arguments[0]:1,n=arguments.length>1&&void 0!==arguments[1]?arguments[1]:0;if(1===t){if(0===n)return k;if(1===n)return A}var r=1/t;return function(t){return t>=1?1:(t+=n*r)-t%r}}var S=Math.sin,O=Math.cos,j=Math.acos,M=Math.asin,P=Math.tan,E=Math.atan2,I=Math.PI/180,R=180/Math.PI,F=Math.sqrt,N=function(){function t(){var n=arguments.length>0&&void 0!==arguments[0]?arguments[0]:1,r=arguments.length>1&&void 0!==arguments[1]?arguments[1]:0,i=arguments.length>2&&void 0!==arguments[2]?arguments[2]:0,o=arguments.length>3&&void 0!==arguments[3]?arguments[3]:1,u=arguments.length>4&&void 0!==arguments[4]?arguments[4]:0,a=arguments.length>5&&void 0!==arguments[5]?arguments[5]:0;e(this,t),this.m=[n,r,i,o,u,a],this.i=null,this.w=null,this.s=null}return o(t,[{key:"determinant",get:function(){var t=this.m;return t[0]*t[3]-t[1]*t[2]}},{key:"isIdentity",get:function(){if(null===this.i){var t=this.m;this.i=1===t[0]&&0===t[1]&&0===t[2]&&1===t[3]&&0===t[4]&&0===t[5]}return this.i}},{key:"point",value:function(t,n){var r=this.m;return{x:r[0]*t+r[2]*n+r[4],y:r[1]*t+r[3]*n+r[5]}}},{key:"translateSelf",value:function(){var t=arguments.length>0&&void 0!==arguments[0]?arguments[0]:0,n=arguments.length>1&&void 0!==arguments[1]?arguments[1]:0;if(!t&&!n)return this;var r=this.m;return r[4]+=r[0]*t+r[2]*n,r[5]+=r[1]*t+r[3]*n,this.w=this.s=this.i=null,this}},{key:"rotateSelf",value:function(){var t=arguments.length>0&&void 0!==arguments[0]?arguments[0]:0;if(t%=360){var n=S(t*=I),r=O(t),e=this.m,i=e[0],o=e[1];e[0]=i*r+e[2]*n,e[1]=o*r+e[3]*n,e[2]=e[2]*r-i*n,e[3]=e[3]*r-o*n,this.w=this.s=this.i=null}return this}},{key:"scaleSelf",value:function(){var t=arguments.length>0&&void 0!==arguments[0]?arguments[0]:1,n=arguments.length>1&&void 0!==arguments[1]?arguments[1]:1;if(1!==t||1!==n){var r=this.m;r[0]*=t,r[1]*=t,r[2]*=n,r[3]*=n,this.w=this.s=this.i=null}return this}},{key:"skewSelf",value:function(t,n){if(n%=360,(t%=360)||n){var r=this.m,e=r[0],i=r[1],o=r[2],u=r[3];t&&(t=P(t*I),r[2]+=e*t,r[3]+=i*t),n&&(n=P(n*I),r[0]+=o*n,r[1]+=u*n),this.w=this.s=this.i=null}return this}},{key:"resetSelf",value:function(){var t=arguments.length>0&&void 0!==arguments[0]?arguments[0]:1,n=arguments.length>1&&void 0!==arguments[1]?arguments[1]:0,r=arguments.length>2&&void 0!==arguments[2]?arguments[2]:0,e=arguments.length>3&&void 0!==arguments[3]?arguments[3]:1,i=arguments.length>4&&void 0!==arguments[4]?arguments[4]:0,o=arguments.length>5&&void 0!==arguments[5]?arguments[5]:0,u=this.m;return u[0]=t,u[1]=n,u[2]=r,u[3]=e,u[4]=i,u[5]=o,this.w=this.s=this.i=null,this}},{key:"recomposeSelf",value:function(){var t=arguments.length>0&&void 0!==arguments[0]?arguments[0]:null,n=arguments.length>1&&void 0!==arguments[1]?arguments[1]:null,r=arguments.length>2&&void 0!==arguments[2]?arguments[2]:null,e=arguments.length>3&&void 0!==arguments[3]?arguments[3]:null,i=arguments.length>4&&void 0!==arguments[4]?arguments[4]:null;return this.isIdentity||this.resetSelf(),t&&(t.x||t.y)&&this.translateSelf(t.x,t.y),n&&this.rotateSelf(n),r&&(r.x&&this.skewSelf(r.x,0),r.y&&this.skewSelf(0,r.y)),!e||1===e.x&&1===e.y||this.scaleSelf(e.x,e.y),i&&(i.x||i.y)&&this.translateSelf(i.x,i.y),this}},{key:"decompose",value:function(){var t=arguments.length>0&&void 0!==arguments[0]?arguments[0]:0,n=arguments.length>1&&void 0!==arguments[1]?arguments[1]:0,r=this.m,e=r[0]*r[0]+r[1]*r[1],i=[[r[0],r[1]],[r[2],r[3]]],o=F(e);if(0===o)return{origin:{x:p(r[4]),y:p(r[5])},translate:{x:p(t),y:p(n)},scale:{x:0,y:0},skew:{x:0,y:0},rotate:0};i[0][0]/=o,i[0][1]/=o;var u=r[0]*r[3]-r[1]*r[2]<0;u&&(o=-o);var a=i[0][0]*i[1][0]+i[0][1]*i[1][1];i[1][0]-=i[0][0]*a,i[1][1]-=i[0][1]*a;var l=F(i[1][0]*i[1][0]+i[1][1]*i[1][1]);if(0===l)return{origin:{x:p(r[4]),y:p(r[5])},translate:{x:p(t),y:p(n)},scale:{x:p(o),y:0},skew:{x:0,y:0},rotate:0};i[1][0]/=l,i[1][1]/=l,a/=l;var f=0;return i[1][1]<0?(f=j(i[1][1])*R,i[0][1]<0&&(f=360-f)):f=M(i[0][1])*R,u&&(f=-f),a=E(a,F(i[0][0]*i[0][0]+i[0][1]*i[0][1]))*R,u&&(a=-a),{origin:{x:p(r[4]),y:p(r[5])},translate:{x:p(t),y:p(n)},scale:{x:p(o),y:p(l)},skew:{x:p(a),y:0},rotate:p(f)}}},{key:"clone",value:function(){var t=this.m;return new this.constructor(t[0],t[1],t[2],t[3],t[4],t[5])}},{key:"toString",value:function(){var t=arguments.length>0&&void 0!==arguments[0]?arguments[0]:" ";if(null===this.s){var n=this.m.map((function(t){return p(t)}));1===n[0]&&0===n[1]&&0===n[2]&&1===n[3]?this.s="translate("+n[4]+t+n[5]+")":this.s="matrix("+n.join(t)+")"}return this.s}}],[{key:"create",value:function(t){return t?Array.isArray(t)?s(this,v(t)):t instanceof this?t.clone():(new this).recomposeSelf(t.origin,t.rotate,t.skew,t.scale,t.translate):new this}}]),t}();function T(t,n,r){return t>=.5?r:n}function q(t,n,r){return 0===t||n===r?n:t*(r-n)+n}function B(t,n,r){var e=q(t,n,r);return e<=0?0:e}function L(t,n,r){var e=q(t,n,r);return e<=0?0:e>=1?1:e}function C(t,n,r){return 0===t?n:1===t?r:{x:q(t,n.x,r.x),y:q(t,n.y,r.y)}}function D(t,n,r){var e=function(t,n,r){return Math.round(q(t,n,r))}(t,n,r);return e<=0?0:e>=255?255:e}function z(t,n,r){return 0===t?n:1===t?r:{r:D(t,n.r,r.r),g:D(t,n.g,r.g),b:D(t,n.b,r.b),a:q(t,null==n.a?1:n.a,null==r.a?1:r.a)}}function V(t,n){for(var r=[],e=0;e<t;e++)r.push(n);return r}function G(t,n){if(--n<=0)return t;var r=(t=Object.assign([],t)).length;do{for(var e=0;e<r;e++)t.push(t[e])}while(--n>0);return t}var Y,$=function(){function t(n){e(this,t),this.list=n,this.length=n.length}return o(t,[{key:"setAttribute",value:function(t,n){for(var r=this.list,e=0;e<this.length;e++)r[e].setAttribute(t,n)}},{key:"removeAttribute",value:function(t){for(var n=this.list,r=0;r<this.length;r++)n[r].removeAttribute(t)}},{key:"style",value:function(t,n){for(var r=this.list,e=0;e<this.length;e++)r[e].style[t]=n}}]),t}(),U=/-./g,Q=function(t,n){return n.toUpperCase()};function H(t){return"function"==typeof t?t:T}function J(t){return t?"function"==typeof t?t:Array.isArray(t)?function(t){var n=arguments.length>1&&void 0!==arguments[1]?arguments[1]:b;if(!Array.isArray(t))return n;switch(t.length){case 1:return _(t[0])||n;case 2:return _(t[0],t[1])||n;case 4:return x(t[0],t[1],t[2],t[3])||n}return n}(t,null):function(t,n){var r=arguments.length>2&&void 0!==arguments[2]?arguments[2]:b;switch(t){case"linear":return b;case"steps":return _(n.steps||1,n.jump||0)||r;case"bezier":case"cubic-bezier":return x(n.x1||0,n.y1||0,n.x2||0,n.y2||0)||r}return r}(t.type,t.value,null):null}function Z(t,n,r){var e=arguments.length>3&&void 0!==arguments[3]&&arguments[3],i=n.length-1;if(t<=n[0].t)return e?[0,0,n[0].v]:n[0].v;if(t>=n[i].t)return e?[i,1,n[i].v]:n[i].v;var o,u=n[0],a=null;for(o=1;o<=i;o++){if(!(t>n[o].t)){a=n[o];break}u=n[o]}return null==a?e?[i,1,n[i].v]:n[i].v:u.t===a.t?e?[o,1,a.v]:a.v:(t=(t-u.t)/(a.t-u.t),u.e&&(t=u.e(t)),e?[o,t,r(t,u.v,a.v)]:r(t,u.v,a.v))}function K(t,n){var r=arguments.length>2&&void 0!==arguments[2]?arguments[2]:null;return t&&t.length?"function"!=typeof n?null:("function"!=typeof r&&(r=null),function(e){var i=Z(e,t,n);return null!=i&&r&&(i=r(i)),i}):null}function W(t,n){return t.t-n.t}function X(t,n,e,i,o){var u,a="@"===e[0],l="#"===e[0],f=Y[e],s=T;switch(a?(u=e.substr(1),e=u.replace(U,Q)):l&&(e=e.substr(1)),r(f)){case"function":if(s=f(i,o,Z,J,e,a,n,t),l)return s;break;case"string":s=K(i,H(f));break;case"object":if((s=K(i,H(f.i),f.f))&&"function"==typeof f.u)return f.u(n,s,e,a,t)}return s?function(t,n,r){if(arguments.length>3&&void 0!==arguments[3]&&arguments[3])return t instanceof $?function(e){return t.style(n,r(e))}:function(e){return t.style[n]=r(e)};if(Array.isArray(n)){var e=n.length;return function(i){var o=r(i);if(null==o)for(var u=0;u<e;u++)t[u].removeAttribute(n);else for(var a=0;a<e;a++)t[a].setAttribute(n,o)}}return function(e){var i=r(e);null==i?t.removeAttribute(n):t.setAttribute(n,i)}}(n,e,s,a):null}function tt(t,n,e,i){if(!i||"object"!==r(i))return null;var o=null,u=null;return Array.isArray(i)?u=function(t){if(!t||!t.length)return null;for(var n=0;n<t.length;n++)t[n].e&&(t[n].e=J(t[n].e));return t.sort(W)}(i):(u=i.keys,o=i.data||null),u?X(t,n,e,u,o):null}function nt(t,n,r){if(!r)return null;var e=[];for(var i in r)if(r.hasOwnProperty(i)){var o=tt(t,n,i,r[i]);o&&e.push(o)}return e.length?e:null}function rt(t,n){if(!n.duration||n.duration<0)return null;var r=function(t,n){if(!n)return null;var r=[];if(Array.isArray(n))for(var e=n.length,i=0;i<e;i++){var o=n[i];if(2===o.length){var u=null;if("string"==typeof o[0])u=t.getElementById(o[0]);else if(Array.isArray(o[0])){u=[];for(var a=0;a<o[0].length;a++)if("string"==typeof o[0][a]){var l=t.getElementById(o[0][a]);l&&u.push(l)}u=u.length?1===u.length?u[0]:new $(u):null}if(u){var f=nt(t,u,o[1]);f&&(r=r.concat(f))}}}else for(var s in n)if(n.hasOwnProperty(s)){var c=t.getElementById(s);if(c){var h=nt(t,c,n[s]);h&&(r=r.concat(h))}}return r.length?r:null}(t,n.elements);return r?function(t,n){var r=arguments.length>2&&void 0!==arguments[2]?arguments[2]:1/0,e=arguments.length>3&&void 0!==arguments[3]?arguments[3]:1,i=arguments.length>4&&void 0!==arguments[4]&&arguments[4],o=arguments.length>5&&void 0!==arguments[5]?arguments[5]:1,u=t.length,a=e>0?n:0;i&&r%2==0&&(a=n-a);var l=null;return function(f,s){var c=f%n,h=1+(f-c)/n;s*=e,i&&h%2==0&&(s=-s);var v=!1;if(h>r)c=a,v=!0,-1===o&&(c=e>0?0:n);else if(s<0&&(c=n-c),c===l)return!1;l=c;for(var y=0;y<u;y++)t[y](c);return v}}(r,n.duration,n.iterations||1/0,n.direction||1,!!n.alternate,n.fill||1):null}function et(t){return+("0x"+(t.replace(/[^0-9a-fA-F]+/g,"")||27))}function it(t,n,r){return!t||!r||n>t.length?t:t.substring(0,n)+it(t.substring(n+1),r,r)}function ot(t){var n=arguments.length>1&&void 0!==arguments[1]?arguments[1]:27;return!t||t%n?t%n:ot(t/n,n)}function ut(t,n,r){if(t&&t.length){var e=et(r),i=et(n),o=ot(e)+5,u=it(t,ot(e,5),o);return u=u.replace(/\x7c$/g,"==").replace(/\x2f$/g,"="),u=function(t,n,r){var e=+("0x"+t.substring(0,4));t=t.substring(4);for(var i=n%e+r%27,o=[],u=0;u<t.length;u+=2)if("|"!==t[u]){var a=+("0x"+t[u]+t[u+1])-i;o.push(a)}else{var l=+("0x"+t.substring(u+1,u+1+4))-i;u+=3,o.push(l)}return String.fromCharCode.apply(String,o)}(u=(u=atob(u)).replace(/[\x41-\x5A]/g,""),i,e),u=JSON.parse(u)}}var at=function(){function t(n,r){var i=arguments.length>2&&void 0!==arguments[2]?arguments[2]:{};e(this,t),this._id=0,this._running=!1,this._rollingBack=!1,this._animations=n,this.duration=r.duration,this.alternate=r.alternate,this.fill=r.fill,this.iterations=r.iterations,this.direction=i.direction||1,this.speed=i.speed||1,this.fps=i.fps||100,this.offset=i.offset||0,this.rollbackStartOffset=0}return o(t,[{key:"maxFiniteDuration",get:function(){return this.iterations>0?this.iterations*this.duration:this.duration}},{key:"_apply",value:function(t){for(var n=arguments.length>1&&void 0!==arguments[1]?arguments[1]:{},r=this._animations,e=r.length,i=0,o=0;o<e;o++)n[o]?i++:(n[o]=r[o](t,this.direction),n[o]&&i++);return i}},{key:"_rollback",value:function(){var t=this,n=1/0,r=null;this.rollbackStartOffset=this.offset,this._rollingBack=!0,this._running=!0;this._id=window.requestAnimationFrame((function e(i){if(t._rollingBack){null==r&&(r=i);var o=i-r,u=t.rollbackStartOffset-o,a=Math.round(u*t.speed);if(a>t.duration&&n!==1/0){var l=!!t.alternate&&a/t.duration%2>1,f=a%t.duration;a=(f+=l?t.duration:0)||t.duration}var s=t.fps?1e3/t.fps:0,c=Math.max(0,a);c<n-s&&(t.offset=c,n=c,t._apply(c));var h=t.iterations>0&&-1===t.fill&&a>=t.maxFiniteDuration;(a<=0||t.offset<a||h)&&t.stop(),t._id=window.requestAnimationFrame(e)}}))}},{key:"_start",value:function(){var t=this,n=arguments.length>0&&void 0!==arguments[0]?arguments[0]:0,r=-1/0,e=null,i={};this._running=!0;var o=function o(u){null==e&&(e=u);var a=Math.round((u-e+n)*t.speed),l=t.fps?1e3/t.fps:0;if(a>r+l&&!t._rollingBack&&(t.offset=a,r=a,t._apply(a,i)===t._animations.length))return void t.pause(!0);t._id=window.requestAnimationFrame(o)};this._id=window.requestAnimationFrame(o)}},{key:"_pause",value:function(){this._id&&window.cancelAnimationFrame(this._id),this._running=!1}},{key:"play",value:function(){if(!this._running)return this._rollingBack?this._rollback():this._start(this.offset)}},{key:"stop",value:function(){this._pause(),this.offset=0,this.rollbackStartOffset=0,this._rollingBack=!1,this._apply(0)}},{key:"reachedToEnd",value:function(){return this.iterations>0&&this.offset>=this.iterations*this.duration}},{key:"restart",value:function(){var t=arguments.length>0&&void 0!==arguments[0]&&arguments[0];this.stop(t),this.play(t)}},{key:"pause",value:function(){this._pause()}},{key:"reverse",value:function(){this.direction=-this.direction}}],[{key:"build",value:function(t,r){return delete t.animationSettings,t.options=ut(t.options,t.root,"5c7f360c"),t.animations.map((function(r){var e=ut(r.s,t.root,"5c7f360c");for(var i in delete r.s,t.animationSettings||(t.animationSettings=n({},e)),e)e.hasOwnProperty(i)&&(r[i]=e[i])})),(t=function(t,n){if(Y=n,!t||!t.root||!Array.isArray(t.animations))return null;for(var r=document.getElementsByTagName("svg"),e=!1,i=0;i<r.length;i++)if(r[i].id===t.root&&!r[i].svgatorAnimation){(e=r[i]).svgatorAnimation=!0;break}if(!e)return null;var o=t.animations.map((function(t){return rt(e,t)})).filter((function(t){return!!t}));return o.length?{element:e,animations:o,animationSettings:t.animationSettings,options:t.options||void 0}:null}(t,r))?{el:t.element,options:t.options||{},player:new this(t.animations,t.animationSettings,t.options)}:null}},{key:"push",value:function(t){return this.build(t)}},{key:"init",value:function(){var t=this,n=window.__SVGATOR_PLAYER__&&window.__SVGATOR_PLAYER__["5c7f360c"];Array.isArray(n)&&n.splice(0).forEach((function(n){return t.build(n)}))}}]),t}();function lt(t){return p(t)+""}function ft(t){var n=arguments.length>1&&void 0!==arguments[1]?arguments[1]:" ";return t&&t.length?t.map(lt).join(n):""}function st(t){if(!t)return"transparent";if(null==t.a||t.a>=1){var n=function(t){return 1===(t=parseInt(t).toString(16)).length?"0"+t:t},r=function(t){return t.charAt(0)===t.charAt(1)},e=n(t.r),i=n(t.g),o=n(t.b);return r(e)&&r(i)&&r(o)&&(e=e.charAt(0),i=i.charAt(0),o=o.charAt(0)),"#"+e+i+o}return"rgba("+t.r+","+t.g+","+t.b+","+t.a+")"}function ct(t){return t?"url(#"+t+")":"none"}!function(){for(var t=0,n=["ms","moz","webkit","o"],r=0;r<n.length&&!window.requestAnimationFrame;++r)window.requestAnimationFrame=window[n[r]+"RequestAnimationFrame"],window.cancelAnimationFrame=window[n[r]+"CancelAnimationFrame"]||window[n[r]+"CancelRequestAnimationFrame"];window.requestAnimationFrame||(window.requestAnimationFrame=function(n){var r=Date.now(),e=Math.max(0,16-(r-t)),i=window.setTimeout((function(){n(r+e)}),e);return t=r+e,i},window.cancelAnimationFrame=window.clearTimeout)}();var ht={f:null,i:function(t,n,r){return 0===t?n:1===t?r:{x:B(t,n.x,r.x),y:B(t,n.y,r.y)}},u:function(t,n){return function(r){var e=n(r);t.setAttribute("rx",lt(e.x)),t.setAttribute("ry",lt(e.y))}}},vt={f:null,i:function(t,n,r){return 0===t?n:1===t?r:{width:B(t,n.width,r.width),height:B(t,n.height,r.height)}},u:function(t,n){return function(r){var e=n(r);t.setAttribute("width",lt(e.width)),t.setAttribute("height",lt(e.height))}}};Object.freeze({M:2,L:2,Z:0,H:1,V:1,C:6,Q:4,T:2,S:4,A:7});var yt={},gt=null;function pt(t){var n=function(){if(gt)return gt;if("object"!==("undefined"==typeof document?"undefined":r(document))||!document.createElementNS)return{};var t=document.createElementNS("http://www.w3.org/2000/svg","svg");return t&&t.style?(t.style.position="absolute",t.style.opacity="0.01",t.style.zIndex="-9999",t.style.left="-9999px",t.style.width="1px",t.style.height="1px",gt={svg:t}):{}}().svg;if(!n)return function(t){return null};var e=document.createElementNS(n.namespaceURI,"path");e.setAttributeNS(null,"d",t),e.setAttributeNS(null,"fill","none"),e.setAttributeNS(null,"stroke","none"),n.appendChild(e);var i=e.getTotalLength();return function(t){var n=e.getPointAtLength(i*t);return{x:n.x,y:n.y}}}function dt(t){return yt[t]?yt[t]:yt[t]=pt(t)}function mt(t,n,r,e){if(!t||!e)return!1;var i=["M",t.x,t.y];if(n&&r&&(i.push("C"),i.push(n.x),i.push(n.y),i.push(r.x),i.push(r.y)),n?!r:r){var o=n||r;i.push("Q"),i.push(o.x),i.push(o.y)}return n||r||i.push("L"),i.push(e.x),i.push(e.y),i.join(" ")}function bt(t,n,r,e){var i=arguments.length>4&&void 0!==arguments[4]?arguments[4]:1,o=mt(t,n,r,e),u=dt(o);try{return u(i)}catch(t){return null}}function wt(t,n,r){return t+(n-t)*r}function xt(t,n,r){var e=arguments.length>3&&void 0!==arguments[3]&&arguments[3],i={x:wt(t.x,n.x,r),y:wt(t.y,n.y,r)};return e&&(i.a=At(t,n)),i}function At(t,n){return Math.atan2(n.y-t.y,n.x-t.x)}function kt(t,n,r,e){var i=1-e;return i*i*t+2*i*e*n+e*e*r}function _t(t,n,r,e){return 2*(1-e)*(n-t)+2*e*(r-n)}function St(t,n,r,e){var i=arguments.length>4&&void 0!==arguments[4]&&arguments[4],o=bt(t,n,null,r,e);return o||(o={x:kt(t.x,n.x,r.x,e),y:kt(t.y,n.y,r.y,e)}),i&&(o.a=Ot(t,n,r,e)),o}function Ot(t,n,r,e){return Math.atan2(_t(t.y,n.y,r.y,e),_t(t.x,n.x,r.x,e))}function jt(t,n,r,e,i){var o=i*i;return i*o*(e-t+3*(n-r))+3*o*(t+r-2*n)+3*i*(n-t)+t}function Mt(t,n,r,e,i){var o=1-i;return 3*(o*o*(n-t)+2*o*i*(r-n)+i*i*(e-r))}function Pt(t,n,r,e,i){var o=arguments.length>5&&void 0!==arguments[5]&&arguments[5],u=bt(t,n,r,e,i);return u||(u={x:jt(t.x,n.x,r.x,e.x,i),y:jt(t.y,n.y,r.y,e.y,i)}),o&&(u.a=Et(t,n,r,e,i)),u}function Et(t,n,r,e,i){return Math.atan2(Mt(t.y,n.y,r.y,e.y,i),Mt(t.x,n.x,r.x,e.x,i))}function It(t,n,r){var e=arguments.length>3&&void 0!==arguments[3]&&arguments[3];if(Ft(n)){if(Nt(r))return St(n,r.start,r,t,e)}else if(Ft(r)){if(n.end)return St(n,n.end,r,t,e)}else{if(n.end)return r.start?Pt(n,n.end,r.start,r,t,e):St(n,n.end,r,t,e);if(r.start)return St(n,r.start,r,t,e)}return xt(n,r,t,e)}function Rt(t,n,r){var e=It(t,n,r,!0);return e.a=function(t){return arguments.length>1&&void 0!==arguments[1]&&arguments[1]?t+Math.PI:t}(e.a)/m,e}function Ft(t){return!t.type||"corner"===t.type}function Nt(t){return null!=t.start&&!Ft(t)}var Tt=new N;var qt={f:lt,i:q},Bt={f:lt,i:L};function Lt(t,n,r){return t.map((function(t){return function(t,n,r){var e=t.v;if(!e||"g"!==e.t||e.s||!e.v||!e.r)return t;var i=r.getElementById(e.r),o=i&&i.querySelectorAll("stop")||[];return e.s=e.v.map((function(t,n){var r=o[n]&&o[n].getAttribute("offset");return{c:t,o:r=p(parseInt(r)/100)}})),delete e.v,t}(t,0,r)}))}var Ct={gt:"gradientTransform",c:{x:"cx",y:"cy"},rd:"r",f:{x:"x1",y:"y1"},to:{x:"x2",y:"y2"}};function Dt(t,n,e,i,o,u,a,l){return Lt(t,0,l),n=function(t,n,r){for(var e,i,o,u=t.length-1,a={},l=0;l<=u;l++)(e=t[l]).e&&(e.e=n(e.e)),e.v&&"g"===(i=e.v).t&&i.r&&(o=r.getElementById(i.r))&&(a[i.r]={e:o,s:o.querySelectorAll("stop")});return a}(t,i,l),function(i){var o=e(i,t,zt);if(!o)return"none";if("c"===o.t)return st(o.v);if("g"===o.t){if(!n[o.r])return ct(o.r);var u=n[o.r];return function(t,n){for(var r=t.s,e=r.length;e<n.length;e++){var i=r[r.length-1].cloneNode();i.id=Yt(i.id),t.e.appendChild(i),r=t.s=t.e.querySelectorAll("stop")}for(var o=0,u=r.length,a=n.length-1;o<u;o++)r[o].setAttribute("stop-color",st(n[Math.min(o,a)].c)),r[o].setAttribute("offset",n[Math.min(o,a)].o)}(u,o.s),Object.keys(Ct).forEach((function(t){if(void 0!==o[t])if("object"!==r(Ct[t])){var n,e="gt"===t?(n=o[t],Array.isArray(n)?"matrix("+n.join(" ")+")":""):o[t],i=Ct[t];u.e.setAttribute(i,e)}else Object.keys(Ct[t]).forEach((function(n){if(void 0!==o[t][n]){var r=o[t][n],e=Ct[t][n];u.e.setAttribute(e,r)}}))})),ct(o.r)}return"none"}}function zt(t,r,e){if(0===t)return r;if(1===t)return e;if(r&&e){var i=r.t;if(i===e.t)switch(r.t){case"c":return{t:i,v:z(t,r.v,e.v)};case"g":if(r.r===e.r){var o={t:i,s:Vt(t,r.s,e.s),r:r.r};return r.gt&&e.gt&&(o.gt=function(t,n,r){var e=n.length;if(e!==r.length)return T(t,n,r);for(var i=new Array(e),o=0;o<e;o++)i[o]=q(t,n[o],r[o]);return i}(t,r.gt,e.gt)),r.c?(o.c=C(t,r.c,e.c),o.rd=B(t,r.rd,e.rd)):r.f&&(o.f=C(t,r.f,e.f),o.to=C(t,r.to,e.to)),o}}if("c"===r.t&&"g"===e.t||"c"===e.t&&"g"===r.t){var u="c"===r.t?r:e,a="g"===r.t?n({},r):n({},e),l=a.s.map((function(t){return{c:u.v,o:t.o}}));return a.s="c"===r.t?Vt(t,l,a.s):Vt(t,a.s,l),a}}return T(t,r,e)}function Vt(t,n,r){if(n.length===r.length)return n.map((function(n,e){return Gt(t,n,r[e])}));for(var e=Math.max(n.length,r.length),i=[],o=0;o<e;o++){var u=Gt(t,n[Math.min(o,n.length-1)],r[Math.min(o,r.length-1)]);i.push(u)}return i}function Gt(t,n,r){return{o:L(t,n.o,r.o||0),c:z(t,n.c,r.c||{})}}function Yt(t){return t.replace(/-fill-([0-9]+)$/,(function(t,n){return"-fill-"+(+n+1)}))}var $t={fill:Dt,"fill-opacity":Bt,stroke:Dt,"stroke-opacity":Bt,"stroke-width":qt,"stroke-dashoffset":{f:lt,i:q},"stroke-dasharray":{f:function(t){var n=arguments.length>1&&void 0!==arguments[1]?arguments[1]:" ";return t&&t.length>0&&(t=t.map((function(t){return p(t,4)}))),ft(t,n)},i:function(t,n,r){var e,i,o,u=n.length,a=r.length;if(u!==a)if(0===u)n=V(u=a,0);else if(0===a)a=u,r=V(u,0);else{var l=(o=(e=u)*(i=a)/function(t,n){for(var r;n;)r=n,n=t%n,t=r;return t||1}(e,i))<0?-o:o;n=G(n,Math.floor(l/u)),r=G(r,Math.floor(l/a)),u=a=l}for(var f=[],s=0;s<u;s++)f.push(p(B(t,n[s],r[s])));return f}},opacity:Bt,transform:function(t,n,e,i){if(!(t=function(t,n){if(!t||"object"!==r(t))return null;var e=!1;for(var i in t)t.hasOwnProperty(i)&&(t[i]&&t[i].length?(t[i].forEach((function(t){t.e&&(t.e=n(t.e))})),e=!0):delete t[i]);return e?t:null}(t,i)))return null;var o=function(r,i,o){var u=arguments.length>3&&void 0!==arguments[3]?arguments[3]:null;return t[r]?e(i,t[r],o):n&&n[r]?n[r]:u};return n&&n.a&&t.o?function(n){var r=e(n,t.o,Rt);return Tt.recomposeSelf(r,o("r",n,q,0)+r.a,o("k",n,C),o("s",n,C),o("t",n,C)).toString()}:function(t){return Tt.recomposeSelf(o("o",t,It,null),o("r",t,q,0),o("k",t,C),o("s",t,C),o("t",t,C)).toString()}},r:qt,"#size":vt,"#radius":ht,_:function(t,n){if(Array.isArray(t))for(var r=0;r<t.length;r++)this[t[r]]=n;else this[t]=n}},Ut=function(t){!function(t,n){if("function"!=typeof n&&null!==n)throw new TypeError("Super expression must either be null or a function");t.prototype=Object.create(n&&n.prototype,{constructor:{value:t,writable:!0,configurable:!0}}),n&&l(t,n)}(u,t);var n,r,i=(n=u,r=f(),function(){var t,e=a(n);if(r){var i=a(this).constructor;t=Reflect.construct(e,arguments,i)}else t=e.apply(this,arguments);return c(this,t)});function u(){return e(this,u),i.apply(this,arguments)}return o(u,null,[{key:"build",value:function(t){var n=h(a(u),"build",this).call(this,t,$t);if(!n)return null;n.el,n.options,function(t,n,r){t.play()}(n.player)}}]),u}(at);return Ut.init(),Ut}));
(function(s,i,o,w,a,b){w[o]=w[o]||{};w[o][s]=w[o][s]||[];w[o][s].push(i);})('5c7f360c',{"root":"eHINgLnWdG91","animations":[{"elements":{"eHINgLnWdG910":{"transform":{"data":{"o":{"x":196.165001,"y":481.445023,"type":"corner"},"t":{"x":-196.165001,"y":-481.445023}},"keys":{"r":[{"t":0,"v":0},{"t":10000,"v":720}]}}},"eHINgLnWdG9126":{"transform":{"data":{"t":{"x":-1082.17691,"y":-833.636841}},"keys":{"o":[{"t":1000,"v":{"x":1082.17691,"y":833.636841,"type":"corner"}},{"t":3000,"v":{"x":933.903092,"y":833.636841,"type":"corner"}},{"t":5000,"v":{"x":1262.606908,"y":833.636841,"type":"corner"}},{"t":7000,"v":{"x":933.903092,"y":833.636841,"type":"corner"}},{"t":9000,"v":{"x":1262.606908,"y":833.636841,"type":"corner"}},{"t":10000,"v":{"x":1082.17691,"y":833.636841,"type":"corner"}}]}}},"eHINgLnWdG9137":{"transform":{"data":{"t":{"x":-564.886627,"y":-642.010895}},"keys":{"o":[{"t":0,"v":{"x":564.886627,"y":642.010895,"type":"corner"}},{"t":2000,"v":{"x":247.893191,"y":642.09,"type":"corner"}},{"t":4000,"v":{"x":564.886627,"y":642.010895,"type":"corner"}},{"t":6000,"v":{"x":247.893191,"y":642.09,"type":"corner"}},{"t":8000,"v":{"x":564.886627,"y":642.010895,"type":"corner"}},{"t":10000,"v":{"x":247.893191,"y":642.09,"type":"corner"}}]}}},"eHINgLnWdG9163":{"transform":{"data":{"o":{"x":1713.835022,"y":961.180786,"type":"corner"},"t":{"x":-1713.835022,"y":-961.180786}},"keys":{"r":[{"t":0,"v":0},{"t":10000,"v":720}]}}},"eHINgLnWdG9173":{"transform":{"data":{"o":{"x":1929.114258,"y":805.279998,"type":"corner"},"t":{"x":-1929.114258,"y":-805.279998}},"keys":{"r":[{"t":0,"v":0},{"t":10000,"v":-720}]}}}},"s":"MFDA1NDg4MmY3MTgyN2GY2ZUU4MVE3NjdjN2IOyZjQ3M2UzZDNkM2QzFZDM5MmY3MTc2N2Y3MBjcwODE3NjdjN2JLMmJY0NzNlMzlIMmY3NjgTxWDcyN2ZVNmVWODE3BNjdjN2I4MDJmNDczZEDM5MmY3Mzc2Nzk3OTEJmNDczZTM5MmY2ZTcK5ODE3MjdmN2I2ZTgxYNzJIMmY0NzczNmU3ONTgwTzcyMzkyZjgwN2GRISzcyNzJBNzEyZjQG3M2U4YQ|"}],"options":"MTDAxMDg4MmY4MDgxNmQU3ZjgxMmY0NzJmNzkJ3YzZlNzEyZlI4YQ|"},'__SVGATOR_PLAYER__',window)]]></script></svg>