<svg id="eDv2thajPL01" xmlns="http://www.w3.org/2000/svg" xmlns:xlink="http://www.w3.org/1999/xlink" viewBox="0 0 2118.83 1266.11" shape-rendering="geometricPrecision" text-rendering="geometricPrecision"><defs><linearGradient id="eDv2thajPL034-fill" x1="805.96" y1="76.65" x2="183.75" y2="1135.28" spreadMethod="pad" gradientUnits="userSpaceOnUse" gradientTransform="translate(0 0)"><stop id="eDv2thajPL034-fill-0" offset="0%" stop-color="#4042e2"/><stop id="eDv2thajPL034-fill-1" offset="100%" stop-color="#4f52ff"/></linearGradient><linearGradient id="eDv2thajPL045-fill" x1="1492.22" y1="227.29" x2="1380.22" y2="397.29" spreadMethod="pad" gradientUnits="userSpaceOnUse" gradientTransform="translate(0 0)"><stop id="eDv2thajPL045-fill-0" offset="0%" stop-color="#4042e2"/><stop id="eDv2thajPL045-fill-1" offset="100%" stop-color="#4f52ff"/></linearGradient><linearGradient id="eDv2thajPL047-fill" x1="1148.04" y1="532.13" x2="914.04" y2="990.13" spreadMethod="pad" gradientUnits="userSpaceOnUse" gradientTransform="translate(0 0)"><stop id="eDv2thajPL047-fill-0" offset="0%" stop-color="#4042e2"/><stop id="eDv2thajPL047-fill-1" offset="100%" stop-color="#4f52ff"/></linearGradient><linearGradient id="eDv2thajPL062-fill" x1="2025.63" y1="103.89" x2="1939.63" y2="217.89" spreadMethod="pad" gradientUnits="userSpaceOnUse" gradientTransform="translate(0 0)"><stop id="eDv2thajPL062-fill-0" offset="0%" stop-color="#4042e2"/><stop id="eDv2thajPL062-fill-1" offset="100%" stop-color="#4f52ff"/></linearGradient><linearGradient id="eDv2thajPL065-fill" x1="1649.61" y1="438.94" x2="1631.61" y2="552.94" spreadMethod="pad" gradientUnits="userSpaceOnUse" gradientTransform="translate(0 0)"><stop id="eDv2thajPL065-fill-0" offset="0%" stop-color="#4042e2"/><stop id="eDv2thajPL065-fill-1" offset="100%" stop-color="#4f52ff"/></linearGradient><linearGradient id="eDv2thajPL067-fill" x1="1495.78" y1="481.11" x2="1788.66" y2="481.11" spreadMethod="pad" gradientUnits="userSpaceOnUse" gradientTransform="translate(0 0)"><stop id="eDv2thajPL067-fill-0" offset="0%" stop-color="#4042e2"/><stop id="eDv2thajPL067-fill-1" offset="100%" stop-color="#4f52ff"/></linearGradient><linearGradient id="eDv2thajPL070-fill" x1="193.445814" y1="21.156229" x2="124.396014" y2="13.598399" spreadMethod="pad" gradientUnits="userSpaceOnUse" gradientTransform="translate(0 0)"><stop id="eDv2thajPL070-fill-0" offset="0%" stop-color="#09005d"/><stop id="eDv2thajPL070-fill-1" offset="100%" stop-color="#1a0f91"/></linearGradient><linearGradient id="eDv2thajPL074-fill" x1="1880.77" y1="379.81" x2="1824.77" y2="436.81" spreadMethod="pad" gradientUnits="userSpaceOnUse" gradientTransform="translate(0 0)"><stop id="eDv2thajPL074-fill-0" offset="0%" stop-color="#09005d"/><stop id="eDv2thajPL074-fill-1" offset="100%" stop-color="#1a0f91"/></linearGradient><linearGradient id="eDv2thajPL084-fill" x1="1146.67" y1="-203.68" x2="1026.66" y2="387.38" spreadMethod="pad" gradientUnits="userSpaceOnUse" gradientTransform="translate(0 0)"><stop id="eDv2thajPL084-fill-0" offset="0%" stop-color="#4042e2"/><stop id="eDv2thajPL084-fill-1" offset="100%" stop-color="#4f52ff"/></linearGradient><linearGradient id="eDv2thajPL086-fill" x1="1126.86" y1="152.15" x2="880.86" y2="386.15" spreadMethod="pad" gradientUnits="userSpaceOnUse" gradientTransform="translate(0 0)"><stop id="eDv2thajPL086-fill-0" offset="0%" stop-color="#4042e2"/><stop id="eDv2thajPL086-fill-1" offset="100%" stop-color="#4f52ff"/></linearGradient><linearGradient id="eDv2thajPL091-fill" x1="956.4" y1="46.17" x2="983.36" y2="46.17" spreadMethod="pad" gradientUnits="userSpaceOnUse" gradientTransform="translate(0 0)"><stop id="eDv2thajPL091-fill-0" offset="0%" stop-color="#4042e2"/><stop id="eDv2thajPL091-fill-1" offset="100%" stop-color="#4f52ff"/></linearGradient><linearGradient id="eDv2thajPL092-fill" x1="913.22" y1="47.18" x2="940.17" y2="47.18" spreadMethod="pad" gradientUnits="userSpaceOnUse" gradientTransform="translate(0 0)"><stop id="eDv2thajPL092-fill-0" offset="0%" stop-color="#4042e2"/><stop id="eDv2thajPL092-fill-1" offset="100%" stop-color="#4f52ff"/></linearGradient><linearGradient id="eDv2thajPL093-fill" x1="871.72" y1="47.18" x2="898.67" y2="47.18" spreadMethod="pad" gradientUnits="userSpaceOnUse" gradientTransform="translate(0 0)"><stop id="eDv2thajPL093-fill-0" offset="0%" stop-color="#4042e2"/><stop id="eDv2thajPL093-fill-1" offset="100%" stop-color="#4f52ff"/></linearGradient><linearGradient id="eDv2thajPL0103-fill" x1="1670.349883" y1="-8.56759" x2="1594.541065" y2="58.492256" spreadMethod="pad" gradientUnits="userSpaceOnUse" gradientTransform="translate(0 0)"><stop id="eDv2thajPL0103-fill-0" offset="0%" stop-color="#4042e2"/><stop id="eDv2thajPL0103-fill-1" offset="100%" stop-color="#4f52ff"/></linearGradient><linearGradient id="eDv2thajPL0104-fill" x1="1750.236771" y1="81.729524" x2="1674.427953" y2="148.78937" spreadMethod="pad" gradientUnits="userSpaceOnUse" gradientTransform="translate(0 0)"><stop id="eDv2thajPL0104-fill-0" offset="0%" stop-color="#4042e2"/><stop id="eDv2thajPL0104-fill-1" offset="100%" stop-color="#4f52ff"/></linearGradient><linearGradient id="eDv2thajPL0106-fill" x1="2759.625018" y1="2917.69583" x2="2590.226634" y2="2668.504766" spreadMethod="pad" gradientUnits="userSpaceOnUse" gradientTransform="translate(0 0)"><stop id="eDv2thajPL0106-fill-0" offset="0%" stop-color="#4042e2"/><stop id="eDv2thajPL0106-fill-1" offset="100%" stop-color="#4f52ff"/></linearGradient><linearGradient id="eDv2thajPL0107-fill" x1="2853.450728" y1="2853.928922" x2="2684.052344" y2="2604.737858" spreadMethod="pad" gradientUnits="userSpaceOnUse" gradientTransform="translate(0 0)"><stop id="eDv2thajPL0107-fill-0" offset="0%" stop-color="#4042e2"/><stop id="eDv2thajPL0107-fill-1" offset="100%" stop-color="#4f52ff"/></linearGradient></defs><g><g><path d="M1786.22,726.71c-.666471.002882-1.276721-.373051-1.573929-.96959s-.229772-1.310111.173929-1.84041c1.42-1.87,2.89-3.74,4.37-5.55.38489-.514878,1.021083-.777288,1.657037-.683477s1.169283.528738,1.389114,1.132819.09077,1.280057-.336151,1.760658c-1.45,1.78-2.89,3.62-4.28,5.46-.334589.434446-.851645.689281-1.4.69Z" fill="#27325b"/><path d="M2113.63,801.7c-.835282-.002301-1.553895-.591397-1.72-1.41-.92-4.65-2-9.31-3.33-13.87-.262335-.9306.2794-1.897665,1.21-2.16s1.897665.2794,2.16,1.21c1.31,4.64,2.46,9.4,3.4,14.13.190161.947094-.423046,1.869143-1.37,2.06-.114607.027509-.232141.040941-.35.04Zm-11.16-36.06c-.699653-.001912-1.331731-.418063-1.61-1.06-1.85-4.35-3.91-8.68-6.11-12.89-.291171-.553762-.264797-1.220797.069189-1.749839s.924843-.839719,1.55-.815s1.18964.381077,1.480811.934839c2.25,4.29,4.34,8.71,6.23,13.14.183449.42695.189555.909332.016973,1.340789s-.509682.776557-.936973.959211c-.217438.09517-.452664.142898-.69.14Zm-18.29-33c-.576232.000736-1.115456-.283854-1.44-.76-2.7-3.89-5.59-7.73-8.58-11.39-.561485-.751115-.431088-1.811324.295672-2.403995s1.791526-.507116,2.414328.193995c3.05,3.73,6,7.63,8.75,11.61.265541.380057.368423.850374.285816,1.306588s-.34387.860595-.725816,1.123412c-.293013.203665-.643265.308741-1,.3Zm-277.7-28.53c-.706563-.009921-1.337829-.443802-1.600265-1.099894s-.104542-1.405637.400265-1.900106c3.5-3.31,7.18-6.53,11-9.56.75311-.571711,1.824159-.441816,2.418774.293344s.497741,1.8097-.218774,2.426656c-3.69,3-7.31,6.14-10.75,9.39-.34332.303146-.792841.457781-1.25.43ZM2059.6,704c-.44699.001034-.877031-.170983-1.2-.48-3.44-3.25-7.05-6.41-10.73-9.38-.753869-.607513-.872513-1.711131-.265-2.465s1.711131-.872513,2.465-.265c3.76,3,7.44,6.25,10.94,9.57.506027.495753.663261,1.247678.39828,1.904656s-.899902,1.089401-1.60828,1.095344Zm-223.17-22.9c-.609073-.001812-1.174934-.314922-1.5-.83-.502921-.823736-.248645-1.898834.57-2.41c4.12-2.55,8.38-5,12.66-7.16.558521-.314905,1.244535-.299156,1.788017.041047s.857401.950383.818193,1.590362-.425264,1.207275-1.00621,1.478591c-4.19,2.17-8.37,4.53-12.41,7-.275212.177206-.592916.277352-.92.29Zm193.25-.1c-.325149.002566-.64429-.087626-.92-.26-4-2.47-8.2-4.82-12.43-7-.580946-.271316-.967002-.838612-1.00621-1.478591s.274711-1.250159.818193-1.590362s1.229496-.355952,1.788017-.041047c4.31,2.2,8.57,4.6,12.67,7.12.666845.410768.979562,1.214595.765628,1.968018s-.902422,1.272957-1.685628,1.271982ZM1870.4,664.63c-.844836-.005103-1.565405-.613053-1.712648-1.444974s.320886-1.65026,1.112648-1.945026c4.54-1.65,9.2-3.14,13.85-4.43.933361-.256812,1.898188.291639,2.155,1.225s-.291639,1.898188-1.225,2.155c-4.56,1.26-9.13,2.72-13.59,4.34-.189416.067155-.389034.100989-.59.1Zm125.28,0c-.204225.000946-.407121-.03287-.6-.1-4.45-1.61-9-3.06-13.59-4.32-.887251-.291331-1.389429-1.227993-1.141004-2.1282s1.159914-1.446747,2.071004-1.2418c4.66,1.28,9.32,2.75,13.85,4.39.804906.284425,1.287133,1.108108,1.141176,1.949219s-.877502,1.454168-1.731176,1.450781Zm-36.62-9.12h-.25c-4.68-.67-9.46-1.16-14.19-1.47-.464467-.028274-.898549-.240366-1.206295-.589396s-.463814-.806252-.433705-1.270604c.079689-.955665.902142-1.676417,1.86-1.63c4.83.31,9.7.81,14.47,1.49.945361.091122,1.645485.91965,1.577626,1.866965s-.87893,1.667591-1.827626,1.623035Zm-52,0c-.944264.034923-1.745728-.686061-1.810555-1.628744s.630399-1.766591,1.570555-1.861256c4.78-.68,9.64-1.18,14.46-1.48.625215-.039299,1.223903.257935,1.570544.779737s.388574,1.188899.11,1.75-.835329.930964-1.460544.970263c-4.72.3-9.5.78-14.19,1.45-.103225.012809-.207816.009436-.31-.01Z" fill="#27325b"/><path d="M2117.08,832c-.947304.000387-1.722934-.753083-1.75-1.7-.07-2.29-.18-4.62-.34-6.92-.032941-.464388.120517-.922761.426422-1.273707s.73904-.565536,1.203578-.596293c.959717-.051772,1.785375.671789,1.86,1.63.16,2.34.28,4.72.35,7.06.013452.464182-.158141.914677-.476993,1.252285s-.758815.534642-1.223007.547715Z" fill="#27325b"/><path d="M2065.27,965.87c-.717501.014609-1.371197-.410321-1.649094-1.07198s-.123661-1.425922.389094-1.92802c1.62-1.66,3.21-3.37,4.74-5.07.411274-.489748,1.056948-.716147,1.68401-.59048s1.135636.583383,1.326433,1.19379.033427,1.276279-.410443,1.73669c-1.56,1.74-3.18,3.47-4.83,5.17-.323275.348747-.774554.550919-1.25.56Z" fill="#27325b"/><path d="M1933.26,1021.81h-1.59c-.966498,0-1.75-.783502-1.75-1.75s.783502-1.75,1.75-1.75h1.57c4.14,0,8.34-.14,12.48-.42.959717-.051772,1.785375.671789,1.86,1.63.032947.461737-.119454.917569-.423485,1.266642s-.734627.562607-1.196515.593358c-4.2.28-8.48.43-12.7.43Zm-24.52-1.64h-.24c-4.7-.64-9.44-1.46-14.09-2.45-.633214-.108158-1.156272-.55455-1.362615-1.162893s-.062798-1.280838.373947-1.751914s1.096478-.665001,1.718668-.505193c4.56,1,9.21,1.77,13.83,2.39.936136.096829,1.62805.916699,1.566161,1.855793s-.855414,1.661069-1.796161,1.634207Zm59.93-1.81c-.905161.003848-1.663883-.683202-1.749579-1.584305s.529919-1.718854,1.419579-1.885695c4.57-.9,9.17-2,13.65-3.24.608419-.188119,1.271004-.030872,1.730012.410573s.641974,1.097395.477723,1.712687-.649786,1.092786-1.267735,1.24674c-4.57,1.28-9.25,2.39-13.92,3.31-.112271.01967-.226019.029707-.34.03Zm-96.06-6.79c-.197764.001696-.394222-.032176-.58-.1-4.5-1.56-9-3.31-13.32-5.2-.886417-.386599-1.291599-1.418583-.905-2.305s1.418583-1.291599,2.305-.905c4.26,1.85,8.66,3.57,13.07,5.11.801396.283132,1.283484,1.101149,1.142955,1.939392s-.863037,1.454314-1.712955,1.460608Zm131.59-4.05c-.83049-.002769-1.544655-.588869-1.709392-1.402861s.265332-1.631664,1.029392-1.957139c4.28-1.8,8.56-3.79,12.72-5.93.555548-.287599,1.222328-.25697,1.74917.08035s.833706.930081.805,1.555-.388622,1.187051-.94417,1.47465c-4.25,2.18-8.61,4.22-13,6-.203303.100646-.423885.16173-.65.18Zm-165.27-11.6c-.3158-.000116-.626074-.082856-.9-.24-4.07-2.43-8.11-5-12-7.78-.707964-.579726-.849796-1.606984-.325408-2.356859s1.537938-.969173,2.325408-.503141c3.81,2.68,7.77,5.25,11.77,7.63.68875.394156,1.02356,1.204384.813964,1.969762s-.910492,1.291983-1.703964,1.280238Zm197.9-6.15c-.772903.009002-1.460166-.49013-1.69072-1.2279s.050219-1.539413.69072-1.9721c3.86-2.63,7.65-5.44,11.29-8.35.75663-.604752,1.860248-.48163,2.465.275s.48163,1.860248-.275,2.465c-3.71,3-7.58,5.83-11.5,8.5-.287717.200231-.629471.308337-.98.31ZM1809.1,973.82c-.437524.002331-.85949-.162165-1.18-.46-3.5-3.19-6.93-6.57-10.19-10-.662742-.706924-.626924-1.817258.08-2.48s1.817258-.626924,2.48.08c3.19,3.41,6.56,6.72,10,9.85.528267.490232.70428,1.252992.444239,1.925132s-.903584,1.117826-1.624239,1.124868Zm-24.76-27.68c-.560651-.00156-1.087411-.26865-1.42-.72-2.19-3-4.33-6.16-6.36-9.32l-1.61-2.56c-.328684-.535898-.346503-1.20644-.046743-1.759038s.871556-.9033,1.5-.92s1.218059.30314,1.546743.839038c.52.84,1,1.68,1.58,2.51c2,3.11,4.09,6.18,6.25,9.15.564492.781864.390081,1.873047-.39,2.44-.303149.225598-.672154.345085-1.05.34Zm-18.75-32.07c-.682046.004855-1.30549-.384797-1.6-1-2-4.32-3.8-8.77-5.44-13.23-.216146-.587702-.102337-1.246073.298555-1.727112s1.027962-.711663,1.645-.605s1.130299.53441,1.346445,1.122112c1.61,4.38,3.4,8.75,5.34,13c.24864.541719.204455,1.172741-.117252,1.674524s-.876694.805315-1.472748.805476Zm-11.95-35.17c-.814001-.002787-1.518598-.566464-1.7-1.36-1.06-4.62-2-9.35-2.66-14.06-.140833-.958214.521786-1.849167,1.48-1.99s1.849167.521786,1.99,1.48c.68,4.61,1.56,9.25,2.6,13.79.104804.452197.025659.927507-.220021,1.321344s-.637763.673933-1.089979.778656c-.131434.028144-.265595.04156-.4.04Z" fill="#27325b"/><path d="M1749.05,842c-.953269.00562-1.733581-.756855-1.75-1.71c0-2.33-.06-4.71,0-7.07.027164-.96186.817774-1.72582,1.78-1.72.465013.005222.908586.196371,1.231736.530794s.498984.784287.488264,1.249206c0,2.31,0,4.64,0,6.93.013431.464918-.159832.915862-.481115,1.252175s-.763838.53-1.228885.537825Z" fill="#27325b"/><g id="eDv2thajPL010" transform="translate(.000001 0)"><path d="M1793.1,816.05c-.234411.913658.139699,1.875079.93,2.39l22.49,14.74c-.23964,12.733174,1.601241,25.420057,5.45,37.56l-17.34,20.52c-.612596.719649-.697129,1.750139-.21,2.56l16.5,27.71c.491948.798025,1.433856,1.198836,2.35,1l26.3-5.47c8.841315,9.17122,19.119649,16.838594,30.43,22.7l2.25,26.8c.055147.958452.728107,1.769247,1.66,2l31.26,7.93c.913066.224923,1.869103-.147092,2.39-.93L1932.3,953c12.729919.239983,25.413567-1.600919,37.55-5.45l20.53,17.34c.717717.607904,1.742502.692298,2.55.21l27.71-16.5c.800428-.489878,1.201994-1.43356,1-2.35L2016.2,920c9.16336-8.839703,16.823888-19.114538,22.68-30.42l26.79-2.25c.954763-.064449,1.760784-.733447,2-1.66l7.92-31.26c.231207-.913463-.142192-1.873057-.93-2.39l-22.49-14.74c.240701-12.729964-1.600218-25.413728-5.45-37.55L2064,779.16c.602045-.720131.686123-1.741079.21-2.55L2047.7,748.9c-.490581-.794013-1.427092-1.194231-2.34-1l-26.31,5.48c-8.841711-9.161078-19.116152-16.821312-30.42-22.68l-2.26-26.79c-.056994-.954372-.72385-1.762682-1.65-2L1953.48,694c-.913463-.231207-1.873057.142192-2.39.93l-14.74,22.48c-12.729559-.234261-25.412285,1.606507-37.55,5.45l-20.52-17.34c-.722096-.606675-1.74869-.690888-2.56-.21L1848,721.8c-.795649.493988-1.195719,1.434153-1,2.35l5.47,26.31c-9.16336,8.839703-16.823888,19.114538-22.68,30.42L1803,783.13c-.955982.061391-1.763565.731685-2,1.66Z" fill="#f1835a"/><path d="M1934.33,866.48v0c-14.918957-.008375-27.754182-10.554808-30.65546-25.188944s4.939534-29.279679,18.726878-34.979196s29.680796-.865424,37.959683,11.545675s6.637149,28.942129-3.921101,39.482465c-5.862463,5.882292-13.83526,9.173681-22.14,9.14Zm0-57.28c-14.359403,0-26,11.640597-26,26s11.640597,26,26,26v0c14.359403,0,26-11.640597,26-26s-11.640597-26-26-26Z" fill="#34447d"/><path d="M1935.14,915.75c-34.602216.032477-65.361216-22.032537-76.42-54.82l5-1.67c1.71652,5.068508,3.962248,9.942073,6.7,14.54c16.273595,27.261393,47.896182,41.388761,79.06,35.32h.17.17c28.378374-5.710629,50.965256-27.193247,58.09-55.25c1.546244-6.086161,2.332235-12.340496,2.34-18.62-.075646-34.417954-23.502089-64.394154-56.881632-72.785066s-68.196287,6.944182-84.538368,37.235066l-4.63-2.49c18.643818-34.636747,59.595583-50.718704,96.826586-38.024269s59.828064,50.444258,53.42862,89.255897-39.919581,67.308598-79.255206,67.378372Z" fill="#34447d"/></g><path d="M46,89.94c-.785703.004815-1.505722-.437738-1.856256-1.14093s-.270529-1.544548.206256-2.16907c1.67-2.21,3.41-4.42,5.16-6.56.739216-.823687,1.995579-.920191,2.85192-.219062s1.009681,1.951828.34808,2.839062C51,84.79,49.28,87,47.64,89.12c-.389197.513746-.995486.81689-1.64.82Z" fill="#27325b"/><path d="M432.45,178.45c-.974266-.013665-1.807106-.704922-2-1.66-1.09-5.48-2.41-11-3.94-16.37-.312041-1.104569.330431-2.252959,1.435-2.565s2.252959.330431,2.565,1.435c1.55,5.49,2.91,11.1,4,16.69.220348,1.121024-.509182,2.208606-1.63,2.43-.141223.030446-.285584.043875-.43.04Zm-13.17-42.56c-.828854.001106-1.579256-.489994-1.91-1.25-2.18-5.13-4.61-10.25-7.21-15.22-.373863-.658784-.35804-1.469163.041254-2.112851s1.118285-1.017877,1.87458-.975599s1.429102.494269,1.754166,1.17845c2.64,5.06,5.12,10.28,7.35,15.5.216708.505178.223583,1.075806.019107,1.586058s-.603508.918218-1.109107,1.133942c-.25698.105654-.532149.160008-.81.16Zm-21.59-39c-.677751.008874-1.313874-.326126-1.69-.89-3.2-4.61-6.6-9.13-10.13-13.45-.661601-.887234-.50826-2.137933.34808-2.839062s2.112704-.604625,2.85192.219062c3.6,4.41,7.07,9,10.33,13.71.651343.938961.418581,2.228109-.52,2.88-.344691.254034-.761812.390738-1.19.39ZM69.91,63.24c-.847345.001434-1.610003-.513702-1.925079-1.30029s-.118941-1.68578.495079-2.26971C72.62,55.76,77,52,81.41,48.38c.569278-.517821,1.378825-.677095,2.101837-.413524s1.24013.906474,1.342599,1.669177-.226628,1.519294-.854436,1.964347c-4.35,3.51-8.62,7.24-12.67,11.07-.382597.365265-.89104.569358-1.42.57Zm298.76-.12c-.52896-.000642-1.037403-.204735-1.42-.57-4.05-3.84-8.31-7.57-12.66-11.08-.597091-.457411-.89908-1.202712-.788799-1.946742s.615472-1.369691,1.319572-1.634239s1.496294-.126349,2.069227.360981c4.43,3.58,8.77,7.38,12.91,11.3.823131.788126.85442,2.093337.07,2.92-.384577.420451-.930235.656903-1.5.65Zm-263.42-27c-.927259.008841-1.746134-.602956-2.000575-1.494666s.118276-1.843516.910575-2.325334c4.86-3,9.89-5.85,14.94-8.45.656219-.384185,1.470715-.375622,2.118712.022274s1.0241,1.120408.978338,1.879439-.505943,1.431124-1.19705,1.748287c-4.95,2.56-9.88,5.35-14.65,8.29-.330529.204014-.711581.311401-1.1.31ZM333.35,36c-.380395-.001295-.753435-.104917-1.08-.3-4.74-2.92-9.68-5.7-14.67-8.26-.969359-.545706-1.334095-1.759971-.825884-2.749503s1.707629-1.400468,2.715884-.930497c5.08,2.61,10.11,5.44,14.95,8.42.792299.481818,1.165016,1.433624.910575,2.325334s-1.073316,1.503507-2.000575,1.494666Zm-188-19.32c-.989393-.017906-1.827742-.733566-2.000685-1.707891s.367895-1.93479,1.290685-2.292109C150,10.71,155.5,9,161,7.44c1.104569-.303757,2.246243.345431,2.55,1.45s-.345431,2.246243-1.45,2.55c-5.38,1.49-10.78,3.21-16,5.12-.241512.080796-.495458.118042-.75.11Zm147.87,0c-.239376.000452-.476748-.043631-.7-.13-5.25-1.89-10.65-3.6-16-5.09-.714531-.19471-1.270909-.755827-1.459551-1.471984s.019111-1.478553.545-2s1.29002-.722726,2.004551-.528016c5.5,1.51,11,3.25,16.36,5.19.514924.185112.935044.567485,1.167673,1.06276s.258652,1.062753.072327,1.57724c-.299566.838535-1.099662,1.393375-1.99,1.38ZM250,5.9h-.3c-5.52-.79-11.15-1.37-16.74-1.73-1.139871-.059246-2.016679-1.029999-1.96-2.17.023094-.5618.271579-1.090597.689327-1.466947s.969517-.568501,1.530673-.533053c5.7.36,11.44,1,17.07,1.77c1.140468.080081,2.000081,1.069532,1.92,2.21s-1.069532,2.000081-2.21,1.92Zm-61.43,0c-1.087966.001556-1.991461-.839372-2.067852-1.924654s.700396-2.044482,1.777852-2.195346C193.92,1,199.67,0.36,205.35,0c1.132761-.057486,2.104628.798999,2.19,1.93.074224,1.140354-.789688,2.125124-1.93,2.2-5.58.35-11.21.93-16.75,1.72Z" fill="#27325b"/><path d="M436.52,214.17c-1.114346-.004533-2.027149-.886469-2.07-2-.08-2.71-.21-5.46-.4-8.18-.074361-1.136708.783683-2.119883,1.92-2.2c1.133055-.058245,2.109333.789924,2.21,1.92.19,2.77.32,5.57.41,8.33.033765,1.141387-.858939,2.096581-2,2.14Z" fill="#27325b"/><path d="M375.36,372.23c-.830192.002789-1.580926-.49304-1.904262-1.257684s-.156074-1.648653.424262-2.242316c1.91-2,3.79-4,5.59-6c.764914-.850519,2.074481-.919914,2.925-.155s.919914,2.074481.155,2.925c-1.84,2-3.76,4.1-5.7,6.1-.393242.399616-.929359.626296-1.49.63Z" fill="#27325b"/><path d="M219.55,438.26h-1.87c-1.084801-.075536-1.926212-.977572-1.926212-2.065s.841411-1.989464,1.926212-2.065h1.85c4.88,0,9.84-.17,14.73-.5c1.131102-.057974,2.104406.791455,2.2,1.92.038479.547677-.142193,1.088207-.502268,1.502668s-.870052.668897-1.417732.707332c-4.96.32-10.01.5-14.99.5Zm-29-1.93h-.27c-5.55-.75-11.15-1.72-16.64-2.88-1.118377-.237482-1.832482-1.336623-1.595-2.455s1.336623-1.832482,2.455-1.595c5.39,1.15,10.88,2.1,16.33,2.83c1.075581.150565,1.851907,1.106799,1.778266,2.190368s-.972204,1.925975-2.058266,1.929632Zm70.75-2.14c-1.063486-.002538-1.952014-.810534-2.055279-1.868997s.612338-2.02296,1.655279-2.231003c5.4-1.06,10.83-2.35,16.12-3.82.714531-.198282,1.480568-.000305,2.009551.519356s.740548,1.282057.555,2-.74002,1.282362-1.454551,1.480644c-5.4,1.51-10.92,2.82-16.43,3.9-.115783.017612-.232964.024308-.35.02Zm-113.4-8c-.228549-.001423-.455164-.042011-.67-.12-5.31-1.84-10.6-3.91-15.73-6.14-1.006193-.482213-1.449141-1.675144-1.001493-2.697184s1.624793-1.505379,2.661493-1.092816c5,2.19,10.22,4.22,15.42,6c.918523.354673,1.460099,1.307269,1.295081,2.277964s-.990955,1.690813-1.975081,1.722036Zm155.34-4.78c-1.008588.031318-1.892794-.669167-2.093066-1.658167s.341753-1.978296,1.283066-2.341833c5-2.12,10.11-4.47,15-7c1.008255-.469971,2.207673-.059035,2.715884.930497s.143475,2.203797-.825884,2.749503c-5,2.57-10.16,5-15.3,7.14-.231238.099778-.478471.157353-.73.17ZM108.2,407.71c-.354015-.009699-.699107-.113227-1-.3-4.81-2.85-9.58-5.94-14.17-9.17-.863151-.680987-1.043352-1.91794-.410367-2.816886s1.858294-1.14622,2.790367-.563114c4.5,3.16,9.18,6.19,13.9,9c.80217.476182,1.186723,1.430086.939098,2.329479s-1.06624,1.522035-1.999098,1.520521Zm233.6-7.27c-.908742.001524-1.712212-.589822-1.980913-1.457932s.060211-1.809954.810913-2.322068c4.55-3.1,9-6.41,13.33-9.84.895124-.638748,2.133455-.466118,2.819757.393089s.581009,2.105072-.239757,2.836911c-4.38,3.49-9,6.87-13.58,10-.338232.244506-.742754.380509-1.16.39ZM73,381.61c-.51415-.002017-1.009333-.19439-1.39-.54-4.13-3.76-8.17-7.75-12-11.85-.665423-.841966-.57703-2.052857.203612-2.789263s1.994626-.75409,2.796388-.040737c3.78,4,7.75,7.93,11.8,11.63.624965.577746.832605,1.479145.523381,2.272085s-1.072283,1.315793-1.923381,1.317915ZM43.77,348.94c-.663173.011108-1.288715-.307281-1.67-.85-2.59-3.56-5.12-7.26-7.51-11-.64-1-1.28-2-1.9-3-.431712-.629738-.481719-1.445991-.130108-2.123719s1.047743-1.106878,1.81119-1.116558s1.470237.401682,1.838918,1.070277c.61,1,1.23,2,1.86,3c2.35,3.67,4.83,7.3,7.37,10.8.672722.922574.471379,2.215643-.45,2.89-.363915.230894-.789313.34596-1.22.33ZM21.64,311.1c-.810814.003951-1.54777-.470367-1.88-1.21-2.34-5.1-4.5-10.35-6.43-15.62-.309667-1.047494.247875-2.155335,1.273645-2.530746s2.166709.110822,2.606355,1.110746c1.9,5.16,4,10.32,6.31,15.32.292464.640323.239465,1.38539-.140691,1.977867s-1.035358.951148-1.739309.952133ZM7.54,269.58c-.957495-.003713-1.786196-.666673-2-1.6-1.26-5.46-2.31-11.05-3.14-16.6-.148651-.748623.12671-1.518307.7165-2.002746s1.398305-.605025,2.103785-.313768s1.193451.947095,1.269715,1.706514c.81,5.45,1.85,10.93,3.08,16.28.248643,1.117916-.453172,2.226515-1.57,2.48-.150544.036387-.305154.053193-.46.05Z" fill="#27325b"/><path d="M2.12,226c-1.116441.000639-2.032246-.884197-2.07-2-.06-2.75-.07-5.56,0-8.34.05342-1.12057.978158-2.001273,2.1-2c1.127543.038023,2.016991.971944,2,2.1c0,2.73,0,5.49,0,8.19.022517,1.131918-.868498,2.071939-2,2.11Z" fill="#27325b"/><g id="eDv2thajPL020" transform="translate(0 0.000001)"><path d="M54.11,195.4c-.271512,1.07835.170034,2.210311,1.1,2.82l26.54,17.4c-.27799,15.02526,1.897249,29.995227,6.44,44.32L67.72,284.17c-.709742.846356-.809866,2.047844-.25,3L87,319.89c.564923.960009,1.680387,1.451296,2.77,1.22l31.05-6.46c10.434618,10.816729,22.563904,19.858806,35.91,26.77L159.34,373c.089584,1.107587.873154,2.035816,1.95,2.31l36.91,9.35c1.07635.276699,2.209561-.161315,2.82-1.09l17.4-26.54c15.024854.271567,29.993787-1.903522,44.32-6.44L287,371.1c.843935.7156,2.049261.816043,3,.25l32.71-19.48c.95047-.573359,1.438633-1.681729,1.22-2.77l-6.46-31.05c10.813708-10.434907,19.852444-22.564243,26.76-35.91l31.63-2.66c1.121828-.096163,2.054281-.903481,2.31-2l9.35-36.9c.271512-1.07835-.170034-2.210311-1.1-2.82l-26.54-17.4c.280685-15.024677-1.891162-29.994545-6.43-44.32l20.47-24.23c.7156-.843935.816043-2.049261.25-3L354.69,116.1c-.567071-.957589-1.680721-1.448078-2.77-1.22l-31.06,6.46c-10.44069-10.810365-22.577162-19.84263-35.93-26.74L282.28,63c-.099191-1.120547-.905183-2.051467-2-2.31l-36.9-9.35c-1.078938-.281204-2.216442.162504-2.82,1.1L223.2,79c-15.027955-.280702-30.001116,1.891133-44.33,6.43L154.65,64.92c-.846356-.709742-2.047844-.809866-3-.25l-32.7,19.48c-.960009.564923-1.451296,1.680387-1.22,2.77L124.17,118c-10.811954,10.427455-19.853624,22.546062-26.77,35.88l-31.63,2.66c-1.118017.100276-2.045448.906738-2.3,2Z" fill="#f1835a"/><path d="M220.81,254.91v0c-17.597886-.023686-32.728814-12.474185-36.140465-29.738216s5.846013-34.53411,22.112078-41.249858s35.010948-1.007043,44.772452,13.635333s7.82136,34.140986-4.634065,46.572741c-6.922436,6.948592-16.34182,10.831611-26.15,10.78Zm0-67.6c-16.955142,0-30.7,13.744858-30.7,30.7s13.744858,30.7,30.7,30.7v0c16.955142,0,30.7-13.744858,30.7-30.7s-13.744858-30.7-30.7-30.7Z" fill="#34447d"/><path d="M221.76,313.08c-40.849038.063731-77.165641-25.992898-90.19-64.71l5.88-2c14.208973,42.224199,57.494336,67.394881,101.22,58.86h.2.2c33.499768-6.74604,60.160919-32.108543,68.57-65.23c1.828019-7.190432,2.751819-14.580838,2.75-22-.065334-40.634658-27.710109-76.038294-67.116525-85.953639s-80.514691,8.188816-99.803475,43.953639L138,173.08c22.003973-40.910722,70.365803-59.909292,114.331868-44.914386s70.640548,59.585086,63.060961,105.415337-47.190054,79.457966-93.642829,79.499049Z" fill="#34447d"/></g><polygon points="742.55,985.73 716.6,1218.49 1017.7,1218.49 978.48,985.73 742.55,985.73" fill="#4858e8"/><path d="M110.94,296.91v640.31c-.001181,52.670428,41.977021,95.744332,94.63,97.1c233.87,6,1051.84,20.66,1274.47,17.37c38.263056-.568378,69.287144-31.178047,70.37-69.43c4.29-148.76,11.27-506.46-14.54-672.52-5.416701-34.964047-34.95727-61.118709-70.32-62.26-196-6.26-1063.06-26.17-1285.59-21.17-38.372905.858984-69.029613,32.217483-69.02,70.6Z" fill="#4858e8"/><path d="M130.36,285.37v645.74c0,32.65,25.44,59.25,57.13,59.74L1467,1007.13c31.42.48,57.18-25.56,57.29-57.92l2.14-640c.09-23.14-17.81-42.11-40.28-42.67l-1310-27.26c-25.1-.59-45.79,20.21-45.79,46.09Z" fill="#27325b"/><path d="M1513,998v0L151.1,974.74c-.552285,0-1-.447715-1-1s.447715-1,1-1L1513,996c.552285,0,1,.447715,1,1s-.447715,1-1,1Z" fill="#34447d"/><path d="M845.47,1026.29c-6.135692,0-11.667225-3.696052-14.015253-9.364692s-1.050146-12.193528,3.288443-16.532118s10.863477-5.63647,16.532118-3.288443s9.364692,7.879561,9.364692,14.015253c-.011018,8.373592-6.796408,15.158982-15.17,15.17Zm0-28.34c-5.326768,0-10.129028,3.208767-12.167493,8.130059s-.911697,10.585944,2.854897,14.352537s9.431245,4.893363,14.352537,2.854897s8.130059-6.840725,8.130059-12.167493c-.038466-7.249489-5.920417-13.109109-13.17-13.12Z" opacity="0.65" fill="#fff"/><path d="M1082.56,1266.11h-440.69c-12,0-21-8.52-18.65-17.67l5.66-22.37c1.7-6.72,9.1-11.66,17.89-11.94l424.83-13.25c9.18-.29,17.31,4.59,19.31,11.57l10.2,35.62c2.65,9.26-6.39,18.04-18.55,18.04Z" fill="#4858e8"/><path d="M879.1,1219.76c-.552285,0-1-.447715-1-1s.447715-1,1-1l18.2-.27c.552285,0,1,.447715,1,1s-.447715,1-1,1l-18.21.27Z" fill="#34447d"/><path d="M639.54,1253.35h-.16c-.543106-.087064-.91394-.596402-.83-1.14l2.6-16.27c1.347528-8.514611,8.630225-14.82206,17.25-14.94l193.09-2.82v0c.552285,0,1,.447715,1,1s-.447715,1-1,1L658.43,1223c-7.65016.1054-14.11345,5.703259-15.31,13.26l-2.6,16.26c-.082382.477588-.495366.82736-.98.83Z" fill="#34447d"/><path d="M1414,304.14L227.6,289.54c-18.7-.23-33.9,15.06-34.17,34.19L185.8,876.24c-.27,18.89,14.32,34.51,32.76,35.17L1411.7,953.62c16.501784.558965,32.486329-5.803675,44.09-17.55c12-11.81,18.13-28.07,18.13-45.06v-524.22c0-34.31-26.4-62.23-59.92-62.65Z" fill="#f1835a"/><g id="eDv2thajPL033" transform="translate(-206.100006-5.310014)"><path d="M232.27,318.39h531.87c14.5,0,26.18,14.67,25.92,32.56l-7.48,509c-.36,24-16.33,43.06-35.75,42.76l-515.13-8c-14.2-.22-25.61-14.49-25.6-32l.24-512.37c.01-17.65,11.66-31.95,25.93-31.95Z" fill="url(#eDv2thajPL034-fill)"/><path d="M240.68,333.4h510.72c13.93,0,25.14,14.06,24.89,31.2L769.1,852.42c-.33,23-15.67,41.27-34.32,41l-494.65-7.64c-13.63-.21-24.59-13.88-24.58-30.66L215.79,364c.01-16.89,11.15-30.6,24.89-30.6Z" fill="#27325b"/><path d="M592.3,391.35h-.15l-337.28-3.76c-8.73-.09-15.83-7-15.83-15.35v-13.24c.000436-3.249267,1.342951-6.354059,3.71-8.58c2.397963-2.276738,5.583425-3.538023,8.89-3.52h342.94c3.370382-.017474,6.595574,1.370446,8.9,3.83c2.145468,2.264389,3.234958,5.329489,3,8.44l-1.62,21c-.639252,6.42739-6.101833,11.289782-12.56,11.18ZM251.64,349.91c-2.532878-.020011-4.974528.944459-6.81,2.69-1.788456,1.649706-2.813104,3.966932-2.83,6.4v13.22c0,6.73,5.77,12.27,12.87,12.35l337.27,3.76c4.93097.179214,9.15774-3.492438,9.67-8.4l1.62-21c.172007-2.273375-.623216-4.513797-2.19-6.17-1.736639-1.847345-4.164591-2.887379-6.7-2.87Z" fill="#f1835a"/><path d="M588.18,385.09L261,382.34c-7.71-.07-13.91-4.59-13.92-10.15v-9.68c0-4.29,4.83-7.77,10.78-7.77h332.67c5.86,0,10.49,3.59,10.06,7.81L599,377.92c-.39,4.08-5.14,7.22-10.82,7.17Z" fill="#34447d"/><path d="M700.21,441.87h-459.55c-3.201429-.167075-5.667325-2.887602-5.52-6.09v-16.28c-.07048-1.545623.477389-3.055696,1.52255-4.196554s2.50158-1.81859,4.04745-1.883446l459.55,4.48c3.180004.188138,5.617871,2.897869,5.47,6.08v11.8c.147325,3.202398-2.318571,5.922925-5.52,6.09Z" fill="#34447d"/><path d="M736.58,552.71l-483.95-6.46c-8.601425-.11484-15.515298-7.117809-15.52-15.72v-66.45c-.002946-4.247397,1.694683-8.319183,4.713974-11.306534s7.108901-4.641581,11.356026-4.593466l482.55,5.16c9.517295.098687,17.180512,7.842193,17.18,17.36v65.9c-.002308,4.310191-1.730635,8.439941-4.798999,11.466968s-7.221175,4.699183-11.531001,4.643032Z" fill="#34447d"/><path d="M658.44,602.18h-418.44c-2.78,0-5-2.72-5-6.08v-16.28c0-3.38,2.28-6.11,5.07-6.09l418.47,4.48c2.75,0,5,2.75,5,6.09v11.8c-.07,3.36-2.32,6.08-5.1,6.08Z" fill="#34447d"/><path d="M736.39,723l-483.95-7.07c-8.61-.13-15.52-7.8-15.52-17.22v-72.8c0-9.69,7.22-17.52,16.07-17.42l482.55,5.65c9.51.11,17.17,8.59,17.17,19v72.16c0,9.85-7.34,17.79-16.32,17.7Z" fill="#34447d"/><path d="M748.79,775.16h-506.79c-3.359513.000005-6.084484-2.720492-6.09-6.08v-16.28c.002588-1.623884.653616-3.179483,1.80843-4.321153s2.717763-1.774848,4.34157-1.758847l506.76,4.47c3.328215.049191,6.000363,2.761422,6,6.09v11.8c.000113,3.338462-2.691651,6.052546-6.03,6.08Z" fill="#34447d"/><path d="M737.37,880.94L253.42,874.8c-8.6-.11-15.52-6.78-15.52-15v-63.19c0-8.43,7.22-15.23,16.07-15.14l482.55,4.91c9.52.1,17.18,7.47,17.18,16.53v62.7c0,8.55-7.35,15.45-16.33,15.33Z" fill="#34447d"/></g><g id="eDv2thajPL044" transform="translate(36.050024 165.658214)"><path d="M854.46,583.5h472.78c12.9,0,23.28,13.16,23,29.19l-6.66,456.39c-.31,21.48-14.51,38.61-43.56,38.34l-457.92-7.15c-.82-.19-11-13-11-28.69l.22-459.42c.1-15.83,10.41-28.66,23.14-28.66Z" fill="url(#eDv2thajPL045-fill)"/><path d="M864.88,595.86h454c12.38,0,22.35,12.5,22.13,27.74l-6.39,433.63c-.3,20.41-13.94,36.69-30.51,36.43l-439.71-6.79c-12.11-.19-21.85-12.34-21.85-27.26l.21-436.52c0-15.04,9.91-27.23,22.12-27.23Z" fill="#27325b"/><path d="M868.45,595.86h447.41c6.484543,0,12.703496,2.575975,17.288761,7.161239s7.161239,10.804218,7.161239,17.288761v50.05h-497.77v-48.6c.005521-14.305792,11.604206-25.900001,25.91-25.9Z" fill="url(#eDv2thajPL047-fill)"/><path d="M1284.85,638.6l-258.23-2.45c-6.09-.06-11-4.08-11-9v-8.61c0-3.81,3.8-6.9,8.5-6.9h262.58c4.63,0,8.28,3.19,7.94,6.94l-1.24,13.66c-.32,3.61-4.07,6.4-8.55,6.36Z" fill="#f1835a"/><path d="M1317.43,714.89h-452c-1.437474.002655-2.817127-.565835-3.83545-1.580407s-1.5919-2.392119-1.59455-3.829593v-14.48c.00258-1.446195.583018-2.831384,1.612186-3.847406s2.421705-1.578606,3.867814-1.562594l452,4c2.973856.021943,5.374594,2.436068,5.38,5.41v10.49c-.011026,2.989477-2.440508,5.405536-5.43,5.4Z" fill="#34447d"/><path d="M973.42,636.62c-5.453061-.000002-10.368989-3.285381-12.45485-8.32374s-.930735-10.83713,2.926592-14.691596s9.656954-5.005287,14.693764-2.915688s8.318539,7.007965,8.314494,12.461024c-.011026,7.438607-6.041387,13.464494-13.48,13.47Zm0-25c-6.340229,0-11.48,5.139771-11.48,11.48s5.139771,11.48,11.48,11.48s11.48-5.139771,11.48-11.48c-.032992-6.318409-5.161507-11.424587-11.48-11.43Z" fill="#34447d"/><path d="M930.23,637.64c-7.444798,0-13.48-6.035202-13.48-13.48s6.035202-13.48,13.48-13.48s13.48,6.035202,13.48,13.48c-.011014,7.440231-6.039769,13.468986-13.48,13.48Zm0-25c-6.340229,0-11.48,5.139771-11.48,11.48s5.139771,11.48,11.48,11.48s11.48-5.139771,11.48-11.48c-.02751-6.322317-5.157625-11.434557-11.48-11.44Z" fill="#34447d"/><path d="M888.73,637.64c-7.444798,0-13.48-6.035202-13.48-13.48s6.035202-13.48,13.48-13.48s13.48,6.035202,13.48,13.48c-.011014,7.440231-6.039769,13.468986-13.48,13.48Zm0-25c-6.340229,0-11.48,5.139771-11.48,11.48s5.139771,11.48,11.48,11.48s11.48-5.139771,11.48-11.48c-.02751-6.322317-5.157625-11.434557-11.48-11.44Z" fill="#34447d"/><path d="M1138.74,758.51l-84.54-.7c-2.647073-.022007-4.776636-2.182888-4.76-4.83v-2.36c.020771-2.589248,2.091475-4.69535,4.68-4.76l84.57-2.09c1.298018-.032577,2.553652.463191,3.479288,1.373746s1.441964,2.157876,1.430712,3.456254v5.16c-.010516,1.27566-.529461,2.494426-1.441785,3.3861s-2.142649,1.382586-3.418215,1.3639Z" fill="#f1835a"/><path d="M1157,912.14l-124.47-1c-2.019152-.013198-3.950052-.829363-5.366538-2.268362s-2.202103-3.382529-2.183462-5.401638l1-124.67c.037351-4.130894,3.359536-7.479691,7.49-7.55l122.91,2.33c5.207559.098495,9.364792,4.371702,9.32,9.58l-1,121.47c-.060353,4.196739-3.503063,7.554499-7.7,7.51Z" fill="#34447d"/><path d="M981.46,758.51l-84.54-.7c-2.647073-.022007-4.776636-2.182888-4.76-4.83v-2.36c.020771-2.589248,2.091475-4.69535,4.68-4.76l84.56-2.09c1.299729-.035337,2.557982.459209,3.485816,1.37007s1.445522,2.15977,1.434184,3.45993v5.16c-.010516,1.27566-.529461,2.494426-1.441785,3.3861s-2.142649,1.382586-3.418215,1.3639Z" fill="#f1835a"/><path d="M999.68,912.14l-124.47-1c-2.019152-.013198-3.950052-.829363-5.366538-2.268362s-2.202103-3.382529-2.183462-5.401638l1-124.67c.037351-4.130894,3.359536-7.479691,7.49-7.55l122.91,2.33c5.207559.098495,9.364792,4.371702,9.32,9.58l-1,121.47c-.060353,4.196739-3.503063,7.554499-7.7,7.51Z" fill="#34447d"/><path d="M1296.49,761.46l-84.55-.7c-1.27215-.010554-2.487845-.526749-3.37894-1.434728s-1.384383-2.133148-1.37106-3.405272v-2.35c.0206-2.58547,2.085394-4.690057,4.67-4.76l84.57-2.09c1.298923-.032511,2.555536.462955,3.482742,1.3732s1.445786,2.157498,1.437258,3.4568v5.16c-.010516,1.27566-.529461,2.494426-1.441785,3.3861s-2.142649,1.382586-3.418215,1.3639Z" fill="#f1835a"/><path d="M1314.71,915.09l-124.47-1c-2.020969-.01585-3.952861-.833911-5.37065-2.274204s-2.205326-3.384828-2.18935-5.405796l1-124.66c.031957-4.12927,3.351207-7.479582,7.48-7.55l122.92,2.33c5.205228.103867,9.359358,4.373884,9.32,9.58l-1,121.47c-.060351,4.192798-3.496949,7.548955-7.69,7.51Z" fill="#34447d"/><path d="M1320.42,1016.73c.000357,4.013143-1.607421,7.859077-4.463872,10.677943s-6.723341,4.375566-10.736128,4.322057l-432.28-6.34c-7.208722-.098459-13.000672-5.970606-13-13.18v-75c-.008191-3.523392,1.394707-6.903376,3.895505-9.385384s5.891265-3.859378,9.414495-3.824616l434.11,3.66c7.097941.062131,12.871776,5.734283,13.06,12.83Z" fill="#34447d"/><path d="M1302.07,1083.59l-430.23-5.53c-6.588288-.087766-11.873529-5.471213-11.84-12.06v-17.51c.013098-2.147266.883543-4.200304,2.417796-5.702632s3.605137-2.329417,5.752204-2.297368l443.34,5.84c6.318607.082135,11.39601,5.230862,11.39,11.55v5.2c-.004765,5.493805-2.211231,10.756504-6.125892,14.611027s-9.210887,5.979255-14.704108,5.898973Z" fill="#34447d"/></g><g id="eDv2thajPL061" transform="translate(205.825928-81.619986)"><path d="M1417.17,343.33h472.83c12.89,0,23.27,13.16,23,29.19l-6.65,456.39c-.31,21.48-14.51,38.61-43.57,38.34l-457.91-7.15c-.83-.19-11-13-11-28.69l.22-459.42c.04-15.83,10.36-28.66,23.08-28.66Z" fill="url(#eDv2thajPL062-fill)"/><path d="M1427.6,355.69h454c12.38,0,22.35,12.5,22.13,27.74l-6.39,433.63c-.3,20.41-13.93,36.69-30.51,36.43l-439.7-6.79c-12.12-.19-21.86-12.34-21.85-27.26l.21-436.52c-.01-15.04,9.89-27.23,22.11-27.23Z" fill="#27325b"/><path d="M1871.89,511l-432.66-3.54c-5.647884-.032909-10.213629-4.612044-10.23-10.26v-32c-.002657-2.769674,1.096415-5.426673,3.054871-7.385129s4.615455-3.057528,7.385129-3.054871h429.87c3.633466,0,7.118115,1.443389,9.687363,4.012637s4.012637,6.053897,4.012637,9.687363v31.54c-.01587,2.933308-1.196364,5.740166-3.281778,7.803075s-4.904915,3.212881-7.838222,3.196925Z" fill="#34447d"/><path d="M1429.55,355.69h451.45c12.150264,0,22,9.849736,22,22v64.8h-497.74v-62.49c-.005307-6.445573,2.551467-12.628969,7.107301-17.188554s10.737124-7.121448,17.182699-7.121446Z" fill="url(#eDv2thajPL065-fill)"/><path d="M1869.86,406.29l-227.81-2.16c-5.37-.05-9.69-3.59-9.69-7.95v-7.6c0-3.36,3.36-6.09,7.5-6.09h231.63c4.08,0,7.31,2.82,7,6.13l-1.09,12.05c-.29,3.2-3.59,5.66-7.54,5.62Z" fill="#f1835a"/><path d="M1785.22,493.75h-286c-1.9,0-3.44-2.42-3.44-5.41v-14.47c0-3,1.56-5.43,3.47-5.41l286,4c1.89,0,3.41,2.45,3.41,5.41v10.49c0,2.97-1.54,5.39-3.44,5.39Z" fill="url(#eDv2thajPL067-fill)"/><circle r="12.48" transform="matrix(.707107-.707107 0.707107 0.707107 1537.12359 390.837639)" fill="#27325b"/><circle r="12.48" transform="matrix(.22971-.973259 0.973259 0.22971 1493.872274 391.82088)" fill="#27325b"/><circle r="12.48" transform="matrix(.406896-.913474 0.913474 0.406896 1452.503162 391.914626)" fill="url(#eDv2thajPL070-fill)"/><path d="M1651,672.7L1443,671c-7-.06-12.69-3.51-12.66-7.72l1-124.66c0-4.13,5.56-7.47,12.46-7.51l205.36,3c8.7.13,15.67,4.43,15.62,9.63l-1.07,121.47c.03,4.19-5.71,7.55-12.71,7.49Z" fill="#34447d"/><path d="M1862.11,674.27l-171.76-1.43c-5.81,0-10.49-3.49-10.45-7.7l1-124.67c0-4.12,4.6-7.46,10.3-7.52l169.62,2.72c7.18.11,12.93,4.4,12.88,9.6l-1.06,121.47c.01,4.26-4.73,7.58-10.53,7.53Z" fill="#34447d"/><path d="M1865.57,815.69c-.018475,3.841113-1.565542,7.516806-4.299418,10.21503s-6.429557,4.196913-10.270582,4.16497l-401.46-2.93c-6.7-.15-12.08-8.45-12.08-18.63v-106c0-10.35,5.55-18.72,12.37-18.63l404,5.18c6.6.08,12,8.1,12.15,18.13Z" fill="#34447d"/><path d="M1763.32,501.48c3.708195-.459376,7.171212-2.096247,9.88-4.67l16.53,16.28c.454525.431622,1.062086.664697,1.688669.647813s1.220709-.282339,1.651331-.737813l.17-.17c.484429-.514092.731879-1.207296.682497-1.91194s-.391099-1.356559-.942497-1.79806l-18.2-14c3.183912-3.884398,4.630358-8.90718,4-13.89-1.401175-9.70869-10.377789-16.464849-20.095039-15.124332s-16.529338,10.274762-15.249532,20.000195s10.171335,16.593182,19.904571,15.374137Zm-15.22-16.4c-.763692-7.146862,4.386702-13.569253,11.52882-14.376103s13.595504,4.304656,14.445482,11.44177-4.222453,13.621259-11.354302,14.514333c-3.474732.405283-6.968042-.587465-9.710327-2.759535s-4.50855-5.34525-4.909673-8.820465Z" fill="url(#eDv2thajPL074-fill)"/><path d="M1846.83,710l-389.06-4c-2.19,0-4-.7-4-1.52l.07-9.22c0-.83,1.82-1.49,4-1.46L1847,698c2.18,0,3.94.7,3.94,1.52l-.06,9c-.01.83-1.83,1.48-4.05,1.48Z" fill="#f1835a"/><path d="M1845.7,732.25l-389.06-4c-2.19,0-4-.7-4-1.52l.06-9.22c0-.83,1.83-1.49,4-1.47l389.07,4.22c2.18,0,3.94.7,3.93,1.52l-.06,9c.1.84-1.72,1.49-3.94,1.47Z" fill="#f1835a"/><path d="M1845.55,754.52l-389.06-4c-2.19,0-4-.7-4-1.52l.07-9.22c0-.83,1.82-1.49,4-1.47l389.07,4.22c2.19,0,3.94.7,3.94,1.52l-.06,9c.08.84-1.74,1.49-3.96,1.47Z" fill="#f1835a"/><path d="M1845.55,776.79l-389.06-4c-2.19,0-4-.7-4-1.52l.07-9.22c0-.83,1.82-1.49,4-1.47l389.07,4.22c2.19,0,3.94.7,3.94,1.52l-.06,9c.08.84-1.74,1.49-3.96,1.47Z" fill="#f1835a"/><path d="M1845.55,798.69l-389.06-4c-2.19,0-4-.7-4-1.52l.07-9.22c0-.83,1.82-1.49,4-1.47l389.07,4.22c2.19,0,3.94.7,3.94,1.52l-.06,9c.08.84-1.74,1.5-3.96,1.47Z" fill="#f1835a"/><path d="M1667.18,820.14l-212.49-2.8c-1.19,0-2.15-.69-2.15-1.51l.07-9.22c0-.83,1-1.5,2.21-1.48l212.49,3c1.19,0,2.15.69,2.15,1.51l-.06,9c-.01.86-1,1.52-2.22,1.5Z" fill="#f1835a"/></g><g id="eDv2thajPL081" transform="translate(.000001-25.297642)"><path d="M863.85,22.59h454c12.38,0,22.35,12.5,22.12,27.73L1333.58,484c-.3,20.41-13.94,36.68-30.51,36.43l-439.71-6.8c-12.11-.18-21.85-12.33-21.85-27.25l.21-436.53c.01-15.08,9.92-27.26,22.13-27.26Z" fill="#27325b"/><path d="M877.49,69h419.19c1.768994,0,3.465535.70273,4.716402,1.953598s1.953598,2.947408,1.953598,4.716402v29.13c0,3.043089-2.466911,5.51-5.51,5.51h-420.67c-3.595374,0-6.51-2.914626-6.51-6.51v-28c.016517-3.760384,3.06958-6.800036,6.83-6.8Z" fill="url(#eDv2thajPL084-fill)"/><path d="M1268.31,97.71h-158.58c-2.62,1-4.74-1.37-4.74-4.26v-7.77c-.135968-2.75515,1.985056-5.099911,4.74-5.24h158.58c2.750967.145397,4.86607,2.488556,4.73,5.24v7.77c-.04,2.89-2.11,5.24-4.73,4.26Z" fill="#f1835a"/><path d="M1181.64,315.56c-.00539,10.857626-8.782486,19.670473-19.64,19.72l-276.17.56c-7.297456-.082391-13.14775-6.062493-13.07-13.36v-146.72c-.042845-3.536357,1.33411-6.94222,3.822628-9.455172s5.880765-3.923119,9.417372-3.914828l282.78,4.5c7.218898.190755,12.948995,6.139015,12.87,13.36Z" fill="url(#eDv2thajPL086-fill)"/><path d="M1146.29,496.17l-118.17-1c-3.990747-.03849-7.197747-3.299164-7.17-7.29l1-118.35c.037283-3.921056,3.189396-7.099768,7.11-7.17l116.69,2.21c4.943201.087638,8.890217,4.146277,8.84,9.09l-1,115.32c-.013207,1.921928-.790069,3.759734-2.159386,5.108419s-3.218707,2.097554-5.140614,2.081581Z" fill="#34447d"/><path d="M996,496.17l-118.16-1c-1.917536-.015847-3.750232-.792817-5.094882-2.159972s-2.091097-3.212493-2.075118-5.130028l1-118.35c.031896-3.919432,3.18107-7.099654,7.1-7.17l116.69,2.21c4.947127.082209,8.900161,4.142444,8.85,9.09l-1,115.32c-.010529,1.924514-.78792,3.76541-2.159993,5.114959s-3.225583,2.096365-5.150007,2.075041Z" fill="#34447d"/><path d="M1295.06,499l-118.17-1c-1.917536-.015847-3.750232-.792817-5.094882-2.159972s-2.091097-3.212493-2.075118-5.130028l1-118.35c.02673-3.919929,3.180434-7.100285,7.1-7.16l116.69,2.21c4.943201.087638,8.890217,4.146277,8.84,9.09l-1,115.32c-.03301,3.994665-3.295295,7.207725-7.29,7.18Z" fill="#34447d"/><path d="M1293.41,342.44h-85.41c-5.495491-.038469-9.930135-4.504374-9.93-10v-156.1c-.083962-4.55202,3.518788-8.319952,8.07-8.44l87.73-.49c5.326668.266663,9.506671,4.666665,9.5,10v155c.016601,5.518966-4.441053,10.007949-9.96,10.03Z" fill="#34447d"/><path d="M969.88,59.65c-7.444798,0-13.48-6.035202-13.48-13.48s6.035202-13.48,13.48-13.48s13.48,6.035202,13.48,13.48c-.011014,7.440231-6.039769,13.468986-13.48,13.48Zm0-25c-6.340229,0-11.48,5.139771-11.48,11.48s5.139771,11.48,11.48,11.48s11.48-5.139771,11.48-11.48c-.02751-6.322317-5.157625-11.434557-11.48-11.44Z" fill="url(#eDv2thajPL091-fill)"/><path d="M926.69,60.66c-7.444798,0-13.48-6.035202-13.48-13.48s6.035202-13.48,13.48-13.48s13.48,6.035202,13.48,13.48c-.005515,7.442513-6.037487,13.474485-13.48,13.48Zm0-25c-6.340229,0-11.48,5.139771-11.48,11.48s5.139771,11.48,11.48,11.48s11.48-5.139771,11.48-11.48c-.02751-6.322317-5.157625-11.434557-11.48-11.44Z" fill="url(#eDv2thajPL092-fill)"/><path d="M885.19,60.66c-7.444798,0-13.48-6.035202-13.48-13.48s6.035202-13.48,13.48-13.48s13.48,6.035202,13.48,13.48c-.005515,7.442513-6.037487,13.474485-13.48,13.48Zm0-25c-6.340229,0-11.48,5.139771-11.48,11.48s5.139771,11.48,11.48,11.48s11.48-5.139771,11.48-11.48c-.022037-6.324602-5.155359-11.440038-11.48-11.44Z" fill="url(#eDv2thajPL093-fill)"/><path d="M1033.6,278.17c-13.4695.008089-25.617391-8.098983-30.778486-20.540469s-2.318859-26.766904,7.201226-36.29557s23.842935-12.383809,36.289067-7.233926s20.564146,17.290464,20.568193,30.759965v0c-.005504,18.382614-14.897399,33.287933-33.28,33.31Zm0-64.62c-12.672709-.008089-24.102267,7.619007-28.958443,19.324355s-2.182485,25.183433,6.774183,34.148683s22.432187,11.651848,34.14218,6.806884s19.348033-16.267211,19.35208-28.939922v0c.000008-17.296895-14.013113-31.323443-31.31-31.34Z" fill="#f1835a"/><path d="M1024.41,261.6c-.934144-.004814-1.6978-.746399-1.73-1.68l-.78-29.39c-.029403-.96324.443934-1.872534,1.249829-2.400956s1.828508-.600017,2.700171-.189044l29,13.58c.976151.434157,1.615618,1.390977,1.643385,2.458962s-.561114,2.056742-1.513385,2.541038l-25.63,13.66c-.541541.393593-1.262256.437205-1.847306.111784s-.928123-.960743-.879351-1.628428.480528-1.246407,1.106657-1.483356l24.44-13-26.83-12.55.76,28.31c.016935.949632-.730776,1.7374-1.68,1.77Z" fill="#f1835a"/></g><g id="eDv2thajPL096" transform="translate(.000001 0.000002)"><path d="M556.1,924.34c32.73,75.28,119.4,115.53,177.41,114.92l15.8-24.4c-55.8-19-94.36-36.31-115.91-91.29-1.150955-3.000506-4.02635-4.986277-7.24-5h-66.29c-1.393343-.008686-2.695729.690862-3.457868,1.85732s-.879702,2.640146-.312132,3.91268Z" fill="#f1835a"/><path d="M713.44,1074.83l75.42-44c.720202-.419833,1.173614-1.180793,1.200033-2.014011s-.377875-1.621374-1.070033-2.085989l-51.06-34.12c-.943127-.627792-2.126766-.774976-3.194924-.397285s-1.896197,1.236187-2.235076,2.317285l-23.79,76.53c-.40393,1.278609.021486,2.673927,1.070061,3.509684s2.50363.939249,3.659939.260316Z" fill="#f1835a"/></g><g id="eDv2thajPL099" transform="translate(.000006 0.000015)"><path d="M569.91,206.45c36.34-73.62,124.86-109.62,182.77-106.19l14.6,25.13c-56.65,16.3-96,31.7-120.2,85.57-1.307884,2.922917-4.271222,4.74773-7.47,4.6l-66.21-3.21c-1.377395-.069527-2.6281-.825256-3.330256-2.012281s-.762149-2.64709-.159744-3.887719Z" fill="#f1835a"/><path d="M734.36,63.75L816.5,88.84c2.587315.792308,4.501888,2.982747,4.94089,5.652808s-.673456,5.358194-2.87089,6.937192l-63.74,45.62c-.971443.585542-2.162465.67755-3.212314.248157s-1.835018-1.329677-2.117686-2.428157l-20-77.59c-.307623-1.278728.185769-2.616808,1.249901-3.389726s2.489202-.828291,3.610099-.140274Z" fill="#f1835a"/></g><g id="eDv2thajPL0102" transform="translate(.000004 0.000007)"><path d="M1393.08,98.09c81.77-7.25,158.56,49.64,185.75,100.88L1565,224.51c-43.39-39.91-77-65.52-135.6-58.16-3.17862.402009-6.278651-1.185714-7.81-4l-31.69-58.22c-.656351-1.204659-.666713-2.657758-.027609-3.871655s1.842976-2.027714,3.207609-2.168345Z" fill="url(#eDv2thajPL0103-fill)"/><path d="M1600.48,164.34l21.3,83.21c.670239,2.621886-.206043,5.396928-2.260442,7.158448s-4.930663,2.204053-7.419558,1.141552l-72.1-30.7c-1.001869-.529835-1.695742-1.500526-1.872804-2.619952s.183362-2.256878.972804-3.070048L1594.92,162c.929871-.954668,2.349462-1.242577,3.577795-.725616s2.014829,1.73333,1.982205,3.065616Z" fill="url(#eDv2thajPL0104-fill)"/></g><g id="eDv2thajPL0105" transform="translate(.000002 0.000002)"><path d="M1286.74,937c82-4.25,150.07-71.31,169.83-125.86l-17.31-23.35c-37.38,45.58-67.09,75.64-126.14,76.55-3.189783.036816-6.032981,2.019521-7.17,5l-23.24,62.08c-.50367,1.29588-.316303,2.758713.497716,3.885816s2.143764,1.764886,3.532284,1.694184Z" fill="url(#eDv2thajPL0106-fill)"/><path d="M1482.85,842.43l-14.75-86c-.142849-.82412-.699492-1.516852-1.473531-1.833781s-1.656666-.213506-2.336469.273781l-49.85,35.85c-.918506.664002-1.470688,1.721784-1.490362,2.854994s.495458,2.209521,1.390362,2.905006l63.33,49.11c1.063426.832889,2.531994.918642,3.685131.215184s1.74886-2.048509,1.494869-3.375184Z" fill="url(#eDv2thajPL0107-fill)"/></g></g></g><script><![CDATA[!function(t,n){"object"==typeof exports&&"undefined"!=typeof module?module.exports=n():"function"==typeof define&&define.amd?define(n):((t="undefined"!=typeof globalThis?globalThis:t||self).__SVGATOR_PLAYER__=t.__SVGATOR_PLAYER__||{},t.__SVGATOR_PLAYER__["5c7f360c"]=n())}(this,(function(){"use strict";function t(t,n){var r=Object.keys(t);if(Object.getOwnPropertySymbols){var e=Object.getOwnPropertySymbols(t);n&&(e=e.filter((function(n){return Object.getOwnPropertyDescriptor(t,n).enumerable}))),r.push.apply(r,e)}return r}function n(n){for(var r=1;r<arguments.length;r++){var e=null!=arguments[r]?arguments[r]:{};r%2?t(Object(e),!0).forEach((function(t){u(n,t,e[t])})):Object.getOwnPropertyDescriptors?Object.defineProperties(n,Object.getOwnPropertyDescriptors(e)):t(Object(e)).forEach((function(t){Object.defineProperty(n,t,Object.getOwnPropertyDescriptor(e,t))}))}return n}function r(t){return(r="function"==typeof Symbol&&"symbol"==typeof Symbol.iterator?function(t){return typeof t}:function(t){return t&&"function"==typeof Symbol&&t.constructor===Symbol&&t!==Symbol.prototype?"symbol":typeof t})(t)}function e(t,n){if(!(t instanceof n))throw new TypeError("Cannot call a class as a function")}function i(t,n){for(var r=0;r<n.length;r++){var e=n[r];e.enumerable=e.enumerable||!1,e.configurable=!0,"value"in e&&(e.writable=!0),Object.defineProperty(t,e.key,e)}}function o(t,n,r){return n&&i(t.prototype,n),r&&i(t,r),t}function u(t,n,r){return n in t?Object.defineProperty(t,n,{value:r,enumerable:!0,configurable:!0,writable:!0}):t[n]=r,t}function a(t){return(a=Object.setPrototypeOf?Object.getPrototypeOf:function(t){return t.__proto__||Object.getPrototypeOf(t)})(t)}function l(t,n){return(l=Object.setPrototypeOf||function(t,n){return t.__proto__=n,t})(t,n)}function f(){if("undefined"==typeof Reflect||!Reflect.construct)return!1;if(Reflect.construct.sham)return!1;if("function"==typeof Proxy)return!0;try{return Boolean.prototype.valueOf.call(Reflect.construct(Boolean,[],(function(){}))),!0}catch(t){return!1}}function s(t,n,r){return(s=f()?Reflect.construct:function(t,n,r){var e=[null];e.push.apply(e,n);var i=new(Function.bind.apply(t,e));return r&&l(i,r.prototype),i}).apply(null,arguments)}function c(t,n){if(n&&("object"==typeof n||"function"==typeof n))return n;if(void 0!==n)throw new TypeError("Derived constructors may only return object or undefined");return function(t){if(void 0===t)throw new ReferenceError("this hasn't been initialised - super() hasn't been called");return t}(t)}function h(t,n,r){return(h="undefined"!=typeof Reflect&&Reflect.get?Reflect.get:function(t,n,r){var e=function(t,n){for(;!Object.prototype.hasOwnProperty.call(t,n)&&null!==(t=a(t)););return t}(t,n);if(e){var i=Object.getOwnPropertyDescriptor(e,n);return i.get?i.get.call(r):i.value}})(t,n,r||t)}function v(t){return function(t){if(Array.isArray(t))return y(t)}(t)||function(t){if("undefined"!=typeof Symbol&&null!=t[Symbol.iterator]||null!=t["@@iterator"])return Array.from(t)}(t)||function(t,n){if(!t)return;if("string"==typeof t)return y(t,n);var r=Object.prototype.toString.call(t).slice(8,-1);"Object"===r&&t.constructor&&(r=t.constructor.name);if("Map"===r||"Set"===r)return Array.from(t);if("Arguments"===r||/^(?:Ui|I)nt(?:8|16|32)(?:Clamped)?Array$/.test(r))return y(t,n)}(t)||function(){throw new TypeError("Invalid attempt to spread non-iterable instance.\nIn order to be iterable, non-array objects must have a [Symbol.iterator]() method.")}()}function y(t,n){(null==n||n>t.length)&&(n=t.length);for(var r=0,e=new Array(n);r<n;r++)e[r]=t[r];return e}Number.isInteger||(Number.isInteger=function(t){return"number"==typeof t&&isFinite(t)&&Math.floor(t)===t}),Number.EPSILON||(Number.EPSILON=2220446049250313e-31);var g=p(Math.pow(10,-6));function p(t){var n=arguments.length>1&&void 0!==arguments[1]?arguments[1]:6;if(Number.isInteger(t))return t;var r=Math.pow(10,n);return Math.round((+t+Number.EPSILON)*r)/r}function d(t,n){var r=arguments.length>2&&void 0!==arguments[2]?arguments[2]:g;return Math.abs(t-n)<r}var m=Math.PI/180;function b(t){return t}function w(t,n,r){var e=1-r;return 3*r*e*(t*e+n*r)+r*r*r}function x(){var t=arguments.length>0&&void 0!==arguments[0]?arguments[0]:0,n=arguments.length>1&&void 0!==arguments[1]?arguments[1]:0,r=arguments.length>2&&void 0!==arguments[2]?arguments[2]:1,e=arguments.length>3&&void 0!==arguments[3]?arguments[3]:1;return t<0||t>1||r<0||r>1?null:d(t,n)&&d(r,e)?b:function(i){if(i<=0)return t>0?i*n/t:0===n&&r>0?i*e/r:0;if(i>=1)return r<1?1+(i-1)*(e-1)/(r-1):1===r&&t<1?1+(i-1)*(n-1)/(t-1):1;for(var o,u=0,a=1;u<a;){var l=w(t,r,o=(u+a)/2);if(d(i,l))break;l<i?u=o:a=o}return w(n,e,o)}}function A(){return 1}function k(t){return 1===t?1:0}function _(){var t=arguments.length>0&&void 0!==arguments[0]?arguments[0]:1,n=arguments.length>1&&void 0!==arguments[1]?arguments[1]:0;if(1===t){if(0===n)return k;if(1===n)return A}var r=1/t;return function(t){return t>=1?1:(t+=n*r)-t%r}}var S=Math.sin,O=Math.cos,j=Math.acos,M=Math.asin,P=Math.tan,E=Math.atan2,I=Math.PI/180,R=180/Math.PI,F=Math.sqrt,N=function(){function t(){var n=arguments.length>0&&void 0!==arguments[0]?arguments[0]:1,r=arguments.length>1&&void 0!==arguments[1]?arguments[1]:0,i=arguments.length>2&&void 0!==arguments[2]?arguments[2]:0,o=arguments.length>3&&void 0!==arguments[3]?arguments[3]:1,u=arguments.length>4&&void 0!==arguments[4]?arguments[4]:0,a=arguments.length>5&&void 0!==arguments[5]?arguments[5]:0;e(this,t),this.m=[n,r,i,o,u,a],this.i=null,this.w=null,this.s=null}return o(t,[{key:"determinant",get:function(){var t=this.m;return t[0]*t[3]-t[1]*t[2]}},{key:"isIdentity",get:function(){if(null===this.i){var t=this.m;this.i=1===t[0]&&0===t[1]&&0===t[2]&&1===t[3]&&0===t[4]&&0===t[5]}return this.i}},{key:"point",value:function(t,n){var r=this.m;return{x:r[0]*t+r[2]*n+r[4],y:r[1]*t+r[3]*n+r[5]}}},{key:"translateSelf",value:function(){var t=arguments.length>0&&void 0!==arguments[0]?arguments[0]:0,n=arguments.length>1&&void 0!==arguments[1]?arguments[1]:0;if(!t&&!n)return this;var r=this.m;return r[4]+=r[0]*t+r[2]*n,r[5]+=r[1]*t+r[3]*n,this.w=this.s=this.i=null,this}},{key:"rotateSelf",value:function(){var t=arguments.length>0&&void 0!==arguments[0]?arguments[0]:0;if(t%=360){var n=S(t*=I),r=O(t),e=this.m,i=e[0],o=e[1];e[0]=i*r+e[2]*n,e[1]=o*r+e[3]*n,e[2]=e[2]*r-i*n,e[3]=e[3]*r-o*n,this.w=this.s=this.i=null}return this}},{key:"scaleSelf",value:function(){var t=arguments.length>0&&void 0!==arguments[0]?arguments[0]:1,n=arguments.length>1&&void 0!==arguments[1]?arguments[1]:1;if(1!==t||1!==n){var r=this.m;r[0]*=t,r[1]*=t,r[2]*=n,r[3]*=n,this.w=this.s=this.i=null}return this}},{key:"skewSelf",value:function(t,n){if(n%=360,(t%=360)||n){var r=this.m,e=r[0],i=r[1],o=r[2],u=r[3];t&&(t=P(t*I),r[2]+=e*t,r[3]+=i*t),n&&(n=P(n*I),r[0]+=o*n,r[1]+=u*n),this.w=this.s=this.i=null}return this}},{key:"resetSelf",value:function(){var t=arguments.length>0&&void 0!==arguments[0]?arguments[0]:1,n=arguments.length>1&&void 0!==arguments[1]?arguments[1]:0,r=arguments.length>2&&void 0!==arguments[2]?arguments[2]:0,e=arguments.length>3&&void 0!==arguments[3]?arguments[3]:1,i=arguments.length>4&&void 0!==arguments[4]?arguments[4]:0,o=arguments.length>5&&void 0!==arguments[5]?arguments[5]:0,u=this.m;return u[0]=t,u[1]=n,u[2]=r,u[3]=e,u[4]=i,u[5]=o,this.w=this.s=this.i=null,this}},{key:"recomposeSelf",value:function(){var t=arguments.length>0&&void 0!==arguments[0]?arguments[0]:null,n=arguments.length>1&&void 0!==arguments[1]?arguments[1]:null,r=arguments.length>2&&void 0!==arguments[2]?arguments[2]:null,e=arguments.length>3&&void 0!==arguments[3]?arguments[3]:null,i=arguments.length>4&&void 0!==arguments[4]?arguments[4]:null;return this.isIdentity||this.resetSelf(),t&&(t.x||t.y)&&this.translateSelf(t.x,t.y),n&&this.rotateSelf(n),r&&(r.x&&this.skewSelf(r.x,0),r.y&&this.skewSelf(0,r.y)),!e||1===e.x&&1===e.y||this.scaleSelf(e.x,e.y),i&&(i.x||i.y)&&this.translateSelf(i.x,i.y),this}},{key:"decompose",value:function(){var t=arguments.length>0&&void 0!==arguments[0]?arguments[0]:0,n=arguments.length>1&&void 0!==arguments[1]?arguments[1]:0,r=this.m,e=r[0]*r[0]+r[1]*r[1],i=[[r[0],r[1]],[r[2],r[3]]],o=F(e);if(0===o)return{origin:{x:p(r[4]),y:p(r[5])},translate:{x:p(t),y:p(n)},scale:{x:0,y:0},skew:{x:0,y:0},rotate:0};i[0][0]/=o,i[0][1]/=o;var u=r[0]*r[3]-r[1]*r[2]<0;u&&(o=-o);var a=i[0][0]*i[1][0]+i[0][1]*i[1][1];i[1][0]-=i[0][0]*a,i[1][1]-=i[0][1]*a;var l=F(i[1][0]*i[1][0]+i[1][1]*i[1][1]);if(0===l)return{origin:{x:p(r[4]),y:p(r[5])},translate:{x:p(t),y:p(n)},scale:{x:p(o),y:0},skew:{x:0,y:0},rotate:0};i[1][0]/=l,i[1][1]/=l,a/=l;var f=0;return i[1][1]<0?(f=j(i[1][1])*R,i[0][1]<0&&(f=360-f)):f=M(i[0][1])*R,u&&(f=-f),a=E(a,F(i[0][0]*i[0][0]+i[0][1]*i[0][1]))*R,u&&(a=-a),{origin:{x:p(r[4]),y:p(r[5])},translate:{x:p(t),y:p(n)},scale:{x:p(o),y:p(l)},skew:{x:p(a),y:0},rotate:p(f)}}},{key:"clone",value:function(){var t=this.m;return new this.constructor(t[0],t[1],t[2],t[3],t[4],t[5])}},{key:"toString",value:function(){var t=arguments.length>0&&void 0!==arguments[0]?arguments[0]:" ";if(null===this.s){var n=this.m.map((function(t){return p(t)}));1===n[0]&&0===n[1]&&0===n[2]&&1===n[3]?this.s="translate("+n[4]+t+n[5]+")":this.s="matrix("+n.join(t)+")"}return this.s}}],[{key:"create",value:function(t){return t?Array.isArray(t)?s(this,v(t)):t instanceof this?t.clone():(new this).recomposeSelf(t.origin,t.rotate,t.skew,t.scale,t.translate):new this}}]),t}();function T(t,n,r){return t>=.5?r:n}function q(t,n,r){return 0===t||n===r?n:t*(r-n)+n}function B(t,n,r){var e=q(t,n,r);return e<=0?0:e}function L(t,n,r){var e=q(t,n,r);return e<=0?0:e>=1?1:e}function C(t,n,r){return 0===t?n:1===t?r:{x:q(t,n.x,r.x),y:q(t,n.y,r.y)}}function D(t,n,r){var e=function(t,n,r){return Math.round(q(t,n,r))}(t,n,r);return e<=0?0:e>=255?255:e}function z(t,n,r){return 0===t?n:1===t?r:{r:D(t,n.r,r.r),g:D(t,n.g,r.g),b:D(t,n.b,r.b),a:q(t,null==n.a?1:n.a,null==r.a?1:r.a)}}function V(t,n){for(var r=[],e=0;e<t;e++)r.push(n);return r}function G(t,n){if(--n<=0)return t;var r=(t=Object.assign([],t)).length;do{for(var e=0;e<r;e++)t.push(t[e])}while(--n>0);return t}var Y,$=function(){function t(n){e(this,t),this.list=n,this.length=n.length}return o(t,[{key:"setAttribute",value:function(t,n){for(var r=this.list,e=0;e<this.length;e++)r[e].setAttribute(t,n)}},{key:"removeAttribute",value:function(t){for(var n=this.list,r=0;r<this.length;r++)n[r].removeAttribute(t)}},{key:"style",value:function(t,n){for(var r=this.list,e=0;e<this.length;e++)r[e].style[t]=n}}]),t}(),U=/-./g,Q=function(t,n){return n.toUpperCase()};function H(t){return"function"==typeof t?t:T}function J(t){return t?"function"==typeof t?t:Array.isArray(t)?function(t){var n=arguments.length>1&&void 0!==arguments[1]?arguments[1]:b;if(!Array.isArray(t))return n;switch(t.length){case 1:return _(t[0])||n;case 2:return _(t[0],t[1])||n;case 4:return x(t[0],t[1],t[2],t[3])||n}return n}(t,null):function(t,n){var r=arguments.length>2&&void 0!==arguments[2]?arguments[2]:b;switch(t){case"linear":return b;case"steps":return _(n.steps||1,n.jump||0)||r;case"bezier":case"cubic-bezier":return x(n.x1||0,n.y1||0,n.x2||0,n.y2||0)||r}return r}(t.type,t.value,null):null}function Z(t,n,r){var e=arguments.length>3&&void 0!==arguments[3]&&arguments[3],i=n.length-1;if(t<=n[0].t)return e?[0,0,n[0].v]:n[0].v;if(t>=n[i].t)return e?[i,1,n[i].v]:n[i].v;var o,u=n[0],a=null;for(o=1;o<=i;o++){if(!(t>n[o].t)){a=n[o];break}u=n[o]}return null==a?e?[i,1,n[i].v]:n[i].v:u.t===a.t?e?[o,1,a.v]:a.v:(t=(t-u.t)/(a.t-u.t),u.e&&(t=u.e(t)),e?[o,t,r(t,u.v,a.v)]:r(t,u.v,a.v))}function K(t,n){var r=arguments.length>2&&void 0!==arguments[2]?arguments[2]:null;return t&&t.length?"function"!=typeof n?null:("function"!=typeof r&&(r=null),function(e){var i=Z(e,t,n);return null!=i&&r&&(i=r(i)),i}):null}function W(t,n){return t.t-n.t}function X(t,n,e,i,o){var u,a="@"===e[0],l="#"===e[0],f=Y[e],s=T;switch(a?(u=e.substr(1),e=u.replace(U,Q)):l&&(e=e.substr(1)),r(f)){case"function":if(s=f(i,o,Z,J,e,a,n,t),l)return s;break;case"string":s=K(i,H(f));break;case"object":if((s=K(i,H(f.i),f.f))&&"function"==typeof f.u)return f.u(n,s,e,a,t)}return s?function(t,n,r){if(arguments.length>3&&void 0!==arguments[3]&&arguments[3])return t instanceof $?function(e){return t.style(n,r(e))}:function(e){return t.style[n]=r(e)};if(Array.isArray(n)){var e=n.length;return function(i){var o=r(i);if(null==o)for(var u=0;u<e;u++)t[u].removeAttribute(n);else for(var a=0;a<e;a++)t[a].setAttribute(n,o)}}return function(e){var i=r(e);null==i?t.removeAttribute(n):t.setAttribute(n,i)}}(n,e,s,a):null}function tt(t,n,e,i){if(!i||"object"!==r(i))return null;var o=null,u=null;return Array.isArray(i)?u=function(t){if(!t||!t.length)return null;for(var n=0;n<t.length;n++)t[n].e&&(t[n].e=J(t[n].e));return t.sort(W)}(i):(u=i.keys,o=i.data||null),u?X(t,n,e,u,o):null}function nt(t,n,r){if(!r)return null;var e=[];for(var i in r)if(r.hasOwnProperty(i)){var o=tt(t,n,i,r[i]);o&&e.push(o)}return e.length?e:null}function rt(t,n){if(!n.duration||n.duration<0)return null;var r=function(t,n){if(!n)return null;var r=[];if(Array.isArray(n))for(var e=n.length,i=0;i<e;i++){var o=n[i];if(2===o.length){var u=null;if("string"==typeof o[0])u=t.getElementById(o[0]);else if(Array.isArray(o[0])){u=[];for(var a=0;a<o[0].length;a++)if("string"==typeof o[0][a]){var l=t.getElementById(o[0][a]);l&&u.push(l)}u=u.length?1===u.length?u[0]:new $(u):null}if(u){var f=nt(t,u,o[1]);f&&(r=r.concat(f))}}}else for(var s in n)if(n.hasOwnProperty(s)){var c=t.getElementById(s);if(c){var h=nt(t,c,n[s]);h&&(r=r.concat(h))}}return r.length?r:null}(t,n.elements);return r?function(t,n){var r=arguments.length>2&&void 0!==arguments[2]?arguments[2]:1/0,e=arguments.length>3&&void 0!==arguments[3]?arguments[3]:1,i=arguments.length>4&&void 0!==arguments[4]&&arguments[4],o=arguments.length>5&&void 0!==arguments[5]?arguments[5]:1,u=t.length,a=e>0?n:0;i&&r%2==0&&(a=n-a);var l=null;return function(f,s){var c=f%n,h=1+(f-c)/n;s*=e,i&&h%2==0&&(s=-s);var v=!1;if(h>r)c=a,v=!0,-1===o&&(c=e>0?0:n);else if(s<0&&(c=n-c),c===l)return!1;l=c;for(var y=0;y<u;y++)t[y](c);return v}}(r,n.duration,n.iterations||1/0,n.direction||1,!!n.alternate,n.fill||1):null}function et(t){return+("0x"+(t.replace(/[^0-9a-fA-F]+/g,"")||27))}function it(t,n,r){return!t||!r||n>t.length?t:t.substring(0,n)+it(t.substring(n+1),r,r)}function ot(t){var n=arguments.length>1&&void 0!==arguments[1]?arguments[1]:27;return!t||t%n?t%n:ot(t/n,n)}function ut(t,n,r){if(t&&t.length){var e=et(r),i=et(n),o=ot(e)+5,u=it(t,ot(e,5),o);return u=u.replace(/\x7c$/g,"==").replace(/\x2f$/g,"="),u=function(t,n,r){var e=+("0x"+t.substring(0,4));t=t.substring(4);for(var i=n%e+r%27,o=[],u=0;u<t.length;u+=2)if("|"!==t[u]){var a=+("0x"+t[u]+t[u+1])-i;o.push(a)}else{var l=+("0x"+t.substring(u+1,u+1+4))-i;u+=3,o.push(l)}return String.fromCharCode.apply(String,o)}(u=(u=atob(u)).replace(/[\x41-\x5A]/g,""),i,e),u=JSON.parse(u)}}var at=function(){function t(n,r){var i=arguments.length>2&&void 0!==arguments[2]?arguments[2]:{};e(this,t),this._id=0,this._running=!1,this._rollingBack=!1,this._animations=n,this.duration=r.duration,this.alternate=r.alternate,this.fill=r.fill,this.iterations=r.iterations,this.direction=i.direction||1,this.speed=i.speed||1,this.fps=i.fps||100,this.offset=i.offset||0,this.rollbackStartOffset=0}return o(t,[{key:"maxFiniteDuration",get:function(){return this.iterations>0?this.iterations*this.duration:this.duration}},{key:"_apply",value:function(t){for(var n=arguments.length>1&&void 0!==arguments[1]?arguments[1]:{},r=this._animations,e=r.length,i=0,o=0;o<e;o++)n[o]?i++:(n[o]=r[o](t,this.direction),n[o]&&i++);return i}},{key:"_rollback",value:function(){var t=this,n=1/0,r=null;this.rollbackStartOffset=this.offset,this._rollingBack=!0,this._running=!0;this._id=window.requestAnimationFrame((function e(i){if(t._rollingBack){null==r&&(r=i);var o=i-r,u=t.rollbackStartOffset-o,a=Math.round(u*t.speed);if(a>t.duration&&n!==1/0){var l=!!t.alternate&&a/t.duration%2>1,f=a%t.duration;a=(f+=l?t.duration:0)||t.duration}var s=t.fps?1e3/t.fps:0,c=Math.max(0,a);c<n-s&&(t.offset=c,n=c,t._apply(c));var h=t.iterations>0&&-1===t.fill&&a>=t.maxFiniteDuration;(a<=0||t.offset<a||h)&&t.stop(),t._id=window.requestAnimationFrame(e)}}))}},{key:"_start",value:function(){var t=this,n=arguments.length>0&&void 0!==arguments[0]?arguments[0]:0,r=-1/0,e=null,i={};this._running=!0;var o=function o(u){null==e&&(e=u);var a=Math.round((u-e+n)*t.speed),l=t.fps?1e3/t.fps:0;if(a>r+l&&!t._rollingBack&&(t.offset=a,r=a,t._apply(a,i)===t._animations.length))return void t.pause(!0);t._id=window.requestAnimationFrame(o)};this._id=window.requestAnimationFrame(o)}},{key:"_pause",value:function(){this._id&&window.cancelAnimationFrame(this._id),this._running=!1}},{key:"play",value:function(){if(!this._running)return this._rollingBack?this._rollback():this._start(this.offset)}},{key:"stop",value:function(){this._pause(),this.offset=0,this.rollbackStartOffset=0,this._rollingBack=!1,this._apply(0)}},{key:"reachedToEnd",value:function(){return this.iterations>0&&this.offset>=this.iterations*this.duration}},{key:"restart",value:function(){var t=arguments.length>0&&void 0!==arguments[0]&&arguments[0];this.stop(t),this.play(t)}},{key:"pause",value:function(){this._pause()}},{key:"reverse",value:function(){this.direction=-this.direction}}],[{key:"build",value:function(t,r){return delete t.animationSettings,t.options=ut(t.options,t.root,"5c7f360c"),t.animations.map((function(r){var e=ut(r.s,t.root,"5c7f360c");for(var i in delete r.s,t.animationSettings||(t.animationSettings=n({},e)),e)e.hasOwnProperty(i)&&(r[i]=e[i])})),(t=function(t,n){if(Y=n,!t||!t.root||!Array.isArray(t.animations))return null;for(var r=document.getElementsByTagName("svg"),e=!1,i=0;i<r.length;i++)if(r[i].id===t.root&&!r[i].svgatorAnimation){(e=r[i]).svgatorAnimation=!0;break}if(!e)return null;var o=t.animations.map((function(t){return rt(e,t)})).filter((function(t){return!!t}));return o.length?{element:e,animations:o,animationSettings:t.animationSettings,options:t.options||void 0}:null}(t,r))?{el:t.element,options:t.options||{},player:new this(t.animations,t.animationSettings,t.options)}:null}},{key:"push",value:function(t){return this.build(t)}},{key:"init",value:function(){var t=this,n=window.__SVGATOR_PLAYER__&&window.__SVGATOR_PLAYER__["5c7f360c"];Array.isArray(n)&&n.splice(0).forEach((function(n){return t.build(n)}))}}]),t}();function lt(t){return p(t)+""}function ft(t){var n=arguments.length>1&&void 0!==arguments[1]?arguments[1]:" ";return t&&t.length?t.map(lt).join(n):""}function st(t){if(!t)return"transparent";if(null==t.a||t.a>=1){var n=function(t){return 1===(t=parseInt(t).toString(16)).length?"0"+t:t},r=function(t){return t.charAt(0)===t.charAt(1)},e=n(t.r),i=n(t.g),o=n(t.b);return r(e)&&r(i)&&r(o)&&(e=e.charAt(0),i=i.charAt(0),o=o.charAt(0)),"#"+e+i+o}return"rgba("+t.r+","+t.g+","+t.b+","+t.a+")"}function ct(t){return t?"url(#"+t+")":"none"}!function(){for(var t=0,n=["ms","moz","webkit","o"],r=0;r<n.length&&!window.requestAnimationFrame;++r)window.requestAnimationFrame=window[n[r]+"RequestAnimationFrame"],window.cancelAnimationFrame=window[n[r]+"CancelAnimationFrame"]||window[n[r]+"CancelRequestAnimationFrame"];window.requestAnimationFrame||(window.requestAnimationFrame=function(n){var r=Date.now(),e=Math.max(0,16-(r-t)),i=window.setTimeout((function(){n(r+e)}),e);return t=r+e,i},window.cancelAnimationFrame=window.clearTimeout)}();var ht={f:null,i:function(t,n,r){return 0===t?n:1===t?r:{x:B(t,n.x,r.x),y:B(t,n.y,r.y)}},u:function(t,n){return function(r){var e=n(r);t.setAttribute("rx",lt(e.x)),t.setAttribute("ry",lt(e.y))}}},vt={f:null,i:function(t,n,r){return 0===t?n:1===t?r:{width:B(t,n.width,r.width),height:B(t,n.height,r.height)}},u:function(t,n){return function(r){var e=n(r);t.setAttribute("width",lt(e.width)),t.setAttribute("height",lt(e.height))}}};Object.freeze({M:2,L:2,Z:0,H:1,V:1,C:6,Q:4,T:2,S:4,A:7});var yt={},gt=null;function pt(t){var n=function(){if(gt)return gt;if("object"!==("undefined"==typeof document?"undefined":r(document))||!document.createElementNS)return{};var t=document.createElementNS("http://www.w3.org/2000/svg","svg");return t&&t.style?(t.style.position="absolute",t.style.opacity="0.01",t.style.zIndex="-9999",t.style.left="-9999px",t.style.width="1px",t.style.height="1px",gt={svg:t}):{}}().svg;if(!n)return function(t){return null};var e=document.createElementNS(n.namespaceURI,"path");e.setAttributeNS(null,"d",t),e.setAttributeNS(null,"fill","none"),e.setAttributeNS(null,"stroke","none"),n.appendChild(e);var i=e.getTotalLength();return function(t){var n=e.getPointAtLength(i*t);return{x:n.x,y:n.y}}}function dt(t){return yt[t]?yt[t]:yt[t]=pt(t)}function mt(t,n,r,e){if(!t||!e)return!1;var i=["M",t.x,t.y];if(n&&r&&(i.push("C"),i.push(n.x),i.push(n.y),i.push(r.x),i.push(r.y)),n?!r:r){var o=n||r;i.push("Q"),i.push(o.x),i.push(o.y)}return n||r||i.push("L"),i.push(e.x),i.push(e.y),i.join(" ")}function bt(t,n,r,e){var i=arguments.length>4&&void 0!==arguments[4]?arguments[4]:1,o=mt(t,n,r,e),u=dt(o);try{return u(i)}catch(t){return null}}function wt(t,n,r){return t+(n-t)*r}function xt(t,n,r){var e=arguments.length>3&&void 0!==arguments[3]&&arguments[3],i={x:wt(t.x,n.x,r),y:wt(t.y,n.y,r)};return e&&(i.a=At(t,n)),i}function At(t,n){return Math.atan2(n.y-t.y,n.x-t.x)}function kt(t,n,r,e){var i=1-e;return i*i*t+2*i*e*n+e*e*r}function _t(t,n,r,e){return 2*(1-e)*(n-t)+2*e*(r-n)}function St(t,n,r,e){var i=arguments.length>4&&void 0!==arguments[4]&&arguments[4],o=bt(t,n,null,r,e);return o||(o={x:kt(t.x,n.x,r.x,e),y:kt(t.y,n.y,r.y,e)}),i&&(o.a=Ot(t,n,r,e)),o}function Ot(t,n,r,e){return Math.atan2(_t(t.y,n.y,r.y,e),_t(t.x,n.x,r.x,e))}function jt(t,n,r,e,i){var o=i*i;return i*o*(e-t+3*(n-r))+3*o*(t+r-2*n)+3*i*(n-t)+t}function Mt(t,n,r,e,i){var o=1-i;return 3*(o*o*(n-t)+2*o*i*(r-n)+i*i*(e-r))}function Pt(t,n,r,e,i){var o=arguments.length>5&&void 0!==arguments[5]&&arguments[5],u=bt(t,n,r,e,i);return u||(u={x:jt(t.x,n.x,r.x,e.x,i),y:jt(t.y,n.y,r.y,e.y,i)}),o&&(u.a=Et(t,n,r,e,i)),u}function Et(t,n,r,e,i){return Math.atan2(Mt(t.y,n.y,r.y,e.y,i),Mt(t.x,n.x,r.x,e.x,i))}function It(t,n,r){var e=arguments.length>3&&void 0!==arguments[3]&&arguments[3];if(Ft(n)){if(Nt(r))return St(n,r.start,r,t,e)}else if(Ft(r)){if(n.end)return St(n,n.end,r,t,e)}else{if(n.end)return r.start?Pt(n,n.end,r.start,r,t,e):St(n,n.end,r,t,e);if(r.start)return St(n,r.start,r,t,e)}return xt(n,r,t,e)}function Rt(t,n,r){var e=It(t,n,r,!0);return e.a=function(t){return arguments.length>1&&void 0!==arguments[1]&&arguments[1]?t+Math.PI:t}(e.a)/m,e}function Ft(t){return!t.type||"corner"===t.type}function Nt(t){return null!=t.start&&!Ft(t)}var Tt=new N;var qt={f:lt,i:q},Bt={f:lt,i:L};function Lt(t,n,r){return t.map((function(t){return function(t,n,r){var e=t.v;if(!e||"g"!==e.t||e.s||!e.v||!e.r)return t;var i=r.getElementById(e.r),o=i&&i.querySelectorAll("stop")||[];return e.s=e.v.map((function(t,n){var r=o[n]&&o[n].getAttribute("offset");return{c:t,o:r=p(parseInt(r)/100)}})),delete e.v,t}(t,0,r)}))}var Ct={gt:"gradientTransform",c:{x:"cx",y:"cy"},rd:"r",f:{x:"x1",y:"y1"},to:{x:"x2",y:"y2"}};function Dt(t,n,e,i,o,u,a,l){return Lt(t,0,l),n=function(t,n,r){for(var e,i,o,u=t.length-1,a={},l=0;l<=u;l++)(e=t[l]).e&&(e.e=n(e.e)),e.v&&"g"===(i=e.v).t&&i.r&&(o=r.getElementById(i.r))&&(a[i.r]={e:o,s:o.querySelectorAll("stop")});return a}(t,i,l),function(i){var o=e(i,t,zt);if(!o)return"none";if("c"===o.t)return st(o.v);if("g"===o.t){if(!n[o.r])return ct(o.r);var u=n[o.r];return function(t,n){for(var r=t.s,e=r.length;e<n.length;e++){var i=r[r.length-1].cloneNode();i.id=Yt(i.id),t.e.appendChild(i),r=t.s=t.e.querySelectorAll("stop")}for(var o=0,u=r.length,a=n.length-1;o<u;o++)r[o].setAttribute("stop-color",st(n[Math.min(o,a)].c)),r[o].setAttribute("offset",n[Math.min(o,a)].o)}(u,o.s),Object.keys(Ct).forEach((function(t){if(void 0!==o[t])if("object"!==r(Ct[t])){var n,e="gt"===t?(n=o[t],Array.isArray(n)?"matrix("+n.join(" ")+")":""):o[t],i=Ct[t];u.e.setAttribute(i,e)}else Object.keys(Ct[t]).forEach((function(n){if(void 0!==o[t][n]){var r=o[t][n],e=Ct[t][n];u.e.setAttribute(e,r)}}))})),ct(o.r)}return"none"}}function zt(t,r,e){if(0===t)return r;if(1===t)return e;if(r&&e){var i=r.t;if(i===e.t)switch(r.t){case"c":return{t:i,v:z(t,r.v,e.v)};case"g":if(r.r===e.r){var o={t:i,s:Vt(t,r.s,e.s),r:r.r};return r.gt&&e.gt&&(o.gt=function(t,n,r){var e=n.length;if(e!==r.length)return T(t,n,r);for(var i=new Array(e),o=0;o<e;o++)i[o]=q(t,n[o],r[o]);return i}(t,r.gt,e.gt)),r.c?(o.c=C(t,r.c,e.c),o.rd=B(t,r.rd,e.rd)):r.f&&(o.f=C(t,r.f,e.f),o.to=C(t,r.to,e.to)),o}}if("c"===r.t&&"g"===e.t||"c"===e.t&&"g"===r.t){var u="c"===r.t?r:e,a="g"===r.t?n({},r):n({},e),l=a.s.map((function(t){return{c:u.v,o:t.o}}));return a.s="c"===r.t?Vt(t,l,a.s):Vt(t,a.s,l),a}}return T(t,r,e)}function Vt(t,n,r){if(n.length===r.length)return n.map((function(n,e){return Gt(t,n,r[e])}));for(var e=Math.max(n.length,r.length),i=[],o=0;o<e;o++){var u=Gt(t,n[Math.min(o,n.length-1)],r[Math.min(o,r.length-1)]);i.push(u)}return i}function Gt(t,n,r){return{o:L(t,n.o,r.o||0),c:z(t,n.c,r.c||{})}}function Yt(t){return t.replace(/-fill-([0-9]+)$/,(function(t,n){return"-fill-"+(+n+1)}))}var $t={fill:Dt,"fill-opacity":Bt,stroke:Dt,"stroke-opacity":Bt,"stroke-width":qt,"stroke-dashoffset":{f:lt,i:q},"stroke-dasharray":{f:function(t){var n=arguments.length>1&&void 0!==arguments[1]?arguments[1]:" ";return t&&t.length>0&&(t=t.map((function(t){return p(t,4)}))),ft(t,n)},i:function(t,n,r){var e,i,o,u=n.length,a=r.length;if(u!==a)if(0===u)n=V(u=a,0);else if(0===a)a=u,r=V(u,0);else{var l=(o=(e=u)*(i=a)/function(t,n){for(var r;n;)r=n,n=t%n,t=r;return t||1}(e,i))<0?-o:o;n=G(n,Math.floor(l/u)),r=G(r,Math.floor(l/a)),u=a=l}for(var f=[],s=0;s<u;s++)f.push(p(B(t,n[s],r[s])));return f}},opacity:Bt,transform:function(t,n,e,i){if(!(t=function(t,n){if(!t||"object"!==r(t))return null;var e=!1;for(var i in t)t.hasOwnProperty(i)&&(t[i]&&t[i].length?(t[i].forEach((function(t){t.e&&(t.e=n(t.e))})),e=!0):delete t[i]);return e?t:null}(t,i)))return null;var o=function(r,i,o){var u=arguments.length>3&&void 0!==arguments[3]?arguments[3]:null;return t[r]?e(i,t[r],o):n&&n[r]?n[r]:u};return n&&n.a&&t.o?function(n){var r=e(n,t.o,Rt);return Tt.recomposeSelf(r,o("r",n,q,0)+r.a,o("k",n,C),o("s",n,C),o("t",n,C)).toString()}:function(t){return Tt.recomposeSelf(o("o",t,It,null),o("r",t,q,0),o("k",t,C),o("s",t,C),o("t",t,C)).toString()}},r:qt,"#size":vt,"#radius":ht,_:function(t,n){if(Array.isArray(t))for(var r=0;r<t.length;r++)this[t[r]]=n;else this[t]=n}},Ut=function(t){!function(t,n){if("function"!=typeof n&&null!==n)throw new TypeError("Super expression must either be null or a function");t.prototype=Object.create(n&&n.prototype,{constructor:{value:t,writable:!0,configurable:!0}}),n&&l(t,n)}(u,t);var n,r,i=(n=u,r=f(),function(){var t,e=a(n);if(r){var i=a(this).constructor;t=Reflect.construct(e,arguments,i)}else t=e.apply(this,arguments);return c(this,t)});function u(){return e(this,u),i.apply(this,arguments)}return o(u,null,[{key:"build",value:function(t){var n=h(a(u),"build",this).call(this,t,$t);if(!n)return null;n.el,n.options,function(t,n,r){t.play()}(n.player)}}]),u}(at);return Ut.init(),Ut}));
(function(s,i,o,w,a,b){w[o]=w[o]||{};w[o][s]=w[o][s]||[];w[o][s].push(i);})('5c7f360c',{"root":"eDv2thajPL01","animations":[{"elements":{"eDv2thajPL010":{"transform":{"data":{"o":{"x":1934.3443,"y":835.243592,"type":"corner"},"t":{"x":-1934.344299,"y":-835.243592}},"keys":{"r":[{"t":0,"v":720},{"t":10000,"v":0}]}}},"eDv2thajPL020":{"transform":{"data":{"o":{"x":220.814987,"y":217.999245,"type":"corner"},"t":{"x":-220.814987,"y":-217.999244}},"keys":{"r":[{"t":0,"v":0},{"t":10000,"v":720}]}}},"eDv2thajPL033":{"transform":{"data":{"t":{"x":-498.082123,"y":-610.551758}},"keys":{"o":[{"t":0,"v":{"x":291.982117,"y":605.241744,"type":"corner"}},{"t":1000,"v":{"x":498.079162,"y":610.68,"type":"corner"}},{"t":1300,"v":{"x":483.490453,"y":610.68,"type":"corner"}}]}}},"eDv2thajPL044":{"transform":{"data":{"t":{"x":-1090.672729,"y":-845.461609}},"keys":{"o":[{"t":1100,"v":{"x":1126.722753,"y":1011.119823,"type":"corner"}},{"t":2100,"v":{"x":1087.005001,"y":842,"type":"corner"}},{"t":2400,"v":{"x":1090.67273,"y":845.461609,"type":"corner"}}]}}},"eDv2thajPL061":{"transform":{"data":{"t":{"x":-1653.437561,"y":-605.291595}},"keys":{"o":[{"t":1700,"v":{"x":1859.263489,"y":523.671609,"type":"corner"}},{"t":2700,"v":{"x":1629.068449,"y":632.005093,"type":"corner"}},{"t":3000,"v":{"x":1653.437561,"y":605.291596,"type":"corner"}}]}}},"eDv2thajPL081":{"transform":{"data":{"t":{"x":-1090.741943,"y":-271.511432}},"keys":{"o":[{"t":500,"v":{"x":1090.741944,"y":246.21379,"type":"corner"}},{"t":1500,"v":{"x":1090.741949,"y":296.743655,"type":"corner"}},{"t":1800,"v":{"x":1090.741944,"y":271.511433,"type":"corner"}}]}}},"eDv2thajPL096":{"transform":{"data":{"o":{"x":729.409857,"y":918.57,"type":"corner"},"t":{"x":-729.409856,"y":-918.569998}},"keys":{"r":[{"t":3500,"v":0},{"t":4000,"v":-10},{"t":4500,"v":0},{"t":5000,"v":0},{"t":5500,"v":-10},{"t":6000,"v":0},{"t":6500,"v":0},{"t":7000,"v":-10},{"t":7500,"v":0},{"t":8000,"v":0},{"t":8500,"v":-10},{"t":9000,"v":0},{"t":9500,"v":0},{"t":10000,"v":-10}]}}},"eDv2thajPL099":{"transform":{"data":{"o":{"x":716.6,"y":205.822628,"type":"corner"},"t":{"x":-716.599994,"y":-205.822613}},"keys":{"r":[{"t":3500,"v":0},{"t":4000,"v":10},{"t":4500,"v":0},{"t":5000,"v":0},{"t":5500,"v":10},{"t":6000,"v":0},{"t":6500,"v":0},{"t":7000,"v":10},{"t":7500,"v":0},{"t":8000,"v":0},{"t":8500,"v":10},{"t":9000,"v":0},{"t":9500,"v":0},{"t":10000,"v":10}]}}},"eDv2thajPL0102":{"transform":{"data":{"o":{"x":1458.825258,"y":233.659568,"type":"corner"},"t":{"x":-1458.825254,"y":-233.659561}},"keys":{"r":[{"t":3500,"v":0},{"t":4000,"v":10},{"t":4500,"v":0},{"t":5000,"v":0},{"t":5500,"v":10},{"t":6000,"v":0},{"t":6500,"v":0},{"t":7000,"v":10},{"t":7500,"v":0},{"t":8000,"v":0},{"t":8500,"v":10},{"t":9000,"v":0},{"t":9500,"v":0},{"t":10000,"v":10}]}}},"eDv2thajPL0105":{"transform":{"data":{"o":{"x":1341.72754,"y":790.585186,"type":"corner"},"t":{"x":-1341.727538,"y":-790.585184}},"keys":{"r":[{"t":3500,"v":0},{"t":4000,"v":-10},{"t":4500,"v":0},{"t":5000,"v":0},{"t":5500,"v":-10},{"t":6000,"v":0},{"t":6500,"v":0},{"t":7000,"v":-10},{"t":7500,"v":0},{"t":8000,"v":0},{"t":8500,"v":-10},{"t":9000,"v":0},{"t":9500,"v":0},{"t":10000,"v":-10}]}}}},"s":"MLDA1NDk0M2I3ZDhlOGNI3YThkODI4OEM4NzNAiNTNKNGE0OTQ5NDk0OOTQ1RTNiN2Q4MjhiNV2U3YzhkODI4OFM4NzPNiNTNTNGFQNDUzYjgUyTzhkN2U4YjdhOGRBFODI4ODg3OGMzYjUzRLDQ5NDUzYjdmODI4NTKg1M2I1MzRhNDUzYjdHhODU4ZDdlOGJCODc3KYThkN2UzYjUzN2Y3YLVU4NThjN2VTNDUzYjThjODk3ZTdlN2QzYjUEzNGE5Ng|"}],"options":"MJDAxMDg4MmY4MDgxNmAU3ZjgxSzJmUDQ3MmYX3OTdjNmU3MTJmOGE/S"},'__SVGATOR_PLAYER__',window)]]></script></svg>