<svg id="eielrdpQ8kg1" xmlns="http://www.w3.org/2000/svg" xmlns:xlink="http://www.w3.org/1999/xlink" viewBox="0 0 812 648" shape-rendering="geometricPrecision" text-rendering="geometricPrecision"><defs><linearGradient id="eielrdpQ8kg45-fill" x1="352.511" y1="-12.81" x2="544.161" y2="196.13" spreadMethod="pad" gradientUnits="userSpaceOnUse" gradientTransform="translate(0 0)"><stop id="eielrdpQ8kg45-fill-0" offset="0%" stop-color="#fff3db"/><stop id="eielrdpQ8kg45-fill-1" offset="100%" stop-color="#fff"/></linearGradient><linearGradient id="eielrdpQ8kg75-fill" x1="534.501" y1="188.45" x2="633.661" y2="89.29" spreadMethod="pad" gradientUnits="userSpaceOnUse" gradientTransform="translate(0 0)"><stop id="eielrdpQ8kg75-fill-0" offset="0%" stop-color="#fff"/><stop id="eielrdpQ8kg75-fill-1" offset="100%" stop-color="#fefeff"/></linearGradient><linearGradient id="eielrdpQ8kg81-fill" x1="66.9006" y1="519.83" x2="245.901" y2="519.83" spreadMethod="pad" gradientUnits="userSpaceOnUse" gradientTransform="translate(0 0)"><stop id="eielrdpQ8kg81-fill-0" offset="0%" stop-color="#eef5ff"/><stop id="eielrdpQ8kg81-fill-1" offset="100%" stop-color="#fefeff"/></linearGradient></defs><path d="M407.67,516.51l-.012,2.14l306.176,1.603.011-2.14L407.67,516.51Z" fill="#f1835a"/><path d="M332.571,534.32c-121.64-.6-220.12-100.05-219.52-221.69s100.04-220.11,221.68-219.51s220.11,100,219.52,221.68-100.04,220.11-221.68,219.52Zm2-417.43c-108.53-.53-197.26,87.33-197.79,195.86s87.37,197.25,195.9,197.8s197.26-87.34,197.8-195.87-87.34-197.26-195.85-197.79h-.06Z" transform="translate(0-.846252)" fill="#4858e8"/><path id="eielrdpQ8kg4" d="M554.841,538.63l-14.41-14.56c115.26-114.13,116.18-300.78,2-416l14.56-14.41c122.12,123.25,121.14,322.88-2.15,444.97Z" transform="translate(.000006 0)" fill="#f1835a"/><path d="M635.751,285.78v2.05h110.87v-2.05h-110.87Z" fill="#f1835a"/><path d="M737.941,289.47c.01-2.396.73-4.734,2.069-6.72c1.339-1.987,3.238-3.531,5.455-4.438s4.653-1.136,7.001-.659c2.347.478,4.5,1.641,6.186,3.343c1.687,1.702,2.83,3.865,3.287,6.217.456,2.351.205,4.786-.722,6.994-.928,2.209-2.489,4.093-4.487,5.415-1.999,1.321-4.344,2.02-6.739,2.008-3.21-.019-6.28-1.309-8.539-3.589-2.259-2.279-3.522-5.362-3.511-8.571Z" fill="#f1835a"/><path d="M585.179,374.641l-.011,2.05l214.318,1.084.01-2.049-214.317-1.085Z" fill="#f1835a"/><path d="M787.421,375.13c.01-2.396.73-4.734,2.069-6.72c1.339-1.987,3.238-3.531,5.455-4.438s4.653-1.136,7.001-.659c2.347.478,4.5,1.641,6.186,3.343c1.687,1.702,2.83,3.865,3.287,6.217.456,2.351.205,4.786-.722,6.994-.928,2.209-2.489,4.093-4.487,5.415-1.999,1.321-4.344,2.02-6.739,2.008-3.21-.016-6.283-1.306-8.542-3.586-2.26-2.28-3.522-5.364-3.508-8.574v0Z" fill="#f1835a"/><path d="M701.701,519.06c.012-2.397.735-4.737,2.078-6.723c1.342-1.986,3.244-3.528,5.465-4.432c2.22-.904,4.658-1.129,7.007-.646c2.348.483,4.499,1.652,6.183,3.359c1.683,1.707,2.821,3.875,3.271,6.23.45,2.354.191,4.789-.744,6.997-.935,2.207-2.504,4.087-4.509,5.402s-4.354,2.005-6.751,1.983c-3.203-.029-6.264-1.326-8.514-3.607-2.249-2.281-3.502-5.36-3.486-8.563v0Z" fill="#f1835a"/><path id="eielrdpQ8kg10" d="M332.341,580.73C185.111,580,65.9107,459.64,66.6307,312.41l20.48.1c-.66,135.94,109.3903,247.07,245.3303,247.74s247.07-109.39,247.74-245.33-109.39-247.07-245.33-247.74l.1-20.48c147.24.72,266.44,121.09,265.68,268.3s-121.06,266.45-268.29,265.73Z" transform="translate(0-.846252)" fill="#f1835a"/><path d="M194.521,275h-18v56h10.45v-18.21h7.53c12.83,0,20.67-7.51,20.67-18.85s-7.82-18.94-20.65-18.94Zm0,27.93h-7.53v-18.06h7.53c6.38,0,10.07,3.28,10.07,9.07s-3.69,9-10.07,9v-.01Z" fill="#fff"/><path d="M228.411,297.85v-6.49h-9.78v39.64h9.76v-16.33c0-7.36,1.46-14.87,13-13.46v-10.79c-2.617.035-5.181.735-7.452,2.035s-4.174,3.156-5.528,5.395Z" fill="#fff"/><path d="M245.231,331h9.76v-39.64h-9.76v39.64Zm4.84-45.45c1.047.026,2.079-.261,2.963-.823.885-.563,1.582-1.376,2.002-2.336.421-.96.547-2.023.361-3.054-.186-1.032-.674-1.985-1.403-2.738s-1.665-1.272-2.69-1.491-2.092-.128-3.065.262c-.973.389-1.808,1.059-2.399,1.925-.591.865-.911,1.887-.919,2.935-.014.689.109,1.374.361,2.015.252.642.628,1.227,1.106,1.723s1.05.893,1.682,1.168s1.312.422,2.001.434v-.02Z" fill="#fff"/><path d="M302.171,290.42c-2.33-.044-4.632.507-6.689,1.603-2.056,1.096-3.799,2.699-5.061,4.657-.997-1.978-2.548-3.623-4.464-4.735s-4.114-1.642-6.326-1.525c-2.016-.099-4.023.325-5.827,1.228-1.805.904-3.345,2.259-4.473,3.932v-4.22h-9.7v39.64h9.76v-22.75c0-4.53,2.39-8.21,6.92-8.21s6.53,3.28,6.53,8.21v22.75h9.76v-22.75c0-4.53,2.38-8.21,6.91-8.21s6.54,3.28,6.54,8.21v22.75h9.75v-24.8c-.03-8.35-4.64-15.78-13.63-15.78Z" fill="#fff"/><path d="M339.521,289.4c-10.75,0-19.9,8.37-19.9,20.81c0,12.05,8.53,20.81,21.44,20.81c3.199.071,6.37-.62,9.251-2.014s5.389-3.453,7.319-6.006l-7.84-4.69c-1.075,1.245-2.409,2.239-3.908,2.915-1.499.675-3.128,1.015-4.772.995-5.38,0-9.68-2.82-11.06-8.14h28.89c1.69-15.68-7.66-24.68-19.42-24.68Zm-9.52,17c1.15-5.09,4.91-8.14,9.68-8.14c5.22,0,8.68,3,9.68,8.14h-19.36Z" fill="#fff"/><path d="M397.631,279.23v-4.23h-30v56h4v-26.81h19.3v-4.19h-19.3v-20.77h26Z" fill="#fff"/><path d="M415.631,289.4c-11.22,0-20.21,9.31-20.21,20.81s9.02,20.79,20.21,20.79s20.21-9.39,20.21-20.81-8.88-20.79-20.21-20.79Zm0,37.39c-3.311.098-6.575-.795-9.374-2.565-2.8-1.769-5.008-4.334-6.34-7.366-1.333-3.031-1.73-6.392-1.141-9.651s2.138-6.268,4.448-8.641c2.311-2.373,5.277-4.002,8.518-4.679c3.242-.677,6.613-.37,9.679.881c3.067,1.25,5.69,3.388,7.534,6.139s2.824,5.99,2.816,9.302c.035,2.15-.354,4.286-1.148,6.285-.793,1.999-1.973,3.822-3.473,5.363s-3.29,2.77-5.267,3.616c-1.977.847-4.102,1.294-6.252,1.316v0Z" fill="#fff"/><path d="M445.021,299.88v-8.52h-4.15v39.64h4.15v-20.16c0-10,5.22-15.57,13.83-15.57v-4.85c-6.38,0-11.14,4.14-13.83,9.46Z" fill="#fff"/><path d="M472.831,318.82v-23.63h9.14v-4.19h-9.14v-8.3h-4.08v8.3h-6.83v4.22h6.83v23.63c0,12,7,12.67,13.3,12v-4.14c-7.53.71-9.22-2.03-9.22-7.89Z" fill="#fff"/><path d="M490.921,328.5c.009.331-.048.66-.169.968-.121.307-.302.588-.534.824-.231.236-.508.423-.813.55-.306.127-.634.191-.964.188-.33.004-.656-.06-.959-.19-.303-.129-.576-.32-.801-.56-.234-.233-.42-.511-.545-.816-.125-.306-.188-.634-.185-.964-.001-.681.26-1.336.73-1.83.228-.233.503-.417.805-.539.303-.122.628-.18.955-.171.33-.008.659.051.967.173s.587.304.823.537c.458.498.706,1.154.69,1.83v0Z" fill="#fff"/><path d="M370.631,343c-1.26-.29-2.47-.49-2.47-1.78.002-.218.049-.433.138-.633.089-.199.219-.377.38-.524.162-.146.352-.258.559-.327.206-.069.425-.095.643-.076.384-.032.767.068,1.086.285.318.216.553.536.664.905l1.39-.35c-.184-.647-.579-1.214-1.123-1.609s-1.205-.596-1.877-.571c-.408-.037-.819.01-1.208.138-.389.127-.748.334-1.054.605-.307.272-.554.603-.727.974-.174.371-.269.774-.281,1.183c0,1.31.45,2.38,2.45,2.87c1.57.39,2.77.45,2.77,1.82c0,1-.95,1.51-2,1.51-.47.07-.949-.029-1.352-.28s-.704-.638-.848-1.09l-1.4.45c.264.718.756,1.33,1.401,1.741.644.412,1.406.601,2.169.539c2.55,0,3.5-1.57,3.5-3-.02-1.64-.88-2.34-2.81-2.78Z" fill="#fff"/><path d="M377.561,341.1c-.988.07-1.91.518-2.575,1.251s-1.021,1.695-.994,2.685c.027.989.436,1.93,1.14,2.626.704.695,1.649,1.092,2.639,1.108.566.024,1.13-.089,1.643-.329.514-.241.962-.601,1.307-1.051l-1.09-.69c-.232.269-.521.483-.847.625-.325.142-.678.209-1.033.195-.59.044-1.175-.138-1.636-.51-.46-.371-.762-.904-.844-1.49h5.71c.36-2.75-1.47-4.42-3.42-4.42Zm-2.27,3.27c.06-.557.326-1.071.746-1.441s.964-.57,1.524-.559c.547-.014,1.078.188,1.479.562.4.374.637.891.661,1.438h-4.41Z" fill="#fff"/><path d="M385.231,347.52c-.687,0-1.346-.273-1.832-.759-.485-.485-.758-1.144-.758-1.831s.273-1.346.758-1.831c.486-.486,1.145-.759,1.832-.759.421-.005.836.101,1.204.309.367.207.672.507.886.871l1.1-.62c-.329-.552-.796-1.009-1.356-1.325-.559-.316-1.192-.48-1.834-.475-.984.05-1.91.476-2.588,1.19s-1.056,1.66-1.056,2.645.378,1.931,1.056,2.645s1.604,1.14,2.588,1.19c.645.005,1.279-.161,1.839-.481.561-.32,1.026-.781,1.351-1.339l-1.1-.6c-.214.362-.52.662-.887.867-.368.206-.783.31-1.203.303Z" fill="#fff"/><path d="M394.031,341.27v4.2c.008.257-.036.514-.128.754s-.231.46-.408.646c-.178.186-.391.335-.627.438s-.49.158-.747.162c-1.35,0-1.77-1-1.77-2v-4.2h-1.29v4.59c-.012.373.05.744.182,1.093.133.349.333.668.59.938.257.271.565.488.906.639s.709.232,1.082.24c.44.012.876-.091,1.263-.3.388-.209.714-.516.947-.89v1h1.29v-7.32l-1.29.01Z" fill="#fff"/><path d="M397.891,342.54v-1.27h-1.26v7.31h1.29v-3.27c0-1.34.26-3,2.39-2.73v-1.48c-.499-.014-.991.114-1.419.369-.429.255-.776.626-1.001,1.071v0Z" fill="#fff"/><path d="M401.131,348.57h1.3v-7.31h-1.3v7.31Zm.65-8.61c.098,0,.195-.019.285-.057.091-.038.173-.093.241-.163.069-.07.124-.153.16-.244.037-.091.055-.188.054-.286c0-.196-.078-.384-.217-.523s-.327-.217-.523-.217c-.197,0-.385.078-.524.217-.138.139-.216.327-.216.523-.007.101.007.203.041.299.034.095.087.183.157.257.069.074.153.133.246.173.094.041.194.061.296.061v-.04Z" fill="#fff"/><path d="M407.231,341.1c-.444-.01-.883.096-1.273.306-.391.211-.721.518-.957.894v-1h-1.29v7.31h1.29v-4.19c-.014-.525.18-1.035.539-1.419.36-.383.855-.61,1.381-.631c1.34,0,1.77,1,1.77,2.05v4.19h1.28v-4.61c.012-.371-.05-.74-.181-1.087-.132-.347-.331-.664-.585-.934-.255-.269-.561-.486-.899-.637-.339-.151-.705-.233-1.075-.242v0Z" fill="#fff"/><path d="M416.851,341.27v1.07c-.27-.395-.635-.717-1.061-.933-.427-.217-.901-.323-1.379-.307-.966,0-1.892.384-2.574,1.066-.683.683-1.066,1.609-1.066,2.574s.383,1.891,1.066,2.574c.682.683,1.608,1.066,2.574,1.066.479.016.955-.09,1.382-.309.427-.218.791-.542,1.058-.941v.56c0,1.46-.67,2.57-2.38,2.57-.405.038-.813-.025-1.188-.182s-.705-.403-.962-.718l-1.11.67c.385.489.883.877,1.45,1.133.568.256,1.188.371,1.81.337.496.052.997-.008,1.467-.174.47-.167.897-.436,1.25-.789.352-.353.622-.78.788-1.25.167-.47.226-.971.175-1.467v-6.55h-1.3Zm-2.31,5.87c-.637,0-1.247-.253-1.697-.703-.451-.45-.703-1.06-.703-1.697s.252-1.247.703-1.697c.45-.45,1.06-.703,1.697-.703.636,0,1.247.253,1.697.703s.703,1.06.703,1.697-.253,1.247-.703,1.697-1.061.703-1.697.703Z" fill="#fff"/><path d="M424.631,338.48h-1.91v10.1h1.91v-10.1Z" fill="#fff"/><path d="M429.681,341.1c-.413-.02-.824.068-1.193.255-.368.188-.681.469-.907.815v-.9h-1.78v7.31h1.83v-4.06c-.02-.212.005-.426.074-.628s.18-.387.325-.543c.146-.156.323-.279.519-.362.197-.082.409-.122.622-.117c1,0,1.4.71,1.4,1.65v4.06h1.8v-4.44c-.05-1.54-.87-3.04-2.69-3.04Z" fill="#fff"/><path d="M437.341,341.1c-.413-.021-.825.066-1.193.254-.369.188-.682.469-.907.816v-.9h-1.79v7.31h1.79v-4.06c-.022-.212.002-.426.07-.627.068-.202.177-.387.322-.543s.321-.28.517-.363c.196-.082.408-.122.621-.117c1,0,1.4.71,1.4,1.65v4.06h1.8v-4.44c0-1.54-.82-3.04-2.63-3.04Z" fill="#fff"/><path d="M444.461,341.1c-.762-.01-1.509.207-2.147.623s-1.138,1.012-1.436,1.713c-.299.7-.382,1.474-.24,2.222.143.748.505,1.437,1.04,1.979s1.219.913,1.965,1.065s1.521.079,2.225-.21c.705-.289,1.308-.781,1.732-1.414.424-.632.651-1.376.651-2.138.01-.503-.08-1.003-.266-1.47-.186-.468-.464-.893-.817-1.251-.354-.358-.775-.642-1.24-.834s-.964-.289-1.467-.285v0Zm0,5.91c-.417.026-.831-.074-1.19-.286-.359-.213-.646-.528-.823-.906s-.237-.8-.171-1.212c.065-.412.254-.795.54-1.098.286-.304.657-.514,1.064-.605.407-.09.832-.056,1.22.099.387.154.719.422.953.767.234.346.358.754.357,1.171.016.266-.022.532-.113.782s-.232.478-.415.672c-.183.193-.403.346-.648.451-.245.104-.508.157-.774.155v.01Z" fill="#fff"/><path d="M453.391,341.27l-1.71,5.2-1.7-5.2h-1.94l2.66,7.32h2l2.67-7.32h-1.98Z" fill="#fff"/><path d="M458.401,341.1c-1.116-.012-2.192.412-3,1.18l1.23,1c.439-.315.959-.499,1.5-.53c1.11,0,1.47.46,1.49,1.51h-.78c-1,0-3.87,0-3.87,2.41.021.31.104.614.245.891.141.278.336.524.574.725.238.2.514.351.811.443s.61.123.92.091c.405.021.81-.059,1.176-.234.367-.174.684-.438.924-.766v.77h1.8v-4.41c.01-1.75-.74-3.08-3.02-3.08Zm1.23,5.51c-.16.268-.389.488-.664.636s-.585.219-.896.204c-.89,0-1.25-.45-1.25-1c0-1.1,1.41-1.08,2.7-1.08h.11v1.24Z" fill="#fff"/><path d="M466.061,342.93v-1.67h-1.53v-1.53h-1.8v1.53h-1v1.67h1v3c-.048.359-.016.724.094,1.069.11.344.295.661.541.926.247.264.549.471.885.605.337.134.698.192,1.06.17.254.01.507-.024.75-.1v-1.7h-.42c-1,0-1.11-.49-1.11-1.33v-2.67l1.53.03Z" fill="#fff"/><path d="M466.981,348.57h1.8v-7.31h-1.8v7.31Zm.9-8.38c.199.01.397-.04.568-.144.171-.103.307-.256.39-.437.084-.182.111-.384.078-.582-.033-.197-.124-.38-.261-.525-.138-.144-.316-.245-.511-.288-.195-.042-.399-.026-.585.048-.185.074-.344.202-.457.368-.112.165-.172.36-.172.56-.001.257.098.504.275.69s.418.297.675.31Z" fill="#fff"/><path d="M473.271,341.1c-.761-.008-1.508.211-2.145.628-.636.417-1.135,1.014-1.431,1.715-.297.701-.379,1.474-.235,2.221.143.748.506,1.436,1.041,1.977.536.541,1.22.911,1.966,1.062s1.52.078,2.224-.212c.704-.289,1.306-.781,1.73-1.414.423-.632.65-1.376.65-2.137.012-.504-.078-1.006-.264-1.474-.186-.469-.465-.896-.82-1.254-.355-.359-.778-.642-1.245-.833s-.967-.286-1.471-.279v0Zm0,5.91c-.415.016-.825-.093-1.178-.312s-.632-.538-.801-.917c-.17-.379-.222-.8-.15-1.209s.264-.787.553-1.086c.288-.298.659-.504,1.066-.59.406-.085.828-.048,1.213.109.385.156.714.424.945.769s.353.751.352,1.166c.017.27-.023.54-.117.794-.094.253-.239.484-.428.678-.188.194-.415.347-.665.448-.251.101-.52.149-.79.14v.01Z" fill="#fff"/><path d="M481.631,341.1c-.413-.02-.824.068-1.193.255-.368.188-.681.469-.907.815v-.9h-1.78v7.31h1.78v-4.06c-.022-.212.002-.426.07-.627.068-.202.177-.387.322-.543s.321-.28.517-.363c.196-.082.408-.122.621-.117c1,0,1.41.71,1.41,1.65v4.06h1.79v-4.44c.03-1.54-.79-3.04-2.63-3.04Z" fill="#fff"/><path d="M488.391,344.21c-.57-.13-1.53-.17-1.53-.82s.54-.75,1.06-.75c.245-.026.491.034.696.172.205.137.355.341.424.578l1.59-.39c-.173-.582-.54-1.088-1.041-1.432-.5-.344-1.104-.506-1.709-.458-1.69,0-2.82.91-2.82,2.29s.71,1.93,2.1,2.22c.85.19,1.88.16,1.88.85c0,.49-.42.77-1.18.77-1,0-1.33-.49-1.38-.79l-1.73.54c.32,1.23,1.71,1.79,3.09,1.79c2,0,3-1,3-2.44.08-1.25-.7-1.74-2.45-2.13Z" fill="#fff"/><path id="eielrdpQ8kg40" d="M119.711,130.05c-2.181-4.376-4.954-8.43-8.24-12.05l10.23-8c-7.862-8.973-18.019-15.6344-29.3804-19.27l-3.39,12.46c-3.7961-1.284-7.7238-2.139-11.71-2.55-1-.09-1.89-.09-2.84-.13l1.25-12.89c-11.6056-.6746-23.1825,1.7408-33.55,7l6.37,11.27c-4.414,2.169-8.5062,4.938-12.16,8.23l-8.23-10c-8.779,7.722-15.338,17.647-19,28.75l12.46,3.46c-1.3708,3.927-2.277,8.002-2.7,12.14-.08.78-.07,1.56-.11,2.34l-12.88-1.23c-.75456,11.756,1.66303,23.498,7,34l11.26-6.37c2.1894,4.455,4.9861,8.584,8.31,12.27l-10,8.23c7.8315,8.869,17.9132,15.458,29.18,19.07l3.45-12.44c3.7841,1.276,7.6981,2.127,11.67,2.54.92.09,1.83.08,2.74.13l-1.28,12.89c11.708.692,23.3881-1.759,33.8304-7.1l-6.3604-11.28c4.4244-2.198,8.5234-4.998,12.1804-8.32l8.2,10c8.771-7.786,15.297-17.778,18.9-28.94l-12.42-3.48c1.293-3.819,2.155-7.77,2.57-11.78.09-.9.09-1.79.13-2.69l12.87,1.43c.733-11.764-1.716-23.509-7.09-34l-11.26,6.31ZM68.1506,192c-7.5686-.753-14.744-3.733-20.6191-8.564-5.875-4.83-10.1858-11.295-12.3873-18.575s-2.1949-15.05.019-22.327c2.2139-7.276,6.5356-13.733,12.4188-18.554s13.0637-7.789,20.6336-8.529s15.1892.781,21.8947,4.371s12.1957,9.088,15.7777,15.798c3.581,6.71,5.092,14.331,4.343,21.9-.497,5.028-1.98,9.909-4.364,14.363-2.384,4.455-5.623,8.396-9.5306,11.598-3.908,3.202-8.4088,5.603-13.2451,7.064-4.8363,1.462-9.9133,1.956-14.9407,1.455v0Z" fill="#4858e8"/><path id="eielrdpQ8kg41" d="M549.921,598.53l-9-3.5c1.424-3.595,2.131-7.434,2.08-11.3l9.63.27c-.015-5.235-1.08-10.414-3.13-15.23l-8.78,3.93c-1.482-3.621-3.738-6.874-6.61-9.53l6.9-6.76c-3.645-3.505-7.929-6.275-12.62-8.16l-3.41,9.05c-3.628-1.477-7.514-2.218-11.43-2.18l.13-9.71c-3.437-.005-6.858.456-10.17,1.37-1.598.456-3.164,1.014-4.69,1.67l3.91,8.92c-3.572,1.531-6.797,3.77-9.48,6.58l-6.82-7c-3.619,3.666-6.486,8.004-8.44,12.77l9.12,3.54c-1.176,2.847-1.882,5.867-2.09,8.94-.06.82,0,1.63,0,2.44l-9.91-.13c.06,5.192,1.169,10.317,3.26,15.07l9-4c1.555,3.524,3.78,6.713,6.55,9.39l-7.09,6.9c3.422,3.394,7.456,6.109,11.89,8c.28.12.58.21.87.33l3.56-9.19c3.597,1.42,7.444,2.101,11.31,2l-.11,9.84c5.113-.076,10.162-1.143,14.87-3.14l-4.07-8.91c3.637-1.491,6.931-3.709,9.68-6.52l6.75,7c.29-.3.6-.58.89-.89c3.196-3.458,5.723-7.479,7.45-11.86v0Zm-53.22-26.21c2.508-3.7,6.133-6.504,10.345-8.002c4.212-1.497,8.793-1.612,13.075-.327c4.281,1.286,8.041,3.904,10.732,7.475c2.691,3.57,4.172,7.906,4.228,12.376s-1.317,8.842-3.917,12.478c-2.601,3.637-6.294,6.348-10.543,7.741-4.248,1.392-8.83,1.392-13.078-.001-4.249-1.392-7.942-4.103-10.542-7.74-2.475-3.499-3.829-7.668-3.882-11.953-.054-4.286,1.195-8.487,3.582-12.047v0Z" fill="#4858e8"/><path id="eielrdpQ8kg42" d="M188.821,94.94l-7.36.66c-.242-2.9418-1.053-5.8084-2.39-8.44l6.69-3c-1.78-3.5788-4.263-6.7622-7.3-9.36l-4.68,5.66c-2.235-1.9847-4.882-3.4498-7.75-4.29l2.44-7c-3.682-1.1751-7.558-1.6201-11.41-1.31l.73,7.35c-2.983.2107-5.894,1.0165-8.56,2.37l-3.2-6.69c-2.356,1.1578-4.543,2.6314-6.5,4.38-.94.8499-1.822,1.762-2.64,2.73l5.7,4.78c-1.925,2.2582-3.378,4.88-4.27,7.71l-7-2.5c-1.238,3.7346-1.734,7.6751-1.46,11.6l7.44-.66c.162,2.344.699,4.646,1.59,6.82.24.58.57,1.11.85,1.67l-6.82,3.26c1.8,3.533,4.293,6.669,7.33,9.22l4.8-5.77c2.259,1.883,4.859,3.312,7.66,4.21l-2.51,7.12c3.491,1.172,7.173,1.671,10.85,1.47l.7-.07-.66-7.5c2.942-.236,5.807-1.066,8.42-2.44l3.26,6.78c3.471-1.788,6.564-4.229,9.11-7.19l-5.8-4.72c1.986-2.251,3.49-4.885,4.42-7.74l7,2.54c.1-.3.21-.6.3-.91c1.012-3.484,1.358-7.1277,1.02-10.74v0Zm-45.31.06c.472-3.3698,2.006-6.5014,4.379-8.9399s5.462-4.0568,8.818-4.6199c3.356-.5632,6.804-.0418,9.843,1.4884s5.512,3.9895,7.058,7.0207s2.086,6.4763,1.54,9.835c-.545,3.3587-2.147,6.4557-4.573,8.8427-2.426,2.386-5.55,3.936-8.917,4.426s-6.803-.107-9.808-1.703c-2.885-1.558-5.227-3.956-6.717-6.876-1.489-2.92-2.056-6.2245-1.623-9.474v0Z" fill="#4858e8"/><g id="eielrdpQ8kg43"><g transform="translate(0-.846252)" opacity="0.8"><path d="M522.791,175.53h-156.06c-1.592,0-3.118-.632-4.243-1.757-1.125-1.126-1.757-2.652-1.757-4.243v-163.53c0-1.5913.632-3.11742,1.757-4.24264s2.651-1.75736,4.243-1.75736h156.06c1.591,0,3.117.632141,4.242,1.75736C528.159,2.88258,528.791,4.4087,528.791,6v163.57c0,1.591-.632,3.117-1.758,4.243-1.125,1.125-2.651,1.757-4.242,1.757v-.04Z" opacity="0.8" fill="url(#eielrdpQ8kg45-fill)"/></g><path d="M509.221,95.12h-127.58v2.93h127.58v-2.93Z" transform="translate(0-.846252)" fill="#f1835a"/><path d="M509.221,101.83h-127.58v2.93h127.58v-2.93Z" transform="translate(0-.846252)" fill="#f1835a"/><path d="M509.221,108.54h-127.58v2.93h127.58v-2.93Z" transform="translate(0-.846252)" fill="#f1835a"/><path d="M470.991,145.24h-89.35v2.93h89.35v-2.93Z" transform="translate(0-.846252)" fill="#f1835a"/><path d="M509.221,151.95h-127.58v2.93h127.58v-2.93Z" transform="translate(0-.846252)" fill="#f1835a"/><path d="M509.221,158.66h-127.58v2.93h127.58v-2.93Z" transform="translate(0-.846252)" fill="#f1835a"/><path d="M456.841,120.18h-75.2v2.93h75.2v-2.93Z" transform="translate(0-.846252)" fill="#f1835a"/><path d="M509.221,126.89h-127.58v2.93h127.58v-2.93Z" transform="translate(0-.846252)" fill="#f1835a"/><path d="M509.221,133.6h-127.58v2.93h127.58v-2.93Z" transform="translate(0-.846252)" fill="#f1835a"/><path d="M384.031,86.6h121.46c.99-.0053,1.938-.401,2.638-1.1012.701-.7003,1.096-1.6485,1.102-2.6388v-65.19c-.006-.9903-.401-1.9385-1.102-2.6388-.7-.7002-1.648-1.096-2.638-1.1012h-121.46c-.991.0052-1.939.401-2.639,1.1012s-1.096,1.6485-1.101,2.6388v65.19c.005.9903.401,1.9385,1.101,2.6388.7.7002,1.648,1.0959,2.639,1.1012v0Z" transform="translate(0-.846252)" fill="#f1835a"/><path d="M390.851,78.8h44.47c.28,0,.558-.0554.817-.1631.259-.1076.494-.2654.692-.4643s.355-.4348.461-.6944c.107-.2596.161-.5376.16-.8182v-52.79c.001-.2801-.053-.5576-.16-.8167-.106-.259-.263-.4943-.461-.6924s-.434-.3549-.693-.4614-.536-.1608-.816-.1595h-44.47c-.281-.0013-.559.0528-.818.1593-.26.1064-.496.2631-.695.461s-.357.4332-.464.6923c-.108.2591-.163.5369-.163.8174v52.79c.002.5668.229,1.1096.629,1.5103.401.4008.944.6271,1.511.6297v0Z" transform="translate(0-.846252)" fill="#fff"/><path d="M412.451,53.22h-.1c-3.15,0-8.19-5.15-8.19-10.65s3.67-9.27,8.38-9.27c4.53,0,8.19,3.77,8.19,9.27s-5.03,10.65-8.28,10.65Z" transform="translate(0-.846252)" fill="#ff5e00"/><path d="M395.631,64.88c.234-1.3519.763-2.6356,1.55-3.76.771-.9905,1.774-1.7768,2.92-2.29c1.818-.8735,3.713-1.5797,5.66-2.11c4.389-1.2266,9.03-1.2266,13.42,0c1.946.5303,3.841,1.2365,5.66,2.11c1.143.5135,2.142,1.2999,2.91,2.29.794,1.12,1.324,2.4056,1.55,3.76.09.39.27,2.27.54,5.24h-34.77c.27-2.97.46-4.85.56-5.24Z" transform="translate(0-.846252)" fill="#ff5e00"/><path d="M482.861,39h-22.72c-.086,0-.17-.0168-.249-.0495-.079-.0326-.151-.0805-.211-.1409s-.108-.132-.141-.2108-.049-.1634-.049-.2488.016-.1699.049-.2487c.033-.0789.081-.1505.141-.2109s.132-.1082.211-.1409.163-.0495.249-.0495h22.72c.085,0,.169.0168.248.0495s.151.0805.211.1409c.061.0604.108.132.141.2109.033.0788.05.1634.05.2487s-.017.1699-.05.2488-.08.1505-.141.2108c-.06.0604-.132.1083-.211.1409-.079.0327-.163.0495-.248.0495v0Z" transform="translate(0-.846252)" fill="#fff"/><path d="M488.951,34.58h-28.81c-.093.0115-.187.0031-.277-.0245-.089-.0277-.171-.074-.242-.136-.07-.0619-.126-.138-.164-.2233-.039-.0852-.058-.1777-.058-.2712s.019-.186.058-.2712c.038-.0853.094-.1614.164-.2233.071-.0619.153-.1083.242-.1359.09-.0277.184-.0361.277-.0246h28.81c.092-.0115.187-.0031.276.0246.089.0276.172.074.242.1359s.126.138.164.2233c.039.0852.059.1777.059.2712s-.02.186-.059.2712c-.038.0853-.094.1614-.164.2233s-.153.1083-.242.136c-.089.0276-.184.036-.276.0245Z" transform="translate(0-.846252)" fill="#fff"/><path d="M495.051,30.16h-34.91c-.173,0-.338-.0685-.46-.1904s-.19-.2872-.19-.4596.068-.3377.19-.4596.287-.1904.46-.1904h34.91c.172,0,.337.0685.459.1904s.191.2872.191.4596-.069.3377-.191.4596-.287.1904-.459.1904v0Z" transform="translate(0-.846252)" fill="#fff"/><path d="M455.311,27.38h-11.6c-.415,0-.75.3358-.75.75v11.6c0,.4142.335.75.75.75h11.6c.414,0,.75-.3358.75-.75v-11.6c0-.4142-.336-.75-.75-.75Z" transform="translate(0-.846252)" fill="#fff"/><path d="M448.711,37.42c-.199-.0002-.39-.0793-.53-.22l-2.86-2.86c-.117-.1446-.175-.3271-.165-.5123.011-.1853.089-.3601.221-.4906.132-.1306.308-.2077.493-.2164s.367.0517.511.1693l2.25,2.27l4-4.85c.123-.1538.302-.2524.498-.2739s.393.0356.547.1589c.153.1233.252.3027.274.4987.021.196-.036.3925-.159.5463l-4.45,5.51c-.067.08-.149.1453-.242.1917s-.195.0732-.298.0783h-.09Z" transform="translate(0-.846252)" fill="#fc6"/><path d="M482.861,54.66h-22.72c-.173,0-.338-.0685-.46-.1904s-.19-.2872-.19-.4596.068-.3377.19-.4596.287-.1904.46-.1904h22.72c.172,0,.337.0685.459.1904s.191.2872.191.4596-.069.3377-.191.4596-.287.1904-.459.1904v0Z" transform="translate(0-.846252)" fill="#fff"/><path d="M495.051,50.25h-34.91c-.173,0-.338-.0685-.46-.1904s-.19-.2872-.19-.4596.068-.3377.19-.4596.287-.1904.46-.1904h34.91c.172,0,.337.0685.459.1904s.191.2872.191.4596-.069.3377-.191.4596-.287.1904-.459.1904v0Z" transform="translate(0-.846252)" fill="#fff"/><path d="M495.051,45.84h-34.91c-.174,0-.34-.0681-.464-.1898-.123-.1216-.194-.2869-.196-.4602.002-.1742.073-.3406.196-.4638s.289-.1936.464-.1962h34.91c.173.0026.338.0733.46.1968s.19.2899.19.4632c0,.1724-.069.3377-.191.4596s-.287.1904-.459.1904v0Z" transform="translate(0-.846252)" fill="#fff"/><path d="M455.311,43.05h-11.6c-.415,0-.75.3358-.75.75v11.6c0,.4142.335.75.75.75h11.6c.414,0,.75-.3358.75-.75v-11.6c0-.4142-.336-.75-.75-.75Z" transform="translate(0-.846252)" fill="#fff"/><path d="M448.711,53.1c-.199-.0002-.39-.0793-.53-.22L445.321,50c-.125-.1365-.195-.3149-.195-.5s.07-.3635.195-.5c.14-.1404.331-.2193.53-.2193.198,0,.389.0789.53.2193l2.25,2.24l4-4.86c.13-.1329.306-.2123.492-.2228s.37.0488.514.1661c.145.1174.241.2845.27.4688.028.1842-.013.3725-.116.5279l-4.45,5.5c-.067.08-.149.1453-.242.1917-.093.0465-.195.0732-.298.0783l-.09.01Z" transform="translate(0-.846252)" fill="#fc6"/><path d="M482.861,70.34h-22.72c-.174,0-.34-.0681-.464-.1898-.123-.1216-.194-.2869-.196-.4602.002-.1742.073-.3406.196-.4638.123-.1233.289-.1936.464-.1962h22.72c.174.0026.34.0729.463.1962.124.1232.194.2896.197.4638-.003.1733-.074.3386-.197.4602-.124.1217-.29.1898-.463.1898v0Z" transform="translate(0-.846252)" fill="#fff"/><path d="M488.951,65.93h-28.81c-.175-.0026-.341-.0729-.464-.1962-.123-.1232-.194-.2896-.196-.4638.002-.1733.073-.3386.196-.4602.124-.1217.29-.1898.464-.1898h28.81c.086-.0013.171.0145.251.0466s.153.0797.215.1402c.061.0605.11.1326.143.2121.034.0795.051.1649.051.2511c0,.0867-.017.1725-.051.2526-.033.0801-.081.1528-.143.2141-.061.0613-.134.1099-.214.1431-.08.0331-.166.0502-.252.0502Z" transform="translate(0-.846252)" fill="#fff"/><path d="M495.051,61.51h-34.91c-.173,0-.338-.0685-.46-.1904s-.19-.2872-.19-.4596.068-.3377.19-.4596.287-.1904.46-.1904h34.91c.172,0,.337.0685.459.1904s.191.2872.191.4596-.069.3377-.191.4596-.287.1904-.459.1904v0Z" transform="translate(0-.846252)" fill="#fff"/><path d="M455.311,58.72h-11.6c-.415,0-.75.3358-.75.75v11.6c0,.4142.335.75.75.75h11.6c.414,0,.75-.3358.75-.75v-11.6c0-.4142-.336-.75-.75-.75Z" transform="translate(0-.846252)" fill="#fff"/><path d="M448.711,68.77c-.199-.0002-.39-.0793-.53-.22l-2.86-2.86c-.133-.1422-.205-.3302-.201-.5245.003-.1943.082-.3797.219-.5171s.323-.2162.517-.2196.382.0687.525.2012l2.25,2.28l4-4.86c.13-.1329.306-.2123.492-.2228s.37.0487.514.1661c.145.1174.241.2845.27.4688.028.1842-.013.3724-.116.5279l-4.45,5.5c-.064.0832-.146.1515-.239.1998-.094.0484-.196.0758-.301.0802h-.09Z" transform="translate(0-.846252)" fill="#fc6"/></g><g id="eielrdpQ8kg74" transform="translate(0 0.000001)"><path d="M620.141,198.8h-72.12c-2.03,0-3.977-.806-5.413-2.24s-2.245-3.38-2.247-5.41v-104.56c.002-2.0298.811-3.9756,2.247-5.41s3.383-2.24,5.413-2.24h72.12c2.03,0,3.976.8057,5.413,2.24c1.436,1.4344,2.244,3.3802,2.247,5.41v104.56c-.003,2.03-.811,3.976-2.247,5.41-1.437,1.434-3.383,2.24-5.413,2.24Z" opacity="0.8" fill="url(#eielrdpQ8kg75-fill)"/><path d="M569.411,179.49h-3.78l2.69-2.69c.131-.192.192-.425.17-.657-.021-.232-.124-.45-.288-.615-.165-.165-.383-.267-.615-.288-.232-.022-.465.038-.657.17l-2.68,2.69v-3.8c0-.265-.106-.52-.293-.707-.188-.188-.442-.293-.707-.293-.266,0-.52.105-.707.293-.188.187-.293.442-.293.707v3.8l-2.62-2.69c-.186-.177-.433-.276-.69-.276s-.504.099-.69.276c-.181.186-.281.436-.281.695s.1.509.281.695l2.69,2.69h-3.8c-.147-.033-.299-.033-.445,0-.147.034-.284.1-.401.193-.118.094-.212.213-.278.348-.065.136-.099.284-.099.434s.034.298.099.434c.066.135.16.254.278.348.117.093.254.159.401.193.146.033.298.033.445,0h3.8l-2.69,2.69c-.178.186-.277.433-.277.69s.099.504.277.69c.186.177.433.276.69.276s.504-.099.69-.276l2.69-2.68v3.8c0,.265.105.52.293.707.187.188.441.293.707.293.265,0,.519-.105.707-.293.187-.187.293-.442.293-.707v-3.8l2.68,2.68c.186.185.437.289.7.29.128.001.256-.023.375-.073.118-.05.226-.124.315-.217.177-.186.276-.433.276-.69s-.099-.504-.276-.69l-2.76-2.69h3.8c.146.033.298.033.445,0c.146-.034.283-.1.4-.193.118-.094.213-.213.278-.348.065-.136.099-.284.099-.434s-.034-.298-.099-.434c-.065-.135-.16-.254-.278-.348-.117-.093-.254-.159-.4-.193-.147-.033-.299-.033-.445,0h-.02Z" fill="#f1835a"/><path d="M590.241,179.49h-3.8l2.69-2.69c.18-.186.281-.436.281-.695s-.101-.509-.281-.695c-.186-.177-.433-.276-.69-.276s-.504.099-.69.276l-2.69,2.69v-3.8c0-.265-.106-.52-.293-.707-.188-.188-.442-.293-.707-.293-.266,0-.52.105-.707.293-.188.187-.293.442-.293.707v3.8l-2.69-2.69c-.186-.177-.433-.276-.69-.276s-.504.099-.69.276c-.181.186-.281.436-.281.695s.1.509.281.695l2.69,2.69h-3.8c-.147-.033-.299-.033-.445,0-.147.034-.284.1-.401.193-.118.094-.212.213-.278.348-.065.136-.099.284-.099.434s.034.298.099.434c.066.135.16.254.278.348.117.093.254.159.401.193.146.033.298.033.445,0h3.8l-2.69,2.69c-.178.186-.277.433-.277.69s.099.504.277.69c.186.177.433.276.69.276s.504-.099.69-.276l2.69-2.68v3.8c0,.265.105.52.293.707.187.188.441.293.707.293.265,0,.519-.105.707-.293.187-.187.293-.442.293-.707v-3.8l2.69,2.68c.186.177.433.276.69.276s.504-.099.69-.276c.177-.186.276-.433.276-.69s-.099-.504-.276-.69l-2.69-2.69h3.8c.146.033.298.033.445,0c.146-.034.283-.1.4-.193.118-.094.213-.213.278-.348.065-.136.099-.284.099-.434s-.034-.298-.099-.434c-.065-.135-.16-.254-.278-.348-.117-.093-.254-.159-.4-.193-.147-.033-.299-.033-.445,0Z" fill="#f1835a"/><path d="M611.071,179.49h-3.8l2.69-2.69c.18-.186.281-.436.281-.695s-.101-.509-.281-.695c-.186-.177-.433-.276-.69-.276s-.504.099-.69.276l-2.69,2.69v-3.8c0-.265-.106-.52-.293-.707-.188-.188-.442-.293-.707-.293-.266,0-.52.105-.707.293-.188.187-.293.442-.293.707v3.8l-2.68-2.69c-.083-.121-.192-.223-.319-.297-.126-.075-.268-.12-.414-.134s-.294.005-.432.055-.264.13-.368.234-.183.229-.233.367-.069.286-.055.432c.013.147.059.288.133.415.075.126.176.235.298.318l2.69,2.69h-3.8c-.147-.033-.299-.033-.445,0-.147.034-.284.1-.401.193-.118.094-.212.213-.278.348-.065.136-.099.284-.099.434s.034.298.099.434c.066.135.16.254.278.348.117.093.254.159.401.193.146.033.298.033.445,0h3.8l-2.69,2.69c-.178.186-.277.433-.277.69s.099.504.277.69c.089.093.196.167.315.217.118.05.246.074.375.073.262-.001.513-.105.7-.29l2.68-2.68v3.8c0,.265.105.52.293.707.187.188.441.293.707.293.265,0,.519-.105.707-.293.187-.187.293-.442.293-.707v-3.8l2.69,2.68c.186.177.433.276.69.276s.504-.099.69-.276c.177-.186.276-.433.276-.69s-.099-.504-.276-.69l-2.69-2.69h3.8c.146.033.298.033.445,0c.146-.034.283-.1.401-.193.117-.094.212-.213.277-.348.065-.136.099-.284.099-.434s-.034-.298-.099-.434c-.065-.135-.16-.254-.277-.348-.118-.093-.255-.159-.401-.193-.147-.033-.299-.033-.445,0v0Z" fill="#f1835a"/><path d="M609.541,119.41c-1.018-.907-2.337-1.402-3.7-1.39h-2.52v-10.4c0-9.64-8.63-17.49-19.24-17.49s-19.25,7.79-19.25,17.49v10.38h-2.51c-1.363-.012-2.682.483-3.7,1.39-.479.422-.862.94-1.126,1.521s-.402,1.211-.404,1.849v34c.004.636.142,1.264.406,1.843s.647,1.096,1.124,1.517c1.017.909,2.335,1.408,3.7,1.4h43.52c1.364.008,2.683-.491,3.7-1.4.477-.421.86-.938,1.123-1.517.264-.579.402-1.207.407-1.843v-34c-.006-.634-.145-1.261-.409-1.838-.263-.577-.645-1.092-1.121-1.512v0Zm-20.1,25.32l1.19,5.27c.061.253.059.517-.007.768-.067.252-.195.483-.373.672-.186.205-.413.369-.666.479-.254.11-.528.165-.804.161h-9.46c-.277.004-.551-.051-.805-.161-.253-.11-.48-.274-.665-.479-.178-.19-.307-.42-.375-.671s-.073-.515-.015-.769l2.44-10.35c-.883-.554-1.613-1.32-2.125-2.228s-.788-1.93-.805-2.972c0-3.55,3.17-6.43,7.08-6.43s7.08,2.88,7.08,6.43c-.017,1.042-.294,2.064-.806,2.972-.511.908-1.242,1.674-2.124,2.228l1.24,5.08Zm6.26-26.73h-23.24v-10.4c0-6,5.36-10.56,11.62-10.56s11.62,4.69,11.62,10.56v10.4Z" fill="#4858e8"/></g><g id="eielrdpQ8kg80" transform="translate(0-1.463501)"><path d="M238.181,647h-163.5504c-2.0483-.003-4.0119-.818-5.4594-2.268-1.4475-1.449-2.2606-3.414-2.2606-5.462v-239c.0185-2.035.84-3.981,2.2858-5.414c1.4458-1.432,3.3988-2.236,5.4342-2.236h163.5504c2.047,0,4.011.813,5.459,2.261c1.447,1.448,2.261,3.412,2.261,5.459v239c0,2.048-.813,4.013-2.261,5.462-1.447,1.45-3.411,2.265-5.459,2.268v-.07Z" opacity="0.9" fill="url(#eielrdpQ8kg81-fill)"/><g style="mix-blend-mode:screen"><g style="mix-blend-mode:screen"><path d="M126.101,514.91v-20.77h-20.77v20.77h20.77Z" fill="#fff"/></g><g style="mix-blend-mode:screen"><path d="M126.091,541.35v-20.77h-20.77v20.77h20.77Z" fill="#fff"/></g><g style="mix-blend-mode:screen"><path d="M126.101,567.79v-20.77h-20.77v20.77h20.77Z" fill="#fff"/></g><g style="mix-blend-mode:screen"><path d="M126.101,594.24v-20.77h-20.77v20.77h20.77Z" fill="#fff"/></g><g style="mix-blend-mode:screen"><path d="M205.431,514.91v-20.77h-20.77v20.77h20.77Z" fill="#fff"/></g><g style="mix-blend-mode:screen"><path d="M205.421,541.35v-20.77h-20.77v20.77h20.77Z" fill="#fff"/></g><g style="mix-blend-mode:screen"><path d="M205.431,567.79v-20.77h-20.77v20.77h20.77Z" fill="#fff"/></g><g style="mix-blend-mode:screen"><path d="M205.431,594.24v-20.77h-20.77v20.77h20.77Z" fill="#fff"/></g><g style="mix-blend-mode:screen"><path d="M178.991,514.9v-20.77h-20.77v20.77h20.77Z" fill="#fff"/></g><g style="mix-blend-mode:screen"><path d="M178.981,541.34v-20.77h-20.77v20.77h20.77Z" fill="#fff"/></g><g style="mix-blend-mode:screen"><path d="M178.981,567.79v-20.77h-20.77v20.77h20.77Z" fill="#fff"/></g><g style="mix-blend-mode:screen"><path d="M178.991,594.23v-20.77h-20.77v20.77h20.77Z" fill="#fff"/></g><g style="mix-blend-mode:screen"><path d="M152.541,514.9v-20.77h-20.77v20.77h20.77Z" fill="#fff"/></g><g style="mix-blend-mode:screen"><path d="M152.541,541.35v-20.77h-20.77v20.77h20.77Z" fill="#fff"/></g><g style="mix-blend-mode:screen"><path d="M152.541,567.79v-20.77h-20.77v20.77h20.77Z" fill="#fff"/></g><g style="mix-blend-mode:screen"><path d="M152.541,594.23v-20.77h-20.77v20.77h20.77Z" fill="#fff"/></g></g><path d="M215.621,414.08h-118.4403v4.62h118.4403v-4.62Z" fill="#dce1ff"/><path d="M206.411,421.59h-100.01v4.62h100.01v-4.62Z" fill="#dce1ff"/><path d="M132.131,477.37c.026.291-.037.584-.18.839s-.36.461-.622.591c-.262.129-.557.177-.847.136-.289-.042-.56-.169-.775-.367-.216-.198-.367-.456-.433-.741s-.045-.583.062-.856c.106-.272.293-.506.534-.671.242-.164.528-.252.821-.251.365-.014.721.117.991.364.269.247.43.591.449.956v0Z" fill="#fff"/><path d="M139.631,477.37c.028.294-.033.589-.176.847s-.36.467-.624.599-.561.181-.853.14c-.292-.04-.565-.168-.783-.366-.218-.199-.371-.459-.439-.746-.067-.287-.046-.588.06-.862.107-.275.295-.511.538-.678.244-.166.532-.255.827-.254.367-.016.725.113.997.361.272.247.435.592.453.959v0Z" fill="#fff"/><path d="M147.211,477.37c.028.294-.033.589-.176.847s-.36.467-.624.599-.561.181-.853.14c-.292-.04-.565-.168-.783-.366-.219-.199-.371-.459-.439-.746-.067-.287-.046-.588.06-.862.107-.275.295-.511.538-.678.244-.166.532-.255.827-.254.367-.016.725.113.997.361.272.247.434.592.453.959v0Z" fill="#fff"/><path d="M154.741,477.37c.026.291-.037.584-.18.839s-.36.461-.622.591c-.262.129-.557.177-.847.136-.289-.042-.56-.169-.775-.367-.216-.198-.367-.456-.433-.741s-.045-.583.062-.856c.106-.272.293-.506.534-.671.242-.164.528-.252.821-.251.181-.008.362.02.532.082.171.062.328.157.461.279.134.123.242.271.319.435.077.165.12.343.128.524Z" fill="#fff"/><path d="M162.281,477.37c.026.291-.036.583-.179.838s-.359.461-.62.591c-.262.13-.557.177-.846.137s-.56-.167-.776-.364c-.216-.196-.367-.454-.435-.738-.067-.284-.047-.582.058-.855.105-.272.29-.507.53-.673.241-.165.526-.255.818-.256.367-.016.725.113.997.361.272.247.434.592.453.959v0Z" fill="#fff"/><path d="M169.821,477.37c.028.294-.033.589-.176.847s-.36.467-.624.599-.561.181-.853.14c-.292-.04-.565-.168-.783-.366-.219-.199-.371-.459-.439-.746-.067-.287-.046-.588.06-.862.107-.275.295-.511.538-.678.244-.166.532-.255.827-.254.367-.016.725.113.997.361.272.247.434.592.453.959v0Z" fill="#fff"/><path d="M177.351,477.37c.026.291-.037.584-.18.839s-.359.461-.622.591c-.262.129-.557.177-.847.136-.289-.042-.56-.169-.775-.367-.216-.198-.367-.456-.433-.741s-.044-.583.062-.856c.106-.272.293-.506.534-.671.242-.164.528-.252.821-.251.181-.008.362.02.533.082.17.062.327.157.46.279.134.123.242.271.319.435.077.165.12.343.128.524Z" fill="#fff"/><path d="M184.891,477.37c.026.291-.036.583-.179.838s-.359.461-.62.591c-.262.13-.557.177-.846.137s-.56-.167-.776-.364c-.216-.196-.367-.454-.435-.738-.067-.284-.047-.582.058-.855.105-.272.29-.507.53-.673.241-.165.526-.255.818-.256.367-.016.725.113.997.361.272.247.434.592.453.959Z" fill="#fff"/><path d="M204.101,457.48h-97.47c-.175,0-.348-.034-.509-.101-.162-.067-.308-.165-.431-.289-.122-.122-.218-.268-.283-.427-.065-.16-.098-.331-.097-.503v-13.3c-.003-.351.134-.689.38-.94.252-.243.589-.379.94-.38h97.45c.174-.002.347.03.508.095.161.066.308.162.432.285.248.25.388.588.39.94v13.3c-.003.351-.144.687-.393.934-.25.247-.586.386-.937.386h.02Z" fill="#fff"/><path d="M204.101,482.26h-97.47c-.175,0-.348-.034-.509-.101-.162-.067-.308-.165-.431-.289-.122-.122-.218-.268-.283-.427-.065-.16-.098-.331-.097-.503v-13.3c-.003-.351.134-.689.38-.94.252-.243.589-.379.94-.38h97.45c.35.001.687.137.94.38.248.25.388.588.39.94v13.3c-.003.351-.144.687-.393.934-.25.247-.586.386-.937.386h.02Z" fill="#4858e8"/><path d="M117.211,450c1.1,0,2.86-1.78,2.86-3.69.041-.402-.003-.809-.129-1.193-.125-.384-.33-.738-.601-1.038s-.602-.54-.972-.704c-.369-.164-.769-.249-1.173-.249-.405,0-.804.085-1.174.249-.369.164-.7.404-.971.704s-.476.654-.602,1.038-.169.791-.128,1.193c0,1.94,1.77,3.69,2.89,3.69Z" fill="#4858e8"/><path d="M123.041,454.08c-.081-.471-.265-.919-.54-1.31-.263-.342-.607-.613-1-.79-.643-.308-1.312-.556-2-.74-1.526-.413-3.135-.413-4.66,0-.689.182-1.359.43-2,.74-.392.18-.734.451-1,.79-.272.392-.453.839-.53,1.31c0,.13-.1.78-.19,1.82h12.11c-.1-1.04-.16-1.69-.19-1.82Z" fill="#4858e8"/><path d="M117.201,467.93c-.787.013-1.538.335-2.089.896-.552.561-.861,1.317-.861,2.104v2.6c0,.154.061.301.169.41.109.109.257.17.411.17.153,0,.301-.061.41-.17s.17-.256.17-.41v-2.6c.001-.357.109-.705.31-1c.161-.252.382-.459.644-.603.263-.143.557-.219.856-.219s.593.076.855.219c.262.144.484.351.645.603.197.296.301.644.3,1v2.6c.018.142.088.272.195.367.108.094.246.146.39.146.143,0,.281-.052.389-.146.107-.095.177-.225.196-.367v-2.6c0-.794-.315-1.555-.876-2.118-.56-.562-1.32-.879-2.114-.882v0Z" fill="#fff"/><path d="M121.111,472.88c-.075-.076-.163-.136-.261-.177-.098-.042-.203-.063-.309-.063h-6.68c-.107,0-.212.021-.31.063-.097.041-.186.101-.26.177-.074.074-.132.161-.171.257-.04.096-.06.199-.059.303v5.74c-.002.105.018.21.058.308.039.097.098.186.173.261.074.074.163.133.261.173s.202.059.308.058h6.68c.105.001.21-.018.307-.058.098-.04.187-.099.261-.173.075-.075.134-.164.173-.261.04-.098.06-.203.059-.308v-5.74c0-.104-.02-.207-.06-.303-.039-.096-.097-.183-.17-.257v0Zm-3.09,4.27l.19.88c.007.044.006.088-.004.131-.011.043-.03.084-.056.119-.028.034-.063.062-.103.081s-.083.029-.127.029h-1.45c-.043-.002-.084-.012-.122-.031s-.072-.046-.098-.079c-.03-.034-.05-.074-.061-.118-.01-.043-.01-.089.001-.132l.37-1.75c-.139-.099-.253-.229-.331-.38-.078-.152-.119-.32-.119-.49-.015-.151.002-.304.05-.448s.126-.277.228-.389c.102-.113.227-.203.365-.264.139-.062.29-.093.442-.093s.302.031.441.093c.139.061.263.151.365.264.103.112.18.245.228.389s.065.297.051.448c.001.17-.038.337-.114.489-.077.151-.189.282-.326.381l.18.87Z" fill="#fff"/><path d="M139.631,449.51c0,.281-.084.555-.24.789-.156.233-.377.415-.637.523-.259.107-.545.136-.82.081-.276-.055-.529-.19-.727-.389-.199-.198-.334-.452-.389-.727s-.027-.561.081-.82c.107-.26.289-.482.523-.638.233-.156.508-.239.789-.239.376,0,.737.15,1.004.416.266.266.416.627.416,1.004v0Z" fill="#4858e8"/><path d="M146.971,449.51c0,.281-.084.555-.24.789-.156.233-.378.415-.637.523-.259.107-.545.136-.82.081-.276-.055-.529-.19-.727-.389-.199-.198-.334-.452-.389-.727s-.027-.561.081-.82c.107-.26.289-.482.523-.638.233-.156.508-.239.789-.239.375.003.735.153,1.001.419s.416.625.419,1.001v0Z" fill="#4858e8"/><path d="M154.351,449.51c0,.281-.084.555-.24.789-.156.233-.377.415-.637.523-.259.107-.545.136-.82.081-.276-.055-.529-.19-.727-.389-.199-.198-.334-.452-.389-.727s-.027-.561.081-.82c.107-.26.289-.482.523-.638.233-.156.508-.239.789-.239.376,0,.737.15,1.004.416.266.266.416.627.416,1.004v0Z" fill="#4858e8"/><path d="M161.741,449.51c0,.281-.084.555-.24.789-.156.233-.377.415-.637.523-.259.107-.545.136-.82.081-.276-.055-.529-.19-.727-.389-.199-.198-.334-.452-.389-.727s-.027-.561.081-.82c.107-.26.289-.482.523-.638.233-.156.508-.239.789-.239.375.003.735.153,1.001.419s.416.625.419,1.001v0Z" fill="#4858e8"/><path d="M169.121,449.51c0,.281-.084.556-.24.79-.157.234-.379.416-.639.523s-.546.135-.822.079-.529-.192-.727-.391c-.198-.2-.333-.454-.386-.73-.054-.276-.024-.562.085-.821.109-.26.292-.481.527-.636.235-.154.51-.236.792-.234.375.003.733.153.997.419s.413.626.413,1.001v0Z" fill="#4858e8"/><path d="M176.511,449.51c0,.281-.084.555-.24.789-.156.233-.377.415-.637.523-.259.107-.545.136-.82.081-.276-.055-.529-.19-.727-.389-.199-.198-.334-.452-.389-.727s-.027-.561.081-.82c.107-.26.289-.482.523-.638.233-.156.508-.239.789-.239.375.003.735.153,1.001.419s.416.625.419,1.001v0Z" fill="#4858e8"/><path d="M183.901,449.51c0,.281-.084.555-.24.789-.156.233-.377.415-.637.523-.259.107-.545.136-.82.081-.276-.055-.529-.19-.727-.389-.199-.198-.334-.452-.389-.727s-.027-.561.081-.82c.107-.26.289-.482.523-.638.233-.156.508-.239.789-.239.375.003.735.153,1.001.419s.416.625.419,1.001v0Z" fill="#4858e8"/><path d="M191.281,449.51c0,.281-.084.555-.24.789-.156.233-.377.415-.637.523-.259.107-.545.136-.82.081-.276-.055-.529-.19-.727-.389-.199-.198-.334-.452-.389-.727s-.027-.561.081-.82c.107-.26.289-.482.523-.638.233-.156.508-.239.789-.239.376,0,.737.15,1.004.416.266.266.416.627.416,1.004v0Z" fill="#4858e8"/><path d="M138.161,476.83c.784,0,1.42-.636,1.42-1.42s-.636-1.42-1.42-1.42c-.785,0-1.42.636-1.42,1.42s.635,1.42,1.42,1.42Z" transform="translate(0-1.12)" fill="#fff"/><path d="M145.551,476.83c.784,0,1.42-.636,1.42-1.42s-.636-1.42-1.42-1.42c-.785,0-1.42.636-1.42,1.42s.635,1.42,1.42,1.42Z" fill="#fff"/><path d="M154.351,475.41c.002.281-.08.557-.235.792-.155.234-.376.418-.635.527s-.545.139-.821.085-.53-.188-.73-.386c-.199-.199-.336-.452-.391-.727-.056-.276-.028-.562.079-.822s.289-.483.523-.639c.233-.156.508-.24.79-.24.375,0,.734.148,1,.412s.417.623.42.998v0Z" fill="#fff"/><path d="M160.321,476.83c.784,0,1.42-.636,1.42-1.42s-.636-1.42-1.42-1.42c-.785,0-1.42.636-1.42,1.42s.635,1.42,1.42,1.42Z" fill="#fff"/><path d="M169.121,475.41c0,.281-.084.556-.24.79-.157.234-.379.416-.639.523s-.546.135-.822.079-.529-.192-.727-.392c-.198-.199-.333-.453-.386-.729-.054-.276-.024-.562.085-.821.109-.26.292-.481.527-.636.235-.154.51-.236.792-.234.375.003.733.153.997.419s.413.626.413,1.001v0Z" fill="#fff"/><path d="M175.091,476.83c.784,0,1.42-.636,1.42-1.42s-.636-1.42-1.42-1.42c-.785,0-1.42.636-1.42,1.42s.635,1.42,1.42,1.42Z" fill="#fff"/><path d="M182.481,476.83c.784,0,1.42-.636,1.42-1.42s-.636-1.42-1.42-1.42c-.785,0-1.42.636-1.42,1.42s.635,1.42,1.42,1.42Z" fill="#fff"/><path d="M191.281,475.41c0,.281-.084.555-.24.789-.156.233-.377.415-.637.523-.259.107-.545.135-.82.081-.276-.055-.529-.19-.727-.389-.199-.198-.334-.452-.389-.727s-.027-.561.081-.82c.107-.26.289-.482.523-.638.233-.156.508-.239.789-.239.376,0,.737.15,1.004.416.266.266.416.627.416,1.004v0Z" fill="#fff"/><path d="M215.621,609.32h-118.4403v4.62h118.4403v-4.62Z" fill="#dce1ff"/><path d="M206.411,616.83h-100.01v4.62h100.01v-4.62Z" fill="#dce1ff"/><path d="M155.431,584.48h-.05c-8.58,0-16.38-5.56-21.39-15.26-2.815-5.66-4.599-11.775-5.27-18.06-.037-.317.053-.636.251-.886s.487-.412.804-.449.635.053.886.251c.25.198.412.487.449.804.632,5.997,2.325,11.835,5,17.24c4.59,8.87,11.61,14,19.26,14h.05c.167-.015.336.005.495.058.16.054.306.14.43.253.125.114.224.252.292.406.067.154.103.32.103.488s-.036.334-.103.488c-.068.154-.167.292-.292.406-.124.113-.27.199-.43.253-.159.053-.328.073-.495.058l.01-.05Zm7.27-1.51c-.236-.001-.466-.071-.663-.201-.197-.129-.353-.313-.447-.529-.124-.295-.126-.626-.006-.922s.352-.532.646-.658c5-2.11,9.25-6.45,12.4-12.54c3.51-6.78,5.44-15.51,5.44-24.57c0-.318.126-.623.351-.849.225-.225.53-.351.849-.351.318,0,.623.126.848.351.225.226.352.531.352.849c0,9.44-2,18.56-5.7,25.67-3.42,6.6-8.12,11.32-13.6,13.65-.145.078-.306.122-.47.13v-.03Zm-33.22-38.21c-.157.001-.313-.028-.459-.088-.145-.059-.278-.146-.389-.257-.112-.111-.2-.242-.261-.387-.06-.145-.091-.301-.091-.458c0-9.44,2-18.57,5.71-25.69c3.41-6.61,8.13-11.33,13.62-13.66.288-.093.6-.075.875.05.276.126.494.351.612.629.118.279.127.592.026.877s-.306.522-.573.664c-5,2.1-9.27,6.44-12.43,12.55-3.5,6.78-5.44,15.5-5.44,24.56.001.158-.029.316-.089.462-.06.147-.148.281-.259.393-.112.113-.245.202-.391.263s-.303.092-.461.092v0Zm51.35-7.5c-.296-.001-.58-.11-.8-.308-.219-.197-.358-.468-.39-.762-.639-5.983-2.332-11.807-5-17.2-4.58-8.87-11.6-14-19.25-14-.159.001-.317-.029-.464-.088-.147-.06-.282-.148-.395-.259-.113-.112-.203-.244-.265-.391-.062-.146-.095-.303-.096-.462-.002-.157.028-.313.087-.458.06-.146.147-.278.258-.39.11-.111.242-.2.387-.26.145-.061.301-.092.458-.092c8.58,0,16.4,5.56,21.42,15.25c2.8,5.643,4.581,11.737,5.26,18c.034.318-.058.636-.257.887-.198.25-.486.413-.803.453l-.15.08Z" fill="#4858e8"/><path d="M155.421,577c-6.21,0-11.95-4.21-15.75-11.56-3.09-6-4.79-13.74-4.79-21.85.002-2.004.105-4.006.31-6c.054-.3.22-.568.464-.751s.548-.268.851-.236c.304.032.584.177.785.406s.308.526.3.831c-.201,1.907-.301,3.823-.3,5.74c0,7.74,1.6,15.1,4.52,20.74c3.37,6.53,8.33,10.27,13.61,10.27.318,0,.623.126.848.351.225.226.352.531.352.849s-.127.624-.352.849-.53.351-.848.351v.01Zm7.37-2.34c-.257-.004-.506-.091-.711-.246-.204-.155-.354-.371-.428-.618-.073-.246-.067-.509.019-.751s.247-.45.46-.595c2.93-2.09,5.288-4.882,6.86-8.12c2.91-5.64,4.52-13,4.52-20.74.012-4.492-.559-8.966-1.7-13.31-.059-.3-.001-.611.161-.871.161-.259.415-.448.711-.528.295-.079.609-.045.88.098.27.143.477.382.578.671c1.195,4.55,1.79,9.236,1.77,13.94c0,8.11-1.7,15.87-4.79,21.85-1.759,3.594-4.393,6.689-7.66,9-.203.121-.435.183-.67.18v.04Zm-25-43.45c-.103.01-.207.01-.31,0-.154-.041-.298-.111-.424-.208-.126-.096-.231-.217-.31-.355-.079-.137-.13-.289-.15-.447-.02-.157-.009-.317.034-.47.711-2.747,1.717-5.409,3-7.94c3.8-7.35,9.54-11.57,15.75-11.57s11.94,4.22,15.74,11.57c.062.11.119.224.17.34.143.285.167.615.067.918-.101.303-.317.554-.602.697s-.616.167-.919.067-.553-.317-.696-.602l-.15-.32c-3.38-6.52-8.34-10.26-13.61-10.26s-10.24,3.74-13.61,10.26c-1.211,2.381-2.163,4.886-2.84,7.47-.086.239-.243.445-.451.59s-.456.222-.709.22l.02.04Z" fill="#4858e8"/><path d="M155.391,567.49c-4.52,0-8.7-3-11.44-8.36-2.253-4.885-3.42-10.201-3.42-15.58c0-5.38,1.167-10.695,3.42-15.58.847-1.671,1.931-3.21,3.22-4.57.228-.199.524-.305.827-.297s.592.13.81.342c.218.211.348.496.365.799s-.08.601-.272.836c-1.132,1.185-2.079,2.534-2.81,4-2.083,4.542-3.161,9.479-3.161,14.475s1.078,9.934,3.161,14.475c2.31,4.48,5.72,7.05,9.3,7.05.167-.015.336.005.495.058.16.054.306.14.43.253.125.114.224.252.292.406.067.153.103.32.103.488s-.036.334-.103.488c-.068.154-.167.292-.292.406-.124.113-.27.199-.43.253-.159.053-.328.073-.495.058Zm7.34-3.43c-.313-.004-.613-.126-.84-.34-.112-.112-.201-.244-.262-.39-.06-.146-.091-.302-.091-.46s.031-.314.091-.46c.061-.146.15-.278.262-.39c1.121-1.192,2.064-2.539,2.8-4c2.076-4.543,3.15-9.48,3.15-14.475s-1.074-9.932-3.15-14.475c-2.32-4.48-5.71-7.06-9.3-7.06-.158,0-.314-.031-.46-.091-.145-.061-.277-.149-.389-.26-.111-.112-.2-.244-.26-.39-.06-.145-.091-.301-.091-.459s.031-.314.091-.459c.06-.146.149-.278.26-.39.112-.111.244-.199.389-.26.146-.06.302-.091.46-.091v0c4.53,0,8.7,3,11.44,8.35c2.253,4.885,3.419,10.2,3.419,15.58c0,5.379-1.166,10.695-3.419,15.58-.84,1.67-1.922,3.206-3.21,4.56-.115.121-.253.217-.406.283-.153.065-.318.098-.484.097v0Z" fill="#4858e8"/><path d="M155.381,557.34c-2.7,0-5.19-1.8-6.8-4.92-1.291-2.779-1.96-5.806-1.96-8.87s.669-6.091,1.96-8.87c1.61-3.12,4.09-4.91,6.8-4.91s5.18,1.79,6.8,4.91c1.331,2.765,1.999,5.802,1.95,8.87.018,2.446-.392,4.875-1.21,7.18-.112.298-.337.54-.627.672-.29.133-.62.144-.918.033-.299-.111-.541-.337-.673-.626-.132-.29-.144-.621-.032-.919.72-2.035,1.078-4.181,1.06-6.34.049-2.683-.53-5.34-1.69-7.76-1.19-2.3-2.89-3.62-4.66-3.62s-3.48,1.32-4.67,3.62c-1.107,2.439-1.68,5.087-1.68,7.765s.573,5.326,1.68,7.765c1.19,2.3,2.89,3.61,4.67,3.61.157.001.313.034.458.095.145.062.277.151.387.264.111.112.198.245.257.391s.089.302.088.46c-.005.315-.132.616-.354.839-.222.224-.521.353-.836.361v0Z" fill="#4858e8"/><path d="M155.381,547.85c-.436-.03-.855-.182-1.208-.438-.354-.257-.628-.607-.792-1.012-.428-.888-.644-1.864-.63-2.85-.015-.983.201-1.956.63-2.84.092-.452.337-.859.694-1.151s.804-.451,1.266-.451c.461,0,.908.159,1.265.451.358.292.603.699.695,1.151.425.885.638,1.858.62,2.84.016.985-.196,1.961-.62,2.85-.159.393-.422.735-.76.991-.338.255-.739.414-1.16.459Z" fill="#4858e8"/></g><g><path d="M47.7707,443.84c-11.06,11.84-28.71,21.55-47.59004,25.69c0,1.26,0,8.25-.18,40.46-.19,43,40.69004,64,47.00004,67.18c6.15-2.83,47.56-23.8,47.75-66.76.14-32.21.18-39.2.18-40.46-18.8-4.3-36.21-14.17-47.16-26.11Z" fill="#f1835a"/><path d="M47.6307,448.5c-11.36,10.5-27.16,18.68-44.52,23.16L2.9307,510c-.07,17.53,6.89,33.4,20.71,47.15c6.9373,6.843,14.8457,12.625,23.47,17.16l.66-.34v-125.38l-.14-.09Z" opacity="0.61" fill="#fff"/><path d="M47.7706,448.59v125.41c8.4235-4.405,16.1695-9.999,23-16.61c13.94-13.63,21.05-29.43,21.12-47l.18-38.33c-17.32-4.63-33-12.96-44.3-23.47Z" opacity="0.61" fill="#cecece"/></g><script><![CDATA[!function(t,n){"object"==typeof exports&&"undefined"!=typeof module?module.exports=n():"function"==typeof define&&define.amd?define(n):((t="undefined"!=typeof globalThis?globalThis:t||self).__SVGATOR_PLAYER__=t.__SVGATOR_PLAYER__||{},t.__SVGATOR_PLAYER__["5c7f360c"]=n())}(this,(function(){"use strict";function t(t,n){var r=Object.keys(t);if(Object.getOwnPropertySymbols){var e=Object.getOwnPropertySymbols(t);n&&(e=e.filter((function(n){return Object.getOwnPropertyDescriptor(t,n).enumerable}))),r.push.apply(r,e)}return r}function n(n){for(var r=1;r<arguments.length;r++){var e=null!=arguments[r]?arguments[r]:{};r%2?t(Object(e),!0).forEach((function(t){u(n,t,e[t])})):Object.getOwnPropertyDescriptors?Object.defineProperties(n,Object.getOwnPropertyDescriptors(e)):t(Object(e)).forEach((function(t){Object.defineProperty(n,t,Object.getOwnPropertyDescriptor(e,t))}))}return n}function r(t){return(r="function"==typeof Symbol&&"symbol"==typeof Symbol.iterator?function(t){return typeof t}:function(t){return t&&"function"==typeof Symbol&&t.constructor===Symbol&&t!==Symbol.prototype?"symbol":typeof t})(t)}function e(t,n){if(!(t instanceof n))throw new TypeError("Cannot call a class as a function")}function i(t,n){for(var r=0;r<n.length;r++){var e=n[r];e.enumerable=e.enumerable||!1,e.configurable=!0,"value"in e&&(e.writable=!0),Object.defineProperty(t,e.key,e)}}function o(t,n,r){return n&&i(t.prototype,n),r&&i(t,r),t}function u(t,n,r){return n in t?Object.defineProperty(t,n,{value:r,enumerable:!0,configurable:!0,writable:!0}):t[n]=r,t}function a(t){return(a=Object.setPrototypeOf?Object.getPrototypeOf:function(t){return t.__proto__||Object.getPrototypeOf(t)})(t)}function l(t,n){return(l=Object.setPrototypeOf||function(t,n){return t.__proto__=n,t})(t,n)}function f(){if("undefined"==typeof Reflect||!Reflect.construct)return!1;if(Reflect.construct.sham)return!1;if("function"==typeof Proxy)return!0;try{return Boolean.prototype.valueOf.call(Reflect.construct(Boolean,[],(function(){}))),!0}catch(t){return!1}}function s(t,n,r){return(s=f()?Reflect.construct:function(t,n,r){var e=[null];e.push.apply(e,n);var i=new(Function.bind.apply(t,e));return r&&l(i,r.prototype),i}).apply(null,arguments)}function c(t,n){if(n&&("object"==typeof n||"function"==typeof n))return n;if(void 0!==n)throw new TypeError("Derived constructors may only return object or undefined");return function(t){if(void 0===t)throw new ReferenceError("this hasn't been initialised - super() hasn't been called");return t}(t)}function h(t,n,r){return(h="undefined"!=typeof Reflect&&Reflect.get?Reflect.get:function(t,n,r){var e=function(t,n){for(;!Object.prototype.hasOwnProperty.call(t,n)&&null!==(t=a(t)););return t}(t,n);if(e){var i=Object.getOwnPropertyDescriptor(e,n);return i.get?i.get.call(r):i.value}})(t,n,r||t)}function v(t){return function(t){if(Array.isArray(t))return y(t)}(t)||function(t){if("undefined"!=typeof Symbol&&null!=t[Symbol.iterator]||null!=t["@@iterator"])return Array.from(t)}(t)||function(t,n){if(!t)return;if("string"==typeof t)return y(t,n);var r=Object.prototype.toString.call(t).slice(8,-1);"Object"===r&&t.constructor&&(r=t.constructor.name);if("Map"===r||"Set"===r)return Array.from(t);if("Arguments"===r||/^(?:Ui|I)nt(?:8|16|32)(?:Clamped)?Array$/.test(r))return y(t,n)}(t)||function(){throw new TypeError("Invalid attempt to spread non-iterable instance.\nIn order to be iterable, non-array objects must have a [Symbol.iterator]() method.")}()}function y(t,n){(null==n||n>t.length)&&(n=t.length);for(var r=0,e=new Array(n);r<n;r++)e[r]=t[r];return e}var g=d(Math.pow(10,-6));function d(t){var n=arguments.length>1&&void 0!==arguments[1]?arguments[1]:6;if(Number.isInteger(t))return t;var r=Math.pow(10,n);return Math.round((+t+Number.EPSILON)*r)/r}function p(t,n){var r=arguments.length>2&&void 0!==arguments[2]?arguments[2]:g;return Math.abs(t-n)<r}var m=Math.PI/180;function b(t){return t}function w(t,n,r){var e=1-r;return 3*r*e*(t*e+n*r)+r*r*r}function A(){var t=arguments.length>0&&void 0!==arguments[0]?arguments[0]:0,n=arguments.length>1&&void 0!==arguments[1]?arguments[1]:0,r=arguments.length>2&&void 0!==arguments[2]?arguments[2]:1,e=arguments.length>3&&void 0!==arguments[3]?arguments[3]:1;return t<0||t>1||r<0||r>1?null:p(t,n)&&p(r,e)?b:function(i){if(i<=0)return t>0?i*n/t:0===n&&r>0?i*e/r:0;if(i>=1)return r<1?1+(i-1)*(e-1)/(r-1):1===r&&t<1?1+(i-1)*(n-1)/(t-1):1;for(var o,u=0,a=1;u<a;){var l=w(t,r,o=(u+a)/2);if(p(i,l))break;l<i?u=o:a=o}return w(n,e,o)}}function x(){return 1}function k(t){return 1===t?1:0}function S(){var t=arguments.length>0&&void 0!==arguments[0]?arguments[0]:1,n=arguments.length>1&&void 0!==arguments[1]?arguments[1]:0;if(1===t){if(0===n)return k;if(1===n)return x}var r=1/t;return function(t){return t>=1?1:(t+=n*r)-t%r}}var _=Math.sin,O=Math.cos,j=Math.acos,M=Math.asin,P=Math.tan,E=Math.atan2,I=Math.PI/180,R=180/Math.PI,F=Math.sqrt,N=function(){function t(){var n=arguments.length>0&&void 0!==arguments[0]?arguments[0]:1,r=arguments.length>1&&void 0!==arguments[1]?arguments[1]:0,i=arguments.length>2&&void 0!==arguments[2]?arguments[2]:0,o=arguments.length>3&&void 0!==arguments[3]?arguments[3]:1,u=arguments.length>4&&void 0!==arguments[4]?arguments[4]:0,a=arguments.length>5&&void 0!==arguments[5]?arguments[5]:0;e(this,t),this.m=[n,r,i,o,u,a],this.i=null,this.w=null,this.s=null}return o(t,[{key:"determinant",get:function(){var t=this.m;return t[0]*t[3]-t[1]*t[2]}},{key:"isIdentity",get:function(){if(null===this.i){var t=this.m;this.i=1===t[0]&&0===t[1]&&0===t[2]&&1===t[3]&&0===t[4]&&0===t[5]}return this.i}},{key:"point",value:function(t,n){var r=this.m;return{x:r[0]*t+r[2]*n+r[4],y:r[1]*t+r[3]*n+r[5]}}},{key:"translateSelf",value:function(){var t=arguments.length>0&&void 0!==arguments[0]?arguments[0]:0,n=arguments.length>1&&void 0!==arguments[1]?arguments[1]:0;if(!t&&!n)return this;var r=this.m;return r[4]+=r[0]*t+r[2]*n,r[5]+=r[1]*t+r[3]*n,this.w=this.s=this.i=null,this}},{key:"rotateSelf",value:function(){var t=arguments.length>0&&void 0!==arguments[0]?arguments[0]:0;if(t%=360){var n=_(t*=I),r=O(t),e=this.m,i=e[0],o=e[1];e[0]=i*r+e[2]*n,e[1]=o*r+e[3]*n,e[2]=e[2]*r-i*n,e[3]=e[3]*r-o*n,this.w=this.s=this.i=null}return this}},{key:"scaleSelf",value:function(){var t=arguments.length>0&&void 0!==arguments[0]?arguments[0]:1,n=arguments.length>1&&void 0!==arguments[1]?arguments[1]:1;if(1!==t||1!==n){var r=this.m;r[0]*=t,r[1]*=t,r[2]*=n,r[3]*=n,this.w=this.s=this.i=null}return this}},{key:"skewSelf",value:function(t,n){if(n%=360,(t%=360)||n){var r=this.m,e=r[0],i=r[1],o=r[2],u=r[3];t&&(t=P(t*I),r[2]+=e*t,r[3]+=i*t),n&&(n=P(n*I),r[0]+=o*n,r[1]+=u*n),this.w=this.s=this.i=null}return this}},{key:"resetSelf",value:function(){var t=arguments.length>0&&void 0!==arguments[0]?arguments[0]:1,n=arguments.length>1&&void 0!==arguments[1]?arguments[1]:0,r=arguments.length>2&&void 0!==arguments[2]?arguments[2]:0,e=arguments.length>3&&void 0!==arguments[3]?arguments[3]:1,i=arguments.length>4&&void 0!==arguments[4]?arguments[4]:0,o=arguments.length>5&&void 0!==arguments[5]?arguments[5]:0,u=this.m;return u[0]=t,u[1]=n,u[2]=r,u[3]=e,u[4]=i,u[5]=o,this.w=this.s=this.i=null,this}},{key:"recomposeSelf",value:function(){var t=arguments.length>0&&void 0!==arguments[0]?arguments[0]:null,n=arguments.length>1&&void 0!==arguments[1]?arguments[1]:null,r=arguments.length>2&&void 0!==arguments[2]?arguments[2]:null,e=arguments.length>3&&void 0!==arguments[3]?arguments[3]:null,i=arguments.length>4&&void 0!==arguments[4]?arguments[4]:null;return this.isIdentity||this.resetSelf(),t&&(t.x||t.y)&&this.translateSelf(t.x,t.y),n&&this.rotateSelf(n),r&&(r.x&&this.skewSelf(r.x,0),r.y&&this.skewSelf(0,r.y)),!e||1===e.x&&1===e.y||this.scaleSelf(e.x,e.y),i&&(i.x||i.y)&&this.translateSelf(i.x,i.y),this}},{key:"decompose",value:function(){var t=arguments.length>0&&void 0!==arguments[0]?arguments[0]:0,n=arguments.length>1&&void 0!==arguments[1]?arguments[1]:0,r=this.m,e=r[0]*r[0]+r[1]*r[1],i=[[r[0],r[1]],[r[2],r[3]]],o=F(e);if(0===o)return{origin:{x:d(r[4]),y:d(r[5])},translate:{x:d(t),y:d(n)},scale:{x:0,y:0},skew:{x:0,y:0},rotate:0};i[0][0]/=o,i[0][1]/=o;var u=r[0]*r[3]-r[1]*r[2]<0;u&&(o=-o);var a=i[0][0]*i[1][0]+i[0][1]*i[1][1];i[1][0]-=i[0][0]*a,i[1][1]-=i[0][1]*a;var l=F(i[1][0]*i[1][0]+i[1][1]*i[1][1]);if(0===l)return{origin:{x:d(r[4]),y:d(r[5])},translate:{x:d(t),y:d(n)},scale:{x:d(o),y:0},skew:{x:0,y:0},rotate:0};i[1][0]/=l,i[1][1]/=l,a/=l;var f=0;return i[1][1]<0?(f=j(i[1][1])*R,i[0][1]<0&&(f=360-f)):f=M(i[0][1])*R,u&&(f=-f),a=E(a,F(i[0][0]*i[0][0]+i[0][1]*i[0][1]))*R,u&&(a=-a),{origin:{x:d(r[4]),y:d(r[5])},translate:{x:d(t),y:d(n)},scale:{x:d(o),y:d(l)},skew:{x:d(a),y:0},rotate:d(f)}}},{key:"clone",value:function(){var t=this.m;return new this.constructor(t[0],t[1],t[2],t[3],t[4],t[5])}},{key:"toString",value:function(){var t=arguments.length>0&&void 0!==arguments[0]?arguments[0]:" ";if(null===this.s){var n=this.m.map((function(t){return d(t)}));1===n[0]&&0===n[1]&&0===n[2]&&1===n[3]?this.s="translate("+n[4]+t+n[5]+")":this.s="matrix("+n.join(t)+")"}return this.s}}],[{key:"create",value:function(t){return t?Array.isArray(t)?s(this,v(t)):t instanceof this?t.clone():(new this).recomposeSelf(t.origin,t.rotate,t.skew,t.scale,t.translate):new this}}]),t}();function T(t,n,r){return t>=.5?r:n}function B(t,n,r){return 0===t||n===r?n:t*(r-n)+n}function q(t,n,r){var e=B(t,n,r);return e<=0?0:e}function L(t,n,r){var e=B(t,n,r);return e<=0?0:e>=1?1:e}function C(t,n,r){return 0===t?n:1===t?r:{x:B(t,n.x,r.x),y:B(t,n.y,r.y)}}function D(t,n,r){var e=function(t,n,r){return Math.round(B(t,n,r))}(t,n,r);return e<=0?0:e>=255?255:e}function z(t,n,r){return 0===t?n:1===t?r:{r:D(t,n.r,r.r),g:D(t,n.g,r.g),b:D(t,n.b,r.b),a:B(t,null==n.a?1:n.a,null==r.a?1:r.a)}}function V(t,n){for(var r=[],e=0;e<t;e++)r.push(n);return r}function G(t,n){if(--n<=0)return t;var r=(t=Object.assign([],t)).length;do{for(var e=0;e<r;e++)t.push(t[e])}while(--n>0);return t}var Y,$=function(){function t(n){e(this,t),this.list=n,this.length=n.length}return o(t,[{key:"setAttribute",value:function(t,n){for(var r=this.list,e=0;e<this.length;e++)r[e].setAttribute(t,n)}},{key:"removeAttribute",value:function(t){for(var n=this.list,r=0;r<this.length;r++)n[r].removeAttribute(t)}},{key:"style",value:function(t,n){for(var r=this.list,e=0;e<this.length;e++)r[e].style[t]=n}}]),t}(),U=/-./g,Q=function(t,n){return n.toUpperCase()};function H(t){return"function"==typeof t?t:T}function J(t){return t?"function"==typeof t?t:Array.isArray(t)?function(t){var n=arguments.length>1&&void 0!==arguments[1]?arguments[1]:b;if(!Array.isArray(t))return n;switch(t.length){case 1:return S(t[0])||n;case 2:return S(t[0],t[1])||n;case 4:return A(t[0],t[1],t[2],t[3])||n}return n}(t,null):function(t,n){var r=arguments.length>2&&void 0!==arguments[2]?arguments[2]:b;switch(t){case"linear":return b;case"steps":return S(n.steps||1,n.jump||0)||r;case"bezier":case"cubic-bezier":return A(n.x1||0,n.y1||0,n.x2||0,n.y2||0)||r}return r}(t.type,t.value,null):null}function Z(t,n,r){var e=arguments.length>3&&void 0!==arguments[3]&&arguments[3],i=n.length-1;if(t<=n[0].t)return e?[0,0,n[0].v]:n[0].v;if(t>=n[i].t)return e?[i,1,n[i].v]:n[i].v;var o,u=n[0],a=null;for(o=1;o<=i;o++){if(!(t>n[o].t)){a=n[o];break}u=n[o]}return null==a?e?[i,1,n[i].v]:n[i].v:u.t===a.t?e?[o,1,a.v]:a.v:(t=(t-u.t)/(a.t-u.t),u.e&&(t=u.e(t)),e?[o,t,r(t,u.v,a.v)]:r(t,u.v,a.v))}function K(t,n){var r=arguments.length>2&&void 0!==arguments[2]?arguments[2]:null;return t&&t.length?"function"!=typeof n?null:("function"!=typeof r&&(r=null),function(e){var i=Z(e,t,n);return null!=i&&r&&(i=r(i)),i}):null}function W(t,n){return t.t-n.t}function X(t,n,e,i,o){var u,a="@"===e[0],l="#"===e[0],f=Y[e],s=T;switch(a?(u=e.substr(1),e=u.replace(U,Q)):l&&(e=e.substr(1)),r(f)){case"function":if(s=f(i,o,Z,J,e,a,n,t),l)return s;break;case"string":s=K(i,H(f));break;case"object":if((s=K(i,H(f.i),f.f))&&"function"==typeof f.u)return f.u(n,s,e,a,t)}return s?function(t,n,r){if(arguments.length>3&&void 0!==arguments[3]&&arguments[3])return t instanceof $?function(e){return t.style(n,r(e))}:function(e){return t.style[n]=r(e)};if(Array.isArray(n)){var e=n.length;return function(i){var o=r(i);if(null==o)for(var u=0;u<e;u++)t[u].removeAttribute(n);else for(var a=0;a<e;a++)t[a].setAttribute(n,o)}}return function(e){var i=r(e);null==i?t.removeAttribute(n):t.setAttribute(n,i)}}(n,e,s,a):null}function tt(t,n,e,i){if(!i||"object"!==r(i))return null;var o=null,u=null;return Array.isArray(i)?u=function(t){if(!t||!t.length)return null;for(var n=0;n<t.length;n++)t[n].e&&(t[n].e=J(t[n].e));return t.sort(W)}(i):(u=i.keys,o=i.data||null),u?X(t,n,e,u,o):null}function nt(t,n,r){if(!r)return null;var e=[];for(var i in r)if(r.hasOwnProperty(i)){var o=tt(t,n,i,r[i]);o&&e.push(o)}return e.length?e:null}function rt(t,n){if(!n.duration||n.duration<0)return null;var r=function(t,n){if(!n)return null;var r=[];if(Array.isArray(n))for(var e=n.length,i=0;i<e;i++){var o=n[i];if(2===o.length){var u=null;if("string"==typeof o[0])u=t.getElementById(o[0]);else if(Array.isArray(o[0])){u=[];for(var a=0;a<o[0].length;a++)if("string"==typeof o[0][a]){var l=t.getElementById(o[0][a]);l&&u.push(l)}u=u.length?1===u.length?u[0]:new $(u):null}if(u){var f=nt(t,u,o[1]);f&&(r=r.concat(f))}}}else for(var s in n)if(n.hasOwnProperty(s)){var c=t.getElementById(s);if(c){var h=nt(t,c,n[s]);h&&(r=r.concat(h))}}return r.length?r:null}(t,n.elements);return r?function(t,n){var r=arguments.length>2&&void 0!==arguments[2]?arguments[2]:1/0,e=arguments.length>3&&void 0!==arguments[3]?arguments[3]:1,i=arguments.length>4&&void 0!==arguments[4]&&arguments[4],o=arguments.length>5&&void 0!==arguments[5]?arguments[5]:1,u=t.length,a=e>0?n:0;i&&r%2==0&&(a=n-a);var l=null;return function(f,s){var c=f%n,h=1+(f-c)/n;s*=e,i&&h%2==0&&(s=-s);var v=!1;if(h>r)c=a,v=!0,-1===o&&(c=e>0?0:n);else if(s<0&&(c=n-c),c===l)return!1;l=c;for(var y=0;y<u;y++)t[y](c);return v}}(r,n.duration,n.iterations||1/0,n.direction||1,!!n.alternate,n.fill||1):null}function et(t){return+("0x"+(t.replace(/[^0-9a-fA-F]+/g,"")||27))}function it(t,n,r){return!t||!r||n>t.length?t:t.substring(0,n)+it(t.substring(n+1),r,r)}function ot(t){var n=arguments.length>1&&void 0!==arguments[1]?arguments[1]:27;return!t||t%n?t%n:ot(t/n,n)}function ut(t,n,r){if(t&&t.length){var e=et(r),i=et(n),o=ot(e)+5,u=it(t,ot(e,5),o);return u=u.replace(/\x7c$/g,"==").replace(/\x2f$/g,"="),u=function(t,n,r){var e=+("0x"+t.substring(0,4));t=t.substring(4);for(var i=n%e+r%27,o=[],u=0;u<t.length;u+=2)if("|"!==t[u]){var a=+("0x"+t[u]+t[u+1])-i;o.push(a)}else{var l=+("0x"+t.substring(u+1,u+1+4))-i;u+=3,o.push(l)}return String.fromCharCode.apply(String,o)}(u=(u=atob(u)).replace(/[\x41-\x5A]/g,""),i,e),u=JSON.parse(u)}}Number.isInteger||(Number.isInteger=function(t){return"number"==typeof t&&isFinite(t)&&Math.floor(t)===t}),Number.EPSILON||(Number.EPSILON=2220446049250313e-31);var at=function(){function t(n,r){var i=arguments.length>2&&void 0!==arguments[2]?arguments[2]:{};e(this,t),this._id=0,this._running=!1,this._rollingBack=!1,this._animations=n,this.duration=r.duration,this.alternate=r.alternate,this.fill=r.fill,this.iterations=r.iterations,this.direction=i.direction||1,this.speed=i.speed||1,this.fps=i.fps||100,this.offset=i.offset||0,this.rollbackStartOffset=0}return o(t,[{key:"_rollback",value:function(){var t=this,n=1/0,r=null;this.rollbackStartOffset=this.offset,this._rollingBack||(this._rollingBack=!0,this._running=!0);this._id=window.requestAnimationFrame((function e(i){if(t._rollingBack){null==r&&(r=i);var o=i-r,u=t.rollbackStartOffset-o,a=Math.round(u*t.speed);if(a>t.duration&&n!=1/0){var l=!!t.alternate&&a/t.duration%2>1,f=a%t.duration;a=(f+=l?t.duration:0)||t.duration}var s=t.fps?1e3/t.fps:0,c=Math.max(0,a);if(c<n-s){t.offset=c,n=c;for(var h=t._animations,v=h.length,y=0;y<v;y++)h[y](c,t.direction)}var g=!1;if(t.iterations>0&&-1===t.fill){var d=t.iterations*t.duration,p=d==a;a=p?0:a,t.offset=p?0:t.offset,g=a>d}a>0&&t.offset>=a&&!g?t._id=window.requestAnimationFrame(e):t.stop()}}))}},{key:"_start",value:function(){var t=this,n=arguments.length>0&&void 0!==arguments[0]?arguments[0]:0,r=-1/0,e=null,i={},o=function o(u){t._running=!0,null==e&&(e=u);var a=Math.round((u-e+n)*t.speed),l=t.fps?1e3/t.fps:0;if(a>r+l&&!t._rollingBack){t.offset=a,r=a;for(var f=t._animations,s=f.length,c=0,h=0;h<s;h++)i[h]?c++:(i[h]=f[h](a,t.direction),i[h]&&c++);if(c===s)return void t._stop()}t._id=window.requestAnimationFrame(o)};this._id=window.requestAnimationFrame(o)}},{key:"_stop",value:function(){this._id&&window.cancelAnimationFrame(this._id),this._running=!1,this._rollingBack=!1}},{key:"play",value:function(){!this._rollingBack&&this._running||(this._rollingBack=!1,this.rollbackStartOffset>this.duration&&(this.offset=this.rollbackStartOffset-(this.rollbackStartOffset-this.offset)%this.duration,this.rollbackStartOffset=0),this._start(this.offset))}},{key:"stop",value:function(){this._stop(),this.offset=0,this.rollbackStartOffset=0;var t=this.direction,n=this._animations;window.requestAnimationFrame((function(){for(var r=0;r<n.length;r++)n[r](0,t)}))}},{key:"reachedToEnd",value:function(){return this.iterations>0&&this.offset>=this.iterations*this.duration}},{key:"restart",value:function(){this._stop(),this.offset=0,this._start()}},{key:"pause",value:function(){this._stop()}},{key:"reverse",value:function(){this.direction=-this.direction}}],[{key:"build",value:function(r,e){return delete r.animationSettings,r.options=ut(r.options,r.root,"5c7f360c"),r.animations.map((function(t){var e=ut(t.s,r.root,"5c7f360c");for(var i in delete t.s,r.animationSettings||(r.animationSettings=n({},e)),e)e.hasOwnProperty(i)&&(t[i]=e[i])})),(r=function(t,n){if(Y=n,!t||!t.root||!Array.isArray(t.animations))return null;for(var r=document.getElementsByTagName("svg"),e=!1,i=0;i<r.length;i++)if(r[i].id===t.root&&!r[i].svgatorAnimation){(e=r[i]).svgatorAnimation=!0;break}if(!e)return null;var o=t.animations.map((function(t){return rt(e,t)})).filter((function(t){return!!t}));return o.length?{element:e,animations:o,animationSettings:t.animationSettings,options:t.options||void 0}:null}(r,e))?{el:r.element,options:r.options||{},player:new t(r.animations,r.animationSettings,r.options)}:null}},{key:"push",value:function(t){return this.build(t)}},{key:"init",value:function(){var t=this,n=window.__SVGATOR_PLAYER__&&window.__SVGATOR_PLAYER__["5c7f360c"];Array.isArray(n)&&n.splice(0).forEach((function(n){return t.build(n)}))}}]),t}();function lt(t){return d(t)+""}function ft(t){var n=arguments.length>1&&void 0!==arguments[1]?arguments[1]:" ";return t&&t.length?t.map(lt).join(n):""}function st(t){if(!t)return"transparent";if(null==t.a||t.a>=1){var n=function(t){return 1===(t=parseInt(t).toString(16)).length?"0"+t:t},r=function(t){return t.charAt(0)===t.charAt(1)},e=n(t.r),i=n(t.g),o=n(t.b);return r(e)&&r(i)&&r(o)&&(e=e.charAt(0),i=i.charAt(0),o=o.charAt(0)),"#"+e+i+o}return"rgba("+t.r+","+t.g+","+t.b+","+t.a+")"}function ct(t){return t?"url(#"+t+")":"none"}!function(){for(var t=0,n=["ms","moz","webkit","o"],r=0;r<n.length&&!window.requestAnimationFrame;++r)window.requestAnimationFrame=window[n[r]+"RequestAnimationFrame"],window.cancelAnimationFrame=window[n[r]+"CancelAnimationFrame"]||window[n[r]+"CancelRequestAnimationFrame"];window.requestAnimationFrame||(window.requestAnimationFrame=function(n){var r=Date.now(),e=Math.max(0,16-(r-t)),i=window.setTimeout((function(){n(r+e)}),e);return t=r+e,i},window.cancelAnimationFrame=window.clearTimeout)}();var ht={f:null,i:function(t,n,r){return 0===t?n:1===t?r:{x:q(t,n.x,r.x),y:q(t,n.y,r.y)}},u:function(t,n){return function(r){var e=n(r);t.setAttribute("rx",lt(e.x)),t.setAttribute("ry",lt(e.y))}}},vt={f:null,i:function(t,n,r){return 0===t?n:1===t?r:{width:q(t,n.width,r.width),height:q(t,n.height,r.height)}},u:function(t,n){return function(r){var e=n(r);t.setAttribute("width",lt(e.width)),t.setAttribute("height",lt(e.height))}}};Object.freeze({M:2,L:2,Z:0,H:1,V:1,C:6,Q:4,T:2,S:4,A:7});var yt={},gt=null;function dt(t){var n=function(){if(gt)return gt;if("object"!==("undefined"==typeof document?"undefined":r(document))||!document.createElementNS)return{};var t=document.createElementNS("http://www.w3.org/2000/svg","svg");return t&&t.style?(t.style.position="absolute",t.style.opacity="0.01",t.style.zIndex="-9999",t.style.left="-9999px",t.style.width="1px",t.style.height="1px",gt={svg:t}):{}}().svg;if(!n)return function(t){return null};var e=document.createElementNS(n.namespaceURI,"path");e.setAttributeNS(null,"d",t),e.setAttributeNS(null,"fill","none"),e.setAttributeNS(null,"stroke","none"),n.appendChild(e);var i=e.getTotalLength();return function(t){var n=e.getPointAtLength(i*t);return{x:n.x,y:n.y}}}function pt(t){return yt[t]?yt[t]:yt[t]=dt(t)}function mt(t,n,r,e){if(!t||!e)return!1;var i=["M",t.x,t.y];if(n&&r&&(i.push("C"),i.push(n.x),i.push(n.y),i.push(r.x),i.push(r.y)),n?!r:r){var o=n||r;i.push("Q"),i.push(o.x),i.push(o.y)}return n||r||i.push("L"),i.push(e.x),i.push(e.y),i.join(" ")}function bt(t,n,r,e){var i=arguments.length>4&&void 0!==arguments[4]?arguments[4]:1,o=mt(t,n,r,e),u=pt(o);try{return u(i)}catch(t){return null}}function wt(t,n,r){return t+(n-t)*r}function At(t,n,r){var e=arguments.length>3&&void 0!==arguments[3]&&arguments[3],i={x:wt(t.x,n.x,r),y:wt(t.y,n.y,r)};return e&&(i.a=xt(t,n)),i}function xt(t,n){return Math.atan2(n.y-t.y,n.x-t.x)}function kt(t,n,r,e){var i=1-e;return i*i*t+2*i*e*n+e*e*r}function St(t,n,r,e){return 2*(1-e)*(n-t)+2*e*(r-n)}function _t(t,n,r,e){var i=arguments.length>4&&void 0!==arguments[4]&&arguments[4],o=bt(t,n,null,r,e);return o||(o={x:kt(t.x,n.x,r.x,e),y:kt(t.y,n.y,r.y,e)}),i&&(o.a=Ot(t,n,r,e)),o}function Ot(t,n,r,e){return Math.atan2(St(t.y,n.y,r.y,e),St(t.x,n.x,r.x,e))}function jt(t,n,r,e,i){var o=i*i;return i*o*(e-t+3*(n-r))+3*o*(t+r-2*n)+3*i*(n-t)+t}function Mt(t,n,r,e,i){var o=1-i;return 3*(o*o*(n-t)+2*o*i*(r-n)+i*i*(e-r))}function Pt(t,n,r,e,i){var o=arguments.length>5&&void 0!==arguments[5]&&arguments[5],u=bt(t,n,r,e,i);return u||(u={x:jt(t.x,n.x,r.x,e.x,i),y:jt(t.y,n.y,r.y,e.y,i)}),o&&(u.a=Et(t,n,r,e,i)),u}function Et(t,n,r,e,i){return Math.atan2(Mt(t.y,n.y,r.y,e.y,i),Mt(t.x,n.x,r.x,e.x,i))}function It(t,n,r){var e=arguments.length>3&&void 0!==arguments[3]&&arguments[3];if(Ft(n)){if(Nt(r))return _t(n,r.start,r,t,e)}else if(Ft(r)){if(n.end)return _t(n,n.end,r,t,e)}else{if(n.end)return r.start?Pt(n,n.end,r.start,r,t,e):_t(n,n.end,r,t,e);if(r.start)return _t(n,r.start,r,t,e)}return At(n,r,t,e)}function Rt(t,n,r){var e=It(t,n,r,!0);return e.a=function(t){return arguments.length>1&&void 0!==arguments[1]&&arguments[1]?t+Math.PI:t}(e.a)/m,e}function Ft(t){return!t.type||"corner"===t.type}function Nt(t){return null!=t.start&&!Ft(t)}var Tt=new N;var Bt={f:lt,i:B},qt={f:lt,i:L};function Lt(t,n,r){return t.map((function(t){return function(t,n,r){var e=t.v;if(!e||"g"!==e.t||e.s||!e.v||!e.r)return t;var i=r.getElementById(e.r),o=i&&i.querySelectorAll("stop")||[];return e.s=e.v.map((function(t,n){var r=o[n]&&o[n].getAttribute("offset");return{c:t,o:r=d(parseInt(r)/100)}})),delete e.v,t}(t,0,r)}))}var Ct={gt:"gradientTransform",c:{x:"cx",y:"cy"},rd:"r",f:{x:"x1",y:"y1"},to:{x:"x2",y:"y2"}};function Dt(t,n,e,i,o,u,a,l){return Lt(t,0,l),n=function(t,n,r){for(var e,i,o,u=t.length-1,a={},l=0;l<=u;l++)(e=t[l]).e&&(e.e=n(e.e)),e.v&&"g"===(i=e.v).t&&i.r&&(o=r.getElementById(i.r))&&(a[i.r]={e:o,s:o.querySelectorAll("stop")});return a}(t,i,l),function(i){var o=e(i,t,zt);if(!o)return"none";if("c"===o.t)return st(o.v);if("g"===o.t){if(!n[o.r])return ct(o.r);var u=n[o.r];return function(t,n){for(var r=t.s,e=r.length;e<n.length;e++){var i=r[r.length-1].cloneNode();i.id=Yt(i.id),t.e.appendChild(i),r=t.s=t.e.querySelectorAll("stop")}for(var o=0,u=r.length,a=n.length-1;o<u;o++)r[o].setAttribute("stop-color",st(n[Math.min(o,a)].c)),r[o].setAttribute("offset",n[Math.min(o,a)].o)}(u,o.s),Object.keys(Ct).forEach((function(t){if(void 0!==o[t])if("object"!==r(Ct[t])){var n,e="gt"===t?(n=o[t],Array.isArray(n)?"matrix("+n.join(" ")+")":""):o[t],i=Ct[t];u.e.setAttribute(i,e)}else Object.keys(Ct[t]).forEach((function(n){if(void 0!==o[t][n]){var r=o[t][n],e=Ct[t][n];u.e.setAttribute(e,r)}}))})),ct(o.r)}return"none"}}function zt(t,r,e){if(0===t)return r;if(1===t)return e;if(r&&e){var i=r.t;if(i===e.t)switch(r.t){case"c":return{t:i,v:z(t,r.v,e.v)};case"g":if(r.r===e.r){var o={t:i,s:Vt(t,r.s,e.s),r:r.r};return r.gt&&e.gt&&(o.gt=function(t,n,r){var e=n.length;if(e!==r.length)return T(t,n,r);for(var i=new Array(e),o=0;o<e;o++)i[o]=B(t,n[o],r[o]);return i}(t,r.gt,e.gt)),r.c?(o.c=C(t,r.c,e.c),o.rd=q(t,r.rd,e.rd)):r.f&&(o.f=C(t,r.f,e.f),o.to=C(t,r.to,e.to)),o}}if("c"===r.t&&"g"===e.t||"c"===e.t&&"g"===r.t){var u="c"===r.t?r:e,a="g"===r.t?n({},r):n({},e),l=a.s.map((function(t){return{c:u.v,o:t.o}}));return a.s="c"===r.t?Vt(t,l,a.s):Vt(t,a.s,l),a}}return T(t,r,e)}function Vt(t,n,r){if(n.length===r.length)return n.map((function(n,e){return Gt(t,n,r[e])}));for(var e=Math.max(n.length,r.length),i=[],o=0;o<e;o++){var u=Gt(t,n[Math.min(o,n.length-1)],r[Math.min(o,r.length-1)]);i.push(u)}return i}function Gt(t,n,r){return{o:L(t,n.o,r.o||0),c:z(t,n.c,r.c||{})}}function Yt(t){return t.replace(/-fill-([0-9]+)$/,(function(t,n){return"-fill-"+(+n+1)}))}var $t={fill:Dt,"fill-opacity":qt,stroke:Dt,"stroke-opacity":qt,"stroke-width":Bt,"stroke-dashoffset":{f:lt,i:B},"stroke-dasharray":{f:function(t){var n=arguments.length>1&&void 0!==arguments[1]?arguments[1]:" ";return t&&t.length>0&&(t=t.map((function(t){return d(t,4)}))),ft(t,n)},i:function(t,n,r){var e,i,o,u=n.length,a=r.length;if(u!==a)if(0===u)n=V(u=a,0);else if(0===a)a=u,r=V(u,0);else{var l=(o=(e=u)*(i=a)/function(t,n){for(var r;n;)r=n,n=t%n,t=r;return t||1}(e,i))<0?-o:o;n=G(n,Math.floor(l/u)),r=G(r,Math.floor(l/a)),u=a=l}for(var f=[],s=0;s<u;s++)f.push(d(q(t,n[s],r[s])));return f}},opacity:qt,transform:function(t,n,e,i){if(!(t=function(t,n){if(!t||"object"!==r(t))return null;var e=!1;for(var i in t)t.hasOwnProperty(i)&&(t[i]&&t[i].length?(t[i].forEach((function(t){t.e&&(t.e=n(t.e))})),e=!0):delete t[i]);return e?t:null}(t,i)))return null;var o=function(r,i,o){var u=arguments.length>3&&void 0!==arguments[3]?arguments[3]:null;return t[r]?e(i,t[r],o):n&&n[r]?n[r]:u};return n&&n.a&&t.o?function(n){var r=e(n,t.o,Rt);return Tt.recomposeSelf(r,o("r",n,B,0)+r.a,o("k",n,C),o("s",n,C),o("t",n,C)).toString()}:function(t){return Tt.recomposeSelf(o("o",t,It,null),o("r",t,B,0),o("k",t,C),o("s",t,C),o("t",t,C)).toString()}},r:Bt,"#size":vt,"#radius":ht,_:function(t,n){if(Array.isArray(t))for(var r=0;r<t.length;r++)this[t[r]]=n;else this[t]=n}},Ut=function(t){!function(t,n){if("function"!=typeof n&&null!==n)throw new TypeError("Super expression must either be null or a function");t.prototype=Object.create(n&&n.prototype,{constructor:{value:t,writable:!0,configurable:!0}}),n&&l(t,n)}(u,t);var n,r,i=(n=u,r=f(),function(){var t,e=a(n);if(r){var i=a(this).constructor;t=Reflect.construct(e,arguments,i)}else t=e.apply(this,arguments);return c(this,t)});function u(){return e(this,u),i.apply(this,arguments)}return o(u,null,[{key:"build",value:function(t){var n=h(a(u),"build",this).call(this,t,$t);if(!n)return null;n.el,n.options,function(t,n,r){t.play()}(n.player)}}]),u}(at);return Ut.init(),Ut}));
(function(s,i,o,w){w[o]=w[o]||{};w[o][s]=w[o][s]||[];w[o][s].push(i);})('5c7f360c',{"root":"eielrdpQ8kg1","animations":[{"elements":{"eielrdpQ8kg4":{"transform":{"data":{"o":{"x":333.630998,"y":312.873692,"type":"corner"},"t":{"x":-333.630992,"y":-312.873692}},"keys":{"r":[{"t":0,"v":0},{"t":3000,"v":359.999999}]}}},"eielrdpQ8kg10":{"transform":{"data":{"o":{"x":333.631042,"y":312.870381,"type":"corner"},"t":{"x":-333.631042,"y":-313.716633}},"keys":{"r":[{"t":0,"v":0},{"t":3000,"v":-360.000003}]}}},"eielrdpQ8kg40":{"transform":{"data":{"o":{"x":71.941795,"y":153.761909,"type":"corner"},"t":{"x":-71.941795,"y":-153.761909}},"keys":{"r":[{"t":0,"v":0},{"t":3000,"v":360}]}}},"eielrdpQ8kg41":{"transform":{"data":{"o":{"x":513.870987,"y":584.129944,"type":"corner"},"t":{"x":-513.870987,"y":-584.129944}},"keys":{"r":[{"t":0,"v":0},{"t":3000,"v":-360.000002}]}}},"eielrdpQ8kg42":{"transform":{"data":{"o":{"x":159.367126,"y":97.368816,"type":"corner"},"t":{"x":-159.367126,"y":-97.368816}},"keys":{"r":[{"t":0,"v":0},{"t":3000,"v":-360.000001}]}}},"eielrdpQ8kg43":{"transform":{"data":{"t":{"x":-444.761002,"y":-86.938752}},"keys":{"o":[{"t":0,"v":{"x":444.761002,"y":86.938752,"type":"corner"}},{"t":2000,"v":{"x":444.761002,"y":173.300002,"type":"corner"}},{"t":3000,"v":{"x":444.761002,"y":87.785004,"type":"corner"}}]}}},"eielrdpQ8kg74":{"transform":{"data":{"t":{"x":-584.081024,"y":-138.870002}},"keys":{"o":[{"t":0,"v":{"x":584.081024,"y":138.870003,"type":"corner"}},{"t":1000,"v":{"x":584.081024,"y":78.989372,"type":"corner"}},{"t":3000,"v":{"x":584.081024,"y":138.73,"type":"corner"}}]}}},"eielrdpQ8kg80":{"transform":{"data":{"t":{"x":-156.4058,"y":-519.845001}},"keys":{"o":[{"t":0,"v":{"x":156.4058,"y":518.3815,"type":"corner"}},{"t":1000,"v":{"x":156.4058,"y":440.098698,"type":"corner"}},{"t":3000,"v":{"x":156.4058,"y":516.51,"type":"corner"}}]}}}},"s":"MYDA1M2NhNzFiM2M0YzFFiMGMzYjhiZWJkNzES4OTgyN2Y3Zkw3ZjdiWNzFiM2I4YzFiNGIyYPzNiOGJlYmQ3MTg5ODABKN2I3MWI4YzNiNEVDjMWIwYzNiOGJlYmRjGMjcxODlXN2Y3YjcxYAjViOGJiYmJKNzE4OTTgwN2I3MWIwYmJjM2IO0YzFiZGIwYzNWYjQ3QMTg5YjVOYjBiYmMyYIjQ3YjcxYzJiZmI0QmQI0YjM3MTg5RjgwY2ME/"}],"options":"MSDAxMDg4MmZBODA4MTIZlN2Y4MTJmNDcyZjcS5N2M2ZTcxMmY4YQ|"},'__SVGATOR_PLAYER__',window)]]></script></svg>