<svg viewBox="0 0 390 350" fill="none" xmlns="http://www.w3.org/2000/svg">
<g clip-path="url(#clip0_200:357)">
<g clip-path="url(#clip1_200:357)">
<path d="M-213.933 78.8745C-178.68 69.5824 -149.16 42.8805 -113.598 34.5944C-78.0342 26.3078 -14.8081 37.3774 20.6954 28.8888C56.1989 20.4001 104.751 -17.395 140.194 -26.0857C175.635 -34.7758 216.162 -24.8217 251.899 -32.5027" stroke="black" stroke-width="3.5"/>
<path d="M-199.138 128.143C-163.885 118.851 -134.365 92.1493 -98.8035 83.8631C-63.2394 75.5765 -0.0132634 86.6461 35.4902 78.1575C70.9937 69.6689 119.546 31.8737 154.989 23.1831C190.43 14.493 230.957 24.4471 266.694 16.766" stroke="black" stroke-width="3.5"/>
<path d="M-184.344 177.412C-149.09 168.12 -119.571 141.418 -84.0087 133.132C-48.4446 124.845 14.7815 135.915 50.285 127.426C85.7884 118.938 134.341 81.1425 169.784 72.4519C205.225 63.7618 245.752 73.7159 281.488 66.0348" stroke="black" stroke-width="3.5"/>
<path d="M-169.549 226.681C-134.296 217.389 -104.776 190.687 -69.2139 182.401C-33.6498 174.114 29.5763 185.184 65.0798 176.695C100.583 168.206 149.136 130.411 184.579 121.721C220.019 113.031 260.546 122.985 296.283 115.304" stroke="black" stroke-width="3.5"/>
</g>
<g clip-path="url(#clip2_200:357)">
<path d="M39.8593 18.1944C75.1124 8.90228 104.632 -17.7995 140.194 -26.0857C175.758 -34.3723 238.984 -23.3027 274.488 -31.7913C309.991 -40.28 358.544 -78.0751 393.987 -86.7657C429.427 -95.4559 469.954 -85.5017 505.691 -93.1828" stroke="black" stroke-width="3.5"/>
<path d="M54.6542 67.4631C89.9073 58.171 119.427 31.4692 154.989 23.183C190.553 14.8964 253.779 25.966 289.283 17.4774C324.786 8.98876 373.339 -28.8064 408.781 -37.497C444.222 -46.1871 484.749 -36.233 520.486 -43.9141" stroke="black" stroke-width="3.5"/>
<path d="M69.4489 116.732C104.702 107.44 134.222 80.738 169.784 72.4518C205.348 64.1652 268.574 75.2348 304.077 66.7462C339.581 58.2576 388.133 20.4624 423.576 11.7718C459.017 3.08162 499.544 13.0358 535.281 5.35471" stroke="black" stroke-width="3.5"/>
<path d="M84.2438 166.001C119.497 156.709 149.017 130.007 184.579 121.721C220.143 113.434 283.369 124.504 318.872 116.015C354.376 107.526 402.928 69.7312 438.371 61.0406C473.812 52.3504 514.339 62.3045 550.076 54.6235" stroke="black" stroke-width="3.5"/>
</g>
<g clip-path="url(#clip3_200:357)">
<path d="M-154.754 275.95C-119.501 266.657 -89.9811 239.956 -54.4191 231.669C-18.8549 223.383 44.3712 234.452 79.8746 225.964C115.378 217.475 163.931 179.68 199.374 170.989C234.814 162.299 275.341 172.253 311.078 164.572" stroke="black" stroke-width="3.5"/>
<path d="M-139.959 325.218C-104.706 315.926 -75.1862 289.224 -39.6242 280.938C-4.06009 272.652 59.166 283.721 94.6695 275.233C130.173 266.744 178.726 228.949 214.168 220.258C249.609 211.568 290.136 221.522 325.873 213.841" stroke="black" stroke-width="3.5"/>
<path d="M-125.164 374.487C-89.9112 365.195 -60.3915 338.493 -24.8295 330.207C10.7346 321.92 73.9607 332.99 109.464 324.501C144.968 316.013 193.52 278.218 228.963 269.527C264.404 260.837 304.931 270.791 340.668 263.11" stroke="black" stroke-width="3.5"/>
<path d="M-110.369 423.756C-75.1163 414.464 -45.5966 387.762 -10.0346 379.476C25.5295 371.189 88.7556 382.259 124.259 373.77C159.763 365.281 208.315 327.486 243.758 318.796C279.199 310.105 319.726 320.06 355.463 312.379" stroke="black" stroke-width="3.5"/>
</g>
<g clip-path="url(#clip4_200:357)">
<path d="M99.0385 215.269C134.292 205.977 163.811 179.275 199.373 170.989C234.937 162.703 298.164 173.772 333.667 165.284C369.171 156.795 417.723 119 453.166 110.309C488.607 101.619 529.134 111.573 564.871 103.892" stroke="black" stroke-width="3.5"/>
<path d="M113.833 264.538C149.087 255.246 178.606 228.544 214.168 220.258C249.732 211.972 312.958 223.041 348.462 214.553C383.965 206.064 432.518 168.269 467.961 159.578C503.402 150.888 543.929 160.842 579.665 153.161" stroke="black" stroke-width="3.5"/>
<path d="M128.628 313.807C163.881 304.515 193.401 277.813 228.963 269.527C264.527 261.24 327.753 272.31 363.257 263.821C398.76 255.333 447.313 217.538 482.756 208.847C518.196 200.157 558.723 210.111 594.46 202.43" stroke="black" stroke-width="3.5"/>
<path d="M143.423 363.076C178.676 353.784 208.196 327.082 243.758 318.796C279.322 310.509 342.548 321.579 378.052 313.09C413.555 304.601 462.108 266.806 497.55 258.116C532.991 249.426 573.518 259.38 609.255 251.699" stroke="black" stroke-width="3.5"/>
</g>
</g>
<defs>
<clipPath id="clip0_200:357">
<rect width="392.241" height="350" fill="white"/>
</clipPath>
<clipPath id="clip1_200:357">
<rect width="260.946" height="205.769" fill="white" transform="matrix(0.972587 -0.232539 0.287601 0.95775 -117.297 22.2772)"/>
</clipPath>
<clipPath id="clip2_200:357">
<rect width="260.946" height="205.769" fill="white" transform="matrix(0.972587 -0.232539 0.287601 0.95775 136.495 -38.4029)"/>
</clipPath>
<clipPath id="clip3_200:357">
<rect width="260.946" height="205.769" fill="white" transform="matrix(0.972587 -0.232539 0.287601 0.95775 -58.1178 219.352)"/>
</clipPath>
<clipPath id="clip4_200:357">
<rect width="260.946" height="205.769" fill="white" transform="matrix(0.972587 -0.232539 0.287601 0.95775 195.675 158.672)"/>
</clipPath>
</defs>
</svg>
