<svg id="e7I9GCNRLui1" xmlns="http://www.w3.org/2000/svg" xmlns:xlink="http://www.w3.org/1999/xlink" viewBox="0 0 1627.12 1141.22" shape-rendering="geometricPrecision" text-rendering="geometricPrecision"><g><g><path d="M1479.51,172.91c-.143517.208221-.340393.374011-.57.48-.748621.350723-1.640094.03425-2-.71-.85-1.81-1.73-3.59-2.63-5.36-.316869-.734492-.001619-1.588403.716507-1.940792s1.586426-.079253,1.973493.620792q1.38,2.7,2.67,5.44c.208667.484075.147924,1.042153-.16,1.47Z" fill="#91b3fa"/><path d="M1461.12,376.22l-1.57,2.16c-.488772.671026-1.428974.818772-2.1.33s-.818772-1.428974-.33-2.1v0c2.32-3.13,4.55-6.36,6.67-9.62.461557-.6831,1.381357-.877673,2.08-.44.337047.215061.573522.556554.656267.947713s.004817.79916-.216267,1.132287c-1.66,2.55-3.41,5.11-5.19,7.59Zm-13.64,17c-.02762.047443-.061229.091135-.1.13-2.64,2.95-5.39,5.85-8.18,8.62-.588183.585422-1.539578.583183-2.125-.005s-.583183-1.539578.005-2.125c2.75-2.74,5.46-5.59,8.06-8.49.530688-.593569,1.432672-.669084,2.054669-.172018s.747255,1.393496.285331,2.042018ZM1476,352.13c-.455855.649328-1.338509.831389-2.014095.41544s-.91044-1.286045-.535905-1.98544c1.8-3.45,3.52-7,5.12-10.53.221505-.489454.687304-.823557,1.221936-.876455s1.056873.183445,1.37.62.369569,1.007001.148064,1.496455c-1.62,3.59-3.37,7.19-5.2,10.68-.028347.064704-.065352.125258-.11.18Zm-50.8,62.5c-.079562.102864-.170096.196751-.27.28-3.05,2.51-6.21,4.95-9.4,7.27-.671026.488772-1.611228.341026-2.1-.33s-.341026-1.611228.33-2.1c3.14-2.29,6.26-4.69,9.26-7.16.580991-.420225,1.377392-.373912,1.905756.110826s.642969,1.274209.274244,1.889174Zm63-90.92c-.389836.535614-1.083258.75459-1.71.54-.378794-.127436-.691071-.400767-.867546-.759349s-.202555-.772764-.072454-1.150651c1.25-3.68,2.41-7.45,3.44-11.18.220914-.800813,1.049187-1.270914,1.85-1.05s1.270914,1.049187,1.05,1.85c-1,3.79-2.22,7.61-3.49,11.35-.060774.143965-.141571.278628-.24.4Zm-88.34,108.65c-.123333.169685-.279826.31257-.46.42-3.4,2-6.9,3.94-10.4,5.73-.47695.244727-1.048229.216414-1.498644-.074273s-.711535-.799586-.685-1.335.336694-1.016.813644-1.260727c3.44-1.77,6.89-3.67,10.24-5.65.342516-.206747.753785-.267065,1.141243-.167379s.71855.351.918757.697379c.287559.52106.244568,1.162009-.11,1.64Zm96-138.62c-.412317.566869-1.160528.775453-1.806648.503654s-1.020237-.952508-.903352-1.643654c.67-3.82,1.24-7.72,1.68-11.58.093888-.828427.841573-1.423888,1.67-1.33s1.423888.841573,1.33,1.67c-.45,3.92-1,7.88-1.7,11.76-.054985.225572-.15724.436899-.3.62ZM1372.06,446c-.166959.235811-.400133.416781-.67.52-3.66,1.46-7.42,2.83-11.16,4.06-.509103.167915-1.069116.051471-1.469086-.305468s-.579133-.900146-.47-1.425.489983-.951617.999086-1.119532c3.68-1.22,7.38-2.57,11-4c.620299-.252667,1.33294-.063475,1.746234.463592s.427074,1.264265.033766,1.806408Zm126.72-183c-.291639.398173-.756453.632439-1.25.63-.830083-.021827-1.486784-.709799-1.47-1.54.07-3.88,0-7.82-.13-11.71-.033137-.828427.611573-1.526863,1.44-1.56s1.526863.611573,1.56,1.44c.16,3.94.2,7.94.13,11.89-.002723.305548-.100593.602654-.28.85ZM1342.53,455.14c-.207697.301352-.522348.512311-.88.59-3.84.87-7.76,1.65-11.66,2.3-.828427.13531-1.60969-.426573-1.745-1.255s.426573-1.60969,1.255-1.745c3.84-.65,7.7-1.41,11.48-2.27.388599-.089629.796892-.020821,1.134652.191217s.577179.549851.665348.938783c.111061.433005.019059.893019-.25,1.25ZM1497,232.05c-.360203.499865-.987977.730751-1.586221.58339s-1.046956-.643412-1.133779-1.25339c-.52-3.86-1.15-7.75-1.89-11.55-.160163-.81462.37038-1.604837,1.185-1.765s1.604837.37038,1.765,1.185c.75,3.87,1.4,7.81,1.93,11.72.046845.381014-.049365.765856-.27,1.08ZM1312,459.7c-.261005.364685-.672386.592414-1.12.62-3.92.29-7.92.46-11.86.52-.831782.005634-1.513602-.658361-1.53-1.49-.00534-.397835.147597-.781494.425158-1.066557s.657006-.448174,1.054842-.453443c3.89-.06,7.83-.23,11.7-.51.830934-.057231,1.551294.569169,1.61,1.4.004239.356292-.11601.70289-.34.98Zm178.59-257.89c-.193089.269971-.471322.4672-.79.56-.792498.239937-1.629517-.207667-1.87-1-1.1-3.74-2.33-7.48-3.64-11.12-.276142-.781483.133517-1.638858.915-1.915s1.638858.133517,1.915.915c1.33,3.7,2.57,7.5,3.69,11.29.103088.443896.000191.910606-.28,1.27ZM1281,459.57c-.312744.425924-.823129.660323-1.35.62-3.94-.32-7.92-.76-11.81-1.32-.828427-.118741-1.403741-.886573-1.285-1.715s.886573-1.403741,1.715-1.285c3.83.54,7.74,1,11.63,1.29.396521.033096.763645.222383,1.020582.526206s.382629.697283.349418,1.093794c-.016053.283071-.10944.556317-.27.79Zm-30.54-4.9c-.355767.502166-.982168.736075-1.58.59-3.84-.93-7.7-2-11.46-3.12-.79529-.240244-1.245244-1.07971-1.005-1.875s1.07971-1.245244,1.875-1.005c3.71,1.13,7.51,2.16,11.3,3.08.803329.197429,1.298256,1.004472,1.11,1.81-.043946.186033-.121925.362332-.23.52Z" fill="#91b3fa"/><path d="M1221,445.1c-.411925.562847-1.154053.773116-1.8.51q-2.81-1.16-5.56-2.4c-.489454-.219718-.82451-.683867-.878955-1.217606s.179992-1.055979.615-1.37s1.004501-.372112,1.493955-.152394q2.72,1.21,5.48,2.36c.377284.152444.677073.450708.831439.82721s.150241.79937-.011439,1.17279c-.051948.092886-.108692.183007-.17.27Z" fill="#91b3fa"/><path d="M1111.21,335c-.167927.230794-.396319.41074-.66.52-.374688.161135-.798625.163842-1.17534.007505s-.674164-.458419-.82466-.837505q-1.14-2.81-2.2-5.64c-.289949-.778721.106279-1.645051.885-1.935s1.645051.106279,1.935.885q1.05,2.81,2.17,5.56c.206128.470589.157076,1.013936-.13,1.44Z" fill="#91b3fa"/><path d="M1364,69c-.390499.540939-1.088094.764007-1.72.55-3.86-1.35-7.8-2.6-11.74-3.71-.783539-.245066-1.227721-1.071245-1-1.86.236094-.785888,1.063177-1.23296,1.85-1c4,1.12,8,2.39,11.91,3.76.786421.274038,1.202503,1.133046.93,1.92-.062215.122465-.13948.236682-.23.34Zm-31.46-8.22c-.336098.469615-.910609.706406-1.48.61-4-.71-8.13-1.3-12.18-1.76-.828427-.091127-1.426127-.836573-1.335-1.665s.836573-1.426127,1.665-1.335c4.11.47,8.27,1.07,12.37,1.79.815044.147259,1.359352.923567,1.22,1.74-.041369.221554-.133815.430414-.27.61Zm-32.38-3c-.28395.401868-.747997.637634-1.24.63-4.08,0-8.22,0-12.3.24-.773419-.037809-1.392888-.654536-1.434127-1.42778s.509117-1.452361,1.274127-1.57222c4.15-.2,8.35-.29,12.5-.24.557788.01253,1.063213.331612,1.3144.829798s.207196,1.094285-.1144,1.550202ZM1103,310.18c-.202357.286832-.500078.492401-.84.58-.803181.209729-1.625044-.268202-1.84-1.07-1-4-2-8.1-2.78-12.18-.079235-.390103.000923-.795692.222598-1.126326s.566434-.55882.957402-.633674c.81395-.159553,1.604222.367295,1.77,1.18.79,4,1.71,8.06,2.74,12c.115255.430051.030782.889139-.23,1.25ZM1267.71,60c-.236078.331326-.597368.551713-1,.61-4,.6-8.1,1.33-12.11,2.19-.789856.116558-1.533944-.401912-1.698158-1.183252s.308207-1.555482,1.078158-1.766748c4.07-.86,8.2-1.61,12.28-2.22.598759-.088247,1.192362.189546,1.508222.705814s.292945,1.171254-.058222,1.664186ZM1097.27,278.17c-.363713.514998-1.010649.747585-1.61902.582072s-1.048306-.693793-1.10098-1.322072c-.39-4.13-.67-8.33-.82-12.47.059147-.767381.685999-1.367481,1.455229-1.393122s1.434654.531383,1.544771,1.293122c.14,4.08.41,8.21.81,12.29.034681.361332-.061094.723147-.27,1.02Zm138.78-210.8c-.186988.260898-.453727.453933-.76.55-3.89,1.25-7.79,2.63-11.59,4.11-.773199.300995-1.644005-.081801-1.945-.855s.081801-1.644005.855-1.945c3.85-1.51,7.81-2.91,11.76-4.17.619038-.203798,1.29884.015446,1.682164.542517s.38245,1.241352-.002164,1.767483ZM1096.76,245.64c-.391141.555106-1.106418.778197-1.743777.543874s-1.037794-.867603-.976223-1.543874c.27-4.14.68-8.32,1.2-12.44.104934-.828427.861573-1.414934,1.69-1.31s1.414934.861573,1.31,1.69c-.52,4.06-.92,8.18-1.19,12.26-.015682.289426-.116577.567756-.29.8ZM1206,79.76c-.144048.191116-.328413.348168-.54.46-3.63,1.85-7.25,3.85-10.77,5.93-.715209.422498-1.637502.185209-2.06-.53s-.185209-1.637502.53-2.06c3.57-2.11,7.25-4.14,10.93-6c.732774-.359469,1.618568-.071586,2,.65.253851.494642.219395,1.088062-.09,1.55ZM1101.52,213.47c-.357655.493726-.975702.725986-1.57.59-.389255-.090276-.726402-.332133-.936661-.671928s-.276252-.749438-.183339-1.138072c.93-4,2-8.09,3.2-12.07.153624-.514462.570041-.907888,1.092391-1.032077s1.071274.039727,1.44.43.501233.947615.347609,1.462077c-1.17,3.92-2.23,7.92-3.15,11.89-.046853.192976-.128157.375909-.24.54Zm76.83-116.62c-.091855.12676-.20324.238145-.33.33-3.28,2.42-6.54,5-9.67,7.6-.635127.535716-1.584284.455127-2.12-.18s-.455127-1.584284.18-2.12c3.19-2.67,6.49-5.26,9.83-7.72.595041-.450798,1.431019-.39542,1.961396.12993s.593715,1.360763.148604,1.96007Zm-66.93,85.65c-.438777.634983-1.287799.833343-1.962504.458507s-.954826-1.200497-.647496-1.908507c1.58-3.85,3.3-7.68,5.11-11.4.205137-.530554.691026-.900807,1.25699-.957841s1.115957.208829,1.422826.687786.318536,1.089727.030184,1.580055c-1.79,3.67-3.48,7.45-5,11.23-.055147.112652-.125837.217004-.21.31Zm42.4-64.32l-.15.18c-2.86,2.92-5.66,6-8.33,9-.357266.407283-.904675.593029-1.436025.487269s-.965916-.486958-1.14-1-.061241-1.079986.296025-1.487269c2.72-3.14,5.56-6.23,8.46-9.2.556312-.533945,1.425556-.562961,2.016237-.067303s.713017,1.356739.283763,1.997303Zm-27.62,35.35c-.481186.638528-1.3767.791292-2.042362.348401s-.870708-1.327899-.467638-2.018401c2.17-3.52,4.49-7,6.88-10.42v0c.506795-.60381,1.392794-.716167,2.034266-.257972s.82254,1.332741.415734,2.007972c-2.36,3.34-4.64,6.8-6.78,10.27Z" fill="#91b3fa"/><path d="M1388.13,79.27c-.434787.597837-1.236638.79619-1.9.47-1.78-.9-3.56-1.77-5.37-2.61-.361267-.169107-.640301-.475144-.775412-.850452s-.115171-.788975.055412-1.149548c.356458-.747567,1.245787-1.072173,2-.73q2.74,1.29,5.44,2.65c.733483.370581,1.032228,1.262356.67,2Z" fill="#91b3fa"/><g id="e7I9GCNRLui10" transform="translate(.000001 0.000001)"><path d="M1382.76,129.93c-.792153-.659905-1.914504-.74809-2.8-.22l-25.23,15.08c-12.406606-6.306926-25.758364-10.549225-39.53-12.56l-11.92-26.85c-.412751-.94487-1.382892-1.520514-2.41-1.43l-35.13,3c-1.025925.08928-1.881768.820563-2.13,1.82l-7.18,28.48c-13.228346,4.326758-25.664266,10.777765-36.82,19.1l-27.43-10.57c-.959969-.372092-2.050319-.090452-2.71.7l-22.72,27c-.661126.787793-.749484,1.908324-.22,2.79l15.08,25.23c-6.304827,12.396864-10.547101,25.738411-12.56,39.5l-26.85,11.91c-.942732.415167-1.517369,1.383611-1.43,2.41l3,35.13c.086808,1.02568.812943,1.884204,1.81,2.14l28.49,7.17c4.322473,13.230145,10.773827,25.666734,19.1,36.82L1182.61,364c-.370486.963177-.089418,2.055328.7,2.72l27,22.71c.789949.663103,1.912432.755307,2.8.23l25.23-15.09c12.408703,6.312417,25.764112,10.558181,39.54,12.57L1289.75,414c.415953.940945,1.38535,1.512125,2.41,1.42l35.13-3c1.028491-.088163,1.887839-.81901,2.14-1.82l7.17-28.49c13.23181-4.3185,25.669022-10.770177,36.82-19.1l27.43,10.57c.961086.3728,2.052836.095849,2.72-.69l22.71-27c.660201-.79114.752249-1.91173.23-2.8l-15.09-25.23c6.314506-12.387453,10.563756-25.722938,12.58-39.48l26.86-11.91c.940394-.421952,1.510326-1.393245,1.42-2.42l-3-35.13c-.084977-1.024334-.812804-1.880838-1.81-2.13L1419,219.62c-4.318331-13.234964-10.769978-25.675495-19.1-36.83l10.57-27.43c.368029-.95825.091474-2.044428-.69-2.71Z" fill="#34447d"/><path d="M1323.75,279.32c-4.029841,5.630313-9.718218,9.86076-16.27,12.1-15.637647,5.397996-32.87563-1.412127-40.601644-16.040289s-3.63226-32.70486,9.642259-42.57712s31.764643-8.591193,43.550887,3.017375s13.348,30.077102,3.678498,43.500034Zm-50.81-36.61c-.967197,1.353498-1.820137,2.7851-2.55,4.28-6.062155,12.471281-2.468409,27.488207,8.582735,35.864053s26.480474,7.776828,36.848975-1.430602s12.78717-24.457776,5.776365-36.421521-21.497643-17.307395-34.598075-12.76193v0c-5.659511,1.946582-10.573239,5.605667-14.06,10.47Z" opacity="0.7" fill="#fff"/><path d="M1367.13,311.1c-1.34,1.87-2.75,3.69-4.25,5.47-29.348296,34.82935-80.53085,41.266887-117.59,14.79-1.86-1.34-3.69-2.76-5.47-4.25-29.580216-24.981737-39.193547-66.450641-23.622342-101.899391s52.613593-56.42368,91.022342-51.540609l-.57,4.48c-5.847619-.740134-11.757041-.860803-17.63-.36-33.379195,2.854151-61.751483,25.536353-71.884618,57.468098s-.031144,66.823274,25.594618,88.401902q2.54,2.13,5.19,4c33.002476,23.554058,78.203976,19.759042,106.81704-8.968116s32.228167-73.943404,8.54296-106.851884l3.66-2.64c21.897861,30.403861,21.974295,71.384667.19,101.87Z" opacity="0.7" fill="#fff"/></g><path d="M1618.5,63.84c-.156716.220547-.371258.393565-.62.5-.366789.167424-.785535.180138-1.161805.035274s-.678379-.435107-.838195-.805274c-.8-1.82-1.65-3.62-2.54-5.36-.378315-.740062-.085062-1.646685.655-2.025s1.646685-.085062,2.025.655c.91,1.79,1.79,3.65,2.61,5.52.225359.480923.175747,1.045728-.13,1.48Z" fill="#91b3fa"/><path d="M1602.83,172.05l-.08.09c-2.640483,3.138588-5.465481,6.11719-8.46,8.92-.604752.568853-1.556147.539752-2.125-.065s-.539752-1.556147.065-2.125c2.90949-2.724452,5.654338-5.619565,8.22-8.67.527296-.599514,1.430171-.68493,2.06054-.194938s.770348,1.386031.31946,2.044938Zm11.2-16.17c-.454954.672741-1.362687.861215-2.047854.425199s-.898883-1.338139-.482146-2.035199c1.943866-3.480706,3.686722-7.06992,5.22-10.75.356417-.707447,1.198939-1.019202,1.930006-.714152s1.102122,1.123189.849994,1.874152c-1.578517,3.787345-3.374853,7.480183-5.38,11.06Zm-35.11,37c-.114631.157659-.25694.293191-.42.4-3.471233,2.185093-7.067382,4.165146-10.77,5.93-.748346.356224-1.643776.038346-2-.71s-.038346-1.643776.71-2c3.597156-1.715854,7.089897-3.642538,10.46-5.77.607894-.366879,1.389748-.257288,1.873349.262583s.536459,1.307596.126651,1.887417Zm46.19-66.71c-.41789.569599-1.174851.773325-1.822182.490418s-1.01199-.976824-.877818-1.670418c.799049-3.90345,1.370016-7.850136,1.71-11.82.069036-.828427.796573-1.444036,1.625-1.375s1.444036.796573,1.375,1.625c-.342818,4.087629-.927172,8.151395-1.75,12.17-.042384.210286-.131214.408446-.26.58Zm-75.29,79.28c-.203583.285591-.500804.490815-.84.58-3.969794,1.026921-7.996816,1.818301-12.06,2.37-.535898.073239-1.070162-.144983-1.401538-.572465s-.409522-.999278-.205-1.5.66064-.854296,1.196538-.927535c3.947766-.539925,7.860976-1.307876,11.72-2.3.800729-.209257,1.61964.26956,1.83,1.07.113218.441164.025346.909817-.24,1.28Zm76.79-111c-.245015.352438-.632706.5792-1.06.62-.822663.087545-1.560883-.507506-1.65-1.33l-.14-1.19c-.4074-3.544235-.994826-7.065451-1.76-10.55-.182254-.809097.325903-1.612746,1.135-1.795s1.612746.325903,1.795,1.135c.814141,3.601374,1.438336,7.243069,1.87,10.91l.14,1.22c.021334.369293-.096397.733187-.33,1.02ZM1518.28,208.63c-.299282.414797-.789301.648498-1.3.62-4.100364-.212071-8.184344-.669557-12.23-1.37-.828427-.140833-1.385833-.926573-1.245-1.755s.926573-1.385833,1.755-1.245c3.927643.672324,7.890958,1.116402,11.87,1.33.830389.043107,1.469665.74944,1.43,1.58-.010809.301065-.108008.592663-.28.84Z" fill="#91b3fa"/><path d="M1487.19,202.07c-.395787.552882-1.113965.770388-1.75.53-1.89-.72-3.79-1.5-5.64-2.33-.366598-.163573-.652334-.467266-.793288-.843142s-.125361-.792567.043288-1.156858c.159184-.370414.462593-.659856.840093-.801418s.796414-.122992,1.159907.051418c1.8.8,3.64,1.56,5.48,2.26.773275.298311,1.161567,1.164157.87,1.94-.052654.126235-.123395.244136-.21.35Z" fill="#91b3fa"/><path d="M1428.09,144.44c-.32197.438655-.855047.670156-1.395384.605978s-1.004356-.414108-1.214616-.915978c-.77-1.88-1.48-3.81-2.14-5.72-.259227-.786426.158719-1.635657.94-1.91.377887-.130101.792068-.104021,1.150651.072454s.631913.488752.759349.867546c.63,1.86,1.33,3.73,2.07,5.55.198236.480163.133923,1.028711-.17,1.45Z" fill="#91b3fa"/><path d="M1546.45,4.51c-.3476.494874-.961316.728482-1.55.59-3.82417-.852641-7.693757-1.486999-11.59-1.9-.814428-.099183-1.398062-.834294-1.31-1.65.037731-.397919.233754-.763994.544028-1.015973s.708776-.368733,1.105972-.324027c4.015271.435615,8.001946,1.1034,11.94,2c.797129.192885,1.291564.990216,1.11,1.79-.049144.184727-.134084.358005-.25.51Zm-31.12-2.13c-.253717.362737-.658303.590776-1.1.62-1.18.1-2.36.22-3.55.36-2.7.32-5.42.75-8.09,1.28-.526967.105393-1.070131-.078353-1.424887-.482023s-.467211-.965936-.295-1.475.60292-.887584,1.129887-.992977c2.75-.55,5.55-1,8.33-1.32c1.22-.14,2.44-.26,3.65-.36.581196-.043114,1.135321.252082,1.423776.758482s.259743,1.133593-.073776,1.611518ZM1421.5,120c-.239218.327935-.598946.547369-1,.61-.822118.112947-1.581323-.458689-1.7-1.28-.11-.83-.22-1.67-.32-2.5-.37-3.16-.61-6.37-.69-9.55-.022091-.828427.631573-1.517909,1.46-1.54s1.517909.631573,1.54,1.46c.09,3.08.31,6.2.68,9.27.09.82.2,1.63.31,2.44.049562.385775-.050647.775873-.28,1.09ZM1485,9.59c-.164654.227494-.389864.404198-.65.51-3.628881,1.463523-7.171305,3.132902-10.61,5-.726254.400406-1.639594.136254-2.04-.59s-.136254-1.639594.59-2.04c3.539524-1.940651,7.189032-3.673583,10.93-5.19.632724-.282318,1.376481-.094551,1.799379.454266s.414888,1.315868-.019379,1.855734Zm-63.19,79.18c-.405433.564827-1.145869.777012-1.788921.512646s-1.020149-.935981-.911079-1.622646c.643867-3.984087,1.518675-7.927398,2.62-11.81.240579-.787233,1.070639-1.233502,1.86-1c.783539.245066,1.227721,1.071245,1,1.86-1.080389,3.757545-1.945132,7.573768-2.59,11.43-.019876.225012-.095485.441529-.22.63Zm36.4-63.23c-.076827.105195-.167667.1994-.27.28-3.023034,2.500681-5.901037,5.171682-8.62,8-.28165.283969-.665044.443697-1.065.443697s-.78335-.159728-1.065-.443697c-.285896-.278576-.44714-.660825-.44714-1.06s.161244-.781424.44714-1.06c2.779252-2.897721,5.720643-5.635452,8.81-8.2.580991-.420225,1.377392-.373912,1.905756.110826s.642969,1.274209.274244,1.889174ZM1431.4,59.1c-.467928.610135-1.319613.771215-1.978042.374108s-.913308-1.225569-.591958-1.924108c1.801007-3.603558,3.8042-7.102469,6-10.48.452873-.695879,1.384121-.892873,2.08-.44s.892873,1.384121.44,2.08c-2.148503,3.282491-4.108342,6.684665-5.87,10.19-.021173.068735-.047929.135624-.08.2Z" fill="#91b3fa"/><path d="M1570.34,13.08c-.432735.601646-1.239993.797087-1.9.46-1.75-.88-3.56-1.73-5.36-2.51-.762153-.331371-1.111371-1.217847-.78-1.98s1.217847-1.111371,1.98-.78c1.85.8,3.71,1.68,5.52,2.59.729717.374172,1.023691,1.265003.66,2-.032933.076973-.073114.150638-.12.22Z" fill="#91b3fa"/><g id="e7I9GCNRLui20"><path d="M1567,38.68c-.404694-.344438-.983877-.392703-1.44-.12l-13,7.75c-6.372947-3.245201-13.233329-5.427282-20.31-6.46l-6.12-13.79c-.213039-.484941-.712602-.779038-1.24-.73l-18,1.54c-.529181.047705-.970377.424727-1.1.94l-3.68,14.63c-6.797707,2.220482-13.188125,5.533907-18.92,9.81l-14.09-5.43c-.492566-.190954-1.052054-.04605-1.39.36L1456,61c-.344262.405685-.388648.986731-.11,1.44l7.74,13c-3.237593,6.375252-5.416068,13.234915-6.45,20.31l-13.79,6.12c-.486719.21226-.78427.71086-.74,1.24l1.55,18c.043415.527592.416978.96944.93,1.1l14.64,3.68c2.216343,6.799442,5.530104,13.190508,9.81,18.92l-5.43,14.09c-.190073.490663-.049772,1.047859.35,1.39L1478.39,172c.402513.34256.979831.386969,1.43.11l13-7.74c6.375927,3.235945,13.235314,5.414333,20.31,6.45l6.12,13.79c.214647.484611.711582.781169,1.24.74l18-1.55c.523794-.047471.960661-.420211,1.09-.93l3.69-14.64c6.796289-2.216511,13.184037-5.530303,18.91-9.81l14.09,5.43c.493691.191689,1.054597.051462,1.4-.35l11.67-13.86c.336574-.40496.380679-.978328.11-1.43l-7.75-13c3.243872-6.373492,5.425883-13.233651,6.46-20.31l13.79-6.12c.482795-.215448.775891-.71331.73-1.24l-1.54-18c-.051725-.525377-.427932-.961617-.94-1.09l-14.63-3.69c-2.220488-6.794621-5.533956-13.181746-9.81-18.91l5.43-14.09c.19255-.495586.047731-1.058772-.36-1.4Z" fill="#34447d"/><path d="M1537.57,116.05c-5.741132,7.984177-16.753714,10.027073-24.976534,4.633288s-10.735664-16.30873-5.69913-24.755091s15.833795-11.424539,24.488186-6.754507s12.092433,15.329782,7.797478,24.17631c-.453859.946864-.992737,1.850573-1.61,2.7Zm-26.1-18.79c-3.964709,5.530636-3.306001,13.125801,1.551662,17.891298s12.464053,5.278609,17.917736,1.208696s7.126492-11.507799,3.940495-17.520808-10.279636-8.805987-16.709893-6.579186v0c-2.6969.933242-5.037837,2.68021-6.7,5Z" opacity="0.7" fill="#fff"/><path d="M1559.86,132.37c-.71,1-1.46,1.95-2.24,2.88-13.390805,15.975864-35.850909,20.949959-54.734904,12.121787s-29.470898-29.251576-25.800108-49.771497s20.681579-36.006399,41.455012-37.74029h.6c2.775377-.198538,5.562862-.15169,8.33.14h.15.22.11.37l-.57,4.48c-2.925481-.370122-5.881855-.430456-8.82-.18v0c-18.746195,1.607597-34.056714,15.642599-37.284798,34.17861s6.436516,36.920481,23.535629,44.770611s37.340852,3.195536,49.293508-11.335061s12.616106-35.290005,1.615661-50.55416l3.66-2.64c11.517404,15.997562,11.561646,37.5553.11,53.6Z" opacity="0.7" fill="#fff"/></g><path d="M1416.7,1014h-1346.43c-4.418278,0-8-3.581722-8-8v0c0-4.418278,3.581722-8,8-8h1346.43c4.418278,0,8,3.581722,8,8v0c0,4.418278-3.581722,8-8,8Z" fill="#2c3967"/><g><rect width="1133.27" height="723.26" rx="26.33" ry="26.33" transform="translate(180.92 234.25)" fill="#34447d"/><rect width="713.48" height="1123.5" rx="21.44" ry="21.44" transform="matrix(0 1-1 0 1309.31 239.14)" fill="#27325b"/><rect width="1057.86" height="661.41" rx="0" ry="0" transform="translate(219.2 263.5)" fill="#2c3967"/><path d="M1391.71,957.51v17.61c.002422.889142-.051017,1.777559-.16,2.66-1.345186,11.556563-11.135411,20.271884-22.77,20.27h-1257.07c-11.613406-.024022-21.371768-8.73393-22.71-20.27-.108983-.882441-.162422-1.770858-.16-2.66v-17.61Z" fill="#2c3967"/><path d="M1391.55,977.78c-1.345186,11.556563-11.135411,20.271884-22.77,20.27h-1257.07c-11.613406-.024022-21.371768-8.73393-22.71-20.27Z" fill="#34447d"/></g><g><rect width="643.69" height="397.35" rx="29" ry="29" transform="translate(429.61 403.8)" opacity="0.3" fill="#80b2ff"/><rect width="123.66" height="29.1" rx="14.55" ry="14.55" transform="translate(739.9 668.97)" fill="#f1835a"/><rect width="235.43" height="29.1" rx="14.55" ry="14.55" transform="translate(696.8 553.06)" fill="#fff"/><rect width="235.43" height="29.1" rx="14.55" ry="14.55" transform="translate(696.8 607.83)" fill="#fff"/><path d="M746.26,623.67c0,2.074891-1.249884,3.945475-3.166834,4.739502s-4.123454.355126-5.590624-1.112044-1.906071-3.673674-1.112044-5.590624s2.664611-3.166834,4.739502-3.166834c2.833221,0,5.13,2.296779,5.13,5.13Z" fill="#80b2ff"/><path d="M763.82,623.67c0,2.074891-1.249884,3.945475-3.166834,4.739502s-4.123454.355126-5.590624-1.112044-1.906071-3.673674-1.112044-5.590624s2.664611-3.166834,4.739502-3.166834c2.833221,0,5.13,2.296779,5.13,5.13Z" fill="#4858e8"/><path d="M781.38,623.67c0,2.074891-1.249884,3.945475-3.166834,4.739502s-4.123454.355126-5.590624-1.112044-1.906071-3.673674-1.112044-5.590624s2.664611-3.166834,4.739502-3.166834c2.833221,0,5.13,2.296779,5.13,5.13Z" fill="#4858e8"/><path d="M798.94,623.67c0,2.074891-1.249884,3.945475-3.166834,4.739502s-4.123454.355126-5.590624-1.112044-1.906071-3.673674-1.112044-5.590624s2.664611-3.166834,4.739502-3.166834c2.833221,0,5.13,2.296779,5.13,5.13Z" fill="#4858e8"/><path d="M816.5,623.67c0,2.074891-1.249884,3.945475-3.166834,4.739502s-4.123454.355126-5.590624-1.112044-1.906071-3.673674-1.112044-5.590624s2.664611-3.166834,4.739502-3.166834c2.833221,0,5.13,2.296779,5.13,5.13Z" fill="#4858e8"/><path d="M834.06,623.67c-.000004,2.0758-1.250973,3.947014-3.169151,4.740451s-4.125464.3527-5.591844-1.116544-1.902809-3.677386-1.105631-5.594012s2.670829-3.163941,4.746626-3.159895c2.829315.005515,5.120005,2.30068,5.12,5.13Z" fill="#4858e8"/><path d="M851.62,623.67c-.000004,2.0758-1.250973,3.947014-3.169151,4.740451s-4.125464.3527-5.591844-1.116544-1.902809-3.677386-1.105631-5.594012s2.670829-3.163941,4.746626-3.159895c2.829315.005515,5.120005,2.30068,5.12,5.13Z" fill="#4858e8"/><path d="M869.18,623.67c-.000004,2.0758-1.250973,3.947014-3.169151,4.740451s-4.125464.3527-5.591844-1.116544-1.902809-3.677386-1.105631-5.594012s2.670829-3.163941,4.746626-3.159895c2.829315.005515,5.120005,2.30068,5.12,5.13Z" fill="#4858e8"/><path d="M886.74,623.67c-.000004,2.0758-1.250973,3.947014-3.169151,4.740451s-4.125464.3527-5.591844-1.116544-1.902809-3.677386-1.105631-5.594012s2.670829-3.163941,4.746626-3.159895c2.829315.005515,5.120005,2.30068,5.12,5.13Z" fill="#4858e8"/><circle r="30.39" transform="translate(808.16 489.51)" fill="#fff"/><path d="M808.2,488.28c2.909021-.021098,5.650509-1.364244,7.45-3.65c1.351742-1.678979,2.079729-3.774591,2.06-5.93c0-5.274319-4.275681-9.55-9.55-9.55s-9.55,4.275681-9.55,9.55c-.019729,2.155409.708258,4.251021,2.06,5.93c1.820719,2.302968,4.594243,3.647372,7.53,3.65Z" fill="#f1835a"/><path d="M825,505.36c0,6.05-33.78,6.05-33.78,0v-7.05c1.34-9.63,31-10,33.78,0Z" fill="#f1835a"/><path d="M742.56,619.69v-.78c-.128286-3.068823-2.653497-5.490678-5.725-5.490678s-5.596714,2.421855-5.725,5.490678v.78h-.87v10.31c0,1.78,13.22,1.78,13.22,0v-10.31Zm-9.41-.78c-.071178-1.369596.619012-2.666742,1.794672-3.372917s2.644996-.706175,3.820656,0s1.86585,2.003321,1.794672,3.372917v.78h-7.41Zm4.66,6v3c-.041797.520822-.477506.921674-1,.92-.245652.008641-.483722-.085855-.656579-.260612s-.264746-.413845-.253421-.659388v-3c-.564874-.30182-.918281-.889551-.92-1.53-.010051-.885196.611666-1.652075,1.479802-1.825315s1.73658.296272,2.067057,1.117526.029299,1.761428-.716859,2.237789Z" fill="#4d4d4d"/><path d="M717.76,566.55c1.135244-.00714,2.205793-.529538,2.91-1.42.527913-.65701.810752-1.477244.8-2.32.071363-1.376865-.622598-2.680807-1.804522-3.39067s-2.659032-.709863-3.840956,0-1.875885,2.013805-1.804522,3.39067c-.006637.842088.275739,1.66098.8,2.32.711699.897504,1.794562,1.42052,2.94,1.42Z" fill="#4d4d4d"/><path d="M724.34,573.22c0,2.36-13.26,2.36-13.26,0l.07-2.75c.53-3.76,12.11-3.92,13.19,0Z" fill="#4d4d4d"/><path d="M793.86,571.88h-53.58c-2.355975-.005498-4.264502-1.914025-4.27-4.27v0c.005498-2.355975,1.914025-4.264502,4.27-4.27h53.58c2.355975.005498,4.264502,1.914025,4.27,4.27v0c-.005498,2.355975-1.914025,4.264502-4.27,4.27Z" fill="#4858e8"/><path d="M760.66,540.73h-51.74c-2.355975-.005498-4.264502-1.914025-4.27-4.27v0c.005498-2.355975,1.914025-4.264502,4.27-4.27h51.74c2.353706.010948,4.259052,1.916294,4.27,4.27v0c-.010948,2.353706-1.916294,4.259052-4.27,4.27Z" fill="#4858e8"/><path d="M864.53,571.88h-53.53c-2.355975-.005498-4.264502-1.914025-4.27-4.27v0c.005498-2.355975,1.914025-4.264502,4.27-4.27h53.58c2.355975.005498,4.264502,1.914025,4.27,4.27v0c-.002615,1.140357-.460203,2.232519-1.271239,3.034168s-1.908451,1.246493-3.048761,1.235832Z" fill="#4858e8"/><path d="M535.28,565.7v75.46c0,8.39,102.61,8.39,102.61,0v-75.46Z" fill="#fff"/><circle r="12.67" transform="translate(586.59 594.2)" fill="#f1835a"/><path d="M586.59,632.35v0c-1.376474,0-2.69657-.546802-3.669884-1.520116s-1.520116-2.29341-1.520116-3.669884v-29h10.38v29c0,2.866358-2.323642,5.19-5.19,5.19Z" fill="#f1835a"/><g id="e7I9GCNRLui57" transform="translate(.000001 0)"><path d="M628.9,560.32h-10.38v-5.08c0-17.634452-14.295548-31.93-31.93-31.93s-31.93,14.295548-31.93,31.93v5.08h-10.38v-5.08c0-23.367168,18.942832-42.31,42.31-42.31s42.31,18.942832,42.31,42.31Z" transform="translate(1.129903 0)" fill="#fff"/></g></g><path d="M1150.19,634.24v0v0Z" fill="#d9ffff"/><path d="M1150.19,634.24v0v0Z" fill="#d9ffff"/><path d="M1611.27,636.3v0Z" fill="#d9ffff"/><g id="e7I9GCNRLui62"><path d="M1611.27,636.3v0Z" fill="#d9ffff"/><path d="M1381.58,525.89c-51,54.68-132.48,99.48-219.63,118.57c0,5.82-.17,38.07-.84,186.71-.88,198.28,187.82,295.18,217.12,310.05c28.38-13.07,219.47-109.81,220.35-308.09.67-148.64.81-180.89.84-186.71-86.98-19.87-167.29-65.42-217.84-120.53Z" fill="#f1835a"/><path d="M1381.12,547.4c-52.61,48.27-125.51,86.2-205.66,106.88l-.8,176.86c-.36,80.92,31.79,154.13,95.56,217.59c32.010669,31.581611,68.50725,58.265798,108.31,79.19c1-.48,2-1,3-1.57v-578.54Z" opacity="0.61" fill="#fff"/><path d="M1381.58,547.81v578.54c38.824208-20.337881,74.522738-46.15196,106-76.65c64.33-62.89,97.13-135.81,97.49-216.73l.79-176.86c-79.78-21.33-152.13-59.76-204.28-108.3Z" opacity="0.61" fill="#cecece"/><path d="M1542.19,725.08c-61,9.41-144.12,65.07-196.55,132-7.35-31.56-40.36-60.36-57.63-66.66L1235.69,843c32.67,14.72,68.37,56.44,73.1,99.14l52.27,8.1c22-43.53,79-147.65,192.18-203.64-2.18-8.52-10.18-20.31-11.05-21.52Z" fill="#f1835a"/></g><g id="e7I9GCNRLui68" transform="translate(.000001 0.000001)"><rect width="318.79" height="416.81" rx="31.95" ry="31.95" transform="translate(.55 360.96)" fill="#5ae4a7" stroke="#1a2e35" stroke-width="1.1" stroke-miterlimit="10"/><rect width="318.79" height="416.81" rx="31.95" ry="31.95" transform="translate(.55 360.96)" fill="#34447d"/></g><g id="e7I9GCNRLui71" transform="translate(0 0.000001)"><path d="M349,424.4v352.9c0,17.673112-14.326888,32-32,32h-254.83c-8.481421.000015-16.614591-3.373318-22.60623-9.376213s-9.349703-14.142381-9.33377-22.623787v-352.9c0-17.639975,14.300026-31.94,31.94-31.94h254.88c8.472747-.002653,16.59938,3.361274,22.591455,9.351473s9.358545,14.115779,9.358545,22.588527Z" fill="#27325b"/><g transform="translate(0 0.000001)"><path d="M349,424.4v18.9h-318.77v-18.9c0-17.639975,14.300026-31.94,31.94-31.94h254.88c8.472747-.002653,16.59938,3.361274,22.591455,9.351473s9.358545,14.115779,9.358545,22.588527Z" fill="#f1835a"/><rect width="78.43" height="13.15" rx="0" ry="0" transform="translate(60.21 465.19)" fill="#f1835a"/><rect width="78.43" height="13.15" rx="0" ry="0" transform="translate(60.21 583.12)" fill="#f1835a"/><rect width="78.43" height="13.15" rx="0" ry="0" transform="translate(60.21 690.07)" fill="#f1835a"/><rect width="222.75" height="9.65" rx="0" ry="0" transform="translate(60.21 497.76)" fill="#2c3967"/><rect width="182.58" height="9.4" rx="0" ry="0" transform="translate(60.21 516.22)" fill="#2c3967"/><rect width="206.49" height="9.4" rx="0" ry="0" transform="translate(60.21 534.38)" fill="#2c3967"/><rect width="206.49" height="9.4" rx="0" ry="0" transform="translate(60.21 552.52)" fill="#2c3967"/><rect width="222.75" height="9.65" rx="0" ry="0" transform="translate(60.21 604.7)" fill="#2c3967"/><rect width="182.58" height="9.4" rx="0" ry="0" transform="translate(60.21 623.17)" fill="#2c3967"/><rect width="206.49" height="9.4" rx="0" ry="0" transform="translate(60.21 641.32)" fill="#2c3967"/><rect width="222.75" height="9.65" rx="0" ry="0" transform="translate(60.21 722.15)" fill="#2c3967"/><rect width="182.58" height="9.4" rx="0" ry="0" transform="translate(60.21 740.61)" fill="#2c3967"/><rect width="206.49" height="9.4" rx="0" ry="0" transform="translate(60.21 758.77)" fill="#2c3967"/></g></g><g id="e7I9GCNRLui88" transform="translate(.000001 0)"><path d="M708.27,147.76v142.63c.005307,10.104642-4.005711,19.797094-11.149835,26.943093s-16.835522,11.159562-26.940165,11.156907h-328.52c-21.038144-.005522-38.090001-17.061856-38.09-38.1v-142.63c-.000007-21.041385,17.048622-38.103441,38.09-38.12h328.52c10.106482.002651,19.797828,4.020663,26.941377,11.169838s11.153929,16.843681,11.148623,26.950162Z" fill="#34447d"/><path d="M708.27,147.76v3.24h-404.7v-3.25c-.000007-21.041385,17.048622-38.103441,38.09-38.12h328.52c10.108215.00265,19.801079,4.022034,26.944915,11.173372s11.153045,16.848415,11.145085,26.956628Z" fill="#4858e8"/><path d="M363,137.14c-2.277506,2.27467-5.967537,2.273137-8.243152-.003424s-2.275615-5.966592,0-8.243152s5.965646-2.278094,8.243152-.003424c1.094909,1.093545,1.710137,2.577529,1.710137,4.125s-.615228,3.031455-1.710137,4.125Z" fill="#2c3967"/><path d="M390.12,137.14c-2.277506,2.27467-5.967537,2.273137-8.243152-.003424s-2.275615-5.966592,0-8.243152s5.965646-2.278094,8.243152-.003424c1.094909,1.093545,1.710137,2.577529,1.710137,4.125s-.615228,3.031455-1.710137,4.125Z" fill="#2c3967"/><path d="M417.23,137.14c-1.669225,1.672868-4.182111,2.174848-6.365933,1.271674s-3.608069-3.033456-3.608069-5.396674s1.424248-4.493499,3.608069-5.396674s4.696708-.401194,6.365933,1.271674c2.274664,2.279628,2.274664,5.970372,0,8.25Z" fill="#2c3967"/><rect width="132.29" height="114.35" rx="0" ry="0" transform="translate(329.37 177.24)" fill="none" stroke="#1a2e35" stroke-width="1.1" stroke-linecap="round" stroke-linejoin="round" stroke-dasharray="4.41"/><rect width="152.25" height="8.03" rx="0" ry="0" transform="translate(482.07 177.24)" fill="#2c3967"/><rect width="116.78" height="8.03" rx="0" ry="0" transform="translate(482.07 193.9)" fill="#2c3967"/><rect width="173.91" height="8.13" rx="0" ry="0" transform="translate(482.07 210.45)" fill="#2c3967"/><rect width="148.08" height="8.13" rx="0" ry="0" transform="translate(482.07 226.63)" fill="#2c3967"/></g></g></g><script><![CDATA[!function(t,n){"object"==typeof exports&&"undefined"!=typeof module?module.exports=n():"function"==typeof define&&define.amd?define(n):((t="undefined"!=typeof globalThis?globalThis:t||self).__SVGATOR_PLAYER__=t.__SVGATOR_PLAYER__||{},t.__SVGATOR_PLAYER__["5c7f360c"]=n())}(this,(function(){"use strict";function t(t,n){var r=Object.keys(t);if(Object.getOwnPropertySymbols){var e=Object.getOwnPropertySymbols(t);n&&(e=e.filter((function(n){return Object.getOwnPropertyDescriptor(t,n).enumerable}))),r.push.apply(r,e)}return r}function n(n){for(var r=1;r<arguments.length;r++){var e=null!=arguments[r]?arguments[r]:{};r%2?t(Object(e),!0).forEach((function(t){u(n,t,e[t])})):Object.getOwnPropertyDescriptors?Object.defineProperties(n,Object.getOwnPropertyDescriptors(e)):t(Object(e)).forEach((function(t){Object.defineProperty(n,t,Object.getOwnPropertyDescriptor(e,t))}))}return n}function r(t){return(r="function"==typeof Symbol&&"symbol"==typeof Symbol.iterator?function(t){return typeof t}:function(t){return t&&"function"==typeof Symbol&&t.constructor===Symbol&&t!==Symbol.prototype?"symbol":typeof t})(t)}function e(t,n){if(!(t instanceof n))throw new TypeError("Cannot call a class as a function")}function i(t,n){for(var r=0;r<n.length;r++){var e=n[r];e.enumerable=e.enumerable||!1,e.configurable=!0,"value"in e&&(e.writable=!0),Object.defineProperty(t,e.key,e)}}function o(t,n,r){return n&&i(t.prototype,n),r&&i(t,r),t}function u(t,n,r){return n in t?Object.defineProperty(t,n,{value:r,enumerable:!0,configurable:!0,writable:!0}):t[n]=r,t}function a(t){return(a=Object.setPrototypeOf?Object.getPrototypeOf:function(t){return t.__proto__||Object.getPrototypeOf(t)})(t)}function l(t,n){return(l=Object.setPrototypeOf||function(t,n){return t.__proto__=n,t})(t,n)}function f(){if("undefined"==typeof Reflect||!Reflect.construct)return!1;if(Reflect.construct.sham)return!1;if("function"==typeof Proxy)return!0;try{return Boolean.prototype.valueOf.call(Reflect.construct(Boolean,[],(function(){}))),!0}catch(t){return!1}}function s(t,n,r){return(s=f()?Reflect.construct:function(t,n,r){var e=[null];e.push.apply(e,n);var i=new(Function.bind.apply(t,e));return r&&l(i,r.prototype),i}).apply(null,arguments)}function c(t,n){if(n&&("object"==typeof n||"function"==typeof n))return n;if(void 0!==n)throw new TypeError("Derived constructors may only return object or undefined");return function(t){if(void 0===t)throw new ReferenceError("this hasn't been initialised - super() hasn't been called");return t}(t)}function h(t,n,r){return(h="undefined"!=typeof Reflect&&Reflect.get?Reflect.get:function(t,n,r){var e=function(t,n){for(;!Object.prototype.hasOwnProperty.call(t,n)&&null!==(t=a(t)););return t}(t,n);if(e){var i=Object.getOwnPropertyDescriptor(e,n);return i.get?i.get.call(r):i.value}})(t,n,r||t)}function v(t){return function(t){if(Array.isArray(t))return y(t)}(t)||function(t){if("undefined"!=typeof Symbol&&null!=t[Symbol.iterator]||null!=t["@@iterator"])return Array.from(t)}(t)||function(t,n){if(!t)return;if("string"==typeof t)return y(t,n);var r=Object.prototype.toString.call(t).slice(8,-1);"Object"===r&&t.constructor&&(r=t.constructor.name);if("Map"===r||"Set"===r)return Array.from(t);if("Arguments"===r||/^(?:Ui|I)nt(?:8|16|32)(?:Clamped)?Array$/.test(r))return y(t,n)}(t)||function(){throw new TypeError("Invalid attempt to spread non-iterable instance.\nIn order to be iterable, non-array objects must have a [Symbol.iterator]() method.")}()}function y(t,n){(null==n||n>t.length)&&(n=t.length);for(var r=0,e=new Array(n);r<n;r++)e[r]=t[r];return e}Number.isInteger||(Number.isInteger=function(t){return"number"==typeof t&&isFinite(t)&&Math.floor(t)===t}),Number.EPSILON||(Number.EPSILON=2220446049250313e-31);var g=p(Math.pow(10,-6));function p(t){var n=arguments.length>1&&void 0!==arguments[1]?arguments[1]:6;if(Number.isInteger(t))return t;var r=Math.pow(10,n);return Math.round((+t+Number.EPSILON)*r)/r}function d(t,n){var r=arguments.length>2&&void 0!==arguments[2]?arguments[2]:g;return Math.abs(t-n)<r}var m=Math.PI/180;function b(t){return t}function w(t,n,r){var e=1-r;return 3*r*e*(t*e+n*r)+r*r*r}function x(){var t=arguments.length>0&&void 0!==arguments[0]?arguments[0]:0,n=arguments.length>1&&void 0!==arguments[1]?arguments[1]:0,r=arguments.length>2&&void 0!==arguments[2]?arguments[2]:1,e=arguments.length>3&&void 0!==arguments[3]?arguments[3]:1;return t<0||t>1||r<0||r>1?null:d(t,n)&&d(r,e)?b:function(i){if(i<=0)return t>0?i*n/t:0===n&&r>0?i*e/r:0;if(i>=1)return r<1?1+(i-1)*(e-1)/(r-1):1===r&&t<1?1+(i-1)*(n-1)/(t-1):1;for(var o,u=0,a=1;u<a;){var l=w(t,r,o=(u+a)/2);if(d(i,l))break;l<i?u=o:a=o}return w(n,e,o)}}function A(){return 1}function k(t){return 1===t?1:0}function _(){var t=arguments.length>0&&void 0!==arguments[0]?arguments[0]:1,n=arguments.length>1&&void 0!==arguments[1]?arguments[1]:0;if(1===t){if(0===n)return k;if(1===n)return A}var r=1/t;return function(t){return t>=1?1:(t+=n*r)-t%r}}var S=Math.sin,O=Math.cos,j=Math.acos,M=Math.asin,P=Math.tan,E=Math.atan2,I=Math.PI/180,R=180/Math.PI,F=Math.sqrt,N=function(){function t(){var n=arguments.length>0&&void 0!==arguments[0]?arguments[0]:1,r=arguments.length>1&&void 0!==arguments[1]?arguments[1]:0,i=arguments.length>2&&void 0!==arguments[2]?arguments[2]:0,o=arguments.length>3&&void 0!==arguments[3]?arguments[3]:1,u=arguments.length>4&&void 0!==arguments[4]?arguments[4]:0,a=arguments.length>5&&void 0!==arguments[5]?arguments[5]:0;e(this,t),this.m=[n,r,i,o,u,a],this.i=null,this.w=null,this.s=null}return o(t,[{key:"determinant",get:function(){var t=this.m;return t[0]*t[3]-t[1]*t[2]}},{key:"isIdentity",get:function(){if(null===this.i){var t=this.m;this.i=1===t[0]&&0===t[1]&&0===t[2]&&1===t[3]&&0===t[4]&&0===t[5]}return this.i}},{key:"point",value:function(t,n){var r=this.m;return{x:r[0]*t+r[2]*n+r[4],y:r[1]*t+r[3]*n+r[5]}}},{key:"translateSelf",value:function(){var t=arguments.length>0&&void 0!==arguments[0]?arguments[0]:0,n=arguments.length>1&&void 0!==arguments[1]?arguments[1]:0;if(!t&&!n)return this;var r=this.m;return r[4]+=r[0]*t+r[2]*n,r[5]+=r[1]*t+r[3]*n,this.w=this.s=this.i=null,this}},{key:"rotateSelf",value:function(){var t=arguments.length>0&&void 0!==arguments[0]?arguments[0]:0;if(t%=360){var n=S(t*=I),r=O(t),e=this.m,i=e[0],o=e[1];e[0]=i*r+e[2]*n,e[1]=o*r+e[3]*n,e[2]=e[2]*r-i*n,e[3]=e[3]*r-o*n,this.w=this.s=this.i=null}return this}},{key:"scaleSelf",value:function(){var t=arguments.length>0&&void 0!==arguments[0]?arguments[0]:1,n=arguments.length>1&&void 0!==arguments[1]?arguments[1]:1;if(1!==t||1!==n){var r=this.m;r[0]*=t,r[1]*=t,r[2]*=n,r[3]*=n,this.w=this.s=this.i=null}return this}},{key:"skewSelf",value:function(t,n){if(n%=360,(t%=360)||n){var r=this.m,e=r[0],i=r[1],o=r[2],u=r[3];t&&(t=P(t*I),r[2]+=e*t,r[3]+=i*t),n&&(n=P(n*I),r[0]+=o*n,r[1]+=u*n),this.w=this.s=this.i=null}return this}},{key:"resetSelf",value:function(){var t=arguments.length>0&&void 0!==arguments[0]?arguments[0]:1,n=arguments.length>1&&void 0!==arguments[1]?arguments[1]:0,r=arguments.length>2&&void 0!==arguments[2]?arguments[2]:0,e=arguments.length>3&&void 0!==arguments[3]?arguments[3]:1,i=arguments.length>4&&void 0!==arguments[4]?arguments[4]:0,o=arguments.length>5&&void 0!==arguments[5]?arguments[5]:0,u=this.m;return u[0]=t,u[1]=n,u[2]=r,u[3]=e,u[4]=i,u[5]=o,this.w=this.s=this.i=null,this}},{key:"recomposeSelf",value:function(){var t=arguments.length>0&&void 0!==arguments[0]?arguments[0]:null,n=arguments.length>1&&void 0!==arguments[1]?arguments[1]:null,r=arguments.length>2&&void 0!==arguments[2]?arguments[2]:null,e=arguments.length>3&&void 0!==arguments[3]?arguments[3]:null,i=arguments.length>4&&void 0!==arguments[4]?arguments[4]:null;return this.isIdentity||this.resetSelf(),t&&(t.x||t.y)&&this.translateSelf(t.x,t.y),n&&this.rotateSelf(n),r&&(r.x&&this.skewSelf(r.x,0),r.y&&this.skewSelf(0,r.y)),!e||1===e.x&&1===e.y||this.scaleSelf(e.x,e.y),i&&(i.x||i.y)&&this.translateSelf(i.x,i.y),this}},{key:"decompose",value:function(){var t=arguments.length>0&&void 0!==arguments[0]?arguments[0]:0,n=arguments.length>1&&void 0!==arguments[1]?arguments[1]:0,r=this.m,e=r[0]*r[0]+r[1]*r[1],i=[[r[0],r[1]],[r[2],r[3]]],o=F(e);if(0===o)return{origin:{x:p(r[4]),y:p(r[5])},translate:{x:p(t),y:p(n)},scale:{x:0,y:0},skew:{x:0,y:0},rotate:0};i[0][0]/=o,i[0][1]/=o;var u=r[0]*r[3]-r[1]*r[2]<0;u&&(o=-o);var a=i[0][0]*i[1][0]+i[0][1]*i[1][1];i[1][0]-=i[0][0]*a,i[1][1]-=i[0][1]*a;var l=F(i[1][0]*i[1][0]+i[1][1]*i[1][1]);if(0===l)return{origin:{x:p(r[4]),y:p(r[5])},translate:{x:p(t),y:p(n)},scale:{x:p(o),y:0},skew:{x:0,y:0},rotate:0};i[1][0]/=l,i[1][1]/=l,a/=l;var f=0;return i[1][1]<0?(f=j(i[1][1])*R,i[0][1]<0&&(f=360-f)):f=M(i[0][1])*R,u&&(f=-f),a=E(a,F(i[0][0]*i[0][0]+i[0][1]*i[0][1]))*R,u&&(a=-a),{origin:{x:p(r[4]),y:p(r[5])},translate:{x:p(t),y:p(n)},scale:{x:p(o),y:p(l)},skew:{x:p(a),y:0},rotate:p(f)}}},{key:"clone",value:function(){var t=this.m;return new this.constructor(t[0],t[1],t[2],t[3],t[4],t[5])}},{key:"toString",value:function(){var t=arguments.length>0&&void 0!==arguments[0]?arguments[0]:" ";if(null===this.s){var n=this.m.map((function(t){return p(t)}));1===n[0]&&0===n[1]&&0===n[2]&&1===n[3]?this.s="translate("+n[4]+t+n[5]+")":this.s="matrix("+n.join(t)+")"}return this.s}}],[{key:"create",value:function(t){return t?Array.isArray(t)?s(this,v(t)):t instanceof this?t.clone():(new this).recomposeSelf(t.origin,t.rotate,t.skew,t.scale,t.translate):new this}}]),t}();function T(t,n,r){return t>=.5?r:n}function q(t,n,r){return 0===t||n===r?n:t*(r-n)+n}function B(t,n,r){var e=q(t,n,r);return e<=0?0:e}function L(t,n,r){var e=q(t,n,r);return e<=0?0:e>=1?1:e}function C(t,n,r){return 0===t?n:1===t?r:{x:q(t,n.x,r.x),y:q(t,n.y,r.y)}}function D(t,n,r){var e=function(t,n,r){return Math.round(q(t,n,r))}(t,n,r);return e<=0?0:e>=255?255:e}function z(t,n,r){return 0===t?n:1===t?r:{r:D(t,n.r,r.r),g:D(t,n.g,r.g),b:D(t,n.b,r.b),a:q(t,null==n.a?1:n.a,null==r.a?1:r.a)}}function V(t,n){for(var r=[],e=0;e<t;e++)r.push(n);return r}function G(t,n){if(--n<=0)return t;var r=(t=Object.assign([],t)).length;do{for(var e=0;e<r;e++)t.push(t[e])}while(--n>0);return t}var Y,$=function(){function t(n){e(this,t),this.list=n,this.length=n.length}return o(t,[{key:"setAttribute",value:function(t,n){for(var r=this.list,e=0;e<this.length;e++)r[e].setAttribute(t,n)}},{key:"removeAttribute",value:function(t){for(var n=this.list,r=0;r<this.length;r++)n[r].removeAttribute(t)}},{key:"style",value:function(t,n){for(var r=this.list,e=0;e<this.length;e++)r[e].style[t]=n}}]),t}(),U=/-./g,Q=function(t,n){return n.toUpperCase()};function H(t){return"function"==typeof t?t:T}function J(t){return t?"function"==typeof t?t:Array.isArray(t)?function(t){var n=arguments.length>1&&void 0!==arguments[1]?arguments[1]:b;if(!Array.isArray(t))return n;switch(t.length){case 1:return _(t[0])||n;case 2:return _(t[0],t[1])||n;case 4:return x(t[0],t[1],t[2],t[3])||n}return n}(t,null):function(t,n){var r=arguments.length>2&&void 0!==arguments[2]?arguments[2]:b;switch(t){case"linear":return b;case"steps":return _(n.steps||1,n.jump||0)||r;case"bezier":case"cubic-bezier":return x(n.x1||0,n.y1||0,n.x2||0,n.y2||0)||r}return r}(t.type,t.value,null):null}function Z(t,n,r){var e=arguments.length>3&&void 0!==arguments[3]&&arguments[3],i=n.length-1;if(t<=n[0].t)return e?[0,0,n[0].v]:n[0].v;if(t>=n[i].t)return e?[i,1,n[i].v]:n[i].v;var o,u=n[0],a=null;for(o=1;o<=i;o++){if(!(t>n[o].t)){a=n[o];break}u=n[o]}return null==a?e?[i,1,n[i].v]:n[i].v:u.t===a.t?e?[o,1,a.v]:a.v:(t=(t-u.t)/(a.t-u.t),u.e&&(t=u.e(t)),e?[o,t,r(t,u.v,a.v)]:r(t,u.v,a.v))}function K(t,n){var r=arguments.length>2&&void 0!==arguments[2]?arguments[2]:null;return t&&t.length?"function"!=typeof n?null:("function"!=typeof r&&(r=null),function(e){var i=Z(e,t,n);return null!=i&&r&&(i=r(i)),i}):null}function W(t,n){return t.t-n.t}function X(t,n,e,i,o){var u,a="@"===e[0],l="#"===e[0],f=Y[e],s=T;switch(a?(u=e.substr(1),e=u.replace(U,Q)):l&&(e=e.substr(1)),r(f)){case"function":if(s=f(i,o,Z,J,e,a,n,t),l)return s;break;case"string":s=K(i,H(f));break;case"object":if((s=K(i,H(f.i),f.f))&&"function"==typeof f.u)return f.u(n,s,e,a,t)}return s?function(t,n,r){if(arguments.length>3&&void 0!==arguments[3]&&arguments[3])return t instanceof $?function(e){return t.style(n,r(e))}:function(e){return t.style[n]=r(e)};if(Array.isArray(n)){var e=n.length;return function(i){var o=r(i);if(null==o)for(var u=0;u<e;u++)t[u].removeAttribute(n);else for(var a=0;a<e;a++)t[a].setAttribute(n,o)}}return function(e){var i=r(e);null==i?t.removeAttribute(n):t.setAttribute(n,i)}}(n,e,s,a):null}function tt(t,n,e,i){if(!i||"object"!==r(i))return null;var o=null,u=null;return Array.isArray(i)?u=function(t){if(!t||!t.length)return null;for(var n=0;n<t.length;n++)t[n].e&&(t[n].e=J(t[n].e));return t.sort(W)}(i):(u=i.keys,o=i.data||null),u?X(t,n,e,u,o):null}function nt(t,n,r){if(!r)return null;var e=[];for(var i in r)if(r.hasOwnProperty(i)){var o=tt(t,n,i,r[i]);o&&e.push(o)}return e.length?e:null}function rt(t,n){if(!n.duration||n.duration<0)return null;var r=function(t,n){if(!n)return null;var r=[];if(Array.isArray(n))for(var e=n.length,i=0;i<e;i++){var o=n[i];if(2===o.length){var u=null;if("string"==typeof o[0])u=t.getElementById(o[0]);else if(Array.isArray(o[0])){u=[];for(var a=0;a<o[0].length;a++)if("string"==typeof o[0][a]){var l=t.getElementById(o[0][a]);l&&u.push(l)}u=u.length?1===u.length?u[0]:new $(u):null}if(u){var f=nt(t,u,o[1]);f&&(r=r.concat(f))}}}else for(var s in n)if(n.hasOwnProperty(s)){var c=t.getElementById(s);if(c){var h=nt(t,c,n[s]);h&&(r=r.concat(h))}}return r.length?r:null}(t,n.elements);return r?function(t,n){var r=arguments.length>2&&void 0!==arguments[2]?arguments[2]:1/0,e=arguments.length>3&&void 0!==arguments[3]?arguments[3]:1,i=arguments.length>4&&void 0!==arguments[4]&&arguments[4],o=arguments.length>5&&void 0!==arguments[5]?arguments[5]:1,u=t.length,a=e>0?n:0;i&&r%2==0&&(a=n-a);var l=null;return function(f,s){var c=f%n,h=1+(f-c)/n;s*=e,i&&h%2==0&&(s=-s);var v=!1;if(h>r)c=a,v=!0,-1===o&&(c=e>0?0:n);else if(s<0&&(c=n-c),c===l)return!1;l=c;for(var y=0;y<u;y++)t[y](c);return v}}(r,n.duration,n.iterations||1/0,n.direction||1,!!n.alternate,n.fill||1):null}function et(t){return+("0x"+(t.replace(/[^0-9a-fA-F]+/g,"")||27))}function it(t,n,r){return!t||!r||n>t.length?t:t.substring(0,n)+it(t.substring(n+1),r,r)}function ot(t){var n=arguments.length>1&&void 0!==arguments[1]?arguments[1]:27;return!t||t%n?t%n:ot(t/n,n)}function ut(t,n,r){if(t&&t.length){var e=et(r),i=et(n),o=ot(e)+5,u=it(t,ot(e,5),o);return u=u.replace(/\x7c$/g,"==").replace(/\x2f$/g,"="),u=function(t,n,r){var e=+("0x"+t.substring(0,4));t=t.substring(4);for(var i=n%e+r%27,o=[],u=0;u<t.length;u+=2)if("|"!==t[u]){var a=+("0x"+t[u]+t[u+1])-i;o.push(a)}else{var l=+("0x"+t.substring(u+1,u+1+4))-i;u+=3,o.push(l)}return String.fromCharCode.apply(String,o)}(u=(u=atob(u)).replace(/[\x41-\x5A]/g,""),i,e),u=JSON.parse(u)}}var at=function(){function t(n,r){var i=arguments.length>2&&void 0!==arguments[2]?arguments[2]:{};e(this,t),this._id=0,this._running=!1,this._rollingBack=!1,this._animations=n,this.duration=r.duration,this.alternate=r.alternate,this.fill=r.fill,this.iterations=r.iterations,this.direction=i.direction||1,this.speed=i.speed||1,this.fps=i.fps||100,this.offset=i.offset||0,this.rollbackStartOffset=0}return o(t,[{key:"maxFiniteDuration",get:function(){return this.iterations>0?this.iterations*this.duration:this.duration}},{key:"_apply",value:function(t){for(var n=arguments.length>1&&void 0!==arguments[1]?arguments[1]:{},r=this._animations,e=r.length,i=0,o=0;o<e;o++)n[o]?i++:(n[o]=r[o](t,this.direction),n[o]&&i++);return i}},{key:"_rollback",value:function(){var t=this,n=1/0,r=null;this.rollbackStartOffset=this.offset,this._rollingBack=!0,this._running=!0;this._id=window.requestAnimationFrame((function e(i){if(t._rollingBack){null==r&&(r=i);var o=i-r,u=t.rollbackStartOffset-o,a=Math.round(u*t.speed);if(a>t.duration&&n!==1/0){var l=!!t.alternate&&a/t.duration%2>1,f=a%t.duration;a=(f+=l?t.duration:0)||t.duration}var s=t.fps?1e3/t.fps:0,c=Math.max(0,a);c<n-s&&(t.offset=c,n=c,t._apply(c));var h=t.iterations>0&&-1===t.fill&&a>=t.maxFiniteDuration;(a<=0||t.offset<a||h)&&t.stop(),t._id=window.requestAnimationFrame(e)}}))}},{key:"_start",value:function(){var t=this,n=arguments.length>0&&void 0!==arguments[0]?arguments[0]:0,r=-1/0,e=null,i={};this._running=!0;var o=function o(u){null==e&&(e=u);var a=Math.round((u-e+n)*t.speed),l=t.fps?1e3/t.fps:0;if(a>r+l&&!t._rollingBack&&(t.offset=a,r=a,t._apply(a,i)===t._animations.length))return void t.pause(!0);t._id=window.requestAnimationFrame(o)};this._id=window.requestAnimationFrame(o)}},{key:"_pause",value:function(){this._id&&window.cancelAnimationFrame(this._id),this._running=!1}},{key:"play",value:function(){if(!this._running)return this._rollingBack?this._rollback():this._start(this.offset)}},{key:"stop",value:function(){this._pause(),this.offset=0,this.rollbackStartOffset=0,this._rollingBack=!1,this._apply(0)}},{key:"reachedToEnd",value:function(){return this.iterations>0&&this.offset>=this.iterations*this.duration}},{key:"restart",value:function(){var t=arguments.length>0&&void 0!==arguments[0]&&arguments[0];this.stop(t),this.play(t)}},{key:"pause",value:function(){this._pause()}},{key:"reverse",value:function(){this.direction=-this.direction}}],[{key:"build",value:function(t,r){return delete t.animationSettings,t.options=ut(t.options,t.root,"5c7f360c"),t.animations.map((function(r){var e=ut(r.s,t.root,"5c7f360c");for(var i in delete r.s,t.animationSettings||(t.animationSettings=n({},e)),e)e.hasOwnProperty(i)&&(r[i]=e[i])})),(t=function(t,n){if(Y=n,!t||!t.root||!Array.isArray(t.animations))return null;for(var r=document.getElementsByTagName("svg"),e=!1,i=0;i<r.length;i++)if(r[i].id===t.root&&!r[i].svgatorAnimation){(e=r[i]).svgatorAnimation=!0;break}if(!e)return null;var o=t.animations.map((function(t){return rt(e,t)})).filter((function(t){return!!t}));return o.length?{element:e,animations:o,animationSettings:t.animationSettings,options:t.options||void 0}:null}(t,r))?{el:t.element,options:t.options||{},player:new this(t.animations,t.animationSettings,t.options)}:null}},{key:"push",value:function(t){return this.build(t)}},{key:"init",value:function(){var t=this,n=window.__SVGATOR_PLAYER__&&window.__SVGATOR_PLAYER__["5c7f360c"];Array.isArray(n)&&n.splice(0).forEach((function(n){return t.build(n)}))}}]),t}();function lt(t){return p(t)+""}function ft(t){var n=arguments.length>1&&void 0!==arguments[1]?arguments[1]:" ";return t&&t.length?t.map(lt).join(n):""}function st(t){if(!t)return"transparent";if(null==t.a||t.a>=1){var n=function(t){return 1===(t=parseInt(t).toString(16)).length?"0"+t:t},r=function(t){return t.charAt(0)===t.charAt(1)},e=n(t.r),i=n(t.g),o=n(t.b);return r(e)&&r(i)&&r(o)&&(e=e.charAt(0),i=i.charAt(0),o=o.charAt(0)),"#"+e+i+o}return"rgba("+t.r+","+t.g+","+t.b+","+t.a+")"}function ct(t){return t?"url(#"+t+")":"none"}!function(){for(var t=0,n=["ms","moz","webkit","o"],r=0;r<n.length&&!window.requestAnimationFrame;++r)window.requestAnimationFrame=window[n[r]+"RequestAnimationFrame"],window.cancelAnimationFrame=window[n[r]+"CancelAnimationFrame"]||window[n[r]+"CancelRequestAnimationFrame"];window.requestAnimationFrame||(window.requestAnimationFrame=function(n){var r=Date.now(),e=Math.max(0,16-(r-t)),i=window.setTimeout((function(){n(r+e)}),e);return t=r+e,i},window.cancelAnimationFrame=window.clearTimeout)}();var ht={f:null,i:function(t,n,r){return 0===t?n:1===t?r:{x:B(t,n.x,r.x),y:B(t,n.y,r.y)}},u:function(t,n){return function(r){var e=n(r);t.setAttribute("rx",lt(e.x)),t.setAttribute("ry",lt(e.y))}}},vt={f:null,i:function(t,n,r){return 0===t?n:1===t?r:{width:B(t,n.width,r.width),height:B(t,n.height,r.height)}},u:function(t,n){return function(r){var e=n(r);t.setAttribute("width",lt(e.width)),t.setAttribute("height",lt(e.height))}}};Object.freeze({M:2,L:2,Z:0,H:1,V:1,C:6,Q:4,T:2,S:4,A:7});var yt={},gt=null;function pt(t){var n=function(){if(gt)return gt;if("object"!==("undefined"==typeof document?"undefined":r(document))||!document.createElementNS)return{};var t=document.createElementNS("http://www.w3.org/2000/svg","svg");return t&&t.style?(t.style.position="absolute",t.style.opacity="0.01",t.style.zIndex="-9999",t.style.left="-9999px",t.style.width="1px",t.style.height="1px",gt={svg:t}):{}}().svg;if(!n)return function(t){return null};var e=document.createElementNS(n.namespaceURI,"path");e.setAttributeNS(null,"d",t),e.setAttributeNS(null,"fill","none"),e.setAttributeNS(null,"stroke","none"),n.appendChild(e);var i=e.getTotalLength();return function(t){var n=e.getPointAtLength(i*t);return{x:n.x,y:n.y}}}function dt(t){return yt[t]?yt[t]:yt[t]=pt(t)}function mt(t,n,r,e){if(!t||!e)return!1;var i=["M",t.x,t.y];if(n&&r&&(i.push("C"),i.push(n.x),i.push(n.y),i.push(r.x),i.push(r.y)),n?!r:r){var o=n||r;i.push("Q"),i.push(o.x),i.push(o.y)}return n||r||i.push("L"),i.push(e.x),i.push(e.y),i.join(" ")}function bt(t,n,r,e){var i=arguments.length>4&&void 0!==arguments[4]?arguments[4]:1,o=mt(t,n,r,e),u=dt(o);try{return u(i)}catch(t){return null}}function wt(t,n,r){return t+(n-t)*r}function xt(t,n,r){var e=arguments.length>3&&void 0!==arguments[3]&&arguments[3],i={x:wt(t.x,n.x,r),y:wt(t.y,n.y,r)};return e&&(i.a=At(t,n)),i}function At(t,n){return Math.atan2(n.y-t.y,n.x-t.x)}function kt(t,n,r,e){var i=1-e;return i*i*t+2*i*e*n+e*e*r}function _t(t,n,r,e){return 2*(1-e)*(n-t)+2*e*(r-n)}function St(t,n,r,e){var i=arguments.length>4&&void 0!==arguments[4]&&arguments[4],o=bt(t,n,null,r,e);return o||(o={x:kt(t.x,n.x,r.x,e),y:kt(t.y,n.y,r.y,e)}),i&&(o.a=Ot(t,n,r,e)),o}function Ot(t,n,r,e){return Math.atan2(_t(t.y,n.y,r.y,e),_t(t.x,n.x,r.x,e))}function jt(t,n,r,e,i){var o=i*i;return i*o*(e-t+3*(n-r))+3*o*(t+r-2*n)+3*i*(n-t)+t}function Mt(t,n,r,e,i){var o=1-i;return 3*(o*o*(n-t)+2*o*i*(r-n)+i*i*(e-r))}function Pt(t,n,r,e,i){var o=arguments.length>5&&void 0!==arguments[5]&&arguments[5],u=bt(t,n,r,e,i);return u||(u={x:jt(t.x,n.x,r.x,e.x,i),y:jt(t.y,n.y,r.y,e.y,i)}),o&&(u.a=Et(t,n,r,e,i)),u}function Et(t,n,r,e,i){return Math.atan2(Mt(t.y,n.y,r.y,e.y,i),Mt(t.x,n.x,r.x,e.x,i))}function It(t,n,r){var e=arguments.length>3&&void 0!==arguments[3]&&arguments[3];if(Ft(n)){if(Nt(r))return St(n,r.start,r,t,e)}else if(Ft(r)){if(n.end)return St(n,n.end,r,t,e)}else{if(n.end)return r.start?Pt(n,n.end,r.start,r,t,e):St(n,n.end,r,t,e);if(r.start)return St(n,r.start,r,t,e)}return xt(n,r,t,e)}function Rt(t,n,r){var e=It(t,n,r,!0);return e.a=function(t){return arguments.length>1&&void 0!==arguments[1]&&arguments[1]?t+Math.PI:t}(e.a)/m,e}function Ft(t){return!t.type||"corner"===t.type}function Nt(t){return null!=t.start&&!Ft(t)}var Tt=new N;var qt={f:lt,i:q},Bt={f:lt,i:L};function Lt(t,n,r){return t.map((function(t){return function(t,n,r){var e=t.v;if(!e||"g"!==e.t||e.s||!e.v||!e.r)return t;var i=r.getElementById(e.r),o=i&&i.querySelectorAll("stop")||[];return e.s=e.v.map((function(t,n){var r=o[n]&&o[n].getAttribute("offset");return{c:t,o:r=p(parseInt(r)/100)}})),delete e.v,t}(t,0,r)}))}var Ct={gt:"gradientTransform",c:{x:"cx",y:"cy"},rd:"r",f:{x:"x1",y:"y1"},to:{x:"x2",y:"y2"}};function Dt(t,n,e,i,o,u,a,l){return Lt(t,0,l),n=function(t,n,r){for(var e,i,o,u=t.length-1,a={},l=0;l<=u;l++)(e=t[l]).e&&(e.e=n(e.e)),e.v&&"g"===(i=e.v).t&&i.r&&(o=r.getElementById(i.r))&&(a[i.r]={e:o,s:o.querySelectorAll("stop")});return a}(t,i,l),function(i){var o=e(i,t,zt);if(!o)return"none";if("c"===o.t)return st(o.v);if("g"===o.t){if(!n[o.r])return ct(o.r);var u=n[o.r];return function(t,n){for(var r=t.s,e=r.length;e<n.length;e++){var i=r[r.length-1].cloneNode();i.id=Yt(i.id),t.e.appendChild(i),r=t.s=t.e.querySelectorAll("stop")}for(var o=0,u=r.length,a=n.length-1;o<u;o++)r[o].setAttribute("stop-color",st(n[Math.min(o,a)].c)),r[o].setAttribute("offset",n[Math.min(o,a)].o)}(u,o.s),Object.keys(Ct).forEach((function(t){if(void 0!==o[t])if("object"!==r(Ct[t])){var n,e="gt"===t?(n=o[t],Array.isArray(n)?"matrix("+n.join(" ")+")":""):o[t],i=Ct[t];u.e.setAttribute(i,e)}else Object.keys(Ct[t]).forEach((function(n){if(void 0!==o[t][n]){var r=o[t][n],e=Ct[t][n];u.e.setAttribute(e,r)}}))})),ct(o.r)}return"none"}}function zt(t,r,e){if(0===t)return r;if(1===t)return e;if(r&&e){var i=r.t;if(i===e.t)switch(r.t){case"c":return{t:i,v:z(t,r.v,e.v)};case"g":if(r.r===e.r){var o={t:i,s:Vt(t,r.s,e.s),r:r.r};return r.gt&&e.gt&&(o.gt=function(t,n,r){var e=n.length;if(e!==r.length)return T(t,n,r);for(var i=new Array(e),o=0;o<e;o++)i[o]=q(t,n[o],r[o]);return i}(t,r.gt,e.gt)),r.c?(o.c=C(t,r.c,e.c),o.rd=B(t,r.rd,e.rd)):r.f&&(o.f=C(t,r.f,e.f),o.to=C(t,r.to,e.to)),o}}if("c"===r.t&&"g"===e.t||"c"===e.t&&"g"===r.t){var u="c"===r.t?r:e,a="g"===r.t?n({},r):n({},e),l=a.s.map((function(t){return{c:u.v,o:t.o}}));return a.s="c"===r.t?Vt(t,l,a.s):Vt(t,a.s,l),a}}return T(t,r,e)}function Vt(t,n,r){if(n.length===r.length)return n.map((function(n,e){return Gt(t,n,r[e])}));for(var e=Math.max(n.length,r.length),i=[],o=0;o<e;o++){var u=Gt(t,n[Math.min(o,n.length-1)],r[Math.min(o,r.length-1)]);i.push(u)}return i}function Gt(t,n,r){return{o:L(t,n.o,r.o||0),c:z(t,n.c,r.c||{})}}function Yt(t){return t.replace(/-fill-([0-9]+)$/,(function(t,n){return"-fill-"+(+n+1)}))}var $t={fill:Dt,"fill-opacity":Bt,stroke:Dt,"stroke-opacity":Bt,"stroke-width":qt,"stroke-dashoffset":{f:lt,i:q},"stroke-dasharray":{f:function(t){var n=arguments.length>1&&void 0!==arguments[1]?arguments[1]:" ";return t&&t.length>0&&(t=t.map((function(t){return p(t,4)}))),ft(t,n)},i:function(t,n,r){var e,i,o,u=n.length,a=r.length;if(u!==a)if(0===u)n=V(u=a,0);else if(0===a)a=u,r=V(u,0);else{var l=(o=(e=u)*(i=a)/function(t,n){for(var r;n;)r=n,n=t%n,t=r;return t||1}(e,i))<0?-o:o;n=G(n,Math.floor(l/u)),r=G(r,Math.floor(l/a)),u=a=l}for(var f=[],s=0;s<u;s++)f.push(p(B(t,n[s],r[s])));return f}},opacity:Bt,transform:function(t,n,e,i){if(!(t=function(t,n){if(!t||"object"!==r(t))return null;var e=!1;for(var i in t)t.hasOwnProperty(i)&&(t[i]&&t[i].length?(t[i].forEach((function(t){t.e&&(t.e=n(t.e))})),e=!0):delete t[i]);return e?t:null}(t,i)))return null;var o=function(r,i,o){var u=arguments.length>3&&void 0!==arguments[3]?arguments[3]:null;return t[r]?e(i,t[r],o):n&&n[r]?n[r]:u};return n&&n.a&&t.o?function(n){var r=e(n,t.o,Rt);return Tt.recomposeSelf(r,o("r",n,q,0)+r.a,o("k",n,C),o("s",n,C),o("t",n,C)).toString()}:function(t){return Tt.recomposeSelf(o("o",t,It,null),o("r",t,q,0),o("k",t,C),o("s",t,C),o("t",t,C)).toString()}},r:qt,"#size":vt,"#radius":ht,_:function(t,n){if(Array.isArray(t))for(var r=0;r<t.length;r++)this[t[r]]=n;else this[t]=n}},Ut=function(t){!function(t,n){if("function"!=typeof n&&null!==n)throw new TypeError("Super expression must either be null or a function");t.prototype=Object.create(n&&n.prototype,{constructor:{value:t,writable:!0,configurable:!0}}),n&&l(t,n)}(u,t);var n,r,i=(n=u,r=f(),function(){var t,e=a(n);if(r){var i=a(this).constructor;t=Reflect.construct(e,arguments,i)}else t=e.apply(this,arguments);return c(this,t)});function u(){return e(this,u),i.apply(this,arguments)}return o(u,null,[{key:"build",value:function(t){var n=h(a(u),"build",this).call(this,t,$t);if(!n)return null;n.el,n.options,function(t,n,r){t.play()}(n.player)}}]),u}(at);return Ut.init(),Ut}));
(function(s,i,o,w,a,b){w[o]=w[o]||{};w[o][s]=w[o][s]||[];w[o][s].push(i);})('5c7f360c',{"root":"e7I9GCNRLui1","animations":[{"elements":{"e7I9GCNRLui10":{"transform":{"data":{"o":{"x":1296.52533,"y":259.685204,"type":"corner"},"t":{"x":-1296.525329,"y":-259.685203}},"keys":{"r":[{"t":0,"v":0},{"t":10000,"v":720}]}}},"e7I9GCNRLui20":{"transform":{"data":{"o":{"x":1522.665161,"y":105.339243,"type":"corner"},"t":{"x":-1522.665161,"y":-105.339243}},"keys":{"r":[{"t":0,"v":0},{"t":10000,"v":-720}]}}},"e7I9GCNRLui57":{"transform":{"data":{"o":{"x":625.338306,"y":558.886963,"type":"corner"},"t":{"x":-625.338305,"y":-558.886963}},"keys":{"r":[{"t":0,"v":0},{"t":500,"v":20},{"t":700,"v":0},{"t":1500,"v":0},{"t":2000,"v":20},{"t":2200,"v":0},{"t":3000,"v":0},{"t":3500,"v":20},{"t":3700,"v":0},{"t":4500,"v":0},{"t":5000,"v":20},{"t":5200,"v":0},{"t":6000,"v":0},{"t":6500,"v":20},{"t":6700,"v":0},{"t":7500,"v":0},{"t":8000,"v":20},{"t":8200,"v":0},{"t":9000,"v":0},{"t":9500,"v":20},{"t":9700,"v":0}]}}},"e7I9GCNRLui62":{"transform":{"data":{"t":{"x":-1386.188477,"y":-833.554993}},"keys":{"o":[{"t":0,"v":{"x":1386.188477,"y":833.554993,"type":"corner"}},{"t":1000,"v":{"x":1388.093384,"y":758.770002,"type":"corner"}},{"t":2000,"v":{"x":1386.188477,"y":833.554993,"type":"corner"}},{"t":3000,"v":{"x":1388.093384,"y":758.770002,"type":"corner"}},{"t":4000,"v":{"x":1386.188477,"y":833.554993,"type":"corner"}},{"t":5000,"v":{"x":1388.093384,"y":758.770002,"type":"corner"}},{"t":6000,"v":{"x":1386.188477,"y":833.554993,"type":"corner"}},{"t":7000,"v":{"x":1388.093384,"y":758.770002,"type":"corner"}},{"t":8000,"v":{"x":1386.188477,"y":833.554993,"type":"corner"}},{"t":9000,"v":{"x":1388.093384,"y":758.770002,"type":"corner"}},{"t":10000,"v":{"x":1386.188477,"y":833.554993,"type":"corner"}}]}}},"e7I9GCNRLui68":{"transform":{"data":{"t":{"x":-159.945004,"y":-569.365005}},"keys":{"o":[{"t":2000,"v":{"x":159.945005,"y":569.365006,"type":"corner"}},{"t":3500,"v":{"x":163.78,"y":660.410448,"type":"corner"}},{"t":5000,"v":{"x":159.945005,"y":569.365006,"type":"corner"}},{"t":6500,"v":{"x":159.945005,"y":569.365006,"type":"corner"}},{"t":8000,"v":{"x":163.78,"y":660.410448,"type":"corner"}},{"t":9500,"v":{"x":159.945005,"y":569.365006,"type":"corner"}}]}}},"e7I9GCNRLui71":{"transform":{"data":{"t":{"x":-189.614964,"y":-600.879989}},"keys":{"o":[{"t":1000,"v":{"x":189.614964,"y":600.87999,"type":"corner"}},{"t":2500,"v":{"x":185.81,"y":699.370437,"type":"corner"}},{"t":4000,"v":{"x":189.614964,"y":600.87999,"type":"corner"}},{"t":5500,"v":{"x":189.614964,"y":600.87999,"type":"corner"}},{"t":7000,"v":{"x":185.81,"y":699.370437,"type":"corner"}},{"t":8500,"v":{"x":189.614964,"y":600.87999,"type":"corner"}}]}}},"e7I9GCNRLui88":{"transform":{"data":{"t":{"x":-505.920013,"y":-219.05999}},"keys":{"o":[{"t":0,"v":{"x":505.920014,"y":219.05999,"type":"corner"}},{"t":1500,"v":{"x":656.569976,"y":217.590088,"type":"corner"}},{"t":3000,"v":{"x":505.920014,"y":219.05999,"type":"corner"}},{"t":4500,"v":{"x":656.569976,"y":217.590088,"type":"corner"}},{"t":6000,"v":{"x":505.920014,"y":219.05999,"type":"corner"}},{"t":7500,"v":{"x":656.569976,"y":217.590088,"type":"corner"}},{"t":9000,"v":{"x":505.920014,"y":219.05999,"type":"corner"}}]}}}},"s":"MIDA1NGM0NmJhZGJlYmNJhYWJkYjJiOGI3NmIK4MzdhNzk3OUM3OTc5RNzVKNmJhZGIyYmJhZEWFjYmRiMmI4Yjc2YlBQ4MzdhNzU2YmIyQWJTkRmFlYmJhYWJkYjJiWOGI3YmM2YjgzWTc5NMzU2YmFmYjJiNWI1NmLJEODM3YTc1NmJhYUREiNWJkYWViYmI3SGFhFYmRhZUI2YjgzYWZIYWWFiNVViY2FlNzU2YmAJjYjlhZWFlYWQ2YjgGzN2FjNg|"}],"options":"MKDAxMDg4MmY4MDgxQTAZlN2Y4MTJmNDcyZjcT5N2M2ZTcxMmY4YQ|"},'__SVGATOR_PLAYER__',window)]]></script></svg>