<svg id="eHJc7bh3aGX1" xmlns="http://www.w3.org/2000/svg" xmlns:xlink="http://www.w3.org/1999/xlink" viewBox="0 0 1735.37 1613.33" shape-rendering="geometricPrecision" text-rendering="geometricPrecision"><g><g><g><g id="eHJc7bh3aGX5"><path d="M826,1501.31c-5.37,0-10.82-.18-16.2-.36l.37-10.71c5.3.18,10.66.3,15.94.36Zm16.2,0l-.14-10.72c5.28-.07,10.63-.21,15.91-.41l.41,10.71c-5.38.18-10.79.32-16.16.4Zm-48.58-1.11c-5.38-.31-10.81-.7-16.17-1.15l.9-10.68c5.27.44,10.62.82,15.9,1.14Zm80.94-.12l-.67-10.7c5.26-.33,10.61-.73,15.9-1.19l.93,10.68c-5.36.45-10.79.85-16.14,1.19Zm-113.24-2.59c-5.33-.58-10.74-1.23-16.08-2l1.42-10.62c5.25.7,10.58,1.35,15.82,1.92Zm145.52-.23l-1.19-10.65c5.27-.59,10.59-1.25,15.82-2l1.45,10.62c-5.29.77-10.7,1.41-16.06,2.01Zm-177.63-4.07c-5.33-.84-10.7-1.77-16-2.74l2-10.54c5.19,1,10.47,1.87,15.71,2.7Zm209.74-.33l-1.72-10.58c5.21-.84,10.49-1.77,15.7-2.75l2,10.53c-5.29.94-10.66,1.94-15.93,2.78Zm-241.61-5.55c-5.28-1.11-10.6-2.3-15.82-3.53l2.47-10.43c5.13,1.21,10.37,2.38,15.55,3.47Zm273.45-.44l-2.23-10.48c5.15-1.1,10.38-2.29,15.54-3.52l2.5,10.42c-5.23,1.24-10.55,2.44-15.79,3.56Zm-305-7c-5.22-1.37-10.48-2.83-15.62-4.32l3-10.29c5.06,1.47,10.23,2.9,15.36,4.25Zm336.51-.54l-2.76-10.36c5.12-1.36,10.29-2.81,15.35-4.29l3,10.28c-5.1,1.47-10.35,2.94-15.56,4.33Zm-367.64-8.48c-5.15-1.63-10.35-3.35-15.44-5.11l3.49-10.13c5,1.73,10.12,3.42,15.19,5Zm398.74-.64l-3.27-10.21c5-1.61,10.12-3.31,15.11-5l3.53,10.12c-5.05,1.68-10.22,3.41-15.34,5.05Zm-429.49-10c-5-1.88-10.14-3.86-15.16-5.87l4-9.95c4.93,2,10,3.93,14.91,5.78Zm460.09-.7l-3.77-10c5-1.87,10-3.82,14.85-5.8l4,9.93c-4.93,1.99-10.01,3.97-15.08,5.87ZM573.78,1448.1c-5-2.14-9.95-4.37-14.84-6.62l4.49-9.73c4.8,2.21,9.72,4.4,14.59,6.5Zm520.24-.74l-4.27-9.83c4.83-2.1,9.71-4.29,14.5-6.51l4.51,9.72c-4.87,2.26-9.83,4.49-14.76,6.62ZM544.27,1434.5c-4.84-2.38-9.72-4.85-14.48-7.34l5-9.5c4.69,2.45,9.48,4.88,14.25,7.22Zm579.06-.74l-4.75-9.61c4.73-2.34,9.5-4.77,14.16-7.22l5,9.49c-4.74,2.49-9.6,4.96-14.41,7.34Zm-607.84-14.3c-4.7-2.61-9.44-5.32-14.09-8l5.42-9.24c4.58,2.69,9.25,5.35,13.87,7.92Zm636.45-.74l-5.22-9.36c4.61-2.57,9.25-5.23,13.8-7.92l5.44,9.23c-4.62,2.73-9.33,5.44-14.02,8.05ZM487.51,1403c-4.58-2.84-9.18-5.78-13.68-8.73l5.88-9c4.43,2.9,9,5.79,13.45,8.59Zm692.28-.74l-5.68-9.09c4.48-2.8,9-5.69,13.4-8.59l5.89,9c-4.48,2.92-9.06,5.86-13.61,8.7ZM460.38,1385.2c-4.41-3-8.86-6.21-13.23-9.39l6.31-8.66c4.3,3.13,8.68,6.24,13,9.24Zm746.42-.74l-6.11-8.8c4.34-3,8.7-6.13,13-9.25l6.33,8.65c-4.37,3.19-8.81,6.35-13.22,9.42Zm-772.63-18.37c-4.27-3.27-8.56-6.65-12.74-10l6.73-8.34c4.12,3.33,8.33,6.65,12.53,9.87Zm798.75-.75l-6.54-8.49c4.2-3.24,8.4-6.56,12.49-9.88l6.75,8.33c-4.16,3.39-8.43,6.77-12.7,10.06Zm-824-19.62c-4.1-3.48-8.22-7.06-12.23-10.64l7.14-8c3.94,3.53,8,7.05,12,10.47Zm849.13-.77l-7-8.16c4-3.42,8.06-7,12-10.48l7.15,8c-3.94,3.6-8.04,7.18-12.13,10.69Zm-873.32-20.8c-3.91-3.67-7.85-7.45-11.69-11.23l7.52-7.64c3.78,3.72,7.65,7.44,11.5,11Zm897.46-.8l-7.35-7.81c3.87-3.63,7.73-7.35,11.48-11.06l7.53,7.62c-3.79,3.79-7.72,7.57-11.64,11.27Zm-920.55-21.94c-3.73-3.86-7.48-7.82-11.12-11.78l7.89-7.26c3.58,3.9,7.26,7.8,10.93,11.59Zm943.6-.83l-7.72-7.44c3.67-3.81,7.34-7.72,10.92-11.61l7.9,7.24c-3.62,3.98-7.34,7.95-11.08,11.83Zm-965.54-23c-3.55-4-7.09-8.18-10.52-12.31l8.23-6.86c3.38,4.06,6.86,8.13,10.35,12.11Zm987.45-.89l-8.08-7c3.49-4,7-8.08,10.34-12.14l8.25,6.84c-3.41,4.11-6.95,8.27-10.49,12.32ZM319,1252.73c-3.34-4.21-6.67-8.52-9.9-12.8l8.56-6.45c3.18,4.21,6.45,8.45,9.74,12.6Zm1028.9-1l-8.41-6.65c3.29-4.16,6.57-8.42,9.74-12.64l8.57,6.44c-3.25,4.34-6.57,8.66-9.92,12.9ZM299.5,1226.89c-3.13-4.38-6.24-8.84-9.26-13.28l8.87-6c3,4.36,6,8.76,9.1,13.06Zm1067.85-1.05l-8.72-6.22c3.07-4.32,6.14-8.73,9.1-13.11l8.88,6c-3.02,4.49-6.13,8.94-9.26,13.33Zm-1086-25.72c-2.92-4.53-5.8-9.14-8.59-13.71l9.15-5.58c2.74,4.5,5.58,9,8.45,13.49ZM1385.53,1199l-9-5.78c2.86-4.45,5.7-9,8.45-13.54l9.16,5.55c-2.83,4.58-5.71,9.21-8.61,13.77Zm-1121-26.46c-2.68-4.65-5.34-9.39-7.9-14.11l9.41-5.12c2.53,4.64,5.14,9.31,7.77,13.88Zm1137.87-1.29l-9.3-5.33c2.64-4.61,5.26-9.3,7.77-14l9.43,5.1c-2.6,4.73-5.25,9.51-7.94,14.19ZM249,1144.1c-2.44-4.78-4.86-9.65-7.18-14.48l9.65-4.65c2.29,4.76,4.67,9.55,7.07,14.24Zm1168.76-1.45l-9.55-4.86c2.39-4.7,4.77-9.52,7.07-14.33l9.67,4.62c-2.3,4.92-4.72,9.79-7.15,14.57ZM235,1115c-2.2-4.88-4.37-9.86-6.46-14.81l9.88-4.16c2.05,4.86,4.18,9.76,6.35,14.56Zm1196.78-1.64L1422,1109c2.17-4.85,4.31-9.78,6.35-14.67l9.89,4.14c-2.05,4.92-4.24,9.94-6.43,14.87Zm-1209.3-28.14c-2-5-3.89-10.11-5.73-15.16l10.07-3.67c1.81,5,3.7,10,5.64,14.91Zm1221.87-1.86l-10-3.89c1.93-5,3.82-10,5.61-15l10.08,3.64c-1.81,5.09-3.73,10.22-5.69,15.25Zm-1233-28.59c-1.71-5.1-3.39-10.29-5-15.43l10.24-3.16c1.56,5,3.2,10.16,4.89,15.17Zm1244-2l-10.17-3.38c1.68-5,3.31-10.17,4.86-15.24l10.25,3.12c-1.54,5.16-3.2,10.37-4.91,15.5Zm-1253.55-29c-1.46-5.17-2.87-10.44-4.2-15.65l10.4-2.62c1.3,5.13,2.69,10.31,4.13,15.39Zm1263-2.08l-10.33-2.88c1.42-5.09,2.79-10.27,4.08-15.4l10.4,2.61c-1.26,5.25-2.65,10.52-4.09,15.7Zm-1271-29.32c-1.2-5.24-2.34-10.57-3.41-15.84l10.5-2.13c1.05,5.19,2.18,10.43,3.36,15.58Zm1278.94-2.11l-10.45-2.36c1.16-5.16,2.27-10.4,3.3-15.59l10.52,2.09c-1.03,5.31-2.17,10.6-3.35,15.89ZM187.39,960.63c-.94-5.29-1.82-10.67-2.63-16l10.6-1.6c.79,5.23,1.66,10.52,2.58,15.73Zm1291.7-2.13l-10.56-1.83c.91-5.22,1.76-10.52,2.53-15.74l10.61,1.57c-.79,5.31-1.67,10.69-2.58,16ZM182.53,928.59c-.67-5.32-1.29-10.74-1.83-16.1l10.66-1.08c.54,5.27,1.14,10.6,1.8,15.84Zm1301.31-2.15l-10.64-1.3c.65-5.25,1.24-10.58,1.75-15.85l10.67,1.05c-.53,5.35-1.12,10.77-1.78,16.1ZM179.27,896.36c-.41-5.36-.76-10.8-1-16.17l10.7-.56c.28,5.29.62,10.64,1,15.91ZM1487,894.19l-10.69-.78c.39-5.28.72-10.63,1-15.91l10.69.5c-.27,5.38-.61,10.82-1,16.19ZM177.59,864c-.15-5.36-.24-10.81-.25-16.19h10.71c0,5.3.1,10.66.25,15.94Zm1311-2.16l-10.72-.26c.13-5.28.2-10.65.2-15.94c0-1.42,0-2.83,0-4.24l10.72-.07c0,1.44,0,2.87,0,4.31-.02,5.36-.08,10.82-.21,16.19Zm-1300.38-30l-10.72-.22c.11-5.38.29-10.83.54-16.2l10.7.49c-.25,5.26-.42,10.62-.53,15.91Zm1289.55-6.36c-.17-5.29-.4-10.65-.69-15.93l10.7-.59c.3,5.36.53,10.81.7,16.19ZM189.64,800L179,799.23c.38-5.38.82-10.81,1.33-16.15l10.67,1c-.55,5.26-1,10.61-1.36,15.92ZM1476,793.63c-.42-5.28-.91-10.62-1.46-15.88l10.66-1.11c.55,5.34,1,10.77,1.48,16.13ZM192.65,768.24L182,767c.64-5.34,1.36-10.75,2.13-16.07l10.6,1.54c-.73,5.2-1.46,10.53-2.08,15.77Zm1280-6.32c-.67-5.24-1.43-10.54-2.24-15.78L1481,744.5c.83,5.32,1.59,10.72,2.28,16ZM197.21,736.69l-10.56-1.8c.9-5.29,1.88-10.66,2.91-15.94L200.08,721c-1.02,5.21-1.98,10.48-2.87,15.69Zm1270.59-6.27c-.94-5.2-2-10.47-3-15.65l10.5-2.16c1.09,5.26,2.12,10.62,3.07,15.91Zm-1264.47-25l-10.46-2.32c1.16-5.24,2.41-10.55,3.7-15.78L207,689.89c-1.3,5.11-2.52,10.37-3.67,15.52Zm1258-6.21c-1.19-5.15-2.47-10.36-3.79-15.48l10.37-2.68c1.35,5.21,2.65,10.5,3.86,15.74ZM211,674.47l-10.33-2.84c1.42-5.19,2.93-10.43,4.48-15.57l10.27,3.09c-1.53,5.06-3.01,10.22-4.42,15.32Zm1242.39-6.13c-1.46-5.09-3-10.23-4.57-15.27l10.23-3.19c1.6,5.12,3.16,10.34,4.64,15.52ZM220.22,643.89L210,640.55c1.69-5.12,3.46-10.3,5.28-15.39l10.09,3.6c-1.74,5.01-3.49,10.1-5.15,15.13Zm1223.66-6c-1.7-5-3.49-10.07-5.32-15l10.06-3.7c1.86,5,3.68,10.18,5.41,15.28ZM231,613.77l-10-3.85c1.93-5,4-10.11,6-15.09l9.9,4.1c-2.02,4.9-4.02,9.89-5.9,14.84ZM1432.87,608c-1.94-4.89-4-9.83-6-14.69l9.86-4.19c2.1,4.93,4.16,10,6.14,14.93ZM243.21,584.24l-9.8-4.35c2.19-4.93,4.47-9.89,6.78-14.76l9.68,4.59c-2.27,4.79-4.51,9.67-6.66,14.52Zm1177.23-5.47c-2.19-4.81-4.47-9.65-6.77-14.38l9.65-4.68c2.33,4.82,4.65,9.73,6.87,14.62ZM256.89,555.37l-9.56-4.83c2.43-4.81,4.95-9.66,7.5-14.41l9.44,5.07c-2.51,4.67-4.99,9.44-7.38,14.17Zm1149.67-5.19c-2.42-4.69-4.93-9.42-7.47-14l9.4-5.15c2.58,4.7,5.13,9.5,7.59,14.27ZM272,527.22l-9.31-5.3c2.66-4.68,5.42-9.39,8.19-14l9.19,5.52c-2.74,4.56-5.46,9.17-8.07,13.78Zm1119.29-4.93c-2.66-4.58-5.4-9.18-8.16-13.66l9.14-5.61c2.8,4.56,5.58,9.23,8.29,13.89ZM288.46,499.87l-9-5.75c2.9-4.55,5.88-9.12,8.88-13.58l8.9,6c-3,4.37-5.94,8.86-8.78,13.33Zm1086.17-4.7c-2.87-4.43-5.84-8.88-8.82-13.24l8.84-6.05c3,4.43,6,9,9,13.46ZM306.25,473.38l-8.75-6.2c3.11-4.39,6.32-8.8,9.54-13.12l8.59,6.41c-3.17,4.25-6.33,8.59-9.38,12.91Zm1050.41-4.48c-3.09-4.29-6.28-8.6-9.47-12.8l8.54-6.48c3.24,4.27,6.48,8.65,9.62,13ZM325.32,447.8l-8.43-6.62c3.32-4.23,6.74-8.48,10.16-12.63l8.27,6.82c-3.32,4.08-6.73,8.26-10,12.43Zm1012.09-4.27c-3.29-4.13-6.69-8.27-10.09-12.32l8.21-6.89c3.46,4.11,6.91,8.33,10.26,12.53ZM345.62,423.2l-8.1-7c3.53-4.06,7.15-8.13,10.77-12.11l7.93,7.22c-3.57,3.88-7.14,7.89-10.6,11.89Zm971.31-4.07c-3.49-3.95-7.08-7.93-10.68-11.81l7.86-7.29c3.66,4,7.31,8,10.86,12ZM367.1,399.63l-7.74-7.41c3.72-3.89,7.54-7.78,11.34-11.57l7.56,7.6c-3.74,3.75-7.5,7.56-11.16,11.38Zm928.17-3.87c-3.68-3.79-7.47-7.58-11.26-11.28l7.5-7.66c3.84,3.76,7.69,7.62,11.44,11.47ZM389.7,377.16l-7.37-7.79c3.91-3.7,7.91-7.39,11.9-11l7.17,8c-3.92,3.51-7.86,7.15-11.7,10.79Zm882.78-3.69c-3.87-3.6-7.83-7.2-11.8-10.72l7.11-8c4,3.57,8.07,7.24,12,10.9ZM413.37,355.83l-7-8.14c4.08-3.5,8.26-7,12.42-10.39l6.78,8.3c-4.08,3.34-8.19,6.78-12.2,10.23Zm835.25-3.51c-4-3.41-8.19-6.82-12.32-10.13l6.71-8.36c4.19,3.37,8.4,6.83,12.52,10.3ZM438.05,335.69l-6.57-8.47c4.24-3.29,8.58-6.57,12.91-9.76l6.36,8.62c-4.26,3.14-8.53,6.37-12.7,9.61Zm785.69-3.32c-4.22-3.22-8.53-6.42-12.81-9.52l6.28-8.68c4.36,3.15,8.74,6.41,13,9.67ZM463.68,316.8l-6.15-8.8c4.4-3.08,8.9-6.15,13.37-9.12l5.93,8.93c-4.4,2.94-8.83,5.96-13.15,8.99Zm734.21-3.15c-4.36-3-8.83-6-13.26-8.87l5.85-9c4.51,2.94,9,6,13.48,9ZM490.2,299.2l-5.71-9.07c4.54-2.86,9.18-5.7,13.8-8.44l5.48,9.21c-4.54,2.7-9.11,5.49-13.57,8.3Zm681-3c-4.51-2.78-9.12-5.54-13.69-8.21l5.39-9.26c4.66,2.71,9.34,5.52,13.92,8.35ZM517.59,282.9l-5.25-9.34c4.67-2.63,9.45-5.23,14.19-7.74l5,9.47c-4.7,2.5-9.39,5.06-13.99,7.64Zm626-2.78c-4.65-2.56-9.38-5.09-14.09-7.53l4.94-9.51c4.78,2.48,9.59,5.05,14.32,7.65Zm-597.93-12.1l-4.78-9.59c4.81-2.4,9.7-4.77,14.55-7l4.54,9.71c-4.8,2.22-9.61,4.55-14.34,6.91Zm569.57-2.6c-4.77-2.33-9.63-4.62-14.45-6.82l4.46-9.75c4.89,2.24,9.83,4.57,14.69,6.94ZM574.42,254.57l-4.31-9.81c4.91-2.15,9.91-4.27,14.88-6.3l4,9.92c-4.83,2-9.75,4.08-14.57,6.19Zm511.72-2.4c-4.89-2.08-9.86-4.13-14.78-6.09l4-10c5,2,10.06,4.08,15,6.2Zm-482.27-9.64l-3.81-10c5-1.91,10.15-3.79,15.22-5.57l3.56,10.11c-4.98,1.74-10.02,3.58-14.97,5.46Zm452.56-2.18c-5-1.83-10-3.63-15.07-5.35l3.46-10.14c5.11,1.74,10.26,3.57,15.32,5.44ZM633.94,232l-3.31-10.2c5.11-1.65,10.32-3.27,15.48-4.8l3,10.27c-5.03,1.46-10.11,3.05-15.17,4.73Zm392.22-2c-5.05-1.58-10.19-3.12-15.27-4.58l3-10.3c5.16,1.48,10.39,3,15.52,4.65Zm-361.67-7.16L661.7,212.5c5.19-1.4,10.47-2.76,15.7-4l2.53,10.41c-5.14,1.25-10.33,2.59-15.44,3.96Zm331-1.61c-5.11-1.33-10.32-2.61-15.48-3.81L982.47,207c5.24,1.22,10.54,2.53,15.73,3.88Zm-300-5.93l-2.27-10.47c5.25-1.14,10.59-2.23,15.88-3.24l2,10.52c-5.22,1.03-10.47,2.1-15.64,3.22Zm269-1.31c-5.17-1.07-10.44-2.09-15.65-3l1.91-10.55c5.3,1,10.65,2,15.91,3.09Zm-237.7-4.68L725,198.77c5.3-.88,10.69-1.7,16-2.45l1.49,10.61c-5.2.74-10.49,1.55-15.72,2.41Zm206.33-1c-5.22-.81-10.53-1.57-15.78-2.26l1.39-10.62c5.34.69,10.74,1.46,16,2.29Zm-174.76-3.43l-1.23-10.65c5.33-.61,10.75-1.17,16.12-1.66l1,10.68c-5.33.5-10.67,1.05-15.91,1.66Zm143.15-.69c-5.25-.56-10.59-1.06-15.87-1.48l.86-10.68c5.37.43,10.8.93,16.14,1.5ZM790.08,202l-.7-10.7c5.37-.35,10.81-.64,16.18-.86l.44,10.7c-5.28.26-10.64.55-15.92.86Zm79.64-.39c-5.28-.29-10.64-.53-15.93-.69l.34-10.72c5.37.17,10.82.41,16.19.71Zm-47.81-.93L821.73,190c5.38-.09,10.83-.12,16.2-.08l-.07,10.72c-5.29-.03-10.65-.01-15.95.08Z" fill="#2e77e6"/></g><path d="M828.83,723.15l-13-9.48l2.55-3.5l13,9.48Zm-26-18.95l-13-9.48l2.56-3.5l13,9.48Zm-26-19l-13-9.48l2.55-3.5l13,9.48Zm-26-19l-13-9.48l2.55-3.5l13,9.48Zm-26-18.95l-13-9.48l2.56-3.5l13,9.48Zm-26-19l-13-9.48l2.55-3.5l13,9.48Zm-26-18.95L660,600l2.55-3.5l13,9.48Zm-26-19L634,581l2.56-3.5l13,9.48Zm-26-19l-13-9.48l2.55-3.5l13,9.48Zm-26-18.95l-13-9.48l2.56-3.5l13,9.48Zm-26-19l-13-9.48l2.56-3.5l13,9.48Zm-26-18.95l-13-9.48l2.55-3.5l13,9.48Zm-26-19l-13-9.48l2.56-3.5l13,9.48Zm-26-18.95l-13-9.48l2.56-3.5l13,9.48Zm-26-18.95l-13-9.48l2.55-3.5l13,9.48Zm-26-19l-13-9.48l2.56-3.5l13,9.48Z" fill="#5896fa"/><path d="M237.16,1016.7l-1.79-4l14.65-6.63l1.78,4Zm29.29-13.25l-1.79-4l14.65-6.63l1.79,4Zm29.29-13.26l-1.78-4l14.64-6.62l1.79,3.94ZM325,976.94l-1.78-4l14.64-6.63l1.79,3.95Zm29.3-13.26l-1.79-3.95l14.65-6.62l1.78,3.95Zm29.29-13.25l-1.79-3.95l14.65-6.63l1.79,3.95Zm29.29-13.26l-1.78-3.94l14.64-6.63l1.79,3.95Zm29.3-13.25L440.42,920l14.64-6.63l1.79,3.95Zm29.29-13.25l-1.79-3.95l14.65-6.63l1.78,3.95Zm29.29-13.26L499,893.46l14.65-6.62l1.79,3.95Zm29.29-13.25l-1.78-3.95l14.64-6.63l1.79,3.95Zm29.3-13.26l-1.76-3.9l14.64-6.63l1.79,3.95Zm29.29-13.25l-1.79-3.95l14.65-6.63l1.78,3.95ZM618,844.4l-1.79-3.95l14.65-6.63l1.79,3.95Zm29.29-13.26l-1.78-3.95l14.64-6.62l1.79,3.95Zm29.3-13.25l-1.79-3.95l14.65-6.63l1.78,4Zm29.29-13.26l-1.79-4l14.65-6.62l1.79,4Zm29.29-13.25l-1.78-4L748,780.8l1.79,4Zm29.29-13.25l-1.78-4l14.64-6.63l1.79,4Zm29.3-13.26l-1.79-4l14.65-6.62l1.78,3.94Z" fill="#5896fa"/><path d="M249.6,917l-3-3.15l5.24-5l3,3.15Zm16.91-16l-3-3.15l11.67-11.05l3,3.14Zm23.33-22.11l-3-3.15l11.67-11.06l3,3.15Zm23.34-22.12l-3-3.15l11.67-11l3,3.14Zm23.34-22.11l-3-3.15l11.67-11.06l3,3.15Zm23.34-22.12l-3-3.15l11.67-11l3,3.14Zm23.33-22.11l-3-3.15l11.67-11.06l3,3.15Zm23.34-22.12l-3-3.15l11.67-11l3,3.14Zm23.34-22.12l-3-3.14L438.56,732l3,3.15Zm23.34-22.11l-3-3.15l11.66-11.05l3,3.14ZM476.55,702l-3-3.14l11.67-11.06l3,3.15Zm23.33-22.11l-3-3.15l11.67-11.06l3,3.15Zm23.34-22.12l-3-3.14l11.67-11.06l3,3.15Zm23.34-22.11l-3-3.15l11.67-11.06l3,3.15Zm23.34-22.12l-3-3.14l11.67-11.06l3,3.15Zm23.33-22.11l-3-3.15l11.67-11.06l3,3.15Zm23.34-22.12l-3-3.14l11.67-11.06l3,3.15Zm23.34-22.11l-3-3.15L648.6,533l3,3.15Zm23.34-22.12l-3-3.14l11.66-11.06l3,3.15Zm23.33-22.11l-3-3.15l11.67-11.06l3,3.15Zm23.34-22.12l-3-3.14l11.67-11.06l3,3.15Zm23.34-22.11l-3-3.15L742,444.5l3,3.15Zm23.34-22.12l-3-3.14l11.67-11.06l3,3.15Zm23.34-22.11l-3-3.15l11.67-11.06l3,3.15Zm23.33-22.12l-3-3.14L812,378.16l3,3.14Zm23.34-22.11l-3-3.15L835.3,356l3,3.15ZM850,348.13L847,345l11.67-11.05l3,3.14ZM873.29,326l-3-3.15L882,311.81l3,3.15Zm23.33-22.12l-3-3.15l11.67-11.05l3,3.14ZM920,281.79l-3-3.15l11.67-11.06l3,3.15Zm23.34-22.12l-3-3.15l11.67-11l3,3.14Z" fill="#5896fa"/><path d="M1339.29,1028.81L1335,1018l4-1.6l4.3,10.77Zm-10.24-25.71l-6-14.93l4-1.61l6,14.93Zm-11.91-29.87l-6-14.93l4-1.61l6,14.94Zm-11.9-29.87l-6-14.93l4-1.6l6,14.93Zm-11.9-29.86l-5.95-14.94l4-1.6l5.95,14.93Zm-11.9-29.87l-6-14.94l4-1.6l6,14.93Zm-11.9-29.87l-6-14.93l4-1.61l6,14.94Zm-11.9-29.87l-6-14.93l4-1.61l6,14.94ZM1245.73,794l-6-14.93l4-1.6l6,14.93Zm-11.9-29.86l-5.95-14.94l4-1.6l5.95,14.93Zm-11.9-29.87l-6-14.93l4-1.61l6,14.93ZM1210,704.42l-6-14.93l4-1.61l6,14.94Zm-11.9-29.87l-6-14.93l4-1.6l6,14.93Zm-11.9-29.86l-6-14.94l4-1.6l6,14.93Zm-11.91-29.87l-6-14.94l4-1.6l5.95,14.93ZM1162.42,585l-6-14.93l4-1.61l6,14.94Zm-11.9-29.87l-6-14.93l4-1.61l6,14.94Zm-11.9-29.86l-5.95-14.94l4-1.6l6,14.93Zm-11.9-29.87l-6-14.94l4-1.6l6,14.93Zm-11.9-29.87l-6-14.93l4-1.61l5.95,14.94Zm-11.9-29.87l-6-14.93l4-1.61l6,14.94ZM1091,405.74l-6-14.93l4-1.6l6,14.93Zm-11.9-29.86l-5.95-14.94l4-1.6l6,14.93ZM1067.21,346l-6-14.94l4-1.6l6,14.93Z" fill="#5896fa"/><path d="M1335.9,1027.23l-13.69-8.43l2.27-3.69l13.69,8.43Zm-27.38-16.85l-13.69-8.43l2.27-3.69l13.69,8.43Zm-27.38-16.85l-13.69-8.43l2.27-3.69l13.69,8.43Zm-27.38-16.85l-13.7-8.43l2.28-3.69L1256,973Zm-27.39-16.86l-13.69-8.42l2.27-3.69l13.7,8.42ZM1199,943l-13.69-8.42l2.27-3.69l13.69,8.42Zm-27.38-16.85l-13.69-8.42l2.27-3.69l13.69,8.42Zm-27.38-16.85l-13.69-8.42l2.27-3.69l13.69,8.42Zm-27.38-16.85l-13.7-8.42l2.27-3.69l13.7,8.42Zm-27.39-16.85l-13.69-8.42l2.27-3.69l13.69,8.42Zm-27.38-16.85l-13.69-8.42l2.27-3.7l13.69,8.43Zm-27.38-16.85L1021,833.45l2.27-3.7l13.69,8.43ZM1007.32,825l-13.7-8.42l2.28-3.7l13.69,8.43Zm-27.39-16.85l-13.69-8.43l2.27-3.69l13.69,8.43ZM952.55,791.3l-13.69-8.43l2.27-3.69l13.69,8.43Zm-27.38-16.85L911.48,766l2.27-3.69l13.69,8.43ZM897.79,757.6l-13.69-8.43l2.27-3.69l13.69,8.43ZM870.4,740.77l-13.69-8.43l2.28-3.69l13.69,8.42Z" fill="#5896fa"/><path d="M858.75,732.47l-1.8-4l14.64-6.65l1.79,4ZM888,719.16l-1.8-3.94l14.64-6.65l1.79,3.94Zm29.27-13.3l-1.8-4l14.64-6.65l1.79,4Zm29.27-13.3l-1.8-3.95L959.4,682l1.79,3.94Zm29.27-13.31l-1.8-4l14.64-6.65l1.79,4Zm29.26-13.3l-1.79-4l14.64-6.65l1.79,3.94Zm29.27-13.31l-1.79-3.94l14.64-6.66l1.79,4Zm29.27-13.3l-1.79-4l14.64-6.65l1.79,4ZM1092.9,626l-1.79-3.94l14.64-6.66l1.79,4Zm29.27-13.3l-1.79-4l14.63-6.65l1.8,4Zm29.27-13.31l-1.79-3.94l14.63-6.65l1.8,3.94Zm29.27-13.3l-1.79-4l14.63-6.65l1.8,4Zm29.27-13.3l-1.79-4l14.63-6.65l1.8,3.94Zm29.27-13.31l-1.79-4l14.63-6.65l1.8,4Zm29.27-13.3l-1.79-4l14.63-6.65l1.8,3.94Z" fill="#5896fa"/></g><g id="eHJc7bh3aGX13"><path d="M0.42,903.92v0-.83c.01.1,0,.83,0,.83Z" fill="#d9ffff"/><path d="M0.42,903.92v0-.83c.01.1,0,.83,0,.83Z" fill="#d9ffff"/><path d="M320.49,905.35v0Z" fill="#d9ffff"/><path d="M320.49,905.35v0Z" fill="#d9ffff"/><path d="M161.11,817.45c-37.3,39.95-96.81,72.69-160.5,86.64c0,4.26-.12,27.82-.61,136.44-.65,144.9,137.25,215.7,158.66,226.57c20.74-9.55,160.38-80.24,161-225.14.48-108.62.59-132.18.61-136.44-63.53-14.52-122.22-47.79-159.16-88.07Z" fill="#f1835a"/><path d="M160.73,843.64C124.21,877.14,73.6,903.48,18,917.83l-.55,122.76c-.25,56.18,22.07,107,66.34,151.05c22.214953,21.935344,47.548397,40.468724,75.18,55l2.12-1.09v-401.63Z" fill="#4858e8"/><path d="M161.05,843.92v401.6c26.934549-14.124928,51.703502-32.040745,73.55-53.2c44.65-43.66,67.43-94.28,67.68-150.45l.54-122.77c-55.35-14.81-105.57-41.48-141.77-75.18Z" fill="#4858e8"/><path d="M110.15,1031.85v71.33c0,7.94,97,7.94,97,0v-71.33Zm53.4,37.87v20.22c.081531,1.805222-.835116,3.509328-2.386309,4.4363s-3.48619.926972-5.037382,0-2.46784-2.631078-2.386309-4.4363v-20.26c-5.124866-2.311489-7.940446-7.887264-6.758271-13.383598s6.041241-9.421413,11.663271-9.421413s10.481096,3.925079,11.663271,9.421413-1.633405,11.072109-6.758271,13.383598Z" fill="#f1835a"/><g transform="matrix(.900622-.434602 0.434602 0.900622-421.315404 181.27128)"><path d="M196.16,1028.8l-12.18-.4l8.51-9.89c11.417377-11.968499,11.073477-30.897166-.771112-42.443038s-30.775866-11.406263-42.448888.313038l-3.35,3.44-7-6.86l3.35-3.43c15.476537-15.504318,40.545224-15.675112,56.231578-.383108s16.153752,40.356915,1.048422,56.223108Z" transform="translate(0 1.33111)" fill="#f1835a"/></g></g><g><rect width="189.73" height="236.83" rx="0" ry="0" transform="translate(882.16 64.82)" fill="#4858e8"/><rect width="189.73" height="236.83" rx="0" ry="0" transform="translate(906.77 89.27)" fill="#2c3967"/><path d="M1099.66,329.26h-196.06v-243.15h196.06Zm-189.73-6.32h183.41v-230.51h-183.41Z" fill="#2c3967"/><g id="eHJc7bh3aGX28"><rect width="189.73" height="236.83" rx="0" ry="0" transform="translate(930.46 0)" fill="#f1835a"/><rect width="98.14" height="15.4" rx="0" ry="0" transform="translate(998.84 31.02)" fill="#fff"/><rect width="127.17" height="15.4" rx="0" ry="0" transform="translate(969.81 67.21)" fill="#fff"/><rect width="127.17" height="15.4" rx="0" ry="0" transform="translate(969.81 103.4)" fill="#fff"/><rect width="127.17" height="15.4" rx="0" ry="0" transform="translate(969.81 139.59)" fill="#fff"/><rect width="127.17" height="15.4" rx="0" ry="0" transform="translate(969.81 175.78)" fill="#fff"/></g><rect width="189.73" height="236.83" rx="0" ry="0" transform="translate(960.75 137.74)" fill="#4858e8"/><rect width="98.14" height="15.4" rx="0" ry="0" transform="translate(1022.82 176.62)" fill="#2c3967"/><rect width="127.17" height="15.4" rx="0" ry="0" transform="translate(993.8 212.81)" fill="#2c3967"/><rect width="127.17" height="15.4" rx="0" ry="0" transform="translate(993.8 249)" fill="#2c3967"/><rect width="127.17" height="15.4" rx="0" ry="0" transform="translate(993.8 285.19)" fill="#2c3967"/><rect width="127.17" height="15.4" rx="0" ry="0" transform="translate(993.8 321.37)" fill="#2c3967"/></g><g><g id="eHJc7bh3aGX42" transform="translate(.000001 0)"><circle r="74.55" transform="translate(364.36 353.41)" fill="#2c3967"/><path d="M482,424.3c9.410836-15.562819,15.62207-32.846845,18.27-50.84l5.56.82l11,1.61h.15c2.917324-19.853551,1.904808-40.086884-2.98-59.55l-16.31,4c-4.375695-17.650422-12.221518-34.253107-23.08-48.84l13.53-10.05c-11.930791-16.138728-26.931042-29.762653-44.14-40.09l-8.71,14.45c-15.561776-9.413027-32.846255-15.624424-50.84-18.27l2.44-16.66c-19.854807-2.92724-40.090176-1.948931-59.57,2.88l4,16.31c-17.647725,4.374663-34.247334,12.220638-48.83,23.08l-9.99-13.52c-16.151556,11.928574-29.789001,26.928743-40.13,44.14l14.44,8.71c-9.413027,15.561776-15.624424,32.846255-18.27,50.84l-11.78-1.73-4.82-.67h-.06c-2.926954,19.851488-1.948642,40.083531,2.88,59.56l16.32-4c4.387096,17.664751,12.250195,34.278226,23.13,48.87L240.69,445.4c11.911633,16.137833,26.895413,29.762231,44.09,40.09L293.49,471c15.577964,9.422719,32.878711,15.644053,50.89,18.3l-1.91,13-.52,3.71c19.83342,2.9175,40.045929,1.928956,59.5-2.91l-4-16.32c17.67321-4.399459,34.302105-12.25001,48.93-23.1l10.05,13.53c16.090001-11.953671,29.679745-26.946557,40-44.13Zm-156.09-7.05c-25.830855-15.552855-39.74795-45.135625-35.260649-74.951534s26.495114-53.991973,55.759461-61.252987s60.020887,3.823258,77.925422,28.083348s19.430323,56.917367,3.865766,82.741173c-10.200286,16.934159-26.710561,29.122037-45.897948,33.881844s-39.479765,1.701549-56.412052-8.501844Z" fill="#4858e8"/></g><g id="eHJc7bh3aGX45"><path d="M203,414.41c-5.262822-7.986118-12.061355-14.845837-20-20.18l1.64-2.45l3.24-4.85v-.07c-8.779118-5.894954-18.633304-10.003131-29-12.09l-1.76,8.67c-9.381717-1.910728-19.050304-1.931126-28.44-.06l-1.72-8.7c-10.37899,2.020124-20.25546,6.074711-29.06,11.93l4.9,7.4c-7.993151,5.274754-14.853699,12.091106-20.18,20.05l-7.37-4.92c-5.88096,8.786633-9.987942,18.637956-12.09,29l8.67,1.77c-1.910728,9.381717-1.931126,19.050304-.06,28.44L63.06,470c2.018139,10.393644,6.076331,20.284213,11.94,29.1l7.4-4.9c5.258025,7.99001,12.05742,14.850599,20,20.18L99,519.59l-1.41,2.14v0c8.786633,5.88096,18.637956,9.987942,29,12.09l1.77-8.67c9.392519,1.890129,19.067481,1.890129,28.46,0l1.73,8.7c10.357555-2.018521,20.213435-6.06623,29-11.91l-4.9-7.4c8.002299-5.278526,14.869918-12.101948,20.2-20.07l5.73,3.84l1.64,1.08c5.871121-8.771417,9.971311-18.605759,12.07-28.95l-8.68-1.77c1.898422-9.396111,1.922211-19.07467.07-28.48l8.71-1.73c-2.048775-10.353406-6.105093-20.205436-11.94-29Zm-38.62,72.64c-13.227021,8.782613-30.44247,8.731374-43.616976-.12982s-19.712841-24.786787-16.56549-40.349003s15.360391-27.695473,30.942901-30.74076s31.464908,3.597283,40.239565,16.829583c11.96908,18.066103,7.031471,42.413932-11.03,54.39Z" fill="#4858e8"/></g></g><g id="eHJc7bh3aGX47"><rect width="215.85" height="129.08" rx="7.65" ry="7.65" transform="translate(1300.99 443.9)" fill="#f1835a"/><rect width="215.85" height="22.27" rx="0" ry="0" transform="translate(1300.99 468.28)" fill="#d1f5ff"/><path d="M1350.43,548.22h-31.73c-.969772-.002657-1.900735.380722-2.587407,1.065518s-1.072597,1.614707-1.072593,2.584482v0c-.000004.969775.385921,1.899686,1.072593,2.584482s1.617635,1.068175,2.587407,1.065518h31.73c.968855.002665,1.898796-.381031,2.583882-1.066118s1.068783-1.615027,1.066118-2.583882v0c.002665-.968855-.381031-1.898796-1.066118-2.583882s-1.615027-1.068783-2.583882-1.066118Z" fill="#d1f5ff"/><path d="M1399.24,548.22h-31.74c-.968855-.002665-1.898796.381031-2.583882,1.066118s-1.068783,1.615027-1.066118,2.583882v0c-.002665.968855.381031,1.898796,1.066118,2.583882s1.615027,1.068783,2.583882,1.066118h31.74c.96804,0,1.896432-.384552,2.58094-1.06906s1.06906-1.6129,1.06906-2.58094v0c0-.96804-.384552-1.896432-1.06906-2.58094s-1.6129-1.06906-2.58094-1.06906Z" fill="#d1f5ff"/><path d="M1448,548.22h-31.7c-.96804,0-1.896432.384552-2.58094,1.06906s-1.06906,1.6129-1.06906,2.58094v0c0,.96804.384552,1.896432,1.06906,2.58094s1.6129,1.06906,2.58094,1.06906h31.7c.968855.002665,1.898796-.381031,2.583882-1.066118s1.068783-1.615027,1.066118-2.583882v0c.002665-.968855-.381031-1.898796-1.066118-2.583882s-1.615027-1.068783-2.583882-1.066118Z" fill="#d1f5ff"/><path d="M1496.84,548.22h-31.73c-.969772-.002657-1.900735.380722-2.587407,1.065518s-1.072597,1.614707-1.072593,2.584482v0c-.000004.969775.385921,1.899686,1.072593,2.584482s1.617635,1.068175,2.587407,1.065518h31.73c.969772.002657,1.900735-.380722,2.587407-1.065518s1.072597-1.614707,1.072593-2.584482v0c.000004-.969775-.385921-1.899686-1.072593-2.584482s-1.617635-1.068175-2.587407-1.065518Z" fill="#d1f5ff"/><path d="M1317.23,450.45v0c-2.209139,0-4,1.790861-4,4v1.42c0,2.209139,1.790861,4,4,4v0c2.209139,0,4-1.790861,4-4v-1.42c0-2.209139-1.790861-4-4-4Z" fill="#d1f5ff"/><path d="M1325.92,455.19v0c0,1.257126.499391,2.462764,1.388314,3.351686s2.09456,1.388314,3.351686,1.388314h16.8c1.257126,0,2.462764-.499391,3.351686-1.388314s1.388314-2.09456,1.388314-3.351686v0c0-1.257126-.499391-2.462764-1.388314-3.351686s-2.09456-1.388314-3.351686-1.388314h-16.8c-1.257126,0-2.462764.499391-3.351686,1.388314s-1.388314,2.09456-1.388314,3.351686Z" fill="#d1f5ff"/><rect width="34.29" height="31.3" rx="6.3" ry="6.3" transform="translate(1317.42 502.54)" fill="#4858e8"/></g><g><path d="M1446.76,955.91v-14.74c.010627-3.222269-1.261286-6.316349-3.535091-8.599535s-5.362624-3.567826-8.584909-3.570465h-129.06c-3.217076,0-6.302389,1.277978-8.577205,3.552795s-3.552795,5.360129-3.552795,8.577205v260.64h333.84v-245.86Z" fill="#1251b3"/><g id="eHJc7bh3aGX59" transform="translate(.000001 0)"><polygon points="1641.17,964.87 1313.82,964.87 1293.45,1201.81 1625.66,1201.81 1641.17,964.87" fill="#fff"/></g><path d="M1627.29,1201.81h-333.84l35.43-234c1.033608-6.846106,6.916308-11.908458,13.84-11.91h305.52c4.079393.000467,7.955683,1.780219,10.614945,4.873725s3.836964,7.193036,3.225055,11.226275Z" fill="#4858e8"/><circle r="56.45" transform="matrix(.22971-.973259 0.973259 0.22971 1478.013099 1084.49893)" fill="#fff"/><path d="M1478.14,1082.29c5.404746-.047866,10.49708-2.540719,13.85-6.78c2.49741-3.119937,3.846137-7.003704,3.82-11c.15285-6.436504-3.193594-12.450584-8.743689-15.71377s-12.432526-3.263186-17.982622,0-8.896539,9.277266-8.743689,15.71377c-.029787,3.995217,1.315456,7.87912,3.81,11c3.389176,4.270467,8.538101,6.765801,13.99,6.78Z" fill="#005cea"/><path d="M1509.43,1114c0,11.23-62.75,11.23-62.75,0v-13.1c2.48-17.9,57.63-18.65,62.74,0Z" fill="#005cea"/><circle r="89.33" transform="matrix(.707107-.707107 0.707107 0.707107 1642.760751 973.717279)" fill="#f1835a"/><path d="M1642.76,1066.32c-51.140266-.005523-92.593681-41.4664-92.59-92.606666s41.463067-92.595174,92.603333-92.593333s92.596667,41.459733,92.596667,92.599999c-.060624,51.120339-41.489655,92.544896-92.61,92.6Zm0-178.66c-34.813885-.004045-66.201832,20.964755-79.526397,53.127817s-5.961417,69.185729,18.655717,93.802863s61.639801,31.980283,93.802863,18.655717s53.131862-44.712512,53.127817-79.526397c-.044104-47.511345-38.548655-86.015896-86.06-86.06Z" fill="#fff"/><path d="M1610.15,971.41v46.21c0,5.15,62.83,5.15,62.83,0v-46.21ZM1644.74,996v13.1c.066072,1.176838-.524215,2.293687-1.533796,2.902012s-2.272827.608325-3.282408,0-1.599868-1.725174-1.533796-2.902012v-13.18c-3.321908-1.496492-5.147861-5.109441-4.38254-8.671582s3.914112-6.106274,7.55754-6.106274s6.79222,2.544133,7.55754,6.106274-1.060632,7.17509-4.38254,8.671582Z"/><g id="eHJc7bh3aGX68" transform="translate(3.970155-4.613647)"><path d="M1665.88,969.44l-7.9-.27l5.52-6.4c7.195133-7.783808,6.880877-19.882379-.708643-27.282161s-19.69217-7.407693-27.291357-.017839l-2.17,2.23-4.55-4.44l2.17-2.23c9.990831-10.247644,26.397356-10.455831,36.645-.465s10.455831,26.397356.465,36.645Z"/></g></g><g><rect width="728.23" height="464.76" rx="16.92" ry="16.92" transform="translate(482.97 1122.52)" fill="#34447d"/><rect width="458.48" height="721.95" rx="13.78" ry="13.78" transform="matrix(0 1-1 0 1208.07 1125.66)" fill="#27325b"/><rect width="679.78" height="425.02" rx="0" ry="0" transform="translate(507.57 1141.31)" fill="#2c3967"/><path d="M1261,1587.28v11.32c.002476.568206-.030924,1.136003-.1,1.7-.872665,7.417247-7.161596,13.005497-14.63,13h-807.77c-7.466305.004938-13.752062-5.584312-14.62-13-.072446-.563783-.109186-1.131582-.11-1.7v-11.32Z" fill="#2c3967"/><path d="M1260.92,1600.3c-.872665,7.417247-7.161596,13.005497-14.63,13h-807.79c-7.466305.004938-13.752062-5.584312-14.62-13Z" fill="#34447d"/></g><path d="M653.72,1302.93h-26.45v82.4h15.38v-26.81h11.07c18.88,0,30.41-11,30.41-27.74s-11.53-27.85-30.41-27.85Zm0,41.09h-11.07v-26.59h11.07c9.39,0,14.81,4.83,14.81,13.35s-5.42,13.22-14.81,13.22Z" fill="#fff"/><path d="M703.57,1336.53v-9.53h-14.35v58.35h14.35v-24.06c0-10.82,2.15-21.86,19.11-19.79v-15.9c-7.829701.100155-15.053916,4.232058-19.11,10.93Z" fill="#fff"/><path d="M728.32,1385.33h14.36v-58.33h-14.36Zm7.12-66.86c3.154119.081112,6.04412-1.753177,7.313347-4.641793s.665641-6.25795-1.527416-8.52633-5.540094-2.985358-8.469909-1.814364-4.860615,3.997428-4.886022,7.152487c-.034771,2.042251.743315,4.01464,2.163027,5.483114s3.364712,2.312697,5.406973,2.346886Z" fill="#fff"/><path d="M812.09,1325.6c-6.968919-.12849-13.510305,3.350166-17.3,9.2-2.93-5.52-8-9.2-15.82-9.2-7.57,0-12.21,3.33-15.15,7.59v-6.19h-14.35v58.35h14.35v-33.49c0-6.68,3.51-12.09,10.18-12.09s9.6,4.84,9.6,12.09v33.49h14.4v-33.49c0-6.68,3.5-12.09,10.17-12.09s9.61,4.84,9.61,12.09v33.49h14.32v-36.49c0-12.33-6.78-23.26-20.01-23.26Z" fill="#fff"/><path d="M867,1324.1c-15.82,0-29.27,12.31-29.27,30.61c0,17.73,12.54,30.62,31.53,30.62c10.86,0,19.67-5.3,24.31-11.86l-11.53-6.9c-3.206681,3.70341-7.881548,5.806735-12.78,5.75-7.91,0-14.24-4.14-16.27-12h42.5c2.63-22.98-11.16-36.22-28.49-36.22Zm-14,25c1.69-7.48,7.23-12,14.24-12c7.69,0,12.77,4.37,14.24,12Z" fill="#fff"/><path d="M952.49,1309.14v-6.21h-44.2v82.4h6v-39.47h28.38v-6.1h-28.39v-30.62Z" fill="#fff"/><path d="M979,1324.1c-16.5,0-29.73,13.7-29.73,30.61s13.23,30.62,29.73,30.62s29.73-13.81,29.73-30.62-13.07-30.61-29.73-30.61Zm0,55c-13.22,0-23.74-10.93-23.74-24.4s10.52-24.51,23.74-24.51s23.74,11,23.74,24.51-10.47,24.41-23.74,24.41Z" fill="#fff"/><path d="M1022.22,1339.52v-12.52h-6.1v58.35h6.1v-29.7c0-14.73,7.69-22.9,20.35-22.9v-7.13c-9.38-.02-16.39,6.08-20.35,13.9Z" fill="#fff"/><path d="M1063.13,1367.37v-34.75h13.45v-6.22h-13.45v-12.19h-6v12.19h-10.06v6.22h10.06v34.75c0,17.61,10.29,18.65,19.56,17.73v-6.1c-11.07,1-13.56-3-13.56-11.63Z" fill="#fff"/><path d="M1089.75,1381.61c.039584.976406-.321691,1.926557-1,2.63-.69239.712491-1.646548,1.110057-2.64,1.1-.975493.007791-1.910227-.390739-2.58-1.1-.699935-.694376-1.086366-1.644201-1.07-2.63-.005327-.99847.378468-1.959753,1.07-2.68.683479-.677671,1.618346-1.040022,2.58-1c.979826-.042352,1.934124.319124,2.64,1c.670599.728419,1.029525,1.69034,1,2.68Z" fill="#fff"/><path d="M912.79,1402.91c-1.85-.42-3.63-.72-3.63-2.6.003174-.648094.277294-1.265315.75599-1.70222s1.118322-.653659,1.76401-.59778c1.164747-.099897,2.242161.623926,2.59,1.74l2-.51c-.550961-1.964007-2.382151-3.289756-4.42-3.2-2.71,0-4.81,1.76-4.81,4.27c0,1.93.67,3.5,3.6,4.22c2.32.57,4.09.66,4.09,2.67c0,1.53-1.4,2.23-3,2.23-1.94,0-3-1-3.23-2l-2.06.66c.7,2.34,3,3.35,5.25,3.35c3.75,0,5.15-2.31,5.15-4.39.06-2.42-1.21-3.46-4.05-4.14Z" fill="#fff"/><path d="M923,1400.15c-3.046607.181306-5.39856,2.749328-5.31209,5.800099s2.580105,5.481451,5.63209,5.489901c1.682997.078705,3.298777-.667614,4.33-2l-1.56-1c-.691707.80301-1.710837,1.24819-2.77,1.21-1.821237.130933-3.425793-1.18788-3.65-3h8.4c.48-4.04-2.21-6.5-5.07-6.5Zm-3.33,4.82c.151836-1.718373,1.605154-3.027669,3.33-3c1.697398-.039149,3.106351,1.302712,3.15,3Z" fill="#fff"/><path d="M934.27,1409.6c-1.99731-.144805-3.543775-1.807447-3.543775-3.81s1.546465-3.665195,3.543775-3.81c1.262236-.016065,2.435326.648813,3.07,1.74l1.62-.91c-.980119-1.656532-2.765253-2.668996-4.69-2.66-3.025295.12736-5.412355,2.617025-5.412355,5.645s2.38706,5.51764,5.412355,5.645c1.928406.013085,3.716875-1.005083,4.69-2.67l-1.62-.89c-.636708,1.086612-1.810823,1.744422-3.07,1.72Z" fill="#fff"/><path d="M947.22,1400.41v6.18c.038074.775574-.240847,1.533291-.772685,2.099076s-1.270871.890998-2.047315.900924c-2,0-2.6-1.49-2.6-3v-6.18h-1.9v6.75c-.034959,1.110203.375522,2.188281,1.14001,2.994093s1.819484,1.272427,2.92999,1.295907c1.31978.024877,2.554933-.647806,3.25-1.77v1.49h1.9v-10.76Z" fill="#fff"/><path d="M952.89,1402.28v-1.87h-1.89v10.76h1.9v-4.82c0-2,.39-4.39,3.52-4v-2.19c-1.485519-.027495-2.856295.795748-3.53,2.12Z" fill="#fff"/><path d="M957.66,1411.14h1.91v-10.75h-1.91Zm1-12.66c.569692-.054256,1.004762-.53273,1.004762-1.105s-.43507-1.050744-1.004762-1.105c-.569692.054256-1.004762.53273-1.004762,1.105s.43507,1.050744,1.004762,1.105Z" fill="#fff"/><path d="M966.63,1400.15c-1.323874-.030087-2.565972.638442-3.27,1.76v-1.5h-1.9v10.76h1.9v-6.17c-.03803-.773864.239543-1.530045.769209-2.095525s1.266095-.891863,2.040791-.904475c2,0,2.61,1.5,2.61,3v6.18h1.89v-6.73c.043169-1.108301-.360182-2.187577-1.119644-2.995916s-1.811518-1.278134-2.920356-1.304084Z" fill="#fff"/><path d="M980.79,1400.41v1.59c-.804261-1.184601-2.158889-1.875122-3.59-1.83-2.960246,0-5.36,2.399754-5.36,5.36s2.399754,5.36,5.36,5.36c1.436255.046473,2.794338-.653375,3.59-1.85v.83c0,2.14-1,3.78-3.51,3.78-1.20664.108549-2.389108-.385393-3.16-1.32l-1.63,1c1.150864,1.455518,2.937216,2.261054,4.79,2.16c3.82,0,5.42-2.35,5.42-5.41v-9.63Zm-3.4,8.63c-1.949565,0-3.53-1.580435-3.53-3.53s1.580435-3.53,3.53-3.53s3.53,1.580435,3.53,3.53-1.580435,3.53-3.53,3.53Z" fill="#fff"/><path d="M992.18,1396.3h-2.82v14.85h2.82Z" fill="#fff"/><path d="M999.66,1400.15c-1.231954-.057635-2.402855.53922-3.08,1.57v-1.31h-2.58v10.76h2.63v-6c-.0635-.629361.146973-1.255602.57769-1.718863s1.039998-.718709,1.67231-.701137c1.5,0,2.06,1,2.06,2.42v6h2.65v-6.54c-.05-2.27-1.26-4.48-3.93-4.48Z" fill="#fff"/><path d="M1010.92,1400.15c-1.231954-.057635-2.402855.53922-3.08,1.57v-1.31h-2.63v10.76h2.63v-6c-.0635-.629361.146973-1.255602.57769-1.718863s1.039998-.718709,1.67231-.701137c1.5,0,2.06,1,2.06,2.42v6h2.65v-6.54c0-2.27-1.21-4.48-3.88-4.48Z" fill="#fff"/><path d="M1021.4,1400.15c-2.291368-.028391-4.372949,1.330041-5.26956,3.438894s-.430653,4.550411,1.179582,6.180846s4.045793,2.126793,6.16566,1.256541s3.504142-2.934737,3.504318-5.226281c.032536-1.49604-.5426-2.941404-1.594095-4.006089s-2.489575-1.657795-3.985905-1.643911Zm0,8.7c-1.257453.07803-2.434209-.622613-2.964856-1.765281s-.30671-2.493783.564211-3.404153s2.210796-1.193902,3.375836-.714364s1.917094,1.624123,1.894809,2.883798c.038443.784212-.247205,1.549741-.789964,2.117085s-1.294891.886602-2.080036.882915Z" fill="#fff"/><path d="M1034.55,1400.41l-2.53,7.64-2.5-7.64h-2.85l3.92,10.76h2.89l3.92-10.76Z" fill="#fff"/><path d="M1041.9,1400.15c-1.633977-.013218-3.208764.610958-4.39,1.74l1.81,1.4c.645626-.468457,1.413358-.739422,2.21-.78c1.62,0,2.17.68,2.19,2.23h-1.15c-1.4,0-5.69,0-5.69,3.54c0,2.29,2.17,3.16,3.75,3.16c1.203763.07915,2.366078-.454988,3.09-1.42v1.15h2.64v-6.5c0-2.56-1.1-4.52-4.46-4.52Zm1.82,8.11c-.479965.804046-1.364786,1.277232-2.3,1.23-1.31,0-1.83-.66-1.83-1.46c0-1.62,2.06-1.6,4-1.6h.17Z" fill="#fff"/><path d="M1053.18,1402.85v-2.46h-2.25v-2.25h-2.64v2.25h-1.51v2.46h1.51v4.37c0,2.23,1.08,4.08,3.79,4.08.372341.009359.74376-.041289,1.1-.15v-2.46c-.19,0-.44,0-.62,0-1.46,0-1.63-.72-1.63-2v-3.93Z" fill="#fff"/><path d="M1054.54,1411.15h2.65v-10.76h-2.65Zm1.31-12.33c.746208-.062346,1.320104-.686192,1.320104-1.435s-.573896-1.372654-1.320104-1.435c-.746208.062346-1.320104.686192-1.320104,1.435s.573896,1.372654,1.320104,1.435Z" fill="#fff"/><path d="M1063.79,1400.15c-2.290515-.024325-4.369053,1.336723-5.262502,3.44594s-.424981,4.549159,1.186079,6.177512s4.045862,2.122842,6.164497,1.251962s3.501797-2.93477,3.501926-5.225414c.032602-1.497793-.543892-2.944721-1.597572-4.009711s-2.494372-1.656899-3.992428-1.640289Zm0,8.7c-1.256843.073858-2.430649-.629635-2.958068-1.772849s-.300793-2.492794.571112-3.401028s2.211115-1.189735,3.374896-.709397s1.914578,1.624464,1.89206,2.883274c.038546.785958-.248444,1.553075-.793399,2.120737s-1.299724.88571-2.086601.879263Z" fill="#fff"/><path d="M1076.13,1400.15c-1.235446-.061242-2.41101.536051-3.09,1.57v-1.31h-2.62v10.76h2.58v-6c-.060167-.628604.151443-1.25292.581425-1.71539s1.03726-.718912,1.668575-.70461c1.5,0,2.07,1,2.07,2.42v6h2.68v-6.54c0-2.27-1.21-4.48-3.87-4.48Z" fill="#fff"/><path d="M1086,1404.74c-.83-.19-2.25-.26-2.25-1.21s.79-1.11,1.56-1.11c.748251-.086607,1.448222.384282,1.65,1.11l2.4-.6c-.526739-1.764887-2.213735-2.922875-4.05-2.78-2.48,0-4.14,1.34-4.14,3.38c0,1.84,1,2.84,3.08,3.26c1.25.28,2.77.24,2.77,1.26c0,.72-.62,1.12-1.73,1.12-1.54,0-2-.72-2-1.17l-2.54.81c.48,1.8,2.52,2.63,4.54,2.63c3,0,4.48-1.46,4.48-3.58-.02-1.86-1.16-2.55-3.77-3.12Z" fill="#fff"/></g></g><script><![CDATA[!function(t,n){"object"==typeof exports&&"undefined"!=typeof module?module.exports=n():"function"==typeof define&&define.amd?define(n):((t="undefined"!=typeof globalThis?globalThis:t||self).__SVGATOR_PLAYER__=t.__SVGATOR_PLAYER__||{},t.__SVGATOR_PLAYER__["5c7f360c"]=n())}(this,(function(){"use strict";function t(t,n){var r=Object.keys(t);if(Object.getOwnPropertySymbols){var e=Object.getOwnPropertySymbols(t);n&&(e=e.filter((function(n){return Object.getOwnPropertyDescriptor(t,n).enumerable}))),r.push.apply(r,e)}return r}function n(n){for(var r=1;r<arguments.length;r++){var e=null!=arguments[r]?arguments[r]:{};r%2?t(Object(e),!0).forEach((function(t){u(n,t,e[t])})):Object.getOwnPropertyDescriptors?Object.defineProperties(n,Object.getOwnPropertyDescriptors(e)):t(Object(e)).forEach((function(t){Object.defineProperty(n,t,Object.getOwnPropertyDescriptor(e,t))}))}return n}function r(t){return(r="function"==typeof Symbol&&"symbol"==typeof Symbol.iterator?function(t){return typeof t}:function(t){return t&&"function"==typeof Symbol&&t.constructor===Symbol&&t!==Symbol.prototype?"symbol":typeof t})(t)}function e(t,n){if(!(t instanceof n))throw new TypeError("Cannot call a class as a function")}function i(t,n){for(var r=0;r<n.length;r++){var e=n[r];e.enumerable=e.enumerable||!1,e.configurable=!0,"value"in e&&(e.writable=!0),Object.defineProperty(t,e.key,e)}}function o(t,n,r){return n&&i(t.prototype,n),r&&i(t,r),t}function u(t,n,r){return n in t?Object.defineProperty(t,n,{value:r,enumerable:!0,configurable:!0,writable:!0}):t[n]=r,t}function a(t){return(a=Object.setPrototypeOf?Object.getPrototypeOf:function(t){return t.__proto__||Object.getPrototypeOf(t)})(t)}function l(t,n){return(l=Object.setPrototypeOf||function(t,n){return t.__proto__=n,t})(t,n)}function f(){if("undefined"==typeof Reflect||!Reflect.construct)return!1;if(Reflect.construct.sham)return!1;if("function"==typeof Proxy)return!0;try{return Boolean.prototype.valueOf.call(Reflect.construct(Boolean,[],(function(){}))),!0}catch(t){return!1}}function s(t,n,r){return(s=f()?Reflect.construct:function(t,n,r){var e=[null];e.push.apply(e,n);var i=new(Function.bind.apply(t,e));return r&&l(i,r.prototype),i}).apply(null,arguments)}function c(t,n){if(n&&("object"==typeof n||"function"==typeof n))return n;if(void 0!==n)throw new TypeError("Derived constructors may only return object or undefined");return function(t){if(void 0===t)throw new ReferenceError("this hasn't been initialised - super() hasn't been called");return t}(t)}function h(t,n,r){return(h="undefined"!=typeof Reflect&&Reflect.get?Reflect.get:function(t,n,r){var e=function(t,n){for(;!Object.prototype.hasOwnProperty.call(t,n)&&null!==(t=a(t)););return t}(t,n);if(e){var i=Object.getOwnPropertyDescriptor(e,n);return i.get?i.get.call(r):i.value}})(t,n,r||t)}function v(t){return function(t){if(Array.isArray(t))return y(t)}(t)||function(t){if("undefined"!=typeof Symbol&&null!=t[Symbol.iterator]||null!=t["@@iterator"])return Array.from(t)}(t)||function(t,n){if(!t)return;if("string"==typeof t)return y(t,n);var r=Object.prototype.toString.call(t).slice(8,-1);"Object"===r&&t.constructor&&(r=t.constructor.name);if("Map"===r||"Set"===r)return Array.from(t);if("Arguments"===r||/^(?:Ui|I)nt(?:8|16|32)(?:Clamped)?Array$/.test(r))return y(t,n)}(t)||function(){throw new TypeError("Invalid attempt to spread non-iterable instance.\nIn order to be iterable, non-array objects must have a [Symbol.iterator]() method.")}()}function y(t,n){(null==n||n>t.length)&&(n=t.length);for(var r=0,e=new Array(n);r<n;r++)e[r]=t[r];return e}Number.isInteger||(Number.isInteger=function(t){return"number"==typeof t&&isFinite(t)&&Math.floor(t)===t}),Number.EPSILON||(Number.EPSILON=2220446049250313e-31);var g=p(Math.pow(10,-6));function p(t){var n=arguments.length>1&&void 0!==arguments[1]?arguments[1]:6;if(Number.isInteger(t))return t;var r=Math.pow(10,n);return Math.round((+t+Number.EPSILON)*r)/r}function d(t,n){var r=arguments.length>2&&void 0!==arguments[2]?arguments[2]:g;return Math.abs(t-n)<r}var m=Math.PI/180;function b(t){return t}function w(t,n,r){var e=1-r;return 3*r*e*(t*e+n*r)+r*r*r}function x(){var t=arguments.length>0&&void 0!==arguments[0]?arguments[0]:0,n=arguments.length>1&&void 0!==arguments[1]?arguments[1]:0,r=arguments.length>2&&void 0!==arguments[2]?arguments[2]:1,e=arguments.length>3&&void 0!==arguments[3]?arguments[3]:1;return t<0||t>1||r<0||r>1?null:d(t,n)&&d(r,e)?b:function(i){if(i<=0)return t>0?i*n/t:0===n&&r>0?i*e/r:0;if(i>=1)return r<1?1+(i-1)*(e-1)/(r-1):1===r&&t<1?1+(i-1)*(n-1)/(t-1):1;for(var o,u=0,a=1;u<a;){var l=w(t,r,o=(u+a)/2);if(d(i,l))break;l<i?u=o:a=o}return w(n,e,o)}}function A(){return 1}function k(t){return 1===t?1:0}function _(){var t=arguments.length>0&&void 0!==arguments[0]?arguments[0]:1,n=arguments.length>1&&void 0!==arguments[1]?arguments[1]:0;if(1===t){if(0===n)return k;if(1===n)return A}var r=1/t;return function(t){return t>=1?1:(t+=n*r)-t%r}}var S=Math.sin,O=Math.cos,j=Math.acos,M=Math.asin,P=Math.tan,E=Math.atan2,I=Math.PI/180,R=180/Math.PI,F=Math.sqrt,N=function(){function t(){var n=arguments.length>0&&void 0!==arguments[0]?arguments[0]:1,r=arguments.length>1&&void 0!==arguments[1]?arguments[1]:0,i=arguments.length>2&&void 0!==arguments[2]?arguments[2]:0,o=arguments.length>3&&void 0!==arguments[3]?arguments[3]:1,u=arguments.length>4&&void 0!==arguments[4]?arguments[4]:0,a=arguments.length>5&&void 0!==arguments[5]?arguments[5]:0;e(this,t),this.m=[n,r,i,o,u,a],this.i=null,this.w=null,this.s=null}return o(t,[{key:"determinant",get:function(){var t=this.m;return t[0]*t[3]-t[1]*t[2]}},{key:"isIdentity",get:function(){if(null===this.i){var t=this.m;this.i=1===t[0]&&0===t[1]&&0===t[2]&&1===t[3]&&0===t[4]&&0===t[5]}return this.i}},{key:"point",value:function(t,n){var r=this.m;return{x:r[0]*t+r[2]*n+r[4],y:r[1]*t+r[3]*n+r[5]}}},{key:"translateSelf",value:function(){var t=arguments.length>0&&void 0!==arguments[0]?arguments[0]:0,n=arguments.length>1&&void 0!==arguments[1]?arguments[1]:0;if(!t&&!n)return this;var r=this.m;return r[4]+=r[0]*t+r[2]*n,r[5]+=r[1]*t+r[3]*n,this.w=this.s=this.i=null,this}},{key:"rotateSelf",value:function(){var t=arguments.length>0&&void 0!==arguments[0]?arguments[0]:0;if(t%=360){var n=S(t*=I),r=O(t),e=this.m,i=e[0],o=e[1];e[0]=i*r+e[2]*n,e[1]=o*r+e[3]*n,e[2]=e[2]*r-i*n,e[3]=e[3]*r-o*n,this.w=this.s=this.i=null}return this}},{key:"scaleSelf",value:function(){var t=arguments.length>0&&void 0!==arguments[0]?arguments[0]:1,n=arguments.length>1&&void 0!==arguments[1]?arguments[1]:1;if(1!==t||1!==n){var r=this.m;r[0]*=t,r[1]*=t,r[2]*=n,r[3]*=n,this.w=this.s=this.i=null}return this}},{key:"skewSelf",value:function(t,n){if(n%=360,(t%=360)||n){var r=this.m,e=r[0],i=r[1],o=r[2],u=r[3];t&&(t=P(t*I),r[2]+=e*t,r[3]+=i*t),n&&(n=P(n*I),r[0]+=o*n,r[1]+=u*n),this.w=this.s=this.i=null}return this}},{key:"resetSelf",value:function(){var t=arguments.length>0&&void 0!==arguments[0]?arguments[0]:1,n=arguments.length>1&&void 0!==arguments[1]?arguments[1]:0,r=arguments.length>2&&void 0!==arguments[2]?arguments[2]:0,e=arguments.length>3&&void 0!==arguments[3]?arguments[3]:1,i=arguments.length>4&&void 0!==arguments[4]?arguments[4]:0,o=arguments.length>5&&void 0!==arguments[5]?arguments[5]:0,u=this.m;return u[0]=t,u[1]=n,u[2]=r,u[3]=e,u[4]=i,u[5]=o,this.w=this.s=this.i=null,this}},{key:"recomposeSelf",value:function(){var t=arguments.length>0&&void 0!==arguments[0]?arguments[0]:null,n=arguments.length>1&&void 0!==arguments[1]?arguments[1]:null,r=arguments.length>2&&void 0!==arguments[2]?arguments[2]:null,e=arguments.length>3&&void 0!==arguments[3]?arguments[3]:null,i=arguments.length>4&&void 0!==arguments[4]?arguments[4]:null;return this.isIdentity||this.resetSelf(),t&&(t.x||t.y)&&this.translateSelf(t.x,t.y),n&&this.rotateSelf(n),r&&(r.x&&this.skewSelf(r.x,0),r.y&&this.skewSelf(0,r.y)),!e||1===e.x&&1===e.y||this.scaleSelf(e.x,e.y),i&&(i.x||i.y)&&this.translateSelf(i.x,i.y),this}},{key:"decompose",value:function(){var t=arguments.length>0&&void 0!==arguments[0]?arguments[0]:0,n=arguments.length>1&&void 0!==arguments[1]?arguments[1]:0,r=this.m,e=r[0]*r[0]+r[1]*r[1],i=[[r[0],r[1]],[r[2],r[3]]],o=F(e);if(0===o)return{origin:{x:p(r[4]),y:p(r[5])},translate:{x:p(t),y:p(n)},scale:{x:0,y:0},skew:{x:0,y:0},rotate:0};i[0][0]/=o,i[0][1]/=o;var u=r[0]*r[3]-r[1]*r[2]<0;u&&(o=-o);var a=i[0][0]*i[1][0]+i[0][1]*i[1][1];i[1][0]-=i[0][0]*a,i[1][1]-=i[0][1]*a;var l=F(i[1][0]*i[1][0]+i[1][1]*i[1][1]);if(0===l)return{origin:{x:p(r[4]),y:p(r[5])},translate:{x:p(t),y:p(n)},scale:{x:p(o),y:0},skew:{x:0,y:0},rotate:0};i[1][0]/=l,i[1][1]/=l,a/=l;var f=0;return i[1][1]<0?(f=j(i[1][1])*R,i[0][1]<0&&(f=360-f)):f=M(i[0][1])*R,u&&(f=-f),a=E(a,F(i[0][0]*i[0][0]+i[0][1]*i[0][1]))*R,u&&(a=-a),{origin:{x:p(r[4]),y:p(r[5])},translate:{x:p(t),y:p(n)},scale:{x:p(o),y:p(l)},skew:{x:p(a),y:0},rotate:p(f)}}},{key:"clone",value:function(){var t=this.m;return new this.constructor(t[0],t[1],t[2],t[3],t[4],t[5])}},{key:"toString",value:function(){var t=arguments.length>0&&void 0!==arguments[0]?arguments[0]:" ";if(null===this.s){var n=this.m.map((function(t){return p(t)}));1===n[0]&&0===n[1]&&0===n[2]&&1===n[3]?this.s="translate("+n[4]+t+n[5]+")":this.s="matrix("+n.join(t)+")"}return this.s}}],[{key:"create",value:function(t){return t?Array.isArray(t)?s(this,v(t)):t instanceof this?t.clone():(new this).recomposeSelf(t.origin,t.rotate,t.skew,t.scale,t.translate):new this}}]),t}();function T(t,n,r){return t>=.5?r:n}function q(t,n,r){return 0===t||n===r?n:t*(r-n)+n}function B(t,n,r){var e=q(t,n,r);return e<=0?0:e}function L(t,n,r){var e=q(t,n,r);return e<=0?0:e>=1?1:e}function C(t,n,r){return 0===t?n:1===t?r:{x:q(t,n.x,r.x),y:q(t,n.y,r.y)}}function D(t,n,r){var e=function(t,n,r){return Math.round(q(t,n,r))}(t,n,r);return e<=0?0:e>=255?255:e}function z(t,n,r){return 0===t?n:1===t?r:{r:D(t,n.r,r.r),g:D(t,n.g,r.g),b:D(t,n.b,r.b),a:q(t,null==n.a?1:n.a,null==r.a?1:r.a)}}function V(t,n){for(var r=[],e=0;e<t;e++)r.push(n);return r}function G(t,n){if(--n<=0)return t;var r=(t=Object.assign([],t)).length;do{for(var e=0;e<r;e++)t.push(t[e])}while(--n>0);return t}var Y,$=function(){function t(n){e(this,t),this.list=n,this.length=n.length}return o(t,[{key:"setAttribute",value:function(t,n){for(var r=this.list,e=0;e<this.length;e++)r[e].setAttribute(t,n)}},{key:"removeAttribute",value:function(t){for(var n=this.list,r=0;r<this.length;r++)n[r].removeAttribute(t)}},{key:"style",value:function(t,n){for(var r=this.list,e=0;e<this.length;e++)r[e].style[t]=n}}]),t}(),U=/-./g,Q=function(t,n){return n.toUpperCase()};function H(t){return"function"==typeof t?t:T}function J(t){return t?"function"==typeof t?t:Array.isArray(t)?function(t){var n=arguments.length>1&&void 0!==arguments[1]?arguments[1]:b;if(!Array.isArray(t))return n;switch(t.length){case 1:return _(t[0])||n;case 2:return _(t[0],t[1])||n;case 4:return x(t[0],t[1],t[2],t[3])||n}return n}(t,null):function(t,n){var r=arguments.length>2&&void 0!==arguments[2]?arguments[2]:b;switch(t){case"linear":return b;case"steps":return _(n.steps||1,n.jump||0)||r;case"bezier":case"cubic-bezier":return x(n.x1||0,n.y1||0,n.x2||0,n.y2||0)||r}return r}(t.type,t.value,null):null}function Z(t,n,r){var e=arguments.length>3&&void 0!==arguments[3]&&arguments[3],i=n.length-1;if(t<=n[0].t)return e?[0,0,n[0].v]:n[0].v;if(t>=n[i].t)return e?[i,1,n[i].v]:n[i].v;var o,u=n[0],a=null;for(o=1;o<=i;o++){if(!(t>n[o].t)){a=n[o];break}u=n[o]}return null==a?e?[i,1,n[i].v]:n[i].v:u.t===a.t?e?[o,1,a.v]:a.v:(t=(t-u.t)/(a.t-u.t),u.e&&(t=u.e(t)),e?[o,t,r(t,u.v,a.v)]:r(t,u.v,a.v))}function K(t,n){var r=arguments.length>2&&void 0!==arguments[2]?arguments[2]:null;return t&&t.length?"function"!=typeof n?null:("function"!=typeof r&&(r=null),function(e){var i=Z(e,t,n);return null!=i&&r&&(i=r(i)),i}):null}function W(t,n){return t.t-n.t}function X(t,n,e,i,o){var u,a="@"===e[0],l="#"===e[0],f=Y[e],s=T;switch(a?(u=e.substr(1),e=u.replace(U,Q)):l&&(e=e.substr(1)),r(f)){case"function":if(s=f(i,o,Z,J,e,a,n,t),l)return s;break;case"string":s=K(i,H(f));break;case"object":if((s=K(i,H(f.i),f.f))&&"function"==typeof f.u)return f.u(n,s,e,a,t)}return s?function(t,n,r){if(arguments.length>3&&void 0!==arguments[3]&&arguments[3])return t instanceof $?function(e){return t.style(n,r(e))}:function(e){return t.style[n]=r(e)};if(Array.isArray(n)){var e=n.length;return function(i){var o=r(i);if(null==o)for(var u=0;u<e;u++)t[u].removeAttribute(n);else for(var a=0;a<e;a++)t[a].setAttribute(n,o)}}return function(e){var i=r(e);null==i?t.removeAttribute(n):t.setAttribute(n,i)}}(n,e,s,a):null}function tt(t,n,e,i){if(!i||"object"!==r(i))return null;var o=null,u=null;return Array.isArray(i)?u=function(t){if(!t||!t.length)return null;for(var n=0;n<t.length;n++)t[n].e&&(t[n].e=J(t[n].e));return t.sort(W)}(i):(u=i.keys,o=i.data||null),u?X(t,n,e,u,o):null}function nt(t,n,r){if(!r)return null;var e=[];for(var i in r)if(r.hasOwnProperty(i)){var o=tt(t,n,i,r[i]);o&&e.push(o)}return e.length?e:null}function rt(t,n){if(!n.duration||n.duration<0)return null;var r=function(t,n){if(!n)return null;var r=[];if(Array.isArray(n))for(var e=n.length,i=0;i<e;i++){var o=n[i];if(2===o.length){var u=null;if("string"==typeof o[0])u=t.getElementById(o[0]);else if(Array.isArray(o[0])){u=[];for(var a=0;a<o[0].length;a++)if("string"==typeof o[0][a]){var l=t.getElementById(o[0][a]);l&&u.push(l)}u=u.length?1===u.length?u[0]:new $(u):null}if(u){var f=nt(t,u,o[1]);f&&(r=r.concat(f))}}}else for(var s in n)if(n.hasOwnProperty(s)){var c=t.getElementById(s);if(c){var h=nt(t,c,n[s]);h&&(r=r.concat(h))}}return r.length?r:null}(t,n.elements);return r?function(t,n){var r=arguments.length>2&&void 0!==arguments[2]?arguments[2]:1/0,e=arguments.length>3&&void 0!==arguments[3]?arguments[3]:1,i=arguments.length>4&&void 0!==arguments[4]&&arguments[4],o=arguments.length>5&&void 0!==arguments[5]?arguments[5]:1,u=t.length,a=e>0?n:0;i&&r%2==0&&(a=n-a);var l=null;return function(f,s){var c=f%n,h=1+(f-c)/n;s*=e,i&&h%2==0&&(s=-s);var v=!1;if(h>r)c=a,v=!0,-1===o&&(c=e>0?0:n);else if(s<0&&(c=n-c),c===l)return!1;l=c;for(var y=0;y<u;y++)t[y](c);return v}}(r,n.duration,n.iterations||1/0,n.direction||1,!!n.alternate,n.fill||1):null}function et(t){return+("0x"+(t.replace(/[^0-9a-fA-F]+/g,"")||27))}function it(t,n,r){return!t||!r||n>t.length?t:t.substring(0,n)+it(t.substring(n+1),r,r)}function ot(t){var n=arguments.length>1&&void 0!==arguments[1]?arguments[1]:27;return!t||t%n?t%n:ot(t/n,n)}function ut(t,n,r){if(t&&t.length){var e=et(r),i=et(n),o=ot(e)+5,u=it(t,ot(e,5),o);return u=u.replace(/\x7c$/g,"==").replace(/\x2f$/g,"="),u=function(t,n,r){var e=+("0x"+t.substring(0,4));t=t.substring(4);for(var i=n%e+r%27,o=[],u=0;u<t.length;u+=2)if("|"!==t[u]){var a=+("0x"+t[u]+t[u+1])-i;o.push(a)}else{var l=+("0x"+t.substring(u+1,u+1+4))-i;u+=3,o.push(l)}return String.fromCharCode.apply(String,o)}(u=(u=atob(u)).replace(/[\x41-\x5A]/g,""),i,e),u=JSON.parse(u)}}var at=function(){function t(n,r){var i=arguments.length>2&&void 0!==arguments[2]?arguments[2]:{};e(this,t),this._id=0,this._running=!1,this._rollingBack=!1,this._animations=n,this.duration=r.duration,this.alternate=r.alternate,this.fill=r.fill,this.iterations=r.iterations,this.direction=i.direction||1,this.speed=i.speed||1,this.fps=i.fps||100,this.offset=i.offset||0,this.rollbackStartOffset=0}return o(t,[{key:"maxFiniteDuration",get:function(){return this.iterations>0?this.iterations*this.duration:this.duration}},{key:"_apply",value:function(t){for(var n=arguments.length>1&&void 0!==arguments[1]?arguments[1]:{},r=this._animations,e=r.length,i=0,o=0;o<e;o++)n[o]?i++:(n[o]=r[o](t,this.direction),n[o]&&i++);return i}},{key:"_rollback",value:function(){var t=this,n=1/0,r=null;this.rollbackStartOffset=this.offset,this._rollingBack=!0,this._running=!0;this._id=window.requestAnimationFrame((function e(i){if(t._rollingBack){null==r&&(r=i);var o=i-r,u=t.rollbackStartOffset-o,a=Math.round(u*t.speed);if(a>t.duration&&n!==1/0){var l=!!t.alternate&&a/t.duration%2>1,f=a%t.duration;a=(f+=l?t.duration:0)||t.duration}var s=t.fps?1e3/t.fps:0,c=Math.max(0,a);c<n-s&&(t.offset=c,n=c,t._apply(c));var h=t.iterations>0&&-1===t.fill&&a>=t.maxFiniteDuration;(a<=0||t.offset<a||h)&&t.stop(),t._id=window.requestAnimationFrame(e)}}))}},{key:"_start",value:function(){var t=this,n=arguments.length>0&&void 0!==arguments[0]?arguments[0]:0,r=-1/0,e=null,i={};this._running=!0;var o=function o(u){null==e&&(e=u);var a=Math.round((u-e+n)*t.speed),l=t.fps?1e3/t.fps:0;if(a>r+l&&!t._rollingBack&&(t.offset=a,r=a,t._apply(a,i)===t._animations.length))return void t.pause(!0);t._id=window.requestAnimationFrame(o)};this._id=window.requestAnimationFrame(o)}},{key:"_pause",value:function(){this._id&&window.cancelAnimationFrame(this._id),this._running=!1}},{key:"play",value:function(){if(!this._running)return this._rollingBack?this._rollback():this._start(this.offset)}},{key:"stop",value:function(){this._pause(),this.offset=0,this.rollbackStartOffset=0,this._rollingBack=!1,this._apply(0)}},{key:"reachedToEnd",value:function(){return this.iterations>0&&this.offset>=this.iterations*this.duration}},{key:"restart",value:function(){var t=arguments.length>0&&void 0!==arguments[0]&&arguments[0];this.stop(t),this.play(t)}},{key:"pause",value:function(){this._pause()}},{key:"reverse",value:function(){this.direction=-this.direction}}],[{key:"build",value:function(t,r){return delete t.animationSettings,t.options=ut(t.options,t.root,"5c7f360c"),t.animations.map((function(r){var e=ut(r.s,t.root,"5c7f360c");for(var i in delete r.s,t.animationSettings||(t.animationSettings=n({},e)),e)e.hasOwnProperty(i)&&(r[i]=e[i])})),(t=function(t,n){if(Y=n,!t||!t.root||!Array.isArray(t.animations))return null;for(var r=document.getElementsByTagName("svg"),e=!1,i=0;i<r.length;i++)if(r[i].id===t.root&&!r[i].svgatorAnimation){(e=r[i]).svgatorAnimation=!0;break}if(!e)return null;var o=t.animations.map((function(t){return rt(e,t)})).filter((function(t){return!!t}));return o.length?{element:e,animations:o,animationSettings:t.animationSettings,options:t.options||void 0}:null}(t,r))?{el:t.element,options:t.options||{},player:new this(t.animations,t.animationSettings,t.options)}:null}},{key:"push",value:function(t){return this.build(t)}},{key:"init",value:function(){var t=this,n=window.__SVGATOR_PLAYER__&&window.__SVGATOR_PLAYER__["5c7f360c"];Array.isArray(n)&&n.splice(0).forEach((function(n){return t.build(n)}))}}]),t}();function lt(t){return p(t)+""}function ft(t){var n=arguments.length>1&&void 0!==arguments[1]?arguments[1]:" ";return t&&t.length?t.map(lt).join(n):""}function st(t){if(!t)return"transparent";if(null==t.a||t.a>=1){var n=function(t){return 1===(t=parseInt(t).toString(16)).length?"0"+t:t},r=function(t){return t.charAt(0)===t.charAt(1)},e=n(t.r),i=n(t.g),o=n(t.b);return r(e)&&r(i)&&r(o)&&(e=e.charAt(0),i=i.charAt(0),o=o.charAt(0)),"#"+e+i+o}return"rgba("+t.r+","+t.g+","+t.b+","+t.a+")"}function ct(t){return t?"url(#"+t+")":"none"}!function(){for(var t=0,n=["ms","moz","webkit","o"],r=0;r<n.length&&!window.requestAnimationFrame;++r)window.requestAnimationFrame=window[n[r]+"RequestAnimationFrame"],window.cancelAnimationFrame=window[n[r]+"CancelAnimationFrame"]||window[n[r]+"CancelRequestAnimationFrame"];window.requestAnimationFrame||(window.requestAnimationFrame=function(n){var r=Date.now(),e=Math.max(0,16-(r-t)),i=window.setTimeout((function(){n(r+e)}),e);return t=r+e,i},window.cancelAnimationFrame=window.clearTimeout)}();var ht={f:null,i:function(t,n,r){return 0===t?n:1===t?r:{x:B(t,n.x,r.x),y:B(t,n.y,r.y)}},u:function(t,n){return function(r){var e=n(r);t.setAttribute("rx",lt(e.x)),t.setAttribute("ry",lt(e.y))}}},vt={f:null,i:function(t,n,r){return 0===t?n:1===t?r:{width:B(t,n.width,r.width),height:B(t,n.height,r.height)}},u:function(t,n){return function(r){var e=n(r);t.setAttribute("width",lt(e.width)),t.setAttribute("height",lt(e.height))}}};Object.freeze({M:2,L:2,Z:0,H:1,V:1,C:6,Q:4,T:2,S:4,A:7});var yt={},gt=null;function pt(t){var n=function(){if(gt)return gt;if("object"!==("undefined"==typeof document?"undefined":r(document))||!document.createElementNS)return{};var t=document.createElementNS("http://www.w3.org/2000/svg","svg");return t&&t.style?(t.style.position="absolute",t.style.opacity="0.01",t.style.zIndex="-9999",t.style.left="-9999px",t.style.width="1px",t.style.height="1px",gt={svg:t}):{}}().svg;if(!n)return function(t){return null};var e=document.createElementNS(n.namespaceURI,"path");e.setAttributeNS(null,"d",t),e.setAttributeNS(null,"fill","none"),e.setAttributeNS(null,"stroke","none"),n.appendChild(e);var i=e.getTotalLength();return function(t){var n=e.getPointAtLength(i*t);return{x:n.x,y:n.y}}}function dt(t){return yt[t]?yt[t]:yt[t]=pt(t)}function mt(t,n,r,e){if(!t||!e)return!1;var i=["M",t.x,t.y];if(n&&r&&(i.push("C"),i.push(n.x),i.push(n.y),i.push(r.x),i.push(r.y)),n?!r:r){var o=n||r;i.push("Q"),i.push(o.x),i.push(o.y)}return n||r||i.push("L"),i.push(e.x),i.push(e.y),i.join(" ")}function bt(t,n,r,e){var i=arguments.length>4&&void 0!==arguments[4]?arguments[4]:1,o=mt(t,n,r,e),u=dt(o);try{return u(i)}catch(t){return null}}function wt(t,n,r){return t+(n-t)*r}function xt(t,n,r){var e=arguments.length>3&&void 0!==arguments[3]&&arguments[3],i={x:wt(t.x,n.x,r),y:wt(t.y,n.y,r)};return e&&(i.a=At(t,n)),i}function At(t,n){return Math.atan2(n.y-t.y,n.x-t.x)}function kt(t,n,r,e){var i=1-e;return i*i*t+2*i*e*n+e*e*r}function _t(t,n,r,e){return 2*(1-e)*(n-t)+2*e*(r-n)}function St(t,n,r,e){var i=arguments.length>4&&void 0!==arguments[4]&&arguments[4],o=bt(t,n,null,r,e);return o||(o={x:kt(t.x,n.x,r.x,e),y:kt(t.y,n.y,r.y,e)}),i&&(o.a=Ot(t,n,r,e)),o}function Ot(t,n,r,e){return Math.atan2(_t(t.y,n.y,r.y,e),_t(t.x,n.x,r.x,e))}function jt(t,n,r,e,i){var o=i*i;return i*o*(e-t+3*(n-r))+3*o*(t+r-2*n)+3*i*(n-t)+t}function Mt(t,n,r,e,i){var o=1-i;return 3*(o*o*(n-t)+2*o*i*(r-n)+i*i*(e-r))}function Pt(t,n,r,e,i){var o=arguments.length>5&&void 0!==arguments[5]&&arguments[5],u=bt(t,n,r,e,i);return u||(u={x:jt(t.x,n.x,r.x,e.x,i),y:jt(t.y,n.y,r.y,e.y,i)}),o&&(u.a=Et(t,n,r,e,i)),u}function Et(t,n,r,e,i){return Math.atan2(Mt(t.y,n.y,r.y,e.y,i),Mt(t.x,n.x,r.x,e.x,i))}function It(t,n,r){var e=arguments.length>3&&void 0!==arguments[3]&&arguments[3];if(Ft(n)){if(Nt(r))return St(n,r.start,r,t,e)}else if(Ft(r)){if(n.end)return St(n,n.end,r,t,e)}else{if(n.end)return r.start?Pt(n,n.end,r.start,r,t,e):St(n,n.end,r,t,e);if(r.start)return St(n,r.start,r,t,e)}return xt(n,r,t,e)}function Rt(t,n,r){var e=It(t,n,r,!0);return e.a=function(t){return arguments.length>1&&void 0!==arguments[1]&&arguments[1]?t+Math.PI:t}(e.a)/m,e}function Ft(t){return!t.type||"corner"===t.type}function Nt(t){return null!=t.start&&!Ft(t)}var Tt=new N;var qt={f:lt,i:q},Bt={f:lt,i:L};function Lt(t,n,r){return t.map((function(t){return function(t,n,r){var e=t.v;if(!e||"g"!==e.t||e.s||!e.v||!e.r)return t;var i=r.getElementById(e.r),o=i&&i.querySelectorAll("stop")||[];return e.s=e.v.map((function(t,n){var r=o[n]&&o[n].getAttribute("offset");return{c:t,o:r=p(parseInt(r)/100)}})),delete e.v,t}(t,0,r)}))}var Ct={gt:"gradientTransform",c:{x:"cx",y:"cy"},rd:"r",f:{x:"x1",y:"y1"},to:{x:"x2",y:"y2"}};function Dt(t,n,e,i,o,u,a,l){return Lt(t,0,l),n=function(t,n,r){for(var e,i,o,u=t.length-1,a={},l=0;l<=u;l++)(e=t[l]).e&&(e.e=n(e.e)),e.v&&"g"===(i=e.v).t&&i.r&&(o=r.getElementById(i.r))&&(a[i.r]={e:o,s:o.querySelectorAll("stop")});return a}(t,i,l),function(i){var o=e(i,t,zt);if(!o)return"none";if("c"===o.t)return st(o.v);if("g"===o.t){if(!n[o.r])return ct(o.r);var u=n[o.r];return function(t,n){for(var r=t.s,e=r.length;e<n.length;e++){var i=r[r.length-1].cloneNode();i.id=Yt(i.id),t.e.appendChild(i),r=t.s=t.e.querySelectorAll("stop")}for(var o=0,u=r.length,a=n.length-1;o<u;o++)r[o].setAttribute("stop-color",st(n[Math.min(o,a)].c)),r[o].setAttribute("offset",n[Math.min(o,a)].o)}(u,o.s),Object.keys(Ct).forEach((function(t){if(void 0!==o[t])if("object"!==r(Ct[t])){var n,e="gt"===t?(n=o[t],Array.isArray(n)?"matrix("+n.join(" ")+")":""):o[t],i=Ct[t];u.e.setAttribute(i,e)}else Object.keys(Ct[t]).forEach((function(n){if(void 0!==o[t][n]){var r=o[t][n],e=Ct[t][n];u.e.setAttribute(e,r)}}))})),ct(o.r)}return"none"}}function zt(t,r,e){if(0===t)return r;if(1===t)return e;if(r&&e){var i=r.t;if(i===e.t)switch(r.t){case"c":return{t:i,v:z(t,r.v,e.v)};case"g":if(r.r===e.r){var o={t:i,s:Vt(t,r.s,e.s),r:r.r};return r.gt&&e.gt&&(o.gt=function(t,n,r){var e=n.length;if(e!==r.length)return T(t,n,r);for(var i=new Array(e),o=0;o<e;o++)i[o]=q(t,n[o],r[o]);return i}(t,r.gt,e.gt)),r.c?(o.c=C(t,r.c,e.c),o.rd=B(t,r.rd,e.rd)):r.f&&(o.f=C(t,r.f,e.f),o.to=C(t,r.to,e.to)),o}}if("c"===r.t&&"g"===e.t||"c"===e.t&&"g"===r.t){var u="c"===r.t?r:e,a="g"===r.t?n({},r):n({},e),l=a.s.map((function(t){return{c:u.v,o:t.o}}));return a.s="c"===r.t?Vt(t,l,a.s):Vt(t,a.s,l),a}}return T(t,r,e)}function Vt(t,n,r){if(n.length===r.length)return n.map((function(n,e){return Gt(t,n,r[e])}));for(var e=Math.max(n.length,r.length),i=[],o=0;o<e;o++){var u=Gt(t,n[Math.min(o,n.length-1)],r[Math.min(o,r.length-1)]);i.push(u)}return i}function Gt(t,n,r){return{o:L(t,n.o,r.o||0),c:z(t,n.c,r.c||{})}}function Yt(t){return t.replace(/-fill-([0-9]+)$/,(function(t,n){return"-fill-"+(+n+1)}))}var $t={fill:Dt,"fill-opacity":Bt,stroke:Dt,"stroke-opacity":Bt,"stroke-width":qt,"stroke-dashoffset":{f:lt,i:q},"stroke-dasharray":{f:function(t){var n=arguments.length>1&&void 0!==arguments[1]?arguments[1]:" ";return t&&t.length>0&&(t=t.map((function(t){return p(t,4)}))),ft(t,n)},i:function(t,n,r){var e,i,o,u=n.length,a=r.length;if(u!==a)if(0===u)n=V(u=a,0);else if(0===a)a=u,r=V(u,0);else{var l=(o=(e=u)*(i=a)/function(t,n){for(var r;n;)r=n,n=t%n,t=r;return t||1}(e,i))<0?-o:o;n=G(n,Math.floor(l/u)),r=G(r,Math.floor(l/a)),u=a=l}for(var f=[],s=0;s<u;s++)f.push(p(B(t,n[s],r[s])));return f}},opacity:Bt,transform:function(t,n,e,i){if(!(t=function(t,n){if(!t||"object"!==r(t))return null;var e=!1;for(var i in t)t.hasOwnProperty(i)&&(t[i]&&t[i].length?(t[i].forEach((function(t){t.e&&(t.e=n(t.e))})),e=!0):delete t[i]);return e?t:null}(t,i)))return null;var o=function(r,i,o){var u=arguments.length>3&&void 0!==arguments[3]?arguments[3]:null;return t[r]?e(i,t[r],o):n&&n[r]?n[r]:u};return n&&n.a&&t.o?function(n){var r=e(n,t.o,Rt);return Tt.recomposeSelf(r,o("r",n,q,0)+r.a,o("k",n,C),o("s",n,C),o("t",n,C)).toString()}:function(t){return Tt.recomposeSelf(o("o",t,It,null),o("r",t,q,0),o("k",t,C),o("s",t,C),o("t",t,C)).toString()}},r:qt,"#size":vt,"#radius":ht,_:function(t,n){if(Array.isArray(t))for(var r=0;r<t.length;r++)this[t[r]]=n;else this[t]=n}},Ut=function(t){!function(t,n){if("function"!=typeof n&&null!==n)throw new TypeError("Super expression must either be null or a function");t.prototype=Object.create(n&&n.prototype,{constructor:{value:t,writable:!0,configurable:!0}}),n&&l(t,n)}(u,t);var n,r,i=(n=u,r=f(),function(){var t,e=a(n);if(r){var i=a(this).constructor;t=Reflect.construct(e,arguments,i)}else t=e.apply(this,arguments);return c(this,t)});function u(){return e(this,u),i.apply(this,arguments)}return o(u,null,[{key:"build",value:function(t){var n=h(a(u),"build",this).call(this,t,$t);if(!n)return null;n.el,n.options,function(t,n,r){t.play()}(n.player)}}]),u}(at);return Ut.init(),Ut}));
(function(s,i,o,w,a,b){w[o]=w[o]||{};w[o][s]=w[o][s]||[];w[o][s].push(i);})('5c7f360c',{"root":"eHJc7bh3aGX1","animations":[{"elements":{"eHJc7bh3aGX5":{"transform":{"data":{"o":{"x":833.065033,"y":845.606354,"type":"corner"},"t":{"x":-833.065033,"y":-845.606354}},"keys":{"r":[{"t":0,"v":0},{"t":10000,"v":360}]}}},"eHJc7bh3aGX13":{"transform":{"data":{"t":{"x":-160.243849,"y":-1042.275055}},"keys":{"o":[{"t":0,"v":{"x":160.243849,"y":1042.275055,"type":"corner"}},{"t":1000,"v":{"x":160.243849,"y":1141.825043,"type":"corner"}},{"t":2000,"v":{"x":160.243849,"y":1042.275055,"type":"corner"}},{"t":3000,"v":{"x":160.246139,"y":929.000061,"type":"corner"}},{"t":4000,"v":{"x":160.243849,"y":1042.275055,"type":"corner"}},{"t":5000,"v":{"x":160.243849,"y":1141.825043,"type":"corner"}},{"t":6000,"v":{"x":160.243849,"y":1042.275055,"type":"corner"}},{"t":7000,"v":{"x":160.246139,"y":929.000061,"type":"corner"}},{"t":8000,"v":{"x":160.243849,"y":1042.275055,"type":"corner"}},{"t":9000,"v":{"x":160.243849,"y":1141.825043,"type":"corner"}},{"t":10000,"v":{"x":160.243849,"y":1042.275055,"type":"corner"}}]}}},"eHJc7bh3aGX28":{"transform":{"data":{"t":{"x":-1025.325043,"y":-118.415001}},"keys":{"o":[{"t":0,"v":{"x":1025.325043,"y":118.415001,"type":"corner"}},{"t":1000,"v":{"x":1025.325045,"y":235.490955,"type":"corner"}},{"t":2000,"v":{"x":1025.325043,"y":118.415001,"type":"corner"}},{"t":3000,"v":{"x":1025.325045,"y":235.490955,"type":"corner"}},{"t":4000,"v":{"x":1025.325043,"y":118.415001,"type":"corner"}},{"t":5000,"v":{"x":1025.325045,"y":235.490955,"type":"corner"}},{"t":6000,"v":{"x":1025.325043,"y":118.415001,"type":"corner"}},{"t":7000,"v":{"x":1025.325045,"y":235.490955,"type":"corner"}},{"t":8000,"v":{"x":1025.325043,"y":118.415001,"type":"corner"}},{"t":9000,"v":{"x":1025.325045,"y":235.490955,"type":"corner"}},{"t":10000,"v":{"x":1025.325043,"y":118.415001,"type":"corner"}}]}}},"eHJc7bh3aGX42":{"transform":{"data":{"o":{"x":364.419526,"y":353.439438,"type":"corner"},"t":{"x":-364.419525,"y":-353.439438}},"keys":{"r":[{"t":0,"v":0},{"t":10000,"v":720}]}}},"eHJc7bh3aGX45":{"transform":{"data":{"o":{"x":142.725002,"y":454.264984,"type":"corner"},"t":{"x":-142.725002,"y":-454.264984}},"keys":{"r":[{"t":0,"v":0},{"t":10000,"v":-720}]}}},"eHJc7bh3aGX47":{"transform":{"data":{"t":{"x":-1408.914978,"y":-508.439987}},"keys":{"o":[{"t":0,"v":{"x":1408.914978,"y":508.439987,"type":"corner"}},{"t":1000,"v":{"x":1460.37,"y":508.439987,"type":"corner"}},{"t":2000,"v":{"x":1408.914978,"y":508.439987,"type":"corner"}},{"t":3000,"v":{"x":1359.385013,"y":508.608699,"type":"corner"}},{"t":4000,"v":{"x":1408.914978,"y":508.439987,"type":"corner"}},{"t":5000,"v":{"x":1460.37,"y":508.439987,"type":"corner"}},{"t":6000,"v":{"x":1408.914978,"y":508.439987,"type":"corner"}},{"t":7000,"v":{"x":1359.385013,"y":508.608699,"type":"corner"}},{"t":8000,"v":{"x":1408.914978,"y":508.439987,"type":"corner"}},{"t":9000,"v":{"x":1460.37,"y":508.439987,"type":"corner"}},{"t":10000,"v":{"x":1408.914978,"y":508.439987,"type":"corner"}}]}}},"eHJc7bh3aGX59":{"transform":{"data":{"t":{"x":-1467.309997,"y":-1083.340027}},"keys":{"o":[{"t":0,"v":{"x":1467.309998,"y":1083.340027,"type":"corner"}},{"t":700,"v":{"x":1465.045968,"y":1061.94002,"type":"corner"}},{"t":1000,"v":{"x":1467.309998,"y":1083.340027,"type":"corner"}},{"t":2000,"v":{"x":1467.309998,"y":1083.340027,"type":"corner"}},{"t":2700,"v":{"x":1465.045968,"y":1061.94002,"type":"corner"}},{"t":3000,"v":{"x":1467.309998,"y":1083.340027,"type":"corner"}},{"t":4000,"v":{"x":1467.309998,"y":1083.340027,"type":"corner"}},{"t":4700,"v":{"x":1465.045968,"y":1061.94002,"type":"corner"}},{"t":5000,"v":{"x":1467.309998,"y":1083.340027,"type":"corner"}},{"t":6000,"v":{"x":1467.309998,"y":1083.340027,"type":"corner"}},{"t":6700,"v":{"x":1465.045968,"y":1061.94002,"type":"corner"}},{"t":7000,"v":{"x":1467.309998,"y":1083.340027,"type":"corner"}},{"t":8000,"v":{"x":1467.309998,"y":1083.340027,"type":"corner"}},{"t":8700,"v":{"x":1465.045968,"y":1061.94002,"type":"corner"}},{"t":9000,"v":{"x":1467.309998,"y":1083.340027,"type":"corner"}}]}}},"eHJc7bh3aGX68":{"transform":{"data":{"o":{"x":1666.544856,"y":964.87,"type":"corner"},"t":{"x":-1662.574701,"y":-969.483647}},"keys":{"r":[{"t":0,"v":0},{"t":300,"v":-45},{"t":700,"v":-45},{"t":1000,"v":0},{"t":2000,"v":0},{"t":2300,"v":-45},{"t":2700,"v":-45},{"t":3000,"v":0},{"t":4000,"v":0},{"t":4300,"v":-45},{"t":4700,"v":-45},{"t":5000,"v":0},{"t":6000,"v":0},{"t":6300,"v":-45},{"t":6700,"v":-45},{"t":7000,"v":0},{"t":8000,"v":0},{"t":8300,"v":-45},{"t":8700,"v":-45},{"t":9000,"v":0}]}}}},"s":"MQDA1NDg4MmY3MUI4MjKdmNmU4MTc2N2M3YjJNmNDczZTNkM2QzZDNkRMzkyZjcxNzY3ZjcyNEzA4MTc2N2M3YkMyZlRU0NzNlMzkyZjc2ODEW3MjdmNmU4MTc2N2NHWN2I4MDJmNDczZDM5MHmY3Mzc2Nzk3OTJmNDUczZTM5MmY2ZTc5ODER3MlI3ZjdiNmU4MTcySQjJmNDc3MzZlNzk4MPDcyMzkyZjgwN2Q3MlJI3MjcxMmY0NzNlOGEB/"}],"options":"MKDAxMDg4UU4yZjgwODVE2ZTdmODEyZjQ3VDJKmNzlIN2M2ZTcxMmZZBOGE/"},'__SVGATOR_PLAYER__',window)]]></script></svg>