<svg viewBox="0 0 163 41" fill="none" xmlns="http://www.w3.org/2000/svg">
<path d="M9.40313 0.667725H0.0888672V29.684H5.50229V20.2416H9.40313C16.0505 20.2416 20.1106 16.3511 20.1106 10.4749C20.1106 4.5987 16.0505 0.667725 9.40313 0.667725ZM9.40313 15.1353H5.50229V5.77394H9.40313C12.7069 5.77394 14.6175 7.47601 14.6175 10.4749C14.6175 13.4333 12.7069 15.1353 9.40313 15.1353Z" />
<path d="M26.9573 12.4993V9.13572H21.9022V29.6822H26.9573V21.2123C26.9573 17.4029 27.7136 13.5125 33.6843 14.2419V8.64941C31.2562 8.64941 28.4699 9.94623 26.9573 12.4993Z" />
<path d="M35.6712 29.684H40.7264V9.13756H35.6712V29.684ZM38.1789 6.13867C39.6915 6.13867 40.8856 4.92291 40.8856 3.38294C40.8856 1.88349 39.6915 0.667725 38.1789 0.667725C36.7062 0.667725 35.512 1.88349 35.512 3.38294C35.512 4.92291 36.7062 6.13867 38.1789 6.13867Z" />
<path d="M65.1696 8.64941C62.3037 8.64941 60.3134 10.0678 59.0795 11.8915C58.0446 9.94623 56.2534 8.64941 53.5068 8.64941C50.8399 8.64941 49.208 9.82465 48.173 11.3241V9.13572H43.1179V29.6822H48.173V17.8892C48.173 15.5388 49.407 13.6341 51.7554 13.6341C54.1039 13.6341 55.1388 15.3361 55.1388 17.8892V29.6822H60.194V17.8892C60.194 15.5388 61.428 13.6341 63.7764 13.6341C66.1249 13.6341 67.1598 15.3361 67.1598 17.8892V29.6822H72.215V16.8356C72.215 12.4993 69.8267 8.64941 65.1696 8.64941Z" />
<path d="M84.517 8.12256C78.9443 8.12256 74.2076 12.4588 74.2076 18.9024C74.2076 25.1433 78.6259 29.6821 85.3131 29.6821C89.1343 29.6821 92.239 27.818 93.871 25.508L89.811 23.0765C89.2139 23.8465 87.6217 25.1028 85.3131 25.1028C82.5267 25.1028 80.2977 23.6438 79.5812 20.8881H94.5477C95.4632 12.783 90.6071 8.12256 84.517 8.12256ZM79.5812 16.9166C80.1783 14.2824 82.1287 12.7019 84.5966 12.7019C87.3033 12.7019 89.0945 14.2419 89.6119 16.9166H79.5812Z" />
<path d="M114.609 2.8561V0.667725H99.0449V29.684H101.155V15.7837H111.146V13.6359H101.155V2.8561H114.609Z" />
<path d="M123.959 8.12256C118.147 8.12256 113.49 12.9451 113.49 18.9024C113.49 24.8191 118.147 29.6821 123.959 29.6821C129.81 29.6821 134.427 24.8191 134.427 18.9024C134.427 12.9451 129.81 8.12256 123.959 8.12256ZM123.959 27.4938C119.302 27.4938 115.6 23.6438 115.6 18.9024C115.6 14.1609 119.302 10.2704 123.959 10.2704C128.616 10.2704 132.318 14.1609 132.318 18.9024C132.318 23.6438 128.616 27.4938 123.959 27.4938Z" />
<path d="M139.164 13.553V9.13572H137.014V29.6822H139.164V19.2266C139.164 14.0393 141.87 11.162 146.328 11.162V8.64941C143.025 8.64941 140.557 10.7973 139.164 13.553Z" />
<path d="M153.57 23.361V11.1223H158.307V8.93389H153.57V4.63818H151.461V8.93389H147.918V11.1223H151.461V23.361C151.461 29.5614 155.083 29.9261 158.347 29.6019V27.454C154.446 27.8188 153.57 26.4004 153.57 23.361Z" />
<path d="M162.944 28.3746C162.944 28.7409 162.831 29.0494 162.584 29.3001C162.338 29.5507 162.016 29.6857 161.656 29.6857C161.297 29.6857 160.994 29.5507 160.747 29.3001C160.501 29.0494 160.369 28.7409 160.369 28.3746C160.369 28.0082 160.501 27.6998 160.747 27.4298C160.994 27.1792 161.297 27.0635 161.656 27.0635C162.016 27.0635 162.338 27.1792 162.584 27.4298C162.831 27.6998 162.944 28.0082 162.944 28.3746Z" />
<path d="M100.629 35.876C99.9763 35.7265 99.3525 35.6219 99.3525 34.9569C99.3525 34.4563 99.7488 34.15 100.241 34.15C100.784 34.15 101.048 34.4488 101.151 34.7627L101.87 34.5833C101.657 33.8586 101.048 33.4551 100.314 33.4551C99.3599 33.4551 98.6186 34.0752 98.6186 34.9569C98.6186 35.6369 98.8535 36.1898 99.8883 36.4438C100.703 36.6456 101.327 36.6754 101.327 37.3853C101.327 37.9232 100.835 38.1698 100.277 38.1698C99.5947 38.1698 99.2131 37.8037 99.1397 37.46L98.4131 37.6916C98.6627 38.5135 99.4773 38.8722 100.263 38.8722C101.584 38.8722 102.075 38.0577 102.075 37.3255C102.075 36.4812 101.628 36.1151 100.629 35.876Z" />
<path d="M104.219 34.9033C103.125 34.9033 102.333 35.7999 102.333 36.8908C102.333 37.9817 103.096 38.8783 104.329 38.8783C104.982 38.8783 105.525 38.6168 105.855 38.161L105.305 37.8024C105.1 38.0714 104.733 38.2283 104.329 38.2283C103.602 38.2283 103.147 37.8024 103.045 37.1822H106.002C106.178 35.7701 105.232 34.9033 104.219 34.9033ZM103.045 36.5994C103.147 35.9718 103.58 35.5459 104.219 35.5459C104.85 35.5459 105.239 35.9569 105.327 36.5994H103.045Z" />
<path d="M108.195 38.2283C107.461 38.2283 106.925 37.6604 106.925 36.8908C106.925 36.1138 107.461 35.5459 108.195 35.5459C108.665 35.5459 109.054 35.785 109.274 36.1586L109.846 35.8373C109.509 35.2844 108.922 34.9033 108.195 34.9033C107.072 34.9033 106.243 35.7999 106.243 36.8908C106.243 37.9817 107.072 38.8783 108.195 38.8783C108.922 38.8783 109.509 38.4973 109.846 37.9369L109.274 37.6231C109.054 37.9967 108.665 38.2283 108.195 38.2283Z" />
<path d="M112.753 34.9946V37.1689C112.753 37.6172 112.467 38.2299 111.763 38.2299C111.065 38.2299 110.845 37.7069 110.845 37.1689V34.9946H110.177V37.3707C110.177 38.1702 110.772 38.88 111.609 38.88C112.166 38.88 112.533 38.5961 112.753 38.2598V38.7828H113.421V34.9946H112.753Z" />
<path d="M114.75 35.6505V34.993H114.082V38.7812H114.75V37.0851C114.75 36.3902 114.889 35.5384 115.99 35.6729V34.9033C115.513 34.9033 115 35.1424 114.75 35.6505Z" />
<path d="M116.429 38.7739H117.105V34.9857H116.429V38.7739ZM116.767 34.3132C116.98 34.3132 117.149 34.1414 117.149 33.9247C117.149 33.7155 116.98 33.5361 116.767 33.5361C116.554 33.5361 116.385 33.7155 116.385 33.9247C116.385 34.1414 116.554 34.3132 116.767 34.3132Z" />
<path d="M119.588 34.9033C119.023 34.9033 118.656 35.1873 118.436 35.5235V34.993H117.768V38.7812H118.436V36.6069C118.436 36.1661 118.722 35.5459 119.427 35.5459C120.124 35.5459 120.344 36.0764 120.344 36.6069V38.7812H121.012V36.4126C121.012 35.6131 120.425 34.9033 119.588 34.9033Z" />
<path d="M124.573 34.993V35.5459C124.324 35.1873 123.92 34.9033 123.311 34.9033C122.217 34.9033 121.454 35.8522 121.454 36.7862C121.454 37.7277 122.217 38.6766 123.311 38.6766C123.92 38.6766 124.324 38.3927 124.573 38.0266V38.318C124.573 39.0726 124.228 39.6479 123.34 39.6479C122.724 39.6479 122.364 39.3939 122.225 39.1847L121.652 39.5284C121.953 39.9916 122.606 40.2905 123.34 40.2905C124.683 40.2905 125.248 39.4611 125.248 38.3852V34.993H124.573ZM123.377 38.034C122.68 38.034 122.144 37.5035 122.144 36.7862C122.144 36.0764 122.68 35.5459 123.377 35.5459C124.089 35.5459 124.573 36.0764 124.573 36.7862C124.573 37.5035 124.089 38.034 123.377 38.034Z" />
<path d="M128.583 33.5464H127.593V38.7767H128.583V33.5464Z" />
<path d="M131.22 34.9033C130.677 34.9033 130.34 35.1499 130.134 35.4562V34.993H129.21V38.7812H130.134V36.6741C130.134 36.2408 130.376 35.8224 130.927 35.8224C131.455 35.8224 131.653 36.1885 131.653 36.6741V38.7812H132.585V36.4799C132.585 35.6804 132.16 34.9033 131.22 34.9033Z" />
<path d="M135.185 34.9033C134.642 34.9033 134.304 35.1499 134.099 35.4562V34.993H133.174V38.7812H134.099V36.6741C134.099 36.2408 134.341 35.8224 134.891 35.8224C135.42 35.8224 135.618 36.1885 135.618 36.6741V38.7812H136.55V36.4799C136.55 35.6804 136.124 34.9033 135.185 34.9033Z" />
<path d="M138.874 34.9033C137.759 34.9033 136.915 35.7775 136.915 36.8908C136.915 37.9967 137.759 38.8783 138.874 38.8783C139.997 38.8783 140.841 37.9967 140.841 36.8908C140.841 35.7775 139.997 34.9033 138.874 34.9033ZM138.874 37.9668C138.258 37.9668 137.869 37.4811 137.869 36.8908C137.869 36.3006 138.258 35.8149 138.874 35.8149C139.498 35.8149 139.887 36.3006 139.887 36.8908C139.887 37.4811 139.498 37.9668 138.874 37.9668Z" />
<path d="M143.504 34.9946L142.616 37.6845L141.735 34.9946H140.73L142.11 38.7828H143.13L144.509 34.9946H143.504Z" />
<path d="M146.095 34.9033C145.471 34.9033 144.957 35.1349 144.546 35.516L145.185 36.0092C145.324 35.912 145.625 35.7327 145.963 35.7327C146.535 35.7327 146.726 35.9718 146.733 36.5172H146.33C145.838 36.5172 144.326 36.5172 144.326 37.765C144.326 38.572 145.09 38.8783 145.647 38.8783C146.146 38.8783 146.557 38.6691 146.733 38.3777V38.7812H147.665V36.4948C147.665 35.5907 147.277 34.9033 146.095 34.9033ZM146.733 37.7576C146.653 37.9145 146.403 38.1909 145.926 38.1909C145.464 38.1909 145.28 37.9593 145.28 37.6754C145.28 37.1075 146.007 37.115 146.675 37.115H146.733V37.7576Z" />
<path d="M150.066 35.8533V34.9866H149.274V34.1946H148.342V34.9866H147.813V35.8533H148.342V37.3925C148.342 38.1771 148.723 38.8271 149.677 38.8271C149.868 38.8271 149.971 38.8047 150.066 38.7748V37.9081C150 37.9156 149.912 37.923 149.846 37.923C149.333 37.923 149.274 37.669 149.274 37.2356V35.8533H150.066Z" />
<path d="M150.544 38.7746H151.476V34.9864H150.544V38.7746ZM151.006 34.4335C151.285 34.4335 151.505 34.2093 151.505 33.9254C151.505 33.649 151.285 33.4248 151.006 33.4248C150.735 33.4248 150.515 33.649 150.515 33.9254C150.515 34.2093 150.735 34.4335 151.006 34.4335Z" />
<path d="M153.802 34.9033C152.687 34.9033 151.843 35.7775 151.843 36.8908C151.843 37.9967 152.687 38.8783 153.802 38.8783C154.925 38.8783 155.769 37.9967 155.769 36.8908C155.769 35.7775 154.925 34.9033 153.802 34.9033ZM153.802 37.9668C153.186 37.9668 152.797 37.4811 152.797 36.8908C152.797 36.3006 153.186 35.8149 153.802 35.8149C154.426 35.8149 154.815 36.3006 154.815 36.8908C154.815 37.4811 154.426 37.9668 153.802 37.9668Z" />
<path d="M158.146 34.9033C157.603 34.9033 157.266 35.1499 157.06 35.4562V34.993H156.135V38.7812H157.06V36.6741C157.06 36.2408 157.302 35.8224 157.853 35.8224C158.381 35.8224 158.579 36.1885 158.579 36.6741V38.7812H159.511V36.4799C159.511 35.6804 159.086 34.9033 158.146 34.9033Z" />
<path d="M161.631 36.5172C161.337 36.45 160.838 36.4276 160.838 36.0913C160.838 35.8074 161.117 35.7028 161.389 35.7028C161.741 35.7028 161.924 35.8971 161.968 36.0913L162.812 35.8821C162.658 35.2246 162.027 34.9033 161.389 34.9033C160.515 34.9033 159.928 35.374 159.928 36.0913C159.928 36.7414 160.295 37.0926 161.014 37.242C161.455 37.3391 161.99 37.3242 161.99 37.6828C161.99 37.9369 161.77 38.0789 161.381 38.0789C160.838 38.0789 160.691 37.8248 160.662 37.6679L159.767 37.9518C159.936 38.5869 160.655 38.8783 161.367 38.8783C162.409 38.8783 162.944 38.3628 162.944 37.6156C162.944 36.973 162.541 36.719 161.631 36.5172Z" />
</svg>
