<svg xmlns="http://www.w3.org/2000/svg" viewBox="0 0 875.8 875.8"><defs><style>.cls-1{fill:#4858e8;}</style></defs><g id="Layer_2" data-name="Layer 2"><g id="Layer_1-2" data-name="Layer 1"><path class="cls-1" d="M437.9,875.8A438,438,0,0,1,267.45,34.42a438,438,0,0,1,340.9,807A435.1,435.1,0,0,1,437.9,875.8Zm0-849.8C210.78,26,26,210.78,26,437.9S210.78,849.8,437.9,849.8,849.8,665,849.8,437.9,665,26,437.9,26Z"/><path class="cls-1" d="M530.63,452.46a5.61,5.61,0,0,1,0,7.9L462,529.07a5.61,5.61,0,0,1-7.9,0l-43.35-43.35a5.6,5.6,0,0,1,7.9-7.89l39.2,39.2,64.9-64.57a5.61,5.61,0,0,1,7.9,0ZM678.24,367.9V603.1A39.2,39.2,0,0,1,639,642.3H235.84a39.2,39.2,0,0,1-39.2-39.2V272.7a39.2,39.2,0,0,1,39.2-39.2H343.7a72.34,72.34,0,0,1,51.24,21.11l5.61,5.6h0a61.25,61.25,0,0,0,43.4,17.86H592a39.2,39.2,0,0,1,39.2,39.2v11.2H639a39.2,39.2,0,0,1,39.2,39.43ZM263.84,603.1V367.9A39.2,39.2,0,0,1,303,328.7H620V317.5a28,28,0,0,0-28-28H444.21A72.36,72.36,0,0,1,393,268.39l-5.6-5.6A61.22,61.22,0,0,0,344,244.92H235.83a28,28,0,0,0-28,28v330.4a28,28,0,1,0,56,0ZM667,367.9a28,28,0,0,0-28-28H303a28,28,0,0,0-28,28V603.1a39.19,39.19,0,0,1-11.81,28H639.05a28,28,0,0,0,28-28ZM578.56,490a106.4,106.4,0,1,1-31.16-75.23A106.43,106.43,0,0,1,578.56,490Zm-11.2,0a95.19,95.19,0,1,0-27.88,67.32A95.23,95.23,0,0,0,567.36,490Z"/></g></g></svg>