<svg xmlns="http://www.w3.org/2000/svg" viewBox="0 0 875.8 875.8"><defs><style>.cls-1{fill:#4858e8;}</style></defs><g id="Layer_2" data-name="Layer 2"><g id="Layer_1-2" data-name="Layer 1"><path class="cls-1" d="M437.9,875.8A438,438,0,0,1,267.45,34.42a438,438,0,0,1,340.9,807A435.1,435.1,0,0,1,437.9,875.8Zm0-849.8C210.78,26,26,210.78,26,437.9S210.78,849.8,437.9,849.8,849.8,665,849.8,437.9,665,26,437.9,26Z"/><path class="cls-1" d="M593.42,529.75l7.9,7.9a11.11,11.11,0,0,1,0,15.8l-29.7,29.7a2.84,2.84,0,0,0,0,4l29.7,29.7a11.11,11.11,0,0,1,0,15.8l-7.9,7.9a11.11,11.11,0,0,1-15.8,0l-29.7-29.7a2.84,2.84,0,0,0-4,0l-29.7,29.7a11.11,11.11,0,0,1-15.8,0l-7.9-7.9a11.11,11.11,0,0,1,0-15.8l29.7-29.7a2.84,2.84,0,0,0,0-4l-29.7-29.7a11.11,11.11,0,0,1,0-15.8l7.9-7.9a11.11,11.11,0,0,1,15.8,0l29.7,29.7a2.84,2.84,0,0,0,4,0l29.7-29.7A11.11,11.11,0,0,1,593.42,529.75Z"/><path class="cls-1" d="M672.92,303.55l-53.2-90a11.24,11.24,0,0,0-19.3,0l-53.2,90a11.2,11.2,0,0,0,9.6,16.9h33.6a2.86,2.86,0,0,1,2.8,2.8v19.6a67.22,67.22,0,0,1-67.2,67.2H358.12a100.76,100.76,0,0,0-100.8,100.8V522a2.88,2.88,0,0,1-2.1,2.7,72.72,72.72,0,0,0-53.5,78c3.5,33.5,30.6,60.8,64.1,64.6A72.73,72.73,0,0,0,293,524.75a2.79,2.79,0,0,1-2.1-2.7v-11.2a67.22,67.22,0,0,1,67.2-67.2h168a100.76,100.76,0,0,0,100.8-100.8v-19.6a2.86,2.86,0,0,1,2.8-2.8h33.6a11.2,11.2,0,0,0,9.6-16.9Zm-359.6,291.3a39.2,39.2,0,1,1-39.2-39.2A39.26,39.26,0,0,1,313.32,594.85Z"/><path class="cls-1" d="M369.42,283.35l7.9,7.9a11.11,11.11,0,0,1,0,15.8l-29.7,29.7a2.84,2.84,0,0,0,0,4l29.7,29.7a11.11,11.11,0,0,1,0,15.8l-7.9,7.9a11.11,11.11,0,0,1-15.8,0l-29.7-29.7a2.84,2.84,0,0,0-4,0l-29.7,29.7a11.11,11.11,0,0,1-15.8,0l-7.9-7.9a11.11,11.11,0,0,1,0-15.8l29.7-29.7a2.84,2.84,0,0,0,0-4l-29.7-29.7a11.11,11.11,0,0,1,0-15.8l7.9-7.9a11.11,11.11,0,0,1,15.8,0l29.7,29.7a2.84,2.84,0,0,0,4,0l29.7-29.7A11.11,11.11,0,0,1,369.42,283.35Z"/></g></g></svg>