<svg xmlns="http://www.w3.org/2000/svg" viewBox="0 0 875.8 875.8"><defs><style>.cls-1{fill:#4858e8;}</style></defs><g id="Layer_2" data-name="Layer 2"><g id="Layer_1-2" data-name="Layer 1"><path class="cls-1" d="M437.9,875.8A438,438,0,0,1,267.45,34.42a438,438,0,0,1,340.9,807A435.1,435.1,0,0,1,437.9,875.8Zm0-849.8C210.78,26,26,210.78,26,437.9S210.78,849.8,437.9,849.8,849.8,665,849.8,437.9,665,26,437.9,26Z"/><path class="cls-1" d="M300.6,282.43a13.27,13.27,0,0,0-18.79,0,141.74,141.74,0,0,0,0,200.48,13.29,13.29,0,1,0,18.79-18.8,115.12,115.12,0,0,1,0-162.85,13.31,13.31,0,0,0,0-18.83Z"/><path class="cls-1" d="M684,609,558.69,483.68c44.44-77.75,33.71-178.73-32.62-245a203.66,203.66,0,0,0-288,0C158.6,318,158.6,447.27,238,526.7a203.26,203.26,0,0,0,245.1,32.68l125.21,125.2a43.85,43.85,0,0,0,62,0L684,671a43.86,43.86,0,0,0,0-62ZM256.8,507.9c-69-69.07-69-181.42,0-250.48a177.06,177.06,0,0,1,250.46,0c69.06,69,69.06,181.39,0,250.48a177.08,177.08,0,0,1-250.48,0ZM665.16,652.19l-13.6,13.6a17.26,17.26,0,0,1-24.41,0L505.68,544.32a206.69,206.69,0,0,0,20.41-17.61,203.14,203.14,0,0,0,17.6-20.4L665.16,627.78a17.26,17.26,0,0,1,0,24.41Z"/></g></g></svg>