<svg xmlns="http://www.w3.org/2000/svg" viewBox="0 0 875.8 875.8"><defs><style>.cls-1{fill:#4858e8;}</style></defs><g id="Layer_2" data-name="Layer 2"><g id="Layer_1-2" data-name="Layer 1"><path class="cls-1" d="M437.9,875.8A438,438,0,0,1,267.45,34.42a438,438,0,0,1,340.9,807A435.1,435.1,0,0,1,437.9,875.8Zm0-849.8C210.78,26,26,210.78,26,437.9S210.78,849.8,437.9,849.8,849.8,665,849.8,437.9,665,26,437.9,26Z"/><path class="cls-1" d="M331.15,316.15h-48.7a8.28,8.28,0,0,0-8.3,8.3v48.7a8.28,8.28,0,0,0,8.3,8.3h48.7a8.28,8.28,0,0,0,8.3-8.3v-48.7A8.28,8.28,0,0,0,331.15,316.15Zm-8.3,48.7h-32.1v-32.1h32.1Zm53.9-40.4a8.28,8.28,0,0,1,8.3-8.3h123.8a8.3,8.3,0,0,1,0,16.6H385.05a8.28,8.28,0,0,1-8.3-8.3Zm0,48.7a8.28,8.28,0,0,1,8.3-8.3h123.8a8.3,8.3,0,0,1,0,16.6H385.05a8.28,8.28,0,0,1-8.3-8.3Zm-45.6,53.9h-48.7a8.28,8.28,0,0,0-8.3,8.3v48.7a8.28,8.28,0,0,0,8.3,8.3h48.7a8.28,8.28,0,0,0,8.3-8.3v-48.7A8.28,8.28,0,0,0,331.15,427.05Zm-8.3,48.6h-32.1v-32.1h32.1Zm53.9-40.4a8.28,8.28,0,0,1,8.3-8.3h123.8a8.3,8.3,0,0,1,0,16.6H385.05a8.28,8.28,0,0,1-8.3-8.3Zm0,48.7a8.28,8.28,0,0,1,8.3-8.3h123.8a8.3,8.3,0,0,1,0,16.6H385.05a8.28,8.28,0,0,1-8.3-8.3Zm-45.6,53.9h-48.7a8.28,8.28,0,0,0-8.3,8.3v48.7a8.28,8.28,0,0,0,8.3,8.3h48.7a8.28,8.28,0,0,0,8.3-8.3v-48.7a8.28,8.28,0,0,0-8.3-8.3Zm-8.3,48.7h-32.1v-32.1h32.1Zm142.5-40.4a8.28,8.28,0,0,1-8.3,8.3h-72a8.3,8.3,0,1,1,0-16.6h72A8.28,8.28,0,0,1,465.35,546.15Zm0,48.7a8.28,8.28,0,0,1-8.3,8.3h-72a8.3,8.3,0,1,1,0-16.6h72A8.28,8.28,0,0,1,465.35,594.85Zm160.2-19.1a8.24,8.24,0,0,1,.1,11.7l-56.4,57a8.78,8.78,0,0,1-5.9,2.5h0a8.67,8.67,0,0,1-5.9-2.4l-31.4-31.4a8.27,8.27,0,1,1,11.7-11.7l25.5,25.5,50.6-51.1a8.15,8.15,0,0,1,11.7-.1Zm-41.4-58.2v-262a29,29,0,0,0-29-29h-71.5V208a8.28,8.28,0,0,0-8.3-8.3h-39.5a43.56,43.56,0,0,0-80.5,0h-39.5a8.28,8.28,0,0,0-8.3,8.3v18.6h-71.5a29,29,0,0,0-29,29v381.2a29,29,0,0,0,29,29h265.3a93,93,0,0,0,167.4-55.7c.1-48.4-37.2-88.3-84.6-92.5Zm-260-301.3h37.2a8.35,8.35,0,0,0,8.1-6.3,27,27,0,0,1,52.4,0,8.26,8.26,0,0,0,8.1,6.3h37.2v37.3H324.25Zm-88,432.9a12.4,12.4,0,0,1-12.4-12.4V255.55a12.4,12.4,0,0,1,12.4-12.4h71.5v18.6a8.28,8.28,0,0,0,8.3,8.3h159.5a8.28,8.28,0,0,0,8.3-8.3v-18.6h71.5a12.4,12.4,0,0,1,12.4,12.4v262a93,93,0,0,0-76.1,131.7l-255.4-.1Zm339.7,37.3a76.4,76.4,0,1,1,76.4-76.4,76.52,76.52,0,0,1-76.4,76.4Z"/></g></g></svg>