<svg xmlns="http://www.w3.org/2000/svg" viewBox="0 0 875.8 875.8"><defs><style>.cls-1{fill:#4858e8;}</style></defs><g id="Layer_2" data-name="Layer 2"><g id="Layer_1-2" data-name="Layer 1"><path class="cls-1" d="M437.9,875.8A438,438,0,0,1,267.45,34.42a438,438,0,0,1,340.9,807A435.1,435.1,0,0,1,437.9,875.8Zm0-849.8C210.78,26,26,210.78,26,437.9S210.78,849.8,437.9,849.8,849.8,665,849.8,437.9,665,26,437.9,26Z"/><path class="cls-1" d="M220.52,682.81h190A27.42,27.42,0,0,0,438,655.37V555.15a27.22,27.22,0,0,0-7.1-18.29A26.81,26.81,0,0,0,413.4,528V503.17a98,98,0,0,0-196,0V528a27.4,27.4,0,0,0-24.54,27.15V655.37a27.44,27.44,0,0,0,8,19.41,28.41,28.41,0,0,0,19.59,8ZM234,503.17a81.7,81.7,0,0,1,163.39,0v24.55H381V503.17a65.32,65.32,0,0,0-130.64,0v24.55H234.05V503.17Zm32.66,24.55V503.17a49,49,0,0,1,98.07,0v24.55Zm-57.2,27.43a11.06,11.06,0,0,1,11.1-11.1h190a11.07,11.07,0,0,1,11.11,11.1V655.37a11.08,11.08,0,0,1-11.11,11.11h-190a11.07,11.07,0,0,1-11.1-11.11Zm98,69v17.82h16.33V624.11a24.79,24.79,0,0,0,15.3-16,24.5,24.5,0,0,0-43.11-21.74,24.74,24.74,0,0,0-3.73,21.74,24.26,24.26,0,0,0,15.21,16ZM315.61,593a8.22,8.22,0,0,1,7.56,5,8.14,8.14,0,0,1-10.64,10.63,8.12,8.12,0,0,1-5-7.55A8,8,0,0,1,315.61,593ZM291.07,388.86H274.74V233.77A40.78,40.78,0,0,1,315.52,193h326.6a40.78,40.78,0,0,1,40.78,40.78V560.38a40.78,40.78,0,0,1-40.78,40.78H454.37V584.83H642.21a24.74,24.74,0,0,0,17.36-7.19,24.17,24.17,0,0,0,7.19-17.36V233.68a24.78,24.78,0,0,0-7.19-17.36,24.29,24.29,0,0,0-17.36-7.09H315.61a24.74,24.74,0,0,0-17.36,7.19,24.2,24.2,0,0,0-7.18,17.35Zm40.87-163.3v16.33H315.61V225.56Zm32.66,0v16.33H348.27V225.56Zm32.66,0v16.33H380.93V225.56Zm-81.65,32.66h326.6v16.33H315.61ZM552.35,429.73a73.59,73.59,0,1,0-21.55,52A73.44,73.44,0,0,0,552.35,429.73Zm-130.64,0a57.17,57.17,0,1,1,16.7,40.32A57.56,57.56,0,0,1,421.71,429.73Zm24.54,122.43V530.61c-3.92-1.31-7.84-2.8-11.57-4.48l6.81-14.84h0a86.39,86.39,0,0,0,15,5.32,8.2,8.2,0,0,1,6.06,7.93v19.51h32.66V524.54a8.29,8.29,0,0,1,6.07-7.93A95.11,95.11,0,0,0,524.54,507a8.18,8.18,0,0,1,9.89,1.31l13.82,13.81,23-23.05-13.81-13.91a8.19,8.19,0,0,1-1.3-9.89A94.06,94.06,0,0,0,565.79,452a8.1,8.1,0,0,1,7.93-6.07h19.5V413.31h-19.5a8.29,8.29,0,0,1-7.93-6.06A95.57,95.57,0,0,0,556.18,384a8.19,8.19,0,0,1,1.3-9.89l13.81-13.81-23.14-23.05-13.72,13.81a8.21,8.21,0,0,1-9.89,1.31,94.08,94.08,0,0,0-23.23-9.62,8.09,8.09,0,0,1-6.07-7.93v-19.5H462.58v19.5a8.27,8.27,0,0,1-6.06,7.93,95.6,95.6,0,0,0-23.24,9.62,8.21,8.21,0,0,1-9.89-1.31l-13.81-13.81L386.44,360.4l13.81,13.81a8.19,8.19,0,0,1,1.3,9.89,94.13,94.13,0,0,0-9.61,23.24A8.09,8.09,0,0,1,384,413.4H372.72V397.07h5.22a120.52,120.52,0,0,1,6.44-15.58l-15.3-15.3a8.23,8.23,0,0,1,0-11.57L403.7,320a8.21,8.21,0,0,1,11.57,0l15.3,15.21a118.69,118.69,0,0,1,15.59-6.44V307.21a8.22,8.22,0,0,1,8.21-8.21h49a8.28,8.28,0,0,1,8.21,8.21v21.56a118.69,118.69,0,0,1,15.59,6.44l15.3-15.31a8.23,8.23,0,0,1,11.57,0l34.62,34.62a8.23,8.23,0,0,1,0,11.57l-15.3,15.31A119.94,119.94,0,0,1,579.79,397h21.55a8.28,8.28,0,0,1,8.21,8.21v49a8.28,8.28,0,0,1-8.21,8.22H579.79A120.52,120.52,0,0,1,573.35,478l15.3,15.3a8.23,8.23,0,0,1,0,11.57L554,539.47a8.21,8.21,0,0,1-11.57,0l-15.3-15.3a118.69,118.69,0,0,1-15.59,6.44v21.55a8.28,8.28,0,0,1-8.21,8.22h-49a8.21,8.21,0,0,1-8.12-8.22Zm65.32-122.43A32.81,32.81,0,1,0,502,452.88,33,33,0,0,0,511.57,429.73Zm-49,0a16.25,16.25,0,0,1,16.33-16.33,16.34,16.34,0,1,1-11.57,27.91A16.39,16.39,0,0,1,462.58,429.73Z"/></g></g></svg>