<svg xmlns="http://www.w3.org/2000/svg" viewBox="0 0 875.8 875.8"><defs><style>.cls-1{fill:#4858e8;}</style></defs><g id="Layer_2" data-name="Layer 2"><g id="Layer_1-2" data-name="Layer 1"><path class="cls-1" d="M437.9,875.8A438,438,0,0,1,267.45,34.42a438,438,0,0,1,340.9,807A435.1,435.1,0,0,1,437.9,875.8Zm0-849.8C210.78,26,26,210.78,26,437.9S210.78,849.8,437.9,849.8,849.8,665,849.8,437.9,665,26,437.9,26Z"/><path class="cls-1" d="M431.75,252.05c-75.8,0-137.6,61.8-137.6,137.5s61.8,137.6,137.6,137.6a135.77,135.77,0,0,0,39.5-5.8l12.6-3.8-7.5-25.1-12.6,3.8a111.18,111.18,0,1,1,48.5-29.7l-9.1,9.5,19,18.2,9.1-9.5a137.33,137.33,0,0,0,38.1-95c-.1-75.9-61.8-137.7-137.6-137.7Z"/><path class="cls-1" d="M311.35,416.25v26.3h240.7v-26.3Z"/><path class="cls-1" d="M311.35,336.75v26.3h240.7v-26.3Z"/><path class="cls-1" d="M231.85,413.45v29.1h26.3v-29.1Z"/><path class="cls-1" d="M231.85,284.45v112.2h26.3V284.45Z"/><path class="cls-1" d="M568.45,251l-50.1,50.1-9.3,9.3,18.6,18.6,9.3-9.3,40.9-40.9,9.3-9.3L568.45,251Z"/><path class="cls-1" d="M601.25,200.15a39.1,39.1,0,1,0,39.1,39.1A39.35,39.35,0,0,0,601.25,200.15Zm0,26.2a12.9,12.9,0,1,1-12.8,12.9A12.68,12.68,0,0,1,601.25,226.35Z"/><path class="cls-1" d="M348.15,471.25l-9.3,9.3-60.5,60.5-9.3,9.3,18.6,18.6,9.3-9.3,60.5-60.5,9.3-9.3-18.6-18.6Z"/><path class="cls-1" d="M277.05,220.65l-18.6,18.6,9.3,9.3,60.5,60.5,9.3,9.3,18.6-18.6-9.3-9.3L286.35,230Z"/><path class="cls-1" d="M458.35,269.25V510h26.3V269.25Z"/><path class="cls-1" d="M378.85,269.25V510h26.2V269.25Z"/><path class="cls-1" d="M554.55,503.15a74.6,74.6,0,1,0,74.6,74.6A74.79,74.79,0,0,0,554.55,503.15Zm0,26.2a48.4,48.4,0,1,1-48.4,48.4A48.18,48.18,0,0,1,554.55,529.35Z"/><path class="cls-1" d="M458.35,483.75v49l36.8,21.8,11.3,6.7,13.4-22.6-11.3-6.7-24-14.2v-34Z"/><path class="cls-1" d="M633.35,483.75v34l-23.9,14.1-11.3,6.7,13.3,22.6,11.3-6.7,36.9-21.8v-49Z"/><path class="cls-1" d="M506.45,598.15l-11.3,6.7-36.8,21.8v49h26.3v-34l23.9-14.1,11.3-6.7-13.4-22.7Z"/><path class="cls-1" d="M611.45,598.15l-13.3,22.6,11.3,6.7,23.9,14.1v34h26.3v-49l-36.9-21.8-11.3-6.6Z"/><path class="cls-1" d="M615.25,566.55v26.2h44.3v-26.3h-44.3Z"/><path class="cls-1" d="M448.75,566.55v26.2h57.5v-26.3h-57.5Z"/><path class="cls-1" d="M260.15,537.15a44,44,0,1,0,44,44A44.26,44.26,0,0,0,260.15,537.15Zm0,26.3a17.7,17.7,0,1,1-17.7,17.7A17.54,17.54,0,0,1,260.15,563.45Z"/></g></g></svg>