<svg xmlns="http://www.w3.org/2000/svg" viewBox="0 0 875.8 875.8"><defs><style>.cls-1{fill:#4858e8;}</style></defs><g id="Layer_2" data-name="Layer 2"><g id="Layer_1-2" data-name="Layer 1"><path class="cls-1" d="M437.9,875.8A438,438,0,0,1,267.45,34.42a438,438,0,0,1,340.9,807A435.1,435.1,0,0,1,437.9,875.8Zm0-849.8C210.78,26,26,210.78,26,437.9S210.78,849.8,437.9,849.8,849.8,665,849.8,437.9,665,26,437.9,26Z"/><path class="cls-1" d="M659.15,437.91A221.32,221.32,0,1,0,629.5,548.55,221.29,221.29,0,0,0,659.15,437.91ZM601.78,550.77a251.41,251.41,0,0,0-46-21.31,433.49,433.49,0,0,0,9.67-83.35h72.2a8.22,8.22,0,0,0,4.92-1.8,203.37,203.37,0,0,1-37.12,111.22,8.22,8.22,0,0,0-3.69-4.76ZM497.28,634a199.76,199.76,0,0,1-51.22,8.85V526.19a342.17,342.17,0,0,1,90.89,14,317.35,317.35,0,0,1-39.42,93Zm-119.08-.74a317.49,317.49,0,0,1-39.43-93,342.24,342.24,0,0,1,90.9-14V642.81a200,200,0,0,1-51.23-8.2ZM270.26,555.53A203.29,203.29,0,0,1,233,446.11h77a433.58,433.58,0,0,0,9.5,83.36,250.66,250.66,0,0,0-45.57,21.3,8.16,8.16,0,0,0-3.68,4.76Zm3.68-230.47a250.74,250.74,0,0,0,46,21.31,433.58,433.58,0,0,0-9.67,83.35H233a203.38,203.38,0,0,1,37-109.41,8.16,8.16,0,0,0,3.93,4.75Zm104.5-83.19A200.27,200.27,0,0,1,429.66,233V349.4a342.17,342.17,0,0,1-90.89-14,317.54,317.54,0,0,1,39.42-92.78,6.44,6.44,0,0,1,.25-.74Zm119.09.74a317.58,317.58,0,0,1,39.42,93,342.58,342.58,0,0,1-90.89,14V233a200.39,200.39,0,0,1,51.22,8.2Zm107.94,77.7a203.4,203.4,0,0,1,37.29,111.22,8.19,8.19,0,0,0-4.92-1.81H565.47A433.49,433.49,0,0,0,556,346.37a250.63,250.63,0,0,0,45.82-21.31,8.23,8.23,0,0,0,3.69-4.75ZM549.32,429.72H446.06V365.79a363.45,363.45,0,0,0,94.5-14.26,420.27,420.27,0,0,1,8.77,78.19ZM429.67,365.79v63.93H326.4a419.42,419.42,0,0,1,8.77-78.19,363.38,363.38,0,0,0,94.5,14.26ZM326.4,446.11H429.67V510a363.38,363.38,0,0,0-94.5,14.26,418.59,418.59,0,0,1-8.77-78.19ZM446.06,510V446.11H549.32a418.59,418.59,0,0,1-8.77,78.19A363.32,363.32,0,0,0,446.05,510ZM597.76,310a8.13,8.13,0,0,0-4.34,1.06,239.61,239.61,0,0,1-41,19.34,340.38,340.38,0,0,0-31.06-79.5A204.87,204.87,0,0,1,597.76,310Zm-243.34-59.1a340.32,340.32,0,0,0-31.31,79.5,239.16,239.16,0,0,1-41-19.34,8.19,8.19,0,0,0-4.35-1.06,204.93,204.93,0,0,1,76.63-59.1ZM278,565.84a8.13,8.13,0,0,0,4.34-1.06,239.61,239.61,0,0,1,41-19.34,339.94,339.94,0,0,0,31.06,79.5A204.72,204.72,0,0,1,278,565.84Zm243.33,59.09h0a339.88,339.88,0,0,0,31.31-79.5,239.61,239.61,0,0,1,41,19.34,8.28,8.28,0,0,0,4.26,1.15,205.65,205.65,0,0,1-76.55,59Z"/><path class="cls-1" d="M308.54,655.92c-41.47,15.33-73,15.33-88.44,0-17.21-17.21-15.57-52.94,4.68-100.73a8.2,8.2,0,0,0-15.09-6.39c-23.36,54.83-23.76,95.9-1.31,118.59a63,63,0,0,0,46.23,16.39,176,176,0,0,0,59.58-12.53,8.2,8.2,0,1,0-5.74-15.33Z"/><path class="cls-1" d="M561.45,204.58a8.2,8.2,0,1,0,5.74,15.33c41.47-15.33,72.94-15.25,88.44,0,17.21,17.21,15.57,52.94-4.68,100.73a8.2,8.2,0,0,0,4.35,10.73,7.45,7.45,0,0,0,3.19.66,8.24,8.24,0,0,0,7.55-5c23.35-54.83,23.76-95.9,1.31-118.59C646.61,188,610,186.55,561.46,204.58Z"/><path class="cls-1" d="M320.83,224.82a8.19,8.19,0,0,0,6.39-15.08c-55.08-23.36-96.14-23.77-118.85-1.31-20.49,20.74-21.88,57.37-3.85,105.89a8.18,8.18,0,1,0,15.33-5.74c-15.33-41.46-15.24-72.94,0-88.43,17.45-17.21,53.19-15.57,101,4.67Z"/><path class="cls-1" d="M655.3,544.46A8.18,8.18,0,0,0,651,555c20.24,47.78,21.88,83.52,4.67,100.73S602.69,671.25,554.9,651a8.19,8.19,0,0,0-6.39,15.08,192,192,0,0,0,72.61,17.7,63,63,0,0,0,46.23-16.39c22.53-22.62,22.13-63.68-1.23-118.76a8.21,8.21,0,0,0-10.82-4.18Z"/></g></g></svg>