<svg viewBox="0 0 64 64" fill="none" xmlns="http://www.w3.org/2000/svg">
<path d="M27.3836 32L4.16874 5.12515C3.77961 4.67853 4.10683 4 4.70821 4H11.7655C12.1812 4 12.5791 4.18037 12.8533 4.48957L32 26.6577L51.1467 4.48957C51.412 4.18037 51.81 4 52.2345 4H59.2918C59.8932 4 60.2204 4.67853 59.8313 5.12515L36.6164 32L59.8313 58.8748C59.9184 58.9744 59.9743 59.0961 59.9924 59.2256C60.0104 59.3551 59.9898 59.4869 59.933 59.6054C59.8762 59.7239 59.7856 59.824 59.6719 59.894C59.5583 59.9639 59.4263 60.0007 59.2918 60H52.2345C51.8188 60 51.4209 59.8196 51.1467 59.5104L32 37.3423L12.8533 59.5104C12.588 59.8196 12.19 60 11.7655 60H4.70821C4.10683 60 3.77961 59.3215 4.16874 58.8748L27.3836 32Z" />
</svg>
