<svg viewBox="0 0 64 64" fill="none" xmlns="http://www.w3.org/2000/svg">
<path d="M53.8644 26.775C54.2546 23.8966 54.8198 13.6246 43.9534 9.36325C32.4337 4.84284 24.8818 12.8226 23.0351 15.0874C21.4225 14.4253 17.1185 13.2334 12.7692 17.0826C8.54445 20.8311 9.01275 25.2887 9.42817 27.0825C7.8181 27.963 4 30.5509 4 35.2336C4 40.7025 8.21589 44.523 14.2533 44.523H21.2274C22.8903 48.9453 25.6787 53.289 30.3503 55.6205C30.8642 55.8728 31.426 56.0025 31.9943 56H32.012C32.578 56.0007 33.1371 55.8702 33.6485 55.6179C38.315 53.2917 41.1034 48.9453 42.7663 44.523H49.7467C55.9755 44.523 60 40.8779 60 35.2336C60.0025 30.0891 55.5991 27.5665 53.8644 26.775ZM31.1509 54.0544C31.1283 54.0427 31.1031 54.0374 31.0804 54.027C25.9682 51.4783 23.3297 46.1689 21.9575 41.2534H31.1471L31.1509 54.0544ZM31.1509 39.4884H21.5081C21.0192 37.3086 20.6984 35.0917 20.5489 32.8589C20.5124 32.2714 20.7113 31.9286 21.25 31.6434C22.1992 31.1489 25.4571 29.6233 30.9331 27.1086C30.9873 27.0838 31.0792 27.0511 31.1484 27.0197V39.4884H31.1509ZM32.9234 54.027C32.8995 54.0374 32.873 54.0413 32.8478 54.0544V41.2508H42.0375C40.6691 46.1663 38.0305 51.4756 32.9234 54.0243V54.027ZM32.8478 39.4884V27.0157C32.9221 27.0458 33.009 27.0811 33.0707 27.1086C35.3366 28.1553 41.3552 30.9147 42.7462 31.6421C43.2913 31.9286 43.4889 32.2701 43.4499 32.8537C43.3013 35.0875 42.9801 37.3054 42.4894 39.4858L32.8478 39.4884ZM49.7479 42.7593H43.3744C44.5703 38.9363 44.997 35.2532 45.1481 32.9714C45.2286 31.6787 44.6659 30.6739 43.5116 30.0668C42.2288 29.3983 37.3294 27.1387 33.7567 25.4876C33.1861 25.1985 32.5622 25.0405 31.9276 25.0244C31.2504 25.0244 30.6184 25.3135 30.2445 25.4876C24.6666 28.0467 21.4754 29.5435 20.4847 30.0668C19.3366 30.6713 18.7726 31.6761 18.8482 32.9727C18.9967 35.2519 19.4235 38.9349 20.6194 42.7567H14.2533C9.99213 42.7567 5.69316 40.4304 5.69316 35.2323C5.69316 30.615 10.716 28.3856 10.7651 28.3633L11.5367 28.0232L11.2258 27.2159C11.1503 27.021 9.42062 22.3632 13.8694 18.425C18.3308 14.4685 22.6927 16.8445 22.8828 16.9478L23.5462 17.3168L23.9792 16.6822C24.0497 16.5789 31.3032 6.27943 43.3542 11.0131C54.5681 15.4131 52.1914 26.652 52.0881 27.1269L51.9119 27.912L52.642 28.1736C52.6962 28.1933 58.3069 30.2278 58.3069 35.2388C58.3043 39.9437 55.1094 42.758 49.7479 42.758V42.7593Z"/>
</svg>
