<svg xmlns="http://www.w3.org/2000/svg" viewBox="0 0 503.44 359.52"><defs><style>.cls-1{fill:#4858e8;}</style></defs><g id="Layer_2" data-name="Layer 2"><g id="Layer_1-2" data-name="Layer 1"><path class="cls-1" d="M391.44,90.16C366.8,34.72,312.48,0,252,0A152.51,152.51,0,0,0,112.56,90.16,116.71,116.71,0,0,0,0,206.64c0,64.4,52.64,117,117,117H135a9,9,0,0,0,0-17.92H117c-54.32,0-99.12-44.24-99.12-99.12,0-54.32,44.24-99.12,100.24-99.12a100.32,100.32,0,0,1,75,35.84,8.78,8.78,0,0,0,6.72,3.36,7.19,7.19,0,0,0,5.6-2.24,9,9,0,0,0,1.12-12.88,117.75,117.75,0,0,0-75-41.44c23-44.8,68.88-72.8,119.84-72.8,55.44,0,104.16,33,125.44,84.56,1.12,3.35,6.16,5.6,9.52,5.6,54.32,0,99.12,44.23,99.12,99.12a98.94,98.94,0,0,1-99.12,99.12H368.48a9,9,0,0,0,0,17.92H386.4c64.4,0,117-52.64,117-117C504,144.48,454.72,93,391.44,90.16Z"/><path class="cls-1" d="M314.72,258.72c-1.12-33.6-28.56-61-62.72-61a62.64,62.64,0,0,0-62.72,61,27.11,27.11,0,0,0-9,20.16v53.76a26.89,26.89,0,0,0,26.88,26.88h89.6a26.89,26.89,0,0,0,26.88-26.88V278.88c.56-8.4-3.36-15.12-9-20.16ZM252,215.6c21.84,0,39.76,15.68,44.24,35.84H207.76c4.48-20.16,22.4-35.84,44.24-35.84Zm53.76,117a8.85,8.85,0,0,1-9,9H207.2a8.85,8.85,0,0,1-9-9V278.88a8.85,8.85,0,0,1,9-9h89.6a8.85,8.85,0,0,1,9,9Z"/></g></g></svg>