<svg xmlns="http://www.w3.org/2000/svg" viewBox="0 0 875.8 875.8"><defs><style>.cls-1{fill:#4858e8;}</style></defs><g id="Layer_2" data-name="Layer 2"><g id="Layer_1-2" data-name="Layer 1"><path class="cls-1" d="M437.9,875.8A438,438,0,0,1,267.45,34.42a438,438,0,0,1,340.9,807A435.1,435.1,0,0,1,437.9,875.8Zm0-849.8C210.78,26,26,210.78,26,437.9S210.78,849.8,437.9,849.8,849.8,665,849.8,437.9,665,26,437.9,26Z"/><path class="cls-1" d="M631.9,482.88H609.79a5.82,5.82,0,0,1-4.56-2.1,5.93,5.93,0,0,1-1.41-4.8,444.4,444.4,0,0,0-1.64-139.22,477,477,0,0,1-164-40.59,473.91,473.91,0,0,1-164,40.36,429.34,429.34,0,0,0-2,139.45,5.89,5.89,0,0,1-1.4,4.8,6.24,6.24,0,0,1-4.56,2.1H253a101.32,101.32,0,1,1,.46-202.63h.71a84.71,84.71,0,0,1,84-73.47h.35a82.59,82.59,0,0,1,35.09,7.84,98.39,98.39,0,0,1,90.79-60.48h.35a98.68,98.68,0,0,1,86.69,52.76,84.9,84.9,0,0,1,79,84.7c0,2.58-.12,5-.35,7.61h2.22a91.84,91.84,0,0,1-.35,183.67ZM616.57,471h15.21a80,80,0,0,0,57-136.18,79.25,79.25,0,0,0-56.39-23.63q-4.22,0-8.42.35a5.88,5.88,0,0,1-5-1.87,6,6,0,0,1-1.52-5.15,67.43,67.43,0,0,0,1.17-12.87,72.47,72.47,0,0,0-20.7-50.89,73.56,73.56,0,0,0-50.31-22.11,6,6,0,0,1-5.26-3.39,86.56,86.56,0,0,0-77.45-49.14h-.35a86.09,86.09,0,0,0-81.9,58.85,5.94,5.94,0,0,1-3.51,3.62,5.86,5.86,0,0,1-5-.46,70.75,70.75,0,0,0-35.33-9.48h-.35a72.86,72.86,0,0,0-72.65,68.21,5.92,5.92,0,0,1-2.11,4.21,6.15,6.15,0,0,1-4.44,1.4,44.08,44.08,0,0,0-5.5-.23A89.38,89.38,0,1,0,253.2,471h6.32a455,455,0,0,1,2.69-136.29,12.11,12.11,0,0,1,11.58-10A457.65,457.65,0,0,0,433,285.4a11.91,11.91,0,0,1,10.17,0,457,457,0,0,0,159.23,39.31,12.22,12.22,0,0,1,11.58,10A458.51,458.51,0,0,1,616.57,471Z"/><path class="cls-1" d="M438.05,721.66a12.76,12.76,0,0,1-5.5-1.28c-121-59.9-160.28-165-172-242.64a451.52,451.52,0,0,1,1.76-143.08,12.1,12.1,0,0,1,11.58-10A457.6,457.6,0,0,0,433.13,285.4a11.93,11.93,0,0,1,10.18,0,457,457,0,0,0,159.23,39.31,12.23,12.23,0,0,1,11.58,10,459.06,459.06,0,0,1,1.75,143.19c-11.7,77.57-51.12,182.63-172,242.53a16.25,16.25,0,0,1-5.85,1.28Zm.11-425.49h0a473.91,473.91,0,0,1-164,40.36,429.06,429.06,0,0,0-2,139.45c11.35,74.76,49.14,176.07,165.55,233.63h0c.23.12.35,0,.58,0C554.57,652.05,592.47,550.74,603.82,476a444.4,444.4,0,0,0-1.64-139.22,474.33,474.33,0,0,1-164-40.59Z"/><path class="cls-1" d="M438.05,685.86a5,5,0,0,1-2.93-.82C282.92,598.59,283.62,429.54,291,360.86a5.84,5.84,0,0,1,5.26-5.26,539.7,539.7,0,0,0,139.69-36.5,6.09,6.09,0,0,1,4.56,0,538.94,538.94,0,0,0,139.57,36.5,6,6,0,0,1,5.27,5.26c7.37,68.68,7.95,237.73-144.25,324.18h0a7.4,7.4,0,0,1-3,.82Zm-135.83-319c-6.55,68.67-4,224.62,135.83,306.16,139.8-81.54,142.26-237.49,135.71-306.16A551,551,0,0,1,438.05,331a550.65,550.65,0,0,1-135.83,35.8Z"/><path class="cls-1" d="M466,557.52h0l-57.21-.35a5.92,5.92,0,0,1-4.68-2.34,5.56,5.56,0,0,1-1.05-5l11.69-48.2a32.89,32.89,0,0,1-15-28.54A38.31,38.31,0,1,1,461.68,503l10.18,47.26h0a5.95,5.95,0,0,1-5.85,7.25ZM416.4,545.24l42.24.23-9.48-44a5.91,5.91,0,0,1,2.69-6.31,26.32,26.32,0,1,0-40.13-22.35,20.55,20.55,0,0,0,2.93,11.7,19.79,19.79,0,0,0,9,8,6.05,6.05,0,0,1,3.74,7Z"/></g></g></svg>