<svg xmlns="http://www.w3.org/2000/svg" viewBox="0 0 875.8 875.8"><defs><style>.cls-1{fill:#4858e8;}</style></defs><g id="Layer_2" data-name="Layer 2"><g id="Layer_1-2" data-name="Layer 1"><path class="cls-1" d="M437.9,875.8A438,438,0,0,1,267.45,34.42a438,438,0,0,1,340.9,807A435.1,435.1,0,0,1,437.9,875.8Zm0-849.8C210.78,26,26,210.78,26,437.9S210.78,849.8,437.9,849.8,849.8,665,849.8,437.9,665,26,437.9,26Z"/><path class="cls-1" d="M627.83,253.42,541.3,166.61a7.45,7.45,0,0,0-5-2.06H270.76a24.91,24.91,0,0,0-24.86,24.91V686.34a24.91,24.91,0,0,0,24.86,24.91H605a24.91,24.91,0,0,0,24.87-24.91V258.64a7.27,7.27,0,0,0-2.07-5.22Zm-22-2.07H554.14a10.79,10.79,0,0,1-11-10.66V188.61ZM605,697.16H270.76A10.77,10.77,0,0,1,260,686.35V189.46a10.77,10.77,0,0,1,10.76-10.81h258.5v62a24.92,24.92,0,0,0,24.87,24.87H616V686.45a10.77,10.77,0,0,1-11,10.71Z"/><path class="cls-1" d="M374.87,395.26a93.67,93.67,0,1,0-66-27.47,93.37,93.37,0,0,0,66,27.47ZM296,308.92h71.87v71.91A79.38,79.38,0,0,1,296,308.92Zm86,71.91V314.09l57.76,33.37a79.25,79.25,0,0,1-57.76,33.37Zm-7.05-158.24a79.38,79.38,0,0,1,79.28,79.19,78.39,78.39,0,0,1-7.42,33.37L378.4,295.67a8,8,0,0,0-3.48-.94H296a79.38,79.38,0,0,1,78.92-72.14Z"/><path class="cls-1" d="M435.83,478.74a14.38,14.38,0,0,0-14.38,14.1v98.42a7,7,0,0,0,7.05,7h30.6a7.05,7.05,0,0,0,7-7V493.07A14.39,14.39,0,0,0,451.76,479ZM452,584.21H435.55l.24-91.37H452Z"/><path class="cls-1" d="M491.53,464.64a14.39,14.39,0,0,0-14.38,14.1V591.27a7.05,7.05,0,0,0,7.05,7.05h30.6a7.05,7.05,0,0,0,7.05-7.05V479a14.38,14.38,0,0,0-14.38-14.1Zm16.22,119.57H491.3V478.74h16.21Z"/><path class="cls-1" d="M563.16,450.54H547.22a14.39,14.39,0,0,0-14.38,14.1V591.26a7.05,7.05,0,0,0,7,7h30.6a7.05,7.05,0,0,0,7-7V464.87a14.38,14.38,0,0,0-14.38-14.33Zm.28,133.67H547l.23-119.57h16.22Z"/><path class="cls-1" d="M570.49,614.57h-142a7.05,7.05,0,0,0,0,14.1h142a7.05,7.05,0,1,0,0-14.1Z"/><path class="cls-1" d="M535.57,394l14.1.9C513.1,417.69,474.8,428,428.5,428a7.05,7.05,0,0,0,0,14.1c49,0,89.3-10.95,128.16-35.16l-4.37,12.32a7.05,7.05,0,1,0,13.3,4.7l11.52-32.52a7.05,7.05,0,0,0-6.2-9.4L536.6,379.9a7.06,7.06,0,0,0-.9,14.1Z"/><path class="cls-1" d="M384.75,614.57H290.28a7,7,0,0,0,0,14.1h94.47a7,7,0,1,0,0-14.1Z"/><path class="cls-1" d="M384.75,584.41H290.28a7.05,7.05,0,1,0,0,14.1h94.47a7.05,7.05,0,0,0,0-14.1Z"/><path class="cls-1" d="M361.24,554.23h-71a7,7,0,1,0,0,14.1h71a7,7,0,0,0,0-14.1Z"/><path class="cls-1" d="M361.24,524h-71a7,7,0,1,0,0,14.1h71a7,7,0,0,0,0-14.1Z"/></g></g></svg>