<svg xmlns="http://www.w3.org/2000/svg" viewBox="0 0 875.8 875.8"><defs><style>.cls-1{fill:#4858e8;}</style></defs><g id="Layer_2" data-name="Layer 2"><g id="Layer_1-2" data-name="Layer 1"><path class="cls-1" d="M437.9,875.8A438,438,0,0,1,267.45,34.42a438,438,0,0,1,340.9,807A435.1,435.1,0,0,1,437.9,875.8Zm0-849.8C210.78,26,26,210.78,26,437.9S210.78,849.8,437.9,849.8,849.8,665,849.8,437.9,665,26,437.9,26Z"/><path class="cls-1" d="M438.09,313.58a124.1,124.1,0,1,0,124.1,124.1A124.12,124.12,0,0,0,438.09,313.58Zm0,218.41a94.32,94.32,0,1,1,94.32-94.31A94.27,94.27,0,0,1,438.09,532Z"/><path class="cls-1" d="M468.85,401.42,424.17,446.1l-16.84-16.85A15.11,15.11,0,1,0,386,450.62l27.3,27.3a15,15,0,0,0,10.46,4.43,14.58,14.58,0,0,0,10.46-4.43l55.14-55.14c5.94-5.93,5.94-15.42,0-20.83a13.6,13.6,0,0,0-20.48-.53Z"/><path class="cls-1" d="M278.71,299.22H254.43a14.89,14.89,0,1,0,0,29.78h60.1a14.65,14.65,0,0,0,14.89-14.89V254a14.9,14.9,0,0,0-29.79,0V278.3l-72-72c-5.94-5.94-15.43-5.94-20.83,0-5.94,5.94-5.94,15.43,0,20.83Z"/><path class="cls-1" d="M669.45,648.11l-72-72h24.29a14.89,14.89,0,0,0,0-29.78h-60.1a14.65,14.65,0,0,0-14.89,14.89v60.1a14.89,14.89,0,0,0,29.78,0V597.05l72,72A15,15,0,0,0,659,673.46,14.57,14.57,0,0,0,669.45,669c5.93-6,5.93-15.42,0-20.92Z"/><path class="cls-1" d="M561.66,329.44h60.1a14.89,14.89,0,0,0,0-29.78H597.47l72-72.42c5.93-5.94,5.93-15.42,0-20.83-5.94-5.94-15.43-5.94-20.84,0l-72,72V254a14.9,14.9,0,0,0-29.79,0v60.1a14.63,14.63,0,0,0,14.81,15.33Z"/><path class="cls-1" d="M314.53,545.91h-60.1a14.89,14.89,0,1,0,0,29.78h24.28l-72,72.42a15.12,15.12,0,0,0,10.46,25.8,15.36,15.36,0,0,0,10.46-4.44l72-72v23.84a14.9,14.9,0,0,0,29.79,0v-60.1a14.75,14.75,0,0,0-14.89-15.33Z"/></g></g></svg>