<svg xmlns="http://www.w3.org/2000/svg" viewBox="0 0 397.08 414.6"><defs><style>.cls-1{fill:#4858e8;}</style></defs><g id="Layer_2" data-name="Layer 2"><g id="Layer_1-2" data-name="Layer 1"><path class="cls-1" d="M245.08,213.14a119.54,119.54,0,0,1-6.48,33.92c-.88,2.69-1.87,5.38-3,8-.53,1.23-1.05,2.45-1.63,3.68a120.58,120.58,0,0,1-23.3,33.87c-.41.47-.88.93-1.35,1.4a114.12,114.12,0,0,1-11.74,10.28,119.31,119.31,0,0,1-27.27,16,122.94,122.94,0,0,1-65.22,8.35c-3.92-.59-7.83-1.35-11.68-2.28a123.24,123.24,0,0,1-18.51-6.07,122.51,122.51,0,0,1-39-199.65,120.84,120.84,0,0,1,39-26.28,115.8,115.8,0,0,1,18.52-6.13A102.05,102.05,0,0,1,105.11,86a117.49,117.49,0,0,1,17.51-1.28,121.44,121.44,0,0,1,47.71,9.69,118.76,118.76,0,0,1,27.27,16,122.39,122.39,0,0,1,11.74,10.33c.41.41.88.88,1.29,1.34a120.58,120.58,0,0,1,23.3,33.87c.58,1.23,1.16,2.46,1.69,3.74,1.11,2.63,2.1,5.26,3,7.94a120,120,0,0,1,6.48,33.93c.12,1.93.17,3.92.17,5.84s-.06,3.91-.17,5.83Zm-14.42-11.69a106,106,0,0,0-7.42-33.92c-.3-.76-.58-1.58-.94-2.34-1.34-3.2-2.85-6.3-4.43-9.34a110.58,110.58,0,0,0-18.75-25,102.68,102.68,0,0,0-10-8.82c-1.11-.87-2.22-1.75-3.39-2.51a104.55,104.55,0,0,0-21-11.85,109.28,109.28,0,0,0-59.62-7.07,117.59,117.59,0,0,0-11.68,2.57,102.63,102.63,0,0,0-12.9,4.5A108.29,108.29,0,0,0,23,249.46,108.47,108.47,0,0,0,80.53,307a102.32,102.32,0,0,0,12.9,4.44A90,90,0,0,0,105.11,314a102.55,102.55,0,0,0,17.52,1.46,107.08,107.08,0,0,0,63.12-20.32c1.17-.82,2.34-1.63,3.45-2.57a107.37,107.37,0,0,0,9.92-8.76,110,110,0,0,0,18.75-25.11c1.63-3,3.09-6.13,4.44-9.28.35-.82.64-1.57.93-2.39a105.92,105.92,0,0,0,7.47-33.93c.06-1.93.12-3.92.12-5.84s-.06-3.92-.17-5.85Z"/><path class="cls-1" d="M245.08,213.14a119.54,119.54,0,0,1-6.48,33.92c-.88,2.69-1.87,5.38-3,8-.53,1.23-1.05,2.45-1.63,3.68a120.58,120.58,0,0,1-23.3,33.87c-.41.47-.88.93-1.35,1.4a114.12,114.12,0,0,1-11.74,10.28,119.31,119.31,0,0,1-27.27,16,122.94,122.94,0,0,1-65.22,8.35c-3.92-.59-7.83-1.35-11.68-2.28a123.24,123.24,0,0,1-18.51-6.07,122.51,122.51,0,0,1-39-199.65,120.84,120.84,0,0,1,39-26.28,115.8,115.8,0,0,1,18.52-6.13A102.05,102.05,0,0,1,105.11,86a117.49,117.49,0,0,1,17.51-1.28,121.44,121.44,0,0,1,47.71,9.69,118.76,118.76,0,0,1,27.27,16,122.39,122.39,0,0,1,11.74,10.33c.41.41.88.88,1.29,1.34a120.58,120.58,0,0,1,23.3,33.87c.58,1.23,1.16,2.46,1.69,3.74,1.11,2.63,2.1,5.26,3,7.94a120,120,0,0,1,6.48,33.93c.12,1.93.17,3.92.17,5.84s-.06,3.91-.17,5.83Zm-14.42-11.69a106,106,0,0,0-7.42-33.92c-.3-.76-.58-1.58-.94-2.34-1.34-3.2-2.85-6.3-4.43-9.34a110.58,110.58,0,0,0-18.75-25,102.68,102.68,0,0,0-10-8.82c-1.11-.87-2.22-1.75-3.39-2.51a104.55,104.55,0,0,0-21-11.85,109.28,109.28,0,0,0-59.62-7.07,117.59,117.59,0,0,0-11.68,2.57,102.63,102.63,0,0,0-12.9,4.5A108.29,108.29,0,0,0,23,249.46,108.47,108.47,0,0,0,80.53,307a102.32,102.32,0,0,0,12.9,4.44A90,90,0,0,0,105.11,314a102.55,102.55,0,0,0,17.52,1.46,107.08,107.08,0,0,0,63.12-20.32c1.17-.82,2.34-1.63,3.45-2.57a107.37,107.37,0,0,0,9.92-8.76,110,110,0,0,0,18.75-25.11c1.63-3,3.09-6.13,4.44-9.28.35-.82.64-1.57.93-2.39a105.92,105.92,0,0,0,7.47-33.93c.06-1.93.12-3.92.12-5.84s-.06-3.92-.17-5.85Z"/><path class="cls-1" d="M198.89,170l-93.48,93.49-59-59,18.86-18.86,40.18,40.17L180,151.12Z"/><path class="cls-1" d="M385.4,348,318.83,414.6H93.43V332.32c3.56.87,7.18,1.52,10.8,2.1.3.06.59.06.88.12v68.38H313.93l1.4-1.4V329.93H385.4V11.68H105.11V80.06c-.29,0-.58,0-.87.11a97.55,97.55,0,0,0-10.81,2V0H397.08V336.35ZM327,341.6v48.24l48.23-48.24Z"/><path class="cls-1" d="M304.75,304.29V292.62H218.63c-1.17,1.34-2.34,2.62-3.56,3.85-.47.58-1.06,1.11-1.58,1.69-2.16,2.16-4.38,4.21-6.6,6.13Z"/><path class="cls-1" d="M304.75,258.75V247.07h-60c-.18.58-.35,1.22-.58,1.81-.94,2.86-2,5.66-3.16,8.47-.23.46-.4.93-.64,1.4Z"/><path class="cls-1" d="M304.75,213.14V201.46H250.91c.12,1.93.18,3.91.18,5.84s-.06,4-.18,5.84Z"/><path class="cls-1" d="M304.75,167.53V155.85h-64.4a15.42,15.42,0,0,1,.64,1.46c1.17,2.8,2.22,5.54,3.1,8.29.23.64.41,1.28.64,1.93Z"/><path class="cls-1" d="M304.75,122V110.3h-98c2.28,2,4.5,4,6.65,6.19.53.53,1.11,1.05,1.41,1.4,1.28,1.35,2.57,2.69,3.79,4.09Z"/></g></g></svg>