<svg xmlns="http://www.w3.org/2000/svg" viewBox="0 0 875.8 875.8"><defs><style>.cls-1{fill:#4858e8;}</style></defs><g id="Layer_2" data-name="Layer 2"><g id="Layer_1-2" data-name="Layer 1"><path class="cls-1" d="M437.9,875.8A438,438,0,0,1,267.45,34.42a438,438,0,0,1,340.9,807A435.1,435.1,0,0,1,437.9,875.8Zm0-849.8C210.78,26,26,210.78,26,437.9S210.78,849.8,437.9,849.8,849.8,665,849.8,437.9,665,26,437.9,26Z"/><path class="cls-1" d="M245.92,507.73A32.91,32.91,0,0,0,233.38,571a31.21,31.21,0,0,0,12.54,2.39c4.19,0,9-.6,12.55-2.39,11.94-5.37,20.3-17.32,20.3-30.45A33.14,33.14,0,0,0,245.92,507.73Zm6,47.18a12.67,12.67,0,0,1-11.35,0c-5.37-2.39-9.56-7.77-9.56-13.74a14.93,14.93,0,0,1,29.86,0,15.1,15.1,0,0,1-9,13.74Z"/><path class="cls-1" d="M712.32,283.19l-43-31.05a9,9,0,0,0-10.75,14.33l20.3,14.93H512.27a40.95,40.95,0,0,0-80,0H331.92a71.66,71.66,0,0,0,0,143.32H432.25a40.94,40.94,0,0,0,80,0h125.4a53.75,53.75,0,1,1,0,107.49H512.27a40.94,40.94,0,0,0-80,0H331.92v-5.37a9.18,9.18,0,0,0-8.95-9H315.8l-3.58-8.95,4.78-4.78a8.66,8.66,0,0,0,0-12.54L296.09,470.7a8.66,8.66,0,0,0-12.54,0l-4.78,4.78-8.95-3.58v-7.17a9.18,9.18,0,0,0-9-9H231.6a9.18,9.18,0,0,0-9,9v7.17l-8.95,3.58-4.78-4.78a8.66,8.66,0,0,0-12.54,0L175.46,491a8.66,8.66,0,0,0,0,12.54l4.78,4.78c-1.19,3-3,6-3.58,8.95h-7.17a9.19,9.19,0,0,0-9,9V555.5a9.19,9.19,0,0,0,9,9h7.16q1.8,4.47,3.59,8.95l-4.78,4.78a8.68,8.68,0,0,0,0,12.55l20.91,20.9c3.58,3.58,9.55,3.58,12.54,0l4.78-4.78,8.95,3.59V617a9.18,9.18,0,0,0,9,9h29.26a9.18,9.18,0,0,0,8.95-9v-7.16l9-3.59,4.78,4.78a9,9,0,0,0,6.57,2.39,12.62,12.62,0,0,0,6.57-2.39l20.9-20.9a8.66,8.66,0,0,0,0-12.54l-4.78-4.78q1.8-4.49,3.58-9h7.17a9.17,9.17,0,0,0,8.95-9v-5.38h99.73a41,41,0,0,0,80,0h125.4a71.66,71.66,0,1,0,0-143.32H512.27a40.95,40.95,0,0,0-80,0H331.92a53.75,53.75,0,0,1,0-107.49H432.24a41,41,0,0,0,80,0H678.88l-20.31,14.93c-4.18,3-4.77,8.36-1.79,12.54a9.33,9.33,0,0,0,7.17,3.58,9.57,9.57,0,0,0,5.37-1.79l43-31.05a8.54,8.54,0,0,0,3.58-7.17c0-3-1.19-4.78-3.58-6.57ZM313.41,546.55h-4.78a9.5,9.5,0,0,0-9,7.16,45.77,45.77,0,0,1-7.16,16.72,9,9,0,0,0,1.19,11.35l3.58,3.58-7.76,7.77-3.58-3.59a9,9,0,0,0-11.35-1.19,83.15,83.15,0,0,1-16.72,7.16,9.52,9.52,0,0,0-7.17,9v4.78H239.36v-4.78a9.51,9.51,0,0,0-7.17-9,45.84,45.84,0,0,1-16.72-7.16,9,9,0,0,0-11.35,1.19l-3.58,3.59-7.76-7.77,4.77-4.18a9.05,9.05,0,0,0,1.2-11.35,82.62,82.62,0,0,1-7.17-16.72,9.5,9.5,0,0,0-9-7.16h-4.19V534.6h4.78a9.5,9.5,0,0,0,8.95-7.17,46,46,0,0,1,7.17-16.72,9,9,0,0,0-1.2-11.34l-3.58-3.59,7.76-7.76,3.59,3.58a9,9,0,0,0,11.34,1.2A82.71,82.71,0,0,1,234,485.63a9.5,9.5,0,0,0,7.16-8.95V471.9h11.35v4.78a9.49,9.49,0,0,0,7.16,8.95,45.72,45.72,0,0,1,16.72,7.17,9,9,0,0,0,11.35-1.2L291.3,488l7.77,7.76-3.59,3.59a9,9,0,0,0-1.19,11.34,82.83,82.83,0,0,1,7.16,16.72,9.51,9.51,0,0,0,9,7.17h4.78v11.95Zm158.84,17.31A23.32,23.32,0,0,1,449,540.57a23.29,23.29,0,1,1,23.29,23.29Zm0-171.39a23.32,23.32,0,0,1,23.29,23.29,23.29,23.29,0,0,1-46.58,0A23.32,23.32,0,0,1,472.25,392.47Zm0-78.83a23.29,23.29,0,1,1,0-46.57,23.29,23.29,0,1,1,0,46.57Z"/></g></g></svg>