<svg xmlns="http://www.w3.org/2000/svg" viewBox="0 0 149.87 108.65"><defs><style>.cls-1{fill:#4858e8;}</style></defs><g id="Layer_2" data-name="Layer 2"><g id="Layer_1-2" data-name="Layer 1"><path class="cls-1" d="M139.19,1.12c-.19,0-.19-.56-.37-.56-.57,0-1.13-.56-1.88-.56H12.74c-.56,0-1.13.56-1.88.56-.18,0-.18.19-.37.19A13.28,13.28,0,0,0,0,13.68V95a12.71,12.71,0,0,0,10.68,12.55c.19,0,.19.56.37.56.57,0,1.13.56,1.69.56H137.13c.56,0,1.12-.56,1.69-.56.18,0,.18-.18.37-.18a12.91,12.91,0,0,0,10.68-12.74V13.68A12.72,12.72,0,0,0,139.19,1.12ZM101,54.33l41.41-36.91V91.23ZM137.13,7.49a6.31,6.31,0,0,1,4.31,2.06L74.93,68.94,8.43,9.55V9.37a6.25,6.25,0,0,1,4.31-2.06H137.13ZM7.49,17.42l41.4,36.91L7.49,91.23Zm5.25,83.74A6.29,6.29,0,0,1,8.43,99.1L53.39,59l19.3,17.24a3.17,3.17,0,0,0,4.49,0L96.48,59l45,40.28a6.31,6.31,0,0,1-4.31,2.06Z"/></g></g></svg>