<svg xmlns="http://www.w3.org/2000/svg" viewBox="0 0 875.8 875.8"><defs><style>.cls-1{fill:#4858e8;}</style></defs><g id="Layer_2" data-name="Layer 2"><g id="Layer_1-2" data-name="Layer 1"><path class="cls-1" d="M437.9,875.8A438,438,0,0,1,267.45,34.42a438,438,0,0,1,340.9,807A435.1,435.1,0,0,1,437.9,875.8Zm0-849.8C210.78,26,26,210.78,26,437.9S210.78,849.8,437.9,849.8,849.8,665,849.8,437.9,665,26,437.9,26Z"/><path class="cls-1" d="M432.21,259.8c-98.6,0-178.1,80.1-178.1,178.1S334.21,616,432.21,616s178.7-79.5,178.7-178.1S530.81,259.8,432.21,259.8Zm0,21.9c21.3,0,43.1,26.3,56.6,70.6a358.2,358.2,0,0,0-113.2,0C389.11,308.5,411.51,281.7,432.21,281.7Zm62.2,94a342.89,342.89,0,0,1,5.6,62.2,348,348,0,0,1-5.6,62.2,342.89,342.89,0,0,1-62.2,5.6,348,348,0,0,1-62.2-5.6,342.89,342.89,0,0,1-5.6-62.2,348,348,0,0,1,5.6-62.2,342.89,342.89,0,0,1,62.2-5.6,352.11,352.11,0,0,1,62.2,5.6Zm-113.1-85.1c-12.3,16.8-22.4,39.8-29.1,66.6-26.9,6.7-49.8,16.8-66.6,29.1a156.08,156.08,0,0,1,95.7-95.7Zm-34.2,90.7a361.68,361.68,0,0,0-4.5,56.6,368.69,368.69,0,0,0,4.5,56.6c-44.2-12.9-70.6-35.3-70.6-56.6S302.91,394.8,347.11,381.3Zm-61.6,108.1c16.8,12.3,39.8,22.4,66.6,29.1,6.7,26.9,16.8,49.8,29.1,66.6A156.08,156.08,0,0,1,285.51,489.4Zm146.7,104.7c-21.3,0-43.1-26.3-56.6-70.6a358.2,358.2,0,0,0,113.2,0C475.91,567.3,453.51,594.1,432.21,594.1Zm51.5-8.9c12.3-16.8,22.4-39.8,29.1-66.6,26.9-6.7,49.8-16.8,66.6-29.1A156.08,156.08,0,0,1,483.71,585.2Zm34.2-90.7a361.68,361.68,0,0,0,4.5-56.6,368.69,368.69,0,0,0-4.5-56.6c44.2,12.9,70.6,35.3,70.6,56.6S562.11,481,517.91,494.5Zm-5-137.2c-6.7-26.9-16.8-49.8-29.1-66.6a156.39,156.39,0,0,1,95.8,95.8c-16.9-12.4-39.9-22.5-66.7-29.2Z"/><path class="cls-1" d="M389.71,437.9a43.1,43.1,0,1,0,43.1-43.1A43.1,43.1,0,0,0,389.71,437.9Zm63.2,0a20.7,20.7,0,1,1-20.7-20.7A20.61,20.61,0,0,1,452.91,437.9Z"/><path class="cls-1" d="M710.51,431.7l-30.8-30.8a10.82,10.82,0,0,0-15.7,0l-30.8,30.8a11.1,11.1,0,1,0,15.7,15.7l11.8-11.8v2.2c0,126-102.5,228.5-228.5,228.5-125.4.1-227.9-102.4-227.9-228.4s102.5-228.5,227.9-228.5A228,228,0,0,1,645,353.9a11.22,11.22,0,1,0,20.8-8.4c-38.1-95.8-130-157.9-233.6-157.9-137.7,0-250.3,112-250.3,250.3s112.6,250.3,250.3,250.3,250.9-112,250.9-250.3v-2.2l11.8,11.8a11.11,11.11,0,0,0,7.8,3.4,10.71,10.71,0,0,0,7.8-3.4c4.5-4,4.5-11.3,0-15.8Z"/></g></g></svg>