<svg xmlns="http://www.w3.org/2000/svg" viewBox="0 0 875.8 875.8"><defs><style>.cls-1{fill:#4858e8;}</style></defs><g id="Layer_2" data-name="Layer 2"><g id="Layer_1-2" data-name="Layer 1"><path class="cls-1" d="M437.9,875.8A438,438,0,0,1,267.45,34.42a438,438,0,0,1,340.9,807A435.1,435.1,0,0,1,437.9,875.8Zm0-849.8C210.78,26,26,210.78,26,437.9S210.78,849.8,437.9,849.8,849.8,665,849.8,437.9,665,26,437.9,26Z"/><path class="cls-1" d="M374.73,349.64a8.74,8.74,0,0,0-9.6,14.6,87.42,87.42,0,0,1,39.8,73.3,8.8,8.8,0,1,0,17.6,0,105,105,0,0,0-47.8-87.9Z"/><path class="cls-1" d="M405,455.14a8.8,8.8,0,1,0,8.6,8.8A8.77,8.77,0,0,0,405,455.14Z"/><path class="cls-1" d="M526.43,194.34a40.4,40.4,0,0,0-67.7-.1l-76.5,119.3c-90-49.4-206.6,20.8-204.7,124-1.8,94.1,97.1,164.5,185.2,132.4l7,12.1h0a26,26,0,0,0-3.3,30.7l37.6,65.4c30.7,49.6,106.3,5.6,78.5-45.4l-37.7-65.3a26.66,26.66,0,0,0-12.1-10.9,25.81,25.81,0,0,0-16.2-1.6l-7-12.2h0a141.37,141.37,0,0,0,29.1-35.3h224.8a35.29,35.29,0,0,0,34.5-30.1,35.21,35.21,0,0,0-5-23.9Zm-121,376.6c5.9,10.1-10.7,19.6-16.5,9.5-.4-.6-9.4-16.3-9.7-16.8l16.5-9.5,9,15.7c.1.4.5.7.7,1.1Zm24.2,5.4,37.7,65.3a27.1,27.1,0,0,1,2.1,21.4,26.62,26.62,0,0,1-14.3,16,26.12,26.12,0,0,1-19.9,2.6,26.77,26.77,0,0,1-16-12.1L381.53,604h0a7.76,7.76,0,0,1-.6-7.1,27.14,27.14,0,0,0,19.7,4.8,27.35,27.35,0,0,0,23.4-29.5,8,8,0,0,1,5.6,4.1Zm-112.2-16.2a122.57,122.57,0,0,1-122.5-122.5c6.7-162.5,238.3-162.5,245,0h0a122.57,122.57,0,0,1-122.5,122.5ZM678.63,481a17.18,17.18,0,0,1-6.4,6.7,17.58,17.58,0,0,1-9,2.4H447.13a140.8,140.8,0,0,0-50-167.4l76.3-118.9h0a22.83,22.83,0,0,1,19.1-10.5,22.58,22.58,0,0,1,19.1,10.5l166.3,259.4a17.27,17.27,0,0,1,2.8,8.8,16,16,0,0,1-2.1,9Z"/><path class="cls-1" d="M492.13,253.84a34.64,34.64,0,0,0-24.7,10.3,35.42,35.42,0,0,0-10.3,24.7c0,1.2,7,122.5,35,122.5s35-121.3,35-122.5a34.64,34.64,0,0,0-10.3-24.7A35.24,35.24,0,0,0,492.13,253.84Zm0,136.1c-8.5-19.9-17.5-85.9-17.5-101a17.55,17.55,0,0,1,35.1,0c-.1,15.1-9.1,81.1-17.6,101Z"/><path class="cls-1" d="M492.13,420.14a26.25,26.25,0,1,0,22.5,13.2A26.19,26.19,0,0,0,492.13,420.14Zm0,35a8.8,8.8,0,1,1,8.6-8.8A8.77,8.77,0,0,1,492.13,455.14Z"/><path class="cls-1" d="M625.93,303.84a9,9,0,0,0,6.2,2.6,8.71,8.71,0,0,0,6.2-2.6l17.5-17.5a8.77,8.77,0,0,0-12.4-12.4l-17.5,17.5a9,9,0,0,0-2.6,6.2,9.14,9.14,0,0,0,2.6,6.2Z"/><path class="cls-1" d="M640.93,315.14a8.8,8.8,0,0,0,0,17.6h17.5a8.8,8.8,0,0,0,0-17.6Z"/><path class="cls-1" d="M614.63,288.84a8.71,8.71,0,0,0,6.2-2.6,9,9,0,0,0,2.6-6.2v-17.5a8.8,8.8,0,1,0-17.6,0V280a8.88,8.88,0,0,0,8.8,8.8Z"/></g></g></svg>