<svg viewBox="0 0 64 64" fill="none" xmlns="http://www.w3.org/2000/svg">
<path d="M31.5283 43.0057C31.5844 43.0763 31.656 43.1334 31.7377 43.1727C31.8194 43.212 31.9091 43.2324 32 43.2324C32.0909 43.2324 32.1806 43.212 32.2623 43.1727C32.344 43.1334 32.4156 43.0763 32.4717 43.0057L40.8567 32.5392C41.1636 32.1551 40.8866 31.5864 40.385 31.5864H34.8374V6.59091C34.8374 6.26591 34.5679 6 34.2385 6H29.7465C29.4171 6 29.1476 6.26591 29.1476 6.59091V31.579H23.615C23.1134 31.579 22.8364 32.1477 23.1433 32.5318L31.5283 43.0057ZM59.4011 40.4205H54.9091C54.5797 40.4205 54.3102 40.6864 54.3102 41.0114V52.3864H9.68984V41.0114C9.68984 40.6864 9.42032 40.4205 9.09091 40.4205H4.59893C4.26952 40.4205 4 40.6864 4 41.0114V55.6364C4 56.9437 5.07059 58 6.39572 58H57.6043C58.9294 58 60 56.9437 60 55.6364V41.0114C60 40.6864 59.7305 40.4205 59.4011 40.4205Z" />
</svg>
