<svg xmlns="http://www.w3.org/2000/svg" viewBox="0 0 875.8 875.8"><defs><style>.cls-1{fill:#4858e8;}</style></defs><g id="Layer_2" data-name="Layer 2"><g id="Layer_1-2" data-name="Layer 1"><path class="cls-1" d="M437.9,875.8A438,438,0,0,1,267.45,34.42a438,438,0,0,1,340.9,807A435.1,435.1,0,0,1,437.9,875.8Zm0-849.8C210.78,26,26,210.78,26,437.9S210.78,849.8,437.9,849.8,849.8,665,849.8,437.9,665,26,437.9,26Z"/><path class="cls-1" d="M608.9,426.51a165.09,165.09,0,0,0,4-36.05h-35a124.1,124.1,0,0,1-9.1,46.72,17.42,17.42,0,0,0,18.9,24,53.75,53.75,0,0,1,7.7-.7,52.5,52.5,0,0,1,0,105h-70v-35a17.5,17.5,0,0,0-17.5-17.5v-17.5a70,70,0,0,0-140,0V513a17.48,17.48,0,0,0-17.5,17.5v35h-52.5a70,70,0,0,1,0-140A71.82,71.82,0,0,1,313,427,17.5,17.5,0,0,0,334.15,408a123.54,123.54,0,0,1-1.23-17.5,122.74,122.74,0,0,1,245-15.4l35-4.2h0a157.8,157.8,0,1,0-315,19.59,105,105,0,1,0,0,210h52.5v35a17.48,17.48,0,0,0,17.5,17.5h35V618h-17.5V548h105v70h-70v35h87.5a17.5,17.5,0,0,0,17.5-17.5v-35h70a87.5,87.5,0,0,0,13.48-174Zm-206,68.95a35,35,0,1,1,70,0V513h-70Z"/></g></g></svg>