<svg xmlns="http://www.w3.org/2000/svg" viewBox="0 0 875.8 875.8"><defs><style>.cls-1{fill:#4858e8;}</style></defs><g id="Layer_2" data-name="Layer 2"><g id="Layer_1-2" data-name="Layer 1"><path class="cls-1" d="M437.9,875.8A438,438,0,0,1,267.45,34.42a438,438,0,0,1,340.9,807A435.1,435.1,0,0,1,437.9,875.8Zm0-849.8C210.78,26,26,210.78,26,437.9S210.78,849.8,437.9,849.8,849.8,665,849.8,437.9,665,26,437.9,26Z"/><path class="cls-1" d="M448.4,157.9a257.75,257.75,0,0,0-183.17,75.83,11.27,11.27,0,0,0,0,16.33l175,175a10.57,10.57,0,0,0,8.17,3.5H695.73A11.69,11.69,0,0,0,707.4,416.9c0-142.33-116.67-259-259-259Z"/><path class="cls-1" d="M674.73,447.23H432.07L260.57,274.57a16.86,16.86,0,0,0-8.17-2.34,10.62,10.62,0,0,0-8.17,3.5A257.73,257.73,0,0,0,168.4,458.9c0,187.83,165.67,259,259,259,143.5,0,259-116.67,259-259,0-7-4.67-11.66-11.67-11.66ZM427.4,694.57c-59.5,0-115.5-21-158.67-60.67L432.06,470.57h231c-5.83,124.83-109.66,224-235.66,224Z"/></g></g></svg>