<svg xmlns="http://www.w3.org/2000/svg" viewBox="0 0 875.8 875.8"><defs><style>.cls-1{fill:#4858e8;}</style></defs><g id="Layer_2" data-name="Layer 2"><g id="Layer_1-2" data-name="Layer 1"><path class="cls-1" d="M437.9,875.8A438,438,0,0,1,267.45,34.42a438,438,0,0,1,340.9,807A435.1,435.1,0,0,1,437.9,875.8Zm0-849.8C210.78,26,26,210.78,26,437.9S210.78,849.8,437.9,849.8,849.8,665,849.8,437.9,665,26,437.9,26Z"/><path class="cls-1" d="M682.9,227.9h-490a8.75,8.75,0,0,0-8.75,8.75v402.5a8.74,8.74,0,0,0,8.75,8.75h490a8.74,8.74,0,0,0,8.75-8.75V236.65a8.74,8.74,0,0,0-8.75-8.75ZM306.65,271.65a8.74,8.74,0,1,1-2.56-6.19A8.74,8.74,0,0,1,306.65,271.65Zm-35,0a8.74,8.74,0,1,1-2.56-6.19A8.74,8.74,0,0,1,271.65,271.65ZM227.9,262.9a8.75,8.75,0,1,1-8.75,8.75A8.74,8.74,0,0,1,227.9,262.9ZM201.65,630.4v-315h472.5v315ZM332.9,359.15a8.75,8.75,0,0,1,8.75-8.75h122.5a8.75,8.75,0,0,1,0,17.5H341.65A8.75,8.75,0,0,1,332.9,359.15Zm0,35a8.75,8.75,0,0,1,8.75-8.75H595.4a8.75,8.75,0,0,1,0,17.5H341.65A8.75,8.75,0,0,1,332.9,394.15Zm0,61.25a8.75,8.75,0,0,1,8.75-8.75H367.9a8.75,8.75,0,0,1,0,17.5H341.65A8.75,8.75,0,0,1,332.9,455.4Zm113.75,35a8.74,8.74,0,0,1-8.75,8.75H341.65a8.75,8.75,0,0,1,0-17.5H437.9a8.74,8.74,0,0,1,8.75,8.75ZM332.9,551.65a8.75,8.75,0,0,1,8.75-8.75h52.5a8.75,8.75,0,0,1,0,17.5h-52.5A8.75,8.75,0,0,1,332.9,551.65Zm113.75,35a8.74,8.74,0,0,1-8.75,8.75H341.65a8.75,8.75,0,0,1,0-17.5H437.9a8.74,8.74,0,0,1,8.75,8.75Zm-140-227.5v35a8.74,8.74,0,0,1-8.75,8.75h-35a8.75,8.75,0,0,1-8.75-8.75v-35a8.75,8.75,0,0,1,8.75-8.75h35a8.74,8.74,0,0,1,8.75,8.75Zm0,96.25v35a8.74,8.74,0,0,1-8.75,8.75h-35a8.75,8.75,0,0,1-8.75-8.75v-35a8.75,8.75,0,0,1,8.75-8.75h35a8.74,8.74,0,0,1,8.75,8.75Zm0,96.25v35a8.74,8.74,0,0,1-8.75,8.75h-35a8.75,8.75,0,0,1-8.75-8.75v-35a8.75,8.75,0,0,1,8.75-8.75h35a8.74,8.74,0,0,1,8.75,8.75Zm315,35a8.74,8.74,0,0,1-8.75,8.75H490.4a8.75,8.75,0,0,1,0-17.5H612.9a8.74,8.74,0,0,1,8.75,8.75ZM577.9,455.4H525.4V429.15a8.75,8.75,0,0,1,8.75-8.75h35a8.74,8.74,0,0,1,8.75,8.75Zm-52.5,17.5h52.5v43.75a8.81,8.81,0,0,1-.92,3.91l-17.5,35a8.75,8.75,0,0,1-15.66,0l-17.5-35a8.81,8.81,0,0,1-.92-3.91Z"/></g></g></svg>