<svg xmlns="http://www.w3.org/2000/svg" viewBox="0 0 875.8 875.8"><defs><style>.cls-1{fill:#4858e8;}</style></defs><g id="Layer_2" data-name="Layer 2"><g id="Layer_1-2" data-name="Layer 1"><path class="cls-1" d="M437.9,875.8A438,438,0,0,1,267.45,34.42a438,438,0,0,1,340.9,807A435.1,435.1,0,0,1,437.9,875.8Zm0-849.8C210.78,26,26,210.78,26,437.9S210.78,849.8,437.9,849.8,849.8,665,849.8,437.9,665,26,437.9,26Z"/><path class="cls-1" d="M663.5,463.19a64.61,64.61,0,0,0-8.9.61,50.62,50.62,0,0,0-32.84-36.89q.18-4,.18-8a175.34,175.34,0,0,0-349.36-21.5,100.32,100.32,0,1,0-27.37,196.83h418.3a65.55,65.55,0,1,0,0-131Zm0,116.58H245.23a85.84,85.84,0,1,1,31.09-165.86,7.23,7.23,0,0,0,9.83-6.25A160.87,160.87,0,0,1,607.5,418.92c0,4.35-.17,8.67-.51,12.82a7.24,7.24,0,0,0,5.73,7.66,36.09,36.09,0,0,1,28.55,33.38,7.24,7.24,0,0,0,9.09,6.61,51.06,51.06,0,1,1,13.15,100.4ZM543.59,369.39a19.38,19.38,0,1,0-33.4.29L434.64,470.75,396,410.68a19.37,19.37,0,1,0-33.21-1.4l-93.2,121.56-15-17.89h0a19.42,19.42,0,1,0-11.11,9.3l20.77,24.81h0a7.22,7.22,0,0,0,5.54,2.59h.16a7.25,7.25,0,0,0,5.58-2.83l98.4-128.31h0a19.33,19.33,0,0,0,5.84.93,19.64,19.64,0,0,0,4.32-.53l44.07,68.42a7.29,7.29,0,0,0,5.84,3.32h.26a7.22,7.22,0,0,0,5.79-2.91l81.7-109.3a18.82,18.82,0,0,0,10.52-.09l27.31,34.19h0a7.24,7.24,0,1,0,11.31-9ZM232.54,503.81a4.9,4.9,0,1,1,4.9,4.91,4.9,4.9,0,0,1-4.9-4.91ZM379.77,395.15a4.89,4.89,0,1,1-4.9,4.9,4.9,4.9,0,0,1,4.9-4.9Zm142.14-35.39a4.9,4.9,0,1,1,4.9,4.9,4.88,4.88,0,0,1-4.9-4.9Z"/></g></g></svg>