<svg xmlns="http://www.w3.org/2000/svg" viewBox="0 0 875.8 875.8"><defs><style>.cls-1{fill:#4858e8;}</style></defs><g id="Layer_2" data-name="Layer 2"><g id="Layer_1-2" data-name="Layer 1"><path class="cls-1" d="M437.9,875.8A438,438,0,0,1,267.45,34.42a438,438,0,0,1,340.9,807A435.1,435.1,0,0,1,437.9,875.8Zm0-849.8C210.78,26,26,210.78,26,437.9S210.78,849.8,437.9,849.8,849.8,665,849.8,437.9,665,26,437.9,26Z"/><path class="cls-1" d="M438,331.19a54.51,54.51,0,1,0-38.32-16,54.12,54.12,0,0,0,38.32,16Zm0-91.55A37.35,37.35,0,0,1,475.22,277a37.7,37.7,0,0,1-10.94,26.42A37.35,37.35,0,0,1,400.51,277a37.71,37.71,0,0,1,10.93-26.42A37.32,37.32,0,0,1,438,239.64Z"/><path class="cls-1" d="M632.77,608.45H609.64l-7.36-23.61a17.25,17.25,0,0,0-9.19-10.45,16.69,16.69,0,0,0-13.93,0,17,17,0,0,0-9.2,10.45l-7.35,23.61h-23A17,17,0,0,0,527.09,614a16.77,16.77,0,0,0-4.35,13,16.48,16.48,0,0,0,6.58,11.9l19.35,14.81-7.55,24.29h0a17.1,17.1,0,0,0,1.65,13.74,16.9,16.9,0,0,0,11.32,7.94,17.15,17.15,0,0,0,13.45-3.2L586,682.29l18.48,14.13h0a17.15,17.15,0,0,0,13.45,3.2,17,17,0,0,0,13-21.68l-7.55-24.29L642.54,639h0a16.89,16.89,0,0,0,2.62-25,16.41,16.41,0,0,0-12.39-5.62Zm-28.84,38.91,11,35.51-28.74-22-28.74,22,11-35.51-28.94-22h35.62l11-35.52,11,35.52h35.62Z"/><path class="cls-1" d="M486.73,622.58,524.19,594a16.92,16.92,0,0,0-10-30.59H468.44L454.12,517.2a17.3,17.3,0,0,0-9.19-10.46,16.72,16.72,0,0,0-13.94,0,17,17,0,0,0-9.19,10.46l-14.32,46.25H361.7A17,17,0,0,0,349.22,569a16.77,16.77,0,0,0-4.36,13,16.55,16.55,0,0,0,6.58,11.9l37.75,28.74-14.52,46.84a16.91,16.91,0,0,0,26.42,18.49l36.77-28.07,36.78,28.07h0a17.19,17.19,0,0,0,13.45,3.19,17,17,0,0,0,13-21.68Zm-1.64,51.88-47.13-36-47.13,35.9,18-58.16L361.7,580.29H420l18-58.16,18,58.16h58.26L467.09,616.2Z"/><path class="cls-1" d="M336.35,608.45H313.22l-7.36-23.61a17.28,17.28,0,0,0-9.19-10.45,16.72,16.72,0,0,0-13.94,0,17,17,0,0,0-9.19,10.45l-7.36,23.61H243.05A17,17,0,0,0,230.57,614a16.77,16.77,0,0,0-4.35,13,16.48,16.48,0,0,0,6.58,11.9l19.35,14.81-7.55,24.29h0A16.9,16.9,0,0,0,271,696.42l18.49-14.13L308,696.42h0a17.15,17.15,0,0,0,13.45,3.2,17,17,0,0,0,13-21.68l-7.55-24.29L346,639h0a16.89,16.89,0,0,0,2.62-25,16.21,16.21,0,0,0-12.29-5.62ZM307.6,647.36l11,35.51-28.75-22-28.74,22,11-35.51-28.74-22h35.61l11-35.52,11,35.52h35.23Z"/><path class="cls-1" d="M257.38,579.91a33.25,33.25,0,0,1,9.38-14.81V476.74A33.39,33.39,0,0,1,272.57,458a32.38,32.38,0,0,1,15.49-12.1l84.67-33.19,59.13,61.45a8.58,8.58,0,0,0,6.1,2.61h.29a8.42,8.42,0,0,0,6.19-3l53.81-63,89.52,35a32.84,32.84,0,0,1,21.29,30.87V565a33.92,33.92,0,0,1,9.39,14.81L622,591.52h3.87V476.65a50.19,50.19,0,0,0-32-46.65L502.8,394.29a19.21,19.21,0,0,1-12.39-18v-2.9a24.86,24.86,0,0,0,12.78.38,23.7,23.7,0,0,0,11.13-6.29l14.9-14.8h0a23.76,23.76,0,0,0,6.87-14.81,24.07,24.07,0,0,0-4.16-15.77,104.55,104.55,0,0,0,4.84-11.71,23.58,23.58,0,0,0,14.13-8.23,24,24,0,0,0,5.61-15.29v-21a24,24,0,0,0-19.74-23.61,103,103,0,0,0-4.84-11.71,24.1,24.1,0,0,0,4.16-15.78,23.71,23.71,0,0,0-6.87-14.8l-14.9-14.81a24.06,24.06,0,0,0-30.59-2.71A103,103,0,0,0,472,177.61a23.54,23.54,0,0,0-8.22-14.13,23.29,23.29,0,0,0-15.29-5.61h-21a23.75,23.75,0,0,0-15.39,5.61,24,24,0,0,0-8.22,14.13,103,103,0,0,0-11.71,4.84,24.05,24.05,0,0,0-15.78-4.16,23.76,23.76,0,0,0-14.81,6.87L346.7,200a23.71,23.71,0,0,0-6.87,14.8A24.1,24.1,0,0,0,344,230.55a103,103,0,0,0-4.84,11.71A23.57,23.57,0,0,0,325,250.48a24.1,24.1,0,0,0-5.61,15.39v21A23.83,23.83,0,0,0,325,302.16a24.61,24.61,0,0,0,14.13,8.23A104.55,104.55,0,0,0,344,322.1a24.07,24.07,0,0,0-4.16,15.77,23.76,23.76,0,0,0,6.87,14.81l14.9,14.8a24.14,24.14,0,0,0,11.13,6.29,23,23,0,0,0,12.78-.38v2.9a19.21,19.21,0,0,1-12.39,18L282,430a48.8,48.8,0,0,0-23.23,18.39,50,50,0,0,0-8.8,28.26V591.52h3.87ZM437.57,455.65l-49-50.91a36,36,0,0,0,13.84-28.35v-1.84l1.46.58a23.54,23.54,0,0,0,8.22,14.13,24.3,24.3,0,0,0,15.39,5.61h21a23.75,23.75,0,0,0,15.39-5.61,24.09,24.09,0,0,0,8.22-14.13l1.45-.58v1.84h0a35.6,35.6,0,0,0,10.36,25.16ZM383.48,355.48a7,7,0,0,1-9.88,0l-14.9-14.8a6.91,6.91,0,0,1-2-4.94,7.08,7.08,0,0,1,2-4.93l6.19-6.2a86.36,86.36,0,0,1-12.77-30.77h-8.81a6.94,6.94,0,0,1-7-7v-21a6.94,6.94,0,0,1,7-7h8.81a87.89,87.89,0,0,1,12.77-30.77l-6.19-6.2a6.87,6.87,0,0,1-2-4.93,7.12,7.12,0,0,1,2-4.94l14.9-14.8a7,7,0,0,1,9.88,0l6.19,6.19a87.7,87.7,0,0,1,30.77-12.77V182a7.13,7.13,0,0,1,2-4.94,6.87,6.87,0,0,1,4.93-2h21a7.12,7.12,0,0,1,4.94,2,6.91,6.91,0,0,1,2,4.94v8.71a86.86,86.86,0,0,1,30.77,12.77l6.2-6.19a7,7,0,0,1,9.87,0l14.9,14.8a6.87,6.87,0,0,1,2,4.94,7.08,7.08,0,0,1-2,4.93l-6.19,6.2A86.18,86.18,0,0,1,523.7,258.9h8.81a7.16,7.16,0,0,1,4.94,2,6.91,6.91,0,0,1,2,4.94v21a7.16,7.16,0,0,1-2,4.94,6.91,6.91,0,0,1-4.94,2H523.7a87.62,87.62,0,0,1-12.77,30.77l6.19,6.2a6.83,6.83,0,0,1,2,4.93,7.12,7.12,0,0,1-2,4.94l-14.9,14.8a7,7,0,0,1-9.87,0l-6.2-6.19h0a87.55,87.55,0,0,1-30.77,12.77v8.71a6.94,6.94,0,0,1-7,7h-21a6.94,6.94,0,0,1-7-7v-8.71a87.7,87.7,0,0,1-30.77-12.77Z"/></g></g></svg>