<svg xmlns="http://www.w3.org/2000/svg" viewBox="0 0 875.8 875.8"><defs><style>.cls-1{fill:#4858e8;}</style></defs><g id="Layer_2" data-name="Layer 2"><g id="Layer_1-2" data-name="Layer 1"><path class="cls-1" d="M437.9,875.8A438,438,0,0,1,267.45,34.42a438,438,0,0,1,340.9,807A435.1,435.1,0,0,1,437.9,875.8Zm0-849.8C210.78,26,26,210.78,26,437.9S210.78,849.8,437.9,849.8,849.8,665,849.8,437.9,665,26,437.9,26Z"/><path class="cls-1" d="M348.45,354.92l20.82,3.68h0A107.58,107.58,0,0,0,380,384.49l-12.11,17.3a16,16,0,0,0,1.75,20.52l12.47,12.47h0a16,16,0,0,0,20.51,1.76L420,424.42h0a107.58,107.58,0,0,0,25.9,10.76L449.53,456a16,16,0,0,0,15.74,13.23h17.85A16,16,0,0,0,498.86,456l3.68-20.82h0a107.63,107.63,0,0,0,25.85-10.76l17.3,12.12h0a16,16,0,0,0,20.52-1.76l12.47-12.47a16,16,0,0,0,1.76-20.52l-12.32-17.3a107.73,107.73,0,0,0,10.56-25.9l20.82-3.67h0a16,16,0,0,0,13.22-15.74V321.53a16,16,0,0,0-13.22-15.74l-20.82-3.67a108.15,108.15,0,0,0-10.76-25.9L580,258.92a16,16,0,0,0-1.36-20.51L566,225.94a16,16,0,0,0-20.52-1.81l-17.1,12.12a107.58,107.58,0,0,0-25.9-10.76l-3.67-20.82a16,16,0,0,0-15.69-13.18h-17.9a16,16,0,0,0-15.74,13.23l-3.67,20.81a107.63,107.63,0,0,0-25.9,10.72l-17.25-12.12a16,16,0,0,0-20.51,1.81l-12.48,12.47h0a16,16,0,0,0-1.76,20.52L380,276.23a108.06,108.06,0,0,0-10.81,25.89L348.4,305.8h0a16,16,0,0,0-13.23,15.74v17.65a16,16,0,0,0,13.28,15.75Zm125.72-84h0a59.49,59.49,0,1,1-.1,0ZM307.62,684.31,207.9,587.16l71.41-71h0a108.84,108.84,0,0,1,112.75-25.49l15.63,5.47h96.56a30.19,30.19,0,0,1,30.17,31.34A31.23,31.23,0,0,1,502.73,557H445a11.82,11.82,0,1,0,0,23.63h57.93a55.3,55.3,0,0,0,55.26-52.2v-.75l53.61-60.35a32.43,32.43,0,0,1,44.55-4.27A31.55,31.55,0,0,1,660,508.3L553,630.66a75,75,0,0,1-56.57,25.74H335.53Zm134.83-354a31.62,31.62,0,1,1,9.26,22.37A31.64,31.64,0,0,1,442.45,330.34Z"/></g></g></svg>