<svg xmlns="http://www.w3.org/2000/svg" viewBox="0 0 875.8 875.8"><defs><style>.cls-1{fill:#4858e8;}</style></defs><g id="Layer_2" data-name="Layer 2"><g id="Layer_1-2" data-name="Layer 1"><path class="cls-1" d="M437.9,875.8A438,438,0,0,1,267.45,34.42a438,438,0,0,1,340.9,807A435.1,435.1,0,0,1,437.9,875.8Zm0-849.8C210.78,26,26,210.78,26,437.9S210.78,849.8,437.9,849.8,849.8,665,849.8,437.9,665,26,437.9,26Z"/><path class="cls-1" d="M385.17,373.47a5.84,5.84,0,0,0,5.84,5.84h93.33a5.84,5.84,0,0,0,0-11.67H391A5.84,5.84,0,0,0,385.17,373.47Z"/><path class="cls-1" d="M317.5,378.14a5.85,5.85,0,0,0,8-.93l29.16-35a5.84,5.84,0,1,0-9-7.47l-25.61,30.74L307,356a5.84,5.84,0,0,0-7,9.34Z"/><path class="cls-1" d="M484.34,449.31H391A5.83,5.83,0,1,0,391,461h93.33a5.83,5.83,0,1,0,0-11.66Z"/><path class="cls-1" d="M317.5,459.81a5.88,5.88,0,0,0,8-.93l29.16-35a5.84,5.84,0,1,0-9-7.47l-25.61,30.74L307,437.64a5.83,5.83,0,0,0-7,9.33Z"/><path class="cls-1" d="M484.34,531H391a5.84,5.84,0,0,0,0,11.67h93.33a5.84,5.84,0,1,0,0-11.67Z"/><path class="cls-1" d="M391,356h35a5.83,5.83,0,1,0,0-11.66H391A5.83,5.83,0,1,0,391,356Z"/><path class="cls-1" d="M391,437.64h35A5.84,5.84,0,1,0,426,426H391a5.84,5.84,0,0,0,0,11.67Z"/><path class="cls-1" d="M391,519.31h35a5.84,5.84,0,1,0,0-11.67H391a5.84,5.84,0,0,0,0,11.67Z"/><path class="cls-1" d="M353.9,497.32a5.82,5.82,0,0,0-8.22.76l-25.61,30.74L307,519.31a5.83,5.83,0,0,0-7,9.33l17.5,13.13a5.84,5.84,0,0,0,8-.93l29.17-35a5.83,5.83,0,0,0-.76-8.52Z"/><path class="cls-1" d="M601,297.64H554.34V200.57a31.21,31.21,0,0,0-31.09-31.26H338.51a10.17,10.17,0,0,0-2.34,0,14.8,14.8,0,0,0-2.8,1l-.7.64a12.42,12.42,0,0,0-2.45,1.81l-11,11.14-76.48,77.18a11.28,11.28,0,0,0-3.09,5.83,11.68,11.68,0,0,0,0,1.87V592.93a31.21,31.21,0,0,0,30.8,31.38H321v49.52A33.83,33.83,0,0,0,356,706H601a33.72,33.72,0,0,0,35-32.49V330.13c0-.45,0-.89,0-1.34a33.49,33.49,0,0,0-35-31.15Zm-59.5,385,71.17-71.17v36.17l-35,35Zm-52.5,0L612.67,559.09v36l-87.5,87.5Zm-52.5,0,58.34-58.33H523a31.17,31.17,0,0,0,9.34-1.58l-59.68,59.91Zm-52.5,0,58.34-58.33H478.5l-58.33,58.33Zm228.67-192.5-58.33,58.33V512.66l58.33-58.34Zm0-52.5L554.34,496v-35.7l58.33-58.33Zm0-52.5-58.33,58.33v-35.7l58.33-58.33ZM554.34,593V565l58.33-58.33v35.93l-60,60a30.81,30.81,0,0,0,1.63-9.57Zm58.33-263.2a7.21,7.21,0,0,0,0,.93V333l-58.33,58.33V355.39L588.76,321H601a10.5,10.5,0,0,1,11.66,8.87ZM572.31,321l-18,18V321ZM262.68,593V274.31l64.16-65V253.2a4.37,4.37,0,0,1-4.25,4.43H294.76a11.67,11.67,0,1,0,0,23.33h27.83a27.71,27.71,0,0,0,27.59-27.76V192.64H523.25a7.87,7.87,0,0,1,7.75,7.94V593a7.86,7.86,0,0,1-7.75,7.93H270.43a7.87,7.87,0,0,1-7.76-7.93Zm81.66,31.27h29.52l-29.52,29.52Zm0,49.41v-3.44l46-46H426l-58.33,58.33H356a10.56,10.56,0,0,1-11.67-8.92ZM601,682.65h-7L612.67,664v9.5A10.62,10.62,0,0,1,601,682.65Z"/><path class="cls-1" d="M417.43,281.37a24.7,24.7,0,0,1-22.8-10.62l-9.45,6.77a37.54,37.54,0,0,0,22.16,14.87v11.09H419V292.92c10.21-1.4,21.76-8.23,23-18,2.16-16.16-11.67-20.12-17.09-21.58s-8.17-2.1-11.37-2.86c-8.75-2.1-11.67-2.92-14.06-5.83a5.82,5.82,0,0,1-1.29-4.9,9.1,9.1,0,0,1,4.73-5.83,25,25,0,0,1,28.35,8.8l10-5.83h0A35,35,0,0,0,419,221.93V210.14H407.28v10.5h0a24.86,24.86,0,0,0-10,2.86,20.51,20.51,0,0,0-10.44,13.77,17.49,17.49,0,0,0,3.56,14.46c5.07,6.36,11.2,7.82,20.53,10,3,.76,6.65,1.57,10.91,2.8,8.58,2.39,9.22,4.61,8.69,8.81-.29,2.85-6.24,7.06-13.07,8Z"/></g></g></svg>