<svg xmlns="http://www.w3.org/2000/svg" viewBox="0 0 875.8 875.8"><defs><style>.cls-1{fill:#fff;}.cls-2{fill:#4858e8;}.cls-3{fill:#f4ba08;}.cls-4{fill:#f5ba08;}.cls-5{fill:#f3b909;}.cls-6{fill:#f5bb07;}.cls-7{fill:#f6bb07;}.cls-8{fill:#f6bc07;}.cls-9{fill:#f6bc06;}</style></defs><g id="Layer_2" data-name="Layer 2"><g id="Layer_1-2" data-name="Layer 1"><circle class="cls-1" cx="437.9" cy="437.9" r="369"/><path class="cls-2" d="M437.9,875.8A438,438,0,0,1,267.45,34.42a438,438,0,0,1,340.9,807A435.1,435.1,0,0,1,437.9,875.8Zm0-849.8C210.78,26,26,210.78,26,437.9S210.78,849.8,437.9,849.8,849.8,665,849.8,437.9,665,26,437.9,26Z"/><path class="cls-2" d="M355.32,437.52c0-15.13,0-30.26.05-45.39,0-2-1.21-5.27,2.81-5.12,17.69.66,35.55-1.49,53,2.32,20.35,4.43,31.57,17.45,33.92,38.31,4.21,37.28-16.88,61-54.42,61.14-9.7,0-19.42-.38-29.08.16-5.65.32-6.54-1.72-6.42-6.75C355.53,467.31,355.32,452.41,355.32,437.52Zm22.9.53c0,9.21-.06,18.41,0,27.62,0,1.61-1,3.65,1.79,4.61,9.41,3.2,28-2.13,34.34-10.57,8.67-11.6,9.42-24.6,4-37.5-5.08-12.07-15.77-16.09-28.22-16.23a61.85,61.85,0,0,1-7.08-.07c-4.27-.55-5,1.46-4.94,5.23C378.37,420.1,378.22,429.08,378.22,438.05Z"/><path class="cls-2" d="M331.36,411.17a74.75,74.75,0,0,0-25-6.38c-27.07-2-39.93,19.59-35.2,43,3.56,17.67,19.17,27.07,36.76,23,3.5-.81,5-2,5.1-6,.28-15.19.46-15.42-15-15.45-4.72,0-5.29-1.7-5.27-5.74,0-12.74-.12-12.74,12.39-12.74,8.51,0,17,.17,25.54-.08,3.77-.11,5.43.66,5.35,4.93-.26,14.18-.21,28.36,0,42.54,0,3.11-1.07,4.64-3.82,5.8-18.58,7.79-37.67,9.39-56.62,2.56-22.12-8-33.56-31.53-28.86-56.84,4.64-24.95,21.58-40.63,47-43.75,10.94-1.34,21.66-.23,32.32,2.2,3.55.81,5.83,2.19,5.41,6.63C331,400,331.36,405.18,331.36,411.17Z"/><path class="cls-2" d="M603.1,443.18c15.22,12.17,22,29.92,33.94,45.61-9,0-16.73-.1-24.42,0-2.78.06-3.49-1.89-4.58-3.67-5.29-8.65-10.57-17.3-15.92-25.91a25.35,25.35,0,0,0-6.5-7.42,11,11,0,0,0-10.2-1.26c-2.72,1-1.11,4.61-1.17,7-.18,8.75-.28,17.5,0,26.24.14,4.09-1.22,5-5.15,5.07-17.82.25-17.81.38-17.81-17.16,0-26,.19-52-.16-78-.07-5.79,1.71-7.07,7.12-6.8,12.27.61,24.59.41,36.87.92,15.58.64,26.26,8.16,28.61,19.65,3.16,15.47-3,27.22-18.15,34.38C604.81,442.22,604.05,442.67,603.1,443.18ZM574.17,418.4v2.82c0,13.41,0,13.41,13.21,10.87,9-1.74,13.82-7.74,12.91-16.21-1-8.92-6.85-12.37-21.41-11.11-9.47.82-2.69,8.74-4.7,12.93A1.82,1.82,0,0,0,574.17,418.4Z"/><path class="cls-2" d="M489.43,387c5.28.28,12.92.07,20.35,1.18,17,2.55,25.52,12.15,26.56,28.79s-8.19,30-24.15,34.66c-7.08,2.07-14.42,2.47-21.72,2.43-4.16,0-5.82,1-5.59,5.51.4,8-.07,16.06.19,24.07.12,3.83-.77,5.2-5,5.28-18,.31-18,.47-18-17.67,0-25.74.2-51.48-.15-77.21-.08-6.06,1.75-7.69,7.53-7.15S481.25,387,489.43,387ZM485,420.62c0,4,.07,8,0,12-.05,2.18.32,3.67,3,3.59,5.16-.17,10.39.67,15.42-1.22,7.37-2.78,10.56-10.13,8.43-19.42-1.9-8.31-10.46-12.7-23.28-10.57-7.7,1.28-1.67,8.16-3.47,12.08C484.59,418.09,485,419.44,485,420.62Z"/><path class="cls-3" d="M635.57,569.74c7.31,0,13.47-.63,19.43.18,6.16.83,8.4-1.51,9.47-7.13,1.13-6,3.07-11.79,5.21-19.74,2.08,7.47,4.07,12.81,5,18.34,1.11,6.74,3.85,9.62,11.13,8.46,5.5-.88,11.26-.18,18.26-.18-6.45,4.2-12.09,8.1-18,11.6-3.37,2-4.48,3.88-2.64,7.85A91.42,91.42,0,0,1,689.87,609c-5.33-4.22-10.85-8.23-15.92-12.74-3-2.7-5.1-3-8.28-.16-5,4.57-10.56,8.6-16.69,13.51a43.67,43.67,0,0,1,5.42-16.21c3.92-7.29,2.16-11.33-5-14.69C644.77,576.54,640.72,573.14,635.57,569.74Z"/><path class="cls-4" d="M149.62,463.79c3.11-8.23,8.57-15.66,7.62-22.16s-11-8.38-16.61-12.86c-1.2-.95-3.07-1.23-3.73-3.69,7.35.37,14.33.53,21.27,1.15,3.79.33,5.46-.9,6.31-4.63,1.56-6.83,3.63-13.55,6-22.18,2.35,8.44,4.48,15.12,6,21.93.91,4.06,2.73,5.28,6.81,4.87a90.83,90.83,0,0,1,20.76.14c-5.6,3.66-11.07,7.53-16.83,10.9-3.7,2.15-4.73,4.24-2.84,8.39,2.8,6.17,4.89,12.66,8,21-6.6-5.27-11.88-9-16.57-13.38-3.81-3.56-6.49-3.66-10.52-.14C160.88,457,156.84,461.89,149.62,463.79Z"/><path class="cls-3" d="M705.79,401.5c1.78,6.6,3.78,13.15,5.27,19.81.89,4,2.72,5.33,6.83,4.91a108.09,108.09,0,0,1,21-.13c-5.15,3.41-10,7.29-15.5,10.1-5.71,2.94-6.42,6.38-3.55,11.69,1.67,3.09,2.64,6.57,3.81,9.91.58,1.64,2.44,3.69.35,5-1.93,1.23-3.29-1.2-4.7-2.25-3.22-2.39-6.61-4.69-9.34-7.58-3.64-3.87-6.33-3.17-9.93.15-4.8,4.43-10.15,8.27-16.77,13.56,2.94-7.9,4.8-14.22,7.63-20.07,2.41-5,1-7.46-3.42-10A78.34,78.34,0,0,1,672,425.14c6.66.33,13.35.41,20,1.07,4.28.42,6.36-.73,7.29-5.17,1.38-6.62,3.51-13.08,5.32-19.61Z"/><path class="cls-4" d="M543.37,197.36c6.83.32,13.69.32,20.47,1,4.24.46,5.9-1,6.8-4.95,1.53-6.66,3.52-13.21,5.86-21.81,2.37,8.44,4.51,15,6,21.77.9,4,2.56,5.41,6.76,5a97.5,97.5,0,0,1,20.9.11c-5.73,3.76-11.37,7.68-17.23,11.21-3.38,2-4.44,3.91-2.62,7.86a81.45,81.45,0,0,1,6.14,19.74c-5.39-4.31-11-8.42-16.09-13-3-2.64-4.92-2.31-7.71.1-5.29,4.6-10.89,8.84-18,14.57,2.64-7,4-12.24,6.56-16.87,3.85-7,2.72-11.34-4.65-14.81-4.84-2.28-9.08-5.83-13.59-8.81Z"/><path class="cls-5" d="M458,200.51c-4.77-3.84-9.9-7.31-14.21-11.61-4.55-4.54-7.93-3.82-12.22.23s-9.38,7.66-15.76,12.78c3.07-8.09,5.12-14.33,7.81-20.28,2-4.43,1.53-7.09-3-9.58C415,169,409.8,165,403.9,161.13c7.63,0,14.42-.34,21.15.13,4.13.29,6-.88,6.88-4.89a96.4,96.4,0,0,1,6.5-19.67c1.76,6.43,3.74,12.82,5.2,19.32.95,4.25,2.88,5.59,7.3,5.23,6.54-.53,13.15-.13,20.87-.13-5.67,3.73-10.55,7.51-15.93,10.32s-6.05,6-3.56,11.22c2.62,5.48,4.49,11.32,6.69,17Z"/><path class="cls-6" d="M226,329.07c-5.13-4.11-10.46-8-15.33-12.43-3.4-3.08-5.64-3.33-9.42-.15-4.66,3.94-8.82,9-16.24,11,2.6-6.78,4.6-12.65,7.12-18.29,1.64-3.66,1.27-5.79-2.43-7.92a93.3,93.3,0,0,1-16.91-12.41c6.74.32,13.52.35,20.21,1.07,4.53.5,6.22-1.18,7.12-5.39,1.42-6.6,3.45-13.08,5.75-21.55,2,7.45,4,13,5,18.72,1.12,6.38,3.66,9.42,10.72,8.19a58.56,58.56,0,0,1,17.87.08c-5.56,3.68-10.93,7.71-16.74,10.93-4.32,2.39-4.58,4.85-2.72,9,2.68,6,4.73,12.24,7.05,18.37Z"/><path class="cls-4" d="M171.92,569.85c7.94,0,14.79-.24,21.61.1,3.72.18,5.48-.71,6.32-4.58,1.5-6.89,3.65-13.63,5.71-21.1,3.24,6.72,4.44,13.42,6,19.92,1.09,4.52,2.87,6.14,7.64,5.75,6.5-.52,13.08-.13,20.59-.13-4.45,3-8.4,5.6-12.37,8.21-9.53,6.27-9.53,6.26-5.38,17.26A57.69,57.69,0,0,1,225.89,609c-4.8-3.85-10-7.3-14.28-11.66s-7.55-3.67-11.65.21c-4.43,4.18-9.45,7.74-15.88,12.91,2.81-7.59,4.38-13.53,7.15-18.84,3.13-6,1.44-9.12-4.14-12C181.91,577,177.22,573.32,171.92,569.85Z"/><path class="cls-6" d="M319.35,237.66c-5.42-4.36-11-8.51-16.19-13.16-3.15-2.85-5.19-2.49-8.3.09-4.9,4.08-9.47,8.77-16.88,12.36,2.75-7.43,4.53-13.49,7.22-19.11,2-4.26.63-6.25-2.85-8.36a104,104,0,0,1-16.53-12.13c6.75.31,13.54.3,20.25,1,4.52.5,6.24-1,7.16-5.33,1.41-6.58,3.56-13,5.91-21.3,2.42,8.82,4.45,15.59,6.08,22.45.82,3.42,2.37,4.53,5.9,4.22,7-.61,14.1-.74,23.36-1.18C327.26,202,322,206,316.18,209.17c-4.59,2.49-4.94,5.17-3,9.54,2.66,5.95,4.76,12.15,7.1,18.24Z"/><path class="cls-6" d="M636.83,288.89c6.58.33,13.19.44,19.75,1.06,4.23.41,6.36-.67,7.28-5.16,1.36-6.64,3.52-13.11,5.88-21.6,2.43,8.79,4.54,15.57,6.12,22.47.79,3.45,2.23,4.62,5.74,4.33a128.81,128.81,0,0,1,21.9-.08c-5.73,3.77-11.29,7.86-17.26,11.21-4,2.26-4.28,4.52-2.65,8.48,2.26,5.48,5.15,10.88,6,17.93-6.52-2.87-10.71-7.08-15-10.86-3.55-3.1-5.88-3.44-9.45-.16-5,4.55-10.46,8.51-17.3,14,3.11-8.2,5.34-14.61,8-20.84,1.6-3.78,1.64-6.22-2.54-8.51-5.9-3.23-11.34-7.29-17-11C636.44,289.72,636.63,289.3,636.83,288.89Z"/><path class="cls-7" d="M318.92,700.48c-4.94-4-10.11-7.7-14.76-12-3.56-3.27-6.17-3.83-10-.21-4.73,4.5-10.14,8.3-16.93,13.75,3.14-8.41,5.25-15,8.09-21.34,1.79-4,.76-5.81-2.69-7.85a97,97,0,0,1-16.73-12.35c6.43.36,12.88.44,19.27,1.16,4.81.55,7.24-.58,8.17-5.79,1.16-6.41,3.39-12.63,5.74-21,2.19,8.06,4.16,13.95,5.32,20,1,5.26,3.09,7.6,8.86,6.88,5.3-.67,10.74-.14,17.56-.14-5.15,5.75-10.9,8.33-16,11.7-2.85,1.88-3.68,3.43-2.21,6.81,2.8,6.42,5,13.1,7.43,19.68Z"/><path class="cls-8" d="M542.75,661.57c8.07,0,14.21-.52,20.23.16,5.26.59,7-1.49,8-6.15a94.36,94.36,0,0,1,6-18.75c1.84,6.54,4,13,5.39,19.63.92,4.5,3,5.64,7.24,5.2,6.58-.67,13.2-.84,20.9-1.28-5.29,5.57-11.38,8.51-17,12-3.81,2.4-5.21,4.41-3.08,8.9a84.84,84.84,0,0,1,6.2,19.35c-5-3.95-10.15-7.64-14.8-11.92-3.74-3.45-6.55-4-10.52-.21a73,73,0,0,1-15.88,11.35c2.35-6.21,4.5-12.51,7.13-18.6,1.66-3.86,1.5-6.25-2.61-8.48C554.7,669.86,549.76,666.17,542.75,661.57Z"/><path class="cls-9" d="M457.09,737.1c-4.55-3.63-9.38-7-13.56-11-4-3.8-7-4.25-11.16-.22-4.56,4.39-9.83,8-16.31,13.21,3.08-8.33,5.25-15.1,8.1-21.59,1.62-3.69.66-5.47-2.5-7.37-5.58-3.35-10.94-7.06-17.05-11a79.76,79.76,0,0,1,20.4-.34c4.59.5,6.13-1.52,7.05-5.47a95,95,0,0,1,6.39-19.19c1.73,6.39,3.65,12.74,5.13,19.19.91,4,2.48,5.94,7.05,5.47a65.15,65.15,0,0,1,19.6.61c-5.74,3.87-10.32,7.4-15.31,10.19-4.06,2.27-5.16,4.5-3.11,8.94,2.63,5.69,4.47,11.75,6.65,17.66Z"/></g></g></svg>