<svg xmlns="http://www.w3.org/2000/svg" viewBox="0 0 817.1 817.06"><defs><style>.cls-1{fill:#fefefe;}.cls-2{fill:#4959e7;}</style></defs><g id="Layer_2" data-name="Layer 2"><g id="Layer_1-2" data-name="Layer 1"><rect class="cls-1" x="140.78" y="241.63" width="515.61" height="351.72" rx="38.75"/><path class="cls-2" d="M0,408.3C.07,182.71,183.11-.07,408.9,0,634.45.07,817.22,183.21,817.1,409S633.66,817.3,407,817.06C182.52,816.82-.07,633.43,0,408.3ZM408.47,790.15c211.29,0,381.59-170.64,381.72-382.54C790.31,197.81,619.08,27,408.63,26.9,198.4,26.85,27,197.48,26.91,407,26.79,619.16,197,790.13,408.47,790.15Z"/><path class="cls-1" d="M417.86,336.8c3.76-10.14,11.12-12.39,21.47-11.94,19.93.86,39.92.43,59.88.19,4.83-.06,6.66.87,6.48,6.21-.45,12.63-.15,25.28-.15,37.93,0,13.14-.09,26.28.06,39.42,0,3.24-1,4.31-4.24,4.3-23-.08-45.92,0-68.88,0-1.25,0-3,.65-3.63-.72-.72-1.6,1.09-2.59,2-3.64q25.49-30.39,51.07-60.68a29.92,29.92,0,0,0,1.88-2.33c.7-1,2.4-1.77,1.7-3.28s-2.38-.79-3.61-.79c-20.46,0-40.92,0-61.39-.07-1.52,0-3.64,1.06-4.5-.83C415.29,339.12,417.36,338.16,417.86,336.8ZM247.73,241.71q34.95,0,69.9,0h82.14a1.34,1.34,0,0,1,1.19,1.94c-6.35,12.72-12.27,24.6-18.23,36.45-6.58,13.07-13.29,26.07-19.77,39.19-1.22,2.45-2.7,3.41-5.38,3.4q-54.18-.24-108.35-.32c-2.86,0-4.19-.75-4.25-3.9q-.67-36.69-1.65-73.37C243.23,241.38,245.32,241.7,247.73,241.71ZM373,413.14c-18,0-35.92,0-53.88.35-4.28.08-4.77-1.58-4.71-5.24.2-12.51.09-25,.08-37.55a1.34,1.34,0,0,1,1.34-1.34h.12a1.33,1.33,0,0,0,1.34-1.33c0-12.85.1-25.7-.07-38.55-.05-3.79,1.34-4.83,5-4.77,10.81.2,21.63.07,32.44.11,5.23,0,5.44.37,3.19,4.89q-14.24,28.55-28.52,57.09c-2.38,4.76-2.32,4.89,2.88,4.9,16.3,0,32.6.06,48.9-.06,3.57,0,5.05.45,3.07,4.36a144.15,144.15,0,0,0-5.65,13.3C377.46,411.93,376,413.15,373,413.14Zm.21,7.92c-9.29,22.25-18.66,44.47-27.86,66.76-1.33,3.22-3,4.54-6.64,4.48-14.81-.21-29.63-.09-44.44-.09-14.65,0-29.3-.12-43.94.09-3.74.05-4.81-1-4.74-4.76.37-21.64.44-43.28.69-64.92.07-6.73.17-6.72,7-6.75l116.35-.45C375.49,415.4,375.53,415.44,373.19,421.06ZM140.89,278.21a37.22,37.22,0,0,1,36.4-36.41c20-.25,39.93,0,59.89-.14,3,0,4,.78,4,3.88q.47,35.93,1.3,71.84c.11,4.08-1.31,5.06-5.15,5-15.3-.18-30.61-.08-45.91-.08v-.08c-15.47,0-30.95-.08-46.42.07-3.22,0-4.29-.86-4.24-4.18C141,304.83,140.7,291.51,140.89,278.21Zm4,135.59c-2.9,0-4.08-.6-4.07-3.81.12-27.13.16-54.27,0-81.4,0-4.1,2-4,4.9-4q41.19.1,82.39,0V325c27.13,0,54.27.12,81.4-.11,4.79-.05,5.77,1.47,5.57,5.95-1.12,25.94-2,51.89-2.82,77.84-.11,3.36-1,4.58-4.55,4.59Q226.25,413.4,144.85,413.8Zm166.46,85.93c-.57,19.78-.85,39.58-1,59.37,0,3.82-1.32,4.7-4.92,4.69q-79.59-.25-159.2-.18c-4.08,0-5.29-1.55-5.29-5.17,0-20.3,0-40.59-.12-60.89,0-3.89,2.42-3.18,4.64-3.18h80.85c26.45,0,52.9.09,79.35-.09C309.85,494.25,311.44,495.11,311.31,499.73ZM502.71,564q-92.38-.29-184.76-.15c-4.2,0-5.33-1.25-5.24-5.37q.66-29.46.73-58.92c0-4.26,1.48-5.44,5.5-5.24,5.65.29,11.32.06,17,.08,6.26,0,6.3.08,3.74,6.1q-5.46,12.86-11,25.7c-.37.88-.62,1.8-.92,2.71l1.11.51c6.53-7.7,13.72-14.95,19.39-23.23,6.15-9,13.38-12.07,24.42-11.88,42.77.73,85.56.37,128.34.2,4.77,0,6.2,1.3,6.18,6.11-.06,19.3.21,38.61.59,57.91C507.9,562.45,507.09,564,502.71,564Zm59.4-149c4.14,0,5.89.78,5.94,5.38.26,22.47.83,44.93,1.38,67.39.07,2.87-.09,4.58-3.81,4.58q-101.39-.17-202.75-.1h0a1.33,1.33,0,0,1-1-2.2c8.21-9.74,16-19,23.76-28.16,11.93-14.09,23.93-28.11,35.77-42.27a11,11,0,0,1,9.36-4.37Q496.45,415.28,562.11,414.94ZM559.44,323c-21.14-.26-42.28-.11-63.42-.11v-.16q-31.71,0-63.42,0c-1.4,0-3.31.76-4.11-.83s.78-2.75,1.54-3.95q23.14-36.45,46.3-72.89c1.61-2.55,3.46-3.42,6.47-3.4q38,.18,75.92,0c3.49,0,4.89.6,4.94,4.55q.42,35.44,1.46,70.89C565.24,321.55,564.2,323.08,559.44,323Zm96.9,165.35v-69.9Q656.16,453.42,656.34,488.37Zm0-85.21V329.09Q656.21,366.13,656.34,403.16ZM570.73,241.63c15.81.21,31.62,0,47.43.11,21.87.14,38,16.44,38.11,38.31,0,11.82-.16,23.65.07,35.47Z"/><path class="cls-2" d="M228,325c27.13,0,54.26.12,81.39-.11,4.8,0,5.77,1.47,5.58,5.95q-1.68,38.91-2.83,77.84c-.1,3.36-1,4.58-4.54,4.59q-81.4.14-162.79.54c-2.9,0-4.09-.6-4.07-3.81q.18-40.69,0-81.4c0-4.1,2-4,4.89-4q41.21.1,82.4,0Z"/><path class="cls-2" d="M360.42,491.74c8.75-10.39,17-20.16,25.23-29.91,11.93-14.09,23.93-28.11,35.76-42.27a11.07,11.07,0,0,1,9.37-4.37q65.67.09,131.33-.25c4.14,0,5.89.78,5.94,5.39.26,22.46.83,44.92,1.38,67.38.07,2.87-.09,4.58-3.82,4.58q-101.37-.17-202.74-.09A19.94,19.94,0,0,1,360.42,491.74Z"/><path class="cls-2" d="M399.15,566.36H648.76c6.4,0,6.6.19,3.69,5.77-7.37,14.16-19.13,21.19-35.09,21.19h-310c-42.93,0-85.87.11-128.8-.06-15.77-.07-27.17-7.71-34.2-21.77-2.62-5.24-2.28-5.65,3.71-5.65H399.15Z"/><path class="cls-2" d="M582.37,412.82c-23.47,0-46.94-.06-70.41.06-3.42,0-4.14-1.31-4.13-4.41q.14-39.69,0-79.39c0-3.41,1.28-4.19,4.4-4.18q70.17.17,140.32.1c3.24,0,3.81,1.19,3.8,4.09q-.14,39.45,0,78.9c0,3.64-1.24,4.38-4.58,4.36-23.13-.12-46.27-.06-69.41-.06Z"/><path class="cls-2" d="M328.9,529.39c6.52-7.7,13.71-14.94,19.38-23.23,6.16-9,13.39-12.07,24.43-11.88,42.77.73,85.56.37,128.33.2,4.77,0,6.2,1.3,6.19,6.11-.06,19.3.21,38.61.59,57.91.07,4-.74,5.48-5.11,5.47q-92.38-.29-184.77-.15c-4.19,0-5.32-1.24-5.23-5.37q.66-29.46.72-58.92c0-4.26,1.48-5.44,5.51-5.24,5.64.29,11.32.06,17,.08,6.26,0,6.31.08,3.75,6.1q-5.48,12.86-11,25.7c-.37.88-.61,1.8-.91,2.71Z"/><path class="cls-2" d="M226.28,494.36c26.45,0,52.9.09,79.35-.08,4.22,0,5.81.83,5.68,5.45-.57,19.78-.86,39.58-1,59.37,0,3.82-1.32,4.7-4.92,4.69q-79.6-.25-159.2-.18c-4.08,0-5.3-1.55-5.29-5.17,0-20.3,0-40.59-.12-60.88,0-3.9,2.42-3.19,4.64-3.19h80.85Z"/><path class="cls-2" d="M401.93,241.72c-6.73,13.45-12.93,25.94-19.2,38.39-6.58,13.07-13.29,26.07-19.78,39.19-1.21,2.45-2.7,3.42-5.38,3.4q-54.17-.24-108.34-.32c-2.86,0-4.19-.75-4.25-3.9q-.67-36.69-1.65-73.37c-.1-3.72,2-3.41,4.4-3.4q34.95,0,69.9,0h84.3Z"/><path class="cls-2" d="M582.84,494.36c22.79,0,45.58.12,68.37-.1,4.26,0,5.21,1.26,5.16,5.31-.21,19-.06,37.93-.11,56.89,0,7.72-.18,7.78-7.7,7.77-44.42,0-88.84-.14-133.25,0-4.4,0-5.63-1.16-5.6-5.57q.19-29.68-.32-59.38c-.07-4.07,1.21-5,5.07-5C537.25,494.45,560.05,494.36,582.84,494.36Z"/><path class="cls-2" d="M496,322.75q-31.71,0-63.43,0c-1.4,0-3.3.76-4.1-.83s.77-2.75,1.54-3.95q23.13-36.45,46.3-72.89c1.61-2.55,3.46-3.42,6.47-3.4q37.95.18,75.91,0c3.5,0,4.9.6,4.95,4.55q.42,35.44,1.45,70.89c.13,4.47-.92,6-5.67,5.93-21.14-.26-42.28-.11-63.42-.11Z"/><path class="cls-2" d="M294.25,492.21c-14.65,0-29.3-.12-43.95.09-3.73.05-4.8-1-4.74-4.76.38-21.64.45-43.28.69-64.92.08-6.72.18-6.72,7-6.74l116.35-.46c5.91,0,5.95,0,3.61,5.64-9.3,22.25-18.67,44.47-27.86,66.76-1.33,3.22-3,4.54-6.64,4.49C323.88,492.09,309.06,492.22,294.25,492.21Z"/><path class="cls-2" d="M191.85,492.22c-15.48,0-31-.13-46.44.09-3.84.06-4.68-1.14-4.65-4.8.17-22.3.21-44.6,0-66.9-.05-4.19,1.41-4.86,5.11-4.85q46.69.11,93.37-.16c3.9,0,5.14,1,5.07,5q-.6,33.44-.66,66.89c0,3.74-1.14,4.82-4.84,4.78C223.14,492.11,207.5,492.22,191.85,492.22Z"/><path class="cls-2" d="M191.43,322.24c-15.47,0-30.94-.08-46.41.07-3.22,0-4.29-.86-4.25-4.18.18-13.3-.08-26.62.12-39.92a37.22,37.22,0,0,1,36.4-36.41c20-.25,39.92,0,59.89-.14,3,0,4,.78,4,3.88q.47,35.93,1.3,71.84c.1,4.08-1.32,5.07-5.15,5-15.3-.18-30.61-.07-45.92-.07Z"/><path class="cls-2" d="M612.11,322.93c-13.32,0-26.63-.1-40,.06-3.45,0-4.54-1.07-4.61-4.54q-.66-35.94-1.76-71.86c-.12-4,1-5,4.94-5,15.8.21,31.62,0,47.43.11,21.87.14,38,16.44,38.11,38.32,0,12.64-.19,25.3.12,37.94.1,4.32-1.33,5.19-5.34,5.12-13-.25-26-.1-38.94-.1Z"/><path class="cls-2" d="M613.38,414.64c13,0,26,.08,39-.06,3,0,4,.75,4,3.89q-.18,34.95,0,69.9c0,3.12-1,3.92-4,3.9q-38.45-.15-76.89,0c-3,0-4-.83-4-3.92q-.69-34.19-1.79-68.36c-.15-4.23,1.19-5.37,5.3-5.3,12.81.24,25.63.09,38.44.09Z"/><path class="cls-2" d="M505.54,369.19c0,13.14-.09,26.28.06,39.42,0,3.24-1,4.31-4.25,4.3-23-.08-45.91,0-68.87,0-1.25,0-3,.65-3.64-.72-.72-1.6,1.1-2.59,2-3.64q25.49-30.37,51.06-60.68a27.76,27.76,0,0,0,1.88-2.33c.71-1,2.41-1.77,1.71-3.27s-2.38-.8-3.61-.8c-20.46,0-40.93,0-61.39-.07-1.52,0-3.64,1.06-4.5-.83-.68-1.49,1.39-2.45,1.89-3.81,3.76-10.14,11.12-12.39,21.47-11.94,19.92.86,39.92.43,59.88.19,4.83-.06,6.66.87,6.47,6.21C505.24,343.89,505.54,356.54,505.54,369.19Z"/><path class="cls-2" d="M317.26,369.37c0-13.3.11-26.59-.07-39.88-.05-3.8,1.35-4.84,5-4.77,10.81.19,21.62.06,32.43.1,5.24,0,5.45.37,3.2,4.89q-14.25,28.55-28.52,57.09c-2.38,4.76-2.33,4.89,2.88,4.9,16.3,0,32.6.06,48.9-.06,3.57,0,5,.45,3.06,4.36a144.07,144.07,0,0,0-5.64,13.3c-1,2.64-2.43,3.85-5.49,3.84-18,0-35.93,0-53.88.35-4.28.08-4.78-1.58-4.72-5.24.22-13,.09-25.92.09-38.89Z"/></g></g></svg>