<svg xmlns="http://www.w3.org/2000/svg" viewBox="0 0 875.79 875.79"><defs><style>.cls-1,.cls-3,.cls-4{fill:none;stroke:#4858e8;}.cls-1{stroke-miterlimit:10;stroke-width:26px;}.cls-2{fill:#4858e8;}.cls-3,.cls-4{stroke-linecap:round;stroke-linejoin:round;}.cls-3{stroke-width:59px;}.cls-4{stroke-width:34px;}</style></defs><g id="Layer_2" data-name="Layer 2"><g id="Layer_1-2" data-name="Layer 1"><circle class="cls-1" cx="437.9" cy="437.9" r="424.9"/><path class="cls-2" d="M507.67,457c-29.33,34.52-62.69,31.72-84.74,5.76s-24.44-65.25,4.89-99.77,71-41.47,93-15.51S537,422.5,507.67,457Z"/><path class="cls-2" d="M499.54,372.6c-11.64-13.7-14-33.15-5.23-43.44s25.27-7.54,36.9,6.15,14,33.14,5.22,43.44S511.17,386.29,499.54,372.6Z"/><path class="cls-2" d="M490.25,388.84a4.33,4.33,0,0,1-3.67-2.22L449.66,326a6.11,6.11,0,0,1-.81-3.72l3.78-37.37c.29-2.91,2.54-5,5-4.64s4.24,3,3.95,5.9L458,321.5l35.9,58.93a5.94,5.94,0,0,1-1,7.41A4,4,0,0,1,490.25,388.84Z"/><path class="cls-2" d="M541.73,432.31a4.07,4.07,0,0,1-2.63-1l-51.48-43.47a5.94,5.94,0,0,1-1-7.41,4.09,4.09,0,0,1,6.3-1.22l50.06,42.26,30-4.2c2.49-.39,4.72,1.73,5,4.65s-1.48,5.55-4,5.9l-31.74,4.44A3.17,3.17,0,0,1,541.73,432.31Z"/><path class="cls-2" d="M460.78,423.53a4,4,0,0,1-2.62-1L408.1,380.27l-30,4.2c-2.49.4-4.73-1.73-5-4.65s1.47-5.55,4-5.9l31.74-4.44a3.91,3.91,0,0,1,3.16.95l51.48,43.47a5.93,5.93,0,0,1,1,7.41A4.32,4.32,0,0,1,460.78,423.53Z"/><path class="cls-2" d="M493.94,521.5a3.29,3.29,0,0,1-.54,0c-2.48-.34-4.25-3-3.95-5.9L493,480.24l-35.9-58.93a5.94,5.94,0,0,1,1-7.41,4.08,4.08,0,0,1,6.29,1.22l36.92,60.6a6.06,6.06,0,0,1,.82,3.73l-3.78,37.36C498.14,519.51,496.19,521.5,493.94,521.5Z"/><path class="cls-2" d="M544.38,487.26a4.18,4.18,0,0,1-3.19-1.56L403.46,323.55a6,6,0,0,1,0-7.51,4.05,4.05,0,0,1,6.38,0L547.57,478.19a6,6,0,0,1,0,7.51A4.17,4.17,0,0,1,544.38,487.26Z"/><path class="cls-2" d="M525.85,346.92a3.86,3.86,0,0,1-1.78-.43c-2.29-1.16-3.34-4.28-2.36-7,.38-1.08,9.12-26.31-11.17-44.47a6,6,0,0,1-.87-7.44,4.08,4.08,0,0,1,6.33-1c20.81,18.62,18.26,45.51,14,57.13A4.56,4.56,0,0,1,525.85,346.92Z"/><path class="cls-2" d="M569,361.74a4.31,4.31,0,0,1-3.6-2.1c-15.42-23.89-36.86-13.59-37.77-13.15-2.29,1.14-4.94-.1-5.92-2.8s.08-5.8,2.36-7c9.86-5,32.7-8,48.52,16.48a5.94,5.94,0,0,1-.87,7.44A4,4,0,0,1,569,361.74Z"/><rect class="cls-3" x="214.69" y="622.82" width="137.47" height="0.81" transform="translate(937.28 826.23) rotate(131.7)"/><circle class="cls-4" cx="474.06" cy="403.84" r="202.81"/></g></g></svg>