<svg viewBox="0 0 64 64" fill="none" xmlns="http://www.w3.org/2000/svg">
<path d="M46.5185 20.5926C48.2367 20.5926 49.6296 19.1997 49.6296 17.4815C49.6296 15.7633 48.2367 14.3704 46.5185 14.3704C44.8003 14.3704 43.4074 15.7633 43.4074 17.4815C43.4074 19.1997 44.8003 20.5926 46.5185 20.5926Z" />
<path d="M32 17.4815C29.1285 17.4815 26.3215 18.333 23.934 19.9283C21.5464 21.5236 19.6855 23.7911 18.5867 26.444C17.4878 29.0969 17.2003 32.0161 17.7605 34.8324C18.3207 37.6487 19.7034 40.2357 21.7339 42.2661C23.7643 44.2966 26.3513 45.6793 29.1676 46.2395C31.9839 46.7997 34.9031 46.5122 37.556 45.4134C40.2089 44.3145 42.4764 42.4536 44.0717 40.066C45.667 37.6785 46.5185 34.8715 46.5185 32C46.5185 28.1494 44.9889 24.4566 42.2662 21.7339C39.5434 19.0111 35.8506 17.4815 32 17.4815ZM32 41.4245C30.136 41.4245 28.3139 40.8718 26.764 39.8362C25.2142 38.8006 24.0062 37.3287 23.2929 35.6066C22.5796 33.8845 22.3929 31.9895 22.7566 30.1614C23.1202 28.3332 24.0178 26.6539 25.3359 25.3358C26.6539 24.0178 28.3332 23.1202 30.1614 22.7565C31.9896 22.3929 33.8845 22.5795 35.6066 23.2928C37.3288 24.0062 38.8007 25.2141 39.8363 26.764C40.8718 28.3139 41.4246 30.136 41.4246 32C41.4246 34.4995 40.4316 36.8967 38.6642 38.6642C36.8967 40.4316 34.4996 41.4245 32 41.4245Z" />
<path d="M32 9.04467C39.476 9.04467 40.3627 9.07267 43.3143 9.208C45.0896 9.22908 46.8481 9.55504 48.513 10.1717C49.7209 10.6376 50.8178 11.3513 51.7333 12.2667C52.6487 13.1822 53.3624 14.2791 53.8283 15.487C54.445 17.1519 54.7709 18.9104 54.792 20.6857C54.9273 23.6373 54.9553 24.524 54.9553 32.0023C54.9553 39.4807 54.9273 40.3627 54.792 43.3143C54.7709 45.0896 54.445 46.8481 53.8283 48.513C53.3624 49.7209 52.6487 50.8178 51.7333 51.7333C50.8178 52.6487 49.7209 53.3624 48.513 53.8283C46.8481 54.445 45.0896 54.7709 43.3143 54.792C40.3627 54.9273 39.476 54.9553 32 54.9553C24.524 54.9553 23.6373 54.9273 20.6857 54.792C18.9104 54.7709 17.1519 54.445 15.487 53.8283C14.2791 53.3624 13.1822 52.6487 12.2667 51.7333C11.3513 50.8178 10.6376 49.7209 10.1717 48.513C9.55504 46.8481 9.22908 45.0896 9.208 43.3143C9.07267 40.3627 9.04467 39.476 9.04467 32C9.04467 24.524 9.07267 23.6373 9.208 20.6857C9.22908 18.9104 9.55504 17.1519 10.1717 15.487C10.6376 14.2791 11.3513 13.1822 12.2667 12.2667C13.1822 11.3513 14.2791 10.6376 15.487 10.1717C17.1519 9.55504 18.9104 9.22908 20.6857 9.208C23.6373 9.07267 24.524 9.04467 32 9.04467V9.04467ZM32 4C24.3957 4 23.4413 4.03267 20.4547 4.168C18.1325 4.21489 15.835 4.65513 13.66 5.47C11.7997 6.18936 10.1102 7.28948 8.69984 8.69984C7.28948 10.1102 6.18936 11.7997 5.47 13.66C4.65487 15.8358 4.21463 18.134 4.168 20.457C4.03267 23.4437 4 24.3933 4 32C4 39.6067 4.03267 40.5587 4.168 43.5453C4.21489 45.8675 4.65513 48.165 5.47 50.34C6.18936 52.2003 7.28948 53.8898 8.69984 55.3002C10.1102 56.7105 11.7997 57.8106 13.66 58.53C15.8358 59.3451 18.134 59.7854 20.457 59.832C23.4437 59.9673 24.3957 60 32 60C39.6043 60 40.5587 59.9673 43.5453 59.832C45.8683 59.7854 48.1666 59.3451 50.3423 58.53C52.2026 57.8106 53.8921 56.7105 55.3025 55.3002C56.7129 53.8898 57.813 52.2003 58.5323 50.34C59.3467 48.1641 59.7861 45.8658 59.832 43.543C59.9673 40.5563 60 39.6067 60 32C60 24.3933 59.9673 23.4413 59.832 20.4547C59.7851 18.1325 59.3449 15.835 58.53 13.66C57.8106 11.7997 56.7105 10.1102 55.3002 8.69984C53.8898 7.28948 52.2003 6.18936 50.34 5.47C48.1641 4.65567 45.8658 4.21621 43.543 4.17033C40.5563 4.03033 39.6067 4 32 4Z" />
</svg>
