<svg xmlns="http://www.w3.org/2000/svg" viewBox="0 0 875.8 875.8"><defs><style>.cls-1{fill:#4858e8;}.cls-2{fill:none;}.cls-3{fill:#0d5794;}.cls-4{fill:#fdfdfd;}.cls-5{fill:#0c5694;}.cls-6{fill:#0e5795;}.cls-7{fill:#0f5895;}.cls-8{fill:#105996;}.cls-9{fill:#cdcec8;}.cls-10{fill:#f9fafc;}.cls-11{fill:#fefefe;}.cls-12{fill:#fcfcfc;}.cls-13{fill:#0a5593;}.cls-14{fill:#cbcdc8;}</style></defs><g id="Layer_2" data-name="Layer 2"><g id="Layer_1-2" data-name="Layer 1"><path class="cls-1" d="M437.9,875.8A438,438,0,0,1,267.45,34.42a438,438,0,0,1,340.9,807A435.1,435.1,0,0,1,437.9,875.8Zm0-849.8C210.78,26,26,210.78,26,437.9S210.78,849.8,437.9,849.8,849.8,665,849.8,437.9,665,26,437.9,26Z"/><circle class="cls-2" cx="437.9" cy="437.9" r="387"/><path class="cls-3" d="M433.33,49.69c212.4-2.82,388.14,168,391.52,381.21,3.42,216.27-168.73,389.31-377.37,394.22-217.15,5.11-391.81-168-396.64-378.26C45.81,227.69,221.6,51.54,433.33,49.69ZM60,437.22C60.1,645,226.76,811.83,429.9,815.92c211.44,4.26,382.57-165.59,385.76-372.44,3.24-210.31-166-384.84-378-384.65C226.74,59,60.08,230.8,60,437.22Z"/><path class="cls-4" d="M60,437.22C60.08,230.8,226.74,59,437.65,58.83c212-.19,381.25,174.34,378,384.65-3.19,206.85-174.32,376.7-385.76,372.44C226.76,811.83,60.1,645,60,437.22Zm518.49-273,.59.84a12.64,12.64,0,0,1-.48,1.39c-1.38,2.86-3,5.47-6.74,5.28s-6.45-2.67-7.54-6.69c-.68-2.51-3.15-3.07-4.85-3.07-2.13,0-1.26,2.43-1.29,3.86a7.81,7.81,0,0,0,1.78,4.75c7.09,9.63,19.56,8.66,24.7-2,3.63-7.5,7.1-15.07,10.53-22.66.52-1.14,2.59-2.73,0-3.8-1.88-.76-4.07-3.55-5.66.61-3.7-8.37-12.06-10.5-18.81-5-3.89,3.16-5.72,7.47-6.94,12.23C561.38,159,569.29,167.47,578.46,164.2Zm-140.7,10.18C295.28,174,174.94,289.06,174.76,437c-.18,146.43,117,260.42,257.09,263.41C580.27,703.61,699.14,585,700.92,440.92,702.75,293.15,583.22,174,437.76,174.38Zm22.33-69.49h.6c0,1.21,0,2.42,0,3.62-.17,8-.26,16-.56,23.94-.13,3.46,2.45,2.28,4.06,2.65,1.77.4,2.6-.25,2.63-2.32.15-12.41.45-24.81.68-37.22,0-.69.34-1.8-.41-2-2.62-.73-5.34-.44-8-.39-1.92,0-1.68,1.86-2.08,3-3.29,9.44-6.52,18.91-10,29.11L438.82,99c-2.11-6.83-2.11-6.74-9.2-6.55-2,0-2.43.71-2.46,2.56-.17,12.28-.38,24.57-.74,36.85-.09,3.06,1.77,2.48,3.57,2.59,2,.13,3.22-.14,3.13-2.69-.14-4.05.14-8.1.18-12.16,0-4.32,0-8.63,0-13.5,2.16,1,2.15,2.33,2.5,3.41,2.34,7.36,4.73,14.71,7,22.1.58,1.93,1,3.27,3.57,3.17,2.25-.09,3.43-.52,4.21-2.87C453.58,122.84,456.89,113.88,460.09,104.89ZM336,758.09a17.06,17.06,0,0,0,12.9-5.27c5.05-5.12,4.92-5.75-1.67-8.35-1.53-.6-2.77-1.64-4.34.49-3.36,4.55-6.69,5.57-11.11,4.09-4.85-1.62-7.81-5.29-7.82-10.45a20,20,0,0,1,7.68-16.44c5.65-4.45,15-1.58,16.21,5.47.77,4.31,3.24,5.19,6.36,6.59s3.41.12,3.61-2.43c.82-10.54-8.14-19.74-19.89-20.29-10.85-.51-20.08,7.3-23,19.46C311.45,745.19,321.45,758.06,336,758.09Zm219.11-33c-3.43-1-6-1.46-8.74-.7-6.85,1.9-10.66,7.46-10.17,15,.55,8.64,6.85,16.89,13.89,17.82,6.75.89,11.85-1.77,15.15-8.38.44,2.67,1.48,3.53,3.55,2.3a8.27,8.27,0,0,1,1-.46c4.52-1.8,4.52-1.8,2.68-6.48q-6.2-15.71-12.39-31.41c-2.15-5.45-2.09-5.33-7.77-3.2-2.28.85-2.74,1.7-1.71,3.94C552.18,717.14,553.41,720.84,555.07,725.13Zm81.67-553.78c3-3.32-.45-4.07-2-5.25-2.18-1.61-2.58,1.12-3.37,2.09-5,6.09-9.64,12.42-14.65,18.47-1.75,2.12-1.19,3,.65,4.51s2.92,1.77,4.51-.45c3.14-4.4,6.51-8.65,10-12.74,2.61-3,6.27-3.4,8.83-1.31s2.48,4.19-.41,8c-3.35,4.39-6.68,8.82-10.28,13-2,2.33-.26,3,1.11,4.22s2.52,1.93,4.07-.19c3.33-4.55,6.84-9,10.54-13.26,2.94-3.38,5.77-3.54,8.62-1.1,3.15,2.71,1.56,5.25-.31,7.7-3.59,4.68-7.17,9.36-10.9,13.93-1.7,2.09.33,2.6,1.3,3.22s1.92,3.22,3.73.88c4.43-5.74,9-11.35,13.22-17.25,2.74-3.85,2-7.67-1.38-10.93a10.12,10.12,0,0,0-8.33-3.12c-.93.09-2,.8-2.47-1.09C647.42,173.25,645.17,171.61,636.74,171.35ZM772.83,421.14c4.8.77,3.51-2.21,3.53-4.22,0-3.06-2.43-1.81-3.81-1.82-7.74,0-15.49.25-23.23.12-2.83-.05-3.44.82-3.49,3.52-.07,3.06,1.47,3,3.62,2.94,5.17-.11,10.34-.23,15.49-.06,4.19.14,6.9,2.86,6.81,6.29-.09,3.16-2,4.52-6.68,4.58-5.29.07-10.58.19-15.86.06-2.34-.06-3.17.51-3.13,3s.49,3.42,3.21,3.38c5.89-.08,11.81-.48,17.68.25,3.3.41,5.13,2.5,4.94,5.79s-2.36,4.62-5.53,4.63c-5.9,0-11.8.17-17.7.06-2.31,0-2.82,1-2.46,2.87.28,1.5-1,3.86,2.34,3.74,6.63-.23,13.28,0,19.91-.26,7.18-.31,11.43-7,7.94-13.31-1.94-3.52-2.74-5.42-.13-9.14C779.1,429.55,776.88,425.1,772.83,421.14Zm-518.66-231c0-10.18-8.23-15.83-16.37-12.63-3.77,1.49-7.48,3.1-11.24,4.59a4.53,4.53,0,0,1-5.07-1.21,4.76,4.76,0,0,1-1.26-5.08c1.55-5,8.26-7.62,12.52-4.67,3.32,2.29,4.31-1.17,5.86-2.39,2-1.61-.64-2.46-1.46-3.12-6.08-4.92-15.89-2.54-21.15,5-3.39,4.85-3.4,10.39,0,14.69s8,5.36,13.91,3c3.52-1.41,7-2.92,10.56-4.28a4.71,4.71,0,0,1,5.61,1.54,5.54,5.54,0,0,1,1.24,5.81A10.08,10.08,0,0,1,232,196.16c-3.05-2.24-3.89,1.28-5.53,2.27-2,1.21.11,2.29.92,3,4.6,4,9.84,5,15.36,2.26C249,200.62,253.61,196.17,254.17,190.14Zm498.14,98.7a17.55,17.55,0,0,0-4.52-12.16c-4.06-4.77-9.71-6-14.88-3.45s-6.86,6.92-5.55,13.4c.73,3.6,1.64,7.19,2.09,10.83a5.54,5.54,0,0,1-7.72,5.75c-4.84-2.11-8.83-11.66-2.93-16,3.57-2.65,0-4.55-1-6.31-1.18-2.18-2.5.25-3.37.95-4.83,3.86-6.24,8.95-4.51,14.82,1.89,6.41,5.2,11.93,12.23,13.42,8.83,1.87,15.89-5.45,14.11-14.14-.74-3.6-1.61-7.17-2.24-10.79-.73-4.29,2.91-7.75,6.52-6.24,4.61,1.93,7.71,10.09,3.17,13.48-.75.55-1.79,1.13-1.12,2.36.88,1.59,1.52,4,2.82,4.49,1.6.55,3.14-1.51,4.27-2.94A11,11,0,0,0,752.31,288.84ZM116.6,344.59c-3.92-2.5-3.95.24-4.74,2.07-1.11,2.59.89,2.75,2.45,3.28,7.77,2.62,15.6,5.12,23.32,7.91,3,1.11,2.83-1.22,3.52-2.7s1.08-2.78-1.28-3.47c-4.82-1.39-9.55-3.11-14.31-4.68a10.43,10.43,0,0,1-4.42-2.54c-2-2.09-2.55-4.48-1.06-7.06s3.73-2.41,6.13-1.61c5.23,1.75,10.49,3.41,15.69,5.26,2.32.83,3.74,1.2,4.76-1.95s-.31-3.42-2.57-4.14c-5.25-1.66-10.48-3.41-15.58-5.47-3.55-1.44-4.64-4.29-3.39-7.44,1.36-3.45,4-3.51,7-2.5,5.58,1.86,11.23,3.53,16.74,5.59,2.51.94,2.68-.55,3.07-2.11s2-3.09-.85-4c-6.42-2-12.74-4.35-19.19-6.29-5.84-1.76-9.71.57-11.53,6.44a9.64,9.64,0,0,0,.8,7.8c.33.62,1.15,1.12-.18,1.94C114.16,333.12,113.06,336.73,116.6,344.59Zm269.67,417.6c-5.35-1.75-5.35-1.75-10.26.12-4.5,1.71-9.93-1-10.66-5.41-.56-3.3.12-3.95,3.42-3.15,5.47,1.33,10.94,2.67,16.39,4.1,2.25.59,3.26.09,3.65-2.4a18.71,18.71,0,0,0-1.49-11.81c-3.92-7.67-14.59-10.51-22.29-6-8.06,4.72-11,17.22-5.84,24.93,4.73,7.11,16.73,9.37,23.24,4.38A11.56,11.56,0,0,0,386.27,762.19ZM502.45,751a25.92,25.92,0,0,0,.35,3.13c1.25,6.15,4.3,11.12,10.48,13.13,6.41,2.08,12.39.5,17.56-3.76,2.59-2.13,3.58-5.19,4.14-8.4.15-.82,0-1.85-.86-1.5-2.54,1-5.71,0-7.5,3.48-2.7,5.2-10.3,5.44-13.15.8-1.18-1.91-1.38-3.08,1.47-3.67,5.87-1.22,11.66-2.87,17.51-4.22,1.6-.37,2.32-.78,1.92-2.66-1.78-8.47-9-14.09-17.29-13.25C508.47,735,502.49,741.53,502.45,751ZM132.29,295.6a8.74,8.74,0,0,0,2.46,6.73c.84.84,2.1,2.77,3.12,1.48s3.39-3.31,1.67-5.6c-2.43-3.23-1.29-6,.7-8.68,1.17-1.6,2.72-2.5,4.76-1.52s2.23,2.64,1.59,4.64c-1,3-2,6.06-2.68,9.16-.93,4.12.83,7.43,4.67,9.37s7.85,1.34,10.67-1.87a13.73,13.73,0,0,0,3.43-8.72c.08-2.14-.58-4.27,2.8-4.78,1.79-.27,2.31-2.65,2.87-4.43.34-1.08.23-2-.95-2.36s-2.16-2-3.21-.67c-1.62,2.08-3.05.81-4.5.12q-6.12-2.93-12.18-6a8,8,0,0,0-9.82,1.41A17.84,17.84,0,0,0,132.29,295.6ZM488.12,107.24c-4.22-.18-7.79,1.08-10.05,4.83-.62,1-2,2.87-.59,3.48,1.72.73,4.36,2.19,5.93-.11,2.1-3.09,4.79-3,7.77-2.27,2.17.55,3.86,1.73,3.59,4.34s-2.26,2.92-4.31,3c-3.07.1-6.17-.14-9.19.24-4.66.57-7.15,3.57-7.35,8.2-.21,4.83,2.12,8.12,6.62,9.26a13.93,13.93,0,0,0,7.63,0c2.22-.69,4.12-1.81,5.7,1.23.73,1.39,2.84,1.18,4.45,1.1,1-.05,2.4.3,2.43-1.4,0-1.27,1.57-2.9-.78-3.67-1.6-.52-1.39-1.71-1.2-3,.73-4.85,1.47-9.7,2.05-14.56.52-4.38-1.21-7.36-5.2-9.14A17.52,17.52,0,0,0,488.12,107.24Zm61,15.48a9.1,9.1,0,0,0-7.66,2.89c-.91,1-2.72,2.6-1.43,3.56,1.46,1.09,3.74,3,5.85,1,3-2.8,5.81-1.93,8.72-.25,1.74,1,2.71,2.54,2,4.64s-2.59,2.4-4.54,2.07c-2.78-.47-5.53-1.16-8.32-1.5-5.31-.65-8.64,1.6-10,6.52-1.24,4.61.85,8.64,5.56,10.66a12.4,12.4,0,0,0,6.44,1.22c2.62-.35,4.76-.73,5.92,2.56.52,1.46,2.63,1.64,4.21,1.86.89.12,2.07.5,2.33-1,.21-1.2,1.79-2.52.16-3.59s-1.14-2.46-.65-3.83c1.57-4.51,3.25-9,4.74-13.52,1.32-4,.25-7.19-3.11-9.73A18.2,18.2,0,0,0,549.17,122.72ZM477,742.62c-1.11-.38-3,1-3.11-1.69-.05-2.16.53-3.62,2.95-3.75.49,0,1-.13,1.46-.14,1.85,0,1.9-1.32,1.58-2.56-.37-1.46.73-3.63-1.85-4.13-7.28-1.41-13.21,3.22-13.12,10.47,0,2.13-.3,3.32-2.66,3.08-2.92-.29-2.19,1.75-2.23,3.38-.05,1.94.53,3.13,2.73,2.64,2.55-.57,3.06.68,3.2,3,.39,6.24,1.26,12.45,1.49,18.69.14,3.63,1.44,4.82,4.85,3.94a6,6,0,0,1,1.83-.23c2.59.12,2.83-1.15,2.56-3.43-.78-6.57-1.18-13.18-1.9-19.76-.27-2.46.38-3.69,3-3.59,1.64.06,3.31.13,2.73-2.45C480,744.12,480.55,741.42,477,742.62ZM278.79,166.23c-1.31,2.12-4.92,1.51-4.59,5.11s-1.78,5.7-4.91,6.91-5.45-.12-7.65-2.16c-1.4-1.29-1.53-2.14.33-3.24,3.8-2.24,7.47-4.72,11.19-7.11,5-3.18,5-3.33.76-7.61a18.64,18.64,0,0,0-2.79-2.39c-8.59-5.81-19.4-1-20.49,9.13-.74,7,4.5,15.89,11.05,18.48,5.5,2.18,10.38.84,14.57-3.16C280.11,176.51,281,171.73,278.79,166.23Zm145,594.51h-.13c0,2,.1,3.93,0,5.88-.47,7.43,1.53,9.8,8.91,10.37,1.1.08,2.21,0,3.3.15,2.81.35,2.93-1.45,2.82-3.42-.09-1.73,1-4.23-2.5-3.83-2.76.31-3.7-1.21-3.51-3.82a108.35,108.35,0,0,0,.53-11.38c-.12-3.23.6-4.89,4.17-4.11,2.61.57,2.58-1.23,2.73-3,.16-2.08-.23-3.31-2.72-3-3.25.42-3.69-1.22-3.5-4.19.44-7.08,1-5.37-5.19-6-2.5-.26-4,.24-3.68,3.18.11,1-.15,2-.11,2.94.09,2.46-.57,4.08-3.5,3.35-1.68-.41-2.4.38-2.06,1.9s-1.41,4.19,1.47,4c4-.26,3.77,1.73,3.44,4.42C424,756.33,424,758.54,423.83,760.74ZM758,380.37a19.8,19.8,0,0,0-9.86,3c-4.78,3.15-6.63,7.62-5.75,13.29.83,5.38,3.76,8.95,8.94,10.56,1,.31,2.88,1.19,2.9-.55s.59-4.44-2.37-5.43-4.2-3.61-4.21-6.66,1.79-5.17,4.55-6.53c2.27-1.12,3.26-.59,3.58,2,.63,5.11,1.51,10.18,2.19,15.28.18,1.33.25,2.29,2.07,2.21,5.64-.24,12-5,13.56-10.37C776.2,388.25,769.33,380.36,758,380.37Zm-10-75.9c-7.52,6.71-14.72,13.16-22,19.58-3.75,3.32-7.89,2.56-9.9-2-.57-1.27-1.17-1.56-2.13-.88-1.19.84-3.68.21-3.3,2.92.68,4.76,3.83,8.2,8.56,8.06,12.5-.38,25-1.14,37.48-1.78.76,0,1.72.26,1.55-1.28-.37-3.33-2.31-4.95-5.7-4.66-6.14.53-12.3,1-18.45,1.45a128.89,128.89,0,0,1,12.25-11.31C751.11,310.6,751.11,310.6,748,304.47Zm-133-127c-2.48-.61-3.77-3.75-6.78-1.8s-5.72.83-8.09-1.22-2.6-4.83-1.82-7.76c.54-2,1.4-2.52,3.34-1.28,3.93,2.49,8,4.76,12,7.14s4.06,2.37,5.88-2a15.89,15.89,0,0,0,1.07-3.11c1-5.4.23-10.34-4.32-14a12,12,0,0,0-14.12-1.22A18.69,18.69,0,0,0,592,169.11c-.13,5.47,3.15,9.82,8.63,12C605.82,183.19,610.66,182.06,615,177.49Zm57.92,24.59c-7.53.07-16,7.19-17.27,14.66-.92,5.32,1,9.66,5.16,12.95a12,12,0,0,0,12.77,1.83c.76-.33,2.55-.75,1.75-1.69-1.24-1.46-2-4.22-5-3.28-3.42,1.06-6-.26-7.92-3.08s-1.26-5.52.34-8.27c1.06-1.82,1.87-1.75,3.24-.3,3,3.2,6.22,6.27,9.34,9.39,4.1,4.1,4.38,4.06,7.6-.82a17.38,17.38,0,0,0,2.52-6.06A12.61,12.61,0,0,0,672.89,202.08ZM118.68,406.9c8.79,0,14.22-4.6,15-12.79.76-7.5-4.22-13.69-12.37-15.27a23,23,0,0,0-7.32-.29,13.64,13.64,0,0,0-12.24,15.5C102.68,402.1,109,406.89,118.68,406.9Zm60.9-178c-7.34-.08-13.84,6.34-14,13.81-.14,8.16,8.58,16.66,17.33,16.88,7.28.19,14.13-6.54,14.26-14C197.34,237.56,188.25,229,179.58,228.88Zm215.47-99.5c-3.47-7-6.44-13-9.45-19.06-.89-1.76-4.68-2.45-6.67-1.07s.21,2.58.7,3.56c3.84,7.67,7.92,15.22,11.83,22.86,2.34,4.56.61,8.08-4.36,9.12-.73.16-1.35,0-1.48,1.12-.39,3.24,1,4.71,4.29,4.37,4.65-.49,7.13-2.4,8.12-7.16,2.48-11.89,4.73-23.82,7.07-35.74.14-.69.51-1.43-.46-1.85-2-.87-5.73,1.07-6.11,3.25C397.39,115.29,396.32,121.82,395.05,129.38ZM758.32,358.73c4.43-1.86,6.47-5.3,6.16-9.67-.37-5.26-2-10.18-7.24-12.8a7.31,7.31,0,0,0-3.58-.55c-4.63.29-7.5,3.3-7.67,8.23-.11,3.3.35,6.62.2,9.92s-2.6,4.69-4.94,3.25C737.8,355,737,349,740,346.24c2.58-2.33.74-4.57-.29-6.12-1.14-1.72-2.76.28-3.87,1.14a9.39,9.39,0,0,0-3.51,8.48,18.75,18.75,0,0,0,2.88,9c2.75,4.31,6.63,6,10.87,4.78,4.48-1.31,6-3.86,6.15-9.56.08-3.06-.82-6.1-.17-9.16.55-2.57,2.31-3.5,4.17-2.28,2,1.34,3.64,6.26,2,7.91C755.25,353.5,757.52,355.94,758.32,358.73ZM189,216c-2.67-2.78-3.93,0-5.35,1.55-1.91,2.12.71,2.7,1.61,3.57,5.73,5.54,11.67,10.86,17.35,16.44,2,2,3,1.25,4.55-.46s2-2.62.05-4.3c-3.45-2.93-6.7-6.11-10-9.22-1.42-1.34-2.89-2.67-3.52-4.63a6.19,6.19,0,0,1,2.27-7.49c2.45-1.84,4.73-.86,6.66.86,4.48,4,8.92,8.05,13.21,12.25,1.95,1.9,2.79.4,3.65-.86.77-1.1,3.34-1.71.84-3.89-4.91-4.25-9.51-8.85-14.31-13.23-2.81-2.56-6.09-3.76-9.8-2.15s-6.33,4.54-6.6,8.94C189.57,214.22,189.78,215.11,189,216Zm507,12.83c4.94-2.46,2-4.07.78-5.8-1.69-2.47-2.71-.06-3.67.69-6.17,4.85-12.21,9.87-18.37,14.72-1.84,1.45-3,2.41-.92,4.82,1.85,2.19,2.92,2.14,4.91.35,3.18-2.88,6.62-5.46,10-8.15a13.11,13.11,0,0,1,4.36-2.68c3.2-.95,5.83-.13,7.67,2.7s.45,5.22-1.73,7.06q-6.75,5.7-13.73,11.1c-1.72,1.33-1.34,2.46,0,3.44,1.1.81,1.16,4,3.65,2,5.54-4.44,11.16-8.83,16.46-13.56,3.52-3.13,3.68-7.27,1.29-11.37C704.54,230.47,701.22,229,696,228.83Zm-365.82-78.6c1.3,4.19,3.54,1.83,5.42,1.2,2.62-.88,1-2.6.47-3.87-2.95-7.66-6.09-15.24-8.94-22.93-1-2.65-2.4-1.65-3.93-1s-3.33.81-2.13,3.48c2.2,4.91,4.12,9.95,5.94,15,1.56,4.34.12,7.72-3.53,9.12-3.44,1.33-5.71,0-7.63-4.75-2-5-4.05-10-5.92-15-.67-1.83-1.58-2.39-3.19-1.28-1.27.86-4.22.35-3,3.42,2.56,6.23,4.84,12.58,7.73,18.65,2.82,5.9,8.76,7.24,14.26,3.82C327.87,154.76,328.91,152.7,330.22,150.23Zm185.37-33c1.84-4.2-.56-4.31-2.71-4.88-2.91-.77-2.51,1.42-2.9,2.94-1.91,7.6-3.71,15.23-5.76,22.79-.68,2.51-.47,3.55,2.41,4.18,2.64.57,3.34,0,3.86-2.47,1.08-5.15,2.36-10.27,3.92-15.29,1.28-4.11,4.72-5.91,8.19-4.84s4.38,3.15,3.23,8c-1.24,5.24-2.43,10.5-3.88,15.69-.84,3,1.2,2.77,2.91,3.28s2.81.9,3.35-1.61c1.35-6.34,3.2-12.57,4.61-18.9s-2.19-10.85-8.52-11.65C521.32,114.1,518.81,115.11,515.59,117.21Zm-412,328.16c-5-1.32-4.39,1.3-4.43,3.63-.06,3.47,2.5,2,3.92,2,8,.09,16-.17,23.92,0,3.14.07,2.46-1.81,2.58-3.57.14-1.94,0-3.2-2.62-3.08-5.26.26-10.55.28-15.82.13-4.44-.12-7.37-2.94-7.39-6.63,0-3.53,2.21-5.25,7.28-5.34,5.4-.09,10.8-.14,16.2,0,3,.09,2.16-1.95,2.2-3.48s.65-3.21-2.11-3.13c-6.62.21-13.26,0-19.88.26-6,.25-9.22,4.2-9.11,10.23C98.42,439.84,100.23,442.33,103.61,445.37ZM277.7,151.43a20.73,20.73,0,0,0,7.63,15.16c4.25,3.53,10.09,3.68,15.15.64,4.75-2.86,6.92-7.39,5.82-12.8-.22-1,.39-3.78-2-2.76-1.58.66-4.9.35-4,4a6,6,0,0,1-3.1,7.18c-3,1.69-5.73.81-8.08-1.36a17.12,17.12,0,0,1-4.86-8.51c-.86-3.26-.42-6.11,2.47-8.2s5.48-2,8.34.36c2.22,1.83,4.32-.45,5.69-1.67s-.77-2.42-1.73-3.25c-4-3.45-8.48-3.4-13.09-1.35C280.68,141.14,277.81,145,277.7,151.43ZM404.59,746.19c.87-3.7-.72-4.92-3.94-4.76a6.66,6.66,0,0,1-1.81-.3c-2.07-.52-2.78.33-3,2.38-.88,7.8-2,15.58-2.89,23.37-.73,6.11-.66,6,5.4,6.85,2.35.34,3-.3,3.25-2.46.43-4.27.92-8.54,1.62-12.78,1-6.12,4.07-8.51,10.19-7.79,2.11.24,3-.21,3-2.3a15.06,15.06,0,0,1,.34-3.29c.49-2-.3-2.62-2.2-2.75C410.75,742.09,407.66,743.54,404.59,746.19ZM117.52,419.64v.56c3.3,0,6.61-.15,9.9.05,1.89.12,3.13.06,2.83-2.29-.21-1.68,1.18-3.93-2.35-4-6.48-.16-13-.86-19.43-1.12-2.33-.09-3.72-.44-3-3.19.47-1.8-.57-2.33-2.18-2.42s-3-.16-2.92,2.09c.09,2-.33,3.21-2.87,2.85-2.28-.32-3.47-1.31-3.16-3.53.23-1.61.63-2.79-1.77-2.7-1.93.07-3.49-.19-3.73,2.62-.55,6.75,1.51,9.42,8.5,10,1.61.14,3,0,2.4,2.33-.53,2,.52,2.42,2.34,2.6s2.83-.11,2.72-2.16,1.1-2.3,2.83-2.16C110.91,419.42,114.22,419.49,117.52,419.64Zm262.34-285c-3.17.1-3.32.08-4.05-3-1-4.41-1.84-8.88-2.88-13.29-.46-2,0-3,2.13-3.12s2.91-.9,2.39-3.28-1.53-2.39-3.31-1.79c-2.09.7-3.24,0-3.39-2.28-.05-.85-.48-1.67-.52-2.52-.13-2.59-1-3.6-3.91-3S363,104.1,364,106.52c.32.79.25,1.71.52,2.52.66,2,.48,3.35-2.06,3.45-1.71.06-1.87,1-1.48,2.53s.38,3.27,2.55,2.51c2.84-1,3,.92,3.37,2.72.95,4.56,1.8,9.13,2.84,13.67,1.54,6.67,4.42,8.11,11,6.06,1.93-.61,2.15-1.53,1.87-3.2S381.83,133.86,379.86,134.59Zm382.4,227.92c1.41,2.73-.58,2.94-2.3,3.34-4.54,1-9.09,2.07-13.61,3.16-6.84,1.64-8.51,5.07-6,11.59.81,2.15,2,1.49,3.44,1.24s2.53-.53,1.88-2.5c-.85-2.6.49-3.83,3-4.34,4.2-.87,8.41-1.76,12.54-2.91,2.4-.67,3.69-.29,3.87,2.37.15,2.27,1.47,2.31,3.31,1.86s2.53-1.06,1.72-3c-1-2.38,0-3.64,2.49-3.84a12.35,12.35,0,0,0,2.16-.44c1.76-.48,3.84-.22,3-3.51-.73-2.84-1.66-3.78-4.39-2.79-.8.29-1.72.27-2.51.58-1.92.75-3.27.74-3.42-1.84-.11-1.81-1.1-2.18-2.75-1.53C763.37,360.49,761.34,360.15,762.26,362.51Zm-69.21-95.72c.08,2.42,1.75,4.39,3.25,6.5,1.23,1.73,2.29,1.11,3.58.17s2.54-1.5.9-3.31-1-3.53,1-4.87c3.75-2.55,7.56-5,11.15-7.81,1.9-1.47,2.91-1.19,3.91.78.84,1.62,1.71,2.3,3.66,1s2.08-2.45.58-4c-1.66-1.69-1.28-2.84.7-3.9a30.78,30.78,0,0,0,3.63-2.5c.55-.4,1.22-.67,1-1.68-.65-3.24-3.46-4.42-6.2-2.53a22.66,22.66,0,0,0-2.4,1.71c-1.45,1.3-2.53,1.14-3.37-.63-.94-2-2.06-1.39-3.46-.41s-2.34,1.83-.79,3.4.82,2.39-.68,3.4q-6.56,4.43-13,9.06C694.76,262.45,693,263.9,693.05,266.79ZM170,283.61c3.65-.51,5.06-3.42,6.7-6.19,1.09-1.84.21-2.57-1.25-3.39s-2.44-1.55-3.43.55c-1.1,2.34-2.91,2.2-4.9,1-4-2.46-7.91-5-12-7.23-1.87-1-1.67-2-.64-3.42s2-2.6-.45-4c-2.07-1.17-3.13-.87-3.89,1.13-.91,2.4-2.28,2.05-3.92.84-.69-.51-1.48-.87-2.17-1.38-1.89-1.38-3.25-2-4.81.79-1.39,2.5-1.12,3.68,1.38,4.69.79.31,1.45.92,2.22,1.3,1.78.88,2.84,1.9,1.18,3.87s.36,2.39,1.41,3.23c1.36,1.09,2.43,1,3.11-.7.88-2.2,2.12-1.68,3.68-.69,4.05,2.56,8.16,5,12.27,7.47A13.09,13.09,0,0,0,170,283.61ZM93.2,465.07c11.67-.8,23-1.67,34.42-2.3,3.86-.21,2.37-2.79,2.59-4.71.29-2.65-1.34-2.58-3.23-2.43-11.73.91-23.46,1.94-35.2,2.56-3.22.18-3.58,1.13-3.44,4.05C88.55,466.58,91.4,464.87,93.2,465.07ZM492.47,773a21.88,21.88,0,0,1,3.28-.51c4.28.11,4.46-2,3.72-5.59-1.48-7.07-2.38-14.27-3.61-21.39-1-5.77-1-5.62-7-4.71-2.26.35-2.8.93-2.38,3.21,1.62,8.93,3.06,17.89,4.48,26.85C491.16,772.3,491.52,773.2,492.47,773Zm-36.78-12.72H455c0-4.65-.05-9.3,0-14,0-1.64-.54-2.17-2.13-2a14,14,0,0,1-3.3,0c-2.88-.34-3.77.81-3.61,3.71.42,7.46.57,14.93.78,22.4.17,6.33.14,6.22,6.4,6.14,2.15,0,2.67-.74,2.61-2.74C455.61,769.32,455.69,764.78,455.69,760.25ZM339.51,122.42c-.45-3.8-2.51-3.17-4.95-2.45-3.15.94-1.4,2.78-.95,4.26,2.29,7.6,4.77,15.15,7,22.78.72,2.49,1.78,2.57,3.93,1.83s3.31-1.09,2.35-3.69c-1.47-4-2.72-8.12-3.84-12.24-1.5-5.55.21-9.46,5-10.93,3.62-1.11,1-3,.83-4.5-.18-2.2-1.42-2.48-3.32-1.7C342.56,117,341.14,119.49,339.51,122.42ZM111.66,365.62c-4.52-2.51-4.45.52-5,2.76-.74,3.23,2.17,2.47,3.52,2.81,7.47,1.88,15,3.4,22.5,5.24,2.36.59,3.41.21,4-2.31.66-2.69-.1-3.66-2.72-4.14a118.44,118.44,0,0,1-12.49-2.91c-5.2-1.56-7.67-5.09-6.41-9.46,1.09-3.82-2-2.43-3.35-3.06-1.78-.87-2.86-.14-3.18,2C108.12,359.75,109.73,362.18,111.66,365.62ZM364.89,141.79c-2.36-9-4.56-18-7.05-26.8-.71-2.51-2.7-.4-4.06-.34-1.17,0-2.54.28-2,2.2,2.34,8.75,4.66,17.51,6.9,26.28.54,2.09,1.94,1.23,2.83.83C362.7,143.42,365,144.23,364.89,141.79ZM182.43,268.29c.1-1.14-.93-1.31-1.58-1.74-7-4.68-14.22-9.18-21.12-14.06-2.76-2-3.16.17-4.32,1.56-1.44,1.71-1.24,2.7.76,4,6.84,4.31,13.55,8.84,20.31,13.29A3.84,3.84,0,0,0,182.43,268.29ZM484,731c1.37,1.71-.56,5.29,2.65,5.09,2.39-.14,6.37,1,7-2.76.22-1.36,1.28-5.46-2.31-5.25C489,728.23,485.4,727.36,484,731Zm-34,8.61c1.48-.65,3.76,1.12,4.76-1.12,1.59-3.53-.51-6.46-4.3-6.36-1.09,0-2.18,0-3.28,0-.62,0-1.38.05-1.38.8,0,2.06-.26,4.26.39,6.12C446.59,740.34,448.59,739.23,450,739.61Zm-98.2-629.32c1-1.6,4.54.16,4-3-.26-1.49.68-5-2.83-4.29-1.4.28-4.41-.48-4,2.35C349.12,107,348.74,109.65,351.77,110.29ZM153.29,248.51c-1.75-1.3-3.35-3.29-5.21-3.12s-3.25,2.74-3.15,4.38c.12,1.86,2.68,3.24,4.31,3.28C151.46,253.11,151.62,250.11,153.29,248.51Z"/><path class="cls-5" d="M437.76,174.38c145.46-.39,265,118.77,263.16,266.54-1.78,144-120.65,262.69-269.07,259.52-140.12-3-257.27-117-257.09-263.41C174.94,289.06,295.28,174,437.76,174.38ZM691.08,437.5c.43-136.78-109.27-250.56-247.9-253.36C299.42,181.24,184.37,297,184.51,437.5c.13,138.79,111.24,250.76,248.54,253.17C578,693.22,691.57,575.87,691.08,437.5Z"/><path class="cls-6" d="M460.09,104.89c-3.2,9-6.51,18-9.54,27-.78,2.35-2,2.78-4.21,2.87-2.55.1-3-1.24-3.57-3.17-2.23-7.39-4.62-14.74-7-22.1-.35-1.08-.34-2.4-2.5-3.41,0,4.87,0,9.18,0,13.5,0,4.06-.32,8.11-.18,12.16.09,2.55-1.11,2.82-3.13,2.69-1.8-.11-3.66.47-3.57-2.59.36-12.28.57-24.57.74-36.85,0-1.85.47-2.51,2.46-2.56,7.09-.19,7.09-.28,9.2,6.55L447,125.27c3.5-10.2,6.73-19.67,10-29.11.4-1.14.16-3,2.08-3,2.68,0,5.4-.34,8,.39.75.21.42,1.32.41,2-.23,12.41-.53,24.81-.68,37.22,0,2.07-.86,2.72-2.63,2.32-1.61-.37-4.19.81-4.06-2.65.3-8,.39-16,.56-23.94,0-1.2,0-2.41,0-3.62Z"/><path class="cls-3" d="M336,758.09c-14.51,0-24.51-12.9-21.09-27.13,2.94-12.16,12.17-20,23-19.46,11.75.55,20.71,9.75,19.89,20.29-.2,2.55-.56,3.8-3.61,2.43s-5.59-2.28-6.36-6.59c-1.24-7-10.56-9.92-16.21-5.47a20,20,0,0,0-7.68,16.44c0,5.16,3,8.83,7.82,10.45,4.42,1.48,7.75.46,11.11-4.09,1.57-2.13,2.81-1.09,4.34-.49,6.59,2.6,6.72,3.23,1.67,8.35A17.06,17.06,0,0,1,336,758.09Z"/><path class="cls-6" d="M555.07,725.13c-1.66-4.29-2.89-8-4.51-11.53-1-2.24-.57-3.09,1.71-3.94,5.68-2.13,5.62-2.25,7.77,3.2q6.18,15.71,12.39,31.41c1.84,4.68,1.84,4.68-2.68,6.48a8.27,8.27,0,0,0-1,.46c-2.07,1.23-3.11.37-3.55-2.3-3.3,6.61-8.4,9.27-15.15,8.38-7-.93-13.34-9.18-13.89-17.82-.49-7.58,3.32-13.14,10.17-15C549,723.67,551.64,724.1,555.07,725.13Zm-2.73,4.72a7.06,7.06,0,0,0-7.31,6.36,13.8,13.8,0,0,0,5.4,12.26,6.92,6.92,0,0,0,11-6,16.89,16.89,0,0,0-4-10.06A6.75,6.75,0,0,0,552.34,729.85Z"/><path class="cls-7" d="M636.74,171.35c8.43.26,10.68,1.9,12.45,9.32.45,1.89,1.54,1.18,2.47,1.09a10.12,10.12,0,0,1,8.33,3.12c3.39,3.26,4.12,7.08,1.38,10.93-4.2,5.9-8.79,11.51-13.22,17.25-1.81,2.34-2.69-.21-3.73-.88s-3-1.13-1.3-3.22c3.73-4.57,7.31-9.25,10.9-13.93,1.87-2.45,3.46-5,.31-7.7-2.85-2.44-5.68-2.28-8.62,1.1-3.7,4.26-7.21,8.71-10.54,13.26-1.55,2.12-2.58,1.48-4.07.19S628,200,630,197.66c3.6-4.18,6.93-8.61,10.28-13,2.89-3.8,2.94-5.93.41-8s-6.22-1.73-8.83,1.31c-3.51,4.09-6.88,8.34-10,12.74-1.59,2.22-2.62,2-4.51.45s-2.4-2.39-.65-4.51c5-6,9.69-12.38,14.65-18.47.79-1,1.19-3.7,3.37-2.09C636.29,167.28,639.79,168,636.74,171.35Z"/><path class="cls-7" d="M772.83,421.14c4,4,6.27,8.41,3.45,12.43-2.61,3.72-1.81,5.62.13,9.14,3.49,6.32-.76,13-7.94,13.31-6.63.29-13.28,0-19.91.26-3.35.12-2.06-2.24-2.34-3.74-.36-1.87.15-2.91,2.46-2.87,5.9.11,11.8-.05,17.7-.06,3.17,0,5.35-1.38,5.53-4.63s-1.64-5.38-4.94-5.79c-5.87-.73-11.79-.33-17.68-.25-2.72,0-3.17-.95-3.21-3.38s.79-3.07,3.13-3c5.28.13,10.57,0,15.86-.06,4.67-.06,6.59-1.42,6.68-4.58.09-3.43-2.62-6.15-6.81-6.29-5.15-.17-10.32-.05-15.49.06-2.15.05-3.69.12-3.62-2.94,0-2.7.66-3.57,3.49-3.52,7.74.13,15.49-.16,23.23-.12,1.38,0,3.84-1.24,3.81,1.82C776.34,418.93,777.63,421.91,772.83,421.14Z"/><path class="cls-7" d="M254.17,190.14c-.56,6-5.22,10.48-11.45,13.54-5.52,2.71-10.76,1.78-15.36-2.26-.81-.7-2.9-1.78-.92-3,1.64-1,2.48-4.51,5.53-2.27a10.08,10.08,0,0,0,15.33-4.81,5.54,5.54,0,0,0-1.24-5.81,4.71,4.71,0,0,0-5.61-1.54c-3.55,1.36-7,2.87-10.56,4.28-5.93,2.38-10.47,1.39-13.91-3s-3.37-9.84,0-14.69c5.26-7.52,15.07-9.9,21.15-5,.82.66,3.51,1.51,1.46,3.12-1.55,1.22-2.54,4.68-5.86,2.39-4.26-2.95-11-.34-12.52,4.67a4.76,4.76,0,0,0,1.26,5.08,4.53,4.53,0,0,0,5.07,1.21c3.76-1.49,7.47-3.1,11.24-4.59C245.94,174.31,254.2,180,254.17,190.14Z"/><path class="cls-6" d="M752.31,288.84a11,11,0,0,1-2.62,7.44c-1.13,1.43-2.67,3.49-4.27,2.94-1.3-.46-1.94-2.9-2.82-4.49-.67-1.23.37-1.81,1.12-2.36,4.54-3.39,1.44-11.55-3.17-13.48-3.61-1.51-7.25,1.95-6.52,6.24.63,3.62,1.5,7.19,2.24,10.79,1.78,8.69-5.28,16-14.11,14.14-7-1.49-10.34-7-12.23-13.42-1.73-5.87-.32-11,4.51-14.82.87-.7,2.19-3.13,3.37-.95.94,1.76,4.56,3.66,1,6.31-5.9,4.37-1.91,13.92,2.93,16a5.54,5.54,0,0,0,7.72-5.75c-.45-3.64-1.36-7.23-2.09-10.83-1.31-6.48.5-10.86,5.55-13.4s10.82-1.32,14.88,3.45A17.55,17.55,0,0,1,752.31,288.84Z"/><path class="cls-7" d="M578.46,164.2c-9.17,3.27-17.08-5.22-14.74-14.28,1.22-4.76,3-9.07,6.94-12.23,6.75-5.47,15.11-3.34,18.81,5,1.59-4.16,3.78-1.37,5.66-.61,2.62,1.07.55,2.66,0,3.8-3.43,7.59-6.9,15.16-10.53,22.66-5.14,10.65-17.61,11.62-24.7,2a7.81,7.81,0,0,1-1.78-4.75c0-1.43-.84-3.87,1.29-3.86,1.7,0,4.17.56,4.85,3.07,1.09,4,3.85,6.51,7.54,6.69s5.36-2.42,6.74-5.28a12.64,12.64,0,0,0,.48-1.39l.3-.91Zm7.7-15.89c.09-3.37-1.12-5.51-3.57-6.91a5.78,5.78,0,0,0-6.89.42,14.31,14.31,0,0,0-5.85,11.74,6.31,6.31,0,0,0,4,6.09,6.13,6.13,0,0,0,6.87-1A15.48,15.48,0,0,0,586.16,148.31Z"/><path class="cls-7" d="M116.6,344.59c-3.54-7.86-2.44-11.47,4.36-15.67,1.33-.82.51-1.32.18-1.94a9.64,9.64,0,0,1-.8-7.8c1.82-5.87,5.69-8.2,11.53-6.44,6.45,1.94,12.77,4.26,19.19,6.29,2.87.91,1.21,2.56.85,4s-.56,3.05-3.07,2.11c-5.51-2.06-11.16-3.73-16.74-5.59-3-1-5.62-.95-7,2.5-1.25,3.15-.16,6,3.39,7.44,5.1,2.06,10.33,3.81,15.58,5.47,2.26.72,3.55,1.11,2.57,4.14s-2.44,2.78-4.76,1.95c-5.2-1.85-10.46-3.51-15.69-5.26-2.4-.8-4.67-.91-6.13,1.61s-.93,5,1.06,7.06a10.43,10.43,0,0,0,4.42,2.54c4.76,1.57,9.49,3.29,14.31,4.68,2.36.69,2,1.92,1.28,3.47s-.48,3.81-3.52,2.7c-7.72-2.79-15.55-5.29-23.32-7.91-1.56-.53-3.56-.69-2.45-3.28C112.65,344.83,112.68,342.09,116.6,344.59Z"/><path class="cls-6" d="M386.27,762.19a11.56,11.56,0,0,1-3.84,4.76c-6.51,5-18.51,2.73-23.24-4.38-5.14-7.71-2.22-20.21,5.84-24.93,7.7-4.51,18.37-1.67,22.29,6a18.71,18.71,0,0,1,1.49,11.81c-.39,2.49-1.4,3-3.65,2.4-5.45-1.43-10.92-2.77-16.39-4.1-3.3-.8-4-.15-3.42,3.15.73,4.37,6.16,7.12,10.66,5.41C380.92,760.44,380.92,760.44,386.27,762.19Zm-13.34-19.83c-2.07,0-3.76,1.22-5.11,3.12-1,1.42-.67,2,1,2.36,3.33.71,6.62,1.59,9.9,2.49,1.86.51,2-.21,1.78-1.84C380,744.55,377.43,742.28,372.93,742.36Z"/><path class="cls-7" d="M502.45,751c0-9.49,6-16,14.63-16.92,8.26-.84,15.51,4.78,17.29,13.25.4,1.88-.32,2.29-1.92,2.66-5.85,1.35-11.64,3-17.51,4.22-2.85.59-2.65,1.76-1.47,3.67,2.85,4.64,10.45,4.4,13.15-.8,1.79-3.43,5-2.49,7.5-3.48.9-.35,1,.68.86,1.5-.56,3.21-1.55,6.27-4.14,8.4-5.17,4.26-11.15,5.84-17.56,3.76-6.18-2-9.23-7-10.48-13.13A25.92,25.92,0,0,1,502.45,751Zm15.63-10.11a7.16,7.16,0,0,0-7.25,6c-.2,1.76.16,2.53,2.15,2,2.69-.79,5.46-1.34,8.18-2.06,1-.27,2.6-.51,2.84-1.17.43-1.16-.82-2.16-1.63-3A5.21,5.21,0,0,0,518.08,740.91Z"/><path class="cls-8" d="M132.29,295.6a17.84,17.84,0,0,1,5.4-11.74,8,8,0,0,1,9.82-1.41q6,3.1,12.18,6c1.45.69,2.88,2,4.5-.12,1.05-1.33,2.14.36,3.21.67s1.29,1.28.95,2.36c-.56,1.78-1.08,4.16-2.87,4.43-3.38.51-2.72,2.64-2.8,4.78a13.73,13.73,0,0,1-3.43,8.72c-2.82,3.21-6.73,3.87-10.67,1.87s-5.6-5.25-4.67-9.37c.71-3.1,1.72-6.13,2.68-9.16.64-2,.49-3.64-1.59-4.64s-3.59-.08-4.76,1.52c-2,2.71-3.13,5.45-.7,8.68,1.72,2.29-.54,4.17-1.67,5.6s-2.28-.64-3.12-1.48A8.74,8.74,0,0,1,132.29,295.6Zm19-3.92c-.86,3-1.81,5.74-2.44,8.58a4.23,4.23,0,0,0,2.59,5.1c2.08.92,3.52-.32,4.74-1.77C160.13,298.94,158.41,294.58,151.31,291.68Z"/><path class="cls-7" d="M488.12,107.24a17.52,17.52,0,0,1,7.5,1.55c4,1.78,5.72,4.76,5.2,9.14-.58,4.86-1.32,9.71-2.05,14.56-.19,1.29-.4,2.48,1.2,3,2.35.77.8,2.4.78,3.67,0,1.7-1.39,1.35-2.43,1.4-1.61.08-3.72.29-4.45-1.1-1.58-3-3.48-1.92-5.7-1.23a13.93,13.93,0,0,1-7.63,0c-4.5-1.14-6.83-4.43-6.62-9.26.2-4.63,2.69-7.63,7.35-8.2,3-.38,6.12-.14,9.19-.24,2.05-.07,4-.37,4.31-3s-1.42-3.79-3.59-4.34c-3-.75-5.67-.82-7.77,2.27-1.57,2.3-4.21.84-5.93.11-1.43-.61,0-2.44.59-3.48C480.33,108.32,483.9,107.06,488.12,107.24Zm.56,17.57v-.12a29.47,29.47,0,0,0-5.09.5c-3.2.86-4.26,4.42-2.12,6.57,2.59,2.6,7.91,2.4,10.24-.42a6.57,6.57,0,0,0,1.31-6.2c-.4-1.22-2.6,0-4-.33A2.16,2.16,0,0,0,488.68,124.81Z"/><path class="cls-8" d="M549.17,122.72a18.2,18.2,0,0,1,10.24,3.57c3.36,2.54,4.43,5.75,3.11,9.73-1.49,4.53-3.17,9-4.74,13.52-.49,1.37-1.12,2.66.65,3.83s.05,2.39-.16,3.59c-.26,1.49-1.44,1.11-2.33,1-1.58-.22-3.69-.4-4.21-1.86-1.16-3.29-3.3-2.91-5.92-2.56a12.4,12.4,0,0,1-6.44-1.22c-4.71-2-6.8-6.05-5.56-10.66,1.31-4.92,4.64-7.17,10-6.52,2.79.34,5.54,1,8.32,1.5,1.95.33,3.76.13,4.54-2.07s-.23-3.65-2-4.64c-2.91-1.68-5.77-2.55-8.72.25-2.11,2-4.39.09-5.85-1-1.29-1,.52-2.58,1.43-3.56A9.1,9.1,0,0,1,549.17,122.72Zm-2.43,26c3.7.08,7.07-3.22,6.91-6.73,0-.52,0-.92-.72-1-3-.26-6-1.54-9.09-1.18a4.09,4.09,0,0,0-3.67,3.15c-.49,1.82.42,3.07,1.79,4.08A7.81,7.81,0,0,0,546.74,148.7Z"/><path class="cls-3" d="M477,742.62c3.57-1.2,3.06,1.5,3.49,3.43.58,2.58-1.09,2.51-2.73,2.45-2.6-.1-3.25,1.13-3,3.59.72,6.58,1.12,13.19,1.9,19.76.27,2.28,0,3.55-2.56,3.43a6,6,0,0,0-1.83.23c-3.41.88-4.71-.31-4.85-3.94-.23-6.24-1.1-12.45-1.49-18.69-.14-2.28-.65-3.53-3.2-3-2.2.49-2.78-.7-2.73-2.64,0-1.63-.69-3.67,2.23-3.38,2.36.24,2.69-.95,2.66-3.08-.09-7.25,5.84-11.88,13.12-10.47,2.58.5,1.48,2.67,1.85,4.13.32,1.24.27,2.51-1.58,2.56-.49,0-1,.12-1.46.14-2.42.13-3,1.59-2.95,3.75C473.94,743.65,475.87,742.24,477,742.62Z"/><path class="cls-8" d="M278.79,166.23c2.25,5.5,1.32,10.28-2.53,14-4.19,4-9.07,5.34-14.57,3.16-6.55-2.59-11.79-11.49-11.05-18.48,1.09-10.11,11.9-14.94,20.49-9.13a18.64,18.64,0,0,1,2.79,2.39c4.23,4.28,4.21,4.43-.76,7.61-3.72,2.39-7.39,4.87-11.19,7.11-1.86,1.1-1.73,2-.33,3.24,2.2,2,4.59,3.35,7.65,2.16s5.24-3.26,4.91-6.91S277.48,168.35,278.79,166.23Zm-22.52-.94c0,1.83,0,3.63,1.22,4.4s2.14-.83,3.16-1.43c2.42-1.44,4.73-3.07,7.15-4.52,1.52-.91,1.4-1.7.18-2.77-2.21-1.92-4.67-2.83-7.45-1.66A6.43,6.43,0,0,0,256.27,165.29Z"/><path class="cls-3" d="M423.83,760.74c.14-2.2.18-4.41.45-6.6.33-2.69.51-4.68-3.44-4.42-2.88.19-1.15-2.58-1.47-4s.38-2.31,2.06-1.9c2.93.73,3.59-.89,3.5-3.35,0-1,.22-2,.11-2.94-.34-2.94,1.18-3.44,3.68-3.18,6.24.65,5.63-1.06,5.19,6-.19,3,.25,4.61,3.5,4.19,2.49-.32,2.88.91,2.72,3-.15,1.81-.12,3.61-2.73,3-3.57-.78-4.29.88-4.17,4.11a108.35,108.35,0,0,1-.53,11.38c-.19,2.61.75,4.13,3.51,3.82,3.54-.4,2.41,2.1,2.5,3.83.11,2,0,3.77-2.82,3.42-1.09-.14-2.2-.07-3.3-.15-7.38-.57-9.38-2.94-8.91-10.37.12-2,0-3.92,0-5.88Z"/><path class="cls-7" d="M758,380.37c11.33,0,18.2,7.88,15.6,16.78-1.56,5.36-7.92,10.13-13.56,10.37-1.82.08-1.89-.88-2.07-2.21-.68-5.1-1.56-10.17-2.19-15.28-.32-2.55-1.31-3.08-3.58-2-2.76,1.36-4.55,3.35-4.55,6.53s1.13,5.64,4.21,6.66,2.38,3.55,2.37,5.43-1.92.86-2.9.55c-5.18-1.61-8.11-5.18-8.94-10.56-.88-5.67,1-10.14,5.75-13.29A19.8,19.8,0,0,1,758,380.37Zm10.56,13.15a7.08,7.08,0,0,0-6.55-7.06c-1.51-.13-2.31.2-2,2,.48,2.51.66,5.07,1.11,7.58.27,1.44-.22,3.69,1.38,4.06,1.76.4,3.31-1.16,4.55-2.58A5.6,5.6,0,0,0,768.56,393.52Z"/><path class="cls-7" d="M748,304.47c3.15,6.13,3.15,6.13-1.6,10.14a128.89,128.89,0,0,0-12.25,11.31c6.15-.48,12.31-.92,18.45-1.45,3.39-.29,5.33,1.33,5.7,4.66.17,1.54-.79,1.25-1.55,1.28-12.49.64-25,1.4-37.48,1.78-4.73.14-7.88-3.3-8.56-8.06-.38-2.71,2.11-2.08,3.3-2.92,1-.68,1.56-.39,2.13.88,2,4.52,6.15,5.28,9.9,2C733.24,317.63,740.44,311.18,748,304.47Z"/><path class="cls-7" d="M615,177.49c-4.31,4.57-9.15,5.7-14.33,3.63-5.48-2.19-8.76-6.54-8.63-12a18.69,18.69,0,0,1,10.13-16.79,12,12,0,0,1,14.12,1.22c4.55,3.61,5.32,8.55,4.32,14a15.89,15.89,0,0,1-1.07,3.11c-1.82,4.34-1.87,4.35-5.88,2s-8.08-4.65-12-7.14c-1.94-1.24-2.8-.75-3.34,1.28-.78,2.93-.57,5.68,1.82,7.76s5.15,3.12,8.09,1.22S612.49,176.88,615,177.49Zm.14-15.15c0-2.44-1.48-4.68-4.65-5.79s-5.41.28-7.56,2.28c-1.29,1.2-.49,1.79.59,2.41,2.53,1.46,5,3,7.55,4.45C614.21,167.55,615,167,615.11,162.34Z"/><path class="cls-7" d="M672.89,202.08a12.61,12.61,0,0,1,12.55,15.33,17.38,17.38,0,0,1-2.52,6.06c-3.22,4.88-3.5,4.92-7.6.82-3.12-3.12-6.3-6.19-9.34-9.39-1.37-1.45-2.18-1.52-3.24.3-1.6,2.75-2.21,5.49-.34,8.27s4.5,4.14,7.92,3.08c3-.94,3.74,1.82,5,3.28.8.94-1,1.36-1.75,1.69a12,12,0,0,1-12.77-1.83c-4.21-3.29-6.08-7.63-5.16-12.95C656.9,209.27,665.36,202.15,672.89,202.08Zm.33,5.47A15.38,15.38,0,0,0,671,208c-3.49,1.11-3.68,1.91-1.15,4.46,2.06,2.08,4.17,4.12,6.21,6.23.88.9,1.6,1.49,2.51,0,1.44-2.33,2-4.76.79-7.29C678.2,209,676.17,207.78,673.22,207.55Z"/><path class="cls-7" d="M118.68,406.9c-9.71,0-16-4.8-16.88-12.85A13.64,13.64,0,0,1,114,378.55a23,23,0,0,1,7.32.29c8.15,1.58,13.13,7.77,12.37,15.27C132.9,402.3,127.47,406.91,118.68,406.9ZM117,384.67c-4.84,0-8.29,1.92-9.38,5.16a6.68,6.68,0,0,0,2.57,8.15,13.8,13.8,0,0,0,13.3,1.86,7,7,0,0,0,2-12.19A14.12,14.12,0,0,0,117,384.67Z"/><path class="cls-7" d="M179.58,228.88c8.67.09,17.76,8.68,17.63,16.67-.13,7.48-7,14.21-14.26,14-8.75-.22-17.47-8.72-17.33-16.88C165.74,235.22,172.24,228.8,179.58,228.88Zm4.32,24.45c5.23,0,8.69-4.67,6.77-9.48a13.85,13.85,0,0,0-10.94-8.76,7.11,7.11,0,0,0-8.06,8.64C172.76,248.42,179,253.3,183.9,253.33Z"/><path class="cls-7" d="M395.05,129.38c1.27-7.56,2.34-14.09,3.48-20.6.38-2.18,4.13-4.12,6.11-3.25,1,.42.6,1.16.46,1.85-2.34,11.92-4.59,23.85-7.07,35.74-1,4.76-3.47,6.67-8.12,7.16-3.29.34-4.68-1.13-4.29-4.37.13-1.08.75-1,1.48-1.12,5-1,6.7-4.56,4.36-9.12-3.91-7.64-8-15.19-11.83-22.86-.49-1-2.76-2.13-.7-3.56s5.78-.69,6.67,1.07C388.61,116.33,391.58,122.37,395.05,129.38Z"/><path class="cls-7" d="M758.32,358.73c-.8-2.79-3.07-5.23-.07-8.29,1.62-1.65,0-6.57-2-7.91-1.86-1.22-3.62-.29-4.17,2.28-.65,3.06.25,6.1.17,9.16-.13,5.7-1.67,8.25-6.15,9.56-4.24,1.24-8.12-.47-10.87-4.78a18.75,18.75,0,0,1-2.88-9,9.39,9.39,0,0,1,3.51-8.48c1.11-.86,2.73-2.86,3.87-1.14,1,1.55,2.87,3.79.29,6.12-3,2.74-2.2,8.75,1.25,10.87,2.34,1.44,4.8,0,4.94-3.25s-.31-6.62-.2-9.92c.17-4.93,3-7.94,7.67-8.23a7.31,7.31,0,0,1,3.58.55c5.23,2.62,6.87,7.54,7.24,12.8C764.79,353.43,762.75,356.87,758.32,358.73Z"/><path class="cls-8" d="M189,216c.77-.89.56-1.78.61-2.62.27-4.4,2.74-7.25,6.6-8.94s7-.41,9.8,2.15c4.8,4.38,9.4,9,14.31,13.23,2.5,2.18-.07,2.79-.84,3.89-.86,1.26-1.7,2.76-3.65.86-4.29-4.2-8.73-8.25-13.21-12.25-1.93-1.72-4.21-2.7-6.66-.86A6.19,6.19,0,0,0,193.7,219c.63,2,2.1,3.29,3.52,4.63,3.3,3.11,6.55,6.29,10,9.22,2,1.68,1.49,2.65-.05,4.3s-2.52,2.46-4.55.46c-5.68-5.58-11.62-10.9-17.35-16.44-.9-.87-3.52-1.45-1.61-3.57C185.08,216,186.34,213.22,189,216Z"/><path class="cls-8" d="M696,228.83c5.18.2,8.5,1.64,10.64,5.3,2.39,4.1,2.23,8.24-1.29,11.37-5.3,4.73-10.92,9.12-16.46,13.56-2.49,2-2.55-1.17-3.65-2-1.32-1-1.7-2.11,0-3.44q7-5.38,13.73-11.1c2.18-1.84,3.62-4.14,1.73-7.06s-4.47-3.65-7.67-2.7a13.11,13.11,0,0,0-4.36,2.68c-3.34,2.69-6.78,5.27-10,8.15-2,1.79-3.06,1.84-4.91-.35-2-2.41-.92-3.37.92-4.82,6.16-4.85,12.2-9.87,18.37-14.72,1-.75,2-3.16,3.67-.69C698,224.76,701,226.37,696,228.83Z"/><path class="cls-8" d="M330.22,150.23c-1.31,2.47-2.35,4.53-4.41,5.82-5.5,3.42-11.44,2.08-14.26-3.82-2.89-6.07-5.17-12.42-7.73-18.65-1.26-3.07,1.69-2.56,3-3.42,1.61-1.11,2.52-.55,3.19,1.28,1.87,5.05,3.88,10.05,5.92,15,1.92,4.71,4.19,6.08,7.63,4.75,3.65-1.4,5.09-4.78,3.53-9.12-1.82-5.07-3.74-10.11-5.94-15-1.2-2.67.61-2.85,2.13-3.48s2.94-1.63,3.93,1c2.85,7.69,6,15.27,8.94,22.93.49,1.27,2.15,3-.47,3.87C333.76,152.06,331.52,154.42,330.22,150.23Z"/><path class="cls-8" d="M515.59,117.21c3.22-2.1,5.73-3.11,8.71-2.73,6.33.8,9.91,5.45,8.52,11.65s-3.26,12.56-4.61,18.9c-.54,2.51-1.66,2.12-3.35,1.61s-3.75-.31-2.91-3.28c1.45-5.19,2.64-10.45,3.88-15.69,1.15-4.88.28-7-3.23-8s-6.91.73-8.19,4.84c-1.56,5-2.84,10.14-3.92,15.29-.52,2.5-1.22,3-3.86,2.47-2.88-.63-3.09-1.67-2.41-4.18,2-7.56,3.85-15.19,5.76-22.79.39-1.52,0-3.71,2.9-2.94C515,112.9,517.43,113,515.59,117.21Z"/><path class="cls-8" d="M103.61,445.37c-3.38-3-5.19-5.53-5.26-9-.11-6,3.14-10,9.11-10.23,6.62-.28,13.26-.05,19.88-.26,2.76-.08,2.16,1.67,2.11,3.13s.83,3.57-2.2,3.48c-5.4-.16-10.8-.11-16.2,0-5.07.09-7.3,1.81-7.28,5.34,0,3.69,3,6.51,7.39,6.63,5.27.15,10.56.13,15.82-.13,2.62-.12,2.76,1.14,2.62,3.08-.12,1.76.56,3.64-2.58,3.57-8-.16-16,.1-23.92,0-1.42,0-4,1.47-3.92-2C99.22,446.67,98.59,444.05,103.61,445.37Z"/><path class="cls-7" d="M277.7,151.43c.11-6.39,3-10.29,8.18-12.6,4.61-2.05,9.08-2.1,13.09,1.35,1,.83,3,2.11,1.73,3.25s-3.47,3.5-5.69,1.67c-2.86-2.35-5.48-2.42-8.34-.36s-3.33,4.94-2.47,8.2a17.12,17.12,0,0,0,4.86,8.51c2.35,2.17,5.08,3.05,8.08,1.36a6,6,0,0,0,3.1-7.18c-.88-3.61,2.44-3.3,4-4,2.43-1,1.82,1.72,2,2.76,1.1,5.41-1.07,9.94-5.82,12.8-5.06,3-10.9,2.89-15.15-.64A20.73,20.73,0,0,1,277.7,151.43Z"/><path class="cls-6" d="M404.59,746.19c3.07-2.65,6.16-4.1,10-3.83,1.9.13,2.69.77,2.2,2.75a15.06,15.06,0,0,0-.34,3.29c0,2.09-.9,2.54-3,2.3-6.12-.72-9.19,1.67-10.19,7.79-.7,4.24-1.19,8.51-1.62,12.78-.22,2.16-.9,2.8-3.25,2.46-6.06-.89-6.13-.74-5.4-6.85.93-7.79,2-15.57,2.89-23.37.23-2,.94-2.9,3-2.38a6.66,6.66,0,0,0,1.81.3C403.87,741.27,405.46,742.49,404.59,746.19Z"/><path class="cls-6" d="M117.52,419.64c-3.3-.15-6.61-.22-9.91-.48-1.73-.14-2.93.11-2.83,2.16s-.85,2.35-2.72,2.16-2.87-.59-2.34-2.6c.61-2.29-.79-2.19-2.4-2.33-7-.58-9-3.25-8.5-10,.24-2.81,1.8-2.55,3.73-2.62,2.4-.09,2,1.09,1.77,2.7-.31,2.22.88,3.21,3.16,3.53,2.54.36,3-.88,2.87-2.85-.11-2.25,1.33-2.18,2.92-2.09s2.65.62,2.18,2.42c-.7,2.75.69,3.1,3,3.19,6.48.26,13,1,19.43,1.12,3.53.08,2.14,2.33,2.35,4,.3,2.35-.94,2.41-2.83,2.29-3.29-.2-6.6-.05-9.9-.05Z"/><path class="cls-8" d="M379.86,134.59c2-.73,2.41.51,2.7,2.19s.06,2.59-1.87,3.2c-6.54,2.05-9.42.61-11-6.06-1-4.54-1.89-9.11-2.84-13.67-.38-1.8-.53-3.72-3.37-2.72-2.17.76-2.18-1.06-2.55-2.51s-.23-2.47,1.48-2.53c2.54-.1,2.72-1.45,2.06-3.45-.27-.81-.2-1.73-.52-2.52-1-2.42-.58-3.59,2.33-4.21s3.78.39,3.91,3c0,.85.47,1.67.52,2.52.15,2.29,1.3,3,3.39,2.28,1.78-.6,2.81-.49,3.31,1.79s-.33,3.16-2.39,3.28-2.59,1.15-2.13,3.12c1,4.41,1.85,8.88,2.88,13.29C376.54,134.67,376.69,134.69,379.86,134.59Z"/><path class="cls-8" d="M762.26,362.51c-.92-2.36,1.11-2,2.38-2.52,1.65-.65,2.64-.28,2.75,1.53.15,2.58,1.5,2.59,3.42,1.84.79-.31,1.71-.29,2.51-.58,2.73-1,3.66,0,4.39,2.79.85,3.29-1.23,3-3,3.51a12.35,12.35,0,0,1-2.16.44c-2.53.2-3.49,1.46-2.49,3.84.81,1.9,0,2.52-1.72,3s-3.16.41-3.31-1.86c-.18-2.66-1.47-3-3.87-2.37-4.13,1.15-8.34,2-12.54,2.91-2.5.51-3.84,1.74-3,4.34.65,2-.32,2.24-1.88,2.5s-2.63.91-3.44-1.24c-2.48-6.52-.81-10,6-11.59,4.52-1.09,9.07-2.11,13.61-3.16C761.68,365.45,763.67,365.24,762.26,362.51Z"/><path class="cls-8" d="M693.05,266.79c0-2.89,1.71-4.34,3.51-5.63q6.42-4.62,13-9.06c1.5-1,2.1-1.94.68-3.4s-.61-2.41.79-3.4,2.52-1.58,3.46.41c.84,1.77,1.92,1.93,3.37.63a22.66,22.66,0,0,1,2.4-1.71c2.74-1.89,5.55-.71,6.2,2.53.2,1-.47,1.28-1,1.68a30.78,30.78,0,0,1-3.63,2.5c-2,1.06-2.36,2.21-.7,3.9,1.5,1.52,1.36,2.62-.58,4s-2.82.66-3.66-1c-1-2-2-2.25-3.91-.78-3.59,2.77-7.4,5.26-11.15,7.81-2,1.34-2.71,3-1,4.87s.32,2.41-.9,3.31-2.35,1.56-3.58-.17C694.8,271.18,693.13,269.21,693.05,266.79Z"/><path class="cls-7" d="M170,283.61a13.09,13.09,0,0,1-5.48-2.14c-4.11-2.46-8.22-4.91-12.27-7.47-1.56-1-2.8-1.51-3.68.69-.68,1.71-1.75,1.79-3.11.7-1.05-.84-3.05-1.29-1.41-3.23s.6-3-1.18-3.87c-.77-.38-1.43-1-2.22-1.3-2.5-1-2.77-2.19-1.38-4.69,1.56-2.8,2.92-2.17,4.81-.79.69.51,1.48.87,2.17,1.38,1.64,1.21,3,1.56,3.92-.84.76-2,1.82-2.3,3.89-1.13,2.41,1.37,1.49,2.55.45,4s-1.23,2.38.64,3.42c4.06,2.27,8,4.77,12,7.23,2,1.24,3.8,1.38,4.9-1,1-2.1,2.06-1.33,3.43-.55s2.34,1.55,1.25,3.39C175.1,280.19,173.69,283.1,170,283.61Z"/><path class="cls-6" d="M93.2,465.07c-1.8-.2-4.65,1.51-4.86-2.83-.14-2.92.22-3.87,3.44-4.05,11.74-.62,23.47-1.65,35.2-2.56,1.89-.15,3.52-.22,3.23,2.43-.22,1.92,1.27,4.5-2.59,4.71C116.24,463.4,104.87,464.27,93.2,465.07Z"/><path class="cls-6" d="M492.47,773c-1,.23-1.31-.67-1.54-2.14-1.42-9-2.86-17.92-4.48-26.85-.42-2.28.12-2.86,2.38-3.21,6-.91,6-1.06,7,4.71,1.23,7.12,2.13,14.32,3.61,21.39.74,3.58.56,5.7-3.72,5.59A21.88,21.88,0,0,0,492.47,773Z"/><path class="cls-5" d="M455.69,760.25c0,4.53-.08,9.07,0,13.6.06,2-.46,2.71-2.61,2.74-6.26.08-6.23.19-6.4-6.14-.21-7.47-.36-14.94-.78-22.4-.16-2.9.73-4,3.61-3.71a14,14,0,0,0,3.3,0c1.59-.21,2.16.32,2.13,2-.08,4.65,0,9.3,0,14Z"/><path class="cls-8" d="M339.51,122.42c1.63-2.93,3.05-5.43,6-6.64,1.9-.78,3.14-.5,3.32,1.7.13,1.52,2.79,3.39-.83,4.5-4.77,1.47-6.48,5.38-5,10.93,1.12,4.12,2.37,8.23,3.84,12.24,1,2.6-.35,3-2.35,3.69s-3.21.66-3.93-1.83c-2.21-7.63-4.69-15.18-7-22.78-.45-1.48-2.2-3.32.95-4.26C337,119.25,339.06,118.62,339.51,122.42Z"/><path class="cls-7" d="M111.66,365.62c-1.93-3.44-3.54-5.87-3.08-9,.32-2.17,1.4-2.9,3.18-2,1.3.63,4.44-.76,3.35,3.06-1.26,4.37,1.21,7.9,6.41,9.46A118.44,118.44,0,0,0,134,370c2.62.48,3.38,1.45,2.72,4.14-.61,2.52-1.66,2.9-4,2.31-7.48-1.84-15-3.36-22.5-5.24-1.35-.34-4.26.42-3.52-2.81C107.21,366.14,107.14,363.11,111.66,365.62Z"/><path class="cls-8" d="M364.89,141.79c.14,2.44-2.19,1.63-3.41,2.17-.89.4-2.29,1.26-2.83-.83-2.24-8.77-4.56-17.53-6.9-26.28-.51-1.92.86-2.15,2-2.2,1.36-.06,3.35-2.17,4.06.34C360.33,123.82,362.53,132.74,364.89,141.79Z"/><path class="cls-7" d="M182.43,268.29a3.84,3.84,0,0,1-6,3c-6.76-4.45-13.47-9-20.31-13.29-2-1.26-2.2-2.25-.76-4,1.16-1.39,1.56-3.51,4.32-1.56,6.9,4.88,14.07,9.38,21.12,14.06C181.5,267,182.53,267.15,182.43,268.29Z"/><path class="cls-8" d="M484,731c1.4-3.64,5-2.77,7.31-2.92,3.59-.21,2.53,3.89,2.31,5.25-.6,3.75-4.58,2.62-7,2.76C483.44,736.29,485.37,732.71,484,731Z"/><path class="cls-5" d="M450,739.61c-1.38-.38-3.38.73-3.81-.53-.65-1.86-.39-4.06-.39-6.12,0-.75.76-.79,1.38-.8,1.1,0,2.19,0,3.28,0,3.79-.1,5.89,2.83,4.3,6.36C453.73,740.73,451.45,739,450,739.61Z"/><path class="cls-8" d="M351.77,110.29c-3-.64-2.65-3.3-2.86-4.91-.38-2.83,2.63-2.07,4-2.35,3.51-.7,2.57,2.8,2.83,4.29C356.31,110.45,352.76,108.69,351.77,110.29Z"/><path class="cls-8" d="M153.29,248.51c-1.67,1.6-1.83,4.6-4,4.54-1.63,0-4.19-1.42-4.31-3.28-.1-1.64,1.32-4.22,3.15-4.38S151.54,247.21,153.29,248.51Z"/><path class="cls-9" d="M691.08,437.5c.49,138.37-113.12,255.72-258,253.17-137.3-2.41-248.41-114.38-248.54-253.17C184.37,297,299.42,181.24,443.18,184.14,581.81,186.94,691.51,300.72,691.08,437.5Zm-297,143.33c1.09.15,2.2.22,3.27.44,5.85,1.21,11.64,2.73,17.61,3.31.25,2.56.43,5.13.77,7.68,1,7.37,3,14.31,7.67,20.35,8.72,11.35,35.31,12.92,43.28-7.32,2.84-7.21,3.55-14.69,4.05-22.27h3c.45,6,.74,12,2.52,17.79,2.59,8.45,6.87,15.48,15.79,18.49,16.11,5.42,30.34-2,34.94-18.52a74,74,0,0,0,0-38.9,15,15,0,0,0,2-.9,179,179,0,0,0,51.92-49.29c.85-1.21,3-3,1.74-4-1.56-1.27-4.22-1-6.25.13a7,7,0,0,0-1.94,2.17,173.21,173.21,0,0,1-32,33.86c-1.57,1.26-2.8,1.5-4.54.24-2.47-1.8-5.15-3.33-7.75-5-5.86-3.63-5.76-3.54-1.32-9a150.81,150.81,0,0,0,13.46-20.19c.44-.78,2.05-2.37-.37-2.66-2.77-.32-5.36-.46-7.15,2.89a117.25,117.25,0,0,1-15.1,21.25c-1,1.13-1.65,1.41-3,.76a138.42,138.42,0,0,0-23.07-8.58c-2.43-.64-2.87-1.68-1.85-4,1.46-3.24,2.61-6.62,3.88-9.94.34-.88,1.07-2.15-.45-2.34-2.33-.31-5-1-6.17,2.29-1.08,3-2.55,5.86-3.53,8.88-.69,2.11-1.57,2.47-3.73,2A198.39,198.39,0,0,0,447.18,516c-5.29-.18-4.92.61-4.94-5,0-3.49-1.16-4.4-4.48-3.79-3.06.56-2.13,3-2,4.71.27,3.23-.78,4.18-4.09,4.14-11.79-.12-23.42,1.63-34.93,4-2.52.52-3.89.27-4.71-2.37-.9-2.92-2.21-5.72-3.35-8.57s-3.77-2.21-5.7-1.74c-2.47.59-.54,2.5-.21,3.59a62.61,62.61,0,0,0,3.21,8.21c1,2.24.71,3.51-1.88,4.09-5.64,1.26-11,3.49-16.41,5.38-3.05,1.06-6.12,4.27-9,2.87-2.7-1.31-4.35-4.83-6.38-7.44a178.51,178.51,0,0,1-10.23-15.29c-1.72-2.76-4.71-2.09-6.57-1.23s.36,2.75,1,3.94a146.23,146.23,0,0,0,15,21.76c.87,1.05,2.11,1.87,0,3-4.62,2.54-9.15,5.23-13.71,7.87a5.85,5.85,0,0,1-3.3-1A166.34,166.34,0,0,1,303.59,510c-1.52-2.19-3.28-3.18-5.85-2.81-.91.12-2.13-.5-2.63.66-.36.85.42,1.6.89,2.29a198.7,198.7,0,0,0,13.23,17.12c4.48,5.35,9.75,9.91,14.36,15.12-17.79,2.48-23.13,14.7-24.29,27-.25,2.65.26,4.2,3.46,3.9a57.15,57.15,0,0,1,8.48,0c2.21.12,3.09-.68,3.15-2.89a18.58,18.58,0,0,1,2.67-9.47,10.53,10.53,0,0,1,12.11-4.81c4.63,1.15,7.57,4.88,7.95,9.88.56,7.64-4.25,11.93-9.78,15.69-6.41,4.35-13,8.48-18.82,13.58a30.63,30.63,0,0,0-10.74,20c-.34,2.86-.1,4.36,3.62,4.29,14-.26,28-.11,42-.11,9.87,0,9.77,0,9.75-10,0-2.64-.83-3.29-3.36-3.26-9.46.14-18.93.08-28.39,0-1,0-2.2.54-3.18-.91,1.31-1.38,2.56-2.87,4-4.17A90.82,90.82,0,0,1,336,591.17c10.26-6.25,17.32-14.42,17-27.25,9.49,4.13,18.63,9.05,28.32,12.74-.33.79-.62,1.59-1,2.35A106.42,106.42,0,0,0,369,616.49c-.24,2.4.33,3,2.62,2.92a65,65,0,0,1,9.57,0c3.45.35,4.17-1,4.39-4.23C386.4,603.28,388.88,591.7,394.11,580.83ZM654.87,413.37a83,83,0,0,0-7.57-36.82c-7.76-17-20.07-29.51-37.28-36.9-17.83-7.66-36.43-9.08-55.46-6-22.57,3.71-40.72,14.67-53.3,33.87C488.52,387,485.63,408.46,489.88,431c2.78,14.76,8.8,28,19.11,39.13,15.39,16.58,34.93,24,57.06,25.07a98.21,98.21,0,0,0,41.46-6.46c13.41-5.3,24.71-13.47,33-25.44C650.65,448.73,655.08,432.45,654.87,413.37ZM374.42,474c3.77,2.93,6.93,5.62,10.3,8,15.73,11,33.31,13.71,51.92,11.2,16-2.15,29.31-9.29,39.24-22.24a43.2,43.2,0,0,0,1.6-50.54c-7.28-10.74-18.05-16.71-29.89-21.06-12.41-4.57-25.45-5.83-38.46-7.36-7.44-.87-14.7-2.32-21.24-6.46-7.06-4.48-9.93-19.48,1.66-24,7.11-2.8,14.36-2.82,21.71-2.65a37.37,37.37,0,0,1,20.9,7.18c6.27,4.4,10.65,10.42,14.5,16.92,1.14,1.93,1.95,4.05,5.07,4,8.35-.23,16.72-.14,25.07,0,2.32,0,3.26-.58,3.25-3.09q-.15-22.31,0-44.62c0-2.34-.62-3.26-3.1-3.22-8.61.12-17.21.1-25.82,0-2.26,0-3,.73-2.95,3,.14,4.21,0,8.44,0,13.43-1.78-1.69-2.9-2.78-4.06-3.84a53.13,53.13,0,0,0-14.72-9.59c-9.75-4.24-20-5.58-30.54-5.24-19,.6-35.37,6.93-47.38,22-8.92,11.21-11.33,23.88-4.67,37.18,7.87,15.69,21.1,24.79,37.72,29.36,12.92,3.55,26.34,3.87,39.49,6,6.67,1.06,13.26,2.48,18.92,6.57,4.07,2.94,6.29,9,5.42,13.93-1.45,8.22-7.35,11.73-14.42,14-3.86,1.26-7.92,1.41-11.94,1.89a46.47,46.47,0,0,1-27.7-5.28c-8.68-4.55-14.56-11.87-18.92-20.48-.84-1.67-1.67-2.7-3.82-2.67-9.22.12-18.44.09-27.66,0-2.08,0-2.78.71-2.77,2.78q.09,24.53,0,49.05c0,2,.51,2.88,2.68,2.86q14-.12,28,0c1.9,0,2.62-.64,2.58-2.56C374.36,483.81,374.42,479.27,374.42,474Zm-109.93-60.8c0,14.13-.08,28.27.07,42.4,0,3.21-.58,4.57-4.18,4.41-7.12-.3-14.26,0-21.39-.14-2.57-.05-3.4.75-3.36,3.34q.21,12.16,0,24.34c0,2.53.68,3.39,3.31,3.38q43.33-.12,86.66,0c2.45,0,3.16-.78,3.13-3.17q-.18-12.34,0-24.7c0-2.4-.71-3.22-3.14-3.18-7.37.14-14.75-.06-22.13.11-2.71.06-3.59-.69-3.58-3.5q.15-43.14,0-86.29c0-2.63.84-3.36,3.38-3.31,7.37.14,14.75,0,22.12.11,2.63.05,3.35-.85,3.31-3.39q-.19-12.17,0-24.33c.05-2.59-.77-3.35-3.34-3.35q-43.16.12-86.3,0c-2.5,0-3.45.63-3.4,3.28.15,8.11.18,16.23,0,24.34-.07,2.89,1,3.49,3.63,3.44,7.25-.16,14.51.06,21.76-.12,2.78-.07,3.53.81,3.51,3.55C264.42,384.7,264.49,399,264.49,413.22Zm318.23-93.71c-24.23-39.68-81.9-87.18-165.61-77.17a164.94,164.94,0,0,0-69.63,25.08,171.44,171.44,0,0,0-52.75,52.06c4.18.59,7.16.65,9.59-3,7.93-11.79,18-21.68,28.69-31,4.15-3.6,4.1-3.62,8.81-.58,2.27,1.46,4.57,2.88,6.93,4.19,4.6,2.55,4.62,2.51,1.59,6.5-.66.88-1.36,1.73-2,2.61a128.23,128.23,0,0,0-13.47,21c6.15,1,6.28,1.06,8.91-3.37a165,165,0,0,1,13.88-19.44c1.05-1.3,1.9-1.93,3.66-1.09A154.91,154.91,0,0,0,384.77,304c2.34.69,2.27,1.55,1.55,3.33-1.35,3.3-2.6,6.62-3.79,10-.26.74-1.23,1.77.4,2.39a4.89,4.89,0,0,0,6.36-2.94c1.1-2.86,2.29-5.69,3.44-8.53a2.2,2.2,0,0,1,2.86-1.56A165.79,165.79,0,0,0,431.23,311c3,0,5.15,1.11,4.5,4.85-.42,2.42,0,4.13,3.34,4.07,3.16-.06,3.24-1.58,3.21-3.92-.06-4.63.3-5,5-5,11.58,0,22.9-1.95,34.19-4.2,2.09-.42,3.14-.08,3.86,2.05,1.06,3.13,2.45,6.15,3.75,9.19s4.19,2,6.08,1.51,0-2.21-.32-3.29q-1.53-4.53-3.4-8.94c-.83-2-.26-3.08,1.68-3.58a144.92,144.92,0,0,0,23.49-8.54c1.36-.62,2.18-.3,3.14.82a121.91,121.91,0,0,1,13.93,19.4c2.26,4.07,4.9,5.32,9.33,4a15.36,15.36,0,0,0-.82-2,159.47,159.47,0,0,0-16.25-23.6c-.9-1.07-2.58-2-.09-3.25a93.77,93.77,0,0,0,12.61-7.6,2.32,2.32,0,0,1,3.26.09c11.88,9.61,22.78,20.23,31.39,32.89C575.76,319.86,578.74,320.18,582.72,319.51Zm-10,262.13c0-11.56,0-23.11,0-34.66,0-1.07.68-2.81-1.26-2.9-3.32-.15-6.64,0-10-.05-1.25,0-1.24,1-1.45,1.76-2,7.37-7.08,11.08-14.33,12.61-2.42.51-5.9-.85-7,1.54-1.07,2.2-.3,5.3-.33,8,0,.12,0,.25,0,.37-.21,1.78.62,2.34,2.35,2.3,4.3-.09,8.62.19,12.9-.1,3.2-.22,3.81,1,3.78,3.93-.16,13.88,0,27.77-.13,41.66,0,2.53.59,3.52,3.25,3.32a65.84,65.84,0,0,1,9.21,0c2.48.17,3.13-.74,3.1-3.12C572.71,604.74,572.77,593.19,572.77,581.64Z"/><path class="cls-10" d="M552.34,729.85a6.75,6.75,0,0,1,5.09,2.56,16.89,16.89,0,0,1,4,10.06,6.92,6.92,0,0,1-11,6,13.8,13.8,0,0,1-5.4-12.26A7.06,7.06,0,0,1,552.34,729.85Z"/><path class="cls-10" d="M586.16,148.31a15.48,15.48,0,0,1-5.47,10.32,6.13,6.13,0,0,1-6.87,1,6.31,6.31,0,0,1-4-6.09,14.31,14.31,0,0,1,5.85-11.74,5.78,5.78,0,0,1,6.89-.42C585,142.8,586.25,144.94,586.16,148.31Z"/><path class="cls-4" d="M578.46,164.2l.89-.07-.3.91Z"/><path class="cls-10" d="M372.93,742.36c4.5-.08,7.07,2.19,7.61,6.13.22,1.63.08,2.35-1.78,1.84-3.28-.9-6.57-1.78-9.9-2.49-1.71-.36-2-.94-1-2.36C369.17,743.58,370.86,742.34,372.93,742.36Z"/><path class="cls-10" d="M518.08,740.91a5.21,5.21,0,0,1,4.29,1.69c.81.89,2.06,1.89,1.63,3-.24.66-1.82.9-2.84,1.17-2.72.72-5.49,1.27-8.18,2.06-2,.57-2.35-.2-2.15-2A7.16,7.16,0,0,1,518.08,740.91Z"/><path class="cls-10" d="M151.31,291.68c7.1,2.9,8.82,7.26,4.89,11.91-1.22,1.45-2.66,2.69-4.74,1.77a4.23,4.23,0,0,1-2.59-5.1C149.5,297.42,150.45,294.66,151.31,291.68Z"/><path class="cls-10" d="M488.68,124.81a2.16,2.16,0,0,1,.36,0c1.37.31,3.57-.89,4,.33a6.57,6.57,0,0,1-1.31,6.2c-2.33,2.82-7.65,3-10.24.42-2.14-2.15-1.08-5.71,2.12-6.57a29.47,29.47,0,0,1,5.09-.5Z"/><path class="cls-10" d="M546.74,148.7A7.81,7.81,0,0,1,542,147c-1.37-1-2.28-2.26-1.79-4.08a4.09,4.09,0,0,1,3.67-3.15c3.11-.36,6,.92,9.09,1.18.68.06.69.46.72,1C553.81,145.48,550.44,148.78,546.74,148.7Z"/><path class="cls-10" d="M256.27,165.29a6.43,6.43,0,0,1,4.26-6c2.78-1.17,5.24-.26,7.45,1.66,1.22,1.07,1.34,1.86-.18,2.77-2.42,1.45-4.73,3.08-7.15,4.52-1,.6-2.09,2.12-3.16,1.43S256.29,167.12,256.27,165.29Z"/><path class="cls-10" d="M768.56,393.52a5.6,5.6,0,0,1-1.46,4c-1.24,1.42-2.79,3-4.55,2.58-1.6-.37-1.11-2.62-1.38-4.06-.45-2.51-.63-5.07-1.11-7.58-.36-1.81.44-2.14,2-2A7.08,7.08,0,0,1,768.56,393.52Z"/><path class="cls-10" d="M615.11,162.34c-.08,4.7-.9,5.21-4.07,3.35-2.52-1.48-5-3-7.55-4.45-1.08-.62-1.88-1.21-.59-2.41,2.15-2,4.46-3.36,7.56-2.28S615.11,159.9,615.11,162.34Z"/><path class="cls-10" d="M673.22,207.55c2.95.23,5,1.48,6.14,3.85,1.23,2.53.65,5-.79,7.29-.91,1.48-1.63.89-2.51,0-2-2.11-4.15-4.15-6.21-6.23-2.53-2.55-2.34-3.35,1.15-4.46A15.38,15.38,0,0,1,673.22,207.55Z"/><path class="cls-10" d="M117,384.67a14.12,14.12,0,0,1,8.5,3,7,7,0,0,1-2,12.19,13.8,13.8,0,0,1-13.3-1.86,6.68,6.68,0,0,1-2.57-8.15C108.73,386.59,112.18,384.67,117,384.67Z"/><path class="cls-10" d="M183.9,253.33c-4.92,0-11.14-4.91-12.23-9.6a7.11,7.11,0,0,1,8.06-8.64,13.85,13.85,0,0,1,10.94,8.76C192.59,248.66,189.13,253.36,183.9,253.33Z"/><path class="cls-11" d="M654.87,413.37c.21,19.08-4.22,35.36-14.34,50-8.31,12-19.61,20.14-33,25.44a98.21,98.21,0,0,1-41.46,6.46c-22.13-1.1-41.67-8.49-57.06-25.07-10.31-11.1-16.33-24.37-19.11-39.13-4.25-22.57-1.36-44,11.38-63.47,12.58-19.2,30.73-30.16,53.3-33.87,19-3.12,37.63-1.7,55.46,6,17.21,7.39,29.52,19.93,37.28,36.9A83,83,0,0,1,654.87,413.37Zm-46.56,1.36c.3-8.32.06-16.51-2.24-24.5-2-7.07-5.14-13.5-11.12-18.18-8.24-6.45-17.67-7.58-27.74-6.66-15.1,1.39-25.91,10.44-29.88,25.17-4.07,15.1-3.5,30.34-1.12,45.52,1.57,10,7.18,17.51,16.58,22,8.18,3.88,16.62,5.65,25.64,4.07,12-2.09,24.88-9.65,28.17-24.09A89.12,89.12,0,0,0,608.31,414.73Z"/><path class="cls-11" d="M374.42,474c0,5.25-.06,9.79,0,14.34,0,1.92-.68,2.58-2.58,2.56q-14-.09-28,0c-2.17,0-2.68-.88-2.68-2.86q.09-24.52,0-49.05c0-2.07.69-2.8,2.77-2.78,9.22.07,18.44.1,27.66,0,2.15,0,3,1,3.82,2.67,4.36,8.61,10.24,15.93,18.92,20.48a46.47,46.47,0,0,0,27.7,5.28c4-.48,8.08-.63,11.94-1.89,7.07-2.31,13-5.82,14.42-14,.87-4.91-1.35-11-5.42-13.93-5.66-4.09-12.25-5.51-18.92-6.57-13.15-2.1-26.57-2.42-39.49-6-16.62-4.57-29.85-13.67-37.72-29.36-6.66-13.3-4.25-26,4.67-37.18,12-15.09,28.42-21.42,47.38-22,10.57-.34,20.79,1,30.54,5.24a53.13,53.13,0,0,1,14.72,9.59c1.16,1.06,2.28,2.15,4.06,3.84,0-5,.1-9.22,0-13.43-.07-2.25.69-3,2.95-3,8.61.1,17.21.12,25.82,0,2.48,0,3.12.88,3.1,3.22q-.12,22.32,0,44.62c0,2.51-.93,3.12-3.25,3.09-8.35-.1-16.72-.19-25.07,0-3.12.08-3.93-2-5.07-4-3.85-6.5-8.23-12.52-14.5-16.92a37.37,37.37,0,0,0-20.9-7.18c-7.35-.17-14.6-.15-21.71,2.65-11.59,4.56-8.72,19.56-1.66,24,6.54,4.14,13.8,5.59,21.24,6.46,13,1.53,26.05,2.79,38.46,7.36,11.84,4.35,22.61,10.32,29.89,21.06a43.2,43.2,0,0,1-1.6,50.54c-9.93,13-23.24,20.09-39.24,22.24C418,495.71,400.45,493,384.72,482,381.35,479.64,378.19,477,374.42,474Z"/><path class="cls-11" d="M264.49,413.22c0-14.26-.07-28.52.06-42.78,0-2.74-.73-3.62-3.51-3.55-7.25.18-14.51,0-21.76.12-2.64.05-3.7-.55-3.63-3.44.19-8.11.16-16.23,0-24.34,0-2.65.9-3.29,3.4-3.28q43.15.1,86.3,0c2.57,0,3.39.76,3.34,3.35q-.21,12.16,0,24.33c0,2.54-.68,3.44-3.31,3.39-7.37-.16-14.75,0-22.12-.11-2.54,0-3.39.68-3.38,3.31q.12,43.14,0,86.29c0,2.81.87,3.56,3.58,3.5,7.38-.17,14.76,0,22.13-.11,2.43,0,3.17.78,3.14,3.18q-.18,12.35,0,24.7c0,2.39-.68,3.18-3.13,3.17q-43.32-.1-86.66,0c-2.63,0-3.35-.85-3.31-3.38q.21-12.17,0-24.34c0-2.59.79-3.39,3.36-3.34,7.13.15,14.27-.16,21.39.14,3.6.16,4.21-1.2,4.18-4.41C264.41,441.49,264.49,427.35,264.49,413.22Z"/><path class="cls-4" d="M582.72,319.51c-4,.67-7,.35-9.64-3.61-8.61-12.66-19.51-23.28-31.39-32.89a2.32,2.32,0,0,0-3.26-.09,93.77,93.77,0,0,1-12.61,7.6c-2.49,1.2-.81,2.18.09,3.25a159.47,159.47,0,0,1,16.25,23.6,15.36,15.36,0,0,1,.82,2c-4.43,1.32-7.07.07-9.33-4A121.91,121.91,0,0,0,519.72,296c-1-1.12-1.78-1.44-3.14-.82a144.92,144.92,0,0,1-23.49,8.54c-1.94.5-2.51,1.62-1.68,3.58q1.88,4.41,3.4,8.94c.36,1.08,2.14,2.83.32,3.29s-4.76,1.58-6.08-1.51-2.69-6.06-3.75-9.19c-.72-2.13-1.77-2.47-3.86-2.05-11.29,2.25-22.61,4.21-34.19,4.2-4.67,0-5,.4-5,5,0,2.34,0,3.86-3.21,3.92-3.38.06-3.76-1.65-3.34-4.07.65-3.74-1.49-4.85-4.5-4.85a165.79,165.79,0,0,1-35.64-4.29,2.2,2.2,0,0,0-2.86,1.56c-1.15,2.84-2.34,5.67-3.44,8.53a4.89,4.89,0,0,1-6.36,2.94c-1.63-.62-.66-1.65-.4-2.39,1.19-3.36,2.44-6.68,3.79-10,.72-1.78.79-2.64-1.55-3.33a154.91,154.91,0,0,1-23.48-8.59c-1.76-.84-2.61-.21-3.66,1.09A165,165,0,0,0,343.75,316c-2.63,4.43-2.76,4.41-8.91,3.37a128.23,128.23,0,0,1,13.47-21c.67-.88,1.37-1.73,2-2.61,3-4,3-3.95-1.59-6.5-2.36-1.31-4.66-2.73-6.93-4.19-4.71-3-4.66-3-8.81.58-10.69,9.28-20.76,19.17-28.69,31-2.43,3.61-5.41,3.55-9.59,3a171.44,171.44,0,0,1,52.75-52.06,164.94,164.94,0,0,1,69.63-25.08C500.82,232.33,558.49,279.83,582.72,319.51Zm-189-65.45a9.79,9.79,0,0,0,4.24,3.23,79.66,79.66,0,0,0,30.19,7c10.87.46,21.81.72,32.63-1.32,7.12-1.35,14.13-2.95,20.49-6.6.92-.53,2.25-1,2-2.31-.22-1.09-1.61-1-2.47-1.24a183.22,183.22,0,0,0-38.06-5.31,154,154,0,0,0-30.7,2.24A105.87,105.87,0,0,0,393.73,254.06Zm42,34.19c0-4.18-.23-8.38.07-12.54.26-3.59-.63-5.31-4.58-4.73a13.09,13.09,0,0,1-5.47-.29c-4-1.19-7,.18-10,2.89-7.7,7.09-13.33,15.65-18.28,24.77-1,1.93-.26,2.49,1.24,2.77a209.59,209.59,0,0,0,34.61,3.9c2.08,0,2.42-1,2.4-2.75C435.65,297.59,435.69,292.92,435.69,288.25Zm45.64,12.08C476.17,290,470.19,280.94,462,273.5c-2.16-2-4.49-4-7.78-3.15a30.47,30.47,0,0,1-9.12.65c-2.31-.1-2.93.84-2.91,3,.09,9.33.11,18.65,0,28,0,2.53.95,3.2,3.26,3,4-.33,8.06-.36,12.06-.8A170.44,170.44,0,0,0,481.33,300.33ZM364.15,289.91a210.87,210.87,0,0,0,21.44,8c3.72,1.22,5.25.18,6.71-2.87,3.55-7.44,8.41-14,13.63-20.39,1.66-2,5.32-3.52,4.64-5.9-.4-1.39-4.69-1.68-7.24-2.44-1.95-.58-3.84-1.85-6-.81A105.28,105.28,0,0,0,364.15,289.91Zm114.17-24.76c-2.89.86-6.13,2-9.46,2.76-2.19.49-2.54,1-.9,2.66a99,99,0,0,1,18.27,25.67c1.06,2.12,2.46,2.42,4.5,1.84a185.1,185.1,0,0,0,19.77-6.91c2.43-1,3-1.82.86-4a116.12,116.12,0,0,0-29.51-21.1A5.91,5.91,0,0,0,478.32,265.15Zm-86.49-4A40.52,40.52,0,0,1,388,257.4c-1-1.23-1.95-1.2-3.23-.77-14.13,4.78-27.18,11.73-39.62,19.89-2,1.29-1.75,2.31.18,3.41,3.19,1.82,6.36,3.67,9.48,5.61,2.09,1.29,3.68,1.18,5.47-.72C369.32,275.18,380,267.59,391.83,261.14Zm100.62-4.85c-1.86,0-3.08,1.11-5.26,3.41-1.13,1.2-.88,1.63.41,2.33a123.9,123.9,0,0,1,30.55,23.24c1.25,1.3,2.28,1.33,3.82.34,3.29-2.11,6.67-4.1,10.14-5.91,2.55-1.32,2.32-2.09.09-3.6a186.18,186.18,0,0,0-27.35-15C500.63,259.19,496.21,257.73,492.45,256.29Z"/><path class="cls-12" d="M337.83,544.18c4.56-2.64,9.09-5.33,13.71-7.87,2.11-1.17.87-2,0-3a146.23,146.23,0,0,1-15-21.76c-.66-1.19-2.81-3.11-1-3.94s4.85-1.53,6.57,1.23a178.51,178.51,0,0,0,10.23,15.29c2,2.61,3.68,6.13,6.38,7.44,2.91,1.4,6-1.81,9-2.87,5.44-1.89,10.77-4.12,16.41-5.38,2.59-.58,2.91-1.85,1.88-4.09a62.61,62.61,0,0,1-3.21-8.21c-.33-1.09-2.26-3,.21-3.59,1.93-.47,4.54-1.17,5.7,1.74s2.45,5.65,3.35,8.57c.82,2.64,2.19,2.89,4.71,2.37,11.51-2.38,23.14-4.13,34.93-4,3.31,0,4.36-.91,4.09-4.14-.14-1.7-1.07-4.15,2-4.71,3.32-.61,4.47.3,4.48,3.79,0,5.62-.35,4.83,4.94,5a198.39,198.39,0,0,1,34.51,4.52c2.16.47,3,.11,3.73-2,1-3,2.45-5.89,3.53-8.88,1.19-3.28,3.84-2.6,6.17-2.29,1.52.19.79,1.46.45,2.34-1.27,3.32-2.42,6.7-3.88,9.94-1,2.27-.58,3.31,1.85,4a138.42,138.42,0,0,1,23.07,8.58c1.39.65,2.06.37,3-.76a117.25,117.25,0,0,0,15.1-21.25c1.79-3.35,4.38-3.21,7.15-2.89,2.42.29.81,1.88.37,2.66a150.81,150.81,0,0,1-13.46,20.19c-4.44,5.51-4.54,5.42,1.32,9,2.6,1.62,5.28,3.15,7.75,5,1.74,1.26,3,1,4.54-.24a173.21,173.21,0,0,0,32-33.86,7,7,0,0,1,1.94-2.17c2-1.12,4.69-1.4,6.25-.13,1.24,1-.89,2.76-1.74,4A179,179,0,0,1,528.94,561a13.82,13.82,0,0,1-2,.89q-1.19-3-2.39-6a58,58,0,0,0,10.07-6.62c-.57-.3-.92-.45-1.23-.65-2.69-1.69-5.34-3.43-8.06-5.08-5.54-3.35-5.9-3.26-10,2l-6.56-2.38c1.2-2.1,3.65-3.18,4.77-5.62a201.73,201.73,0,0,0-22.16-8.26c-2.66-.87-4.06-.38-5.34,2.32A76.21,76.21,0,0,1,474,550c-2.31,2.56-3.76,6.15-7.46,7.32l-2.89-5.21c6.68-5.65,10.93-13.14,15.37-20.47,2.92-4.82,2.61-5.11-3.06-6.12-10.12-1.81-20.35-2.59-30.56-3.62-2.36-.24-3.3.51-3.24,3,.14,5.77,0,11.54,0,17.32l-5.52.74c-1.21-1-1-2.43-1-3.76,0-4.67-.17-9.34.06-14,.15-3-1.1-3.67-3.67-3.34-2.18.27-4.37.59-6.56.65-8.83.23-17.47,1.92-26.17,3.2-2.33.35-2.89,1.21-1.75,3.64,2.39,5.13,6.18,9.4,8.54,14.52l-7.33,0c-2.64-4.39-5.46-8.69-7.54-13.39a2.82,2.82,0,0,0-3.79-1.81,198.43,198.43,0,0,0-21.76,7.55c-1.54.62-1.83,1.4-.55,2.66,1.64,1.63,3.2,3.34,4.79,5h-8.81c-2-3.25-4.29-4.08-7.68-1.68-3,2.09-6.23,3.71-9.37,5.54Z"/><path class="cls-13" d="M436.69,543l5.52-.74c8.58.2,16,3,21.48,9.87l2.89,5.21.66,1.45,2.28,7.36c.35,3.46.71,6.92,1.06,10.39l.18,6.46c-.5,7.58-1.21,15.06-4.05,22.27-8,20.24-34.56,18.67-43.28,7.32-4.65-6-6.68-13-7.67-20.35-.34-2.55-.52-5.12-.77-7.67V578q.92-6.91,1.82-13.83,1.32-3.78,2.65-7.56C423.32,549.67,428.55,544.5,436.69,543Zm15.82,19.41c-2.43-5.31-5.39-7.32-10.56-7.17-3.89.12-6.94,2.68-8.56,7.17-2.63,5.42-2.92,11.2-2.65,17.07V586c0,5.91.52,11.74,3.52,17,4,7,12.76,7.18,17,.34,3.4-5.51,4-11.69,3.59-18a13,13,0,0,0,.16-6.68C455.09,573.09,454.79,567.61,452.51,562.43Z"/><path class="cls-13" d="M524.55,555.88q1.2,3,2.39,6a74,74,0,0,1,0,38.91c-4.6,16.56-18.83,23.94-34.94,18.52-8.92-3-13.2-10-15.79-18.49-1.78-5.8-2.07-11.8-2.52-17.79.06-2.41.12-4.83.19-7.24q.42-4.08.85-8.17.84-3.27,1.7-6.56c2-4.68,4.08-9.36,8.13-12.79,7.15-6,15.44-6.53,24.16-5.1l6.56,2.38A32.32,32.32,0,0,1,524.55,555.88Zm-32.09,6.52c-.75-.18-.59.39-.65.79-1.53,2.51-1.63,5.38-2.07,8.17-.06,2.44-.13,4.88-.19,7.32,0,4.28-.2,8.58.17,12.83.39,4.51,1.34,9,4.12,12.77a9.56,9.56,0,0,0,15,.74,14.46,14.46,0,0,0,3.16-5.75c2.65-9.73,2.48-19.58,1.09-29.47a15,15,0,0,0-1.48-6.55c-1.47-4.3-4.06-7.35-8.85-7.94-5.72-.24-9,2-10.35,7.13Z"/><path class="cls-13" d="M337.83,544.18l6.27,3.59,5.73,6.61c.22.38.16,1.1,1,.79h-.11c.77,2.91,1.53,5.83,2.3,8.74.36,12.83-6.7,21-17,27.25A90.82,90.82,0,0,0,322.25,601c-1.43,1.3-2.68,2.79-4,4.17,1,1.45,2.19.9,3.18.91,9.46,0,18.93.11,28.39,0,2.53,0,3.36.62,3.36,3.26,0,10,.12,10-9.75,10-14,0-28-.15-42,.11-3.72.07-4-1.43-3.62-4.29a30.63,30.63,0,0,1,10.74-20c5.85-5.1,12.41-9.23,18.82-13.58,5.53-3.76,10.34-8,9.78-15.69-.38-5-3.32-8.73-7.95-9.88a10.53,10.53,0,0,0-12.11,4.81,18.58,18.58,0,0,0-2.67,9.47c-.06,2.21-.94,3-3.15,2.89a57.15,57.15,0,0,0-8.48,0c-3.2.3-3.71-1.25-3.46-3.9,1.16-12.27,6.5-24.49,24.28-27a68,68,0,0,1,10.95.82A5.85,5.85,0,0,0,337.83,544.18Z"/><path class="cls-13" d="M398.81,543.88l7.33,0c3-.39,4.46.67,3.79,3.88a5.59,5.59,0,0,0,.09,1.4c0,2.69,0,5.37,0,8.06l-1.58,1.54a33,33,0,0,0-6.83,8,27.08,27.08,0,0,0-4.34,7.46,17.7,17.7,0,0,0-3.15,6.59c-5.23,10.87-7.71,22.45-8.52,34.38-.22,3.21-.94,4.58-4.39,4.23a65,65,0,0,0-9.57,0c-2.29.11-2.86-.52-2.62-2.92A106.42,106.42,0,0,1,380.29,579c.39-.76.68-1.56,1-2.35a24.59,24.59,0,0,0,3.5-6.06,19.35,19.35,0,0,0,3.73-5.68c1.59-1.25,2.53-3,3.67-4.62.65-.34,1.29-1,.92-1.58-.6-.9-1.61-.38-2.46-.14a58.26,58.26,0,0,0-11-.1c-1.32-.06-2.65-.15-4-.2-5.82-.22-11.66.46-17.46-.38,0-3.68.22-7.37,0-11-.13-2.33.76-3.11,2.88-3H370Z"/><path class="cls-13" d="M572.77,581.64c0,11.55-.06,23.1,0,34.66,0,2.38-.62,3.29-3.1,3.12a65.84,65.84,0,0,0-9.21,0c-2.66.2-3.27-.79-3.25-3.32.12-13.89,0-27.78.13-41.66,0-3-.58-4.15-3.78-3.93-4.28.29-8.6,0-12.9.1-1.73,0-2.56-.52-2.35-2.3,0-.12,0-.25,0-.37,0-2.7-.74-5.8.33-8,1.15-2.39,4.63-1,7-1.54,7.25-1.53,12.33-5.24,14.33-12.61.21-.77.2-1.76,1.45-1.76,3.32,0,6.64-.1,10,.05,1.94.09,1.25,1.83,1.26,2.9C572.78,558.53,572.77,570.08,572.77,581.64Z"/><path class="cls-12" d="M334.53,543.21a68,68,0,0,0-10.95-.82c-4.6-5.21-9.87-9.77-14.35-15.12A198.7,198.7,0,0,1,296,510.15c-.47-.69-1.25-1.44-.89-2.29.5-1.16,1.72-.54,2.63-.66,2.57-.37,4.33.62,5.85,2.81A166.34,166.34,0,0,0,334.53,543.21Z"/><path class="cls-12" d="M384.8,570.6a24.59,24.59,0,0,1-3.5,6.06c-9.69-3.69-18.83-8.61-28.32-12.74-.77-2.91-1.53-5.83-2.3-8.74,3,.22,4.86,2.73,7.51,3.63A130.18,130.18,0,0,0,384.8,570.6Z"/><path class="cls-12" d="M394.11,580.83a17.7,17.7,0,0,1,3.15-6.59c5.76,2,11.8,2.6,17.73,3.73v6.62c-6-.59-11.76-2.11-17.61-3.32C396.31,581.05,395.2,581,394.11,580.83Z"/><path class="cls-12" d="M473.92,575.78c-.07,2.41-.13,4.83-.19,7.24h-3l-.18-6.46Z"/><path class="cls-9" d="M608.31,414.73A89.12,89.12,0,0,1,606.6,438c-3.29,14.44-16.21,22-28.17,24.09-9,1.58-17.46-.19-25.64-4.07-9.4-4.46-15-11.93-16.58-22-2.38-15.18-3-30.42,1.12-45.52,4-14.73,14.78-23.78,29.88-25.17,10.07-.92,19.5.21,27.74,6.66,6,4.68,9.08,11.11,11.12,18.18C608.37,398.22,608.61,406.41,608.31,414.73Z"/><path class="cls-9" d="M393.73,254.06a105.87,105.87,0,0,1,18.32-4.32,154,154,0,0,1,30.7-2.24,183.22,183.22,0,0,1,38.06,5.31c.86.22,2.25.15,2.47,1.24.25,1.29-1.08,1.78-2,2.31-6.36,3.65-13.37,5.25-20.49,6.6-10.82,2-21.76,1.78-32.63,1.32a79.66,79.66,0,0,1-30.19-7A9.79,9.79,0,0,1,393.73,254.06Z"/><path class="cls-9" d="M435.69,288.25c0,4.67,0,9.34,0,14,0,1.72-.32,2.78-2.4,2.75a209.59,209.59,0,0,1-34.61-3.9c-1.5-.28-2.28-.84-1.24-2.77,5-9.12,10.58-17.68,18.28-24.77,2.93-2.71,5.92-4.08,10-2.89a13.09,13.09,0,0,0,5.47.29c3.95-.58,4.84,1.14,4.58,4.73C435.46,279.87,435.69,284.07,435.69,288.25Z"/><path class="cls-9" d="M481.33,300.33a170.44,170.44,0,0,1-23.81,3.87c-4,.44-8,.47-12.06.8-2.31.18-3.3-.49-3.26-3,.12-9.32.1-18.64,0-28,0-2.17.6-3.11,2.91-3a30.47,30.47,0,0,0,9.12-.65c3.29-.86,5.62,1.18,7.78,3.15C470.19,280.94,476.17,290,481.33,300.33Z"/><path class="cls-9" d="M364.15,289.91a105.28,105.28,0,0,1,33.19-24.42c2.15-1,4,.23,6,.81,2.55.76,6.84,1.05,7.24,2.44.68,2.38-3,3.88-4.64,5.9C400.71,281,395.85,287.59,392.3,295c-1.46,3.05-3,4.09-6.71,2.87A210.87,210.87,0,0,1,364.15,289.91Z"/><path class="cls-9" d="M478.32,265.15a5.91,5.91,0,0,1,3.53,1,116.12,116.12,0,0,1,29.51,21.1c2.18,2.15,1.57,3-.86,4a185.1,185.1,0,0,1-19.77,6.91c-2,.58-3.44.28-4.5-1.84A99,99,0,0,0,468,270.57c-1.64-1.64-1.29-2.17.9-2.66C472.19,267.15,475.43,266,478.32,265.15Z"/><path class="cls-9" d="M391.83,261.14c-11.88,6.45-22.51,14-31.56,23.68-1.79,1.9-3.38,2-5.47.72-3.12-1.94-6.29-3.79-9.48-5.61-1.93-1.1-2.15-2.12-.18-3.41,12.44-8.16,25.49-15.11,39.62-19.89,1.28-.43,2.25-.46,3.23.77A40.52,40.52,0,0,0,391.83,261.14Z"/><path class="cls-9" d="M492.45,256.29c3.76,1.44,8.18,2.9,12.4,4.82a186.18,186.18,0,0,1,27.35,15c2.23,1.51,2.46,2.28-.09,3.6-3.47,1.81-6.85,3.8-10.14,5.91-1.54,1-2.57,1-3.82-.34A123.9,123.9,0,0,0,487.6,262c-1.29-.7-1.54-1.13-.41-2.33C489.37,257.4,490.59,256.33,492.45,256.29Z"/><path class="cls-9" d="M410,549.21a5.59,5.59,0,0,1-.09-1.4c.67-3.21-.81-4.27-3.79-3.88-2.36-5.12-6.15-9.39-8.54-14.52-1.14-2.43-.58-3.29,1.75-3.64,8.7-1.28,17.34-3,26.17-3.2,2.19-.06,4.38-.38,6.56-.65,2.57-.33,3.82.38,3.67,3.34-.23,4.66-.07,9.33-.06,14,0,1.33-.21,2.74,1,3.76-8.14,1.48-13.37,6.65-17.23,13.56C415.83,554.74,413.74,550.93,410,549.21Z"/><path class="cls-9" d="M463.69,552.15c-5.49-6.92-12.9-9.67-21.48-9.87,0-5.78.13-11.55,0-17.32-.06-2.51.88-3.26,3.24-3,10.21,1,20.44,1.81,30.56,3.62,5.67,1,6,1.3,3.06,6.12C474.62,539,470.37,546.5,463.69,552.15Z"/><path class="cls-9" d="M508.76,543.16c-8.72-1.43-17-.94-24.16,5.1-4.05,3.43-6.08,8.11-8.13,12.79-3.11-.62-6-2.12-9.23-2.24l-.66-1.45c3.7-1.17,5.15-4.76,7.46-7.32a76.21,76.21,0,0,0,12-18.44c1.28-2.7,2.68-3.19,5.34-2.32a201.73,201.73,0,0,1,22.16,8.26C512.41,540,510,541.06,508.76,543.16Z"/><path class="cls-9" d="M398.81,543.88l-28.85,0c-1.59-1.68-3.15-3.39-4.79-5-1.28-1.26-1-2,.55-2.66a198.43,198.43,0,0,1,21.76-7.55,2.82,2.82,0,0,1,3.79,1.81C393.35,535.19,396.17,539.49,398.81,543.88Z"/><path class="cls-9" d="M358.19,558.81c-2.65-.9-4.53-3.41-7.51-3.63h.11l-1-.79-5.73-6.61c3.14-1.83,6.42-3.45,9.37-5.54,3.39-2.4,5.72-1.57,7.68,1.68-2.12-.16-3,.62-2.88,3,.2,3.67,0,7.36,0,11Z"/><path class="cls-14" d="M524.55,555.88a32.32,32.32,0,0,0-9.23-10.34c4.11-5.27,4.47-5.36,10-2,2.72,1.65,5.37,3.39,8.06,5.08.31.2.66.35,1.23.65A58,58,0,0,1,524.55,555.88Z"/><path class="cls-14" d="M454.83,585.32c.38,6.32-.19,12.5-3.59,18-4.22,6.84-13,6.65-17-.34-3-5.25-3.54-11.08-3.52-17C438.78,586,446.83,586.53,454.83,585.32Z"/><path class="cls-14" d="M430.74,579.5c-.27-5.87,0-11.65,2.65-17.07h19.12c2.28,5.18,2.58,10.66,2.48,16.21a44.65,44.65,0,0,1-7.66.82C441.8,579.38,436.27,579.48,430.74,579.5Z"/><path class="cls-14" d="M415,578c-5.93-1.13-12-1.76-17.73-3.73a27.08,27.08,0,0,1,4.34-7.46c1.27,1.51,2.49.1,3.59-.22,3.82-1.1,7.59-2.32,11.62-2.42Q415.9,571.06,415,578Z"/><path class="cls-4" d="M430.74,579.5c5.53,0,11.06-.12,16.59,0a44.65,44.65,0,0,0,7.66-.82,13,13,0,0,1-.16,6.68c-8,1.21-16.05.7-24.09.68Z"/><path class="cls-10" d="M416.81,564.14c-4,.1-7.8,1.32-11.62,2.42-1.1.32-2.32,1.73-3.59.22a33,33,0,0,1,6.83-8c.73-.3,2.59.55,1.58-1.54,0-2.69,0-5.37,0-8.06,3.72,1.72,5.81,5.53,9.44,7.37Q418.13,560.36,416.81,564.14Z"/><path class="cls-10" d="M452.51,562.43H433.39c1.62-4.49,4.67-7,8.56-7.17C447.12,555.11,450.08,557.12,452.51,562.43Z"/><path class="cls-10" d="M467.24,558.81c3.23.12,6.12,1.62,9.23,2.24q-.86,3.29-1.7,6.56c-1.71-.65-3.35-1.51-5.25-1.44Z"/><path class="cls-14" d="M469.52,566.17c1.9-.07,3.54.79,5.25,1.44q-.43,4.1-.85,8.17l-3.34.78C470.23,573.09,469.87,569.63,469.52,566.17Z"/><path class="cls-14" d="M513.05,569.8c1.39,9.89,1.56,19.74-1.09,29.47A14.46,14.46,0,0,1,508.8,605a9.56,9.56,0,0,1-15-.74c-2.78-3.81-3.73-8.26-4.12-12.77-.37-4.25-.14-8.55-.17-12.83C497.66,576.46,505.25,572.85,513.05,569.8Z"/><path class="cls-14" d="M489.74,571.36c.44-2.79.54-5.66,2.07-8.17l.65-.79-.09,0c3.84-1.81,7.49-3.9,10.35-7.13,4.79.59,7.38,3.64,8.85,7.94-1.9.82-3.77,1.72-5.7,2.47C500.56,567.77,495.53,570.64,489.74,571.36Z"/><path class="cls-12" d="M489.74,571.36c5.79-.72,10.82-3.59,16.13-5.64,1.93-.75,3.8-1.65,5.7-2.47a15,15,0,0,1,1.48,6.55c-7.8,3.05-15.39,6.66-23.5,8.88Z"/><path class="cls-10" d="M502.72,555.31c-2.86,3.23-6.51,5.32-10.35,7.13C493.7,557.35,497,555.07,502.72,555.31Z"/><path class="cls-10" d="M492.46,562.4l-.65.79C491.87,562.79,491.71,562.22,492.46,562.4Z"/><path class="cls-12" d="M349.83,554.38l1,.79C350,555.48,350.05,554.76,349.83,554.38Z"/><path class="cls-14" d="M358.19,558.81l.06-.91c5.8.84,11.64.16,17.46.38,1.33.05,2.66.14,4,.2,2.22,3.15,6.37,3.64,8.84,6.44a19.35,19.35,0,0,1-3.73,5.68A130.18,130.18,0,0,1,358.19,558.81Z"/><path class="cls-10" d="M388.53,564.92c-2.47-2.8-6.62-3.29-8.84-6.44a58.26,58.26,0,0,1,11,.1c.52.57,1,1.15,1.54,1.72C391.06,561.91,390.12,563.67,388.53,564.92Z"/><path class="cls-14" d="M392.2,560.3c-.51-.57-1-1.15-1.54-1.72.85-.24,1.86-.76,2.46.14C393.49,559.29,392.85,560,392.2,560.3Z"/><path class="cls-9" d="M410,557.27c1,2.09-.85,1.24-1.58,1.54Z"/></g></g></svg>