<svg xmlns="http://www.w3.org/2000/svg" viewBox="0 0 124.7 169.48"><defs><style>.cls-1{fill:#4858e8;}</style></defs><g id="Layer_2" data-name="Layer 2"><g id="Layer_1-2" data-name="Layer 1"><path class="cls-1" d="M62.35,157c3.53-5,7.75-10.55,12.26-16.48,18.08-23.74,41.08-53.95,41.08-78.14A53.34,53.34,0,1,0,9,62.35c0,24.19,23,54.4,41.07,78.14C54.59,146.42,58.81,152,62.35,157Zm0-122.51a27.89,27.89,0,1,1-19.72,8.17A27.8,27.8,0,0,1,62.35,34.46ZM75.7,49a18.89,18.89,0,1,0,5.53,13.36A18.85,18.85,0,0,0,75.7,49Zm6.06,96.95c-6.12,8-11.68,15.34-15.58,21.4a4.44,4.44,0,0,1-1.4,1.43,4.49,4.49,0,0,1-6.21-1.35C54.67,161.34,49.08,154,42.94,146,24.05,121.13,0,89.54,0,62.35a62.35,62.35,0,1,1,124.7,0c0,27.19-24,58.78-42.94,83.6Z"/></g></g></svg>