<svg xmlns="http://www.w3.org/2000/svg" viewBox="0 0 875.8 875.8"><defs><style>.cls-1{fill:#4858e8;}</style></defs><g id="Layer_2" data-name="Layer 2"><g id="Layer_1-2" data-name="Layer 1"><path class="cls-1" d="M437.9,875.8A438,438,0,0,1,267.45,34.42a438,438,0,0,1,340.9,807A435.1,435.1,0,0,1,437.9,875.8Zm0-849.8C210.78,26,26,210.78,26,437.9S210.78,849.8,437.9,849.8,849.8,665,849.8,437.9,665,26,437.9,26Z"/><path class="cls-1" d="M487.85,625.64H233.43a40.55,40.55,0,0,1-40.53-40.53V233.53A40.55,40.55,0,0,1,233.43,193h214a5.55,5.55,0,0,1,0,11.1h-214A29.57,29.57,0,0,0,204,233.53V585a29.46,29.46,0,0,0,29.44,29.43H487.94A29.45,29.45,0,0,0,517.37,585V560.33a5.55,5.55,0,1,1,11.1,0V585a40.82,40.82,0,0,1-40.62,40.62Zm34.89-245.93a5.46,5.46,0,0,1-5.54-5.55V274.05a5.55,5.55,0,0,1,11.09,0V374.16A5.47,5.47,0,0,1,522.74,379.71Z"/><path class="cls-1" d="M522.74,279.6H466.2a24.39,24.39,0,0,1-24.42-24.42V198.55a5.33,5.33,0,0,1,3.49-5.1,5.17,5.17,0,0,1,6,1.25L526.77,270a5.53,5.53,0,0,1,1.25,6,5.59,5.59,0,0,1-5.28,3.58ZM453,212.06v43.21a13.29,13.29,0,0,0,13.33,13.24H509.5Z"/><path class="cls-1" d="M475,335H245.68a5.55,5.55,0,0,1,0-11.1H475.06a5.47,5.47,0,0,1,5.55,5.55A5.6,5.6,0,0,1,475,335Z"/><path class="cls-1" d="M408,382H245.68a5.55,5.55,0,0,1,0-11.09H408A5.55,5.55,0,1,1,408,382Z"/><path class="cls-1" d="M368.06,429.18H245.68a5.55,5.55,0,0,1,0-11.09H368.06a5.45,5.45,0,0,1,5.55,5.54A5.52,5.52,0,0,1,368.06,429.18Z"/><path class="cls-1" d="M358.85,476.15H245.68a5.55,5.55,0,0,1,0-11.1H358.94a5.47,5.47,0,0,1,5.55,5.55A5.55,5.55,0,0,1,358.85,476.15Z"/><path class="cls-1" d="M371.29,523.2H245.68a5.55,5.55,0,0,1,0-11.09H371.29a5.55,5.55,0,0,1,0,11.09Z"/><path class="cls-1" d="M419.68,570.17h-174a5.55,5.55,0,0,1,0-11.09h174a5.55,5.55,0,1,1,0,11.09Z"/><path class="cls-1" d="M396.78,279.6H245.68a5.46,5.46,0,0,1-5.54-5.55V239.34a5.45,5.45,0,0,1,5.54-5.54h151.1a5.46,5.46,0,0,1,5.55,5.54v34.71a5.58,5.58,0,0,1-5.55,5.55ZM251.23,268.51H391.15V244.89H251.23Z"/><path class="cls-1" d="M649.15,682.8a33.68,33.68,0,0,1-23.8-9.75l-107.8-108a5.57,5.57,0,0,1,7.88-7.87L633.32,665.09a22.52,22.52,0,0,0,31.84-31.85L557.27,525.35a5.57,5.57,0,0,1,7.88-7.87L673,625.37a33.68,33.68,0,0,1-23.89,57.43Z"/><path class="cls-1" d="M467.19,581.08a113.88,113.88,0,1,1,80.6-33.28,113.86,113.86,0,0,1-80.6,33.28ZM394.54,394.56a102.8,102.8,0,1,0,145.38,0,102.92,102.92,0,0,0-145.38,0Z"/><path class="cls-1" d="M554.05,599.24a5.25,5.25,0,0,1-3.93-1.7,5.45,5.45,0,0,1,0-7.87L589.84,550a5.56,5.56,0,1,1,7.87,7.87L558,597.54a5.54,5.54,0,0,1-3.94,1.7Z"/><path class="cls-1" d="M616.59,661.87a5.31,5.31,0,0,1-3.94-1.7,5.46,5.46,0,0,1,0-7.88l39.72-39.72a5.57,5.57,0,1,1,7.87,7.88l-39.72,39.72a6,6,0,0,1-3.93,1.7Z"/><path class="cls-1" d="M636.45,642a5.31,5.31,0,0,1-3.94-1.7L570,577.77a5.56,5.56,0,0,1,7.87-7.87l62.53,62.53a5.64,5.64,0,0,1-3.93,9.58Z"/><path class="cls-1" d="M467.19,549.5a82.13,82.13,0,1,1,82.12-82.12A82.24,82.24,0,0,1,467.19,549.5Zm0-153.33a71,71,0,1,0,71,71,71.09,71.09,0,0,0-71-71Z"/><path class="cls-1" d="M448.76,500.21a5.32,5.32,0,0,1-3.94-1.7L427.11,480.8a5.61,5.61,0,0,1,0-7.87,5.45,5.45,0,0,1,7.87,0l13.69,13.68,50.72-50.72a5.62,5.62,0,0,1,7.88,0,5.47,5.47,0,0,1,0,7.87l-54.66,54.75a5.48,5.48,0,0,1-3.85,1.7Z"/></g></g></svg>