<svg xmlns="http://www.w3.org/2000/svg" viewBox="0 0 875.8 875.8"><defs><style>.cls-1{fill:#4858e8;}</style></defs><g id="Layer_2" data-name="Layer 2"><g id="Layer_1-2" data-name="Layer 1"><path class="cls-1" d="M437.9,875.8A438,438,0,0,1,267.45,34.42a438,438,0,0,1,340.9,807A435.1,435.1,0,0,1,437.9,875.8Zm0-849.8C210.78,26,26,210.78,26,437.9S210.78,849.8,437.9,849.8,849.8,665,849.8,437.9,665,26,437.9,26Z"/><path class="cls-1" d="M563.52,448h76.77a10.12,10.12,0,0,0,10.12-10.12V316.46a10.12,10.12,0,0,0-10.12-10.12H336.7a10.12,10.12,0,0,0,0,20.24H630.17v101.2H563.52l3-3a10.12,10.12,0,1,0-14.31-14.31l-20.24,20.24a10.1,10.1,0,0,0,0,14.31l20.24,20.24A10.12,10.12,0,1,0,566.49,451Z"/><path class="cls-1" d="M286.1,356.94V276A10.13,10.13,0,0,0,276,265.86H195A10.13,10.13,0,0,0,184.9,276v81A10.13,10.13,0,0,0,195,367.06h81A10.13,10.13,0,0,0,286.1,356.94Z"/><path class="cls-1" d="M488.5,437.9a50.6,50.6,0,1,0-50.6,50.6A50.66,50.66,0,0,0,488.5,437.9Z"/><path class="cls-1" d="M689.83,595.3l-40.48-81c-3.44-6.87-14.66-6.87-18.1,0l-40.48,81a10.12,10.12,0,0,0,9,14.64h81a10.13,10.13,0,0,0,9.06-14.64Z"/><path class="cls-1" d="M526,531.94a10.12,10.12,0,0,0-14.31,14.31l3,3h-269V448H336.7a10.12,10.12,0,0,0,0-20.24H235.5a10.13,10.13,0,0,0-10.12,10.12V559.34a10.13,10.13,0,0,0,10.12,10.12H514.67l-3,3A10.12,10.12,0,1,0,526,586.73l20.24-20.24a10.12,10.12,0,0,0,0-14.31Z"/></g></g></svg>