<svg id="eVqjmJIkNCL1" xmlns="http://www.w3.org/2000/svg" xmlns:xlink="http://www.w3.org/1999/xlink" viewBox="0 0 1415.09 1425.08" shape-rendering="geometricPrecision" text-rendering="geometricPrecision"><g><g><g id="eVqjmJIkNCL4" transform="translate(-122.99998 0)"><rect width="683.16" height="408.55" rx="24.2" ry="24.2" transform="translate(731.93 271.24)" fill="#4858e8"/><rect width="683.16" height="70.5" rx="0" ry="0" transform="matrix(-1 0 0-1 1415.09 418.89)" fill="#0046b3"/><path d="M1258.61,601.41h100.44c3.071926-.002678,6.018366,1.218509,8.187729,3.393503s3.382911,5.124588,3.372271,8.196497v0c0,6.384412-5.175588,11.56-11.56,11.56h-100.44c-3.073747.010628-6.02539-1.202284-8.203556-3.37107s-3.403806-5.115165-3.406444-8.18893v0c-.008021-3.079781,1.213238-6.035443,3.392856-8.211306s5.137381-3.392025,8.217144-3.378694Z" fill="#d1f5ff"/><path d="M1104.14,601.41h100.44c3.07284-.002669,6.020299,1.218201,8.191249,3.392903s3.386727,5.124266,3.378751,8.197097v0c-.005519,6.386029-5.183969,11.560002-11.57,11.56h-100.44c-3.065903,0-6.006234-1.217925-8.174154-3.385846s-3.385846-5.108251-3.385846-8.174154v0c-.01064-3.071909,1.202907-6.021504,3.372271-8.196497s5.115803-3.396181,8.187729-3.393503Z" fill="#d1f5ff"/><path d="M1363.68,292v0c7.047153,0,12.76,5.712847,12.76,12.76v4.48c0,7.047153-5.712847,12.76-12.76,12.76v0c-7.047153,0-12.76-5.712847-12.76-12.76v-4.48c0-7.047153,5.712847-12.76,12.76-12.76Z" fill="#d1f5ff"/><path d="M1336.19,307v0c0,8.284271-6.715729,15-15,15h-53.19c-8.284271,0-15-6.715729-15-15v0c0-8.284271,6.715729-15,15-15h53.17c3.981711-.005309,7.80216,1.5727,10.619533,4.386321s4.400471,6.631964,4.400467,10.613679Z" fill="#d1f5ff"/><rect width="108.52" height="99.06" rx="19.93" ry="19.93" transform="matrix(-1 0 0-1 1363.09 555.87)" fill="#f1835a"/></g><path d="M949.67,601.41h100.45c3.071108-.00001,6.015994,1.222032,8.184779,3.396445s3.383191,5.122458,3.375221,8.193555v0c-.005514,6.382126-5.177874,11.554486-11.56,11.56h-100.45c-6.382126-.005514-11.554486-5.177874-11.56-11.56v0c-.00797-3.071097,1.206436-6.019141,3.375221-8.193555s5.113671-3.396455,8.184779-3.396445Z" fill="#d1f5ff"/><path d="M795.21,601.41h100.44c3.071926-.002678,6.018366,1.218509,8.187729,3.393503s3.382911,5.124588,3.372271,8.196497v0c0,6.384412-5.175588,11.56-11.56,11.56h-100.44c-3.065903,0-6.006234-1.217925-8.174154-3.385846s-3.385846-5.108251-3.385846-8.174154v0c-.01064-3.071909,1.202907-6.021504,3.372271-8.196497s5.115803-3.396181,8.187729-3.393503Z" fill="#d1f5ff"/><path id="eVqjmJIkNCL14" d="M286.2,357.57c-9.39278,11.763695-16.388048,25.254813-20.59,39.71l12.14,3.54c-3.809776,13.129989-4.989004,26.883108-3.47,40.47l-12.54,1.42c1.678248,14.957284,6.264247,29.442245,13.5,42.64l2.48-1.34l8.61-4.73c6.579989,11.970351,15.48006,22.509015,26.18,31l-7.89,9.9c11.764829,9.401377,25.269568,16.388227,39.74,20.56l3.54-12.15c13.11322,3.843567,26.860659,5.036779,40.44,3.51l1.42,12.54c14.969231-1.69215,29.46388-6.291577,42.67-13.54v0l-1.73-3.22-4.3-7.84c11.969286-6.564464,22.508378-15.451298,31-26.14l9.9,7.89c9.407403-11.779559,16.394547-25.301859,20.56-39.79l-12.15-3.54c3.833981-13.101454,5.017046-26.835893,3.48-40.4l12.54-1.42c-1.695967-14.958928-6.295282-29.443034-13.54-42.64l-11.09,6.07c-6.562685-11.970506-15.449795-22.509925-26.14-31l7.89-9.9c-11.776545-9.413163-25.294721-16.410127-39.78-20.59l-3.54,12.15c-13.101454-3.833981-26.835893-5.017046-40.4-3.48l-1.42-12.54c-14.985299,1.663299-29.49727,6.257114-42.71,13.52v.1l4,7.29l2,3.7c-11.969591,6.56402-22.508764,15.450922-31,26.14ZM333,394.84c14.109983-17.729006,37.513161-25.208093,59.289628-18.947524s37.634289,25.026894,40.174217,47.542622-8.738634,44.343224-28.573117,55.297791-44.315698,8.877167-62.020728-5.262889c-11.610656-9.24566-19.069433-22.727844-20.733177-37.476455s2.604043-29.553631,11.863177-41.153545Z" fill="#34447d"/><path id="eVqjmJIkNCL15" d="M282.28,186.74c-4.689235,5.860039-8.181993,12.583937-10.28,19.79l6.06,1.77c-1.905434,6.542661-2.493459,13.398425-1.73,20.17l-6.25.71c.830934,7.455533,3.117509,14.675402,6.73,21.25l1.23-.66l4.29-2.36c3.282178,5.970289,7.71809,11.228799,13.05,15.47l-3.93,4.94c5.864715,4.684349,12.596863,8.164268,19.81,10.24L313,272c6.534374,1.912645,13.383727,2.507502,20.15,1.75l.71,6.25c7.461098-.847247,14.685672-3.139954,21.27-6.75v0l-.86-1.6-2.14-3.91c5.964921-3.26036,11.217854-7.680304,15.45-13l4.94,3.93c4.705571-5.879243,8.199523-12.632631,10.28-19.87l-6.05-1.8c1.906705-6.532151,2.494787-13.378371,1.73-20.14l6.25-.71c-.841341-7.446997-3.127369-14.658344-6.73-21.23l-5.53,3c-3.259261-5.968516-7.679272-11.224929-13-15.46l3.94-4.94c-5.874445-4.685418-12.611968-8.171398-19.83-10.26l-1.77,6.06c-6.530585-1.91482-13.377772-2.506384-20.14-1.74l-.7-6.25c-7.465929.839412-14.695262,3.132551-21.28,6.75v0l2,3.64l1,1.84c-5.965624,3.263491-11.221258,7.682847-15.46,13Zm23.32,18.57c7.033883-8.82542,18.691816-12.544171,29.536869-9.421932s18.741062,12.470477,20.005553,23.68496-4.351607,22.086279-14.229103,27.545092-22.070807,4.429411-30.893319-2.60812c-5.787632-4.609882-9.505408-11.33135-10.334449-18.683927s1.298659-14.733152,5.914449-20.516073Z" fill="#34447d"/><path id="eVqjmJIkNCL16" d="M1036.45,905.56c-10.841285,13.571876-18.913817,29.139359-23.76,45.82l14,4.09c-4.393633,15.148318-5.752963,31.015094-4,46.69l-14.47,1.64c1.934953,17.2623,7.227646,33.979464,15.58,49.21l2.86-1.54l9.93-5.46c7.593174,13.82654,17.866745,26.000484,30.22,35.81l-9.11,11.43c13.576225,10.848382,29.160968,18.909221,45.86,23.72l4.09-14c15.134259,4.413959,30.995297,5.773671,46.66,4l1.64,14.47c17.273924-1.950375,34.000489-7.256405,49.24-15.62v0l-2-3.72-5-9c13.812469-7.575757,25.973472-17.832885,35.77-30.17l11.44,9.11c10.85884-13.588802,18.929651-29.186706,23.75-45.9l-14-4.09c4.418927-15.119632,5.77877-30.968605,4-46.62l14.47-1.64c-1.948806-17.290073-7.254735-34.033303-15.62-49.29l-12.8,7c-7.584568-13.815213-17.852065-25.976417-30.2-35.77l9.1-11.43c-13.583371-10.869489-29.182804-18.94449-45.9-23.76l-4.08,14c-15.119632-4.418927-30.968605-5.77877-46.62-4l-1.64-14.47c-17.280325,1.93515-34.013054,7.242058-49.25,15.62l.06.12l4.61,8.42l2.34,4.26c-13.814082,7.577551-25.978032,17.834297-35.78,30.17Zm54,43c22.229451-27.884723,62.855003-32.469254,90.739758-10.239843s32.469343,62.854958,10.239971,90.739744-62.854912,32.469432-90.739729,10.240099c-13.3969-10.670355-22.00405-26.227439-23.926489-43.246182s2.997447-34.103842,13.676489-47.493818Z" fill="none" stroke="#34447d" stroke-miterlimit="10"/><path d="M436.4,74.12C447.73,7,551.08,-23.29,549.06,20.51l473.79,2.77c32.82.2,59.43,29.72,59.46,66l1,1246.08c0,37.56-27,68.28-60.49,68.56l-483.67,4.15c-3,6.31-8.62,12-17.47,16.83-55.47,1.18-82.08-26.21-91.79-57.18-3.283268-8.681046-4.914626-17.899404-4.81-27.18C427,1324.3,432.89,89.86,436.4,74.12Z" fill="#4858e8"/><path d="M526.83,1425.08L1082,1421.5c34.65-.22,62.67-31.77,62.6-70.41L1142.53,69.6c-.06-37.27-27.64-67.54-61.61-67.65L536.52,0.18C502.28,0.07,474.27,30.3,474,67.74l-9.86,1287.41c-.32,38.85,27.76,70.15,62.69,69.93Z" fill="#4858e8"/><path d="M519.16,1415.76c2.320563.30619,4.659361.4532,7,.44l555-4.2c29.77-.23,54.1-27.88,54-61.62L1133.32,70.31c0-32.54-24-59.09-53.19-59.22L535.77,8.72c-.85,0-1.72,0-2.56.06-13.901384.733573-26.913396,7.064619-36.07,17.55-9.907578,11.260574-15.362503,25.751329-15.34,40.75L472.07,1355.8c-.23,30.54,19.93,56.32,47.09,59.96Z" fill="#27325b"/><polygon points="500.89,73.56 491.53,1357.79 1116.78,1354.05 1115.18,73.56 500.89,73.56" fill="#2c3967"/><g><rect width="202.09" height="47.55" rx="23.77" ry="23.77" transform="matrix(-1 0 0-1 894.78 730.65)" fill="#f1835a"/><path d="M598.9,554.15h399.59c13.111852-.038443,23.731557-10.658148,23.77-23.77v0c-.038443-13.111852-10.658148-23.731557-23.77-23.77h-399.59c-13.115757.032953-23.74153,10.654258-23.78,23.77v0c.03847,13.115742,10.664243,23.737047,23.78,23.77Z" fill="#fff"/><rect width="447.14" height="47.55" rx="23.77" ry="23.77" transform="matrix(-1 0 0-1 1022.26 630.73)" fill="#fff"/><circle r="8.37" transform="translate(932.24 609.06)" fill="#80b2ff"/><circle r="8.37" transform="translate(903.54 609.06)" fill="#80b2ff"/><circle r="8.37" transform="translate(874.85 609.06)" fill="#80b2ff"/><circle r="8.37" transform="translate(846.15 609.06)" fill="#80b2ff"/><circle r="8.37" transform="translate(817.45 609.06)" fill="#80b2ff"/><circle r="8.37" transform="translate(788.75 609.06)" fill="#80b2ff"/><circle r="8.37" transform="translate(760.05 609.06)" fill="#80b2ff"/><circle r="8.37" transform="translate(731.36 609.06)" fill="#80b2ff"/><circle r="8.37" transform="translate(702.66 609.06)" fill="#80b2ff"/><circle r="91.86" transform="matrix(.707107-.707107 0.707107 0.707107 798.555915 348.221532)" fill="#fff"/><path d="M798.42,344.53c-8.788878-.063108-17.07492-4.108668-22.53-11-4.075315-5.085805-6.268991-11.423089-6.21-17.94c0-15.938938,12.921062-28.86,28.86-28.86s28.86,12.921062,28.86,28.86c.058991,6.516911-2.134685,12.854195-6.21,17.94-5.518819,6.942881-13.900902,10.992196-22.77,11Z" fill="#4858e8"/><path d="M747.51,396.16c0,18.28,102.11,18.28,102.11,0v-21.31c-4-29.13-93.78-30.36-102.1,0Z" fill="#4858e8"/><path d="M977.19,602.57v16.86c0,2.91,21.61,2.91,21.61,0v-16.86h-1.42v-1.28c-.165052-5.047605-4.304697-9.0541-9.355-9.0541s-9.189948,4.006495-9.355,9.0541v1.28Zm16.85,0h-12.1v-1.28c0-3.42,2.06-6.17,6.08-6.17s6,2.94,6,6.17Zm-9,6c0-1.656854,1.343146-3,3-3s3,1.343146,3,3c.00074,1.046589-.576191,2.00814-1.5,2.5v4.87c.017166.402842-.13535.794428-.420461,1.079539s-.676697.437627-1.079539.420461c-.414533.018943-.819352-.129124-1.123838-.411055s-.483209-.674181-.496162-1.088945v-4.87c-.847874-.553537-1.359308-1.497432-1.36-2.51Z" fill="#4d4d4d"/><path d="M988,528.65c-1.855065-.01712-3.603626-.86936-4.76-2.32-.858403-1.075708-1.320915-2.413815-1.31-3.79c0-2.175748,1.160747-4.186221,3.045-5.274095s4.205748-1.087874,6.09,0s3.045,3.098347,3.045,5.274095c.015856,1.37699-.447213,2.71671-1.31,3.79-1.163288,1.463855-2.930212,2.317869-4.8,2.32Z" fill="#4d4d4d"/><path d="M977.26,539.55c0,3.86,21.65,3.86,21.65,0l-.11-4.5c-.86-6.14-19.79-6.4-21.55,0Z" fill="#4d4d4d"/><path d="M848,537.36h87.6c3.865993,0,7-3.134007,7-7v0c0-3.865993-3.134007-7-7-7h-87.6c-3.865993,0-7,3.134007-7,7v0c0,3.865993,3.134007,7,7,7Z" fill="#80b2ff"/><path d="M732.54,537.36h87.57c3.865993,0,7-3.134007,7-7v0c0-3.865993-3.134007-7-7-7h-87.57c-3.865993,0-7,3.134007-7,7v0c0,3.865993,3.134007,7,7,7Z" fill="#80b2ff"/></g><g id="eVqjmJIkNCL42"><g transform="translate(.000001 0.000001)"><path d="M917.12,988.24v177.32c0,19.7-257.36,19.7-257.36,0v-177.32Z" fill="#fff"/><ellipse rx="31.77" ry="29.77" transform="translate(788.44 1055.21)" fill="#4858e8"/><path d="M788,1064.39h.84c3.346112-.002654,6.556085,1.324725,8.923082,3.689846s3.696919,5.574041,3.696918,8.920154v67.87h-26v-67.87c-.000107-6.937065,5.603042-12.571491,12.54-12.61Z" transform="matrix(-1 0 0-1 1576.88 2209.25)" fill="#4858e8"/><path d="M682.32,975.61h26v-11.94c0-41.37,35.93-75,80.08-75s80.08,33.66,80.08,75v11.94h26.05v-11.94c0-54.83-47.61-99.43-106.13-99.43s-106.12,44.6-106.12,99.43Z" fill="#fff"/></g></g><path d="M0,759.19v0c0-1,0-1.43,0-1.53c0,.18,0,1.53,0,1.53Z" fill="#d9ffff"/><path d="M0,759.19v0c0-1,0-1.43,0-1.53c0,.18,0,1.53,0,1.53Z" fill="#d9ffff"/><path d="M594.15,761.85c0,0,0-1.35,0-1.54c0,.1,0,.54,0,1.54Z" fill="#d9ffff"/><path d="M594.15,761.85c0,0,0-1.35,0-1.54c0,.1,0,.54,0,1.54Z" fill="#d9ffff"/><g id="eVqjmJIkNCL52" transform="translate(0 0.000001)"><path d="M298.18,619.57c-65.77,70.46-170.72,128.2-283,152.8c0,7.5-.22,49-1.07,240.59-1.14,255.5,242,380.36,279.77,399.52c36.58-16.83,282.81-141.5,284-397c.85-191.54,1-233.09,1.07-240.59-112.15-25.61-215.64-84.28-280.77-155.32Z" fill="#f1835a"/><path d="M297.59,647.28c-67.81,62.2-161.74,111.09-265,137.73l-1,227.9c-.47,104.28,41,198.62,123.13,280.4c54,53.73,110.76,87.06,139.57,102c1.24-.63,2.6-1.34,3.94-2v-745.49Z" opacity="0.61" fill="#fff"/><path d="M298.18,647.82v745.5c29.95-15.58,84.39-47.79,136.53-98.76c82.9-81,125.17-175,125.63-279.29l1-227.9c-102.73-27.48-195.97-77.01-263.16-139.55Z" opacity="0.61" fill="#cecece"/><path d="M505.13,876.24c-78.63,12.13-185.71,83.85-253.26,170.09-9.48-40.66-52-77.78-74.27-85.9l-67.43,67.77c42.1,19,88.11,72.73,94.21,127.76l67.35,10.44c28.4-56.1,101.74-190.27,247.64-262.42-2.81-10.98-13.11-26.17-14.24-27.74Z" fill="#f1835a"/></g></g></g><script><![CDATA[!function(t,n){"object"==typeof exports&&"undefined"!=typeof module?module.exports=n():"function"==typeof define&&define.amd?define(n):((t="undefined"!=typeof globalThis?globalThis:t||self).__SVGATOR_PLAYER__=t.__SVGATOR_PLAYER__||{},t.__SVGATOR_PLAYER__["5c7f360c"]=n())}(this,(function(){"use strict";function t(t,n){var r=Object.keys(t);if(Object.getOwnPropertySymbols){var e=Object.getOwnPropertySymbols(t);n&&(e=e.filter((function(n){return Object.getOwnPropertyDescriptor(t,n).enumerable}))),r.push.apply(r,e)}return r}function n(n){for(var r=1;r<arguments.length;r++){var e=null!=arguments[r]?arguments[r]:{};r%2?t(Object(e),!0).forEach((function(t){u(n,t,e[t])})):Object.getOwnPropertyDescriptors?Object.defineProperties(n,Object.getOwnPropertyDescriptors(e)):t(Object(e)).forEach((function(t){Object.defineProperty(n,t,Object.getOwnPropertyDescriptor(e,t))}))}return n}function r(t){return(r="function"==typeof Symbol&&"symbol"==typeof Symbol.iterator?function(t){return typeof t}:function(t){return t&&"function"==typeof Symbol&&t.constructor===Symbol&&t!==Symbol.prototype?"symbol":typeof t})(t)}function e(t,n){if(!(t instanceof n))throw new TypeError("Cannot call a class as a function")}function i(t,n){for(var r=0;r<n.length;r++){var e=n[r];e.enumerable=e.enumerable||!1,e.configurable=!0,"value"in e&&(e.writable=!0),Object.defineProperty(t,e.key,e)}}function o(t,n,r){return n&&i(t.prototype,n),r&&i(t,r),t}function u(t,n,r){return n in t?Object.defineProperty(t,n,{value:r,enumerable:!0,configurable:!0,writable:!0}):t[n]=r,t}function a(t){return(a=Object.setPrototypeOf?Object.getPrototypeOf:function(t){return t.__proto__||Object.getPrototypeOf(t)})(t)}function l(t,n){return(l=Object.setPrototypeOf||function(t,n){return t.__proto__=n,t})(t,n)}function f(){if("undefined"==typeof Reflect||!Reflect.construct)return!1;if(Reflect.construct.sham)return!1;if("function"==typeof Proxy)return!0;try{return Boolean.prototype.valueOf.call(Reflect.construct(Boolean,[],(function(){}))),!0}catch(t){return!1}}function s(t,n,r){return(s=f()?Reflect.construct:function(t,n,r){var e=[null];e.push.apply(e,n);var i=new(Function.bind.apply(t,e));return r&&l(i,r.prototype),i}).apply(null,arguments)}function c(t,n){if(n&&("object"==typeof n||"function"==typeof n))return n;if(void 0!==n)throw new TypeError("Derived constructors may only return object or undefined");return function(t){if(void 0===t)throw new ReferenceError("this hasn't been initialised - super() hasn't been called");return t}(t)}function h(t,n,r){return(h="undefined"!=typeof Reflect&&Reflect.get?Reflect.get:function(t,n,r){var e=function(t,n){for(;!Object.prototype.hasOwnProperty.call(t,n)&&null!==(t=a(t)););return t}(t,n);if(e){var i=Object.getOwnPropertyDescriptor(e,n);return i.get?i.get.call(r):i.value}})(t,n,r||t)}function v(t){return function(t){if(Array.isArray(t))return y(t)}(t)||function(t){if("undefined"!=typeof Symbol&&null!=t[Symbol.iterator]||null!=t["@@iterator"])return Array.from(t)}(t)||function(t,n){if(!t)return;if("string"==typeof t)return y(t,n);var r=Object.prototype.toString.call(t).slice(8,-1);"Object"===r&&t.constructor&&(r=t.constructor.name);if("Map"===r||"Set"===r)return Array.from(t);if("Arguments"===r||/^(?:Ui|I)nt(?:8|16|32)(?:Clamped)?Array$/.test(r))return y(t,n)}(t)||function(){throw new TypeError("Invalid attempt to spread non-iterable instance.\nIn order to be iterable, non-array objects must have a [Symbol.iterator]() method.")}()}function y(t,n){(null==n||n>t.length)&&(n=t.length);for(var r=0,e=new Array(n);r<n;r++)e[r]=t[r];return e}Number.isInteger||(Number.isInteger=function(t){return"number"==typeof t&&isFinite(t)&&Math.floor(t)===t}),Number.EPSILON||(Number.EPSILON=2220446049250313e-31);var g=p(Math.pow(10,-6));function p(t){var n=arguments.length>1&&void 0!==arguments[1]?arguments[1]:6;if(Number.isInteger(t))return t;var r=Math.pow(10,n);return Math.round((+t+Number.EPSILON)*r)/r}function d(t,n){var r=arguments.length>2&&void 0!==arguments[2]?arguments[2]:g;return Math.abs(t-n)<r}var m=Math.PI/180;function b(t){return t}function w(t,n,r){var e=1-r;return 3*r*e*(t*e+n*r)+r*r*r}function x(){var t=arguments.length>0&&void 0!==arguments[0]?arguments[0]:0,n=arguments.length>1&&void 0!==arguments[1]?arguments[1]:0,r=arguments.length>2&&void 0!==arguments[2]?arguments[2]:1,e=arguments.length>3&&void 0!==arguments[3]?arguments[3]:1;return t<0||t>1||r<0||r>1?null:d(t,n)&&d(r,e)?b:function(i){if(i<=0)return t>0?i*n/t:0===n&&r>0?i*e/r:0;if(i>=1)return r<1?1+(i-1)*(e-1)/(r-1):1===r&&t<1?1+(i-1)*(n-1)/(t-1):1;for(var o,u=0,a=1;u<a;){var l=w(t,r,o=(u+a)/2);if(d(i,l))break;l<i?u=o:a=o}return w(n,e,o)}}function A(){return 1}function k(t){return 1===t?1:0}function _(){var t=arguments.length>0&&void 0!==arguments[0]?arguments[0]:1,n=arguments.length>1&&void 0!==arguments[1]?arguments[1]:0;if(1===t){if(0===n)return k;if(1===n)return A}var r=1/t;return function(t){return t>=1?1:(t+=n*r)-t%r}}var S=Math.sin,O=Math.cos,j=Math.acos,M=Math.asin,P=Math.tan,E=Math.atan2,I=Math.PI/180,R=180/Math.PI,F=Math.sqrt,N=function(){function t(){var n=arguments.length>0&&void 0!==arguments[0]?arguments[0]:1,r=arguments.length>1&&void 0!==arguments[1]?arguments[1]:0,i=arguments.length>2&&void 0!==arguments[2]?arguments[2]:0,o=arguments.length>3&&void 0!==arguments[3]?arguments[3]:1,u=arguments.length>4&&void 0!==arguments[4]?arguments[4]:0,a=arguments.length>5&&void 0!==arguments[5]?arguments[5]:0;e(this,t),this.m=[n,r,i,o,u,a],this.i=null,this.w=null,this.s=null}return o(t,[{key:"determinant",get:function(){var t=this.m;return t[0]*t[3]-t[1]*t[2]}},{key:"isIdentity",get:function(){if(null===this.i){var t=this.m;this.i=1===t[0]&&0===t[1]&&0===t[2]&&1===t[3]&&0===t[4]&&0===t[5]}return this.i}},{key:"point",value:function(t,n){var r=this.m;return{x:r[0]*t+r[2]*n+r[4],y:r[1]*t+r[3]*n+r[5]}}},{key:"translateSelf",value:function(){var t=arguments.length>0&&void 0!==arguments[0]?arguments[0]:0,n=arguments.length>1&&void 0!==arguments[1]?arguments[1]:0;if(!t&&!n)return this;var r=this.m;return r[4]+=r[0]*t+r[2]*n,r[5]+=r[1]*t+r[3]*n,this.w=this.s=this.i=null,this}},{key:"rotateSelf",value:function(){var t=arguments.length>0&&void 0!==arguments[0]?arguments[0]:0;if(t%=360){var n=S(t*=I),r=O(t),e=this.m,i=e[0],o=e[1];e[0]=i*r+e[2]*n,e[1]=o*r+e[3]*n,e[2]=e[2]*r-i*n,e[3]=e[3]*r-o*n,this.w=this.s=this.i=null}return this}},{key:"scaleSelf",value:function(){var t=arguments.length>0&&void 0!==arguments[0]?arguments[0]:1,n=arguments.length>1&&void 0!==arguments[1]?arguments[1]:1;if(1!==t||1!==n){var r=this.m;r[0]*=t,r[1]*=t,r[2]*=n,r[3]*=n,this.w=this.s=this.i=null}return this}},{key:"skewSelf",value:function(t,n){if(n%=360,(t%=360)||n){var r=this.m,e=r[0],i=r[1],o=r[2],u=r[3];t&&(t=P(t*I),r[2]+=e*t,r[3]+=i*t),n&&(n=P(n*I),r[0]+=o*n,r[1]+=u*n),this.w=this.s=this.i=null}return this}},{key:"resetSelf",value:function(){var t=arguments.length>0&&void 0!==arguments[0]?arguments[0]:1,n=arguments.length>1&&void 0!==arguments[1]?arguments[1]:0,r=arguments.length>2&&void 0!==arguments[2]?arguments[2]:0,e=arguments.length>3&&void 0!==arguments[3]?arguments[3]:1,i=arguments.length>4&&void 0!==arguments[4]?arguments[4]:0,o=arguments.length>5&&void 0!==arguments[5]?arguments[5]:0,u=this.m;return u[0]=t,u[1]=n,u[2]=r,u[3]=e,u[4]=i,u[5]=o,this.w=this.s=this.i=null,this}},{key:"recomposeSelf",value:function(){var t=arguments.length>0&&void 0!==arguments[0]?arguments[0]:null,n=arguments.length>1&&void 0!==arguments[1]?arguments[1]:null,r=arguments.length>2&&void 0!==arguments[2]?arguments[2]:null,e=arguments.length>3&&void 0!==arguments[3]?arguments[3]:null,i=arguments.length>4&&void 0!==arguments[4]?arguments[4]:null;return this.isIdentity||this.resetSelf(),t&&(t.x||t.y)&&this.translateSelf(t.x,t.y),n&&this.rotateSelf(n),r&&(r.x&&this.skewSelf(r.x,0),r.y&&this.skewSelf(0,r.y)),!e||1===e.x&&1===e.y||this.scaleSelf(e.x,e.y),i&&(i.x||i.y)&&this.translateSelf(i.x,i.y),this}},{key:"decompose",value:function(){var t=arguments.length>0&&void 0!==arguments[0]?arguments[0]:0,n=arguments.length>1&&void 0!==arguments[1]?arguments[1]:0,r=this.m,e=r[0]*r[0]+r[1]*r[1],i=[[r[0],r[1]],[r[2],r[3]]],o=F(e);if(0===o)return{origin:{x:p(r[4]),y:p(r[5])},translate:{x:p(t),y:p(n)},scale:{x:0,y:0},skew:{x:0,y:0},rotate:0};i[0][0]/=o,i[0][1]/=o;var u=r[0]*r[3]-r[1]*r[2]<0;u&&(o=-o);var a=i[0][0]*i[1][0]+i[0][1]*i[1][1];i[1][0]-=i[0][0]*a,i[1][1]-=i[0][1]*a;var l=F(i[1][0]*i[1][0]+i[1][1]*i[1][1]);if(0===l)return{origin:{x:p(r[4]),y:p(r[5])},translate:{x:p(t),y:p(n)},scale:{x:p(o),y:0},skew:{x:0,y:0},rotate:0};i[1][0]/=l,i[1][1]/=l,a/=l;var f=0;return i[1][1]<0?(f=j(i[1][1])*R,i[0][1]<0&&(f=360-f)):f=M(i[0][1])*R,u&&(f=-f),a=E(a,F(i[0][0]*i[0][0]+i[0][1]*i[0][1]))*R,u&&(a=-a),{origin:{x:p(r[4]),y:p(r[5])},translate:{x:p(t),y:p(n)},scale:{x:p(o),y:p(l)},skew:{x:p(a),y:0},rotate:p(f)}}},{key:"clone",value:function(){var t=this.m;return new this.constructor(t[0],t[1],t[2],t[3],t[4],t[5])}},{key:"toString",value:function(){var t=arguments.length>0&&void 0!==arguments[0]?arguments[0]:" ";if(null===this.s){var n=this.m.map((function(t){return p(t)}));1===n[0]&&0===n[1]&&0===n[2]&&1===n[3]?this.s="translate("+n[4]+t+n[5]+")":this.s="matrix("+n.join(t)+")"}return this.s}}],[{key:"create",value:function(t){return t?Array.isArray(t)?s(this,v(t)):t instanceof this?t.clone():(new this).recomposeSelf(t.origin,t.rotate,t.skew,t.scale,t.translate):new this}}]),t}();function T(t,n,r){return t>=.5?r:n}function q(t,n,r){return 0===t||n===r?n:t*(r-n)+n}function B(t,n,r){var e=q(t,n,r);return e<=0?0:e}function L(t,n,r){var e=q(t,n,r);return e<=0?0:e>=1?1:e}function C(t,n,r){return 0===t?n:1===t?r:{x:q(t,n.x,r.x),y:q(t,n.y,r.y)}}function D(t,n,r){var e=function(t,n,r){return Math.round(q(t,n,r))}(t,n,r);return e<=0?0:e>=255?255:e}function z(t,n,r){return 0===t?n:1===t?r:{r:D(t,n.r,r.r),g:D(t,n.g,r.g),b:D(t,n.b,r.b),a:q(t,null==n.a?1:n.a,null==r.a?1:r.a)}}function V(t,n){for(var r=[],e=0;e<t;e++)r.push(n);return r}function G(t,n){if(--n<=0)return t;var r=(t=Object.assign([],t)).length;do{for(var e=0;e<r;e++)t.push(t[e])}while(--n>0);return t}var Y,$=function(){function t(n){e(this,t),this.list=n,this.length=n.length}return o(t,[{key:"setAttribute",value:function(t,n){for(var r=this.list,e=0;e<this.length;e++)r[e].setAttribute(t,n)}},{key:"removeAttribute",value:function(t){for(var n=this.list,r=0;r<this.length;r++)n[r].removeAttribute(t)}},{key:"style",value:function(t,n){for(var r=this.list,e=0;e<this.length;e++)r[e].style[t]=n}}]),t}(),U=/-./g,Q=function(t,n){return n.toUpperCase()};function H(t){return"function"==typeof t?t:T}function J(t){return t?"function"==typeof t?t:Array.isArray(t)?function(t){var n=arguments.length>1&&void 0!==arguments[1]?arguments[1]:b;if(!Array.isArray(t))return n;switch(t.length){case 1:return _(t[0])||n;case 2:return _(t[0],t[1])||n;case 4:return x(t[0],t[1],t[2],t[3])||n}return n}(t,null):function(t,n){var r=arguments.length>2&&void 0!==arguments[2]?arguments[2]:b;switch(t){case"linear":return b;case"steps":return _(n.steps||1,n.jump||0)||r;case"bezier":case"cubic-bezier":return x(n.x1||0,n.y1||0,n.x2||0,n.y2||0)||r}return r}(t.type,t.value,null):null}function Z(t,n,r){var e=arguments.length>3&&void 0!==arguments[3]&&arguments[3],i=n.length-1;if(t<=n[0].t)return e?[0,0,n[0].v]:n[0].v;if(t>=n[i].t)return e?[i,1,n[i].v]:n[i].v;var o,u=n[0],a=null;for(o=1;o<=i;o++){if(!(t>n[o].t)){a=n[o];break}u=n[o]}return null==a?e?[i,1,n[i].v]:n[i].v:u.t===a.t?e?[o,1,a.v]:a.v:(t=(t-u.t)/(a.t-u.t),u.e&&(t=u.e(t)),e?[o,t,r(t,u.v,a.v)]:r(t,u.v,a.v))}function K(t,n){var r=arguments.length>2&&void 0!==arguments[2]?arguments[2]:null;return t&&t.length?"function"!=typeof n?null:("function"!=typeof r&&(r=null),function(e){var i=Z(e,t,n);return null!=i&&r&&(i=r(i)),i}):null}function W(t,n){return t.t-n.t}function X(t,n,e,i,o){var u,a="@"===e[0],l="#"===e[0],f=Y[e],s=T;switch(a?(u=e.substr(1),e=u.replace(U,Q)):l&&(e=e.substr(1)),r(f)){case"function":if(s=f(i,o,Z,J,e,a,n,t),l)return s;break;case"string":s=K(i,H(f));break;case"object":if((s=K(i,H(f.i),f.f))&&"function"==typeof f.u)return f.u(n,s,e,a,t)}return s?function(t,n,r){if(arguments.length>3&&void 0!==arguments[3]&&arguments[3])return t instanceof $?function(e){return t.style(n,r(e))}:function(e){return t.style[n]=r(e)};if(Array.isArray(n)){var e=n.length;return function(i){var o=r(i);if(null==o)for(var u=0;u<e;u++)t[u].removeAttribute(n);else for(var a=0;a<e;a++)t[a].setAttribute(n,o)}}return function(e){var i=r(e);null==i?t.removeAttribute(n):t.setAttribute(n,i)}}(n,e,s,a):null}function tt(t,n,e,i){if(!i||"object"!==r(i))return null;var o=null,u=null;return Array.isArray(i)?u=function(t){if(!t||!t.length)return null;for(var n=0;n<t.length;n++)t[n].e&&(t[n].e=J(t[n].e));return t.sort(W)}(i):(u=i.keys,o=i.data||null),u?X(t,n,e,u,o):null}function nt(t,n,r){if(!r)return null;var e=[];for(var i in r)if(r.hasOwnProperty(i)){var o=tt(t,n,i,r[i]);o&&e.push(o)}return e.length?e:null}function rt(t,n){if(!n.duration||n.duration<0)return null;var r=function(t,n){if(!n)return null;var r=[];if(Array.isArray(n))for(var e=n.length,i=0;i<e;i++){var o=n[i];if(2===o.length){var u=null;if("string"==typeof o[0])u=t.getElementById(o[0]);else if(Array.isArray(o[0])){u=[];for(var a=0;a<o[0].length;a++)if("string"==typeof o[0][a]){var l=t.getElementById(o[0][a]);l&&u.push(l)}u=u.length?1===u.length?u[0]:new $(u):null}if(u){var f=nt(t,u,o[1]);f&&(r=r.concat(f))}}}else for(var s in n)if(n.hasOwnProperty(s)){var c=t.getElementById(s);if(c){var h=nt(t,c,n[s]);h&&(r=r.concat(h))}}return r.length?r:null}(t,n.elements);return r?function(t,n){var r=arguments.length>2&&void 0!==arguments[2]?arguments[2]:1/0,e=arguments.length>3&&void 0!==arguments[3]?arguments[3]:1,i=arguments.length>4&&void 0!==arguments[4]&&arguments[4],o=arguments.length>5&&void 0!==arguments[5]?arguments[5]:1,u=t.length,a=e>0?n:0;i&&r%2==0&&(a=n-a);var l=null;return function(f,s){var c=f%n,h=1+(f-c)/n;s*=e,i&&h%2==0&&(s=-s);var v=!1;if(h>r)c=a,v=!0,-1===o&&(c=e>0?0:n);else if(s<0&&(c=n-c),c===l)return!1;l=c;for(var y=0;y<u;y++)t[y](c);return v}}(r,n.duration,n.iterations||1/0,n.direction||1,!!n.alternate,n.fill||1):null}function et(t){return+("0x"+(t.replace(/[^0-9a-fA-F]+/g,"")||27))}function it(t,n,r){return!t||!r||n>t.length?t:t.substring(0,n)+it(t.substring(n+1),r,r)}function ot(t){var n=arguments.length>1&&void 0!==arguments[1]?arguments[1]:27;return!t||t%n?t%n:ot(t/n,n)}function ut(t,n,r){if(t&&t.length){var e=et(r),i=et(n),o=ot(e)+5,u=it(t,ot(e,5),o);return u=u.replace(/\x7c$/g,"==").replace(/\x2f$/g,"="),u=function(t,n,r){var e=+("0x"+t.substring(0,4));t=t.substring(4);for(var i=n%e+r%27,o=[],u=0;u<t.length;u+=2)if("|"!==t[u]){var a=+("0x"+t[u]+t[u+1])-i;o.push(a)}else{var l=+("0x"+t.substring(u+1,u+1+4))-i;u+=3,o.push(l)}return String.fromCharCode.apply(String,o)}(u=(u=atob(u)).replace(/[\x41-\x5A]/g,""),i,e),u=JSON.parse(u)}}var at=function(){function t(n,r){var i=arguments.length>2&&void 0!==arguments[2]?arguments[2]:{};e(this,t),this._id=0,this._running=!1,this._rollingBack=!1,this._animations=n,this.duration=r.duration,this.alternate=r.alternate,this.fill=r.fill,this.iterations=r.iterations,this.direction=i.direction||1,this.speed=i.speed||1,this.fps=i.fps||100,this.offset=i.offset||0,this.rollbackStartOffset=0}return o(t,[{key:"maxFiniteDuration",get:function(){return this.iterations>0?this.iterations*this.duration:this.duration}},{key:"_apply",value:function(t){for(var n=arguments.length>1&&void 0!==arguments[1]?arguments[1]:{},r=this._animations,e=r.length,i=0,o=0;o<e;o++)n[o]?i++:(n[o]=r[o](t,this.direction),n[o]&&i++);return i}},{key:"_rollback",value:function(){var t=this,n=1/0,r=null;this.rollbackStartOffset=this.offset,this._rollingBack=!0,this._running=!0;this._id=window.requestAnimationFrame((function e(i){if(t._rollingBack){null==r&&(r=i);var o=i-r,u=t.rollbackStartOffset-o,a=Math.round(u*t.speed);if(a>t.duration&&n!==1/0){var l=!!t.alternate&&a/t.duration%2>1,f=a%t.duration;a=(f+=l?t.duration:0)||t.duration}var s=t.fps?1e3/t.fps:0,c=Math.max(0,a);c<n-s&&(t.offset=c,n=c,t._apply(c));var h=t.iterations>0&&-1===t.fill&&a>=t.maxFiniteDuration;(a<=0||t.offset<a||h)&&t.stop(),t._id=window.requestAnimationFrame(e)}}))}},{key:"_start",value:function(){var t=this,n=arguments.length>0&&void 0!==arguments[0]?arguments[0]:0,r=-1/0,e=null,i={};this._running=!0;var o=function o(u){null==e&&(e=u);var a=Math.round((u-e+n)*t.speed),l=t.fps?1e3/t.fps:0;if(a>r+l&&!t._rollingBack&&(t.offset=a,r=a,t._apply(a,i)===t._animations.length))return void t.pause(!0);t._id=window.requestAnimationFrame(o)};this._id=window.requestAnimationFrame(o)}},{key:"_pause",value:function(){this._id&&window.cancelAnimationFrame(this._id),this._running=!1}},{key:"play",value:function(){if(!this._running)return this._rollingBack?this._rollback():this._start(this.offset)}},{key:"stop",value:function(){this._pause(),this.offset=0,this.rollbackStartOffset=0,this._rollingBack=!1,this._apply(0)}},{key:"reachedToEnd",value:function(){return this.iterations>0&&this.offset>=this.iterations*this.duration}},{key:"restart",value:function(){var t=arguments.length>0&&void 0!==arguments[0]&&arguments[0];this.stop(t),this.play(t)}},{key:"pause",value:function(){this._pause()}},{key:"reverse",value:function(){this.direction=-this.direction}}],[{key:"build",value:function(t,r){return delete t.animationSettings,t.options=ut(t.options,t.root,"5c7f360c"),t.animations.map((function(r){var e=ut(r.s,t.root,"5c7f360c");for(var i in delete r.s,t.animationSettings||(t.animationSettings=n({},e)),e)e.hasOwnProperty(i)&&(r[i]=e[i])})),(t=function(t,n){if(Y=n,!t||!t.root||!Array.isArray(t.animations))return null;for(var r=document.getElementsByTagName("svg"),e=!1,i=0;i<r.length;i++)if(r[i].id===t.root&&!r[i].svgatorAnimation){(e=r[i]).svgatorAnimation=!0;break}if(!e)return null;var o=t.animations.map((function(t){return rt(e,t)})).filter((function(t){return!!t}));return o.length?{element:e,animations:o,animationSettings:t.animationSettings,options:t.options||void 0}:null}(t,r))?{el:t.element,options:t.options||{},player:new this(t.animations,t.animationSettings,t.options)}:null}},{key:"push",value:function(t){return this.build(t)}},{key:"init",value:function(){var t=this,n=window.__SVGATOR_PLAYER__&&window.__SVGATOR_PLAYER__["5c7f360c"];Array.isArray(n)&&n.splice(0).forEach((function(n){return t.build(n)}))}}]),t}();function lt(t){return p(t)+""}function ft(t){var n=arguments.length>1&&void 0!==arguments[1]?arguments[1]:" ";return t&&t.length?t.map(lt).join(n):""}function st(t){if(!t)return"transparent";if(null==t.a||t.a>=1){var n=function(t){return 1===(t=parseInt(t).toString(16)).length?"0"+t:t},r=function(t){return t.charAt(0)===t.charAt(1)},e=n(t.r),i=n(t.g),o=n(t.b);return r(e)&&r(i)&&r(o)&&(e=e.charAt(0),i=i.charAt(0),o=o.charAt(0)),"#"+e+i+o}return"rgba("+t.r+","+t.g+","+t.b+","+t.a+")"}function ct(t){return t?"url(#"+t+")":"none"}!function(){for(var t=0,n=["ms","moz","webkit","o"],r=0;r<n.length&&!window.requestAnimationFrame;++r)window.requestAnimationFrame=window[n[r]+"RequestAnimationFrame"],window.cancelAnimationFrame=window[n[r]+"CancelAnimationFrame"]||window[n[r]+"CancelRequestAnimationFrame"];window.requestAnimationFrame||(window.requestAnimationFrame=function(n){var r=Date.now(),e=Math.max(0,16-(r-t)),i=window.setTimeout((function(){n(r+e)}),e);return t=r+e,i},window.cancelAnimationFrame=window.clearTimeout)}();var ht={f:null,i:function(t,n,r){return 0===t?n:1===t?r:{x:B(t,n.x,r.x),y:B(t,n.y,r.y)}},u:function(t,n){return function(r){var e=n(r);t.setAttribute("rx",lt(e.x)),t.setAttribute("ry",lt(e.y))}}},vt={f:null,i:function(t,n,r){return 0===t?n:1===t?r:{width:B(t,n.width,r.width),height:B(t,n.height,r.height)}},u:function(t,n){return function(r){var e=n(r);t.setAttribute("width",lt(e.width)),t.setAttribute("height",lt(e.height))}}};Object.freeze({M:2,L:2,Z:0,H:1,V:1,C:6,Q:4,T:2,S:4,A:7});var yt={},gt=null;function pt(t){var n=function(){if(gt)return gt;if("object"!==("undefined"==typeof document?"undefined":r(document))||!document.createElementNS)return{};var t=document.createElementNS("http://www.w3.org/2000/svg","svg");return t&&t.style?(t.style.position="absolute",t.style.opacity="0.01",t.style.zIndex="-9999",t.style.left="-9999px",t.style.width="1px",t.style.height="1px",gt={svg:t}):{}}().svg;if(!n)return function(t){return null};var e=document.createElementNS(n.namespaceURI,"path");e.setAttributeNS(null,"d",t),e.setAttributeNS(null,"fill","none"),e.setAttributeNS(null,"stroke","none"),n.appendChild(e);var i=e.getTotalLength();return function(t){var n=e.getPointAtLength(i*t);return{x:n.x,y:n.y}}}function dt(t){return yt[t]?yt[t]:yt[t]=pt(t)}function mt(t,n,r,e){if(!t||!e)return!1;var i=["M",t.x,t.y];if(n&&r&&(i.push("C"),i.push(n.x),i.push(n.y),i.push(r.x),i.push(r.y)),n?!r:r){var o=n||r;i.push("Q"),i.push(o.x),i.push(o.y)}return n||r||i.push("L"),i.push(e.x),i.push(e.y),i.join(" ")}function bt(t,n,r,e){var i=arguments.length>4&&void 0!==arguments[4]?arguments[4]:1,o=mt(t,n,r,e),u=dt(o);try{return u(i)}catch(t){return null}}function wt(t,n,r){return t+(n-t)*r}function xt(t,n,r){var e=arguments.length>3&&void 0!==arguments[3]&&arguments[3],i={x:wt(t.x,n.x,r),y:wt(t.y,n.y,r)};return e&&(i.a=At(t,n)),i}function At(t,n){return Math.atan2(n.y-t.y,n.x-t.x)}function kt(t,n,r,e){var i=1-e;return i*i*t+2*i*e*n+e*e*r}function _t(t,n,r,e){return 2*(1-e)*(n-t)+2*e*(r-n)}function St(t,n,r,e){var i=arguments.length>4&&void 0!==arguments[4]&&arguments[4],o=bt(t,n,null,r,e);return o||(o={x:kt(t.x,n.x,r.x,e),y:kt(t.y,n.y,r.y,e)}),i&&(o.a=Ot(t,n,r,e)),o}function Ot(t,n,r,e){return Math.atan2(_t(t.y,n.y,r.y,e),_t(t.x,n.x,r.x,e))}function jt(t,n,r,e,i){var o=i*i;return i*o*(e-t+3*(n-r))+3*o*(t+r-2*n)+3*i*(n-t)+t}function Mt(t,n,r,e,i){var o=1-i;return 3*(o*o*(n-t)+2*o*i*(r-n)+i*i*(e-r))}function Pt(t,n,r,e,i){var o=arguments.length>5&&void 0!==arguments[5]&&arguments[5],u=bt(t,n,r,e,i);return u||(u={x:jt(t.x,n.x,r.x,e.x,i),y:jt(t.y,n.y,r.y,e.y,i)}),o&&(u.a=Et(t,n,r,e,i)),u}function Et(t,n,r,e,i){return Math.atan2(Mt(t.y,n.y,r.y,e.y,i),Mt(t.x,n.x,r.x,e.x,i))}function It(t,n,r){var e=arguments.length>3&&void 0!==arguments[3]&&arguments[3];if(Ft(n)){if(Nt(r))return St(n,r.start,r,t,e)}else if(Ft(r)){if(n.end)return St(n,n.end,r,t,e)}else{if(n.end)return r.start?Pt(n,n.end,r.start,r,t,e):St(n,n.end,r,t,e);if(r.start)return St(n,r.start,r,t,e)}return xt(n,r,t,e)}function Rt(t,n,r){var e=It(t,n,r,!0);return e.a=function(t){return arguments.length>1&&void 0!==arguments[1]&&arguments[1]?t+Math.PI:t}(e.a)/m,e}function Ft(t){return!t.type||"corner"===t.type}function Nt(t){return null!=t.start&&!Ft(t)}var Tt=new N;var qt={f:lt,i:q},Bt={f:lt,i:L};function Lt(t,n,r){return t.map((function(t){return function(t,n,r){var e=t.v;if(!e||"g"!==e.t||e.s||!e.v||!e.r)return t;var i=r.getElementById(e.r),o=i&&i.querySelectorAll("stop")||[];return e.s=e.v.map((function(t,n){var r=o[n]&&o[n].getAttribute("offset");return{c:t,o:r=p(parseInt(r)/100)}})),delete e.v,t}(t,0,r)}))}var Ct={gt:"gradientTransform",c:{x:"cx",y:"cy"},rd:"r",f:{x:"x1",y:"y1"},to:{x:"x2",y:"y2"}};function Dt(t,n,e,i,o,u,a,l){return Lt(t,0,l),n=function(t,n,r){for(var e,i,o,u=t.length-1,a={},l=0;l<=u;l++)(e=t[l]).e&&(e.e=n(e.e)),e.v&&"g"===(i=e.v).t&&i.r&&(o=r.getElementById(i.r))&&(a[i.r]={e:o,s:o.querySelectorAll("stop")});return a}(t,i,l),function(i){var o=e(i,t,zt);if(!o)return"none";if("c"===o.t)return st(o.v);if("g"===o.t){if(!n[o.r])return ct(o.r);var u=n[o.r];return function(t,n){for(var r=t.s,e=r.length;e<n.length;e++){var i=r[r.length-1].cloneNode();i.id=Yt(i.id),t.e.appendChild(i),r=t.s=t.e.querySelectorAll("stop")}for(var o=0,u=r.length,a=n.length-1;o<u;o++)r[o].setAttribute("stop-color",st(n[Math.min(o,a)].c)),r[o].setAttribute("offset",n[Math.min(o,a)].o)}(u,o.s),Object.keys(Ct).forEach((function(t){if(void 0!==o[t])if("object"!==r(Ct[t])){var n,e="gt"===t?(n=o[t],Array.isArray(n)?"matrix("+n.join(" ")+")":""):o[t],i=Ct[t];u.e.setAttribute(i,e)}else Object.keys(Ct[t]).forEach((function(n){if(void 0!==o[t][n]){var r=o[t][n],e=Ct[t][n];u.e.setAttribute(e,r)}}))})),ct(o.r)}return"none"}}function zt(t,r,e){if(0===t)return r;if(1===t)return e;if(r&&e){var i=r.t;if(i===e.t)switch(r.t){case"c":return{t:i,v:z(t,r.v,e.v)};case"g":if(r.r===e.r){var o={t:i,s:Vt(t,r.s,e.s),r:r.r};return r.gt&&e.gt&&(o.gt=function(t,n,r){var e=n.length;if(e!==r.length)return T(t,n,r);for(var i=new Array(e),o=0;o<e;o++)i[o]=q(t,n[o],r[o]);return i}(t,r.gt,e.gt)),r.c?(o.c=C(t,r.c,e.c),o.rd=B(t,r.rd,e.rd)):r.f&&(o.f=C(t,r.f,e.f),o.to=C(t,r.to,e.to)),o}}if("c"===r.t&&"g"===e.t||"c"===e.t&&"g"===r.t){var u="c"===r.t?r:e,a="g"===r.t?n({},r):n({},e),l=a.s.map((function(t){return{c:u.v,o:t.o}}));return a.s="c"===r.t?Vt(t,l,a.s):Vt(t,a.s,l),a}}return T(t,r,e)}function Vt(t,n,r){if(n.length===r.length)return n.map((function(n,e){return Gt(t,n,r[e])}));for(var e=Math.max(n.length,r.length),i=[],o=0;o<e;o++){var u=Gt(t,n[Math.min(o,n.length-1)],r[Math.min(o,r.length-1)]);i.push(u)}return i}function Gt(t,n,r){return{o:L(t,n.o,r.o||0),c:z(t,n.c,r.c||{})}}function Yt(t){return t.replace(/-fill-([0-9]+)$/,(function(t,n){return"-fill-"+(+n+1)}))}var $t={fill:Dt,"fill-opacity":Bt,stroke:Dt,"stroke-opacity":Bt,"stroke-width":qt,"stroke-dashoffset":{f:lt,i:q},"stroke-dasharray":{f:function(t){var n=arguments.length>1&&void 0!==arguments[1]?arguments[1]:" ";return t&&t.length>0&&(t=t.map((function(t){return p(t,4)}))),ft(t,n)},i:function(t,n,r){var e,i,o,u=n.length,a=r.length;if(u!==a)if(0===u)n=V(u=a,0);else if(0===a)a=u,r=V(u,0);else{var l=(o=(e=u)*(i=a)/function(t,n){for(var r;n;)r=n,n=t%n,t=r;return t||1}(e,i))<0?-o:o;n=G(n,Math.floor(l/u)),r=G(r,Math.floor(l/a)),u=a=l}for(var f=[],s=0;s<u;s++)f.push(p(B(t,n[s],r[s])));return f}},opacity:Bt,transform:function(t,n,e,i){if(!(t=function(t,n){if(!t||"object"!==r(t))return null;var e=!1;for(var i in t)t.hasOwnProperty(i)&&(t[i]&&t[i].length?(t[i].forEach((function(t){t.e&&(t.e=n(t.e))})),e=!0):delete t[i]);return e?t:null}(t,i)))return null;var o=function(r,i,o){var u=arguments.length>3&&void 0!==arguments[3]?arguments[3]:null;return t[r]?e(i,t[r],o):n&&n[r]?n[r]:u};return n&&n.a&&t.o?function(n){var r=e(n,t.o,Rt);return Tt.recomposeSelf(r,o("r",n,q,0)+r.a,o("k",n,C),o("s",n,C),o("t",n,C)).toString()}:function(t){return Tt.recomposeSelf(o("o",t,It,null),o("r",t,q,0),o("k",t,C),o("s",t,C),o("t",t,C)).toString()}},r:qt,"#size":vt,"#radius":ht,_:function(t,n){if(Array.isArray(t))for(var r=0;r<t.length;r++)this[t[r]]=n;else this[t]=n}},Ut=function(t){!function(t,n){if("function"!=typeof n&&null!==n)throw new TypeError("Super expression must either be null or a function");t.prototype=Object.create(n&&n.prototype,{constructor:{value:t,writable:!0,configurable:!0}}),n&&l(t,n)}(u,t);var n,r,i=(n=u,r=f(),function(){var t,e=a(n);if(r){var i=a(this).constructor;t=Reflect.construct(e,arguments,i)}else t=e.apply(this,arguments);return c(this,t)});function u(){return e(this,u),i.apply(this,arguments)}return o(u,null,[{key:"build",value:function(t){var n=h(a(u),"build",this).call(this,t,$t);if(!n)return null;n.el,n.options,function(t,n,r){t.play()}(n.player)}}]),u}(at);return Ut.init(),Ut}));
(function(s,i,o,w,a,b){w[o]=w[o]||{};w[o][s]=w[o][s]||[];w[o][s].push(i);})('5c7f360c',{"root":"eVqjmJIkNCL1","animations":[{"elements":{"eVqjmJIkNCL4":{"transform":{"data":{"t":{"x":-1073.50998,"y":-475.514984}},"keys":{"o":[{"t":0,"v":{"x":950.51,"y":475.514984,"type":"corner"}},{"t":2000,"v":{"x":1072.939987,"y":475.54,"type":"corner"}},{"t":4000,"v":{"x":950,"y":475.54,"type":"corner"}},{"t":6000,"v":{"x":1072.17,"y":475.531661,"type":"corner"}},{"t":8000,"v":{"x":950.84,"y":475.523323,"type":"corner"}},{"t":10000,"v":{"x":1073.50998,"y":475.514984,"type":"corner"}}]}}},"eVqjmJIkNCL14":{"transform":{"data":{"o":{"x":376.735016,"y":429.675003,"type":"corner"},"t":{"x":-376.735016,"y":-429.675003}},"keys":{"r":[{"t":0,"v":0},{"t":10000,"v":-720}]}}},"eVqjmJIkNCL15":{"transform":{"data":{"o":{"x":327.404999,"y":222.664993,"type":"corner"},"t":{"x":-327.404999,"y":-222.664993}},"keys":{"r":[{"t":0,"v":0},{"t":10000,"v":720}]}}},"eVqjmJIkNCL16":{"transform":{"data":{"o":{"x":1140.919983,"y":988.755035,"type":"corner"},"t":{"x":-1140.919983,"y":-988.755035}},"keys":{"r":[{"t":0,"v":0},{"t":10000,"v":720}]}}},"eVqjmJIkNCL42":{"transform":{"data":{"t":{"x":-788.440002,"y":-1022.287476}},"keys":{"o":[{"t":0,"v":{"x":788.440002,"y":1022.287476,"type":"corner"}},{"t":200,"v":{"x":788.440002,"y":1000.29,"type":"corner"}},{"t":400,"v":{"x":788.440002,"y":1022.29,"type":"corner"}},{"t":1500,"v":{"x":788.440002,"y":1022.29,"type":"corner"}},{"t":1700,"v":{"x":788.440002,"y":1000.29,"type":"corner"}},{"t":1900,"v":{"x":788.440002,"y":1022.29,"type":"corner"}},{"t":3000,"v":{"x":788.440002,"y":1022.29,"type":"corner"}},{"t":3200,"v":{"x":788.440002,"y":1000.29,"type":"corner"}},{"t":3400,"v":{"x":788.440002,"y":1022.29,"type":"corner"}},{"t":4500,"v":{"x":788.440002,"y":1022.29,"type":"corner"}},{"t":4700,"v":{"x":788.440002,"y":1000.29,"type":"corner"}},{"t":4900,"v":{"x":788.440002,"y":1022.29,"type":"corner"}},{"t":6000,"v":{"x":788.440002,"y":1022.29,"type":"corner"}},{"t":6200,"v":{"x":788.440002,"y":1000.29,"type":"corner"}},{"t":6400,"v":{"x":788.440002,"y":1022.29,"type":"corner"}},{"t":7500,"v":{"x":788.440002,"y":1022.29,"type":"corner"}},{"t":7700,"v":{"x":788.440002,"y":1000.29,"type":"corner"}},{"t":7900,"v":{"x":788.440002,"y":1022.29,"type":"corner"}},{"t":9000,"v":{"x":788.440002,"y":1022.29,"type":"corner"}},{"t":9200,"v":{"x":788.440002,"y":1000.29,"type":"corner"}},{"t":9400,"v":{"x":788.440002,"y":1022.29,"type":"corner"}}]}}},"eVqjmJIkNCL52":{"transform":{"data":{"t":{"x":-296.528001,"y":-1016.024993}},"keys":{"o":[{"t":0,"v":{"x":296.528001,"y":1016.024994,"type":"corner"}},{"t":2000,"v":{"x":296.528001,"y":920.02,"type":"corner"}},{"t":4000,"v":{"x":296.528001,"y":1030.02,"type":"corner"}},{"t":6000,"v":{"x":296.528001,"y":920.02,"type":"corner"}},{"t":8000,"v":{"x":296.528001,"y":1030.02,"type":"corner"}},{"t":10000,"v":{"x":296.528001,"y":920.02,"type":"corner"}}]}}}},"s":"MBDA1NGQ4N2ZjMWQyY2GZiZWQxYzZjY2NiN2YJ5NzhlOGQ4ZFhBOGQ4SZDg5N2ZjMWM2Y2ZjMImMwZDFjNmNjY2I3ZjIk3OGU4OUU3ZmM2ZDFPjMmNmYmVkMWM2Y2NjEYmQwN2Y5NzhkODlNSAjdmYzNjNmM5Yzk3ZjWk3SDhlODk3ZmJlYzlYkMWMyY2ZjYmJlZDFjSMjdmWTk3QWMzYmVjOCWQwYzI4OTdmZDBjZGCMyYzJjMUk3Zjk3OGVQkYUk/"}],"options":"MGDAxMDg4MmY4MDgxNmMU3ZjgxMmY0NzJmNzkQ3YzZlNzEyZjhh"},'__SVGATOR_PLAYER__',window)]]></script></svg>