<svg xmlns="http://www.w3.org/2000/svg" viewBox="0 0 875.8 875.8"><defs><style>.cls-1{fill:#4858e8;}</style></defs><g id="Layer_2" data-name="Layer 2"><g id="Layer_1-2" data-name="Layer 1"><path class="cls-1" d="M437.9,875.8A438,438,0,0,1,267.45,34.42a438,438,0,0,1,340.9,807A435.1,435.1,0,0,1,437.9,875.8Zm0-849.8C210.78,26,26,210.78,26,437.9S210.78,849.8,437.9,849.8,849.8,665,849.8,437.9,665,26,437.9,26Z"/><path class="cls-1" d="M384,588.67a203.25,203.25,0,0,1-144.68-59.93c-79.78-79.78-79.78-209.58,0-289.36A203.22,203.22,0,0,1,384,179.44h0a203.25,203.25,0,0,1,144.68,59.93c79.78,79.78,79.78,209.58,0,289.36A203.27,203.27,0,0,1,384,588.67ZM384,201a181.9,181.9,0,0,0-129.46,53.63c-71.38,71.37-71.38,187.53,0,258.9a183.09,183.09,0,0,0,258.92,0c71.38-71.38,71.38-187.53,0-258.9A181.82,181.82,0,0,0,384,201Z"/><path class="cls-1" d="M487.48,459.44h-207c-26.07,0-47.29-22-47.29-49.06,0-23.76,16.37-43.63,38-48.11a82.56,82.56,0,0,1-1.5-15.71c0-44.64,34.87-81,77.73-81,30,0,56.93,18.07,69.77,45.41a57.28,57.28,0,0,1,27.63-7.11c32.41,0,58.85,27.1,59.45,60.66,18.1,7.06,30.44,25,30.44,45.83,0,27.05-21.21,49.06-47.29,49.06Zm-207-76.59c-14.2,0-25.75,12.35-25.75,27.53s11.55,27.52,25.75,27.52h207c14.2,0,25.75-12.35,25.75-27.52,0-13.48-9.4-25.15-21.88-27.17a10.77,10.77,0,0,1-9-12,41,41,0,0,0,.41-5.48c0-22.21-17-40.28-37.92-40.28a36.63,36.63,0,0,0-25.4,10.44,10.76,10.76,0,0,1-17.88-5.06c-6.68-25.7-28.93-43.67-54.12-43.67-31,0-56.19,26.66-56.19,59.43a62.11,62.11,0,0,0,4.07,22.08,10.77,10.77,0,0,1-11.58,14.48,23.37,23.37,0,0,0-3.26-.27Z"/><path class="cls-1" d="M623,696.36c-.77,0-1.53,0-2.3-.09a32.24,32.24,0,0,1-23.55-12.84l-70.87-94.5a21.63,21.63,0,0,1,2-28.14l32.48-32.49a21.64,21.64,0,0,1,28.16-2l94.5,70.87a32.3,32.3,0,0,1,3.45,48.69l-41,41A32.26,32.26,0,0,1,623,696.36ZM576,543.53,543.48,576l70.88,94.5a10.78,10.78,0,0,0,16.23,1.15l41-41a10.78,10.78,0,0,0-1.15-16.24Z"/><path class="cls-1" d="M513.45,528.74l15.23-15.23,31,31-15.23,15.23Z"/></g></g></svg>