<svg xmlns="http://www.w3.org/2000/svg" viewBox="0 0 875.8 875.8"><defs><style>.cls-1{fill:#4858e8;}</style></defs><g id="Layer_2" data-name="Layer 2"><g id="Layer_1-2" data-name="Layer 1"><path class="cls-1" d="M437.9,875.8A438,438,0,0,1,267.45,34.42a438,438,0,0,1,340.9,807A435.1,435.1,0,0,1,437.9,875.8Zm0-849.8C210.78,26,26,210.78,26,437.9S210.78,849.8,437.9,849.8,849.8,665,849.8,437.9,665,26,437.9,26Z"/><path class="cls-1" d="M631.29,471.54H274.66a16.33,16.33,0,0,1,0-32.66H633.9a16.33,16.33,0,1,0,0-32.66H242a16.35,16.35,0,0,0-13.07,6.53,36.18,36.18,0,0,0-2.28,11.6,16.34,16.34,0,0,1-16.33,14.53h-1A16.32,16.32,0,0,1,193,420.59a72.09,72.09,0,0,1,8.33-27.6A49,49,0,0,1,242,373.56H633.9a49,49,0,0,1,48,58.79,50.29,50.29,0,0,1-50.62,39.19Z"/><path class="cls-1" d="M633.9,308.09H242a49,49,0,1,1,0-98H633.9a49,49,0,1,1,0,98ZM242,242.77a16.33,16.33,0,1,0,0,32.66H633.9a16.33,16.33,0,1,0,0-32.66Z"/><path class="cls-1" d="M405.3,634.67H242a49,49,0,1,1,0-98H405.3a49,49,0,0,1,0,98ZM242,569.35A16.33,16.33,0,1,0,242,602H405.3a16.33,16.33,0,0,0,0-32.66Z"/><path class="cls-1" d="M610.72,665.68H552.26a50.46,50.46,0,0,1-44.42-26.61,16.29,16.29,0,0,1,28.91-15,17.62,17.62,0,0,0,15.51,9.14h59a17.62,17.62,0,0,0,17.63-17.64V556.28a17.79,17.79,0,0,0-17.63-17.63h-59a17.62,17.62,0,0,0-15.51,9.14,16.29,16.29,0,0,1-28.91-15A50.44,50.44,0,0,1,552.26,506h59a50.29,50.29,0,0,1,50.29,50.29v59a50.28,50.28,0,0,1-50.78,50.45Z"/></g></g></svg>