<svg xmlns="http://www.w3.org/2000/svg" viewBox="0 0 434 434"><defs><style>.cls-1{fill:#4858e8;}</style></defs><g id="Layer_2" data-name="Layer 2"><g id="Layer_1-2" data-name="Layer 1"><path class="cls-1" d="M345.6,217A128.6,128.6,0,1,0,217,345.61,128.75,128.75,0,0,0,345.6,217ZM268,277.77a207.68,207.68,0,0,0,8.8-55.33H334.6a117.22,117.22,0,0,1-29.3,72.33,142.38,142.38,0,0,0-37.26-17Zm29.54,25a117.49,117.49,0,0,1-56.43,29.51,181.71,181.71,0,0,0,23.41-44.19,132.59,132.59,0,0,1,33,14.68Zm-168.87-8a117.16,117.16,0,0,1-29.3-72.33h57.76A207.27,207.27,0,0,0,166,277.77a142.17,142.17,0,0,0-37.25,17Zm40.73-6.72a181.46,181.46,0,0,0,23.42,44.2,117.54,117.54,0,0,1-56.44-29.52,132.59,132.59,0,0,1,33-14.68Zm-40.73-148.8a142,142,0,0,0,37.25,17,207.74,207.74,0,0,0-8.8,55.33H99.41a117.16,117.16,0,0,1,29.3-72.33Zm7.71-8a117.48,117.48,0,0,1,56.44-29.51A181.27,181.27,0,0,0,169.44,146a133,133,0,0,1-33-14.69Zm168.87,8a117.23,117.23,0,0,1,29.31,72.33H276.84a207.74,207.74,0,0,0-8.8-55.33,142.17,142.17,0,0,0,37.25-17ZM264.56,146a181.71,181.71,0,0,0-23.41-44.19,117.54,117.54,0,0,1,56.43,29.51,132.59,132.59,0,0,1-33,14.68ZM266,211.58H168A196.36,196.36,0,0,1,176.5,159a183.45,183.45,0,0,0,40.5,4.51A183.45,183.45,0,0,0,257.5,159a196,196,0,0,1,8.48,52.6Zm-98,10.87h98a196.82,196.82,0,0,1-8.47,52.6,183.75,183.75,0,0,0-81,0,196.43,196.43,0,0,1-8.47-52.6ZM225.76,99.64a168.53,168.53,0,0,1,28.22,49,172.87,172.87,0,0,1-37,4,173.53,173.53,0,0,1-37-4,168.58,168.58,0,0,1,28.22-49c2.9-.21,5.81-.36,8.76-.36s5.85.15,8.75.36ZM208.25,334.4a168.53,168.53,0,0,1-28.22-49,174.38,174.38,0,0,1,73.95,0,168.58,168.58,0,0,1-28.22,49c-2.9.21-5.81.36-8.76.36s-5.85-.15-8.75-.36Z"/><path class="cls-1" d="M337.22,0a30.59,30.59,0,0,0-30.05,25.13H259.23a5.43,5.43,0,0,0-3.84,1.59l-28,28a5.43,5.43,0,0,0,7.68,7.68L261.48,36h45.69A30.54,30.54,0,1,0,337.22,0Zm0,50.26a19.7,19.7,0,1,1,19.69-19.7A19.72,19.72,0,0,1,337.22,50.26Z"/><path class="cls-1" d="M96.79,0a30.56,30.56,0,1,0,30,36h45.69L198.93,62.4a5.43,5.43,0,1,0,7.69-7.68l-28-28a5.43,5.43,0,0,0-3.84-1.59H126.83A30.59,30.59,0,0,0,96.78,0Zm0,50.26a19.7,19.7,0,1,1,19.69-19.7,19.73,19.73,0,0,1-19.69,19.7Z"/><path class="cls-1" d="M61.12,96.78a30.56,30.56,0,1,0-36,30.05v47.94a5.44,5.44,0,0,0,1.6,3.84l28,28a5.43,5.43,0,0,0,7.68-7.68L36,172.52V126.83a30.58,30.58,0,0,0,25.12-30Zm-50.25,0a19.7,19.7,0,1,1,19.7,19.7,19.72,19.72,0,0,1-19.7-19.7Z"/><path class="cls-1" d="M30.56,367.78A30.54,30.54,0,0,0,36,307.18V261.49l26.42-26.42a5.43,5.43,0,0,0-7.68-7.68l-28,28a5.43,5.43,0,0,0-1.59,3.84v47.94a30.54,30.54,0,0,0,5.43,60.6Zm0-50.26a19.7,19.7,0,1,1-19.7,19.7,19.73,19.73,0,0,1,19.7-19.7Z"/><path class="cls-1" d="M96.79,434a30.58,30.58,0,0,0,30-25.12h47.94a5.44,5.44,0,0,0,3.84-1.6l28-28a5.43,5.43,0,1,0-7.68-7.68L172.52,398H126.83a30.54,30.54,0,1,0-30,36Zm0-50.25a19.7,19.7,0,1,1-19.7,19.69,19.72,19.72,0,0,1,19.7-19.69Z"/><path class="cls-1" d="M255.39,407.28a5.43,5.43,0,0,0,3.84,1.59h47.94a30.56,30.56,0,1,0,0-10.86H261.48L235.07,371.6a5.43,5.43,0,1,0-7.68,7.68Zm81.83-23.53a19.7,19.7,0,1,1-19.7,19.69A19.72,19.72,0,0,1,337.22,383.75Z"/><path class="cls-1" d="M371.59,235.06,398,261.47v45.69a30.57,30.57,0,1,0,10.87,0V259.22a5.43,5.43,0,0,0-1.59-3.84l-28-28a5.43,5.43,0,1,0-7.68,7.68Zm51.55,102.15a19.7,19.7,0,1,1-19.7-19.7A19.72,19.72,0,0,1,423.14,337.21Z"/><path class="cls-1" d="M371.59,198.93a5.43,5.43,0,0,0,7.68,7.68l28-28a5.43,5.43,0,0,0,1.59-3.85V126.82a30.56,30.56,0,1,0-10.86,0v45.69ZM383.74,96.78a19.7,19.7,0,1,1,19.7,19.7A19.72,19.72,0,0,1,383.74,96.78Z"/></g></g></svg>