<svg xmlns="http://www.w3.org/2000/svg" viewBox="0 0 875.8 875.8"><defs><style>.cls-1{fill:#4858e8;}</style></defs><g id="Layer_2" data-name="Layer 2"><g id="Layer_1-2" data-name="Layer 1"><path class="cls-1" d="M437.9,875.8A438,438,0,0,1,267.45,34.42a438,438,0,0,1,340.9,807A435.1,435.1,0,0,1,437.9,875.8Zm0-849.8C210.78,26,26,210.78,26,437.9S210.78,849.8,437.9,849.8,849.8,665,849.8,437.9,665,26,437.9,26Z"/><path class="cls-1" d="M609,212H266.75a15.27,15.27,0,0,0-11,4.6,15.87,15.87,0,0,0-4.6,11v294.7a109.6,109.6,0,0,0,44.8,88.1l132.7,96.5a16,16,0,0,0,9.2,3,15.34,15.34,0,0,0,9.2-3l132.7-96.5h0a109.42,109.42,0,0,0,44.9-88.1V227.55a15.27,15.27,0,0,0-4.6-11A16.1,16.1,0,0,0,609,212Zm-15.5,310.3a77.88,77.88,0,0,1-32,62.9h0L437.85,675l-123.5-89.8a77.88,77.88,0,0,1-32-62.9V243.05h311.1Z"/><path class="cls-1" d="M329,523.05h217.8a15.27,15.27,0,0,0,11-4.6,15.69,15.69,0,0,0,4.6-11V352a15.27,15.27,0,0,0-4.6-11,15.69,15.69,0,0,0-11-4.6h-46.7v-46.7a15.27,15.27,0,0,0-4.6-11,15.69,15.69,0,0,0-11-4.6h-93.3a15.27,15.27,0,0,0-11,4.6,15.69,15.69,0,0,0-4.6,11v46.7h-46.7a15.27,15.27,0,0,0-11,4.6,15.69,15.69,0,0,0-4.6,11v155.6a15.27,15.27,0,0,0,4.6,11,16,16,0,0,0,11.1,4.5Zm77.8-217.8H469v31.1h-62.2Zm-62.2,62.3h186.7V492H344.55Z"/><path class="cls-1" d="M437.85,398.65a15.27,15.27,0,0,0-11,4.6,15.69,15.69,0,0,0-4.6,11v31.1a15.6,15.6,0,0,0,31.2,0v-31.1a15.71,15.71,0,0,0-15.6-15.6Z"/></g></g></svg>