<svg xmlns="http://www.w3.org/2000/svg" viewBox="0 0 875.8 875.8"><defs><style>.cls-1{fill:#fff;}.cls-2{fill:#4858e8;}.cls-3{fill:#0f6d73;}.cls-4{fill:#2fb456;}.cls-5{fill:#106e74;}.cls-6{fill:#136f75;}.cls-7{fill:#167277;}.cls-8{fill:#187278;}.cls-9{fill:#167278;}.cls-10{fill:#116f74;}.cls-11{fill:#147177;}.cls-12{fill:#187379;}</style></defs><g id="Layer_2" data-name="Layer 2"><g id="Layer_1-2" data-name="Layer 1"><circle class="cls-1" cx="437.9" cy="437.9" r="369"/><path class="cls-2" d="M437.9,875.8A438,438,0,0,1,267.45,34.42a438,438,0,0,1,340.9,807A435.1,435.1,0,0,1,437.9,875.8Zm0-849.8C210.78,26,26,210.78,26,437.9S210.78,849.8,437.9,849.8,849.8,665,849.8,437.9,665,26,437.9,26Z"/><path class="cls-3" d="M209.94,420.29V452.7c0,.62,0,1.23,0,1.85s.15,1.76-.92,1.89c-.86.1-1-.77-1.29-1.42-.84-2.2-1.69-4.4-2.5-6.61Q188,401.67,170.83,354.92c-1.75-4.75-3.4-9.55-5.32-14.24-.81-2-.2-2.58,1.59-2.71,6.55-.46,13.1-1.22,19.66-1.28,15.09-.14,30.09-1.93,45.17-2.3,11.66-.28,23.26-1.62,34.94-1.79,7.17-.1,14.32-1.1,21.49-1.54,4.9-.3,9.85,0,14.72-.54,13.26-1.4,26.59-1.41,39.88-2.39,8-.59,16.06-1.34,24.15-1.3,8.42.06,16.8-1,25.22-1.21,2.89-.09,5.93-.72,8.94-.87a2.37,2.37,0,0,1,2.69,1.68c6,13.41,12,26.77,18.05,40.16Q433.13,391.3,444.2,416c1.76,3.91,3.42,7.85,5.28,11.71a2.74,2.74,0,0,1-.6,3.53c-7.74,7.9-14.82,16.39-22.09,24.71a6.61,6.61,0,0,1-3.14,1.82Q406.16,463.37,388.7,469a4.59,4.59,0,0,1-4.24-.79c-4.57-3.24-9.1-6.55-13.67-9.81a4.14,4.14,0,0,1-1.64-3.9c.09-4.21,0-8.43.12-12.64,0-1.87-.36-2.46-2.4-1.77-6.4,2.17-12.91,4.05-19.76,3.74-7.66-.33-14.73-2.17-19.71-8.69a20.32,20.32,0,0,1,12.68-32.31c8.58-1.48,16.51.43,24.21,4,2.82,1.3,2.85,1.3,2.85-1.77,0-5.53,0-11.07,0-16.6,0-1.31-.05-2.35-1.68-2.78-18.5-4.79-36.67-4.69-53.92,4.46-22.4,11.89-24.93,39.17-12.66,55.76,5.93,8,14.45,12.22,23.84,14.83a39.27,39.27,0,0,0,7.7,1.57,5.59,5.59,0,0,1,4.44,2.76q5.25,7.23,10.52,14.45c1.75,2.39,1.74,2.47-1.07,3.35q-28.65,9-57.31,18L235.46,517c-.16,0-.32.12-.49.16-4.88,1.23-4,1.27-5.51-2.83q-8.78-23.58-17.48-47.2c-.13-.33-.27-.65-.38-1-1.33-3.73-1-4.19,3-4.19,7.65,0,15.29-.08,22.94.05,2.38,0,3-.86,3-3.08-.18-5.88-.16-11.76-.34-17.63-.07-2.12.72-2.69,2.79-2.62,8.89.29,17.71-.34,26.06-3.69,8.94-3.59,15.66-9.43,17.32-19.45,2.25-13.65-3.86-23.29-17.47-28-9.16-3.19-18.69-3.6-28.25-3.71-9.22-.11-18.44,0-27.67-.07-2.4,0-3.14.65-3.11,3.13C210,398,209.94,409.13,209.94,420.29Zm170.83,2.49V458.1c0,3.82,0,3.83,3.69,3.82q10.41,0,20.82-.08c5.39,0,5.63-.27,5.62-5.61v-1.32q0-34,0-68c0-2.3-.53-3.21-3.09-3.15-8,.18-16,.15-24,0-2.46,0-3.17.75-3.15,3.17C380.82,398.88,380.77,410.83,380.77,422.78Zm33.3-62.49c.11-12.24-8.47-17.52-18.06-17.42-11.07.11-18.26,5.09-18.54,17.27-.26,11.91,8.45,17.11,18.67,17.19C405.6,377.4,414.32,371.71,414.07,360.29Z"/><path class="cls-4" d="M536.44,380.8c-4.1,3.88-7.94,7.45-11.7,11.09a436,436,0,0,0-34.87,38.67,919.75,919.75,0,0,0-57.95,80.51c-8.57,13.28-17.08,26.61-25.12,40.22-1.39,2.35-1.61,2.34-3.05.08-15.21-23.73-32-46.36-48.91-68.86-3.38-4.47-6.73-9-10.19-13.37-1.22-1.55-1.24-2.69.23-4.05q4.72-4.38,9.29-8.94c1.21-1.22,2.11-1.3,3.58-.27,15,10.42,30.12,20.7,45.09,31.18,2.23,1.56,3.37,1.22,4.88-.76a521.38,521.38,0,0,1,47.5-53.45c19.11-18.89,39.49-36.24,61.93-51.1a8.77,8.77,0,0,1,4.49-1.2A77.65,77.65,0,0,1,536.44,380.8Z"/><path class="cls-5" d="M549.57,401.77c0-8.87.06-17.75-.05-26.62,0-2.37.81-3,3.07-2.95,9.3.26,18.61.56,27.91.5,11.06-.07,18.77,6.79,21.55,16a42.69,42.69,0,0,1-.24,26.86c-3.1,8.89-9.59,14-19,15.13-10.41,1.2-20.88.35-31.32.61-2.08,0-1.92-1.3-1.92-2.64Q549.58,415.21,549.57,401.77Zm18.28.06V411c0,7.44,0,7.44,7.64,6.63,5.66-.59,8.29-3,9.42-8.51a42.36,42.36,0,0,0,.3-12.31c-.58-6.57-3.43-9.79-8.83-10.79a60.24,60.24,0,0,0-6-.41c-1.86-.15-2.62.47-2.55,2.51C568,392.7,567.85,397.27,567.85,401.83Z"/><path class="cls-5" d="M654.17,389.62c-1,0-2.12-.08-3.16,0-2.87.27-4.9,0-6.11-3.47-1.37-3.91-8.56-5-11.9-2.39a3.45,3.45,0,0,0-1.44,3.44,3.49,3.49,0,0,0,2.71,2.92c4.13,1.1,8.29,2.11,12.42,3.22A38.68,38.68,0,0,1,658.06,398c8.32,5.46,10,17.25,3.89,25.45-3.8,5.06-9.17,7.16-15,8.25a44.86,44.86,0,0,1-20.05-.82c-8.47-2.25-12.59-8.32-14.5-16.35-.42-1.73-.3-2.69,2.13-2.89,4.37-.36,8.77-.07,13.12-.66,2.22-.31,2.48,1.3,2.92,2.87,1.73,6.16,10.06,8.83,14.88,4.8,3.14-2.61,3.08-5.95-.2-8.37-2.84-2.09-6.3-2.41-9.59-3.26-5.33-1.38-10.63-2.87-15.17-6.23a15.42,15.42,0,0,1,0-24.66c5.13-3.79,11.09-4.67,17.16-4.85,5.78-.17,11.52.29,16.89,3,5.59,2.79,7.9,7.66,9.14,13.32.33,1.47-.77,1.82-1.91,1.84-2.54,0-5.09,0-7.63,0Z"/><path class="cls-5" d="M701.4,371.26c5.23.22,10.72.44,15.61,3.6,4.42,2.86,6.73,7,7.78,12,.28,1.33-.3,1.89-1.41,1.94q-7.23.36-14.46.58c-1.36,0-1.56-1.16-2-2.09a8.55,8.55,0,0,0-10.49-4.66c-1.9.68-3.65,1.65-3.57,4s1.81,3.47,3.85,4c5.81,1.63,11.65,3.1,17.43,4.81,9.83,2.91,13.78,11.22,12.8,18.38-1.2,8.81-6.23,14.65-14.94,17a47.34,47.34,0,0,1-23.41.15c-7.13-1.65-11.63-6.44-13.85-13.38-.27-.83-.52-1.67-.77-2.5-1-3.24-1-3.16,2.57-3.36,3.85-.21,7.7-.53,11.52-1,2-.24,2.89.31,3.49,2.37a9.73,9.73,0,0,0,12.18,7.1c2.86-.7,5-2.82,5.18-5.25.24-2.92-1.57-4.56-3.89-5.66-3.57-1.69-7.48-2.32-11.26-3.35-5.19-1.42-10.28-3.11-14.13-7.07-6.77-6.95-4.42-19.58,4.41-24.29C688.64,372.14,693.5,371.19,701.4,371.26Z"/><path class="cls-6" d="M716.45,436h3.68c5.42,0,8.5,2.53,9.46,7.86a19.94,19.94,0,0,1,.08,6.54c-.69,4.66-3.91,7.42-8.91,7.63-3,.13-6.12,0-9.18,0-1.69,0-2.31-.67-2.29-2.36.06-5.87.05-11.74,0-17.62,0-1.55.53-2.23,2.16-2.13S714.78,436,716.45,436Zm.17,10.59c0,1.4.09,2.81,0,4.2-.2,2.37,1.15,2.48,2.79,1.93,2.15-.74,3.06-2.35,3.05-4.65,0-2.68.22-5.37-3.05-6.49-1.75-.6-3.1-.7-2.79,1.87A27.38,27.38,0,0,1,716.62,446.6Z"/><path class="cls-7" d="M615.38,457.67c-5.54,1.75-8.77-.4-10.67-5.26-.51-1.3-1.17-3.38-2.84-2.94s-.48,2.48-.78,3.77a5.29,5.29,0,0,0,0,1.32c0,3.51,0,3.51-3.49,3.51-3.74,0-3.75,0-3.75-3.74,0-5.09.11-10.18,0-15.27-.07-2.46.78-3.24,3.2-3.1,3.59.2,7.19.08,10.79.13,2.65,0,4.86,1,5.87,3.61a6.73,6.73,0,0,1-2.15,7.56c-1.27.89-1.28,1.56-.56,2.75C612.49,452.53,613.9,455.11,615.38,457.67Zm-12-12.67c2,.36,3.5-.32,3.49-2.4,0-2.29-2.11-2.12-3.69-2.36-2.07-.32-2.24,1.05-2.3,2.57C600.79,444.63,601.56,445.42,603.37,445Z"/><path class="cls-8" d="M686.79,446.74c0-2.9.05-5.8,0-8.69,0-1.61.57-2.11,2.17-2.08,4.65.09,9.31.07,14,0,1.52,0,2.29.25,2,2.06-.21,1.5.55,3.34-2.09,3.26-2.37-.06-4.74,0-7.11,0-.94,0-1.78,0-1.78,1.3s.73,1.43,1.72,1.42c2.28,0,4.57.07,6.85,0,2-.07,1.73,1.26,1.74,2.48s.21,2.57-1.72,2.52c-2.11,0-4.22,0-6.33,0-1.33,0-2.32,0-2.32,1.87s.94,2.1,2.45,2.06c2.46-.07,4.93.1,7.37-.06,1.93-.12,2,1,1.83,2.29s.73,3-1.73,3c-5,0-10,0-15,0-1.75,0-2-1-2-2.39C686.79,452.71,686.79,449.73,686.79,446.74Z"/><path class="cls-9" d="M571.32,446.93c0-3,0-6,0-8.95,0-1.42.51-2,2-2,4.74.08,9.48.1,14.22,0,2-.05,2,1.08,2,2.52s.07,2.88-2.07,2.81c-2.46-.07-4.91,0-7.37,0-.84,0-1.63.05-1.7,1.15S579,444,580.06,444c2.28,0,4.56,0,6.84,0,1.34,0,2.2.31,2.15,1.9s.16,2.93-1.93,3-4.39.12-6.58.1c-1.38,0-2.09.4-2.09,1.95s.58,2,2,2c2.46-.07,4.92,0,7.37,0,1.38,0,2.4,0,2.27,1.89-.11,1.6.23,3.29-2.2,3.29-3.24,0-6.49,0-9.74,0-6.86,0-6.86,0-6.86-6.93Z"/><path class="cls-10" d="M240,411c0-2.54,0-5.08,0-7.61,0-1.15.29-1.89,1.56-1.89,3.4,0,6.82,0,10.05,1.27,4.15,1.57,6.47,5.05,6.19,9a9.72,9.72,0,0,1-7.5,8.75,31.81,31.81,0,0,1-8.6.64c-1.41,0-1.73-.82-1.7-2.06C240,416.4,240,413.69,240,411Z"/><path class="cls-11" d="M553.64,447c0,.7,0,1.41,0,2.11a3.67,3.67,0,0,0,2.73,3.75c1.8.52,3.2-.28,4.26-1.81,1.18-1.72,3.6-1.9,6.07-.16,1.79,1.27.24,2.71-.45,3.82-1.49,2.42-3.83,3.32-6.65,3.55-4.38.37-8.55.19-11.32-3.77-3-4.26-2.79-9-.79-13.51,1.7-3.81,5.4-5.15,9.31-5.44s7.26.86,9.6,4.24c1.12,1.64,1.36,2.69-1.18,3.17-2.23.43-4.1.91-6-1.11-1.53-1.67-5.18-.23-5.59,2a25.1,25.1,0,0,0-.18,3.14Z"/><path class="cls-6" d="M653.34,447c0-2.9.08-5.8,0-8.7-.06-1.66.37-2.36,2.19-2.31,4.21.12,8.43.11,12.65,0,1.76,0,2.44.68,2.34,2.29s-.09,3.08-2.36,3c-1.93-.1-3.86,0-5.8,0-1,0-2.07-.1-2.1,1.32s.84,2,2.21,1.92,2.66.13,3.95,0c2.25-.3,2.38,1.17,2.51,2.7.16,1.9-1,2.07-2.53,2.1-6.06.14-6.12.17-6.13,6.38,0,1.79-.5,2.66-2.37,2.49a12.39,12.39,0,0,0-2.11,0c-1.76.13-2.54-.5-2.45-2.41C653.44,452.78,653.34,449.88,653.34,447Z"/><path class="cls-6" d="M626.84,436c2.89,0,5.79,0,8.68,0,1.28,0,2,.33,1.94,1.74s.82,3.27-1.38,4a4,4,0,0,1-1,.09c-4.6.27-4.61.26-4.6,5,0,3.15,0,6.3.06,9.45,0,.76.08,1.6-.78,1.67a32.23,32.23,0,0,1-5.47,0c-1.17-.11-1-1.26-1-2.12,0-3.85-.14-7.71.06-11.56.1-2.07-.63-2.7-2.53-2.44a9.19,9.19,0,0,1-1.05,0c-3.06,0-4.37-2-3.28-4.92.38-1,1.17-.88,1.94-.88Z"/><path class="cls-9" d="M648.08,446.82c0,3-.09,6,0,8.95.07,1.69-.39,2.37-2.18,2.34-6-.1-5.12.42-5.16-5,0-4.83.07-9.66,0-14.49,0-2.06.67-2.73,2.75-2.68,4.52.12,4.53,0,4.52,4.54,0,2.11,0,4.22,0,6.33Z"/><path class="cls-12" d="M674.42,446.91c0-3,.06-6,0-8.94,0-1.47.48-2,2-2,6.1.14,5.14-.79,5.2,5.08,0,4.73-.06,9.46,0,14.19,0,2.09-.43,3-2.81,2.78-4.37-.4-4.39-.25-4.39-4.81Z"/></g></g></svg>