<svg xmlns="http://www.w3.org/2000/svg" viewBox="0 0 875.8 875.8"><defs><style>.cls-1,.cls-2{fill:#4858e8;}.cls-2{fill-rule:evenodd;}</style></defs><g id="Layer_2" data-name="Layer 2"><g id="Layer_1-2" data-name="Layer 1"><path class="cls-1" d="M437.9,875.8A438,438,0,0,1,267.45,34.42a438,438,0,0,1,340.9,807A435.1,435.1,0,0,1,437.9,875.8Zm0-849.8C210.78,26,26,210.78,26,437.9S210.78,849.8,437.9,849.8,849.8,665,849.8,437.9,665,26,437.9,26Z"/><path class="cls-2" d="M472.1,435.68h0Zm7.59.66a6.94,6.94,0,0,0-4.9,11.82l56.33,56.33a7,7,0,0,0,9.79,0,7,7,0,0,0,0-9.79l-56.33-56.33a6.89,6.89,0,0,0-4.89-2ZM536,514.11a14.44,14.44,0,0,1-10.28-4.25l-56.33-56.32A14.53,14.53,0,1,1,490,433l56.32,56.32A14.52,14.52,0,0,1,536,514.11Z"/><path class="cls-2" d="M472.1,439.49a3.8,3.8,0,0,1-2.69-1.11l-20.14-20.15a3.8,3.8,0,0,1,5.38-5.38L474.79,433a3.8,3.8,0,0,1-2.68,6.49Z"/><path class="cls-2" d="M352.39,316a66.67,66.67,0,1,0,94.28,0,66.75,66.75,0,0,0-94.28,0Zm47.14,121.41a74.27,74.27,0,1,1,52.52-21.75,73.82,73.82,0,0,1-52.52,21.75Z"/><path class="cls-2" d="M369.22,379.34a3.78,3.78,0,0,1-2.27-.76l-16.62-12.42a3.82,3.82,0,0,1,0-6.1L367,347.63a3.81,3.81,0,0,1,4.55,6.1L359,363.11l12.55,9.38a3.8,3.8,0,0,1-2.28,6.85Z"/><path class="cls-2" d="M429.83,379.34a3.8,3.8,0,0,1-2.27-6.85l12.54-9.38-12.54-9.38a3.8,3.8,0,1,1,4.55-6.09l16.63,12.42a3.82,3.82,0,0,1,0,6.1l-16.62,12.42a3.77,3.77,0,0,1-2.29.76Z"/><path class="cls-2" d="M412.64,360.07H386.15a3.8,3.8,0,1,1,0-7.6h26.49a3.8,3.8,0,1,1,0,7.6Z"/><path class="cls-2" d="M412.91,373.75H386.43a3.8,3.8,0,0,1,0-7.6h26.48a3.8,3.8,0,0,1,0,7.6Z"/><path class="cls-2" d="M216.05,238.89a17.75,17.75,0,0,0-17.73,17.73V546.31a17.75,17.75,0,0,0,17.73,17.74h443.7a17.74,17.74,0,0,0,17.73-17.73V256.62a17.75,17.75,0,0,0-17.73-17.74H216.05ZM659.74,571.66H216.05a25.37,25.37,0,0,1-25.34-25.34V256.62a25.37,25.37,0,0,1,25.34-25.34h443.7a25.37,25.37,0,0,1,25.34,25.34V546.31a25.36,25.36,0,0,1-25.34,25.34Z"/><path class="cls-2" d="M225.47,536.89H650.31V266.05H225.47Zm428.64,7.61H221.67a3.81,3.81,0,0,1-3.8-3.8V262.25a3.81,3.81,0,0,1,3.8-3.81H654.11a3.8,3.8,0,0,1,3.8,3.81V540.7a3.79,3.79,0,0,1-3.8,3.8Z"/><path class="cls-2" d="M526.94,660.52H348.85A3.8,3.8,0,0,1,347,653.4c47.66-26.79,41.85-64.63,38.72-85a3.8,3.8,0,0,1,7.52-1.16c2.14,13.91,3.49,28.94-1,44.64-4.62,16.05-14.79,29.8-30.3,41h152c-15.51-11.2-25.68-24.95-30.31-41-4.52-15.7-3.16-30.73-1-44.64a3.8,3.8,0,0,1,7.52,1.16c-3.12,20.33-8.94,58.17,38.73,85a3.81,3.81,0,0,1-1.86,7.12Z"/></g></g></svg>