<svg xmlns="http://www.w3.org/2000/svg" viewBox="0 0 875.8 875.8"><defs><style>.cls-1{fill:#4858e8;}</style></defs><g id="Layer_2" data-name="Layer 2"><g id="Layer_1-2" data-name="Layer 1"><path class="cls-1" d="M437.9,875.8A438,438,0,0,1,267.45,34.42a438,438,0,0,1,340.9,807A435.1,435.1,0,0,1,437.9,875.8Zm0-849.8C210.78,26,26,210.78,26,437.9S210.78,849.8,437.9,849.8,849.8,665,849.8,437.9,665,26,437.9,26Z"/><path class="cls-1" d="M195.51,421.84a9.71,9.71,0,0,0,5.49,7.1l56.88,26.19V580.32a9.71,9.71,0,0,0,5.65,8.82L433.94,667.6c.15.07.31,0,.46.1a9.7,9.7,0,0,0,3.61.8,9.42,9.42,0,0,0,3.6-.8c.15-.06.31,0,.46-.1l170.42-78.46a9.71,9.71,0,0,0,5.64-8.82V455.13L675,428.94a9.71,9.71,0,0,0,2.8-15.68L622.15,357.6l55.66-55.67a9.71,9.71,0,0,0-2.8-15.68L504.59,207.8a9.65,9.65,0,0,0-10.92,2L438,265.42l-55.67-55.67a9.67,9.67,0,0,0-10.92-1.95L201,286.27A9.71,9.71,0,0,0,198.2,302l55.67,55.66L198.2,413.27a9.7,9.7,0,0,0-2.69,8.57Zm81.78,42.23,94.13,43.34a9.69,9.69,0,0,0,10.92-2l46-45.95V643.64l-151-69.53ZM438,289.82,585.21,357.6,438,425.38,290.79,357.6ZM598.7,574.11l-151,69.53V459.5l46,46a9.71,9.71,0,0,0,10.92,2l94.12-43.34ZM502.6,487l-47.89-47.89,151.62-69.81,47.89,47.89Zm0-258.7,151.62,69.82L606.33,346,454.71,276.14Zm-129.21,0,47.89,47.89L269.66,346l-47.88-47.89Zm-103.73,141,151.62,69.81-47.89,47.89-151.62-69.8Z"/></g></g></svg>