<svg xmlns="http://www.w3.org/2000/svg" viewBox="0 0 875.8 875.8"><defs><style>.cls-1,.cls-2{fill:#4858e8;}.cls-2{fill-rule:evenodd;}</style></defs><g id="Layer_2" data-name="Layer 2"><g id="Layer_1-2" data-name="Layer 1"><path class="cls-1" d="M437.9,875.8A438,438,0,0,1,267.45,34.42a438,438,0,0,1,340.9,807A435.1,435.1,0,0,1,437.9,875.8Zm0-849.8C210.78,26,26,210.78,26,437.9S210.78,849.8,437.9,849.8,849.8,665,849.8,437.9,665,26,437.9,26Z"/><path class="cls-2" d="M662.9,260.17a47.3,47.3,0,0,0-47.29-47.3H259.73a47.32,47.32,0,0,0-47.3,47.3V616.05a47.3,47.3,0,0,0,47.3,47.3H615.61a47.29,47.29,0,0,0,47.29-47.3Zm-18,82.16H230.45V616.05a29.28,29.28,0,0,0,29.28,29.28H615.61a29.26,29.26,0,0,0,29.27-29.28V342.33ZM334.81,424.46v20a196.73,196.73,0,0,0,59.71,141.18l9.59,9.33A50.83,50.83,0,0,0,476,593.85l9-9.27a196.78,196.78,0,0,0,55.52-137V424.46a40.4,40.4,0,0,0-40.4-40.41H375.21a40.4,40.4,0,0,0-40.4,40.41Zm18,0a22.39,22.39,0,0,1,22.38-22.39H500.12a22.38,22.38,0,0,1,22.38,22.39v23.12A178.73,178.73,0,0,1,472.07,572l-9,9.27a32.79,32.79,0,0,1-46.4.7l-9.61-9.32a178.76,178.76,0,0,1-54.24-128.25ZM425,474.88l-32.16-32.15a9,9,0,1,1,12.67-12.68l32.16,32.16,32.16-32.16a9,9,0,0,1,12.67,12.68l-32.15,32.15L482.49,507a9,9,0,0,1-12.67,12.68l-32.16-32.16L405.5,519.72A9,9,0,0,1,392.83,507ZM644.88,324.32V260.18A29.28,29.28,0,0,0,615.6,230.9H259.72a29.28,29.28,0,0,0-29.28,29.28v64.14Zm-355.74-73.2a27.1,27.1,0,1,0,27.11,27.1A27.11,27.11,0,0,0,289.14,251.12Zm62.71,0a27.1,27.1,0,1,0,27.1,27.1A27.12,27.12,0,0,0,351.85,251.12Zm-62.71,18a9.09,9.09,0,1,1-9.08,9.08A9.08,9.08,0,0,1,289.14,269.14Zm62.71,0a9.09,9.09,0,1,1-9.09,9.08A9.07,9.07,0,0,1,351.85,269.14Z"/></g></g></svg>