<svg xmlns="http://www.w3.org/2000/svg" viewBox="0 0 875.8 875.8"><defs><style>.cls-1{fill:#4858e8;}</style></defs><g id="Layer_2" data-name="Layer 2"><g id="Layer_1-2" data-name="Layer 1"><path class="cls-1" d="M437.9,875.8A438,438,0,0,1,267.45,34.42a438,438,0,0,1,340.9,807A435.1,435.1,0,0,1,437.9,875.8Zm0-849.8C210.78,26,26,210.78,26,437.9S210.78,849.8,437.9,849.8,849.8,665,849.8,437.9,665,26,437.9,26Z"/><path class="cls-1" d="M604.93,655.44a7.77,7.77,0,0,0-7.77-7.77H278.62a7.77,7.77,0,1,0,0,15.54H597.16A7.77,7.77,0,0,0,604.93,655.44Z"/><path class="cls-1" d="M643.79,329.33v15.61h0A31.06,31.06,0,0,1,671,375.74V585.51a31.07,31.07,0,0,1-31.08,31.08h-404a31.07,31.07,0,0,1-31.08-31.08V375.74A31.06,31.06,0,0,1,232,344.93v-15.6a46.65,46.65,0,0,0-42.73,46.41V585.51a46.67,46.67,0,0,0,46.62,46.62h404a46.67,46.67,0,0,0,46.62-46.62V375.74a46.65,46.65,0,0,0-42.73-46.41Z"/><path class="cls-1" d="M620.47,601.05a7.76,7.76,0,0,0,7.77-7.76V235.9a23.32,23.32,0,0,0-23.31-23.31H270.85a23.34,23.34,0,0,0-23.31,23.31V593.29a7.77,7.77,0,0,0,15.54,0v-303H612.7v303a7.76,7.76,0,0,0,7.77,7.76ZM263.08,274.75V235.9a7.78,7.78,0,0,1,7.77-7.77H604.93a7.77,7.77,0,0,1,7.77,7.77v38.85Z"/><path class="cls-1" d="M589.39,243.67H573.85a7.77,7.77,0,1,0,0,15.54h15.54a7.77,7.77,0,0,0,0-15.54Z"/><path class="cls-1" d="M542.78,243.67H527.24a7.77,7.77,0,1,0,0,15.54h15.54a7.77,7.77,0,0,0,0-15.54Z"/><path class="cls-1" d="M507.6,383.94a21.28,21.28,0,0,1,13.94,1.91l1.87.95,3.18,1.6a128.71,128.71,0,0,0-30.4-46.17c-.09-.1-.16-.22-.26-.32a9.09,9.09,0,0,0-.74-.63,127.84,127.84,0,0,0-176.74,0q-.39.3-.75.63c-.09.1-.16.22-.25.32a127.92,127.92,0,0,0,0,183.57c.09.11.16.22.25.32a8.8,8.8,0,0,0,.74.63A127.66,127.66,0,0,0,435,559a90.54,90.54,0,0,1-10.5-20.28,33.09,33.09,0,0,1-9.93,6.36V498.39a415.45,415.45,0,0,1-3.81-66.22,21.63,21.63,0,0,1,3.81-11.79V388.55A126.43,126.43,0,0,0,450.84,381a206.19,206.19,0,0,1,4.33,24.66c5.17-1.57,10.21-3.36,15-5.22a215.26,215.26,0,0,0-5-25.78,125.58,125.58,0,0,0,24.77-16.57A113,113,0,0,1,507.6,384ZM369.75,327.66a120.07,120.07,0,0,0-16.63,31.93A110.3,110.3,0,0,1,335,347.3a112.51,112.51,0,0,1,34.76-19.64Zm-46,30.39a125.58,125.58,0,0,0,24.77,16.57,231.86,231.86,0,0,0-7.11,51.63H294.46a112.28,112.28,0,0,1,29.25-68.2Zm-29.25,83.73h46.91a231.86,231.86,0,0,0,7.11,51.63A126,126,0,0,0,323.71,510a112.28,112.28,0,0,1-29.25-68.2Zm40.53,79a110.3,110.3,0,0,1,18.13-12.29,120.07,120.07,0,0,0,16.63,31.93A112.51,112.51,0,0,1,335,520.73Zm64.06,24.39c-12.07-4.7-23.83-20-31.87-43.12h0a111.3,111.3,0,0,1,31.87-6.93Zm0-65.63a126.34,126.34,0,0,0-36.25,7.58,218.71,218.71,0,0,1-5.89-45.29h42.14Zm0-53.24H356.91A218.71,218.71,0,0,1,362.8,381a126.34,126.34,0,0,0,36.25,7.58Zm0-53.29A111.3,111.3,0,0,1,367.18,366c8-23.1,19.8-38.42,31.87-43.12Zm15.54,0v-50c12.07,4.7,23.83,20,31.87,43.12h0A111.37,111.37,0,0,1,414.59,373Zm45.93-13.37h0a120.37,120.37,0,0,0-16.63-31.93,112.82,112.82,0,0,1,34.76,19.64,110.73,110.73,0,0,1-18.13,12.29Z"/><path class="cls-1" d="M508.74,600.32a6.35,6.35,0,0,0,5.93,0,199.17,199.17,0,0,0,59.4-48.1c23-28.42,23.42-99.1,23-119.75a6.33,6.33,0,0,0-5.76-6.16c-31.94-3.2-66.08-21.2-76.77-26.58h0a6.31,6.31,0,0,0-5.71,0c-10.69,5.38-44.83,23.38-76.77,26.58h0a6.33,6.33,0,0,0-5.76,6.16c-.4,20.65,0,91.33,23,119.75a199.17,199.17,0,0,0,59.4,48.1Zm3-184.62c13.14,6.62,41.26,20.29,69.93,25,0,37.42-5,83.75-19.64,101.77h0a181.26,181.26,0,0,1-50.29,41.77,181.59,181.59,0,0,1-50.29-41.78c-14.58-18-19.63-64.34-19.63-101.76,28.67-4.71,56.79-18.37,69.92-25Z"/></g></g></svg>