<svg xmlns="http://www.w3.org/2000/svg" viewBox="0 0 875.8 875.8"><defs><style>.cls-1,.cls-2{fill:#4858e8;}.cls-2{fill-rule:evenodd;}</style></defs><g id="Layer_2" data-name="Layer 2"><g id="Layer_1-2" data-name="Layer 1"><path class="cls-1" d="M437.9,875.8A438,438,0,0,1,267.45,34.42a438,438,0,0,1,340.9,807A435.1,435.1,0,0,1,437.9,875.8Zm0-849.8C210.78,26,26,210.78,26,437.9S210.78,849.8,437.9,849.8,849.8,665,849.8,437.9,665,26,437.9,26Z"/><path class="cls-2" d="M437.9,696.57s246.86-63,243-439.64c0,0-116.05,0-243-77.7C311,256.93,195,256.93,195,256.93,191,633.63,437.9,696.57,437.9,696.57ZM273.36,331.23c7.38,88.18,34.66,148.61,65.72,189.69,30.77,40.66,65.17,62.3,87.46,73l-11.22,23.24c-24.76-11.91-63-35.91-96.85-80.71-33.58-44.39-63-109.27-70.88-203.13l25.77-2.12Z"/></g></g></svg>