<svg xmlns="http://www.w3.org/2000/svg" viewBox="0 0 373.34 466.66"><defs><style>.cls-1{fill:#4858e8;}</style></defs><g id="Layer_2" data-name="Layer 2"><g id="Layer_1-2" data-name="Layer 1"><path class="cls-1" d="M271.41,95.06a207,207,0,0,1-74.66-77L186.67,0,176.54,18.1a202.8,202.8,0,0,1-74,76.59A202.87,202.87,0,0,1,0,123.25V274.07a113.39,113.39,0,0,0,17.5,57.77C64,410,186.67,466.66,186.67,466.66S309.36,410,355.84,331.84a113.49,113.49,0,0,0,17.5-57.77V123.25A198.9,198.9,0,0,1,271.42,95.06Zm83.26,180.27a95.17,95.17,0,0,1-14.89,48.25C303.34,384.67,213.69,433.34,186.67,447,159.65,433.34,70,384.66,33.56,323.44a95.28,95.28,0,0,1-14.89-48.11V142.24a222.44,222.44,0,0,0,96.12-32.12,222.3,222.3,0,0,0,71.88-71.44A225.71,225.71,0,0,0,261.85,112a218.24,218.24,0,0,0,92.82,30.24Z"/><path class="cls-1" d="M186.66,175.37a32.34,32.34,0,0,0-31.12,33.41v25.06h62.25V208.78a32.34,32.34,0,0,0-31.13-33.41Zm12.47,39.81H174.2v-6.4A14,14,0,0,1,186.66,194a14,14,0,0,1,12.47,14.74Z"/><path class="cls-1" d="M186.66,140c-36,0-65.33,30.85-65.33,68.78V336H252V208.78a70.25,70.25,0,0,0-18.66-48.16A63.27,63.27,0,0,0,186.66,140Zm46.67,93.84v83.49H140V208.78c0-27.67,20.9-50.12,46.66-50.12a45,45,0,0,1,33,14.7,51.87,51.87,0,0,1,13.67,35.42Z"/></g></g></svg>