<svg xmlns="http://www.w3.org/2000/svg" viewBox="0 0 875.8 875.8"><defs><style>.cls-1{fill:#4858e8;}</style></defs><g id="Layer_2" data-name="Layer 2"><g id="Layer_1-2" data-name="Layer 1"><path class="cls-1" d="M437.9,875.8A438,438,0,0,1,267.45,34.42a438,438,0,0,1,340.9,807A435.1,435.1,0,0,1,437.9,875.8Zm0-849.8C210.78,26,26,210.78,26,437.9S210.78,849.8,437.9,849.8,849.8,665,849.8,437.9,665,26,437.9,26Z"/><path class="cls-1" d="M481,368.7l-43.1-43.1L308.6,454.9V498h43.1Z"/><path class="cls-1" d="M394.8,498H567.2V454.9H437.9Z"/><path class="cls-1" d="M631.85,239.4H244A21.55,21.55,0,0,0,222.4,261V670.4l86.2-86.2H631.85a21.55,21.55,0,0,0,21.55-21.55V261a21.55,21.55,0,0,0-21.55-21.55ZM610.3,541.1H265.5V282.5H610.3Z"/></g></g></svg>