<svg xmlns="http://www.w3.org/2000/svg" viewBox="0 0 875.8 875.8"><defs><style>.cls-1{fill:#4858e8;}</style></defs><g id="Layer_2" data-name="Layer 2"><g id="Layer_1-2" data-name="Layer 1"><path class="cls-1" d="M437.9,875.8A438,438,0,0,1,267.45,34.42a438,438,0,0,1,340.9,807A435.1,435.1,0,0,1,437.9,875.8Zm0-849.8C210.78,26,26,210.78,26,437.9S210.78,849.8,437.9,849.8,849.8,665,849.8,437.9,665,26,437.9,26Z"/><path class="cls-1" d="M608.9,409a165,165,0,0,0,4-36h-35a124.11,124.11,0,0,1-9.1,46.73,17.42,17.42,0,0,0,18.9,24,55.23,55.23,0,0,1,7.7-.7,52.5,52.5,0,1,1,0,105H576.69a142.28,142.28,0,0,0,1.23-17.5,140,140,0,0,0-280,0h35a105,105,0,1,1,4.37,29.93A17.51,17.51,0,0,0,319.79,548H297.92a70,70,0,0,1,0-140A72.5,72.5,0,0,1,313,409.56a17.52,17.52,0,0,0,21.18-19.08,123.33,123.33,0,0,1-1.23-17.5,122.74,122.74,0,0,1,245-15.4l35-4.19h0a157.8,157.8,0,1,0-315,19.6,105,105,0,0,0,0,210h10.15a140,140,0,0,0,259.52,0h27.83A87.5,87.5,0,0,0,608.9,409Z"/><path class="cls-1" d="M420.42,460.48h35v35h-35Z"/><path class="cls-1" d="M420.42,513h35v87.5h-35Z"/></g></g></svg>