<svg xmlns="http://www.w3.org/2000/svg" viewBox="0 0 875.8 875.8"><defs><style>.cls-1{fill:#4858e8;}</style></defs><g id="Layer_2" data-name="Layer 2"><g id="Layer_1-2" data-name="Layer 1"><path class="cls-1" d="M437.9,875.8A438,438,0,0,1,267.45,34.42a438,438,0,0,1,340.9,807A435.1,435.1,0,0,1,437.9,875.8Zm0-849.8C210.78,26,26,210.78,26,437.9S210.78,849.8,437.9,849.8,849.8,665,849.8,437.9,665,26,437.9,26Z"/><path class="cls-1" d="M506,467.42H473.49a10.41,10.41,0,0,1,0-20.81H506a4.32,4.32,0,0,0,3.91-2.29,4.37,4.37,0,0,0-.1-4.48s0-.1-.09-.1l-69.09-115a4.37,4.37,0,0,0-3.72-2.1,4.17,4.17,0,0,0-3.73,2.1l-69,114.9a.09.09,0,0,1-.1.09,4.39,4.39,0,0,0-.09,4.49,4.32,4.32,0,0,0,3.91,2.29h32.54a10.4,10.4,0,0,1,0,20.8H368a25.35,25.35,0,0,1-21.66-38.55l69.09-114.9a.09.09,0,0,1,.09-.09,25.35,25.35,0,0,1,43.14,0,.09.09,0,0,0,.09.09L527.6,429A25.27,25.27,0,0,1,506,467.42Z"/><path class="cls-1" d="M513.1,677.55H352.87a10.45,10.45,0,0,1-10-13.46L372.91,564a10.46,10.46,0,0,1,10-7.44H483a10.54,10.54,0,0,1,10,7.44l29.87,99.53a11.71,11.71,0,0,1,.66,3.63,10.44,10.44,0,0,1-10.49,10.4ZM366.9,656.74H499.07l-23.76-79.2H390.76Z"/><path class="cls-1" d="M563.2,677.55H302.87a10.41,10.41,0,0,1,0-20.81H563.2a10.41,10.41,0,0,1,0,20.81Z"/><path class="cls-1" d="M282.83,507.4h-70a10.4,10.4,0,0,1,0-20.8h70a10.4,10.4,0,1,1,0,20.8Z"/><path class="cls-1" d="M663.3,507.4H342.85a10.4,10.4,0,0,1,0-20.8H663.2A10.43,10.43,0,0,1,673.61,497,10.3,10.3,0,0,1,663.3,507.4Z"/><path class="cls-1" d="M638.58,577.44H237.5a35.14,35.14,0,0,1-35.11-35.11v-291a35.15,35.15,0,0,1,35.11-35.12H638.58a35.15,35.15,0,0,1,35.12,35.12v291A35.14,35.14,0,0,1,638.58,577.44ZM237.5,237.06a14.25,14.25,0,0,0-14.22,14.21V542.33a14.26,14.26,0,0,0,14.22,14.22H638.58a14.26,14.26,0,0,0,14.22-14.22v-291a14.25,14.25,0,0,0-14.22-14.22Z"/><path class="cls-1" d="M437,437.55a10.43,10.43,0,0,1-10.41-10.4V361.68a10.41,10.41,0,0,1,20.81,0v65.47A10.43,10.43,0,0,1,437,437.55Z"/><path class="cls-1" d="M437,471.71a10.47,10.47,0,0,1-7.35-3,10.66,10.66,0,0,1-3.06-7.35A10.48,10.48,0,0,1,429.6,454a10.64,10.64,0,0,1,7.35-3,10.4,10.4,0,0,1,0,20.8Z"/><path class="cls-1" d="M661.39,291.45H515.2a10.4,10.4,0,1,1,0-20.8H661.3a10.42,10.42,0,0,1,10.4,10.4A10.29,10.29,0,0,1,661.39,291.45Z"/><path class="cls-1" d="M358.7,291.45H212.5a10.4,10.4,0,1,1,0-20.8H358.7a10.4,10.4,0,1,1,0,20.8Z"/><path class="cls-1" d="M327.3,333.15H254.2a10.4,10.4,0,0,1,0-20.8h73.1a10.42,10.42,0,0,1,10.4,10.4A10.3,10.3,0,0,1,327.3,333.15Z"/><path class="cls-1" d="M306.5,375H254.3a10.41,10.41,0,0,1,0-20.81h52.2a10.41,10.41,0,0,1,0,20.81Z"/><path class="cls-1" d="M285.6,416.65H254.3a10.4,10.4,0,0,1,0-20.8h31.3a10.4,10.4,0,0,1,0,20.8Z"/><path class="cls-1" d="M619.59,333.15H546.5a10.4,10.4,0,1,1,0-20.8h73.09a10.4,10.4,0,1,1,0,20.8Z"/><path class="cls-1" d="M619.59,375h-52.2a10.41,10.41,0,0,1,0-20.81h52.2a10.41,10.41,0,1,1,0,20.81Z"/><path class="cls-1" d="M619.59,416.65h-31.3a10.4,10.4,0,0,1,0-20.8h31.3a10.4,10.4,0,1,1,0,20.8Z"/><path class="cls-1" d="M443.43,527.92a11,11,0,1,1-11-11,11,11,0,0,1,11,11"/></g></g></svg>