<svg xmlns="http://www.w3.org/2000/svg" viewBox="0 0 875.8 875.8"><defs><style>.cls-1{fill:#4858e8;}</style></defs><g id="Layer_2" data-name="Layer 2"><g id="Layer_1-2" data-name="Layer 1"><path class="cls-1" d="M437.9,875.8A438,438,0,0,1,267.45,34.42a438,438,0,0,1,340.9,807A435.1,435.1,0,0,1,437.9,875.8Zm0-849.8C210.78,26,26,210.78,26,437.9S210.78,849.8,437.9,849.8,849.8,665,849.8,437.9,665,26,437.9,26Z"/><path class="cls-1" d="M741.9,307.72A122.35,122.35,0,0,0,619.68,185.51H323l-86.25,86.25V690.68h391.1V429.53c63.6-4.22,114.07-57.17,114.07-121.8ZM416,332.17H383.39V299.58h-16.3V267H416Zm-48.89-16.3v16.3H350.8v65.18H318.2V315.87Zm0,32.59h65.19v48.89H367.09Zm65.19-16.29V250.69H350.8v48.89H301.91v97.77H285.62V283.29h48.89V234.4H464.87v163h-16.3V332.17ZM264.54,267l53.66-53.67V267ZM253,674.38V283.28h16.3V413.65H481.17V218.1H334.5V201.81H559a122.18,122.18,0,0,0-61.5,105.92c0,64.64,50.47,117.58,114.07,121.8V674.39ZM619.68,413.65A105.93,105.93,0,1,1,725.6,307.72,106,106,0,0,1,619.68,413.65Z"/><path class="cls-1" d="M619.68,218.1a89.63,89.63,0,1,0,89.63,89.63A89.73,89.73,0,0,0,619.68,218.1Zm72.85,97.78a73,73,0,0,1-15.61,37.57L665.78,342.3l-11.53,11.52L665.4,365a73,73,0,0,1-37.57,15.61V364.77h-16.3v15.81A73,73,0,0,1,574,365l11.15-11.15L573.59,342.3l-11.15,11.15a73,73,0,0,1-15.61-37.57h15.82v-16.3H546.83A73,73,0,0,1,562.44,262l11.15,11.14,11.52-11.52L574,250.49a73,73,0,0,1,37.57-15.61v15.81h16.29V234.88a73,73,0,0,1,37.57,15.61l-11.15,11.15,11.53,11.52L676.92,262a73,73,0,0,1,15.61,37.57H676.72v16.3Z"/><path class="cls-1" d="M611.53,299.58h-16.3v16.29h32.59V267H611.53Z"/><path class="cls-1" d="M383.39,364.76H416v16.3H383.39Z"/><path class="cls-1" d="M399.68,658.09H595.23V462.54H399.68ZM416,478.83H578.93v163H416Z"/><path class="cls-1" d="M546.35,552.16H528.9a32,32,0,0,0-3.47-8.3l18.12-18.12L532,514.22l-18.12,18.12a32.53,32.53,0,0,0-8.3-3.47V511.42h16.3v-16.3H473v16.3h16.3v17.45a31.69,31.69,0,0,0-8.3,3.47L462.9,514.22l-11.53,11.52,18.12,18.12a33.18,33.18,0,0,0-3.46,8.3H448.58v-16.3h-16.3v48.89h16.3V568.46H466a32,32,0,0,0,3.46,8.3l-18.12,18.12L462.9,606.4,481,588.28a32.16,32.16,0,0,0,8.3,3.46v17.45H473v16.3h48.89v-16.3h-16.3V591.74a31.67,31.67,0,0,0,8.3-3.46L532,606.4l11.52-11.53-18.12-18.12a32.53,32.53,0,0,0,3.47-8.3h17.45v16.29h16.3V535.86h-16.3ZM497.46,576.6a16.3,16.3,0,1,1,16.3-16.29A16.31,16.31,0,0,1,497.46,576.6Z"/><path class="cls-1" d="M269.32,658.09H383.39V592.9H269.32Zm16.3-48.89H367.1v32.59H285.62Z"/><path class="cls-1" d="M269.32,560.31h16.3v16.3h-16.3Z"/><path class="cls-1" d="M301.91,560.31h81.48v16.3H301.91Z"/><path class="cls-1" d="M269.32,527.72H383.39V544H269.32Z"/><path class="cls-1" d="M269.32,495.13H383.39v16.3H269.32Z"/><path class="cls-1" d="M269.32,462.54H383.39v16.3H269.32Z"/></g></g></svg>