<svg viewBox="0 0 64 64" fill="none" xmlns="http://www.w3.org/2000/svg">
<path d="M48.3334 32C48.3334 41.0207 41.0207 48.3333 32 48.3333C22.9794 48.3333 15.6667 41.0207 15.6667 32C15.6667 22.9794 22.9794 15.6667 32 15.6667C41.0207 15.6667 48.3334 22.9794 48.3334 32ZM25.4206 32C25.4206 35.6337 28.3663 38.5794 32 38.5794C35.6337 38.5794 38.5794 35.6337 38.5794 32C38.5794 28.3663 35.6337 25.4206 32 25.4206C28.3663 25.4206 25.4206 28.3663 25.4206 32Z" />
<path fill-rule="evenodd" clip-rule="evenodd" d="M32 57.6667C46.1753 57.6667 57.6667 46.1753 57.6667 32C57.6667 17.8247 46.1753 6.33333 32 6.33333C17.8247 6.33333 6.33333 17.8247 6.33333 32C6.33333 46.1753 17.8247 57.6667 32 57.6667ZM32 60C47.464 60 60 47.464 60 32C60 16.536 47.464 4 32 4C16.536 4 4 16.536 4 32C4 47.464 16.536 60 32 60Z" />
</svg>
