<svg viewBox="0 0 64 64" fill="none" xmlns="http://www.w3.org/2000/svg">
<path d="M60 14.4564C57.9406 15.3785 55.7284 16.0015 53.4026 16.2831C55.8023 14.8322 57.5977 12.5487 58.4536 9.85857C56.199 11.2117 53.7315 12.1642 51.1583 12.6746C49.4279 10.8077 47.1359 9.5703 44.6382 9.15449C42.1404 8.73868 39.5767 9.16774 37.3451 10.3751C35.1134 11.5824 33.3387 13.5004 32.2963 15.8313C31.254 18.1623 31.0025 20.7757 31.5807 23.2659C27.0124 23.0341 22.5433 21.8343 18.4635 19.7444C14.3837 17.6544 10.7844 14.721 7.89923 11.1345C6.91271 12.854 6.34546 14.8477 6.34546 16.9709C6.34436 18.8824 6.81019 20.7645 7.70163 22.4503C8.59307 24.1362 9.88254 25.5737 11.4557 26.6352C9.63126 26.5765 7.84713 26.0784 6.25174 25.1823V25.3318C6.25156 28.0127 7.16929 30.611 8.84921 32.6859C10.5291 34.7609 12.8678 36.1847 15.4683 36.7156C13.7759 37.1785 12.0015 37.2466 10.2792 36.915C11.0129 39.2217 12.4422 41.2388 14.3668 42.684C16.2914 44.1291 18.6151 44.93 21.0126 44.9744C16.9428 48.2026 11.9166 49.9538 6.74254 49.9461C5.82601 49.9463 4.91026 49.8922 4 49.7841C9.25195 53.1962 15.3656 55.007 21.6094 55C42.7457 55 54.3004 37.3112 54.3004 21.97C54.3004 21.4716 54.288 20.9682 54.2658 20.4698C56.5134 18.8275 58.4534 16.7937 59.9951 14.4639L60 14.4564V14.4564Z" />
</svg>
