<svg xmlns="http://www.w3.org/2000/svg" viewBox="0 0 875.8 875.8"><defs><style>.cls-1{fill:#4858e8;}</style></defs><g id="Layer_2" data-name="Layer 2"><g id="Layer_1-2" data-name="Layer 1"><path class="cls-1" d="M437.9,875.8A438,438,0,0,1,267.45,34.42a438,438,0,0,1,340.9,807A435.1,435.1,0,0,1,437.9,875.8Zm0-849.8C210.78,26,26,210.78,26,437.9S210.78,849.8,437.9,849.8,849.8,665,849.8,437.9,665,26,437.9,26Z"/><path class="cls-1" d="M730,338.84l-35.52-14.4-.07-42a9.74,9.74,0,0,0-9.73-9.71h0a9.72,9.72,0,0,0-9.71,9.74l.07,42.84-28.35,15.93-.05-31.37a9.73,9.73,0,0,0-9.73-9.71h0a9.73,9.73,0,0,0-9.71,9.74l.07,42.26-23.39,13.15a140.59,140.59,0,0,0-20-24V251a62.31,62.31,0,0,0-62.23-62.26H300A62.32,62.32,0,0,0,237.72,251V624.86A62.31,62.31,0,0,0,300,687.09H521.6a62.3,62.3,0,0,0,62.23-62.23V543.14a139.2,139.2,0,0,0,29.51-160.85L637.07,369l37.8,15.36a9.73,9.73,0,0,0,7.32-18l-23.44-9.53,26.7-15,37.24,15.09a9.65,9.65,0,0,0,3.65.72A9.72,9.72,0,0,0,730,338.84ZM490.26,582.32h.36c1.05,0,2.07-.08,3.1-.14h.58c1.06-.06,2.1-.11,3.16-.2l.32,0h.14l2.9-.25.54-.06h.13c1-.09,1.91-.2,2.83-.33h.05l.57-.06,3-.41.62-.12c.67-.1,1.37-.21,2-.33l1.08-.18.27,0,3-.58.33-.07.13,0c.76-.13,1.5-.3,2.22-.46l.62-.15.15,0,.46-.11.14,0,1.06-.26c.55-.13,1.09-.25,1.68-.41l.47-.12c1-.25,1.87-.49,2.91-.8l.41-.12c.88-.24,1.76-.5,2.63-.76l.65-.22c.88-.26,1.75-.55,2.61-.84l.12,0,.49-.15.25-.09,3.12-1.13c.82-.3,1.67-.61,2.49-.94l.83-.33.24-.11.88-.35c.44-.16.88-.34,1.3-.52l.16-.08,3.38-1.49.36-.16c.76-.34,1.52-.7,2.21-1l.12-.06c.26-.11.51-.23.79-.37l.16-.08c.58-.29,1.17-.58,1.72-.87.37-.17.72-.35,1.09-.55.67-.34,1.36-.69,2-1l.17-.11c.15-.08.3-.15.43-.23l.56-.3.9-.5.73-.41.14-.08,1.28-.75c.63-.35,1.21-.7,1.77-1.05l.39-.23.63-.38c.58-.35,1.16-.73,1.76-1.12l.65-.41.07,0c.21-.11.39-.24.59-.37l.55-.36.66-.42v52.69l-307.18,0V270.94h307.2v54.52l-.66-.43c-.18-.11-.37-.23-.55-.36l-.52-.33-.14-.09c-.21-.14-.43-.28-.65-.4-.58-.38-1.17-.77-1.76-1.12l-.63-.38-.39-.24c-.55-.34-1.13-.68-1.76-1-.43-.26-.86-.52-1.3-.76l-.13-.08-.72-.41-1-.55-.49-.25-.43-.24-.16-.08c-.66-.36-1.35-.73-2-1.07-.37-.19-.72-.37-1.09-.54-.6-.32-1.24-.63-1.88-.95-.26-.13-.53-.26-.79-.37l-.06,0c-.76-.38-1.52-.72-2.28-1.07l-.35-.16L541.26,313l-.19-.09-1.28-.52c-.3-.12-.6-.23-.89-.36l-.3-.12,0,0c-.26-.12-.54-.23-.82-.33l-2.41-.91-.47-.17-2.72-1-.26-.09-.51-.17-.09,0c-.88-.29-1.76-.59-2.67-.85l-.52-.15c-.89-.3-1.8-.57-2.71-.82l-.5-.15c-1-.27-1.86-.52-2.76-.75l-.58-.15L520,306l-1.06-.25-.13,0-.47-.11-.14,0-2.74-.58-.23-.05-.34-.08-2.95-.58-.27,0-1.08-.19c-.69-.11-1.37-.23-2.05-.32a6.17,6.17,0,0,0-.62-.11l-3-.42a5.9,5.9,0,0,0-.59-.06h0q-1.38-.19-2.82-.33h-.13l-.54-.07-2.9-.24h-.14l-.34,0c-1.05-.09-2.09-.14-3.15-.21h-.59c-1-.06-2-.11-3.1-.13h-.36c-1.11,0-2.26,0-3.4,0-77.26,0-140.12,62.86-140.12,140.12s62.86,140.13,140.12,140.13c1.15,0,2.29,0,3.41,0ZM300,208.17H521.6A42.85,42.85,0,0,1,564.38,251v.51H257.17V251A42.84,42.84,0,0,1,300,208.17ZM521.6,667.64H300a42.82,42.82,0,0,1-42.27-36.51H563.87a42.83,42.83,0,0,1-42.28,36.51Zm85.93-225.42a120.42,120.42,0,0,1-42.76,92c-.86.73-1.73,1.44-2.61,2.14-2.1,1.69-4.27,3.31-6.49,4.86-.92.64-1.85,1.27-2.78,1.88q-3.33,2.19-6.81,4.15c-1.05.59-2.1,1.19-3.18,1.75-2.24,1.18-4.53,2.26-6.84,3.3-1.23.55-2.46,1.11-3.72,1.63-2.2.9-4.47,1.69-6.74,2.47-1.4.47-2.8,1-4.23,1.4-2.22.67-4.5,1.21-6.78,1.75-1.49.35-3,.75-4.48,1.05-2.44.48-4.92.81-7.42,1.14-1.36.18-2.71.43-4.08.56-3.87.38-7.78.6-11.74.6a120.68,120.68,0,1,1,0-241.35c4,0,7.88.22,11.74.59,1.37.13,2.71.38,4.08.57,2.49.32,5,.66,7.44,1.13,1.5.3,3,.7,4.46,1.05,2.29.54,4.57,1.08,6.8,1.75,1.42.43,2.81.93,4.21,1.4,2.27.77,4.55,1.57,6.76,2.48,1.24.5,2.46,1.07,3.69,1.61,2.33,1.05,4.63,2.13,6.87,3.31,1.06.56,2.11,1.15,3.15,1.74,2.33,1.32,4.63,2.7,6.86,4.17.92.6,1.81,1.21,2.72,1.84q3.36,2.35,6.56,4.92c.85.68,1.7,1.37,2.53,2.08a121.49,121.49,0,0,1,22.18,24.64l-31.58,17.75A83.26,83.26,0,1,0,565,409.49l31.41-17.65a119.93,119.93,0,0,1,11.15,50.37ZM496.79,425.48a19.32,19.32,0,0,0-9.93-2.8,19.54,19.54,0,1,0,19.52,19.72l41.42-23.28a65.39,65.39,0,1,1-9.54-16.95Z"/></g></g></svg>