<svg width="62" height="67" viewBox="0 0 62 67" fill="none" xmlns="http://www.w3.org/2000/svg">
<path d="M61.7914 24.9094C61.7899 24.8131 61.7652 24.7185 61.7195 24.6336V24.6336L53.7968 10.9215C53.744 10.832 53.6687 10.7578 53.5783 10.7064C53.488 10.6549 53.3858 10.6279 53.2819 10.6281H37.4556C37.3603 10.6285 37.2669 10.6543 37.1849 10.7028C37.1029 10.7513 37.0353 10.8207 36.989 10.9039V10.9039L29.0839 24.5911C29.032 24.6825 29.0046 24.7859 29.0046 24.8911C29.0046 24.9963 29.032 25.0997 29.0839 25.1911L36.989 38.8798C37.0402 38.9638 37.1122 39.0332 37.198 39.0812C37.2839 39.1293 37.3807 39.1544 37.479 39.1541H53.2877C53.3917 39.1543 53.4939 39.1273 53.5842 39.0758C53.6745 39.0244 53.7498 38.9502 53.8027 38.8607L61.7122 25.1603C61.7573 25.0838 61.7844 24.998 61.7914 24.9094V24.9094ZM60.1497 24.3108H45.7715L38.5823 11.8194H52.9532L60.1497 24.3108ZM37.4922 12.418L44.6814 24.9094L37.4922 37.4009L30.3031 24.9094L37.4922 12.418ZM52.9415 37.9878H38.5633L45.7524 25.4963H60.1233L52.9415 37.9878Z" fill="#10B981"/>
<path d="M25.0728 12.6704L19.8746 4.9575C19.7279 4.71835 19.5635 4.50268 19.408 4.27527L19.1924 3.95102C17.5423 1.81653 15.1119 0.424929 12.4358 0.0823714C9.75976 -0.260186 7.0572 0.474354 4.9227 2.1244C2.7882 3.77445 1.39661 6.20484 1.05405 8.88092C0.711493 11.557 1.44603 14.2596 3.09608 16.3941L7.81449 23.413C8.03559 23.7911 8.28062 24.1547 8.54807 24.5016L8.6449 24.6483C10.2961 26.6462 12.6479 27.938 15.2197 28.2598C17.7915 28.5816 20.3892 27.9091 22.4817 26.3797C24.5743 24.8503 26.0037 22.5795 26.4779 20.0314C26.9522 17.4832 26.4354 14.8502 25.0331 12.6704H25.0728ZM4.19939 15.8673L4.1275 15.772L3.72109 15.1602C3.69295 15.1244 3.66042 15.0924 3.62426 15.0648C2.31045 13.1309 1.80361 10.7604 2.21169 8.45833C2.61977 6.15624 3.91052 4.10444 5.80903 2.73995C7.70753 1.37546 10.0638 0.806108 12.3758 1.15317C14.6879 1.50024 16.7731 2.73628 18.1873 4.59804V4.59804L21.3858 9.31645C19.8359 8.49089 18.0987 8.08081 16.3432 8.12615C14.5878 8.17149 12.874 8.6707 11.3688 9.57517C9.86367 10.4796 8.6184 11.7585 7.75433 13.2872C6.89027 14.816 6.43687 16.5424 6.43828 18.2984V19.2682L4.19939 15.8673ZM16.6175 27.2892C15.26 27.2919 13.9196 26.9862 12.6976 26.395C11.4755 25.8038 10.4038 24.9426 9.56335 23.8766L8.80922 22.6794C7.8408 20.9627 7.46475 18.9748 7.7392 17.023C8.01366 15.0712 8.92333 13.2641 10.3276 11.881C11.7319 10.4979 13.5527 9.61587 15.5084 9.37117C17.4642 9.12647 19.4461 9.53275 21.1479 10.5272C22.8496 11.5217 24.1765 13.0489 24.9234 14.873C25.6702 16.697 25.7956 18.7162 25.2799 20.6186C24.7643 22.521 23.6365 24.2006 22.0707 25.3979C20.505 26.5951 18.5885 27.2433 16.6175 27.2423V27.2892Z" fill="#10B981"/>
<path d="M45.3123 66.1427L32.3425 43.6951L24.546 30.0064C24.4928 29.9172 24.4174 29.8433 24.3272 29.7919C24.2369 29.7405 24.1349 29.7133 24.031 29.713V29.713C23.9271 29.7132 23.825 29.7403 23.7348 29.7917C23.6445 29.8431 23.5691 29.9171 23.516 30.0064L10.4979 52.4541C10.4964 52.4741 10.4964 52.4942 10.4979 52.5142C10.4949 52.5499 10.4949 52.5857 10.4979 52.6213C10.4861 52.6967 10.4861 52.7734 10.4979 52.8487C10.4935 52.8887 10.4935 52.9291 10.4979 52.969C10.4964 52.993 10.4964 53.017 10.4979 53.0409L18.2944 66.7296C18.3568 66.8251 18.4452 66.9007 18.5492 66.9475C18.6532 66.9943 18.7684 67.0103 18.8813 66.9937H44.7855C44.8902 66.9924 44.9927 66.9637 45.0829 66.9107C45.1731 66.8576 45.2479 66.7819 45.2999 66.6911C45.3519 66.6003 45.3793 66.4974 45.3794 66.3928C45.3796 66.2881 45.3523 66.1852 45.3005 66.0943L45.3123 66.1427ZM24.0193 31.4956L31.1321 43.9753L18.8813 65.2331L11.6922 52.7534L24.0193 31.4956ZM19.8863 65.795L31.8627 45.1373L43.7556 65.795H19.8863Z" fill="#10B981"/>
</svg>
