<svg width="84" height="67" viewBox="0 0 84 67" fill="none" xmlns="http://www.w3.org/2000/svg">
<path d="M60.8575 33.7588C58.2433 33.7588 55.6878 32.9836 53.5142 31.5312C51.3406 30.0789 49.6464 28.0146 48.646 25.5994C47.6456 23.1842 47.3839 20.5265 47.8939 17.9626C48.4039 15.3986 49.6627 13.0435 51.5112 11.195C53.3598 9.34645 55.7149 8.08759 58.2789 7.57759C60.8428 7.06758 63.5005 7.32934 65.9157 8.32974C68.3309 9.33015 70.3952 11.0243 71.8475 13.1979C73.2999 15.3715 74.0751 17.927 74.0751 20.5412C74.0712 24.0455 72.6774 27.4052 70.1994 29.8832C67.7215 32.3611 64.3618 33.7549 60.8575 33.7588V33.7588ZM60.8575 9.53453C58.6806 9.53453 56.5526 10.1801 54.7425 11.3895C52.9325 12.5989 51.5217 14.3179 50.6886 16.3291C49.8556 18.3403 49.6376 20.5534 50.0623 22.6885C50.487 24.8236 51.5353 26.7848 53.0746 28.3241C54.6139 29.8634 56.5751 30.9117 58.7102 31.3364C60.8453 31.7611 63.0584 31.5431 65.0696 30.7101C67.0808 29.877 68.7998 28.4662 70.0092 26.6562C71.2186 24.8462 71.8642 22.7181 71.8642 20.5412C71.8608 17.6231 70.7 14.8255 68.6366 12.7621C66.5732 10.6987 63.7756 9.53794 60.8575 9.53453Z" fill="#10B981"/>
<path d="M60.8757 60.5164H60.2198L58.7458 60.498L59.1788 59.0867C59.5844 57.7536 59.7899 56.3678 59.7886 54.9744C59.7753 49.2931 57.9112 43.7709 54.4788 39.2437L52.4023 36.5151L55.6819 37.5173C58.241 38.3074 60.9464 38.5049 63.5932 38.0951C66.24 37.6852 68.7589 36.6787 70.9593 35.1517L71.372 34.8661L71.8602 34.9895C74.8117 35.7442 77.4393 37.4345 79.3497 39.8075C81.8292 42.8911 83.1824 46.7284 83.1857 50.6852C83.1912 52.3053 82.6758 53.8843 81.7153 55.1891C80.7549 56.4939 79.4004 57.4553 77.8518 57.9315C72.3553 59.6421 66.6322 60.5135 60.8757 60.5164V60.5164ZM57.8523 40.2773C60.5486 44.7049 61.9804 49.7867 61.9922 54.9707C61.9929 56.0892 61.8787 57.2048 61.6513 58.3C66.9252 58.224 72.1609 57.3907 77.1978 55.8256C78.2955 55.4891 79.2556 54.8079 79.9359 53.8831C80.6162 52.9582 80.9804 51.8388 80.9748 50.6907C80.9715 47.2368 79.7907 43.8872 77.6271 41.1948C76.1201 39.3244 74.0819 37.9543 71.781 37.2649C67.6725 39.9621 62.7081 41.0358 57.8523 40.2773Z" fill="#10B981"/>
<path d="M27.6237 34.6009C24.202 34.6009 20.8571 33.5862 18.0121 31.6852C15.167 29.7842 12.9496 27.0823 11.6402 23.921C10.3307 20.7598 9.98813 17.2812 10.6557 13.9253C11.3232 10.5693 12.9709 7.48669 15.3904 5.06718C17.8099 2.64768 20.8926 0.999971 24.2485 0.332431C27.6045 -0.33511 31.083 0.00749605 34.2443 1.31692C37.4055 2.62635 40.1075 4.84379 42.0084 7.68883C43.9094 10.5339 44.9241 13.8787 44.9241 17.3004C44.9192 21.8873 43.0949 26.2849 39.8515 29.5283C36.6081 32.7717 32.2105 34.596 27.6237 34.6009V34.6009ZM27.6237 2.21092C24.6392 2.21092 21.7218 3.09591 19.2404 4.75396C16.7589 6.41202 14.8249 8.76868 13.6828 11.5259C12.5407 14.2832 12.2419 17.3172 12.8241 20.2442C13.4063 23.1713 14.8435 25.86 16.9538 27.9703C19.0641 30.0806 21.7528 31.5178 24.6799 32.1C27.6069 32.6822 30.6409 32.3834 33.3982 31.2413C36.1554 30.0992 38.5121 28.1652 40.1701 25.6837C41.8282 23.2023 42.7132 20.2849 42.7132 17.3004C42.7083 13.2999 41.117 9.4647 38.2882 6.63592C35.4594 3.80715 31.6242 2.2158 27.6237 2.21092V2.21092Z" fill="#10B981"/>
<path d="M27.6365 67C20.4629 66.9973 13.3307 65.914 6.47985 63.7868C4.60009 63.207 2.95605 62.0391 1.78959 60.4551C0.623134 58.8711 -0.00414964 56.9545 2.06597e-05 54.9874C0.00686714 50.1036 1.67545 45.3675 4.73138 41.5579C7.28573 38.3866 10.8718 36.2122 14.8648 35.4134L15.3069 35.325L15.6754 35.5737C19.2255 37.8989 23.377 39.1375 27.6208 39.1375C31.8646 39.1375 36.0161 37.8989 39.5662 35.5737L39.9347 35.325L40.3787 35.4134C44.374 36.2062 47.962 38.3818 50.5121 41.5579C53.568 45.3675 55.2366 50.1036 55.2435 54.9874C55.2506 56.9522 54.6269 58.8673 53.464 60.4511C52.3012 62.0348 50.6607 63.2034 48.7839 63.785C41.9359 65.9114 34.807 66.9952 27.6365 67V67ZM14.8592 37.6741C11.5442 38.4391 8.58227 40.2954 6.44853 42.9452C3.70984 46.3618 2.21538 50.6086 2.21094 54.9874C2.20806 56.4827 2.68514 57.9394 3.572 59.1434C4.45885 60.3473 5.70867 61.2348 7.1376 61.6754C20.4866 65.8291 34.7826 65.8291 48.1317 61.6754C49.5574 61.2329 50.8036 60.3445 51.6868 59.1409C52.57 57.9373 53.0436 56.4821 53.0381 54.9892C53.0333 50.61 51.5389 46.3626 48.8005 42.9452C46.6719 40.2938 43.7112 38.4379 40.3972 37.6777C36.571 40.0794 32.1451 41.353 27.6277 41.3524C23.1102 41.3517 18.6846 40.0768 14.8592 37.6741V37.6741Z" fill="#10B981"/>
</svg>
