<svg width="83" height="67" viewBox="0 0 83 67" fill="none" xmlns="http://www.w3.org/2000/svg">
<path d="M26.7099 51.5854C26.7592 51.8524 26.9126 52.0887 27.1362 52.2426C27.3598 52.3965 27.6354 52.4552 27.9023 52.4058C28.1693 52.3565 28.4057 52.2031 28.5595 51.9795C28.7134 51.7559 28.7721 51.4803 28.7227 51.2134L25.3611 32.6844V32.6509C24.23 27.4104 26.8494 22.6814 32.2313 20.1569C33.3505 21.353 34.7033 22.3066 36.2061 22.9585C37.7088 23.6104 39.3294 23.9468 40.9675 23.9468C42.6055 23.9468 44.2261 23.6104 45.7289 22.9585C47.2316 22.3066 48.5845 21.353 49.7036 20.1569C55.0781 22.6795 57.7031 27.4122 56.5757 32.6509C56.5748 32.6621 56.5748 32.6733 56.5757 32.6844L55.5748 38.1985L53.2141 51.2208C53.1647 51.488 53.2235 51.7638 53.3776 51.9876C53.5316 52.2114 53.7682 52.3649 54.0354 52.4142C54.3026 52.4635 54.5784 52.4047 54.8022 52.2507C55.026 52.0967 55.1795 51.86 55.2288 51.5929C56.0139 47.2521 56.8008 42.9113 57.5896 38.5705L58.5867 33.0732C59.8703 27.0811 56.9124 21.4889 51.0021 18.5161C52.1809 16.7096 52.8498 14.6181 52.938 12.4628C53.0262 10.3075 52.5306 8.16839 51.5033 6.27156C50.4761 4.37472 48.9556 2.79063 47.1023 1.68669C45.2491 0.582762 43.132 0 40.9749 0C38.8178 0 36.7007 0.582762 34.8475 1.68669C32.9943 2.79063 31.4737 4.37472 30.4465 6.27156C29.4193 8.16839 28.9236 10.3075 29.0118 12.4628C29.1 14.6181 29.7689 16.7096 30.9477 18.5161C25.0374 21.4926 22.0795 27.0736 23.3631 33.0714L26.7099 51.5854ZM40.9619 2.05214C42.8393 2.0518 44.6784 2.58398 46.2655 3.5869C47.8526 4.58982 49.1227 6.02234 49.9283 7.71814C50.734 9.41394 51.0421 11.3035 50.8169 13.1674C50.5918 15.0313 49.8425 16.7931 48.6562 18.2482L48.6209 18.291C47.69 19.4221 46.5202 20.333 45.1955 20.9585C43.8708 21.5839 42.424 21.9082 40.9591 21.9082C39.4942 21.9082 38.0474 21.5839 36.7227 20.9585C35.398 20.333 34.2282 19.4221 33.2973 18.291C33.2881 18.2809 33.2794 18.2704 33.2713 18.2594C32.0818 16.8046 31.3298 15.0421 31.1026 13.1768C30.8755 11.3114 31.1825 9.4199 31.9881 7.72221C32.7937 6.02452 34.0647 4.59041 35.6533 3.58666C37.2419 2.58292 39.0828 2.05078 40.9619 2.05214V2.05214Z" fill="#10B981"/>
<path d="M76.5371 26.0616C78.3786 24.2815 79.4689 21.8639 79.5839 19.3052C79.699 16.7465 78.8303 14.2408 77.156 12.3026C75.4817 10.3643 73.1289 9.14046 70.5807 8.88235C68.0324 8.62424 65.4821 9.35142 63.4531 10.9146C61.4242 12.4778 60.0706 14.7584 59.6703 17.2882C59.27 19.818 59.8533 22.405 61.3004 24.5183C62.7476 26.6315 64.9489 28.1106 67.4523 28.6519C69.9557 29.1932 72.5714 28.7556 74.7623 27.429C78.9109 29.5088 80.9238 33.2872 80.0401 37.3985C80.0392 37.4096 80.0392 37.4208 80.0401 37.432L78.8439 44.0232C78.3168 46.929 77.791 49.8293 77.2663 52.7239C76.0609 58.8389 72.8685 59.1365 67.3284 59.1365C63.7287 59.1365 61.2414 59.0137 59.5411 57.3785C59.4605 57.3022 59.3681 57.2394 59.2676 57.1925L59.1634 57.1441C59.0072 57.0701 58.8348 57.037 58.6623 57.0478C58.4897 57.0586 58.3228 57.1131 58.177 57.206C58.0313 57.299 57.9115 57.4274 57.829 57.5792C57.7464 57.7311 57.7037 57.9014 57.7049 58.0743C57.703 59.8443 56.9984 61.5411 55.7462 62.7919C54.4939 64.0428 52.7963 64.7454 51.0263 64.7454H31.1617C29.407 64.7436 27.7236 64.0514 26.4753 62.8184C25.2269 61.5853 24.514 59.9106 24.4905 58.1561C24.4914 58.1388 24.4914 58.1214 24.4905 58.104V58.0482C24.4847 57.7806 24.3744 57.5258 24.1832 57.3384C23.992 57.1511 23.735 57.0459 23.4673 57.0455H23.458C23.2856 57.0472 23.1164 57.0924 22.9662 57.177C22.8159 57.2615 22.6894 57.3827 22.5985 57.5292C20.9056 59.0175 18.4612 59.1384 14.9712 59.1384C9.43295 59.1384 6.24061 58.8407 5.03511 52.7407C4.15951 47.9038 3.28268 43.0713 2.4046 38.2431L2.25763 37.4338V37.4022C1.40188 33.4509 3.16176 29.8734 6.97358 27.7248C9.09208 29.2058 11.6979 29.818 14.2543 29.4354C16.8106 29.0527 19.1229 27.7043 20.7149 25.6678C22.3069 23.6314 23.0573 21.062 22.8115 18.4888C22.5658 15.9156 21.3427 13.5347 19.394 11.8363C17.4454 10.138 14.9197 9.25158 12.3371 9.35968C9.75448 9.46778 7.31166 10.5622 5.51178 12.4174C3.71189 14.2726 2.69199 16.7475 2.66215 19.3322C2.63231 21.9169 3.59479 24.4146 5.35137 26.3109C1.21026 28.9377 -0.730066 33.2332 0.25033 37.8171L0.393576 38.6096C1.26917 43.4464 2.14725 48.2833 3.02781 53.1202C4.6184 61.1829 9.88129 61.1829 14.973 61.1829C17.6575 61.1829 20.4164 61.1829 22.6525 59.9681C23.0876 61.9014 24.1666 63.6296 25.7126 64.8694C27.2586 66.1092 29.1799 66.787 31.1617 66.7918H51.0263C53.0166 66.7893 54.9464 66.107 56.4959 64.8579C58.0455 63.6088 59.1218 61.8679 59.5467 59.9234C61.7995 61.1903 64.5993 61.1903 67.321 61.1903C72.4127 61.1903 77.6775 61.1903 79.2699 53.1109C79.797 50.2063 80.3241 47.3017 80.8512 44.3971L82.04 37.8171C83.0669 33.0379 80.974 28.6549 76.5371 26.0616ZM61.5391 18.8063C61.5391 17.2194 62.0097 15.6681 62.8913 14.3486C63.7729 13.0291 65.0261 12.0007 66.4922 11.3934C67.9583 10.7861 69.5716 10.6273 71.128 10.9368C72.6845 11.2464 74.1141 12.0106 75.2363 13.1327C76.3584 14.2549 77.1226 15.6845 77.4322 17.241C77.7417 18.7974 77.5829 20.4107 76.9756 21.8768C76.3683 23.3429 75.3399 24.5961 74.0204 25.4777C72.7009 26.3594 71.1496 26.8299 69.5627 26.8299C67.4358 26.8275 65.3967 25.9816 63.8925 24.4778C62.3884 22.974 61.542 20.9351 61.5391 18.8082V18.8063ZM12.7295 11.4505C14.316 11.4505 15.8669 11.921 17.1861 12.8024C18.5053 13.6839 19.5335 14.9367 20.1406 16.4025C20.7478 17.8683 20.9066 19.4812 20.5971 21.0373C20.2876 22.5933 19.5236 24.0227 18.4017 25.1445C17.2798 26.2664 15.8505 27.0304 14.2944 27.3399C12.7384 27.6495 11.1254 27.4906 9.65966 26.8834C8.19388 26.2763 6.94105 25.2481 6.05961 23.929C5.17816 22.6098 4.70769 21.0589 4.70769 19.4723C4.71016 17.3456 5.55609 15.3066 7.05993 13.8028C8.56377 12.2989 10.6027 11.453 12.7295 11.4505V11.4505Z" fill="#10B981"/>
</svg>
