<svg width="77" height="67" viewBox="0 0 77 67" fill="none" xmlns="http://www.w3.org/2000/svg">
<path d="M16.1854 67C16.0443 67.0017 15.9049 66.9701 15.7784 66.9077C15.6519 66.8454 15.5418 66.7541 15.4572 66.6413L0.186363 46.5784C0.108041 46.4754 0.0524953 46.3568 0.023399 46.2307C-0.00569733 46.1045 -0.00768144 45.9736 0.0175779 45.8467C0.0428372 45.7197 0.0947644 45.5995 0.169926 45.4941C0.245087 45.3887 0.34177 45.3004 0.45358 45.2352L8.45397 40.558C8.66401 40.4352 8.91419 40.4008 9.14956 40.4624C9.38494 40.5239 9.58627 40.6763 9.70936 40.8862L11.015 43.119L21.4167 37.0375C23.3316 35.9102 25.5128 35.3146 27.7349 35.3123C28.8094 35.3133 29.8795 35.4495 30.92 35.7176L45.4681 39.5393C46.7056 39.862 47.8078 40.5712 48.6142 41.5638C49.4206 42.5563 49.8892 43.7803 49.9516 45.0576L50.009 46.313L67.5844 34.8549C68.5852 34.2637 69.7255 33.9498 70.8879 33.9457C71.4857 33.9461 72.0805 34.0312 72.6544 34.1985C73.4217 34.4122 74.1366 34.7824 74.7539 35.2858C75.3712 35.7892 75.8776 36.4149 76.2412 37.1236C76.9258 38.4406 77.0971 39.9648 76.7218 41.4009V41.4224C76.304 42.9517 75.3069 44.2582 73.9421 45.0648L48.9671 61.0513C47.6729 61.8096 46.2005 62.2107 44.7005 62.2134C43.9892 62.2136 43.2809 62.1214 42.5933 61.939L24.7507 57.2761L20.6796 59.6578L22.3367 62.4931C22.4585 62.7017 22.4927 62.9499 22.4318 63.1836C22.3702 63.4192 22.2181 63.6209 22.0086 63.7449L16.6463 66.8762C16.5066 66.9584 16.3473 67.0011 16.1854 67V67ZM2.27568 46.2915L16.4221 64.8873L20.2994 62.6187L18.5939 59.7044L9.92098 44.8873C9.91022 44.8639 9.89767 44.8406 9.88511 44.8173L8.58669 42.6007L2.27568 46.2915ZM24.6198 55.3733C24.6973 55.3736 24.7744 55.3839 24.8493 55.4038L43.065 60.1689C43.6049 60.3131 44.1614 60.386 44.7203 60.3859C45.8737 60.3869 47.0066 60.0805 48.0022 59.4982L72.9682 43.5117C73.9344 42.9426 74.6446 42.0237 74.9518 40.9454C75.2127 39.9418 75.092 38.8771 74.6128 37.9575C74.361 37.4713 74.0115 37.0422 73.5863 36.6972C73.1611 36.3522 72.6692 36.0987 72.1415 35.9525C71.5452 35.7761 70.9189 35.7245 70.3017 35.801C69.6846 35.8776 69.0898 36.0805 68.5547 36.3973L68.5278 36.4134L47.9466 49.8407H47.9233L47.7744 49.8963C47.7365 49.9135 47.6993 49.9327 47.6633 49.9536L47.5646 49.9805H47.5252L47.4965 49.9895C46.9653 50.1496 46.4139 50.233 45.8591 50.237C45.6109 50.2361 45.3631 50.2211 45.1166 50.1922C44.8449 50.1632 44.5758 50.1141 44.3114 50.0451L44.2755 50.0361L32.0534 48.1082C31.9347 48.0895 31.8208 48.0475 31.7183 47.9846C31.6159 47.9218 31.5268 47.8394 31.4561 47.7422C31.3855 47.6449 31.3348 47.5347 31.3068 47.4178C31.2788 47.3009 31.2741 47.1796 31.293 47.0609C31.3314 46.8217 31.4629 46.6074 31.6589 46.4649C31.8548 46.3224 32.0992 46.2633 32.3386 46.3005L44.6629 48.266C44.8789 48.3205 45.0981 48.3613 45.3193 48.388C45.4704 48.406 45.6226 48.415 45.7748 48.4149C46.0818 48.4138 46.3878 48.3802 46.6876 48.3145L46.9244 48.266L47.084 48.0867C47.5083 47.6093 47.8153 47.0394 47.9807 46.4224C48.1222 45.8913 48.1573 45.3374 48.084 44.7927C48.0106 44.248 47.8302 43.7231 47.5531 43.2484C47.2761 42.7737 46.9079 42.3584 46.4697 42.0266C46.0316 41.6947 45.5321 41.4528 45 41.3148L30.4591 37.4823C29.5711 37.2522 28.6576 37.1353 27.7403 37.1344C25.8409 37.1358 23.9764 37.6454 22.3403 38.6103L11.9386 44.6918L19.7614 58.0634L24.1606 55.4917C24.3005 55.4123 24.4589 55.3715 24.6198 55.3733V55.3733Z" fill="#10B981"/>
<path d="M50.5004 35.7713C46.963 35.7713 43.505 34.7223 40.5637 32.757C37.6224 30.7917 35.3299 27.9984 33.9762 24.7302C32.6225 21.462 32.2683 17.8658 32.9584 14.3963C33.6485 10.9269 35.352 7.73995 37.8533 5.2386C40.3547 2.73724 43.5416 1.0338 47.0111 0.343676C50.4806 -0.346446 54.0768 0.00774958 57.345 1.36147C60.6131 2.7152 63.4065 5.00765 65.3718 7.94893C67.3371 10.8902 68.3861 14.3482 68.3861 17.8857C68.3804 22.6275 66.4942 27.1735 63.1412 30.5264C59.7882 33.8794 55.2422 35.7656 50.5004 35.7713V35.7713ZM50.5004 1.82928C47.3247 1.82893 44.2202 2.77032 41.5795 4.5344C38.9388 6.29848 36.8805 8.80602 35.665 11.7399C34.4494 14.6738 34.1312 17.9023 34.7505 21.017C35.3699 24.1318 36.899 26.9929 39.1444 29.2386C41.3899 31.4843 44.2508 33.0137 47.3655 33.6334C50.4802 34.2531 53.7087 33.9352 56.6427 32.72C59.5767 31.5048 62.0845 29.4468 63.8489 26.8063C65.6133 24.1658 66.555 21.0614 66.555 17.8857C66.5503 13.629 64.8573 9.54804 61.8476 6.53796C58.8378 3.52789 54.7571 1.83451 50.5004 1.82928V1.82928Z" fill="#10B981"/>
<path d="M50.4987 28.3556C50.2563 28.3552 50.0239 28.2587 49.8525 28.0872C49.6811 27.9158 49.5846 27.6834 49.5841 27.441V26.313L49.0837 26.1533C48.1293 25.8574 47.2945 25.264 46.7012 24.46C46.1079 23.656 45.7871 22.6834 45.7856 21.6842C45.7856 21.4416 45.882 21.2089 46.0535 21.0374C46.2251 20.8659 46.4577 20.7695 46.7003 20.7695C46.9429 20.7695 47.1755 20.8659 47.347 21.0374C47.5186 21.2089 47.6149 21.4416 47.6149 21.6842C47.6146 22.255 47.7835 22.8132 48.1005 23.288C48.4174 23.7628 48.8681 24.1329 49.3954 24.3516C49.9228 24.5702 50.5031 24.6275 51.063 24.5162C51.6229 24.4049 52.1373 24.13 52.5409 23.7264C52.9446 23.3227 53.2195 22.8084 53.3308 22.2485C53.442 21.6886 53.3847 21.1082 53.1661 20.5809C52.9475 20.0535 52.5774 19.6029 52.1025 19.2859C51.6277 18.969 51.0696 18.8 50.4987 18.8004C49.374 18.804 48.2852 18.404 47.4303 17.6731C46.5754 16.9422 46.011 15.9288 45.8397 14.8172C45.6684 13.7055 45.9016 12.5693 46.4969 11.6149C47.0922 10.6606 48.01 9.95143 49.0837 9.61632L49.5841 9.4585V8.33224C49.5841 8.08966 49.6804 7.85702 49.852 7.68549C50.0235 7.51397 50.2561 7.4176 50.4987 7.4176C50.7413 7.4176 50.9739 7.51397 51.1455 7.68549C51.317 7.85702 51.4134 8.08966 51.4134 8.33224V9.4585L51.9137 9.61632C52.8684 9.91258 53.7035 10.5061 54.2972 11.3104C54.8908 12.1147 55.2119 13.0877 55.2136 14.0873C55.2136 14.3299 55.1172 14.5625 54.9457 14.734C54.7742 14.9056 54.5415 15.0019 54.299 15.0019C54.0564 15.0019 53.8237 14.9056 53.6522 14.734C53.4807 14.5625 53.3843 14.3299 53.3843 14.0873C53.3847 13.5165 53.2157 12.9584 52.8989 12.4836C52.582 12.0089 52.1315 11.6387 51.6042 11.4201C51.077 11.2014 50.4967 11.144 49.9369 11.2551C49.377 11.3663 48.8627 11.641 48.4589 12.0444C48.0552 12.4479 47.7802 12.9621 47.6687 13.5219C47.5572 14.0817 47.6143 14.662 47.8326 15.1893C48.051 15.7167 48.4208 16.1675 48.8954 16.4847C49.37 16.8018 49.9279 16.9711 50.4987 16.9711C51.6235 16.9675 52.7122 17.3675 53.5672 18.0984C54.4221 18.8293 54.9865 19.8426 55.1577 20.9543C55.329 22.066 55.0958 23.2022 54.5006 24.1565C53.9053 25.1109 52.9874 25.82 51.9137 26.1551L51.4134 26.313V27.4392C51.4136 27.5595 51.3901 27.6786 51.3443 27.7898C51.2984 27.901 51.2311 28.002 51.1461 28.0871C51.0611 28.1722 50.9602 28.2398 50.8492 28.2858C50.7381 28.3319 50.619 28.3556 50.4987 28.3556V28.3556Z" fill="#10B981"/>
</svg>
