<svg width="67" height="67" viewBox="0 0 67 67" fill="none" xmlns="http://www.w3.org/2000/svg">
<path d="M65.1066 21.2701C65.089 21.0955 65.007 20.9337 64.8766 20.8164C64.7462 20.699 64.5768 20.6345 64.4013 20.6353H55.3389C55.1519 20.6353 54.9725 20.7097 54.8402 20.8419C54.708 20.9742 54.6337 21.1536 54.6337 21.3406V21.9189C54.0752 21.63 53.5572 21.269 53.0927 20.8452C52.4221 20.2426 51.5524 19.9092 50.6508 19.9089H46.7984C46.6146 18.1524 45.8624 16.5038 44.6562 15.2138C43.8131 14.3283 43.0607 13.3609 42.41 12.3258H43.8205C44.0075 12.3258 44.1869 12.2515 44.3192 12.1192C44.4514 11.987 44.5257 11.8076 44.5257 11.6205V0.706855C44.5259 0.610095 44.5062 0.514325 44.4679 0.425502C44.4295 0.33668 44.3732 0.256706 44.3026 0.190555C44.232 0.124404 44.1485 0.0734924 44.0574 0.0409868C43.9663 0.0084811 43.8694 -0.00492291 43.7729 0.00160865L21.2685 1.88109C21.0954 1.89848 20.9349 1.9792 20.8177 2.10775C20.7006 2.23629 20.635 2.4036 20.6337 2.57752V11.6487C20.6337 11.8358 20.708 12.0152 20.8403 12.1474C20.9726 12.2797 21.1519 12.354 21.339 12.354H21.9173C21.6331 12.9092 21.2774 13.4249 20.8594 13.8879C20.2524 14.5562 19.9167 15.427 19.9179 16.3298V20.2228C18.1513 20.4093 16.4952 21.172 15.2051 22.3932C14.3159 23.2303 13.3488 23.9806 12.3171 24.6341V23.1742C12.3148 22.9887 12.2395 22.8116 12.1075 22.6812C11.9755 22.5509 11.7974 22.4778 11.6119 22.4778H0.705246C0.520022 22.4778 0.342224 22.5506 0.210265 22.6806C0.0783056 22.8106 0.00277836 22.9873 0 23.1725C0 23.1919 0 23.2113 0 23.2307L1.87948 45.7192C1.89537 45.895 1.97663 46.0585 2.10721 46.1773C2.23778 46.2962 2.40818 46.3617 2.58473 46.361H11.6471C11.8342 46.361 12.0136 46.2867 12.1458 46.1544C12.2781 46.0221 12.3524 45.8428 12.3524 45.6557V45.0757C12.9101 45.3636 13.4281 45.7227 13.8934 46.1441C14.5627 46.7485 15.4334 47.0817 16.3353 47.0786H20.2141C20.3889 48.8323 21.1318 50.481 22.3299 51.7737C23.1716 52.6591 23.9218 53.6273 24.569 54.6635H23.1744C22.9873 54.6635 22.808 54.7378 22.6757 54.87C22.5434 55.0023 22.4691 55.1817 22.4691 55.3687V66.2948C22.4691 66.4818 22.5434 66.6612 22.6757 66.7934C22.808 66.9257 22.9873 67 23.1744 67H23.229L45.7246 65.124C45.9005 65.1082 46.0639 65.0269 46.1828 64.8963C46.3016 64.7657 46.3671 64.5953 46.3664 64.4188V55.3405C46.3664 55.1535 46.2921 54.9741 46.1599 54.8418C46.0276 54.7096 45.8482 54.6353 45.6612 54.6353H45.0688C45.3529 54.0773 45.7085 53.5587 46.1266 53.0925C46.7336 52.4242 47.0693 51.5534 47.0681 50.6506V46.8C48.8235 46.6098 50.4707 45.8586 51.7651 44.6578C52.6507 43.817 53.6181 43.0669 54.6531 42.4186V43.8133C54.6531 44.0003 54.7274 44.1797 54.8596 44.3119C54.9919 44.4442 55.1713 44.5185 55.3583 44.5185H66.2931C66.3901 44.5193 66.4862 44.4998 66.5751 44.4612C66.6641 44.4227 66.744 44.3659 66.8097 44.2946C66.8724 44.2223 66.9203 44.1384 66.9505 44.0477C66.9808 43.9569 66.9928 43.8611 66.986 43.7657L65.1066 21.2701ZM22.0389 3.21929L43.1311 1.45618V10.9223H22.0389V3.21929ZM23.8726 65.526V56.0687H44.9594V63.7788L23.8726 65.526ZM21.8767 14.7959C22.5426 14.0718 23.0762 13.2363 23.453 12.3276H40.7632C41.5529 13.7196 42.509 15.0103 43.6107 16.1711C44.7759 17.3954 45.4337 19.0158 45.4514 20.7059V27.8095C45.0167 27.5288 44.5168 27.3654 44.0003 27.3352C43.2814 27.2953 42.5698 27.4963 41.978 27.9064V26.8327C41.9763 26.2388 41.8125 25.6567 41.5041 25.1492C41.1957 24.6417 40.7546 24.228 40.2283 23.9529C39.702 23.6778 39.1106 23.5516 38.5178 23.5881C37.9251 23.6246 37.3536 23.8223 36.865 24.1598V22.8763C36.8432 22.0492 36.5161 21.2595 35.9468 20.6592C35.3774 20.0589 34.606 19.6906 33.7813 19.6251C32.9219 19.579 32.0793 19.876 31.4389 20.451C30.7984 21.026 30.4126 21.8317 30.3661 22.6911C30.3661 22.7476 30.3661 22.8057 30.3661 22.8675V23.5727C29.7713 23.1614 29.0573 22.9581 28.335 22.9944C27.4838 23.0583 26.6895 23.4463 26.1158 24.0783C25.5421 24.7104 25.2327 25.5385 25.2513 26.3919V34.8267C24.8976 34.5797 24.4983 34.4058 24.0766 34.3149C23.6549 34.2241 23.2193 34.2183 22.7953 34.2977C22.2431 34.3939 21.7271 34.6376 21.302 35.003V16.3016C21.301 15.746 21.5058 15.2096 21.8767 14.7959V14.7959ZM3.21945 44.9611L1.45633 23.8619H10.9207V44.9611H3.21945ZM20.1313 45.6663H16.3018C15.7465 45.6642 15.2108 45.4606 14.7943 45.0933C14.0727 44.4214 13.2368 43.884 12.3259 43.5065V26.1962C13.7157 25.4065 15.0041 24.4503 16.1625 23.3488C17.2017 22.3989 18.5127 21.7989 19.9109 21.6333V36.2848C19.9095 36.7167 19.9897 37.145 20.1471 37.5472C20.1436 37.5847 20.1436 37.6225 20.1471 37.66L20.1313 45.6663ZM45.6964 50.6612C45.6948 51.2179 45.4884 51.7545 45.1164 52.1687C44.4496 52.8954 43.916 53.734 43.5401 54.6458H26.2228C25.4365 53.2512 24.48 51.9595 23.3754 50.8005C22.207 49.5698 21.5491 47.9415 21.5347 46.2446V37.6318C21.5207 37.181 21.6609 36.739 21.9321 36.3787C22.2033 36.0184 22.5893 35.7614 23.0263 35.65C23.1436 35.6392 23.2616 35.6392 23.3789 35.65C23.8136 35.6462 24.235 35.7996 24.5655 36.082C24.7776 36.2494 24.9506 36.4611 25.0724 36.7023C25.1942 36.9435 25.2619 37.2083 25.2707 37.4784V37.4784V44.3792C25.296 44.5461 25.3802 44.6984 25.5082 44.8084C25.6361 44.9185 25.7993 44.979 25.968 44.979C26.1368 44.979 26.3 44.9185 26.4279 44.8084C26.5559 44.6984 26.6401 44.5461 26.6654 44.3792V37.4925V26.3849C26.6526 25.8902 26.8272 25.409 27.1541 25.0376C27.481 24.6662 27.9362 24.432 28.4285 24.382C28.9199 24.3545 29.4021 24.5234 29.7691 24.8513C30.1361 25.1793 30.3578 25.6396 30.3855 26.131C30.3855 26.161 30.3855 26.1927 30.3855 26.2244V38.5874C30.3703 38.6878 30.377 38.7903 30.4051 38.8878C30.4332 38.9854 30.482 39.0758 30.5482 39.1528C30.6144 39.2297 30.6964 39.2915 30.7887 39.3339C30.881 39.3762 30.9813 39.3981 31.0828 39.3981C31.1844 39.3981 31.2847 39.3762 31.377 39.3339C31.4693 39.2915 31.5513 39.2297 31.6175 39.1528C31.6837 39.0758 31.7325 38.9854 31.7606 38.8878C31.7887 38.7903 31.7953 38.6878 31.7802 38.5874V26.2456V22.8745C31.7778 22.3843 31.9702 21.9132 32.315 21.5647C32.6598 21.2163 33.1289 21.019 33.6191 21.0162C33.6579 21.0162 33.6949 21.0162 33.7337 21.0162C34.2239 21.0697 34.6758 21.3062 34.9991 21.6786C35.3224 22.0509 35.4932 22.5315 35.4774 23.0244V38.5839C35.5014 38.752 35.5852 38.9058 35.7134 39.0171C35.8417 39.1284 36.0058 39.1896 36.1756 39.1896C36.3454 39.1896 36.5095 39.1284 36.6378 39.0171C36.766 38.9058 36.8498 38.752 36.8738 38.5839V26.8309C36.8724 26.5891 36.9187 26.3493 37.01 26.1253C37.1014 25.9013 37.2359 25.6976 37.4061 25.5256C37.5762 25.3537 37.7785 25.217 38.0015 25.1233C38.2245 25.0296 38.4638 24.9808 38.7057 24.9797H38.8203C39.3065 25.0289 39.7569 25.2579 40.083 25.6219C40.4092 25.9859 40.5876 26.4586 40.5834 26.9473V38.5839C40.6073 38.752 40.6912 38.9058 40.8194 39.0171C40.9477 39.1284 41.1118 39.1896 41.2816 39.1896C41.4514 39.1896 41.6155 39.1284 41.7438 39.0171C41.872 38.9058 41.9558 38.752 41.9798 38.5839V30.5846C41.9808 30.3314 42.0339 30.0812 42.1358 29.8495C42.2377 29.6177 42.3863 29.4094 42.5722 29.2376C42.755 29.0579 42.9738 28.919 43.2142 28.83C43.4546 28.7409 43.7111 28.7038 43.9668 28.721C44.4477 28.7826 44.8895 29.0183 45.2085 29.3834C45.5275 29.7485 45.7017 30.2179 45.6982 30.7027L45.6964 50.6612ZM54.6566 40.7648C53.2677 41.5562 51.9791 42.5116 50.8183 43.6105C49.789 44.5819 48.4812 45.2065 47.0787 45.3965V30.7027C47.0784 30.4827 47.0577 30.2631 47.017 30.0469V30.0469C46.9817 29.8464 46.9256 29.6503 46.8495 29.4615V29.3504V21.2983H50.679C51.234 21.298 51.7703 21.4991 52.1882 21.8642C52.9121 22.5375 53.7512 23.075 54.6654 23.451C54.6566 47.1773 54.6566 38.9929 54.6566 40.7648ZM56.0512 43.1221V22.03H63.7278L65.5209 43.1221H56.0512Z" fill="#10B981"/>
</svg>
