<svg width="62" height="67" viewBox="0 0 62 67" fill="none" xmlns="http://www.w3.org/2000/svg">
<path d="M60.5258 65.1525H58.8691V57.341C58.8731 52.2229 57.4811 47.2007 54.843 42.8149L55.0057 41.5423C55.0818 40.9357 55.0285 40.3198 54.8494 39.7352C54.6704 39.1507 54.3696 38.6106 53.9668 38.1507C53.564 37.6907 53.0684 37.3212 52.5126 37.0666C51.9568 36.8119 51.3533 36.6779 50.7419 36.6732H49.8794C44.6503 31.7959 37.7659 29.0836 30.6152 29.0836C23.4646 29.0836 16.5801 31.7959 11.351 36.6732H10.5113C9.3665 36.6792 8.27089 37.1393 7.46505 37.9525C6.65922 38.7656 6.20904 39.8654 6.21336 41.0102C6.21335 41.1859 6.22476 41.3615 6.24754 41.5358L6.41028 42.8377C6.3738 42.872 6.34057 42.9096 6.31101 42.95C3.74037 47.303 2.38534 52.2661 2.38738 57.3215V65.1329H0.711168C0.522555 65.1329 0.341666 65.2079 0.208296 65.3412C0.0749264 65.4746 0 65.6555 0 65.8441C0 66.0327 0.0749264 66.2136 0.208296 66.347C0.341666 66.4803 0.522555 66.5553 0.711168 66.5553H60.5258C60.7144 66.5553 60.8953 66.4803 61.0287 66.347C61.162 66.2136 61.237 66.0327 61.237 65.8441C61.237 65.6555 61.162 65.4746 61.0287 65.3412C60.8953 65.2079 60.7144 65.1329 60.5258 65.1329V65.1525ZM30.6177 30.5396C36.8663 30.5308 42.92 32.714 47.7248 36.709H13.5073C18.3135 32.7144 24.3681 30.5313 30.6177 30.5396V30.5396ZM8.3371 39.111C8.60938 38.8032 8.94411 38.5569 9.31899 38.3885C9.69388 38.2202 10.1003 38.1336 10.5113 38.1346H50.7257C51.1061 38.1388 51.4819 38.218 51.8317 38.3675C52.1816 38.517 52.4985 38.734 52.7645 39.006C53.0305 39.278 53.2402 39.5997 53.3819 39.9528C53.5235 40.3059 53.5942 40.6835 53.5899 41.0639C53.5895 41.1727 53.5819 41.2815 53.5671 41.3893L50.8672 62.6219C50.7782 63.3156 50.4414 63.9538 49.919 64.4188C49.3965 64.8839 48.7236 65.1444 48.0242 65.1525H13.1981C12.4987 65.1444 11.8258 64.8839 11.3033 64.4188C10.7809 63.9538 10.4441 63.3156 10.3551 62.6219L7.63245 41.3926C7.58025 40.984 7.61612 40.569 7.73767 40.1755C7.85921 39.7819 8.06361 39.419 8.3371 39.111V39.111ZM3.78856 57.3703C3.78833 53.1498 4.7818 48.9886 6.68856 45.2235L8.91971 62.7993C9.0294 63.6769 9.40931 64.4987 10.0068 65.1508H3.78856V57.3703ZM51.2301 65.1525C51.8355 64.5032 52.223 63.6811 52.3384 62.8009L54.5696 45.2414C56.4781 49.0007 57.4717 53.1576 57.4696 57.3735V65.185L51.2301 65.1525ZM30.6177 55.2449C31.3303 55.2449 32.0269 55.0336 32.6194 54.6377C33.2119 54.2418 33.6737 53.6791 33.9464 53.0207C34.2191 52.3623 34.2905 51.6379 34.1515 50.939C34.0124 50.2401 33.6693 49.5981 33.1654 49.0942C32.6615 48.5903 32.0195 48.2471 31.3206 48.1081C30.6217 47.9691 29.8972 48.0404 29.2388 48.3131C28.5805 48.5858 28.0178 49.0476 27.6218 49.6401C27.2259 50.2327 27.0146 50.9293 27.0146 51.6419V51.6419C27.0146 52.5975 27.3942 53.5139 28.0699 54.1896C28.7456 54.8653 29.6621 55.2449 30.6177 55.2449V55.2449ZM30.6177 49.4596C31.0494 49.4592 31.4714 49.587 31.8305 49.8266C32.1896 50.0662 32.4696 50.4069 32.635 50.8056C32.8005 51.2044 32.8439 51.6432 32.7599 52.0666C32.6759 52.4901 32.4681 52.8791 32.163 53.1844C31.8579 53.4898 31.469 53.6978 31.0456 53.7822C30.6223 53.8665 30.1834 53.8234 29.7845 53.6583C29.3857 53.4931 29.0447 53.2134 28.8049 52.8545C28.565 52.4956 28.437 52.0736 28.437 51.6419V51.6419C28.4387 51.0639 28.6689 50.5101 29.0775 50.1012C29.486 49.6924 30.0397 49.4617 30.6177 49.4596V49.4596ZM30.6177 25.4719C33.1366 25.4719 35.599 24.7249 37.6934 23.3255C39.7878 21.926 41.4202 19.937 42.3841 17.6098C43.3481 15.2826 43.6003 12.7218 43.1089 10.2513C42.6175 7.78075 41.4045 5.51143 39.6233 3.73027C37.8422 1.94912 35.5729 0.736142 33.1023 0.244723C30.6318 -0.246696 28.071 0.00551828 25.7438 0.969471C23.4166 1.93342 21.4276 3.56582 20.0281 5.66023C18.6287 7.75465 17.8817 10.217 17.8817 12.7359V12.7359C17.8852 16.1127 19.2281 19.3501 21.6158 21.7378C24.0035 24.1255 27.2409 25.4684 30.6177 25.4719V25.4719ZM30.6177 1.42885C32.8557 1.42853 35.0435 2.09188 36.9045 3.33502C38.7655 4.57816 40.2161 6.34524 41.0727 8.4128C41.9294 10.4804 42.1537 12.7555 41.7173 14.9506C41.2809 17.1456 40.2033 19.1619 38.6209 20.7446C37.0385 22.3272 35.0224 23.405 32.8274 23.8418C30.6324 24.2785 28.3572 24.0545 26.2895 23.1981C24.2218 22.3418 22.4545 20.8915 21.2111 19.0306C19.9677 17.1698 19.3041 14.9821 19.3041 12.7441V12.7441C19.3054 9.74377 20.4977 6.8667 22.6191 4.74501C24.7405 2.62332 27.6174 1.43058 30.6177 1.42885Z" fill="#10B981"/>
</svg>
